<svg width="186" height="223" viewBox="0 0 186 223" fill="none" xmlns="http://www.w3.org/2000/svg">
<g filter="url(#filter0_dd_23900_152322)">
<path d="M56.5243 23.4453C58.212 23.4453 59.5801 24.8134 59.5801 26.5011L59.5801 32.6126C59.5801 34.3003 58.212 35.6684 56.5243 35.6684C54.8366 35.6684 53.4685 34.3003 53.4685 32.6126L53.4685 26.5011C53.4685 24.8134 54.8366 23.4453 56.5243 23.4453Z" fill="#67778E"/>
<path d="M7.90736 11.6682C7.90736 8.50384 10.4726 5.93861 13.6369 5.93861H50.3062C53.4706 5.93861 56.0358 8.50383 56.0358 11.6682V48.3375C56.0358 51.5018 53.4706 54.0671 50.3062 54.0671H13.6369C10.4726 54.0671 7.90736 51.5018 7.90736 48.3375V11.6682Z" fill="white"/>
<path d="M7.90736 11.6682C7.90736 8.50384 10.4726 5.93861 13.6369 5.93861H50.3062C53.4706 5.93861 56.0358 8.50383 56.0358 11.6682V48.3375C56.0358 51.5018 53.4706 54.0671 50.3062 54.0671H13.6369C10.4726 54.0671 7.90736 51.5018 7.90736 48.3375V11.6682Z" stroke="#C6D3E7" stroke-width="0.763944"/>
<path d="M16.7548 31.7745C15.8604 30.8801 15.8604 29.4301 16.7548 28.5357L30.5074 14.7831C31.4018 13.8887 32.8518 13.8887 33.7462 14.7831L47.4988 28.5357C48.3932 29.4301 48.3932 30.8801 47.4988 31.7745L33.7462 45.5271C32.8518 46.4215 31.4018 46.4215 30.5074 45.5271L16.7548 31.7745Z" fill="#EE513B"/>
<path d="M27.5606 17.4678L26.168 18.8605L29.7649 22.4574C29.6194 22.7695 29.5381 23.1177 29.5381 23.4848C29.5381 24.5272 30.193 25.4165 31.1137 25.7638V34.5629C30.193 34.9102 29.5381 35.7995 29.5381 36.8419C29.5381 38.1867 30.6283 39.2769 31.9732 39.2769C33.318 39.2769 34.4082 38.1867 34.4082 36.8419C34.4082 35.8969 33.87 35.0776 33.0833 34.674V25.7759L36.5217 29.2142C36.3832 29.52 36.3062 29.8596 36.3062 30.2171C36.3062 31.5619 37.3964 32.6522 38.7413 32.6522C40.0861 32.6522 41.1764 31.5619 41.1764 30.2171C41.1764 28.8722 40.0861 27.782 38.7413 27.782C38.4799 27.782 38.2283 27.8232 37.9922 27.8994L34.2995 24.2067C34.3702 23.9786 34.4082 23.7361 34.4082 23.4848C34.4082 22.14 33.318 21.0497 31.9732 21.0497C31.7219 21.0497 31.4795 21.0878 31.2514 21.1585L27.5606 17.4678Z" fill="white"/>
</g>
<g filter="url(#filter1_dd_23900_152322)">
<path d="M129.442 23.4453C131.13 23.4453 132.498 24.8134 132.498 26.5011L132.498 32.6126C132.498 34.3003 131.13 35.6684 129.442 35.6684C127.755 35.6684 126.386 34.3003 126.386 32.6126L126.386 26.5011C126.386 24.8134 127.755 23.4453 129.442 23.4453Z" fill="#67778E"/>
<path d="M129.823 11.6682C129.823 8.50384 132.389 5.93861 135.553 5.93861H172.222C175.387 5.93861 177.952 8.50383 177.952 11.6682V48.3375C177.952 51.5018 175.387 54.0671 172.222 54.0671H135.553C132.389 54.0671 129.823 51.5018 129.823 48.3375V11.6682Z" fill="white"/>
<path d="M129.823 11.6682C129.823 8.50384 132.389 5.93861 135.553 5.93861H172.222C175.387 5.93861 177.952 8.50383 177.952 11.6682V48.3375C177.952 51.5018 175.387 54.0671 172.222 54.0671H135.553C132.389 54.0671 129.823 51.5018 129.823 48.3375V11.6682Z" stroke="#C6D3E7" stroke-width="0.763944"/>
<path d="M167.747 39.951V21.9514L159.304 13.5078H142.221C141.992 13.5078 141.772 13.5988 141.61 13.7609C141.448 13.9229 141.357 14.1427 141.357 14.3718V39.951H167.747Z" fill="#E1FBFF" stroke="#394D54" stroke-width="0.671284" stroke-linejoin="round"/>
<path opacity="0.12" d="M167.745 22.667H160.167C159.938 22.667 159.718 22.576 159.556 22.414C159.394 22.252 159.303 22.0322 159.303 21.8031V14.2236L167.746 21.9517V22.667H167.745Z" fill="black" stroke="black" stroke-width="1.34257" stroke-linejoin="round"/>
<path d="M167.745 21.9512H160.167C159.938 21.9512 159.718 21.8602 159.556 21.6982C159.394 21.5361 159.303 21.3164 159.303 21.0872V13.5078L167.745 21.9512Z" fill="#F5FEFF" stroke="#394D54" stroke-width="0.671284" stroke-linejoin="round"/>
<path d="M141.357 39.9492V45.9186C141.357 46.0714 141.418 46.2179 141.526 46.3259C141.634 46.4339 141.781 46.4946 141.933 46.4946H167.171C167.323 46.4946 167.47 46.4339 167.578 46.3259C167.686 46.2179 167.747 46.0714 167.747 45.9186V39.9492H141.357Z" fill="#93E4F9" stroke="#394D54" stroke-width="0.671284" stroke-linejoin="round"/>
<path d="M143.453 42.062C143.682 42.0274 143.914 42.01 144.146 42.0098C144.614 42.0098 144.947 42.1183 145.168 42.3243C145.289 42.4406 145.384 42.5818 145.445 42.7382C145.507 42.8947 145.534 43.0625 145.524 43.2303C145.532 43.4098 145.505 43.5893 145.442 43.7579C145.38 43.9265 145.284 44.0807 145.161 44.2113C144.925 44.4473 144.535 44.5745 144.045 44.5745C143.847 44.5756 143.65 44.5656 143.453 44.5445V42.062H143.453ZM143.779 44.294C143.888 44.309 143.998 44.3153 144.108 44.3127C144.805 44.3127 145.183 43.9239 145.183 43.2418C145.187 42.6465 144.85 42.2684 144.16 42.2684C144.032 42.2663 143.904 42.2776 143.779 42.3019V44.2938L143.779 44.294Z" fill="#394D54"/>
<path d="M148.464 43.2626C148.464 44.1312 147.937 44.5917 147.293 44.5917C146.626 44.5917 146.158 44.075 146.158 43.3111C146.158 42.5099 146.656 41.9863 147.33 41.9863C148.019 41.9858 148.464 42.5136 148.464 43.2626ZM146.506 43.3038C146.506 43.8429 146.798 44.3261 147.311 44.3261C147.828 44.3261 148.12 43.8509 148.12 43.2777C148.12 42.7762 147.858 42.2519 147.315 42.2519C146.776 42.2516 146.506 42.7495 146.506 43.3038Z" fill="#394D54"/>
<path d="M151.009 44.4672C150.798 44.5537 150.571 44.5946 150.342 44.587C149.631 44.587 149.096 44.1378 149.096 43.3103C149.096 42.5204 149.631 41.9856 150.414 41.9856C150.619 41.9769 150.824 42.0153 151.013 42.0979L150.934 42.3637C150.774 42.2915 150.6 42.2557 150.425 42.2587C149.833 42.2587 149.44 42.637 149.44 43.2997C149.44 43.9174 149.796 44.3144 150.41 44.3144C150.592 44.3171 150.774 44.2813 150.941 44.2095L151.009 44.4672Z" fill="#394D54"/>
<path d="M151.708 42.0273H152.033V43.2441H152.044C152.111 43.1468 152.179 43.0569 152.242 42.9746L153.014 42.0273H153.418L152.504 43.0981L153.489 44.5509H153.103L152.272 43.3117L152.033 43.5887V44.551H151.707V42.0273H151.708Z" fill="#394D54"/>
<path d="M155.416 43.3677H154.435V44.2773H155.528V44.5509H154.109V42.0273H155.472V42.3009H154.436V43.0984H155.416V43.3681L155.416 43.3677Z" fill="#394D54"/>
<path d="M156.248 42.0612C156.454 42.0245 156.664 42.007 156.873 42.0089C157.221 42.0089 157.446 42.0724 157.603 42.2148C157.669 42.276 157.72 42.3504 157.754 42.433C157.788 42.5157 157.805 42.6047 157.802 42.6941C157.804 42.8385 157.758 42.9797 157.672 43.0959C157.587 43.2122 157.465 43.2972 157.327 43.338V43.3492C157.521 43.4168 157.637 43.5965 157.697 43.8584C157.741 44.0947 157.806 44.3266 157.892 44.5512H157.555C157.48 44.3561 157.423 44.1542 157.386 43.9483C157.311 43.6001 157.177 43.4691 156.881 43.4578H156.574V44.5512H156.248L156.248 42.0612ZM156.574 43.2106H156.907C157.255 43.2106 157.476 43.0196 157.476 42.7314C157.476 42.4056 157.24 42.2634 156.896 42.2596C156.788 42.2566 156.679 42.2667 156.574 42.2897V43.2113V43.2106Z" fill="#394D54"/>
<path d="M158.615 42.0273H159.974V42.3009H158.941V43.1396H159.896V43.4091H158.941V44.5512H158.615V42.0273Z" fill="#394D54"/>
<path d="M161.027 42.0273V44.5507H160.701V42.0273H161.027Z" fill="#394D54"/>
<path d="M161.926 42.0273H162.252V44.2774H163.33V44.551H161.926V42.0273Z" fill="#394D54"/>
<path d="M165.308 43.3677H164.328V44.2773H165.421V44.5509H164.002V42.0273H165.364V42.3009H164.328V43.0984H165.309V43.3681L165.308 43.3677Z" fill="#394D54"/>
<path d="M156.31 27.021H158.323V29.0795H159.341C159.817 29.0771 160.29 28.9979 160.74 28.8447C160.977 28.7663 161.205 28.6633 161.42 28.5375C161.144 28.1562 160.981 27.7054 160.947 27.236C160.89 26.6079 161.016 25.7901 161.441 25.2975L161.654 25.0527L161.906 25.2569C162.541 25.7671 163.075 26.4799 163.169 27.2926C163.946 27.0537 164.786 27.1318 165.505 27.5099L165.782 27.6683L165.636 27.952C165.067 29.0642 163.875 29.4089 162.71 29.3467C160.968 33.6907 157.172 35.7462 152.57 35.7462C150.193 35.7462 148.012 34.8576 146.77 32.7484L146.75 32.7138L146.569 32.3457C146.159 31.4157 145.998 30.3948 146.104 29.3839L146.133 29.0793H147.854V27.021H149.868V25.0077H153.895V22.9941H156.31V27.021Z" fill="#394D54"/>
<path d="M162.833 27.7831C162.968 26.7339 162.183 25.9098 161.695 25.5186C161.134 26.1665 161.047 27.8677 161.927 28.5835C161.436 29.02 160.401 29.4154 159.341 29.4154H146.438C146.327 30.4452 146.512 31.4853 146.972 32.4133L147.119 32.6818C147.212 32.8395 147.314 32.9919 147.423 33.1383C147.954 33.1724 148.443 33.1844 148.891 33.1743C149.616 33.1789 150.337 33.0738 151.031 32.8627C151.069 32.8517 151.11 32.8559 151.146 32.8742C151.181 32.8925 151.208 32.9237 151.221 32.9613C151.234 32.9989 151.232 33.04 151.215 33.0761C151.199 33.1123 151.169 33.1407 151.132 33.1556C151.06 33.1806 150.984 33.2041 150.907 33.2266C150.424 33.3618 149.928 33.4427 149.427 33.4678C149.462 33.4678 149.39 33.473 149.39 33.473C149.37 33.4741 149.345 33.477 149.324 33.4781C149.091 33.4911 148.84 33.494 148.582 33.494C148.301 33.494 148.024 33.4885 147.714 33.473L147.706 33.4781C148.781 34.6864 150.462 35.411 152.569 35.411C157.029 35.411 160.812 33.4339 162.487 28.9957C163.675 29.1176 164.817 28.8145 165.337 27.8005C164.51 27.3227 163.445 27.4752 162.833 27.7831Z" fill="#00AADA"/>
<path d="M162.833 27.7831C162.968 26.7339 162.183 25.9098 161.696 25.5186C161.134 26.1665 161.048 27.8677 161.928 28.5835C161.436 29.02 160.401 29.4154 159.341 29.4154H147.202C147.15 31.11 147.778 32.3961 148.891 33.1737C149.616 33.1783 150.338 33.0733 151.032 32.8621C151.07 32.8512 151.111 32.8553 151.146 32.8736C151.181 32.892 151.208 32.9231 151.221 32.9607C151.234 32.9983 151.232 33.0394 151.216 33.0755C151.199 33.1117 151.169 33.1401 151.133 33.155C151.061 33.1801 150.985 33.2035 150.907 33.226C150.411 33.3648 149.902 33.4492 149.388 33.4776L149.374 33.4632C150.891 34.2416 153.092 34.2389 155.615 33.2698C158.444 32.1827 161.077 30.1119 162.914 27.7436C162.886 27.7567 162.859 27.7698 162.833 27.7831Z" fill="#24B8EB"/>
<path d="M146.461 30.7607C146.537 31.3366 146.71 31.8956 146.972 32.414L147.118 32.6825C147.211 32.8402 147.313 32.9926 147.423 33.139C147.953 33.1731 148.442 33.1851 148.89 33.175C149.615 33.1796 150.337 33.0745 151.031 32.8634C151.069 32.8524 151.11 32.8565 151.145 32.8749C151.18 32.8932 151.207 32.9244 151.22 32.962C151.233 32.9996 151.231 33.0407 151.214 33.0768C151.198 33.113 151.168 33.1414 151.131 33.1563C151.059 33.1813 150.984 33.2048 150.906 33.2273C150.411 33.3642 149.902 33.4468 149.389 33.4736C149.369 33.4748 149.334 33.4751 149.313 33.4762C149.08 33.4892 148.831 33.4973 148.574 33.4973C148.292 33.4973 148.005 33.4918 147.695 33.4762C148.77 34.6848 150.461 35.4121 152.569 35.4121C156.387 35.4121 159.709 33.9629 161.637 30.761H146.461V30.7607Z" fill="#008BB8"/>
<path d="M147.32 30.7607C147.515 31.7377 148.078 32.6022 148.893 33.1749C149.618 33.1794 150.34 33.0744 151.034 32.8632C151.072 32.8523 151.113 32.8564 151.148 32.8748C151.184 32.8931 151.21 32.9243 151.223 32.9618C151.236 32.9994 151.234 33.0405 151.218 33.0767C151.201 33.1128 151.172 33.1413 151.135 33.1561C151.063 33.1812 150.987 33.2047 150.909 33.2271C150.411 33.364 149.898 33.4466 149.382 33.4735C150.9 34.252 153.094 34.2406 155.617 33.2719C157.174 32.6587 158.628 31.812 159.93 30.761H147.32V30.7607Z" fill="#039BC6"/>
<path d="M149.652 27.5033H149.79V28.9577H149.652V27.5033ZM149.388 27.5033H149.531V28.9577H149.388V27.5033ZM149.124 27.5033H149.267V28.9577H149.124V27.5033ZM148.859 27.5033H149.002V28.9577H148.859V27.5033H148.859ZM148.595 27.5033H148.739V28.9577H148.595V27.5033ZM148.335 27.5033H148.474V28.9577H148.337V27.5033H148.335ZM148.189 27.3579H149.934V29.1028H148.191V27.3574L148.189 27.3579Z" fill="#00ACD3"/>
<path d="M151.667 25.4892H151.805V26.9436H151.667V25.4892ZM151.403 25.4892H151.545V26.9436H151.402V25.4892H151.403ZM151.138 25.4892H151.281V26.9436H151.138V25.4892H151.138ZM150.874 25.4892H151.017V26.9436H150.874V25.4892ZM150.609 25.4892H150.752V26.9436H150.609L150.609 25.4892ZM150.349 25.4892H150.489V26.9436H150.35V25.4892H150.349ZM150.205 25.3438H151.95V27.0887H150.205L150.205 25.3438Z" fill="#00ACD3"/>
<path d="M151.667 27.5033H151.805V28.9577H151.667V27.5033ZM151.403 27.5033H151.545V28.9577H151.402V27.5033H151.403ZM151.138 27.5033H151.281V28.9577H151.138V27.5033H151.138ZM150.874 27.5033H151.017V28.9577H150.874V27.5033ZM150.609 27.5033H150.752V28.9577H150.609L150.609 27.5033ZM150.349 27.5033H150.489V28.9577H150.35V27.5033H150.349ZM150.205 27.3574H151.95V29.1024H150.205L150.205 27.3574Z" fill="#20C2EF"/>
<path d="M153.681 27.5033H153.819V28.9577H153.681V27.5033ZM153.417 27.5033H153.56V28.9577H153.417V27.5033ZM153.152 27.5033H153.296V28.9577H153.152V27.5033ZM152.888 27.5033H153.031V28.9577H152.888V27.5033H152.888ZM152.623 27.5033H152.767V28.9577H152.623V27.5033ZM152.364 27.5033H152.502V28.9577H152.364V27.5033H152.364ZM152.219 27.3579H153.965V29.1028H152.219V27.3574L152.219 27.3579Z" fill="#00ACD3"/>
<path d="M153.681 25.4892H153.819V26.9436H153.681V25.4892ZM153.417 25.4892H153.56V26.9436H153.417V25.4892ZM153.152 25.4892H153.296V26.9436H153.152V25.4892ZM152.888 25.4892H153.031V26.9436H152.888V25.4892H152.888ZM152.623 25.4892H152.767V26.9436H152.623V25.4892ZM152.364 25.4892H152.502V26.9436H152.364V25.4892H152.364ZM152.219 25.3438H153.965V27.0887H152.219V25.3438H152.219Z" fill="#20C2EF"/>
<path d="M155.692 27.5033H155.829V28.9577H155.692V27.5033ZM155.427 27.5033H155.569V28.9577H155.428V27.5033H155.427ZM155.163 27.5033H155.306V28.9577H155.163V27.5033ZM154.898 27.5033H155.042V28.9577H154.898L154.898 27.5033ZM154.634 27.5033H154.777V28.9577H154.634V27.5033ZM154.374 27.5033H154.511V28.9577H154.375V27.5033H154.374ZM154.229 27.3579H155.973V29.1028H154.23V27.3574L154.229 27.3579Z" fill="#20C2EF"/>
<path d="M155.692 25.4892H155.829V26.9436H155.692V25.4892ZM155.427 25.4892H155.569V26.9436H155.428V25.4892H155.427ZM155.163 25.4892H155.306V26.9436H155.163V25.4892ZM154.898 25.4892H155.042V26.9436H154.898L154.898 25.4892ZM154.634 25.4892H154.777V26.9436H154.634V25.4892ZM154.374 25.4892H154.511V26.9436H154.375V25.4892H154.374ZM154.229 25.3438H155.973V27.0887H154.23V25.3438H154.229Z" fill="#00ACD3"/>
<path d="M155.692 23.4755H155.829V24.9299H155.692V23.4755ZM155.427 23.4755H155.569V24.9299H155.428V23.4755H155.427ZM155.163 23.4755H155.306V24.9299H155.163V23.4755ZM154.898 23.4755H155.042V24.9299H154.898L154.898 23.4755ZM154.634 23.4755H154.777V24.9299H154.634V23.4755ZM154.374 23.4755H154.511V24.9299H154.375V23.4755H154.374ZM154.229 23.3301H155.973V25.075H154.23V23.3302L154.229 23.3301Z" fill="#20C2EF"/>
<path d="M157.707 27.5033H157.845V28.9577H157.707V27.5033ZM157.443 27.5033H157.586V28.9577H157.443V27.5033ZM157.178 27.5033H157.321V28.9577H157.179V27.5033H157.178ZM156.914 27.5033H157.057V28.9577H156.914V27.5033ZM156.65 27.5033H156.793V28.9577H156.65V27.5033H156.65ZM156.39 27.5033H156.528V28.9577H156.391V27.5033H156.39H156.39ZM156.244 27.3579H157.989V29.1028H156.245V27.3574L156.244 27.3579Z" fill="#00ACD3"/>
<path d="M151.835 31.9326C151.93 31.9326 152.023 31.9609 152.102 32.0137C152.181 32.0666 152.243 32.1418 152.28 32.2298C152.316 32.3177 152.326 32.4145 152.307 32.5079C152.288 32.6013 152.243 32.6871 152.175 32.7544C152.108 32.8217 152.022 32.8676 151.929 32.8861C151.835 32.9047 151.739 32.8952 151.651 32.8587C151.563 32.8223 151.488 32.7606 151.435 32.6814C151.382 32.6023 151.354 32.5092 151.354 32.414C151.354 32.2863 151.404 32.1639 151.495 32.0737C151.585 31.9834 151.707 31.9327 151.835 31.9326Z" fill="#D4EDF1"/>
<path d="M151.838 32.0666C151.881 32.0666 151.923 32.0746 151.963 32.0902C151.944 32.101 151.928 32.116 151.916 32.1341C151.904 32.1522 151.896 32.1729 151.894 32.1945C151.891 32.2161 151.893 32.238 151.9 32.2585C151.907 32.2791 151.919 32.2977 151.935 32.3129C151.95 32.3281 151.969 32.3395 151.99 32.3461C152.011 32.3528 152.033 32.3546 152.054 32.3513C152.076 32.348 152.096 32.3398 152.114 32.3273C152.132 32.3148 152.146 32.2984 152.157 32.2792C152.185 32.3477 152.191 32.4236 152.173 32.4956C152.155 32.5676 152.115 32.6319 152.057 32.679C152 32.7261 151.929 32.7535 151.855 32.7572C151.781 32.7608 151.707 32.7405 151.646 32.6993C151.584 32.6581 151.537 32.5981 151.512 32.5282C151.487 32.4583 151.486 32.3823 151.507 32.3113C151.529 32.2403 151.573 32.1782 151.632 32.1341C151.692 32.09 151.764 32.0663 151.838 32.0664" fill="#394D54"/>
<path d="M153.117 35.4009C151.925 34.8352 151.27 34.0662 150.906 33.2266C150.386 33.3651 149.851 33.4461 149.313 33.4683C149.08 33.4814 148.835 33.488 148.577 33.4882C148.281 33.4882 147.969 33.4795 147.641 33.462C148.734 34.5546 150.079 35.396 152.569 35.4114C152.753 35.4113 152.936 35.4078 153.117 35.4009Z" fill="#BFDBE0"/>
<path d="M151.351 33.9993C151.176 33.7576 151.028 33.4979 150.908 33.2246C150.388 33.3632 149.853 33.4444 149.314 33.4667C149.949 33.7846 150.642 33.9661 151.351 33.9993Z" fill="#D4EDF1"/>
</g>
<g filter="url(#filter2_dd_23900_152322)">
<path d="M86.375 134.097C86.375 132.409 87.7431 131.041 89.4308 131.041H95.5423C97.23 131.041 98.5981 132.409 98.5981 134.097C98.5981 135.784 97.23 137.153 95.5423 137.153H89.4308C87.7431 137.153 86.375 135.784 86.375 134.097Z" fill="#67778E"/>
<path d="M68.8683 91.3157C68.8683 88.1513 71.4335 85.5861 74.5979 85.5861H111.267C114.432 85.5861 116.997 88.1513 116.997 91.3156V127.985C116.997 131.149 114.432 133.715 111.267 133.715H74.5979C71.4335 133.715 68.8683 131.149 68.8683 127.985V91.3157Z" fill="white"/>
<path d="M68.8683 91.3157C68.8683 88.1513 71.4335 85.5861 74.5979 85.5861H111.267C114.432 85.5861 116.997 88.1513 116.997 91.3156V127.985C116.997 131.149 114.432 133.715 111.267 133.715H74.5979C71.4335 133.715 68.8683 131.149 68.8683 127.985V91.3157Z" stroke="#C6D3E7" stroke-width="0.763944"/>
<path d="M105.835 111.576L104.746 118.425L111.224 120.91L111.223 114.686L105.835 111.576Z" fill="#A299FF"/>
<path d="M77.6133 117.797V101.502L83.0039 103.211V114.685L91.7257 119.72L92.3773 122.205L91.7257 125.945L77.6133 117.797Z" fill="#7366FF"/>
<path d="M91.727 99.5798L83.0039 104.614L77.6133 101.502L91.7237 93.3555L105.836 101.502L102.859 103.874L100.449 104.615L91.727 99.5798Z" fill="#7366FF"/>
<path d="M111.225 120.908L105.835 124.022L100.447 120.908V114.686L111.225 120.908Z" fill="#5219FF"/>
<path d="M91.7278 103.442L91.7246 109.665L97.1168 112.776L97.1159 106.552L91.7278 103.442Z" fill="#A299FF"/>
<path d="M91.7246 109.665L86.3359 112.776L91.7256 115.889L97.1169 112.776L91.7246 109.665Z" fill="#5219FF"/>
<path d="M91.7278 103.442L86.3366 106.555L86.3359 112.776L91.7246 109.665L91.7278 103.442Z" fill="#7366FF"/>
<path d="M105.835 101.502V111.576L100.447 114.685V104.615L105.835 101.502Z" fill="url(#paint0_linear_23900_152322)"/>
<path d="M105.837 111.573L91.7246 119.721V125.945L105.835 117.797L105.837 111.573Z" fill="url(#paint1_linear_23900_152322)"/>
</g>
<path d="M59.918 29.0029C59.3657 29.0029 58.918 29.4506 58.918 30.0029C58.918 30.5552 59.3657 31.0029 59.918 31.0029V29.0029ZM92.2256 82.4113C92.6161 82.8018 93.2493 82.8018 93.6398 82.4113L100.004 76.0473C100.394 75.6568 100.394 75.0237 100.004 74.6331C99.6133 74.2426 98.9801 74.2426 98.5896 74.6331L92.9327 80.29L87.2759 74.6331C86.8853 74.2426 86.2522 74.2426 85.8616 74.6331C85.4711 75.0237 85.4711 75.6568 85.8616 76.0473L92.2256 82.4113ZM59.918 31.0029H68.9327V29.0029H59.918V31.0029ZM91.9327 54.0029V81.7042H93.9327V54.0029H91.9327ZM68.9327 31.0029C81.6353 31.0029 91.9327 41.3004 91.9327 54.0029H93.9327C93.9327 40.1958 82.7398 29.0029 68.9327 29.0029V31.0029Z" fill="#67778E"/>
<path d="M125.942 31.0029C126.495 31.0029 126.942 30.5552 126.942 30.0029C126.942 29.4506 126.495 29.0029 125.942 29.0029V31.0029ZM92.2265 82.4113C92.617 82.8018 93.2502 82.8018 93.6407 82.4113L100.005 76.0473C100.395 75.6568 100.395 75.0237 100.005 74.6331C99.6141 74.2426 98.981 74.2426 98.5904 74.6331L92.9336 80.29L87.2767 74.6331C86.8862 74.2426 86.2531 74.2426 85.8625 74.6331C85.472 75.0237 85.472 75.6568 85.8625 76.0473L92.2265 82.4113ZM125.942 29.0029H116.934V31.0029H125.942V29.0029ZM91.9336 54.0029V81.7042H93.9336V54.0029H91.9336ZM116.934 29.0029C103.126 29.0029 91.9336 40.1958 91.9336 54.0029H93.9336C93.9336 41.3004 104.231 31.0029 116.934 31.0029V29.0029Z" fill="#67778E"/>
<path d="M69.0977 52C69.0977 46.4772 73.5748 42 79.0977 42H106.098C111.621 42 116.098 46.4772 116.098 52C116.098 57.5228 111.621 62 106.098 62H79.0977C73.5748 62 69.0977 57.5228 69.0977 52Z" fill="#67778E"/>
<path d="M80.8574 52.5679H78.8486L78.8379 51.4614H80.5244C80.8216 51.4614 81.0651 51.4238 81.2549 51.3486C81.4447 51.2699 81.5861 51.1571 81.6792 51.0103C81.7759 50.8599 81.8242 50.6772 81.8242 50.4624C81.8242 50.2189 81.7777 50.022 81.6846 49.8716C81.5951 49.7212 81.4536 49.612 81.2603 49.5439C81.0705 49.4759 80.8252 49.4419 80.5244 49.4419H79.4072V56H77.7959V48.1797H80.5244C80.9792 48.1797 81.3856 48.2227 81.7437 48.3086C82.1053 48.3945 82.4115 48.5252 82.6621 48.7007C82.9128 48.8761 83.1043 49.0981 83.2368 49.3667C83.3693 49.6317 83.4355 49.9468 83.4355 50.312C83.4355 50.6343 83.3621 50.9315 83.2153 51.2036C83.0721 51.4757 82.8447 51.6978 82.5332 51.8696C82.2253 52.0415 81.8224 52.1364 81.3247 52.1543L80.8574 52.5679ZM80.7876 56H78.4082L79.0366 54.7432H80.7876C81.0705 54.7432 81.3014 54.6984 81.4805 54.6089C81.6595 54.5158 81.792 54.3905 81.8779 54.2329C81.9639 54.0754 82.0068 53.8945 82.0068 53.6904C82.0068 53.4613 81.9674 53.2625 81.8887 53.0942C81.8135 52.9259 81.6917 52.797 81.5234 52.7075C81.3551 52.6144 81.1331 52.5679 80.8574 52.5679H79.3052L79.3159 51.4614H81.2495L81.6201 51.8965C82.0964 51.8893 82.4795 51.9735 82.7695 52.1489C83.0632 52.3208 83.2762 52.5446 83.4087 52.8203C83.5448 53.096 83.6128 53.3914 83.6128 53.7065C83.6128 54.2078 83.5036 54.6304 83.2852 54.9741C83.0667 55.3143 82.7463 55.5703 82.3237 55.7422C81.9048 55.9141 81.3927 56 80.7876 56ZM89.1836 48.1797H90.7896V53.3467C90.7896 53.9482 90.6607 54.4549 90.4029 54.8667C90.1487 55.2785 89.796 55.5882 89.3448 55.7959C88.8972 56.0036 88.3816 56.1074 87.7979 56.1074C87.2142 56.1074 86.695 56.0036 86.2403 55.7959C85.7891 55.5882 85.4346 55.2785 85.1768 54.8667C84.9226 54.4549 84.7955 53.9482 84.7955 53.3467V48.1797H86.4068V53.3467C86.4068 53.6976 86.4623 53.984 86.5733 54.2061C86.6843 54.4281 86.8436 54.591 87.0513 54.6948C87.2626 54.7987 87.5114 54.8506 87.7979 54.8506C88.0915 54.8506 88.3404 54.7987 88.5445 54.6948C88.7522 54.591 88.9097 54.4281 89.0171 54.2061C89.1281 53.984 89.1836 53.6976 89.1836 53.3467V48.1797ZM93.8736 48.1797V56H92.2677V48.1797H93.8736ZM100.454 54.7432V56H96.5173V54.7432H100.454ZM97.0382 48.1797V56H95.4269V48.1797H97.0382ZM103.823 56H102.12L102.131 54.7432H103.823C104.245 54.7432 104.602 54.6483 104.892 54.4585C105.182 54.2651 105.4 53.984 105.547 53.6152C105.697 53.2464 105.773 52.8006 105.773 52.2778V51.8965C105.773 51.4954 105.73 51.1427 105.644 50.8384C105.561 50.534 105.438 50.278 105.273 50.0703C105.108 49.8626 104.906 49.7069 104.666 49.603C104.426 49.4956 104.151 49.4419 103.839 49.4419H102.088V48.1797H103.839C104.362 48.1797 104.84 48.2692 105.273 48.4482C105.71 48.6237 106.088 48.8761 106.406 49.2056C106.725 49.535 106.97 49.9289 107.142 50.3872C107.318 50.842 107.405 51.3486 107.405 51.9072V52.2778C107.405 52.8328 107.318 53.3395 107.142 53.7979C106.97 54.2562 106.725 54.6501 106.406 54.9795C106.091 55.3053 105.714 55.5578 105.273 55.7368C104.836 55.9123 104.353 56 103.823 56ZM103.033 48.1797V56H101.422V48.1797H103.033Z" fill="white"/>
<g filter="url(#filter3_dd_23900_152322)">
<path d="M68.8683 170.965C68.8683 167.801 71.4335 165.235 74.5979 165.235H111.267C114.432 165.235 116.997 167.801 116.997 170.965V207.634C116.997 210.799 114.432 213.364 111.267 213.364H74.5979C71.4335 213.364 68.8683 210.799 68.8683 207.634V170.965Z" fill="white"/>
<path d="M68.8683 170.965C68.8683 167.801 71.4335 165.235 74.5979 165.235H111.267C114.432 165.235 116.997 167.801 116.997 170.965V207.634C116.997 210.799 114.432 213.364 111.267 213.364H74.5979C71.4335 213.364 68.8683 210.799 68.8683 207.634V170.965Z" stroke="#C6D3E7" stroke-width="0.763944"/>
<path d="M107.851 198.074L92.8544 206.447L77.8574 198.074V179.777L92.8544 172.536L107.851 179.777V198.074Z" fill="#20C2EF" stroke="#394D54" stroke-width="0.733386" stroke-linejoin="round"/>
<path d="M92.8555 187.714V206.446L107.852 198.073V179.775L92.8555 187.714Z" fill="#20C2EF" stroke="#394D54" stroke-width="0.685823" stroke-linejoin="round"/>
<path d="M92.8544 172.536L77.8574 179.777L92.8544 187.716L107.851 179.777L92.8544 172.536Z" fill="#20C2EF" stroke="#394D54" stroke-width="0.685823" stroke-linejoin="round"/>
<path opacity="0.3" d="M78.6348 179.802L92.8552 172.924L107.078 179.789L106.468 180.115L92.8552 173.543L79.2586 180.108L78.6348 179.802Z" fill="white"/>
<path opacity="0.3" d="M93.1903 188.558L93.1836 187.942L107.518 180.354V180.974L93.1903 188.558Z" fill="white"/>
<path d="M92.8544 187.714V206.446L77.8574 198.073V179.775L92.8544 187.714Z" fill="#0EACD1" stroke="#394D54" stroke-width="0.685823" stroke-linejoin="round"/>
<path d="M105.142 183.961L103.375 184.95V198.26L105.142 197.273V183.961Z" fill="#0EACD1" stroke="#394D54" stroke-width="0.342912" stroke-linejoin="round"/>
<path d="M101.572 185.894L99.8047 186.882V200.193L101.572 199.206V185.894Z" fill="#0EACD1" stroke="#394D54" stroke-width="0.342912" stroke-linejoin="round"/>
<path d="M98.0001 187.983L96.2324 188.972V202.282L98.0001 201.296V187.983Z" fill="#0EACD1" stroke="#394D54" stroke-width="0.342912" stroke-linejoin="round"/>
<path opacity="0.12" d="M104.484 197.443L104.483 185.129L103.541 185.598V185.056L104.972 184.263V197.169L104.484 197.443Z" fill="black"/>
<path opacity="0.12" d="M100.933 199.355L100.932 187.057L99.9668 187.537V186.989L101.405 186.18V199.102L100.933 199.355Z" fill="black"/>
<path opacity="0.12" d="M97.3649 201.445L97.3635 189.151V189.151L96.4004 189.631V189.081L97.8354 188.271V201.19L97.3649 201.445Z" fill="black"/>
<path opacity="0.05" d="M92.5325 188.558L80.8469 199.343L78.1914 197.866V180.356L92.5325 187.953V188.558Z" fill="black"/>
</g>
<path d="M93.9336 137.597C93.9336 137.044 93.4859 136.597 92.9336 136.597C92.3813 136.597 91.9336 137.044 91.9336 137.597H93.9336ZM92.2265 162.061C92.617 162.451 93.2502 162.451 93.6407 162.061L100.005 155.697C100.395 155.306 100.395 154.673 100.005 154.283C99.6141 153.892 98.981 153.892 98.5904 154.283L92.9336 159.939L87.2767 154.283C86.8862 153.892 86.2531 153.892 85.8625 154.283C85.472 154.673 85.472 155.306 85.8625 155.697L92.2265 162.061ZM91.9336 137.597V161.354H93.9336V137.597H91.9336Z" fill="#67778E"/>
<defs>
<filter id="filter0_dd_23900_152322" x="0.525391" y="0.556641" width="66.0547" height="62.8926" filterUnits="userSpaceOnUse" color-interpolation-filters="sRGB">
<feFlood flood-opacity="0" result="BackgroundImageFix"/>
<feColorMatrix in="SourceAlpha" type="matrix" values="0 0 0 0 0 0 0 0 0 0 0 0 0 0 0 0 0 0 127 0" result="hardAlpha"/>
<feMorphology radius="1" operator="erode" in="SourceAlpha" result="effect1_dropShadow_23900_152322"/>
<feOffset dy="2"/>
<feGaussianBlur stdDeviation="4"/>
<feColorMatrix type="matrix" values="0 0 0 0 0.105882 0 0 0 0 0.141176 0 0 0 0 0.172549 0 0 0 0.08 0"/>
<feBlend mode="normal" in2="BackgroundImageFix" result="effect1_dropShadow_23900_152322"/>
<feColorMatrix in="SourceAlpha" type="matrix" values="0 0 0 0 0 0 0 0 0 0 0 0 0 0 0 0 0 0 127 0" result="hardAlpha"/>
<feMorphology radius="1" operator="erode" in="SourceAlpha" result="effect2_dropShadow_23900_152322"/>
<feOffset dy="2"/>
<feGaussianBlur stdDeviation="1"/>
<feComposite in2="hardAlpha" operator="out"/>
<feColorMatrix type="matrix" values="0 0 0 0 0.105882 0 0 0 0 0.141176 0 0 0 0 0.172549 0 0 0 0.04 0"/>
<feBlend mode="normal" in2="effect1_dropShadow_23900_152322" result="effect2_dropShadow_23900_152322"/>
<feBlend mode="normal" in="SourceGraphic" in2="effect2_dropShadow_23900_152322" result="shape"/>
</filter>
<filter id="filter1_dd_23900_152322" x="119.387" y="0.556641" width="65.9473" height="62.8926" filterUnits="userSpaceOnUse" color-interpolation-filters="sRGB">
<feFlood flood-opacity="0" result="BackgroundImageFix"/>
<feColorMatrix in="SourceAlpha" type="matrix" values="0 0 0 0 0 0 0 0 0 0 0 0 0 0 0 0 0 0 127 0" result="hardAlpha"/>
<feMorphology radius="1" operator="erode" in="SourceAlpha" result="effect1_dropShadow_23900_152322"/>
<feOffset dy="2"/>
<feGaussianBlur stdDeviation="4"/>
<feColorMatrix type="matrix" values="0 0 0 0 0.105882 0 0 0 0 0.141176 0 0 0 0 0.172549 0 0 0 0.08 0"/>
<feBlend mode="normal" in2="BackgroundImageFix" result="effect1_dropShadow_23900_152322"/>
<feColorMatrix in="SourceAlpha" type="matrix" values="0 0 0 0 0 0 0 0 0 0 0 0 0 0 0 0 0 0 127 0" result="hardAlpha"/>
<feMorphology radius="1" operator="erode" in="SourceAlpha" result="effect2_dropShadow_23900_152322"/>
<feOffset dy="2"/>
<feGaussianBlur stdDeviation="1"/>
<feComposite in2="hardAlpha" operator="out"/>
<feColorMatrix type="matrix" values="0 0 0 0 0.105882 0 0 0 0 0.141176 0 0 0 0 0.172549 0 0 0 0.04 0"/>
<feBlend mode="normal" in2="effect1_dropShadow_23900_152322" result="effect2_dropShadow_23900_152322"/>
<feBlend mode="normal" in="SourceGraphic" in2="effect2_dropShadow_23900_152322" result="shape"/>
</filter>
<filter id="filter2_dd_23900_152322" x="61.4863" y="80.2041" width="62.8926" height="65.9482" filterUnits="userSpaceOnUse" color-interpolation-filters="sRGB">
<feFlood flood-opacity="0" result="BackgroundImageFix"/>
<feColorMatrix in="SourceAlpha" type="matrix" values="0 0 0 0 0 0 0 0 0 0 0 0 0 0 0 0 0 0 127 0" result="hardAlpha"/>
<feMorphology radius="1" operator="erode" in="SourceAlpha" result="effect1_dropShadow_23900_152322"/>
<feOffset dy="2"/>
<feGaussianBlur stdDeviation="4"/>
<feColorMatrix type="matrix" values="0 0 0 0 0.105882 0 0 0 0 0.141176 0 0 0 0 0.172549 0 0 0 0.08 0"/>
<feBlend mode="normal" in2="BackgroundImageFix" result="effect1_dropShadow_23900_152322"/>
<feColorMatrix in="SourceAlpha" type="matrix" values="0 0 0 0 0 0 0 0 0 0 0 0 0 0 0 0 0 0 127 0" result="hardAlpha"/>
<feMorphology radius="1" operator="erode" in="SourceAlpha" result="effect2_dropShadow_23900_152322"/>
<feOffset dy="2"/>
<feGaussianBlur stdDeviation="1"/>
<feComposite in2="hardAlpha" operator="out"/>
<feColorMatrix type="matrix" values="0 0 0 0 0.105882 0 0 0 0 0.141176 0 0 0 0 0.172549 0 0 0 0.04 0"/>
<feBlend mode="normal" in2="effect1_dropShadow_23900_152322" result="effect2_dropShadow_23900_152322"/>
<feBlend mode="normal" in="SourceGraphic" in2="effect2_dropShadow_23900_152322" result="shape"/>
</filter>
<filter id="filter3_dd_23900_152322" x="61.4863" y="159.854" width="62.8926" height="62.8926" filterUnits="userSpaceOnUse" color-interpolation-filters="sRGB">
<feFlood flood-opacity="0" result="BackgroundImageFix"/>
<feColorMatrix in="SourceAlpha" type="matrix" values="0 0 0 0 0 0 0 0 0 0 0 0 0 0 0 0 0 0 127 0" result="hardAlpha"/>
<feMorphology radius="1" operator="erode" in="SourceAlpha" result="effect1_dropShadow_23900_152322"/>
<feOffset dy="2"/>
<feGaussianBlur stdDeviation="4"/>
<feColorMatrix type="matrix" values="0 0 0 0 0.105882 0 0 0 0 0.141176 0 0 0 0 0.172549 0 0 0 0.08 0"/>
<feBlend mode="normal" in2="BackgroundImageFix" result="effect1_dropShadow_23900_152322"/>
<feColorMatrix in="SourceAlpha" type="matrix" values="0 0 0 0 0 0 0 0 0 0 0 0 0 0 0 0 0 0 127 0" result="hardAlpha"/>
<feMorphology radius="1" operator="erode" in="SourceAlpha" result="effect2_dropShadow_23900_152322"/>
<feOffset dy="2"/>
<feGaussianBlur stdDeviation="1"/>
<feComposite in2="hardAlpha" operator="out"/>
<feColorMatrix type="matrix" values="0 0 0 0 0.105882 0 0 0 0 0.141176 0 0 0 0 0.172549 0 0 0 0.04 0"/>
<feBlend mode="normal" in2="effect1_dropShadow_23900_152322" result="effect2_dropShadow_23900_152322"/>
<feBlend mode="normal" in="SourceGraphic" in2="effect2_dropShadow_23900_152322" result="shape"/>
</filter>
<linearGradient id="paint0_linear_23900_152322" x1="103.141" y1="101.502" x2="103.141" y2="114.685" gradientUnits="userSpaceOnUse">
<stop offset="0.25" stop-color="#7366FF"/>
<stop offset="1" stop-color="#5219FF"/>
</linearGradient>
<linearGradient id="paint1_linear_23900_152322" x1="91.7245" y1="118.759" x2="105.837" y2="118.759" gradientUnits="userSpaceOnUse">
<stop stop-color="#7366FF"/>
<stop offset="1" stop-color="#A299FF"/>
</linearGradient>
</defs>
</svg>
