<svg width="186" height="223" viewBox="0 0 186 223" fill="none" xmlns="http://www.w3.org/2000/svg">
<g filter="url(#filter0_dd_23900_152267)">
<path d="M56.7782 23.4453C58.4659 23.4453 59.834 24.8134 59.834 26.5011L59.834 32.6126C59.834 34.3003 58.4659 35.6684 56.7782 35.6684C55.0906 35.6684 53.7224 34.3003 53.7224 32.6126L53.7224 26.5011C53.7224 24.8134 55.0906 23.4453 56.7782 23.4453Z" fill="#67778E"/>
<path d="M8.16127 11.6682C8.16127 8.50384 10.7265 5.93861 13.8908 5.93861H50.5601C53.7245 5.93861 56.2897 8.50383 56.2897 11.6682V48.3375C56.2897 51.5018 53.7245 54.0671 50.5601 54.0671H13.8909C10.7265 54.0671 8.16127 51.5018 8.16127 48.3375V11.6682Z" fill="white"/>
<path d="M8.16127 11.6682C8.16127 8.50384 10.7265 5.93861 13.8908 5.93861H50.5601C53.7245 5.93861 56.2897 8.50383 56.2897 11.6682V48.3375C56.2897 51.5018 53.7245 54.0671 50.5601 54.0671H13.8909C10.7265 54.0671 8.16127 51.5018 8.16127 48.3375V11.6682Z" stroke="#C6D3E7" stroke-width="0.763944"/>
<path d="M45.128 31.9287L44.0391 38.778L50.517 41.2625L50.516 35.0388L45.128 31.9287Z" fill="#A299FF"/>
<path d="M16.9062 38.1499V21.8545L22.2969 23.5638V35.0376L31.0186 40.0729L31.6703 42.5571L31.0186 46.2973L16.9062 38.1499Z" fill="#7366FF"/>
<path d="M31.0199 19.9324L22.2969 24.9668L16.9062 21.8547L31.0167 13.708L45.1291 21.8547L42.1516 24.227L39.7417 24.9677L31.0199 19.9324Z" fill="#7366FF"/>
<path d="M50.5183 41.2602L45.1276 44.3745L39.7402 41.2602V35.0381L50.5183 41.2602Z" fill="#5219FF"/>
<path d="M31.0208 23.7949L31.0176 30.0177L36.4098 33.1287L36.4088 26.905L31.0208 23.7949Z" fill="#A299FF"/>
<path d="M31.0176 30.0176L25.6289 33.1286L31.0186 36.2413L36.4098 33.1286L31.0176 30.0176Z" fill="#5219FF"/>
<path d="M31.0208 23.7949L25.6296 26.9076L25.6289 33.1287L31.0176 30.0177L31.0208 23.7949Z" fill="#7366FF"/>
<path d="M45.1276 21.8545V31.9284L39.7402 35.0379V24.9675L45.1276 21.8545Z" fill="url(#paint0_linear_23900_152267)"/>
<path d="M45.1297 31.9258L31.0176 40.0735V46.2979L45.128 38.1495L45.1297 31.9258Z" fill="url(#paint1_linear_23900_152267)"/>
</g>
<g filter="url(#filter1_dd_23900_152267)">
<path d="M130.077 170.964C130.077 167.8 132.643 165.235 135.807 165.235H172.476C175.641 165.235 178.206 167.8 178.206 170.964V207.633C178.206 210.798 175.641 213.363 172.476 213.363H135.807C132.643 213.363 130.077 210.798 130.077 207.633V170.964Z" fill="white"/>
<path d="M130.077 170.964C130.077 167.8 132.643 165.235 135.807 165.235H172.476C175.641 165.235 178.206 167.8 178.206 170.964V207.633C178.206 210.798 175.641 213.363 172.476 213.363H135.807C132.643 213.363 130.077 210.798 130.077 207.633V170.964Z" stroke="#C6D3E7" stroke-width="0.763944"/>
<path d="M154.018 172.003C153.703 172.019 153.394 172.097 153.11 172.233L140.714 178.156C140.394 178.309 140.112 178.532 139.89 178.808C139.668 179.084 139.511 179.406 139.432 179.75L136.374 193.054C136.303 193.361 136.295 193.678 136.351 193.988C136.406 194.297 136.523 194.593 136.696 194.856C136.738 194.921 136.783 194.983 136.831 195.044L145.41 205.711C145.632 205.987 145.914 206.21 146.235 206.363C146.556 206.516 146.907 206.596 147.263 206.596L161.022 206.592C161.378 206.593 161.729 206.513 162.05 206.361C162.371 206.208 162.653 205.985 162.875 205.709L171.452 195.04C171.674 194.764 171.83 194.442 171.91 194.097C171.989 193.753 171.989 193.395 171.91 193.051L168.847 179.747C168.768 179.403 168.611 179.081 168.389 178.805C168.167 178.529 167.885 178.306 167.565 178.152L155.168 172.233C154.81 172.062 154.415 171.983 154.018 172.003Z" fill="#326CE5"/>
<path d="M154.141 176.531C153.731 176.531 153.399 176.9 153.399 177.356C153.399 177.363 153.4 177.369 153.4 177.376C153.4 177.438 153.397 177.513 153.399 177.566C153.409 177.829 153.466 178.03 153.5 178.272C153.563 178.79 153.615 179.219 153.583 179.618C153.551 179.768 153.441 179.906 153.342 180.001L153.324 180.315C152.873 180.352 152.425 180.421 151.983 180.521C150.057 180.959 148.398 181.951 147.135 183.291C147.045 183.229 146.956 183.165 146.868 183.101C146.735 183.119 146.601 183.159 146.427 183.058C146.095 182.834 145.792 182.526 145.427 182.154C145.259 181.977 145.137 181.807 144.938 181.636C144.893 181.597 144.824 181.544 144.773 181.504C144.618 181.38 144.434 181.315 144.257 181.309C144.029 181.302 143.809 181.391 143.665 181.571C143.41 181.891 143.492 182.381 143.848 182.665C143.851 182.668 143.855 182.67 143.859 182.673C143.908 182.712 143.967 182.763 144.012 182.796C144.224 182.952 144.417 183.032 144.628 183.156C145.071 183.43 145.439 183.657 145.731 183.931C145.845 184.053 145.865 184.267 145.88 184.359L146.118 184.572C144.845 186.488 144.256 188.854 144.604 191.265L144.293 191.355C144.211 191.461 144.095 191.627 143.974 191.677C143.593 191.797 143.163 191.841 142.644 191.896C142.401 191.916 142.191 191.904 141.933 191.953C141.876 191.964 141.797 191.984 141.734 191.999L141.728 192C141.725 192.001 141.72 192.003 141.717 192.004C141.28 192.109 140.999 192.511 141.089 192.907C141.18 193.303 141.607 193.544 142.047 193.449C142.05 193.449 142.055 193.449 142.058 193.448C142.063 193.447 142.067 193.444 142.072 193.443C142.133 193.43 142.21 193.415 142.264 193.4C142.518 193.332 142.702 193.232 142.93 193.145C143.421 192.969 143.827 192.822 144.223 192.765C144.389 192.752 144.563 192.867 144.65 192.915L144.973 192.86C145.717 195.167 147.277 197.032 149.252 198.202L149.117 198.525C149.166 198.651 149.219 198.821 149.183 198.945C149.039 199.318 148.792 199.713 148.512 200.152C148.375 200.355 148.236 200.513 148.114 200.745C148.084 200.8 148.047 200.886 148.018 200.945C147.828 201.353 147.968 201.822 148.334 201.999C148.703 202.176 149.16 201.989 149.358 201.58C149.358 201.58 149.359 201.579 149.36 201.579C149.36 201.578 149.359 201.578 149.36 201.577C149.388 201.519 149.428 201.443 149.452 201.388C149.557 201.148 149.592 200.941 149.666 200.708C149.862 200.215 149.97 199.698 150.24 199.376C150.314 199.287 150.435 199.253 150.56 199.22L150.728 198.915C152.449 199.576 154.376 199.754 156.302 199.317C156.734 199.218 157.16 199.09 157.575 198.933C157.622 199.017 157.71 199.178 157.733 199.218C157.86 199.26 157.999 199.281 158.112 199.448C158.314 199.794 158.452 200.202 158.621 200.696C158.695 200.929 158.731 201.135 158.836 201.376C158.86 201.431 158.9 201.508 158.928 201.566C159.126 201.976 159.585 202.164 159.954 201.986C160.32 201.81 160.46 201.34 160.27 200.932C160.241 200.873 160.202 200.788 160.173 200.732C160.05 200.5 159.911 200.344 159.775 200.141C159.494 199.701 159.261 199.336 159.117 198.963C159.057 198.77 159.127 198.651 159.174 198.525C159.146 198.493 159.086 198.311 159.05 198.226C161.103 197.014 162.617 195.08 163.328 192.845C163.424 192.861 163.59 192.89 163.645 192.901C163.756 192.827 163.859 192.731 164.06 192.747C164.456 192.804 164.863 192.952 165.354 193.128C165.582 193.215 165.766 193.316 166.019 193.384C166.073 193.399 166.15 193.412 166.211 193.426C166.216 193.427 166.22 193.429 166.225 193.43C166.229 193.431 166.233 193.431 166.237 193.432C166.676 193.527 167.104 193.286 167.194 192.89C167.284 192.494 167.004 192.092 166.566 191.986C166.503 191.972 166.412 191.947 166.351 191.935C166.092 191.887 165.882 191.899 165.639 191.878C165.12 191.824 164.691 191.78 164.309 191.66C164.153 191.599 164.042 191.414 163.989 191.338L163.689 191.251C163.844 190.127 163.802 188.957 163.534 187.787C163.262 186.606 162.783 185.525 162.143 184.573C162.22 184.504 162.365 184.375 162.406 184.337C162.419 184.204 162.408 184.065 162.546 183.917C162.838 183.643 163.206 183.416 163.649 183.142C163.86 183.018 164.055 182.938 164.266 182.782C164.314 182.747 164.379 182.691 164.429 182.65C164.785 182.367 164.867 181.877 164.612 181.557C164.356 181.236 163.861 181.206 163.505 181.49C163.454 181.53 163.386 181.582 163.34 181.622C163.141 181.793 163.018 181.962 162.85 182.14C162.484 182.512 162.182 182.822 161.85 183.045C161.706 183.129 161.495 183.1 161.4 183.094L161.118 183.296C159.509 181.608 157.318 180.53 154.959 180.32C154.952 180.221 154.944 180.043 154.941 179.989C154.845 179.896 154.728 179.817 154.699 179.618C154.667 179.219 154.72 178.79 154.783 178.272C154.817 178.03 154.875 177.829 154.884 177.566C154.887 177.507 154.883 177.42 154.883 177.356C154.883 176.9 154.551 176.531 154.141 176.531ZM153.212 182.286L152.991 186.178L152.976 186.186C152.961 186.534 152.674 186.812 152.323 186.812C152.178 186.812 152.045 186.766 151.937 186.687L151.931 186.69L148.74 184.428C149.721 183.463 150.975 182.75 152.421 182.422C152.682 182.363 152.946 182.318 153.212 182.286ZM155.071 182.286C156.759 182.493 158.32 183.258 159.517 184.429L156.346 186.677L156.335 186.672C156.053 186.878 155.657 186.827 155.438 186.552C155.351 186.444 155.301 186.311 155.295 186.173L155.292 186.171L155.071 182.286ZM147.583 185.881L150.496 188.487L150.493 188.503C150.756 188.732 150.795 189.129 150.576 189.404C150.489 189.512 150.37 189.591 150.236 189.627L150.233 189.64L146.498 190.718C146.308 188.98 146.718 187.29 147.583 185.881ZM160.679 185.883C161.111 186.585 161.439 187.368 161.634 188.218C161.827 189.057 161.876 189.895 161.796 190.705L158.042 189.624L158.039 189.608C157.703 189.516 157.496 189.174 157.575 188.831C157.605 188.697 157.678 188.575 157.782 188.484L157.781 188.476L160.679 185.883V185.883ZM153.543 188.689H154.737L155.479 189.616L155.213 190.773L154.141 191.289L153.066 190.772L152.8 189.615L153.543 188.689ZM157.37 191.863C157.421 191.86 157.471 191.865 157.521 191.874L157.527 191.866L161.39 192.519C160.825 194.107 159.743 195.483 158.297 196.404L156.798 192.782L156.803 192.776C156.665 192.456 156.803 192.08 157.12 191.928C157.201 191.888 157.286 191.867 157.37 191.863ZM150.882 191.878C151.176 191.883 151.441 192.087 151.509 192.387C151.541 192.528 151.526 192.667 151.473 192.79L151.484 192.804L150 196.39C148.613 195.5 147.508 194.167 146.917 192.531L150.747 191.882L150.753 191.889C150.796 191.882 150.839 191.878 150.882 191.878ZM154.117 193.449C154.223 193.446 154.328 193.468 154.423 193.514C154.553 193.577 154.653 193.675 154.716 193.793H154.731L156.619 197.205C156.371 197.288 156.119 197.358 155.864 197.416C154.42 197.744 152.981 197.644 151.677 197.2L153.561 193.795H153.564C153.618 193.694 153.697 193.609 153.794 193.548C153.891 193.488 154.003 193.454 154.117 193.449L154.117 193.449Z" fill="white" stroke="white" stroke-width="0.14494"/>
</g>
<path d="M60.1719 29.0029C59.6196 29.0029 59.1719 29.4506 59.1719 30.0029C59.1719 30.5552 59.6196 31.0029 60.1719 31.0029V29.0029ZM126.903 190.006C127.293 189.615 127.293 188.982 126.903 188.592L120.539 182.228C120.148 181.837 119.515 181.837 119.124 182.228C118.734 182.618 118.734 183.251 119.124 183.642L124.781 189.299L119.124 194.956C118.734 195.346 118.734 195.979 119.124 196.37C119.515 196.76 120.148 196.76 120.539 196.37L126.903 190.006ZM60.1719 31.0029H69.1837V29.0029H60.1719V31.0029ZM92.1837 54.0029V165.299H94.1837V54.0029H92.1837ZM117.184 190.299H126.195V188.299H117.184V190.299ZM92.1837 165.299C92.1837 179.106 103.377 190.299 117.184 190.299V188.299C104.481 188.299 94.1837 178.001 94.1837 165.299H92.1837ZM69.1837 31.0029C81.8862 31.0029 92.1837 41.3004 92.1837 54.0029H94.1837C94.1837 40.1958 82.9908 29.0029 69.1837 29.0029V31.0029Z" fill="#67778E"/>
<path d="M28.875 110C28.875 104.477 33.3522 100 38.875 100H147.875C153.398 100 157.875 104.477 157.875 110C157.875 115.523 153.398 120 147.875 120H38.875C33.3521 120 28.875 115.523 28.875 110Z" fill="#67778E"/>
<path d="M42.8208 112.743V114H38.6582V112.743H42.8208ZM39.1846 106.18V114H37.5732V106.18H39.1846ZM42.2783 109.365V110.589H38.6582V109.365H42.2783ZM42.8154 106.18V107.442H38.6582V106.18H42.8154ZM45.1314 106.18L46.6031 108.908L48.0748 106.18H49.917L47.6451 110.058L49.9761 114H48.1177L46.6031 111.218L45.0884 114H43.2193L45.5557 110.058L43.2784 106.18H45.1314ZM56.0787 112.743V114H51.9161V112.743H56.0787ZM52.4425 106.18V114H50.8312V106.18H52.4425ZM55.5362 109.365V110.589H51.9161V109.365H55.5362ZM56.0734 106.18V107.442H51.9161V106.18H56.0734ZM61.5959 111.406H63.2018C63.1696 111.932 63.0246 112.399 62.7668 112.808C62.5125 113.216 62.1563 113.535 61.6979 113.764C61.2432 113.993 60.6953 114.107 60.0544 114.107C59.5531 114.107 59.1037 114.021 58.7062 113.85C58.3088 113.674 57.9686 113.424 57.6857 113.098C57.4064 112.772 57.1934 112.378 57.0466 111.916C56.8997 111.454 56.8263 110.937 56.8263 110.364V109.821C56.8263 109.248 56.9015 108.731 57.0519 108.269C57.2059 107.804 57.4243 107.408 57.7072 107.082C57.9937 106.756 58.3356 106.506 58.7331 106.33C59.1305 106.155 59.5745 106.067 60.0651 106.067C60.7168 106.067 61.2664 106.185 61.714 106.421C62.1652 106.658 62.5143 106.984 62.7614 107.399C63.012 107.814 63.1624 108.287 63.2126 108.817H61.6012C61.5833 108.502 61.5207 108.235 61.4132 108.017C61.3058 107.795 61.1429 107.628 60.9245 107.517C60.7096 107.403 60.4232 107.345 60.0651 107.345C59.7966 107.345 59.562 107.395 59.3615 107.496C59.161 107.596 58.9927 107.748 58.8566 107.952C58.7205 108.156 58.6185 108.414 58.5505 108.726C58.486 109.034 58.4538 109.395 58.4538 109.811V110.364C58.4538 110.768 58.4842 111.125 58.5451 111.433C58.606 111.737 58.6991 111.995 58.8244 112.206C58.9533 112.414 59.118 112.571 59.3185 112.679C59.5226 112.783 59.7679 112.834 60.0544 112.834C60.391 112.834 60.6685 112.781 60.8869 112.673C61.1053 112.566 61.2718 112.407 61.3864 112.195C61.5046 111.984 61.5744 111.721 61.5959 111.406ZM68.6223 106.18H70.2282V111.347C70.2282 111.948 70.0993 112.455 69.8415 112.867C69.5873 113.278 69.2346 113.588 68.7834 113.796C68.3358 114.004 67.8202 114.107 67.2365 114.107C66.6529 114.107 66.1337 114.004 65.6789 113.796C65.2278 113.588 64.8733 113.278 64.6155 112.867C64.3612 112.455 64.2341 111.948 64.2341 111.347V106.18H65.8454V111.347C65.8454 111.698 65.9009 111.984 66.0119 112.206C66.1229 112.428 66.2823 112.591 66.49 112.695C66.7012 112.799 66.9501 112.851 67.2365 112.851C67.5302 112.851 67.779 112.799 67.9831 112.695C68.1908 112.591 68.3484 112.428 68.4558 112.206C68.5668 111.984 68.6223 111.698 68.6223 111.347V106.18ZM75.0955 106.18V114H73.4895V106.18H75.0955ZM77.5017 106.18V107.442H71.1209V106.18H77.5017ZM83.7118 112.743V114H79.5492V112.743H83.7118ZM80.0755 106.18V114H78.4642V106.18H80.0755ZM83.1693 109.365V110.589H79.5492V109.365H83.1693ZM83.7064 106.18V107.442H79.5492V106.18H83.7064ZM84.6581 113.253C84.6581 113.024 84.7369 112.833 84.8944 112.679C85.0556 112.525 85.2686 112.448 85.5336 112.448C85.7986 112.448 86.0098 112.525 86.1674 112.679C86.3285 112.833 86.4091 113.024 86.4091 113.253C86.4091 113.483 86.3285 113.674 86.1674 113.828C86.0098 113.982 85.7986 114.059 85.5336 114.059C85.2686 114.059 85.0556 113.982 84.8944 113.828C84.7369 113.674 84.6581 113.483 84.6581 113.253ZM84.6581 108.822C84.6581 108.593 84.7369 108.402 84.8944 108.248C85.0556 108.094 85.2686 108.017 85.5336 108.017C85.7986 108.017 86.0098 108.094 86.1674 108.248C86.3285 108.402 86.4091 108.593 86.4091 108.822C86.4091 109.051 86.3285 109.243 86.1674 109.397C86.0098 109.551 85.7986 109.628 85.5336 109.628C85.2686 109.628 85.0556 109.551 84.8944 109.397C84.7369 109.243 84.6581 109.051 84.6581 108.822ZM90.5254 108.35V107.549C90.5254 107.317 90.5702 107.077 90.6597 106.83C90.7492 106.583 90.8674 106.35 91.0142 106.131C91.161 105.909 91.3221 105.721 91.4976 105.567L92.2173 105.986C92.0884 106.201 91.9774 106.432 91.8843 106.679C91.7912 106.926 91.7446 107.216 91.7446 107.549V108.35H90.5254ZM92.3516 108.35V107.549C92.3516 107.317 92.3963 107.077 92.4858 106.83C92.5754 106.583 92.6935 106.35 92.8403 106.131C92.9871 105.909 93.1483 105.721 93.3237 105.567L94.0435 105.986C93.9146 106.201 93.8036 106.432 93.7105 106.679C93.6174 106.926 93.5708 107.216 93.5708 107.549V108.35H92.3516ZM99.1793 111.954C99.1793 111.814 99.1578 111.689 99.1148 111.578C99.0754 111.463 99.0002 111.359 98.8892 111.266C98.7782 111.169 98.6225 111.075 98.4219 110.981C98.2214 110.888 97.9618 110.792 97.6431 110.691C97.2886 110.577 96.952 110.448 96.6334 110.305C96.3183 110.161 96.039 109.995 95.7955 109.805C95.5556 109.612 95.3658 109.388 95.2261 109.134C95.0901 108.88 95.022 108.584 95.022 108.248C95.022 107.922 95.0936 107.626 95.2369 107.361C95.3801 107.093 95.5806 106.864 95.8384 106.674C96.0962 106.48 96.4006 106.332 96.7515 106.228C97.106 106.124 97.4945 106.072 97.917 106.072C98.4935 106.072 98.9966 106.176 99.4263 106.384C99.856 106.591 100.189 106.876 100.425 107.238C100.665 107.599 100.785 108.013 100.785 108.479H99.1846C99.1846 108.249 99.1363 108.049 99.0396 107.877C98.9465 107.701 98.8033 107.564 98.6099 107.463C98.4201 107.363 98.1802 107.313 97.8902 107.313C97.6109 107.313 97.3781 107.356 97.192 107.442C97.0058 107.524 96.8661 107.637 96.773 107.78C96.6799 107.92 96.6334 108.077 96.6334 108.253C96.6334 108.385 96.6656 108.505 96.73 108.613C96.7981 108.72 96.8983 108.82 97.0308 108.914C97.1633 109.007 97.3262 109.094 97.5196 109.177C97.7129 109.259 97.9367 109.34 98.191 109.418C98.6171 109.547 98.9913 109.692 99.3135 109.854C99.6394 110.015 99.9115 110.195 100.13 110.396C100.348 110.597 100.513 110.824 100.624 111.078C100.735 111.332 100.791 111.621 100.791 111.943C100.791 112.283 100.724 112.587 100.592 112.856C100.459 113.125 100.268 113.352 100.017 113.538C99.7665 113.724 99.4675 113.866 99.1202 113.962C98.7728 114.059 98.3843 114.107 97.9546 114.107C97.5679 114.107 97.1866 114.057 96.8106 113.957C96.4346 113.853 96.0927 113.697 95.7847 113.49C95.4804 113.282 95.2369 113.017 95.0543 112.695C94.8716 112.373 94.7803 111.991 94.7803 111.551H96.397C96.397 111.794 96.4346 112 96.5098 112.168C96.585 112.337 96.6906 112.473 96.8267 112.577C96.9664 112.681 97.1311 112.756 97.3209 112.802C97.5142 112.849 97.7255 112.872 97.9546 112.872C98.2339 112.872 98.4631 112.833 98.6421 112.754C98.8248 112.675 98.959 112.566 99.045 112.426C99.1345 112.287 99.1793 112.129 99.1793 111.954ZM105.427 106.18V114H103.821V106.18H105.427ZM107.833 106.18V107.442H101.452V106.18H107.833ZM111.395 107.517L109.268 114H107.555L110.461 106.18H111.551L111.395 107.517ZM113.162 114L111.03 107.517L110.858 106.18H111.959L114.881 114H113.162ZM113.066 111.089V112.351H108.935V111.089H113.066ZM115.65 106.18H118.567C119.165 106.18 119.678 106.269 120.108 106.448C120.541 106.627 120.874 106.892 121.107 107.243C121.34 107.594 121.456 108.026 121.456 108.538C121.456 108.957 121.385 109.316 121.241 109.617C121.102 109.914 120.903 110.163 120.645 110.364C120.391 110.561 120.092 110.718 119.748 110.836L119.238 111.105H116.703L116.692 109.848H118.577C118.86 109.848 119.095 109.798 119.281 109.698C119.467 109.597 119.607 109.458 119.7 109.279C119.797 109.1 119.845 108.892 119.845 108.656C119.845 108.405 119.798 108.188 119.705 108.006C119.612 107.823 119.471 107.684 119.281 107.587C119.091 107.49 118.853 107.442 118.567 107.442H117.261V114H115.65V106.18ZM120.022 114L118.239 110.514L119.942 110.503L121.746 113.925V114H120.022ZM125.915 106.18V114H124.309V106.18H125.915ZM128.322 106.18V107.442H121.941V106.18H128.322ZM127.941 113.253C127.941 113.024 128.02 112.833 128.178 112.679C128.339 112.525 128.552 112.448 128.817 112.448C129.082 112.448 129.293 112.525 129.451 112.679C129.612 112.833 129.692 113.024 129.692 113.253C129.692 113.483 129.612 113.674 129.451 113.828C129.293 113.982 129.082 114.059 128.817 114.059C128.552 114.059 128.339 113.982 128.178 113.828C128.02 113.674 127.941 113.483 127.941 113.253ZM135.268 111.954C135.268 111.814 135.247 111.689 135.204 111.578C135.165 111.463 135.089 111.359 134.978 111.266C134.867 111.169 134.712 111.075 134.511 110.981C134.311 110.888 134.051 110.792 133.732 110.691C133.378 110.577 133.041 110.448 132.723 110.305C132.407 110.161 132.128 109.995 131.885 109.805C131.645 109.612 131.455 109.388 131.315 109.134C131.179 108.88 131.111 108.584 131.111 108.248C131.111 107.922 131.183 107.626 131.326 107.361C131.469 107.093 131.67 106.864 131.928 106.674C132.185 106.48 132.49 106.332 132.841 106.228C133.195 106.124 133.584 106.072 134.006 106.072C134.583 106.072 135.086 106.176 135.516 106.384C135.945 106.591 136.278 106.876 136.515 107.238C136.754 107.599 136.874 108.013 136.874 108.479H135.274C135.274 108.249 135.225 108.049 135.129 107.877C135.036 107.701 134.892 107.564 134.699 107.463C134.509 107.363 134.269 107.313 133.979 107.313C133.7 107.313 133.467 107.356 133.281 107.442C133.095 107.524 132.955 107.637 132.862 107.78C132.769 107.92 132.723 108.077 132.723 108.253C132.723 108.385 132.755 108.505 132.819 108.613C132.887 108.72 132.988 108.82 133.12 108.914C133.253 109.007 133.415 109.094 133.609 109.177C133.802 109.259 134.026 109.34 134.28 109.418C134.706 109.547 135.08 109.692 135.403 109.854C135.729 110.015 136.001 110.195 136.219 110.396C136.438 110.597 136.602 110.824 136.713 111.078C136.824 111.332 136.88 111.621 136.88 111.943C136.88 112.283 136.814 112.587 136.681 112.856C136.549 113.125 136.357 113.352 136.106 113.538C135.856 113.724 135.557 113.866 135.209 113.962C134.862 114.059 134.474 114.107 134.044 114.107C133.657 114.107 133.276 114.057 132.9 113.957C132.524 113.853 132.182 113.697 131.874 113.49C131.57 113.282 131.326 113.017 131.143 112.695C130.961 112.373 130.87 111.991 130.87 111.551H132.486C132.486 111.794 132.524 112 132.599 112.168C132.674 112.337 132.78 112.473 132.916 112.577C133.056 112.681 133.22 112.756 133.41 112.802C133.603 112.849 133.815 112.872 134.044 112.872C134.323 112.872 134.552 112.833 134.731 112.754C134.914 112.675 135.048 112.566 135.134 112.426C135.224 112.287 135.268 112.129 135.268 111.954ZM143.235 109.365V110.622H139.153V109.365H143.235ZM139.631 106.18V114H138.019V106.18H139.631ZM144.384 106.18V114H142.778V106.18H144.384ZM147.216 105.75V106.566C147.216 106.799 147.171 107.039 147.082 107.286C146.996 107.533 146.879 107.768 146.732 107.99C146.586 108.208 146.424 108.394 146.249 108.548L145.524 108.129C145.656 107.918 145.769 107.689 145.862 107.442C145.955 107.191 146.002 106.901 146.002 106.572V105.75H147.216ZM149.069 105.75V106.566C149.069 106.799 149.024 107.039 148.935 107.286C148.849 107.533 148.732 107.768 148.585 107.99C148.439 108.208 148.278 108.394 148.102 108.548L147.377 108.129C147.509 107.918 147.622 107.689 147.715 107.442C147.808 107.191 147.855 106.901 147.855 106.572V105.75H149.069Z" fill="white"/>
<path d="M75 155C75 149.477 79.4772 145 85 145H100.556C106.078 145 110.556 149.477 110.556 155C110.556 160.523 106.078 165 100.556 165H85C79.4772 165 75 160.523 75 155Z" fill="white"/>
<path fill-rule="evenodd" clip-rule="evenodd" d="M84.0195 164.953L84.1647 163.46C84.4391 163.486 84.7177 163.5 85 163.5H85.9722V165H85C84.6692 165 84.3421 164.984 84.0195 164.953ZM99.5833 165V163.5H100.556C100.838 163.5 101.116 163.486 101.391 163.46L101.536 164.953C101.214 164.984 100.886 165 100.556 165H99.5833ZM103.459 164.572L103.024 163.136C103.561 162.974 104.076 162.759 104.562 162.499L105.27 163.821C104.698 164.128 104.092 164.38 103.459 164.572ZM106.9 162.73L105.947 161.571C106.378 161.218 106.773 160.822 107.127 160.392L108.286 161.344C107.87 161.85 107.406 162.315 106.9 162.73ZM109.377 159.715L108.054 159.007C108.315 158.52 108.529 158.006 108.692 157.469L110.127 157.904C109.936 158.536 109.683 159.142 109.377 159.715ZM110.508 155.981L109.015 155.835C109.042 155.561 109.056 155.282 109.056 155C109.056 154.718 109.042 154.439 109.015 154.165L110.508 154.019C110.539 154.342 110.556 154.669 110.556 155C110.556 155.331 110.539 155.658 110.508 155.981ZM110.127 152.096L108.692 152.531C108.529 151.994 108.315 151.48 108.054 150.993L109.377 150.285C109.683 150.858 109.936 151.464 110.127 152.096ZM108.286 148.656L107.127 149.608C106.773 149.178 106.378 148.782 105.947 148.429L106.9 147.27C107.406 147.685 107.87 148.15 108.286 148.656ZM105.27 146.179L104.562 147.501C104.076 147.241 103.561 147.026 103.024 146.864L103.459 145.428C104.092 145.62 104.698 145.872 105.27 146.179ZM85.9722 145H85C84.6692 145 84.3421 145.016 84.0195 145.047L84.1647 146.54C84.4391 146.514 84.7177 146.5 85 146.5H85.9722V145ZM82.0962 145.428L82.5311 146.864C81.9944 147.026 81.4799 147.241 80.9934 147.501L80.2852 146.179C80.8578 145.872 81.4637 145.62 82.0962 145.428ZM78.656 147.27L79.6082 148.429C79.1776 148.782 78.7824 149.178 78.4286 149.608L77.2696 148.656C77.6854 148.15 78.1499 147.685 78.656 147.27ZM76.179 150.285L77.5013 150.993C77.2407 151.48 77.0263 151.994 76.8637 152.531L75.4281 152.096C75.6197 151.464 75.8723 150.858 76.179 150.285ZM75.0475 154.019L76.5404 154.165C76.5137 154.439 76.5 154.718 76.5 155C76.5 155.282 76.5137 155.561 76.5404 155.835L75.0475 155.981C75.0161 155.658 75 155.331 75 155C75 154.669 75.0161 154.342 75.0475 154.019ZM75.4281 157.904L76.8637 157.469C77.0263 158.006 77.2407 158.52 77.5013 159.007L76.179 159.715C75.8723 159.142 75.6197 158.536 75.4281 157.904ZM77.2696 161.344L78.4286 160.392C78.7824 160.822 79.1776 161.218 79.6082 161.571L78.656 162.73C78.1499 162.315 77.6854 161.85 77.2696 161.344ZM82.0962 164.572L82.5311 163.136C81.9944 162.974 81.4799 162.759 80.9934 162.499L80.2852 163.821C80.8578 164.128 81.4637 164.38 82.0962 164.572ZM87.9167 145V146.5H89.8611V145H87.9167ZM91.8056 145V146.5H93.75V145H91.8056ZM95.6944 145V146.5H97.6389V145H95.6944ZM99.5833 145V146.5H100.556C100.838 146.5 101.116 146.514 101.391 146.54L101.536 145.047C101.213 145.016 100.886 145 100.556 145H99.5833ZM97.6389 165V163.5H95.6944V165H97.6389ZM93.75 165V163.5H91.8056V165H93.75ZM89.8611 165V163.5H87.9167V165H89.8611Z" fill="#67778E"/>
<path d="M100.351 155.496H98.3418L98.3311 154.389H100.018C100.315 154.389 100.558 154.352 100.748 154.276C100.938 154.198 101.079 154.085 101.172 153.938C101.269 153.788 101.317 153.605 101.317 153.39C101.317 153.147 101.271 152.95 101.178 152.799C101.088 152.649 100.947 152.54 100.753 152.472C100.564 152.404 100.318 152.37 100.018 152.37H98.9004V158.928H97.2891V151.107H100.018C100.472 151.107 100.879 151.15 101.237 151.236C101.598 151.322 101.905 151.453 102.155 151.628C102.406 151.804 102.597 152.026 102.73 152.294C102.862 152.559 102.929 152.875 102.929 153.24C102.929 153.562 102.855 153.859 102.708 154.131C102.565 154.403 102.338 154.625 102.026 154.797C101.718 154.969 101.316 155.064 100.818 155.082L100.351 155.496ZM100.281 158.928H97.9014L98.5298 157.671H100.281C100.564 157.671 100.795 157.626 100.974 157.537C101.153 157.444 101.285 157.318 101.371 157.161C101.457 157.003 101.5 156.822 101.5 156.618C101.5 156.389 101.461 156.19 101.382 156.022C101.307 155.854 101.185 155.725 101.017 155.635C100.848 155.542 100.626 155.496 100.351 155.496H98.7983L98.8091 154.389H100.743L101.113 154.824C101.59 154.817 101.973 154.901 102.263 155.077C102.556 155.249 102.769 155.472 102.902 155.748C103.038 156.024 103.106 156.319 103.106 156.634C103.106 157.136 102.997 157.558 102.778 157.902C102.56 158.242 102.239 158.498 101.817 158.67C101.398 158.842 100.886 158.928 100.281 158.928Z" fill="#67778E"/>
<path d="M96.0859 154.835V155.206C96.0859 155.8 96.0054 156.333 95.8442 156.806C95.6831 157.279 95.4557 157.682 95.1621 158.015C94.8685 158.344 94.5176 158.597 94.1094 158.772C93.7048 158.947 93.2554 159.035 92.7612 159.035C92.2707 159.035 91.8213 158.947 91.4131 158.772C91.0085 158.597 90.6576 158.344 90.3604 158.015C90.0632 157.682 89.8322 157.279 89.6675 156.806C89.5063 156.333 89.4258 155.8 89.4258 155.206V154.835C89.4258 154.237 89.5063 153.703 89.6675 153.234C89.8286 152.762 90.056 152.359 90.3496 152.026C90.6468 151.693 90.9977 151.439 91.4023 151.263C91.8105 151.088 92.2599 151 92.7505 151C93.2446 151 93.694 151.088 94.0986 151.263C94.5068 151.439 94.8577 151.693 95.1514 152.026C95.4486 152.359 95.6777 152.762 95.8389 153.234C96.0036 153.703 96.0859 154.237 96.0859 154.835ZM94.4585 155.206V154.824C94.4585 154.409 94.4209 154.044 94.3457 153.729C94.2705 153.413 94.1595 153.148 94.0127 152.934C93.8659 152.719 93.6868 152.558 93.4756 152.45C93.2643 152.339 93.0226 152.284 92.7505 152.284C92.4784 152.284 92.2367 152.339 92.0254 152.45C91.8177 152.558 91.6405 152.719 91.4937 152.934C91.3504 153.148 91.2412 153.413 91.166 153.729C91.0908 154.044 91.0532 154.409 91.0532 154.824V155.206C91.0532 155.617 91.0908 155.983 91.166 156.301C91.2412 156.616 91.3522 156.883 91.499 157.102C91.6458 157.316 91.8249 157.479 92.0361 157.59C92.2474 157.701 92.4891 157.757 92.7612 157.757C93.0334 157.757 93.2751 157.701 93.4863 157.59C93.6976 157.479 93.8748 157.316 94.0181 157.102C94.1613 156.883 94.2705 156.616 94.3457 156.301C94.4209 155.983 94.4585 155.617 94.4585 155.206Z" fill="#67778E"/>
<path d="M86.6362 156.527V151.107H88.2422V156.527C88.2422 157.05 88.1276 157.499 87.8984 157.875C87.6693 158.247 87.356 158.534 86.9585 158.734C86.5646 158.935 86.1206 159.035 85.6265 159.035C85.1144 159.035 84.6615 158.949 84.2676 158.777C83.8737 158.605 83.564 158.342 83.3384 157.988C83.1128 157.63 83 157.177 83 156.629H84.6167C84.6167 156.915 84.6561 157.143 84.7349 157.311C84.8172 157.479 84.9336 157.599 85.084 157.671C85.2344 157.743 85.4152 157.778 85.6265 157.778C85.8306 157.778 86.0078 157.73 86.1582 157.633C86.3086 157.537 86.425 157.395 86.5073 157.209C86.5933 157.023 86.6362 156.795 86.6362 156.527Z" fill="#67778E"/>
<defs>
<filter id="filter0_dd_23900_152267" x="0.779297" y="0.556641" width="66.0547" height="62.8926" filterUnits="userSpaceOnUse" color-interpolation-filters="sRGB">
<feFlood flood-opacity="0" result="BackgroundImageFix"/>
<feColorMatrix in="SourceAlpha" type="matrix" values="0 0 0 0 0 0 0 0 0 0 0 0 0 0 0 0 0 0 127 0" result="hardAlpha"/>
<feMorphology radius="1" operator="erode" in="SourceAlpha" result="effect1_dropShadow_23900_152267"/>
<feOffset dy="2"/>
<feGaussianBlur stdDeviation="4"/>
<feColorMatrix type="matrix" values="0 0 0 0 0.105882 0 0 0 0 0.141176 0 0 0 0 0.172549 0 0 0 0.08 0"/>
<feBlend mode="normal" in2="BackgroundImageFix" result="effect1_dropShadow_23900_152267"/>
<feColorMatrix in="SourceAlpha" type="matrix" values="0 0 0 0 0 0 0 0 0 0 0 0 0 0 0 0 0 0 127 0" result="hardAlpha"/>
<feMorphology radius="1" operator="erode" in="SourceAlpha" result="effect2_dropShadow_23900_152267"/>
<feOffset dy="2"/>
<feGaussianBlur stdDeviation="1"/>
<feComposite in2="hardAlpha" operator="out"/>
<feColorMatrix type="matrix" values="0 0 0 0 0.105882 0 0 0 0 0.141176 0 0 0 0 0.172549 0 0 0 0.04 0"/>
<feBlend mode="normal" in2="effect1_dropShadow_23900_152267" result="effect2_dropShadow_23900_152267"/>
<feBlend mode="normal" in="SourceGraphic" in2="effect2_dropShadow_23900_152267" result="shape"/>
</filter>
<filter id="filter1_dd_23900_152267" x="122.695" y="159.853" width="62.8926" height="62.8926" filterUnits="userSpaceOnUse" color-interpolation-filters="sRGB">
<feFlood flood-opacity="0" result="BackgroundImageFix"/>
<feColorMatrix in="SourceAlpha" type="matrix" values="0 0 0 0 0 0 0 0 0 0 0 0 0 0 0 0 0 0 127 0" result="hardAlpha"/>
<feMorphology radius="1" operator="erode" in="SourceAlpha" result="effect1_dropShadow_23900_152267"/>
<feOffset dy="2"/>
<feGaussianBlur stdDeviation="4"/>
<feColorMatrix type="matrix" values="0 0 0 0 0.105882 0 0 0 0 0.141176 0 0 0 0 0.172549 0 0 0 0.08 0"/>
<feBlend mode="normal" in2="BackgroundImageFix" result="effect1_dropShadow_23900_152267"/>
<feColorMatrix in="SourceAlpha" type="matrix" values="0 0 0 0 0 0 0 0 0 0 0 0 0 0 0 0 0 0 127 0" result="hardAlpha"/>
<feMorphology radius="1" operator="erode" in="SourceAlpha" result="effect2_dropShadow_23900_152267"/>
<feOffset dy="2"/>
<feGaussianBlur stdDeviation="1"/>
<feComposite in2="hardAlpha" operator="out"/>
<feColorMatrix type="matrix" values="0 0 0 0 0.105882 0 0 0 0 0.141176 0 0 0 0 0.172549 0 0 0 0.04 0"/>
<feBlend mode="normal" in2="effect1_dropShadow_23900_152267" result="effect2_dropShadow_23900_152267"/>
<feBlend mode="normal" in="SourceGraphic" in2="effect2_dropShadow_23900_152267" result="shape"/>
</filter>
<linearGradient id="paint0_linear_23900_152267" x1="42.434" y1="21.8545" x2="42.434" y2="35.038" gradientUnits="userSpaceOnUse">
<stop offset="0.25" stop-color="#7366FF"/>
<stop offset="1" stop-color="#5219FF"/>
</linearGradient>
<linearGradient id="paint1_linear_23900_152267" x1="31.0174" y1="39.1119" x2="45.1296" y2="39.1119" gradientUnits="userSpaceOnUse">
<stop stop-color="#7366FF"/>
<stop offset="1" stop-color="#A299FF"/>
</linearGradient>
</defs>
</svg>
