<svg width="186" height="223" viewBox="0 0 186 223" fill="none" xmlns="http://www.w3.org/2000/svg">
<g filter="url(#filter0_dd_23873_49319)">
<path d="M56.2216 23.4453C57.9092 23.4453 59.2773 24.8134 59.2773 26.5011L59.2773 32.6126C59.2773 34.3003 57.9092 35.6684 56.2216 35.6684C54.5339 35.6684 53.1658 34.3003 53.1658 32.6126L53.1658 26.5011C53.1658 24.8134 54.5339 23.4453 56.2216 23.4453Z" fill="#67778E"/>
<path d="M7.60463 11.6682C7.60463 8.50384 10.1698 5.93861 13.3342 5.93861H50.0035C53.1679 5.93861 55.7331 8.50383 55.7331 11.6682V48.3375C55.7331 51.5018 53.1679 54.0671 50.0035 54.0671H13.3342C10.1699 54.0671 7.60463 51.5018 7.60463 48.3375V11.6682Z" fill="white"/>
<path d="M7.60463 11.6682C7.60463 8.50384 10.1698 5.93861 13.3342 5.93861H50.0035C53.1679 5.93861 55.7331 8.50383 55.7331 11.6682V48.3375C55.7331 51.5018 53.1679 54.0671 50.0035 54.0671H13.3342C10.1699 54.0671 7.60463 51.5018 7.60463 48.3375V11.6682Z" stroke="#C6D3E7" stroke-width="0.763944"/>
<path d="M44.5714 31.9292L43.4824 38.7785L49.9604 41.263L49.9594 35.0393L44.5714 31.9292Z" fill="#A299FF"/>
<path d="M16.3496 38.1509V21.8555L21.7402 23.5648V35.0385L30.462 40.0739L31.1136 42.5581L30.462 46.2983L16.3496 38.1509Z" fill="#7366FF"/>
<path d="M30.4633 19.9329L21.7402 24.9673L16.3496 21.8552L30.4601 13.7085L44.5725 21.8552L41.5949 24.2275L39.1851 24.9682L30.4633 19.9329Z" fill="#7366FF"/>
<path d="M49.9616 41.2607L44.571 44.375L39.1836 41.2607V35.0386L49.9616 41.2607Z" fill="#5219FF"/>
<path d="M30.4642 23.7949L30.4609 30.0177L35.8532 33.1287L35.8522 26.905L30.4642 23.7949Z" fill="#A299FF"/>
<path d="M30.461 30.0176L25.0723 33.1286L30.4619 36.2413L35.8532 33.1286L30.461 30.0176Z" fill="#5219FF"/>
<path d="M30.4642 23.7949L25.0729 26.9076L25.0723 33.1287L30.4609 30.0177L30.4642 23.7949Z" fill="#7366FF"/>
<path d="M44.571 21.8555V31.9294L39.1836 35.0389V24.9685L44.571 21.8555Z" fill="url(#paint0_linear_23873_49319)"/>
<path d="M44.573 31.9258L30.4609 40.0735V46.2979L44.5714 38.1495L44.573 31.9258Z" fill="url(#paint1_linear_23873_49319)"/>
</g>
<g filter="url(#filter1_dd_23873_49319)">
<path d="M129.521 170.964C129.521 167.8 132.086 165.235 135.25 165.235H171.92C175.084 165.235 177.649 167.8 177.649 170.964V207.633C177.649 210.798 175.084 213.363 171.92 213.363H135.25C132.086 213.363 129.521 210.798 129.521 207.633V170.964Z" fill="white"/>
<path d="M129.521 170.964C129.521 167.8 132.086 165.235 135.25 165.235H171.92C175.084 165.235 177.649 167.8 177.649 170.964V207.633C177.649 210.798 175.084 213.363 171.92 213.363H135.25C132.086 213.363 129.521 210.798 129.521 207.633V170.964Z" stroke="#C6D3E7" stroke-width="0.763944"/>
<g clip-path="url(#clip0_23873_49319)">
<path d="M153.462 172.004C153.146 172.019 152.838 172.098 152.553 172.233L140.158 178.156C139.837 178.309 139.555 178.532 139.333 178.808C139.111 179.084 138.955 179.407 138.875 179.751L135.817 193.055C135.747 193.361 135.739 193.679 135.794 193.988C135.849 194.298 135.967 194.593 136.139 194.857C136.181 194.921 136.226 194.984 136.274 195.044L144.853 205.711C145.076 205.987 145.357 206.21 145.678 206.363C145.999 206.517 146.351 206.596 146.707 206.596L160.465 206.593C160.821 206.593 161.173 206.514 161.493 206.361C161.814 206.208 162.096 205.986 162.319 205.71L170.895 195.041C171.117 194.765 171.274 194.442 171.353 194.098C171.432 193.754 171.432 193.396 171.353 193.051L168.29 179.748C168.211 179.403 168.055 179.081 167.833 178.805C167.611 178.529 167.329 178.306 167.008 178.153L154.611 172.233C154.253 172.062 153.858 171.983 153.462 172.004Z" fill="#326CE5"/>
<path d="M153.584 176.531C153.174 176.531 152.842 176.9 152.842 177.356C152.842 177.363 152.844 177.369 152.844 177.376C152.843 177.438 152.84 177.513 152.842 177.566C152.852 177.829 152.909 178.03 152.944 178.272C153.006 178.79 153.058 179.219 153.026 179.618C152.995 179.768 152.884 179.906 152.785 180.001L152.768 180.315C152.316 180.352 151.868 180.421 151.427 180.521C149.5 180.959 147.842 181.951 146.579 183.291C146.489 183.229 146.399 183.165 146.311 183.101C146.178 183.119 146.045 183.159 145.87 183.058C145.538 182.834 145.236 182.526 144.87 182.154C144.702 181.977 144.581 181.807 144.382 181.636C144.336 181.597 144.267 181.544 144.217 181.504C144.061 181.38 143.877 181.315 143.7 181.309C143.472 181.302 143.252 181.391 143.109 181.571C142.853 181.891 142.935 182.381 143.291 182.665C143.295 182.668 143.298 182.67 143.302 182.673C143.351 182.712 143.411 182.763 143.456 182.796C143.667 182.952 143.86 183.032 144.071 183.156C144.515 183.43 144.883 183.657 145.174 183.931C145.288 184.053 145.308 184.267 145.323 184.359L145.561 184.572C144.288 186.488 143.699 188.854 144.047 191.265L143.736 191.355C143.655 191.461 143.539 191.627 143.418 191.677C143.036 191.797 142.606 191.841 142.088 191.896C141.844 191.916 141.634 191.904 141.376 191.953C141.319 191.964 141.24 191.984 141.178 191.999L141.171 192C141.168 192.001 141.164 192.003 141.16 192.004C140.723 192.109 140.442 192.511 140.533 192.907C140.623 193.303 141.05 193.544 141.49 193.449C141.493 193.449 141.498 193.449 141.501 193.448C141.506 193.447 141.51 193.444 141.515 193.443C141.577 193.43 141.654 193.415 141.707 193.4C141.961 193.332 142.145 193.232 142.373 193.145C142.864 192.969 143.271 192.822 143.667 192.765C143.832 192.752 144.006 192.867 144.093 192.915L144.417 192.86C145.161 195.167 146.72 197.032 148.695 198.202L148.56 198.525C148.609 198.651 148.663 198.821 148.626 198.945C148.482 199.318 148.236 199.713 147.955 200.152C147.819 200.355 147.68 200.513 147.557 200.745C147.528 200.8 147.49 200.886 147.462 200.945C147.271 201.353 147.411 201.822 147.777 201.999C148.146 202.176 148.603 201.989 148.801 201.58C148.802 201.58 148.803 201.579 148.803 201.579C148.803 201.578 148.803 201.578 148.803 201.577C148.831 201.519 148.871 201.443 148.895 201.388C149 201.148 149.035 200.941 149.109 200.708C149.305 200.215 149.413 199.698 149.683 199.376C149.757 199.287 149.878 199.253 150.003 199.22L150.171 198.915C151.893 199.576 153.82 199.754 155.745 199.317C156.178 199.218 156.603 199.09 157.018 198.933C157.065 199.017 157.153 199.178 157.176 199.218C157.304 199.26 157.442 199.281 157.555 199.448C157.757 199.794 157.896 200.202 158.064 200.696C158.138 200.929 158.175 201.135 158.28 201.376C158.304 201.431 158.344 201.508 158.372 201.566C158.569 201.976 159.028 202.164 159.397 201.986C159.764 201.81 159.904 201.34 159.713 200.932C159.685 200.873 159.646 200.788 159.616 200.732C159.493 200.5 159.354 200.344 159.218 200.141C158.937 199.701 158.704 199.336 158.56 198.963C158.5 198.77 158.571 198.651 158.617 198.525C158.589 198.493 158.529 198.311 158.494 198.226C160.546 197.014 162.06 195.08 162.771 192.845C162.867 192.861 163.034 192.89 163.088 192.901C163.2 192.827 163.302 192.731 163.503 192.747C163.899 192.804 164.306 192.952 164.797 193.128C165.025 193.215 165.209 193.316 165.463 193.384C165.516 193.399 165.593 193.412 165.655 193.426C165.659 193.427 165.664 193.429 165.669 193.43C165.672 193.431 165.677 193.431 165.68 193.432C166.12 193.527 166.547 193.286 166.637 192.89C166.728 192.494 166.447 192.092 166.01 191.986C165.946 191.972 165.856 191.947 165.794 191.935C165.536 191.887 165.326 191.899 165.082 191.878C164.564 191.824 164.134 191.78 163.752 191.66C163.597 191.599 163.486 191.414 163.432 191.338L163.132 191.251C163.288 190.127 163.246 188.957 162.977 187.787C162.706 186.606 162.226 185.525 161.587 184.573C161.664 184.504 161.809 184.375 161.85 184.337C161.862 184.204 161.852 184.065 161.989 183.917C162.281 183.643 162.649 183.416 163.093 183.142C163.303 183.018 163.498 182.938 163.709 182.782C163.757 182.747 163.823 182.691 163.873 182.65C164.229 182.367 164.31 181.877 164.055 181.557C163.799 181.236 163.304 181.206 162.948 181.49C162.898 181.53 162.829 181.582 162.784 181.622C162.584 181.793 162.461 181.962 162.294 182.14C161.928 182.512 161.625 182.822 161.293 183.045C161.15 183.129 160.939 183.1 160.843 183.094L160.561 183.296C158.952 181.608 156.761 180.53 154.402 180.32C154.396 180.221 154.387 180.043 154.385 179.989C154.288 179.896 154.172 179.817 154.142 179.618C154.11 179.219 154.164 178.79 154.226 178.272C154.261 178.03 154.318 177.829 154.328 177.566C154.33 177.507 154.326 177.42 154.326 177.356C154.326 176.9 153.994 176.531 153.584 176.531ZM152.655 182.286L152.435 186.178L152.419 186.186C152.404 186.534 152.118 186.812 151.766 186.812C151.622 186.812 151.489 186.766 151.381 186.687L151.374 186.69L148.183 184.428C149.164 183.463 150.418 182.75 151.864 182.422C152.125 182.363 152.389 182.318 152.655 182.286ZM154.515 182.286C156.203 182.493 157.764 183.258 158.96 184.429L155.789 186.677L155.778 186.672C155.497 186.878 155.1 186.827 154.881 186.552C154.794 186.444 154.744 186.311 154.738 186.173L154.735 186.171L154.515 182.286ZM147.026 185.881L149.94 188.487L149.936 188.503C150.199 188.732 150.238 189.129 150.019 189.404C149.932 189.512 149.814 189.591 149.68 189.627L149.676 189.64L145.942 190.718C145.751 188.98 146.161 187.29 147.026 185.881ZM160.122 185.883C160.555 186.585 160.883 187.368 161.078 188.218C161.271 189.057 161.319 189.895 161.24 190.705L157.486 189.624L157.482 189.608C157.146 189.516 156.94 189.174 157.018 188.831C157.048 188.697 157.121 188.575 157.226 188.484L157.224 188.476L160.122 185.883V185.883ZM152.987 188.689H154.18L154.922 189.616L154.656 190.773L153.584 191.289L152.509 190.772L152.243 189.615L152.987 188.689ZM156.813 191.863C156.864 191.86 156.915 191.865 156.964 191.874L156.97 191.866L160.834 192.519C160.268 194.107 159.186 195.483 157.741 196.404L156.241 192.782L156.246 192.776C156.108 192.456 156.246 192.08 156.563 191.928C156.644 191.888 156.729 191.867 156.813 191.863ZM150.325 191.878C150.62 191.883 150.884 192.087 150.953 192.387C150.985 192.528 150.969 192.667 150.916 192.79L150.927 192.804L149.443 196.39C148.056 195.5 146.951 194.167 146.36 192.531L150.19 191.882L150.196 191.889C150.239 191.882 150.283 191.878 150.325 191.878ZM153.56 193.449C153.666 193.446 153.771 193.468 153.866 193.514C153.996 193.577 154.097 193.675 154.16 193.793H154.174L156.062 197.205C155.814 197.288 155.562 197.358 155.307 197.416C153.863 197.744 152.424 197.644 151.121 197.2L153.004 193.795H153.007C153.061 193.694 153.141 193.609 153.238 193.548C153.335 193.488 153.446 193.454 153.56 193.449L153.56 193.449Z" fill="white" stroke="white" stroke-width="0.14494"/>
</g>
</g>
<path d="M59.6152 29.0029C59.0629 29.0029 58.6152 29.4506 58.6152 30.0029C58.6152 30.5552 59.0629 31.0029 59.6152 31.0029V29.0029ZM126.346 190.006C126.736 189.615 126.736 188.982 126.346 188.592L119.982 182.228C119.591 181.837 118.958 181.837 118.568 182.228C118.177 182.618 118.177 183.251 118.568 183.642L124.225 189.299L118.568 194.956C118.177 195.346 118.177 195.979 118.568 196.37C118.958 196.76 119.591 196.76 119.982 196.37L126.346 190.006ZM59.6152 31.0029H68.6271V29.0029H59.6152V31.0029ZM91.627 54.0029V165.299H93.627V54.0029H91.627ZM116.627 190.299H125.639V188.299H116.627V190.299ZM91.627 165.299C91.627 179.106 102.82 190.299 116.627 190.299V188.299C103.924 188.299 93.627 178.001 93.627 165.299H91.627ZM68.6271 31.0029C81.3296 31.0029 91.627 41.3004 91.627 54.0029H93.627C93.627 40.1958 82.4342 29.0029 68.6271 29.0029V31.0029Z" fill="#67778E"/>
<path d="M28.3184 110C28.3184 104.477 32.7955 100 38.3184 100H147.318C152.841 100 157.318 104.477 157.318 110C157.318 115.523 152.841 120 147.318 120H38.3184C32.7955 120 28.3184 115.523 28.3184 110Z" fill="#67778E"/>
<path d="M42.2642 112.743V114H38.1016V112.743H42.2642ZM38.6279 106.18V114H37.0166V106.18H38.6279ZM41.7217 109.365V110.589H38.1016V109.365H41.7217ZM42.2588 106.18V107.442H38.1016V106.18H42.2588ZM44.5748 106.18L46.0464 108.908L47.5181 106.18H49.3604L47.0884 110.058L49.4195 114H47.5611L46.0464 111.218L44.5318 114H42.6627L44.9991 110.058L42.7217 106.18H44.5748ZM55.5221 112.743V114H51.3595V112.743H55.5221ZM51.8859 106.18V114H50.2745V106.18H51.8859ZM54.9796 109.365V110.589H51.3595V109.365H54.9796ZM55.5167 106.18V107.442H51.3595V106.18H55.5167ZM61.0392 111.406H62.6452C62.613 111.932 62.4679 112.399 62.2101 112.808C61.9559 113.216 61.5996 113.535 61.1413 113.764C60.6865 113.993 60.1387 114.107 59.4977 114.107C58.9964 114.107 58.547 114.021 58.1496 113.85C57.7521 113.674 57.4119 113.424 57.1291 113.098C56.8498 112.772 56.6367 112.378 56.4899 111.916C56.3431 111.454 56.2697 110.937 56.2697 110.364V109.821C56.2697 109.248 56.3449 108.731 56.4953 108.269C56.6493 107.804 56.8677 107.408 57.1506 107.082C57.437 106.756 57.779 106.506 58.1764 106.33C58.5739 106.155 59.0179 106.067 59.5085 106.067C60.1602 106.067 60.7098 106.185 61.1574 106.421C61.6086 106.658 61.9577 106.984 62.2048 107.399C62.4554 107.814 62.6058 108.287 62.6559 108.817H61.0446C61.0267 108.502 60.964 108.235 60.8566 108.017C60.7492 107.795 60.5863 107.628 60.3678 107.517C60.153 107.403 59.8665 107.345 59.5085 107.345C59.2399 107.345 59.0054 107.395 58.8049 107.496C58.6043 107.596 58.436 107.748 58.3 107.952C58.1639 108.156 58.0619 108.414 57.9938 108.726C57.9294 109.034 57.8971 109.395 57.8971 109.811V110.364C57.8971 110.768 57.9276 111.125 57.9884 111.433C58.0493 111.737 58.1424 111.995 58.2677 112.206C58.3966 112.414 58.5614 112.571 58.7619 112.679C58.966 112.783 59.2113 112.834 59.4977 112.834C59.8343 112.834 60.1118 112.781 60.3302 112.673C60.5487 112.566 60.7152 112.407 60.8298 112.195C60.9479 111.984 61.0177 111.721 61.0392 111.406ZM68.0656 106.18H69.6716V111.347C69.6716 111.948 69.5427 112.455 69.2849 112.867C69.0307 113.278 68.678 113.588 68.2268 113.796C67.7792 114.004 67.2636 114.107 66.6799 114.107C66.0962 114.107 65.577 114.004 65.1223 113.796C64.6711 113.588 64.3166 113.278 64.0588 112.867C63.8046 112.455 63.6775 111.948 63.6775 111.347V106.18H65.2888V111.347C65.2888 111.698 65.3443 111.984 65.4553 112.206C65.5663 112.428 65.7256 112.591 65.9333 112.695C66.1446 112.799 66.3934 112.851 66.6799 112.851C66.9735 112.851 67.2224 112.799 67.4265 112.695C67.6342 112.591 67.7917 112.428 67.8991 112.206C68.0101 111.984 68.0656 111.698 68.0656 111.347V106.18ZM74.5388 106.18V114H72.9329V106.18H74.5388ZM76.9451 106.18V107.442H70.5642V106.18H76.9451ZM83.1551 112.743V114H78.9925V112.743H83.1551ZM79.5189 106.18V114H77.9076V106.18H79.5189ZM82.6126 109.365V110.589H78.9925V109.365H82.6126ZM83.1497 106.18V107.442H78.9925V106.18H83.1497ZM84.1015 113.253C84.1015 113.024 84.1802 112.833 84.3378 112.679C84.4989 112.525 84.712 112.448 84.9769 112.448C85.2419 112.448 85.4532 112.525 85.6107 112.679C85.7719 112.833 85.8524 113.024 85.8524 113.253C85.8524 113.483 85.7719 113.674 85.6107 113.828C85.4532 113.982 85.2419 114.059 84.9769 114.059C84.712 114.059 84.4989 113.982 84.3378 113.828C84.1802 113.674 84.1015 113.483 84.1015 113.253ZM84.1015 108.822C84.1015 108.593 84.1802 108.402 84.3378 108.248C84.4989 108.094 84.712 108.017 84.9769 108.017C85.2419 108.017 85.4532 108.094 85.6107 108.248C85.7719 108.402 85.8524 108.593 85.8524 108.822C85.8524 109.051 85.7719 109.243 85.6107 109.397C85.4532 109.551 85.2419 109.628 84.9769 109.628C84.712 109.628 84.4989 109.551 84.3378 109.397C84.1802 109.243 84.1015 109.051 84.1015 108.822ZM89.9688 108.35V107.549C89.9688 107.317 90.0135 107.077 90.103 106.83C90.1925 106.583 90.3107 106.35 90.4575 106.131C90.6043 105.909 90.7655 105.721 90.9409 105.567L91.6606 105.986C91.5317 106.201 91.4207 106.432 91.3276 106.679C91.2345 106.926 91.188 107.216 91.188 107.549V108.35H89.9688ZM91.7949 108.35V107.549C91.7949 107.317 91.8397 107.077 91.9292 106.83C92.0187 106.583 92.1369 106.35 92.2837 106.131C92.4305 105.909 92.5916 105.721 92.7671 105.567L93.4868 105.986C93.3579 106.201 93.2469 106.432 93.1538 106.679C93.0607 106.926 93.0142 107.216 93.0142 107.549V108.35H91.7949ZM98.6226 111.954C98.6226 111.814 98.6011 111.689 98.5582 111.578C98.5188 111.463 98.4436 111.359 98.3326 111.266C98.2216 111.169 98.0658 111.075 97.8653 110.981C97.6648 110.888 97.4052 110.792 97.0865 110.691C96.732 110.577 96.3954 110.448 96.0767 110.305C95.7616 110.161 95.4823 109.995 95.2388 109.805C94.9989 109.612 94.8091 109.388 94.6695 109.134C94.5334 108.88 94.4654 108.584 94.4654 108.248C94.4654 107.922 94.537 107.626 94.6802 107.361C94.8235 107.093 95.024 106.864 95.2818 106.674C95.5396 106.48 95.844 106.332 96.1949 106.228C96.5494 106.124 96.9379 106.072 97.3604 106.072C97.9369 106.072 98.44 106.176 98.8697 106.384C99.2994 106.591 99.6324 106.876 99.8687 107.238C100.109 107.599 100.229 108.013 100.229 108.479H98.628C98.628 108.249 98.5796 108.049 98.483 107.877C98.3899 107.701 98.2466 107.564 98.0533 107.463C97.8635 107.363 97.6236 107.313 97.3336 107.313C97.0543 107.313 96.8215 107.356 96.6353 107.442C96.4491 107.524 96.3095 107.637 96.2164 107.78C96.1233 107.92 96.0767 108.077 96.0767 108.253C96.0767 108.385 96.1089 108.505 96.1734 108.613C96.2414 108.72 96.3417 108.82 96.4742 108.914C96.6067 109.007 96.7696 109.094 96.9629 109.177C97.1563 109.259 97.3801 109.34 97.6343 109.418C98.0604 109.547 98.4346 109.692 98.7569 109.854C99.0827 110.015 99.3549 110.195 99.5733 110.396C99.7917 110.597 99.9564 110.824 100.067 111.078C100.178 111.332 100.234 111.621 100.234 111.943C100.234 112.283 100.168 112.587 100.035 112.856C99.9027 113.125 99.7112 113.352 99.4605 113.538C99.2099 113.724 98.9109 113.866 98.5635 113.962C98.2162 114.059 97.8277 114.107 97.398 114.107C97.0113 114.107 96.6299 114.057 96.254 113.957C95.878 113.853 95.536 113.697 95.2281 113.49C94.9237 113.282 94.6802 113.017 94.4976 112.695C94.315 112.373 94.2237 111.991 94.2237 111.551H95.8404C95.8404 111.794 95.878 112 95.9532 112.168C96.0284 112.337 96.134 112.473 96.2701 112.577C96.4097 112.681 96.5744 112.756 96.7642 112.802C96.9576 112.849 97.1688 112.872 97.398 112.872C97.6773 112.872 97.9065 112.833 98.0855 112.754C98.2681 112.675 98.4024 112.566 98.4883 112.426C98.5779 112.287 98.6226 112.129 98.6226 111.954ZM104.87 106.18V114H103.264V106.18H104.87ZM107.276 106.18V107.442H100.896V106.18H107.276ZM110.839 107.517L108.712 114H106.998L109.904 106.18H110.994L110.839 107.517ZM112.606 114L110.473 107.517L110.301 106.18H111.403L114.324 114H112.606ZM112.509 111.089V112.351H108.379V111.089H112.509ZM115.093 106.18H118.01C118.608 106.18 119.122 106.269 119.551 106.448C119.985 106.627 120.318 106.892 120.551 107.243C120.783 107.594 120.9 108.026 120.9 108.538C120.9 108.957 120.828 109.316 120.685 109.617C120.545 109.914 120.346 110.163 120.089 110.364C119.834 110.561 119.535 110.718 119.192 110.836L118.681 111.105H116.146L116.135 109.848H118.021C118.304 109.848 118.538 109.798 118.724 109.698C118.911 109.597 119.05 109.458 119.143 109.279C119.24 109.1 119.288 108.892 119.288 108.656C119.288 108.405 119.242 108.188 119.149 108.006C119.056 107.823 118.914 107.684 118.724 107.587C118.535 107.49 118.296 107.442 118.01 107.442H116.705V114H115.093V106.18ZM119.466 114L117.682 110.514L119.385 110.503L121.19 113.925V114H119.466ZM125.359 106.18V114H123.753V106.18H125.359ZM127.765 106.18V107.442H121.384V106.18H127.765ZM127.385 113.253C127.385 113.024 127.463 112.833 127.621 112.679C127.782 112.525 127.995 112.448 128.26 112.448C128.525 112.448 128.736 112.525 128.894 112.679C129.055 112.833 129.136 113.024 129.136 113.253C129.136 113.483 129.055 113.674 128.894 113.828C128.736 113.982 128.525 114.059 128.26 114.059C127.995 114.059 127.782 113.982 127.621 113.828C127.463 113.674 127.385 113.483 127.385 113.253ZM134.712 111.954C134.712 111.814 134.69 111.689 134.647 111.578C134.608 111.463 134.533 111.359 134.422 111.266C134.311 111.169 134.155 111.075 133.954 110.981C133.754 110.888 133.494 110.792 133.176 110.691C132.821 110.577 132.485 110.448 132.166 110.305C131.851 110.161 131.572 109.995 131.328 109.805C131.088 109.612 130.898 109.388 130.759 109.134C130.623 108.88 130.555 108.584 130.555 108.248C130.555 107.922 130.626 107.626 130.769 107.361C130.913 107.093 131.113 106.864 131.371 106.674C131.629 106.48 131.933 106.332 132.284 106.228C132.639 106.124 133.027 106.072 133.45 106.072C134.026 106.072 134.529 106.176 134.959 106.384C135.389 106.591 135.722 106.876 135.958 107.238C136.198 107.599 136.318 108.013 136.318 108.479H134.717C134.717 108.249 134.669 108.049 134.572 107.877C134.479 107.701 134.336 107.564 134.142 107.463C133.953 107.363 133.713 107.313 133.423 107.313C133.143 107.313 132.911 107.356 132.725 107.442C132.538 107.524 132.399 107.637 132.306 107.78C132.212 107.92 132.166 108.077 132.166 108.253C132.166 108.385 132.198 108.505 132.263 108.613C132.331 108.72 132.431 108.82 132.563 108.914C132.696 109.007 132.859 109.094 133.052 109.177C133.246 109.259 133.469 109.34 133.724 109.418C134.15 109.547 134.524 109.692 134.846 109.854C135.172 110.015 135.444 110.195 135.662 110.396C135.881 110.597 136.046 110.824 136.157 111.078C136.268 111.332 136.323 111.621 136.323 111.943C136.323 112.283 136.257 112.587 136.124 112.856C135.992 113.125 135.8 113.352 135.55 113.538C135.299 113.724 135 113.866 134.653 113.962C134.305 114.059 133.917 114.107 133.487 114.107C133.1 114.107 132.719 114.057 132.343 113.957C131.967 113.853 131.625 113.697 131.317 113.49C131.013 113.282 130.769 113.017 130.587 112.695C130.404 112.373 130.313 111.991 130.313 111.551H131.93C131.93 111.794 131.967 112 132.042 112.168C132.118 112.337 132.223 112.473 132.359 112.577C132.499 112.681 132.664 112.756 132.853 112.802C133.047 112.849 133.258 112.872 133.487 112.872C133.767 112.872 133.996 112.833 134.175 112.754C134.357 112.675 134.492 112.566 134.578 112.426C134.667 112.287 134.712 112.129 134.712 111.954ZM142.678 109.365V110.622H138.596V109.365H142.678ZM139.074 106.18V114H137.463V106.18H139.074ZM143.828 106.18V114H142.222V106.18H143.828ZM146.659 105.75V106.566C146.659 106.799 146.614 107.039 146.525 107.286C146.439 107.533 146.323 107.768 146.176 107.99C146.029 108.208 145.868 108.394 145.692 108.548L144.967 108.129C145.1 107.918 145.213 107.689 145.306 107.442C145.399 107.191 145.445 106.901 145.445 106.572V105.75H146.659ZM148.512 105.75V106.566C148.512 106.799 148.467 107.039 148.378 107.286C148.292 107.533 148.176 107.768 148.029 107.99C147.882 108.208 147.721 108.394 147.545 108.548L146.82 108.129C146.953 107.918 147.066 107.689 147.159 107.442C147.252 107.191 147.298 106.901 147.298 106.572V105.75H148.512Z" fill="white"/>
<path d="M74.502 154.776C74.502 154.47 74.5168 154.167 74.5459 153.868L73.7994 153.796C73.8639 153.134 73.9929 152.49 74.1801 151.873L74.8979 152.09C75.075 151.505 75.3085 150.945 75.5921 150.416L74.931 150.062C75.2414 149.482 75.6073 148.937 76.0216 148.432L76.601 148.908C76.9858 148.44 77.4157 148.01 77.884 147.625L77.4079 147.046C77.9121 146.632 78.4576 146.266 79.0371 145.955L79.3913 146.617C79.9208 146.333 80.481 146.099 81.0656 145.922L80.8481 145.204C81.466 145.017 82.1093 144.888 82.7714 144.824L82.8441 145.57C83.1425 145.541 83.4454 145.526 83.752 145.526H84.8145V144.776H86.9395V145.526H89.0645V144.776H91.1895V145.526H93.3145V144.776H95.4395V145.526H97.5645V144.776H99.6895V145.526H100.752C101.059 145.526 101.361 145.541 101.66 145.57L101.733 144.824C102.395 144.888 103.038 145.017 103.656 145.204L103.438 145.922C104.023 146.099 104.583 146.333 105.113 146.617L105.467 145.955C106.046 146.266 106.592 146.632 107.096 147.046L106.62 147.625C107.088 148.01 107.518 148.44 107.903 148.908L108.482 148.432C108.897 148.937 109.263 149.482 109.573 150.062L108.912 150.416C109.195 150.945 109.429 151.505 109.606 152.09L110.324 151.873C110.511 152.49 110.64 153.134 110.704 153.796L109.958 153.868C109.987 154.167 110.002 154.47 110.002 154.776C110.002 155.083 109.987 155.386 109.958 155.684L110.704 155.757C110.64 156.419 110.511 157.062 110.324 157.68L109.606 157.463C109.429 158.047 109.195 158.608 108.912 159.137L109.573 159.491C109.263 160.071 108.897 160.616 108.482 161.12L107.903 160.644C107.518 161.113 107.088 161.542 106.62 161.927L107.096 162.507C106.592 162.921 106.046 163.287 105.467 163.597L105.113 162.936C104.583 163.22 104.023 163.453 103.438 163.63L103.656 164.348C103.038 164.535 102.395 164.664 101.733 164.729L101.66 163.982C101.361 164.011 101.059 164.026 100.752 164.026H99.6895V164.776H97.5645V164.026H95.4395V164.776H93.3145V164.026H91.1895V164.776H89.0645V164.026H86.9395V164.776H84.8145V164.026H83.752C83.4454 164.026 83.1426 164.011 82.8441 163.982L82.7714 164.729C82.1093 164.664 81.466 164.535 80.8481 164.348L81.0656 163.63C80.481 163.453 79.9208 163.22 79.3913 162.936L79.0371 163.597C78.4576 163.287 77.9121 162.921 77.4079 162.507L77.884 161.927C77.4157 161.542 76.9858 161.113 76.601 160.644L76.0216 161.12C75.6073 160.616 75.2414 160.071 74.931 159.491L75.5921 159.137C75.3085 158.608 75.075 158.047 74.8979 157.463L74.1801 157.68C73.9929 157.062 73.8639 156.419 73.7994 155.757L74.5459 155.684C74.5168 155.386 74.502 155.083 74.502 154.776Z" fill="white"/>
<path d="M74.502 154.776C74.502 154.47 74.5168 154.167 74.5459 153.868L73.7994 153.796C73.8639 153.134 73.9929 152.49 74.1801 151.873L74.8979 152.09C75.075 151.505 75.3085 150.945 75.5921 150.416L74.931 150.062C75.2414 149.482 75.6073 148.937 76.0216 148.432L76.601 148.908C76.9858 148.44 77.4157 148.01 77.884 147.625L77.4079 147.046C77.9121 146.632 78.4576 146.266 79.0371 145.955L79.3913 146.617C79.9208 146.333 80.481 146.099 81.0656 145.922L80.8481 145.204C81.466 145.017 82.1093 144.888 82.7714 144.824L82.8441 145.57C83.1425 145.541 83.4454 145.526 83.752 145.526H84.8145V144.776H86.9395V145.526H89.0645V144.776H91.1895V145.526H93.3145V144.776H95.4395V145.526H97.5645V144.776H99.6895V145.526H100.752C101.059 145.526 101.361 145.541 101.66 145.57L101.733 144.824C102.395 144.888 103.038 145.017 103.656 145.204L103.438 145.922C104.023 146.099 104.583 146.333 105.113 146.617L105.467 145.955C106.046 146.266 106.592 146.632 107.096 147.046L106.62 147.625C107.088 148.01 107.518 148.44 107.903 148.908L108.482 148.432C108.897 148.937 109.263 149.482 109.573 150.062L108.912 150.416C109.195 150.945 109.429 151.505 109.606 152.09L110.324 151.873C110.511 152.49 110.64 153.134 110.704 153.796L109.958 153.868C109.987 154.167 110.002 154.47 110.002 154.776C110.002 155.083 109.987 155.386 109.958 155.684L110.704 155.757C110.64 156.419 110.511 157.062 110.324 157.68L109.606 157.463C109.429 158.047 109.195 158.608 108.912 159.137L109.573 159.491C109.263 160.071 108.897 160.616 108.482 161.12L107.903 160.644C107.518 161.113 107.088 161.542 106.62 161.927L107.096 162.507C106.592 162.921 106.046 163.287 105.467 163.597L105.113 162.936C104.583 163.22 104.023 163.453 103.438 163.63L103.656 164.348C103.038 164.535 102.395 164.664 101.733 164.729L101.66 163.982C101.361 164.011 101.059 164.026 100.752 164.026H99.6895V164.776H97.5645V164.026H95.4395V164.776H93.3145V164.026H91.1895V164.776H89.0645V164.026H86.9395V164.776H84.8145V164.026H83.752C83.4454 164.026 83.1426 164.011 82.8441 163.982L82.7714 164.729C82.1093 164.664 81.466 164.535 80.8481 164.348L81.0656 163.63C80.481 163.453 79.9208 163.22 79.3913 162.936L79.0371 163.597C78.4576 163.287 77.9121 162.921 77.4079 162.507L77.884 161.927C77.4157 161.542 76.9858 161.113 76.601 160.644L76.0216 161.12C75.6073 160.616 75.2414 160.071 74.931 159.491L75.5921 159.137C75.3085 158.608 75.075 158.047 74.8979 157.463L74.1801 157.68C73.9929 157.062 73.8639 156.419 73.7994 155.757L74.5459 155.684C74.5168 155.386 74.502 155.083 74.502 154.776Z" stroke="#67778E" stroke-width="1.5" stroke-dasharray="2 2"/>
<path d="M85.6138 156.375V150.956H87.2197V156.375C87.2197 156.898 87.1051 157.348 86.876 157.724C86.6468 158.096 86.3335 158.382 85.936 158.583C85.5422 158.784 85.0981 158.884 84.604 158.884C84.092 158.884 83.639 158.798 83.2451 158.626C82.8512 158.454 82.5415 158.191 82.3159 157.836C82.0903 157.478 81.9775 157.025 81.9775 156.478H83.5942C83.5942 156.764 83.6336 156.991 83.7124 157.16C83.7948 157.328 83.9111 157.448 84.0615 157.52C84.2119 157.591 84.3927 157.627 84.604 157.627C84.8081 157.627 84.9854 157.579 85.1357 157.482C85.2861 157.385 85.4025 157.244 85.4849 157.058C85.5708 156.871 85.6138 156.644 85.6138 156.375ZM95.0626 154.684V155.054C95.0626 155.649 94.982 156.182 94.8209 156.655C94.6597 157.127 94.4323 157.53 94.1387 157.863C93.8451 158.193 93.4942 158.445 93.086 158.621C92.6814 158.796 92.232 158.884 91.7378 158.884C91.2473 158.884 90.7979 158.796 90.3897 158.621C89.9851 158.445 89.6342 158.193 89.337 157.863C89.0398 157.53 88.8088 157.127 88.6441 156.655C88.483 156.182 88.4024 155.649 88.4024 155.054V154.684C88.4024 154.086 88.483 153.552 88.6441 153.083C88.8052 152.61 89.0326 152.208 89.3262 151.875C89.6234 151.542 89.9743 151.287 90.379 151.112C90.7872 150.936 91.2365 150.849 91.7271 150.849C92.2212 150.849 92.6706 150.936 93.0753 151.112C93.4835 151.287 93.8344 151.542 94.128 151.875C94.4252 152.208 94.6544 152.61 94.8155 153.083C94.9802 153.552 95.0626 154.086 95.0626 154.684ZM93.4351 155.054V154.673C93.4351 154.257 93.3975 153.892 93.3223 153.577C93.2471 153.262 93.1361 152.997 92.9893 152.782C92.8425 152.567 92.6635 152.406 92.4522 152.299C92.2409 152.188 91.9992 152.132 91.7271 152.132C91.455 152.132 91.2133 152.188 91.002 152.299C90.7943 152.406 90.6171 152.567 90.4703 152.782C90.327 152.997 90.2178 153.262 90.1426 153.577C90.0674 153.892 90.0298 154.257 90.0298 154.673V155.054C90.0298 155.466 90.0674 155.831 90.1426 156.15C90.2178 156.465 90.3288 156.732 90.4756 156.95C90.6225 157.165 90.8015 157.328 91.0128 157.439C91.224 157.55 91.4657 157.605 91.7378 157.605C92.01 157.605 92.2517 157.55 92.4629 157.439C92.6742 157.328 92.8515 157.165 92.9947 156.95C93.1379 156.732 93.2471 156.465 93.3223 156.15C93.3975 155.831 93.4351 155.466 93.4351 155.054ZM99.3282 155.344H97.3194L97.3087 154.238H98.9952C99.2924 154.238 99.5359 154.2 99.7257 154.125C99.9155 154.046 100.057 153.933 100.15 153.787C100.247 153.636 100.295 153.454 100.295 153.239C100.295 152.995 100.248 152.798 100.155 152.648C100.066 152.498 99.9244 152.388 99.7311 152.32C99.5413 152.252 99.296 152.218 98.9952 152.218H97.878V158.776H96.2667V150.956H98.9952C99.45 150.956 99.8564 150.999 100.214 151.085C100.576 151.171 100.882 151.302 101.133 151.477C101.384 151.653 101.575 151.875 101.708 152.143C101.84 152.408 101.906 152.723 101.906 153.088C101.906 153.411 101.833 153.708 101.686 153.98C101.543 154.252 101.316 154.474 101.004 154.646C100.696 154.818 100.293 154.913 99.7955 154.931L99.3282 155.344ZM99.2584 158.776H96.879L97.5074 157.52H99.2584C99.5413 157.52 99.7722 157.475 99.9513 157.385C100.13 157.292 100.263 157.167 100.349 157.009C100.435 156.852 100.478 156.671 100.478 156.467C100.478 156.238 100.438 156.039 100.359 155.871C100.284 155.702 100.163 155.573 99.9943 155.484C99.826 155.391 99.604 155.344 99.3282 155.344H97.776L97.7867 154.238H99.7203L100.091 154.673C100.567 154.666 100.95 154.75 101.24 154.925C101.534 155.097 101.747 155.321 101.88 155.597C102.016 155.872 102.084 156.168 102.084 156.483C102.084 156.984 101.974 157.407 101.756 157.75C101.538 158.091 101.217 158.347 100.795 158.519C100.376 158.69 99.8636 158.776 99.2584 158.776Z" fill="#67778E"/>
<defs>
<filter id="filter0_dd_23873_49319" x="0.222656" y="0.556641" width="66.0547" height="62.8926" filterUnits="userSpaceOnUse" color-interpolation-filters="sRGB">
<feFlood flood-opacity="0" result="BackgroundImageFix"/>
<feColorMatrix in="SourceAlpha" type="matrix" values="0 0 0 0 0 0 0 0 0 0 0 0 0 0 0 0 0 0 127 0" result="hardAlpha"/>
<feMorphology radius="1" operator="erode" in="SourceAlpha" result="effect1_dropShadow_23873_49319"/>
<feOffset dy="2"/>
<feGaussianBlur stdDeviation="4"/>
<feColorMatrix type="matrix" values="0 0 0 0 0.105882 0 0 0 0 0.141176 0 0 0 0 0.172549 0 0 0 0.08 0"/>
<feBlend mode="normal" in2="BackgroundImageFix" result="effect1_dropShadow_23873_49319"/>
<feColorMatrix in="SourceAlpha" type="matrix" values="0 0 0 0 0 0 0 0 0 0 0 0 0 0 0 0 0 0 127 0" result="hardAlpha"/>
<feMorphology radius="1" operator="erode" in="SourceAlpha" result="effect2_dropShadow_23873_49319"/>
<feOffset dy="2"/>
<feGaussianBlur stdDeviation="1"/>
<feComposite in2="hardAlpha" operator="out"/>
<feColorMatrix type="matrix" values="0 0 0 0 0.105882 0 0 0 0 0.141176 0 0 0 0 0.172549 0 0 0 0.04 0"/>
<feBlend mode="normal" in2="effect1_dropShadow_23873_49319" result="effect2_dropShadow_23873_49319"/>
<feBlend mode="normal" in="SourceGraphic" in2="effect2_dropShadow_23873_49319" result="shape"/>
</filter>
<filter id="filter1_dd_23873_49319" x="122.139" y="159.853" width="62.8926" height="62.8926" filterUnits="userSpaceOnUse" color-interpolation-filters="sRGB">
<feFlood flood-opacity="0" result="BackgroundImageFix"/>
<feColorMatrix in="SourceAlpha" type="matrix" values="0 0 0 0 0 0 0 0 0 0 0 0 0 0 0 0 0 0 127 0" result="hardAlpha"/>
<feMorphology radius="1" operator="erode" in="SourceAlpha" result="effect1_dropShadow_23873_49319"/>
<feOffset dy="2"/>
<feGaussianBlur stdDeviation="4"/>
<feColorMatrix type="matrix" values="0 0 0 0 0.105882 0 0 0 0 0.141176 0 0 0 0 0.172549 0 0 0 0.08 0"/>
<feBlend mode="normal" in2="BackgroundImageFix" result="effect1_dropShadow_23873_49319"/>
<feColorMatrix in="SourceAlpha" type="matrix" values="0 0 0 0 0 0 0 0 0 0 0 0 0 0 0 0 0 0 127 0" result="hardAlpha"/>
<feMorphology radius="1" operator="erode" in="SourceAlpha" result="effect2_dropShadow_23873_49319"/>
<feOffset dy="2"/>
<feGaussianBlur stdDeviation="1"/>
<feComposite in2="hardAlpha" operator="out"/>
<feColorMatrix type="matrix" values="0 0 0 0 0.105882 0 0 0 0 0.141176 0 0 0 0 0.172549 0 0 0 0.04 0"/>
<feBlend mode="normal" in2="effect1_dropShadow_23873_49319" result="effect2_dropShadow_23873_49319"/>
<feBlend mode="normal" in="SourceGraphic" in2="effect2_dropShadow_23873_49319" result="shape"/>
</filter>
<linearGradient id="paint0_linear_23873_49319" x1="41.8773" y1="21.8554" x2="41.8773" y2="35.039" gradientUnits="userSpaceOnUse">
<stop offset="0.25" stop-color="#7366FF"/>
<stop offset="1" stop-color="#5219FF"/>
</linearGradient>
<linearGradient id="paint1_linear_23873_49319" x1="30.4608" y1="39.1119" x2="44.5729" y2="39.1119" gradientUnits="userSpaceOnUse">
<stop stop-color="#7366FF"/>
<stop offset="1" stop-color="#A299FF"/>
</linearGradient>
<clipPath id="clip0_23873_49319">
<rect width="36.6693" height="36.6693" fill="white" transform="translate(135.25 170.964)"/>
</clipPath>
</defs>
</svg>
