<svg width="186" height="223" viewBox="0 0 186 223" fill="none" xmlns="http://www.w3.org/2000/svg">
<g filter="url(#filter0_dd_24068_48873)">
<path d="M25.873 54.4488C25.873 52.7612 27.2412 51.3931 28.9288 51.3931H35.0404C36.728 51.3931 38.0961 52.7612 38.0961 54.4488C38.0961 56.1365 36.728 57.5046 35.0404 57.5046H28.9288C27.2412 57.5046 25.873 56.1365 25.873 54.4488Z" fill="#67778E"/>
<path d="M8.36635 11.6682C8.36635 8.50384 10.9316 5.93861 14.0959 5.93861H50.7652C53.9296 5.93861 56.4948 8.50383 56.4948 11.6682V48.3375C56.4948 51.5018 53.9296 54.0671 50.7652 54.0671H14.0959C10.9316 54.0671 8.36635 51.5018 8.36635 48.3375V11.6682Z" fill="white"/>
<path d="M8.36635 11.6682C8.36635 8.50384 10.9316 5.93861 14.0959 5.93861H50.7652C53.9296 5.93861 56.4948 8.50383 56.4948 11.6682V48.3375C56.4948 51.5018 53.9296 54.0671 50.7652 54.0671H14.0959C10.9316 54.0671 8.36635 51.5018 8.36635 48.3375V11.6682Z" stroke="#C6D3E7" stroke-width="0.763944"/>
<g clip-path="url(#clip0_24068_48873)">
<path d="M32.3072 12.7076C31.992 12.7235 31.6832 12.8017 31.3989 12.9375L19.0035 18.8601C18.6827 19.0133 18.4008 19.2363 18.1788 19.5124C17.9568 19.7885 17.8004 20.1106 17.7211 20.4549L14.6631 33.7586C14.5925 34.0652 14.5846 34.3826 14.6398 34.6922C14.6951 35.0018 14.8124 35.2973 14.9849 35.5611C15.0267 35.6256 15.0717 35.688 15.1196 35.7482L23.6992 46.4155C23.9212 46.6915 24.2032 46.9144 24.524 47.0675C24.8448 47.2207 25.1963 47.3002 25.5524 47.3001L39.311 47.297C39.667 47.2972 40.0184 47.218 40.3392 47.0651C40.66 46.9122 40.942 46.6897 41.1642 46.414L49.7406 35.745C49.9628 35.4688 50.1194 35.1465 50.1987 34.8021C50.278 34.4576 50.278 34.0999 50.1987 33.7554L47.1361 20.4517C47.0568 20.1075 46.9003 19.7853 46.6783 19.5092C46.4563 19.2331 46.1744 19.0102 45.8536 18.857L33.4566 12.9374C33.0989 12.7666 32.7037 12.6876 32.3072 12.7076Z" fill="#326CE5"/>
<path d="M32.4299 17.2354C32.0202 17.2354 31.688 17.6045 31.688 18.0597C31.688 18.0667 31.6894 18.0734 31.6895 18.0803C31.689 18.1422 31.686 18.2167 31.688 18.2705C31.6977 18.5331 31.755 18.7341 31.7895 18.976C31.8519 19.4938 31.9041 19.923 31.8719 20.3219C31.8404 20.4723 31.7297 20.6099 31.6309 20.7055L31.6135 21.0194C31.1621 21.0566 30.714 21.1254 30.2723 21.2255C28.3459 21.6629 26.6873 22.6552 25.4245 23.995C25.3344 23.9328 25.2451 23.8694 25.1566 23.8048C25.0241 23.8227 24.8903 23.8636 24.7159 23.7619C24.3839 23.5385 24.0815 23.23 23.7156 22.8584C23.5479 22.6806 23.4265 22.5113 23.2273 22.34C23.1821 22.3011 23.1131 22.2484 23.0624 22.2084C22.9067 22.0842 22.7231 22.0195 22.5457 22.0134C22.3176 22.0056 22.098 22.0948 21.9544 22.275C21.6989 22.5953 21.7807 23.085 22.1366 23.3688C22.1402 23.3717 22.1441 23.3739 22.1477 23.3768C22.1967 23.4164 22.2566 23.4672 22.3015 23.5004C22.5129 23.6565 22.706 23.7364 22.9166 23.8603C23.3603 24.1343 23.7282 24.3615 24.02 24.6355C24.1339 24.7569 24.1538 24.9709 24.169 25.0635L24.4068 25.2759C23.1338 27.1916 22.5447 29.5579 22.8929 31.969L22.5821 32.0593C22.5002 32.1651 22.3845 32.3315 22.2635 32.3812C21.8817 32.5014 21.4521 32.5455 20.9334 32.5999C20.6899 32.6202 20.4798 32.6081 20.2216 32.657C20.1648 32.6677 20.0857 32.6884 20.0235 32.7029L20.0171 32.7046C20.0137 32.7053 20.0093 32.707 20.006 32.7077C19.5687 32.8134 19.2878 33.2153 19.3782 33.6113C19.4687 34.0074 19.8958 34.2483 20.3358 34.1535C20.339 34.1528 20.3436 34.1526 20.3469 34.1519C20.3518 34.1508 20.3562 34.1484 20.3611 34.1472C20.4225 34.1337 20.4993 34.1187 20.553 34.1044C20.8068 34.0364 20.9906 33.9366 21.2188 33.8491C21.7097 33.6731 22.1162 33.526 22.5124 33.4686C22.6778 33.4557 22.8521 33.5707 22.9388 33.6193L23.2622 33.5638C24.0064 35.8711 25.566 37.736 27.5409 38.9062L27.4061 39.2296C27.4547 39.3551 27.5083 39.525 27.4721 39.6491C27.3281 40.0225 27.0815 40.4167 26.8006 40.8561C26.6646 41.0591 26.5254 41.2167 26.4026 41.449C26.3733 41.5046 26.3359 41.59 26.3075 41.6487C26.1168 42.0567 26.2567 42.5266 26.623 42.703C26.9916 42.8804 27.4491 42.6932 27.6471 42.2844C27.6474 42.2838 27.6484 42.2834 27.6487 42.2828C27.6489 42.2824 27.6485 42.2817 27.6487 42.2813C27.6769 42.2233 27.7168 42.1471 27.7406 42.0926C27.8457 41.8518 27.8807 41.6454 27.9547 41.4125C28.151 40.9194 28.2588 40.402 28.529 40.0797C28.603 39.9914 28.7237 39.9574 28.8488 39.9239L29.0168 39.6195C30.7384 40.2804 32.6656 40.4577 34.5906 40.0207C35.0233 39.9223 35.4486 39.7941 35.8636 39.637C35.9108 39.7208 35.9986 39.8818 36.0221 39.9223C36.1493 39.9637 36.288 39.9851 36.401 40.1522C36.6032 40.4977 36.7414 40.9063 36.9099 41.3998C36.9838 41.6327 37.0204 41.8391 37.1255 42.0799C37.1494 42.1348 37.1892 42.2121 37.2174 42.2701C37.415 42.6803 37.874 42.8681 38.2432 42.6903C38.6094 42.5138 38.7494 42.044 38.5586 41.636C38.5302 41.5773 38.4913 41.4919 38.4619 41.4363C38.3391 41.204 38.2 41.048 38.064 40.845C37.7831 40.4056 37.5501 40.0405 37.4061 39.6671C37.3459 39.4745 37.4162 39.3547 37.4632 39.2296C37.4351 39.1974 37.3749 39.0155 37.3395 38.93C39.3919 37.7181 40.9057 35.7837 41.6166 33.5495C41.7126 33.5646 41.8795 33.5942 41.9337 33.605C42.0453 33.5315 42.1478 33.4354 42.349 33.4512C42.7451 33.5085 43.1517 33.6557 43.6426 33.8317C43.8708 33.9191 44.0546 34.0206 44.3084 34.0885C44.3621 34.1029 44.4389 34.1163 44.5002 34.1297C44.5052 34.1309 44.5095 34.1334 44.5145 34.1345C44.5178 34.1352 44.5224 34.1353 44.5256 34.1361C44.9655 34.2308 45.3928 33.99 45.4831 33.5939C45.5734 33.1979 45.2927 32.7958 44.8553 32.6903C44.7917 32.6758 44.7015 32.6513 44.6397 32.6396C44.3815 32.5907 44.1715 32.6027 43.928 32.5825C43.4093 32.5281 42.9796 32.4839 42.5979 32.3637C42.4423 32.3034 42.3315 32.1181 42.2776 32.0419L41.978 31.9547C42.1334 30.8308 42.0915 29.6612 41.8227 28.4909C41.5514 27.3097 41.0719 26.2294 40.4324 25.2775C40.5092 25.2076 40.6544 25.0791 40.6956 25.0413C40.7076 24.9082 40.6972 24.7686 40.8351 24.6212C41.1268 24.3473 41.4947 24.12 41.9384 23.846C42.149 23.7221 42.3437 23.6422 42.5551 23.4861C42.6029 23.4508 42.6682 23.3949 42.7184 23.3545C43.0742 23.0707 43.1562 22.581 42.9007 22.2607C42.6452 21.9404 42.1501 21.9102 41.7941 22.1941C41.7435 22.2342 41.6748 22.2866 41.6293 22.3257C41.4301 22.4971 41.3071 22.6663 41.1394 22.8441C40.7735 23.2157 40.4711 23.5258 40.1391 23.7493C39.9952 23.833 39.7845 23.8041 39.6889 23.7984L39.4067 23.9998C37.7976 22.3125 35.6069 21.2338 33.2479 21.0242C33.2413 20.9253 33.2327 20.7467 33.2305 20.6928C33.1339 20.6005 33.0172 20.5216 32.9879 20.3219C32.9556 19.923 33.0096 19.4938 33.0719 18.976C33.1064 18.7341 33.1636 18.5332 33.1734 18.2705C33.1756 18.2109 33.172 18.1242 33.1718 18.0597C33.1718 17.6045 32.8397 17.2354 32.4299 17.2354ZM31.5009 22.99L31.2806 26.8818L31.2647 26.8897C31.2499 27.2379 30.9634 27.5159 30.6116 27.5159C30.4675 27.5159 30.3345 27.4696 30.2264 27.3907L30.22 27.3938L27.0288 25.1316C28.0096 24.1673 29.2641 23.4545 30.7099 23.1263C30.971 23.0673 31.2351 23.0218 31.5009 22.99ZM33.3604 22.99C35.0484 23.1975 36.6094 23.9619 37.8056 25.1333L34.635 27.3812L34.624 27.3764C34.3425 27.5819 33.946 27.531 33.7267 27.256C33.64 27.1481 33.59 27.0153 33.584 26.877L33.5808 26.8755L33.3604 22.99ZM25.8716 26.5854L28.7853 29.1916L28.7821 29.2074C29.0452 29.436 29.084 29.8328 28.8646 30.1078C28.7781 30.2165 28.6593 30.2948 28.5254 30.3314L28.5222 30.344L24.7872 31.422C24.5972 29.6838 25.0068 27.9941 25.8716 26.5854ZM38.9676 26.5869C39.4005 27.2886 39.7284 28.0724 39.9235 28.9221C40.1163 29.7615 40.1647 30.5995 40.0852 31.4094L36.3313 30.3282L36.3281 30.3123C35.992 30.2205 35.7853 29.8786 35.8636 29.5356C35.8941 29.4007 35.9668 29.279 36.0713 29.1884L36.0697 29.1805L38.9676 26.5869V26.5869ZM31.8322 29.3929H33.026L33.7679 30.3203L33.5016 31.4775L32.4299 31.9927L31.3551 31.476L31.0887 30.3187L31.8322 29.3929ZM35.6591 32.5666C35.7099 32.5641 35.7603 32.5687 35.8097 32.5777L35.8161 32.5698L39.6794 33.2229C39.114 34.8114 38.0321 36.1875 36.5865 37.1085L35.0869 33.4861L35.0916 33.4798C34.9538 33.1597 35.0917 32.7843 35.4086 32.6316C35.4898 32.5926 35.5746 32.5709 35.6591 32.5666ZM29.1706 32.5825C29.4654 32.5866 29.7298 32.7913 29.7983 33.0914C29.8304 33.2319 29.8148 33.371 29.7618 33.494L29.773 33.5083L28.2892 37.0942C26.9018 36.204 25.7968 34.8711 25.2057 33.2356L29.0358 32.5857L29.0421 32.5936C29.085 32.5857 29.1284 32.5819 29.1706 32.5825ZM32.4061 34.1535C32.5119 34.1499 32.6169 34.1721 32.7121 34.2185C32.8419 34.281 32.9422 34.3795 33.0053 34.4975H33.0196L34.9077 37.909C34.6598 37.9919 34.408 38.0622 34.1531 38.1199C32.7091 38.4478 31.2697 38.3484 29.9664 37.9043L31.8497 34.4991H31.8529C31.9069 34.3982 31.9863 34.3132 32.0834 34.2525C32.1805 34.1919 32.2917 34.1577 32.4061 34.1535L32.4061 34.1535Z" fill="white" stroke="white" stroke-width="0.14494"/>
</g>
</g>
<g filter="url(#filter1_dd_24068_48873)">
<path d="M130.282 11.6682C130.282 8.50384 132.848 5.93861 136.012 5.93861H172.681C175.846 5.93861 178.411 8.50383 178.411 11.6682V48.3375C178.411 51.5018 175.846 54.0671 172.681 54.0671H136.012C132.848 54.0671 130.282 51.5018 130.282 48.3375V11.6682Z" fill="white"/>
<path d="M130.282 11.6682C130.282 8.50384 132.848 5.93861 136.012 5.93861H172.681C175.846 5.93861 178.411 8.50383 178.411 11.6682V48.3375C178.411 51.5018 175.846 54.0671 172.681 54.0671H136.012C132.848 54.0671 130.282 51.5018 130.282 48.3375V11.6682Z" stroke="#C6D3E7" stroke-width="0.763944"/>
<g clip-path="url(#clip1_24068_48873)">
<path d="M154.223 12.7076C153.908 12.7235 153.599 12.8017 153.315 12.9375L140.92 18.8601C140.599 19.0133 140.317 19.2363 140.095 19.5124C139.873 19.7885 139.716 20.1106 139.637 20.4549L136.579 33.7586C136.508 34.0652 136.501 34.3826 136.556 34.6922C136.611 35.0018 136.728 35.2973 136.901 35.5611C136.943 35.6256 136.988 35.688 137.036 35.7482L145.615 46.4155C145.837 46.6915 146.119 46.9144 146.44 47.0675C146.761 47.2207 147.112 47.3002 147.468 47.3001L161.227 47.297C161.583 47.2972 161.934 47.218 162.255 47.0651C162.576 46.9122 162.858 46.6897 163.08 46.414L171.657 35.745C171.879 35.4688 172.035 35.1465 172.115 34.8021C172.194 34.4576 172.194 34.0999 172.115 33.7554L169.052 20.4517C168.973 20.1075 168.816 19.7853 168.594 19.5092C168.372 19.2331 168.09 19.0102 167.77 18.857L155.373 12.9374C155.015 12.7666 154.62 12.6876 154.223 12.7076Z" fill="#326CE5"/>
<path d="M154.346 17.2354C153.936 17.2354 153.604 17.6045 153.604 18.0597C153.604 18.0667 153.605 18.0734 153.606 18.0803C153.605 18.1422 153.602 18.2167 153.604 18.2705C153.614 18.5331 153.671 18.7341 153.705 18.976C153.768 19.4938 153.82 19.923 153.788 20.3219C153.756 20.4723 153.646 20.6099 153.547 20.7055L153.53 21.0194C153.078 21.0566 152.63 21.1254 152.188 21.2255C150.262 21.6629 148.603 22.6552 147.341 23.995C147.25 23.9328 147.161 23.8694 147.073 23.8048C146.94 23.8227 146.806 23.8636 146.632 23.7619C146.3 23.5385 145.998 23.23 145.632 22.8584C145.464 22.6806 145.343 22.5113 145.143 22.34C145.098 22.3011 145.029 22.2484 144.978 22.2084C144.823 22.0842 144.639 22.0195 144.462 22.0134C144.234 22.0056 144.014 22.0948 143.87 22.275C143.615 22.5953 143.697 23.085 144.053 23.3688C144.056 23.3717 144.06 23.3739 144.064 23.3768C144.113 23.4164 144.173 23.4672 144.218 23.5004C144.429 23.6565 144.622 23.7364 144.833 23.8603C145.276 24.1343 145.644 24.3615 145.936 24.6355C146.05 24.7569 146.07 24.9709 146.085 25.0635L146.323 25.2759C145.05 27.1916 144.461 29.5579 144.809 31.969L144.498 32.0593C144.416 32.1651 144.301 32.3315 144.179 32.3812C143.798 32.5014 143.368 32.5455 142.849 32.5999C142.606 32.6202 142.396 32.6081 142.138 32.657C142.081 32.6677 142.002 32.6884 141.939 32.7029L141.933 32.7046C141.93 32.7053 141.925 32.707 141.922 32.7077C141.485 32.8134 141.204 33.2153 141.294 33.6113C141.385 34.0074 141.812 34.2483 142.252 34.1535C142.255 34.1528 142.26 34.1526 142.263 34.1519C142.268 34.1508 142.272 34.1484 142.277 34.1472C142.339 34.1337 142.415 34.1187 142.469 34.1044C142.723 34.0364 142.907 33.9366 143.135 33.8491C143.626 33.6731 144.032 33.526 144.428 33.4686C144.594 33.4557 144.768 33.5707 144.855 33.6193L145.178 33.5638C145.922 35.8711 147.482 37.736 149.457 38.9062L149.322 39.2296C149.371 39.3551 149.424 39.525 149.388 39.6491C149.244 40.0225 148.997 40.4167 148.717 40.8561C148.581 41.0591 148.441 41.2167 148.319 41.449C148.289 41.5046 148.252 41.59 148.224 41.6487C148.033 42.0567 148.173 42.5266 148.539 42.703C148.908 42.8804 149.365 42.6932 149.563 42.2844C149.563 42.2838 149.564 42.2834 149.565 42.2828C149.565 42.2824 149.564 42.2817 149.565 42.2813C149.593 42.2233 149.633 42.1471 149.657 42.0926C149.762 41.8518 149.797 41.6454 149.871 41.4125C150.067 40.9194 150.175 40.402 150.445 40.0797C150.519 39.9914 150.64 39.9574 150.765 39.9239L150.933 39.6195C152.654 40.2804 154.582 40.4577 156.507 40.0207C156.939 39.9223 157.365 39.7941 157.78 39.637C157.827 39.7208 157.915 39.8818 157.938 39.9223C158.065 39.9637 158.204 39.9851 158.317 40.1522C158.519 40.4977 158.657 40.9063 158.826 41.3998C158.9 41.6327 158.936 41.8391 159.042 42.0799C159.065 42.1348 159.105 42.2121 159.133 42.2701C159.331 42.6803 159.79 42.8681 160.159 42.6903C160.525 42.5138 160.665 42.044 160.475 41.636C160.446 41.5773 160.407 41.4919 160.378 41.4363C160.255 41.204 160.116 41.048 159.98 40.845C159.699 40.4056 159.466 40.0405 159.322 39.6671C159.262 39.4745 159.332 39.3547 159.379 39.2296C159.351 39.1974 159.291 39.0155 159.256 38.93C161.308 37.7181 162.822 35.7837 163.533 33.5495C163.629 33.5646 163.795 33.5942 163.85 33.605C163.961 33.5315 164.064 33.4354 164.265 33.4512C164.661 33.5085 165.068 33.6557 165.559 33.8317C165.787 33.9191 165.971 34.0206 166.224 34.0885C166.278 34.1029 166.355 34.1163 166.416 34.1297C166.421 34.1309 166.426 34.1334 166.431 34.1345C166.434 34.1352 166.438 34.1353 166.442 34.1361C166.882 34.2308 167.309 33.99 167.399 33.5939C167.489 33.1979 167.209 32.7958 166.771 32.6903C166.708 32.6758 166.618 32.6513 166.556 32.6396C166.298 32.5907 166.087 32.6027 165.844 32.5825C165.325 32.5281 164.896 32.4839 164.514 32.3637C164.358 32.3034 164.248 32.1181 164.194 32.0419L163.894 31.9547C164.049 30.8308 164.008 29.6612 163.739 28.4909C163.467 27.3097 162.988 26.2294 162.348 25.2775C162.425 25.2076 162.57 25.0791 162.612 25.0413C162.624 24.9082 162.613 24.7686 162.751 24.6212C163.043 24.3473 163.411 24.12 163.854 23.846C164.065 23.7221 164.26 23.6422 164.471 23.4861C164.519 23.4508 164.584 23.3949 164.634 23.3545C164.99 23.0707 165.072 22.581 164.817 22.2607C164.561 21.9404 164.066 21.9102 163.71 22.1941C163.66 22.2342 163.591 22.2866 163.545 22.3257C163.346 22.4971 163.223 22.6663 163.055 22.8441C162.69 23.2157 162.387 23.5258 162.055 23.7493C161.911 23.833 161.701 23.8041 161.605 23.7984L161.323 23.9998C159.714 22.3125 157.523 21.2338 155.164 21.0242C155.157 20.9253 155.149 20.7467 155.146 20.6928C155.05 20.6005 154.933 20.5216 154.904 20.3219C154.872 19.923 154.926 19.4938 154.988 18.976C155.022 18.7341 155.08 18.5332 155.089 18.2705C155.092 18.2109 155.088 18.1242 155.088 18.0597C155.088 17.6045 154.756 17.2354 154.346 17.2354ZM153.417 22.99L153.197 26.8818L153.181 26.8897C153.166 27.2379 152.879 27.5159 152.528 27.5159C152.383 27.5159 152.25 27.4696 152.142 27.3907L152.136 27.3938L148.945 25.1316C149.926 24.1673 151.18 23.4545 152.626 23.1263C152.887 23.0673 153.151 23.0218 153.417 22.99ZM155.276 22.99C156.964 23.1975 158.525 23.9619 159.722 25.1333L156.551 27.3812L156.54 27.3764C156.259 27.5819 155.862 27.531 155.643 27.256C155.556 27.1481 155.506 27.0153 155.5 26.877L155.497 26.8755L155.276 22.99ZM147.788 26.5854L150.701 29.1916L150.698 29.2074C150.961 29.436 151 29.8328 150.781 30.1078C150.694 30.2165 150.575 30.2948 150.441 30.3314L150.438 30.344L146.703 31.422C146.513 29.6838 146.923 27.9941 147.788 26.5854ZM160.884 26.5869C161.317 27.2886 161.644 28.0724 161.84 28.9221C162.032 29.7615 162.081 30.5995 162.001 31.4094L158.247 30.3282L158.244 30.3123C157.908 30.2205 157.701 29.8786 157.78 29.5356C157.81 29.4007 157.883 29.279 157.987 29.1884L157.986 29.1805L160.884 26.5869V26.5869ZM153.748 29.3929H154.942L155.684 30.3203L155.418 31.4775L154.346 31.9927L153.271 31.476L153.005 30.3187L153.748 29.3929ZM157.575 32.5666C157.626 32.5641 157.676 32.5687 157.726 32.5777L157.732 32.5698L161.595 33.2229C161.03 34.8114 159.948 36.1875 158.503 37.1085L157.003 33.4861L157.008 33.4798C156.87 33.1597 157.008 32.7843 157.325 32.6316C157.406 32.5926 157.491 32.5709 157.575 32.5666ZM151.087 32.5825C151.381 32.5866 151.646 32.7913 151.714 33.0914C151.746 33.2319 151.731 33.371 151.678 33.494L151.689 33.5083L150.205 37.0942C148.818 36.204 147.713 34.8711 147.122 33.2356L150.952 32.5857L150.958 32.5936C151.001 32.5857 151.044 32.5819 151.087 32.5825ZM154.322 34.1535C154.428 34.1499 154.533 34.1721 154.628 34.2185C154.758 34.281 154.858 34.3795 154.921 34.4975H154.936L156.824 37.909C156.576 37.9919 156.324 38.0622 156.069 38.1199C154.625 38.4478 153.186 38.3484 151.882 37.9043L153.766 34.4991H153.769C153.823 34.3982 153.902 34.3132 153.999 34.2525C154.096 34.1919 154.208 34.1577 154.322 34.1535L154.322 34.1535Z" fill="white" stroke="white" stroke-width="0.14494"/>
</g>
</g>
<g filter="url(#filter2_dd_24068_48873)">
<path d="M56.9833 182.741C58.6709 182.741 60.0391 184.109 60.0391 185.797L60.0391 191.909C60.0391 193.596 58.6709 194.964 56.9833 194.964C55.2956 194.964 53.9275 193.596 53.9275 191.909L53.9275 185.797C53.9275 184.109 55.2956 182.741 56.9833 182.741Z" fill="#67778E"/>
<path d="M8.36635 170.964C8.36635 167.8 10.9316 165.235 14.0959 165.235H50.7652C53.9296 165.235 56.4948 167.8 56.4948 170.964V207.633C56.4948 210.798 53.9296 213.363 50.7652 213.363H14.0959C10.9316 213.363 8.36635 210.798 8.36635 207.633V170.964Z" fill="white"/>
<path d="M8.36635 170.964C8.36635 167.8 10.9316 165.235 14.0959 165.235H50.7652C53.9296 165.235 56.4948 167.8 56.4948 170.964V207.633C56.4948 210.798 53.9296 213.363 50.7652 213.363H14.0959C10.9316 213.363 8.36635 210.798 8.36635 207.633V170.964Z" stroke="#C6D3E7" stroke-width="0.763944"/>
<path d="M38.1651 172.05C37.9592 171.844 37.6799 171.728 37.3886 171.728H21.8286C21.2221 171.728 20.7305 172.22 20.7305 172.826V205.771C20.7305 206.378 21.2221 206.869 21.8286 206.869H43.7251C44.3317 206.869 44.8233 206.378 44.8233 205.771V179.163C44.8233 178.871 44.7076 178.592 44.5017 178.386L38.1651 172.05Z" fill="#E2E9F3"/>
<path d="M41.1101 182.71H24.5156C24.2459 182.71 24.0273 183.052 24.0273 183.474C24.0273 183.896 24.2459 184.238 24.5156 184.238H41.1101C41.3798 184.238 41.5983 183.896 41.5983 183.474C41.5983 183.052 41.3798 182.71 41.1101 182.71Z" fill="#847AE6"/>
<path d="M41.1107 187.532H24.5156C24.3861 187.532 24.2619 187.452 24.1703 187.309C24.0788 187.165 24.0273 186.971 24.0273 186.768C24.0273 186.566 24.0788 186.371 24.1703 186.228C24.2619 186.085 24.3861 186.004 24.5156 186.004H41.1107C41.2401 186.005 41.3641 186.085 41.4555 186.228C41.547 186.372 41.5983 186.566 41.5983 186.768C41.5983 186.971 41.547 187.165 41.4555 187.308C41.3641 187.451 41.2401 187.532 41.1107 187.532Z" fill="#847AE6"/>
<path d="M41.1107 190.827H24.5156C24.3862 190.827 24.2621 190.746 24.1706 190.603C24.079 190.46 24.0275 190.266 24.0273 190.063C24.0273 189.86 24.0788 189.666 24.1703 189.523C24.2619 189.379 24.3861 189.299 24.5156 189.299H41.1107C41.2401 189.299 41.3641 189.38 41.4555 189.523C41.547 189.666 41.5983 189.861 41.5983 190.063C41.5983 190.266 41.547 190.46 41.4555 190.603C41.3641 190.746 41.24 190.827 41.1107 190.827Z" fill="#847AE6"/>
<path d="M41.1107 194.121H24.5156C24.3861 194.121 24.2619 194.041 24.1703 193.897C24.0788 193.754 24.0273 193.559 24.0273 193.357C24.0275 193.154 24.079 192.96 24.1706 192.817C24.2621 192.674 24.3862 192.593 24.5156 192.593H41.1107C41.24 192.593 41.3641 192.674 41.4555 192.817C41.547 192.96 41.5983 193.154 41.5983 193.357C41.5983 193.559 41.547 193.754 41.4555 193.897C41.3641 194.04 41.2401 194.121 41.1107 194.121Z" fill="#847AE6"/>
<path d="M37.8418 178.708H44.8216L37.8418 171.728V178.708Z" fill="#5B50D6"/>
<path d="M44.8216 178.708H37.8418L44.8216 185.688V178.708Z" fill="#D2DEEF"/>
</g>
<path d="M33.4316 57.9492C33.4316 57.3969 32.9839 56.9492 32.4316 56.9492C31.8794 56.9492 31.4316 57.3969 31.4316 57.9492H33.4316ZM31.7245 162.06C32.1151 162.45 32.7482 162.45 33.1387 162.06L39.5027 155.696C39.8932 155.305 39.8932 154.672 39.5027 154.282C39.1122 153.891 38.479 153.891 38.0885 154.282L32.4316 159.939L26.7748 154.282C26.3843 153.891 25.7511 153.891 25.3606 154.282C24.97 154.672 24.97 155.305 25.3606 155.696L31.7245 162.06ZM31.4316 57.9492V161.353H33.4316V57.9492H31.4316Z" fill="#67778E"/>
<path d="M8.12695 110C8.12695 104.477 12.6041 100 18.127 100H75.127C80.6498 100 85.127 104.477 85.127 110C85.127 115.523 80.6498 120 75.127 120H18.127C12.6041 120 8.12695 115.523 8.12695 110Z" fill="#67778E"/>
<path d="M22.0405 109.365V110.622H17.9585V109.365H22.0405ZM18.4365 106.18V114H16.8252V106.18H18.4365ZM23.1899 106.18V114H21.584V106.18H23.1899ZM31.0596 109.907V110.278C31.0596 110.872 30.9791 111.406 30.8179 111.878C30.6568 112.351 30.4294 112.754 30.1358 113.087C29.8422 113.416 29.4913 113.669 29.0831 113.844C28.6784 114.02 28.2291 114.107 27.7349 114.107C27.2444 114.107 26.795 114.02 26.3868 113.844C25.9822 113.669 25.6312 113.416 25.334 113.087C25.0368 112.754 24.8059 112.351 24.6412 111.878C24.48 111.406 24.3995 110.872 24.3995 110.278V109.907C24.3995 109.309 24.48 108.776 24.6412 108.307C24.8023 107.834 25.0297 107.431 25.3233 107.098C25.6205 106.765 25.9714 106.511 26.376 106.335C26.7842 106.16 27.2336 106.072 27.7242 106.072C28.2183 106.072 28.6677 106.16 29.0723 106.335C29.4805 106.511 29.8314 106.765 30.1251 107.098C30.4223 107.431 30.6514 107.834 30.8126 108.307C30.9773 108.776 31.0596 109.309 31.0596 109.907ZM29.4322 110.278V109.896C29.4322 109.481 29.3946 109.116 29.3194 108.801C29.2442 108.486 29.1332 108.221 28.9864 108.006C28.8396 107.791 28.6605 107.63 28.4493 107.522C28.238 107.411 27.9963 107.356 27.7242 107.356C27.452 107.356 27.2103 107.411 26.9991 107.522C26.7914 107.63 26.6141 107.791 26.4673 108.006C26.3241 108.221 26.2149 108.486 26.1397 108.801C26.0645 109.116 26.0269 109.481 26.0269 109.896V110.278C26.0269 110.69 26.0645 111.055 26.1397 111.374C26.2149 111.689 26.3259 111.955 26.4727 112.174C26.6195 112.389 26.7986 112.552 27.0098 112.663C27.2211 112.774 27.4628 112.829 27.7349 112.829C28.0071 112.829 28.2488 112.774 28.46 112.663C28.6713 112.552 28.8485 112.389 28.9918 112.174C29.135 111.955 29.2442 111.689 29.3194 111.374C29.3946 111.055 29.4322 110.69 29.4322 110.278ZM36.3351 111.954C36.3351 111.814 36.3136 111.689 36.2706 111.578C36.2312 111.463 36.156 111.359 36.045 111.266C35.934 111.169 35.7783 111.075 35.5777 110.981C35.3772 110.888 35.1176 110.792 34.7989 110.691C34.4444 110.577 34.1079 110.448 33.7892 110.305C33.4741 110.161 33.1948 109.995 32.9513 109.805C32.7114 109.612 32.5216 109.388 32.3819 109.134C32.2459 108.88 32.1778 108.584 32.1778 108.248C32.1778 107.922 32.2495 107.626 32.3927 107.361C32.5359 107.093 32.7364 106.864 32.9943 106.674C33.2521 106.48 33.5564 106.332 33.9073 106.228C34.2618 106.124 34.6503 106.072 35.0729 106.072C35.6494 106.072 36.1525 106.176 36.5821 106.384C37.0118 106.591 37.3448 106.876 37.5812 107.238C37.8211 107.599 37.941 108.013 37.941 108.479H36.3404C36.3404 108.249 36.2921 108.049 36.1954 107.877C36.1023 107.701 35.9591 107.564 35.7657 107.463C35.576 107.363 35.336 107.313 35.046 107.313C34.7667 107.313 34.534 107.356 34.3478 107.442C34.1616 107.524 34.0219 107.637 33.9288 107.78C33.8357 107.92 33.7892 108.077 33.7892 108.253C33.7892 108.385 33.8214 108.505 33.8859 108.613C33.9539 108.72 34.0541 108.82 34.1866 108.914C34.3191 109.007 34.482 109.094 34.6754 109.177C34.8688 109.259 35.0926 109.34 35.3468 109.418C35.7729 109.547 36.1471 109.692 36.4693 109.854C36.7952 110.015 37.0673 110.195 37.2858 110.396C37.5042 110.597 37.6689 110.824 37.7799 111.078C37.8909 111.332 37.9464 111.621 37.9464 111.943C37.9464 112.283 37.8802 112.587 37.7477 112.856C37.6152 113.125 37.4236 113.352 37.173 113.538C36.9223 113.724 36.6233 113.866 36.276 113.962C35.9287 114.059 35.5401 114.107 35.1105 114.107C34.7237 114.107 34.3424 114.057 33.9664 113.957C33.5904 113.853 33.2485 113.697 32.9405 113.49C32.6362 113.282 32.3927 113.017 32.2101 112.695C32.0275 112.373 31.9361 111.991 31.9361 111.551H33.5528C33.5528 111.794 33.5904 112 33.6656 112.168C33.7408 112.337 33.8465 112.473 33.9825 112.577C34.1222 112.681 34.2869 112.756 34.4767 112.802C34.67 112.849 34.8813 112.872 35.1105 112.872C35.3898 112.872 35.6189 112.833 35.798 112.754C35.9806 112.675 36.1149 112.566 36.2008 112.426C36.2903 112.287 36.3351 112.129 36.3351 111.954ZM42.5827 106.18V114H40.9767V106.18H42.5827ZM44.9889 106.18V107.442H38.6081V106.18H44.9889ZM52.3161 106.18V114H50.7048L47.5627 108.758V114H45.9514V106.18H47.5627L50.7102 111.427V106.18H52.3161ZM57.0384 107.517L54.9114 114H53.198L56.1038 106.18H57.1941L57.0384 107.517ZM58.8055 114L56.6731 107.517L56.5013 106.18H57.6023L60.5242 114H58.8055ZM58.7088 111.089V112.351H54.5784V111.089H58.7088ZM62.0291 106.18H63.3934L65.4022 111.921L67.411 106.18H68.7752L65.95 114H64.8543L62.0291 106.18ZM61.2933 106.18H62.6522L62.8993 111.776V114H61.2933V106.18ZM68.1522 106.18H69.5164V114H67.9051V111.776L68.1522 106.18ZM76.2206 112.743V114H72.058V112.743H76.2206ZM72.5844 106.18V114H70.973V106.18H72.5844ZM75.6781 109.365V110.589H72.058V109.365H75.6781ZM76.2152 106.18V107.442H72.058V106.18H76.2152Z" fill="white"/>
<g filter="url(#filter3_dd_24068_48873)">
<path d="M147.789 164.853C147.789 163.165 149.157 161.797 150.845 161.797H156.956C158.644 161.797 160.012 163.165 160.012 164.853C160.012 166.54 158.644 167.908 156.956 167.908H150.845C149.157 167.908 147.789 166.54 147.789 164.853Z" fill="#67778E"/>
<path d="M130.282 170.964C130.282 167.8 132.848 165.235 136.012 165.235H172.681C175.846 165.235 178.411 167.8 178.411 170.964V207.633C178.411 210.798 175.846 213.363 172.681 213.363H136.012C132.848 213.363 130.282 210.798 130.282 207.633V170.964Z" fill="white"/>
<path d="M130.282 170.964C130.282 167.8 132.848 165.235 136.012 165.235H172.681C175.846 165.235 178.411 167.8 178.411 170.964V207.633C178.411 210.798 175.846 213.363 172.681 213.363H136.012C132.848 213.363 130.282 210.798 130.282 207.633V170.964Z" stroke="#C6D3E7" stroke-width="0.763944"/>
<path d="M167.249 191.226L166.16 198.075L172.638 200.559L172.637 194.336L167.249 191.226Z" fill="#A299FF"/>
<path d="M139.027 197.447V181.151L144.418 182.861V194.334L153.14 199.37L153.791 201.854L153.14 205.594L139.027 197.447Z" fill="#7366FF"/>
<path d="M153.141 179.229L144.418 184.263L139.027 181.151L153.138 173.004L167.25 181.151L164.273 183.523L161.863 184.264L153.141 179.229Z" fill="#7366FF"/>
<path d="M172.639 200.557L167.249 203.671L161.861 200.557V194.335L172.639 200.557Z" fill="#5219FF"/>
<path d="M153.142 183.091L153.139 189.314L158.531 192.425L158.53 186.201L153.142 183.091Z" fill="#A299FF"/>
<path d="M153.139 189.314L147.75 192.425L153.14 195.538L158.531 192.425L153.139 189.314Z" fill="#5219FF"/>
<path d="M153.142 183.091L147.751 186.203L147.75 192.425L153.139 189.314L153.142 183.091Z" fill="#7366FF"/>
<path d="M167.249 181.151V191.225L161.861 194.335V184.264L167.249 181.151Z" fill="url(#paint0_linear_24068_48873)"/>
<path d="M167.251 191.222L153.139 199.369V205.594L167.249 197.445L167.251 191.222Z" fill="url(#paint1_linear_24068_48873)"/>
</g>
<path d="M60.377 188.299C59.8247 188.299 59.377 188.747 59.377 189.299C59.377 189.851 59.8247 190.299 60.377 190.299V188.299ZM127.108 190.006C127.498 189.615 127.498 188.982 127.108 188.592L120.744 182.228C120.353 181.837 119.72 181.837 119.33 182.228C118.939 182.618 118.939 183.251 119.33 183.642L124.986 189.299L119.33 194.956C118.939 195.346 118.939 195.979 119.33 196.37C119.72 196.76 120.353 196.76 120.744 196.37L127.108 190.006ZM60.377 190.299H126.401V188.299H60.377V190.299Z" fill="#67778E"/>
<path d="M153.348 161.353C153.348 161.905 153.795 162.353 154.348 162.353C154.9 162.353 155.348 161.905 155.348 161.353H153.348ZM155.055 57.2421C154.664 56.8516 154.031 56.8516 153.641 57.2421L147.277 63.6061C146.886 63.9966 146.886 64.6298 147.277 65.0203C147.667 65.4108 148.3 65.4108 148.691 65.0203L154.348 59.3634L160.005 65.0203C160.395 65.4108 161.028 65.4108 161.419 65.0203C161.809 64.6298 161.809 63.9966 161.419 63.6061L155.055 57.2421ZM155.348 161.353V57.9492H153.348V161.353H155.348Z" fill="#67778E"/>
<path d="M139.508 110C139.508 104.477 143.985 100 149.508 100H175.508C181.031 100 185.508 104.477 185.508 110C185.508 115.523 181.031 120 175.508 120H149.508C143.985 120 139.508 115.523 139.508 110Z" fill="#67778E"/>
<path d="M153.421 109.365V110.622H149.339V109.365H153.421ZM149.817 106.18V114H148.206V106.18H149.817ZM154.571 106.18V114H152.965V106.18H154.571ZM162.44 109.907V110.278C162.44 110.872 162.36 111.406 162.199 111.878C162.038 112.351 161.81 112.754 161.517 113.087C161.223 113.416 160.872 113.669 160.464 113.844C160.059 114.02 159.61 114.107 159.116 114.107C158.625 114.107 158.176 114.02 157.768 113.844C157.363 113.669 157.012 113.416 156.715 113.087C156.418 112.754 156.187 112.351 156.022 111.878C155.861 111.406 155.78 110.872 155.78 110.278V109.907C155.78 109.309 155.861 108.776 156.022 108.307C156.183 107.834 156.411 107.431 156.704 107.098C157.001 106.765 157.352 106.511 157.757 106.335C158.165 106.16 158.614 106.072 159.105 106.072C159.599 106.072 160.049 106.16 160.453 106.335C160.861 106.511 161.212 106.765 161.506 107.098C161.803 107.431 162.032 107.834 162.193 108.307C162.358 108.776 162.44 109.309 162.44 109.907ZM160.813 110.278V109.896C160.813 109.481 160.775 109.116 160.7 108.801C160.625 108.486 160.514 108.221 160.367 108.006C160.22 107.791 160.041 107.63 159.83 107.522C159.619 107.411 159.377 107.356 159.105 107.356C158.833 107.356 158.591 107.411 158.38 107.522C158.172 107.63 157.995 107.791 157.848 108.006C157.705 108.221 157.596 108.486 157.521 108.801C157.445 109.116 157.408 109.481 157.408 109.896V110.278C157.408 110.69 157.445 111.055 157.521 111.374C157.596 111.689 157.707 111.955 157.854 112.174C158 112.389 158.179 112.552 158.391 112.663C158.602 112.774 158.844 112.829 159.116 112.829C159.388 112.829 159.63 112.774 159.841 112.663C160.052 112.552 160.229 112.389 160.373 112.174C160.516 111.955 160.625 111.689 160.7 111.374C160.775 111.055 160.813 110.69 160.813 110.278ZM167.716 111.954C167.716 111.814 167.694 111.689 167.651 111.578C167.612 111.463 167.537 111.359 167.426 111.266C167.315 111.169 167.159 111.075 166.959 110.981C166.758 110.888 166.498 110.792 166.18 110.691C165.825 110.577 165.489 110.448 165.17 110.305C164.855 110.161 164.576 109.995 164.332 109.805C164.092 109.612 163.902 109.388 163.763 109.134C163.627 108.88 163.559 108.584 163.559 108.248C163.559 107.922 163.63 107.626 163.774 107.361C163.917 107.093 164.117 106.864 164.375 106.674C164.633 106.48 164.937 106.332 165.288 106.228C165.643 106.124 166.031 106.072 166.454 106.072C167.03 106.072 167.533 106.176 167.963 106.384C168.393 106.591 168.726 106.876 168.962 107.238C169.202 107.599 169.322 108.013 169.322 108.479H167.721C167.721 108.249 167.673 108.049 167.576 107.877C167.483 107.701 167.34 107.564 167.147 107.463C166.957 107.363 166.717 107.313 166.427 107.313C166.148 107.313 165.915 107.356 165.729 107.442C165.542 107.524 165.403 107.637 165.31 107.78C165.217 107.92 165.17 108.077 165.17 108.253C165.17 108.385 165.202 108.505 165.267 108.613C165.335 108.72 165.435 108.82 165.567 108.914C165.7 109.007 165.863 109.094 166.056 109.177C166.25 109.259 166.473 109.34 166.728 109.418C167.154 109.547 167.528 109.692 167.85 109.854C168.176 110.015 168.448 110.195 168.667 110.396C168.885 110.597 169.05 110.824 169.161 111.078C169.272 111.332 169.327 111.621 169.327 111.943C169.327 112.283 169.261 112.587 169.129 112.856C168.996 113.125 168.804 113.352 168.554 113.538C168.303 113.724 168.004 113.866 167.657 113.962C167.31 114.059 166.921 114.107 166.491 114.107C166.105 114.107 165.723 114.057 165.347 113.957C164.971 113.853 164.629 113.697 164.321 113.49C164.017 113.282 163.774 113.017 163.591 112.695C163.408 112.373 163.317 111.991 163.317 111.551H164.934C164.934 111.794 164.971 112 165.046 112.168C165.122 112.337 165.227 112.473 165.363 112.577C165.503 112.681 165.668 112.756 165.858 112.802C166.051 112.849 166.262 112.872 166.491 112.872C166.771 112.872 167 112.833 167.179 112.754C167.361 112.675 167.496 112.566 167.582 112.426C167.671 112.287 167.716 112.129 167.716 111.954ZM173.964 106.18V114H172.358V106.18H173.964ZM176.37 106.18V107.442H169.989V106.18H176.37Z" fill="white"/>
<path d="M40 53C40 47.4772 44.4772 43 50 43H67C72.5228 43 77 47.4772 77 53C77 58.5228 72.5228 63 67 63H50C44.4772 63 40 58.5228 40 53Z" fill="white"/>
<path fill-rule="evenodd" clip-rule="evenodd" d="M49.0195 62.9525L49.1647 61.4596C49.4391 61.4863 49.7177 61.5 50 61.5H51.0625V63H50C49.6692 63 49.3421 62.9839 49.0195 62.9525ZM65.9375 63V61.5H67C67.2823 61.5 67.5609 61.4863 67.8353 61.4596L67.9805 62.9525C67.6579 62.9839 67.3308 63 67 63H65.9375ZM69.9038 62.5719L69.4689 61.1363C70.0056 60.9737 70.5201 60.7593 71.0066 60.4987L71.7148 61.821C71.1422 62.1277 70.5363 62.3803 69.9038 62.5719ZM73.344 60.7304L72.3918 59.5714C72.8224 59.2176 73.2176 58.8224 73.5714 58.3918L74.7304 59.344C74.3146 59.8501 73.8501 60.3146 73.344 60.7304ZM75.821 57.7148L74.4987 57.0066C74.7593 56.5201 74.9737 56.0056 75.1363 55.4689L76.5719 55.9038C76.3803 56.5363 76.1277 57.1422 75.821 57.7148ZM76.9525 53.9806L75.4596 53.8353C75.4863 53.5609 75.5 53.2823 75.5 53C75.5 52.7177 75.4863 52.4391 75.4596 52.1647L76.9525 52.0195C76.9839 52.3421 77 52.6692 77 53C77 53.3308 76.9839 53.6579 76.9525 53.9806ZM76.5719 50.0962L75.1363 50.5311C74.9737 49.9944 74.7593 49.4799 74.4987 48.9934L75.821 48.2852C76.1277 48.8578 76.3803 49.4637 76.5719 50.0962ZM74.7304 46.656L73.5714 47.6082C73.2176 47.1776 72.8224 46.7824 72.3918 46.4286L73.344 45.2696C73.8501 45.6854 74.3146 46.1499 74.7304 46.656ZM71.7148 44.179L71.0066 45.5013C70.5201 45.2407 70.0056 45.0263 69.4689 44.8637L69.9038 43.4281C70.5363 43.6197 71.1422 43.8723 71.7148 44.179ZM51.0625 43H50C49.6692 43 49.3421 43.0161 49.0195 43.0475L49.1647 44.5404C49.4391 44.5137 49.7177 44.5 50 44.5H51.0625V43ZM47.0962 43.4281L47.5311 44.8637C46.9944 45.0263 46.4799 45.2407 45.9934 45.5013L45.2852 44.179C45.8578 43.8723 46.4637 43.6197 47.0962 43.4281ZM43.656 45.2696L44.6082 46.4286C44.1776 46.7824 43.7824 47.1776 43.4286 47.6082L42.2696 46.656C42.6854 46.1499 43.1499 45.6854 43.656 45.2696ZM41.179 48.2852L42.5013 48.9934C42.2407 49.4799 42.0263 49.9944 41.8637 50.5311L40.4281 50.0962C40.6197 49.4637 40.8723 48.8578 41.179 48.2852ZM40.0475 52.0195L41.5404 52.1647C41.5137 52.4391 41.5 52.7177 41.5 53C41.5 53.2823 41.5137 53.5609 41.5404 53.8353L40.0475 53.9805C40.0161 53.6579 40 53.3308 40 53C40 52.6692 40.0161 52.3421 40.0475 52.0195ZM40.4281 55.9038L41.8637 55.4689C42.0263 56.0056 42.2407 56.5201 42.5013 57.0066L41.179 57.7148C40.8723 57.1422 40.6197 56.5363 40.4281 55.9038ZM42.2696 59.344L43.4286 58.3918C43.7824 58.8224 44.1776 59.2176 44.6082 59.5714L43.656 60.7304C43.1499 60.3146 42.6854 59.8501 42.2696 59.344ZM47.0962 62.5719L47.5311 61.1363C46.9944 60.9737 46.4799 60.7593 45.9934 60.4987L45.2852 61.821C45.8578 62.1277 46.4637 62.3803 47.0962 62.5719ZM53.1875 43V44.5H55.3125V43H53.1875ZM57.4375 43V44.5H59.5625V43H57.4375ZM61.6875 43V44.5H63.8125V43H61.6875ZM65.9375 43V44.5H67C67.2823 44.5 67.5609 44.5137 67.8353 44.5404L67.9806 43.0475C67.6579 43.0161 67.3308 43 67 43H65.9375ZM63.8125 63V61.5H61.6875V63H63.8125ZM59.5625 63V61.5H57.4375V63H59.5625ZM55.3125 63V61.5H53.1875V63H55.3125Z" fill="#67778E"/>
<path d="M51.8618 54.5991V49.1797H53.4678V54.5991C53.4678 55.1219 53.3532 55.5713 53.124 55.9473C52.8949 56.3197 52.5815 56.6061 52.1841 56.8066C51.7902 57.0072 51.3462 57.1074 50.8521 57.1074C50.34 57.1074 49.887 57.0215 49.4932 56.8496C49.0993 56.6777 48.7896 56.4146 48.564 56.0601C48.3384 55.702 48.2256 55.249 48.2256 54.7012H49.8423C49.8423 54.9876 49.8817 55.215 49.9604 55.3833C50.0428 55.5516 50.1592 55.6715 50.3096 55.7432C50.46 55.8148 50.6408 55.8506 50.8521 55.8506C51.0562 55.8506 51.2334 55.8022 51.3838 55.7056C51.5342 55.6089 51.6506 55.4674 51.7329 55.2812C51.8188 55.0951 51.8618 54.8677 51.8618 54.5991Z" fill="#67778E"/>
<path d="M61.3106 52.9072V53.2778C61.3106 53.8722 61.23 54.4058 61.0689 54.8784C60.9078 55.3511 60.6804 55.7539 60.3868 56.0869C60.0932 56.4163 59.7422 56.6688 59.334 56.8442C58.9294 57.0197 58.48 57.1074 57.9859 57.1074C57.4953 57.1074 57.046 57.0197 56.6378 56.8442C56.2331 56.6688 55.8822 56.4163 55.585 56.0869C55.2878 55.7539 55.0569 55.3511 54.8921 54.8784C54.731 54.4058 54.6504 53.8722 54.6504 53.2778V52.9072C54.6504 52.3092 54.731 51.7757 54.8921 51.3066C55.0533 50.834 55.2807 50.4312 55.5743 50.0981C55.8715 49.7651 56.2224 49.5109 56.627 49.3354C57.0352 49.16 57.4846 49.0723 57.9752 49.0723C58.4693 49.0723 58.9187 49.16 59.3233 49.3354C59.7315 49.5109 60.0824 49.7651 60.376 50.0981C60.6732 50.4312 60.9024 50.834 61.0635 51.3066C61.2282 51.7757 61.3106 52.3092 61.3106 52.9072ZM59.6832 53.2778V52.8965C59.6832 52.4811 59.6456 52.1159 59.5704 51.8008C59.4952 51.4857 59.3842 51.2207 59.2374 51.0059C59.0905 50.791 58.9115 50.6299 58.7003 50.5225C58.489 50.4115 58.2473 50.356 57.9752 50.356C57.703 50.356 57.4613 50.4115 57.2501 50.5225C57.0424 50.6299 56.8651 50.791 56.7183 51.0059C56.5751 51.2207 56.4659 51.4857 56.3907 51.8008C56.3155 52.1159 56.2779 52.4811 56.2779 52.8965V53.2778C56.2779 53.6896 56.3155 54.0549 56.3907 54.3735C56.4659 54.6886 56.5769 54.9554 56.7237 55.1738C56.8705 55.3887 57.0495 55.5516 57.2608 55.6626C57.4721 55.7736 57.7138 55.8291 57.9859 55.8291C58.258 55.8291 58.4997 55.7736 58.711 55.6626C58.9223 55.5516 59.0995 55.3887 59.2427 55.1738C59.386 54.9554 59.4952 54.6886 59.5704 54.3735C59.6456 54.0549 59.6832 53.6896 59.6832 53.2778Z" fill="#67778E"/>
<path d="M65.5763 53.5679H63.5675L63.5568 52.4614H65.2433C65.5405 52.4614 65.784 52.4238 65.9737 52.3486C66.1635 52.2699 66.305 52.1571 66.3981 52.0103C66.4947 51.8599 66.5431 51.6772 66.5431 51.4624C66.5431 51.2189 66.4965 51.022 66.4034 50.8716C66.3139 50.7212 66.1725 50.612 65.9791 50.5439C65.7893 50.4759 65.5441 50.4419 65.2433 50.4419H64.1261V57H62.5148V49.1797H65.2433C65.698 49.1797 66.1044 49.2227 66.4625 49.3086C66.8242 49.3945 67.1303 49.5252 67.381 49.7007C67.6316 49.8761 67.8232 50.0981 67.9557 50.3667C68.0882 50.6317 68.1544 50.9468 68.1544 51.312C68.1544 51.6343 68.081 51.9315 67.9342 52.2036C67.791 52.4757 67.5636 52.6978 67.2521 52.8696C66.9441 53.0415 66.5413 53.1364 66.0436 53.1543L65.5763 53.5679ZM65.5065 57H63.1271L63.7555 55.7432H65.5065C65.7893 55.7432 66.0203 55.6984 66.1993 55.6089C66.3784 55.5158 66.5109 55.3905 66.5968 55.2329C66.6827 55.0754 66.7257 54.8945 66.7257 54.6904C66.7257 54.4613 66.6863 54.2625 66.6075 54.0942C66.5323 53.9259 66.4106 53.797 66.2423 53.7075C66.074 53.6144 65.852 53.5679 65.5763 53.5679H64.024L64.0348 52.4614H65.9684L66.339 52.8965C66.8152 52.8893 67.1984 52.9735 67.4884 53.1489C67.782 53.3208 67.9951 53.5446 68.1276 53.8203C68.2636 54.096 68.3317 54.3914 68.3317 54.7065C68.3317 55.2078 68.2224 55.6304 68.004 55.9741C67.7856 56.3143 67.4651 56.5703 67.0426 56.7422C66.6236 56.9141 66.1116 57 65.5065 57Z" fill="#67778E"/>
<path d="M108 53C108 47.4772 112.477 43 118 43H136C141.523 43 146 47.4772 146 53C146 58.5228 141.523 63 136 63H118C112.477 63 108 58.5228 108 53Z" fill="white"/>
<path fill-rule="evenodd" clip-rule="evenodd" d="M117.019 62.9525L117.165 61.4596C117.439 61.4863 117.718 61.5 118 61.5H118.9V63H118C117.669 63 117.342 62.9839 117.019 62.9525ZM135.1 63V61.5H136C136.282 61.5 136.561 61.4863 136.835 61.4596L136.981 62.9525C136.658 62.9839 136.331 63 136 63H135.1ZM138.904 62.5719L138.469 61.1363C139.006 60.9737 139.52 60.7593 140.007 60.4987L140.715 61.821C140.142 62.1277 139.536 62.3803 138.904 62.5719ZM142.344 60.7304L141.392 59.5714C141.822 59.2176 142.218 58.8224 142.571 58.3918L143.73 59.344C143.315 59.8501 142.85 60.3146 142.344 60.7304ZM144.821 57.7148L143.499 57.0066C143.759 56.5201 143.974 56.0056 144.136 55.4689L145.572 55.9038C145.38 56.5363 145.128 57.1422 144.821 57.7148ZM145.953 53.9806L144.46 53.8353C144.486 53.5609 144.5 53.2823 144.5 53C144.5 52.7177 144.486 52.4391 144.46 52.1647L145.953 52.0195C145.984 52.3421 146 52.6692 146 53C146 53.3308 145.984 53.6579 145.953 53.9806ZM145.572 50.0962L144.136 50.5311C143.974 49.9944 143.759 49.4799 143.499 48.9934L144.821 48.2852C145.128 48.8578 145.38 49.4637 145.572 50.0962ZM143.73 46.656L142.571 47.6082C142.218 47.1776 141.822 46.7824 141.392 46.4286L142.344 45.2696C142.85 45.6854 143.315 46.1499 143.73 46.656ZM140.715 44.179L140.007 45.5013C139.52 45.2407 139.006 45.0263 138.469 44.8637L138.904 43.4281C139.536 43.6197 140.142 43.8723 140.715 44.179ZM118.9 43H118C117.669 43 117.342 43.0161 117.019 43.0475L117.165 44.5404C117.439 44.5137 117.718 44.5 118 44.5H118.9V43ZM115.096 43.4281L115.531 44.8637C114.994 45.0263 114.48 45.2407 113.993 45.5013L113.285 44.179C113.858 43.8723 114.464 43.6197 115.096 43.4281ZM111.656 45.2696L112.608 46.4286C112.178 46.7824 111.782 47.1776 111.429 47.6082L110.27 46.656C110.685 46.1499 111.15 45.6854 111.656 45.2696ZM109.179 48.2852L110.501 48.9934C110.241 49.4799 110.026 49.9944 109.864 50.5311L108.428 50.0962C108.62 49.4637 108.872 48.8578 109.179 48.2852ZM108.047 52.0194L109.54 52.1647C109.514 52.4391 109.5 52.7177 109.5 53C109.5 53.2823 109.514 53.5609 109.54 53.8353L108.047 53.9805C108.016 53.6579 108 53.3308 108 53C108 52.6692 108.016 52.3421 108.047 52.0194ZM108.428 55.9038L109.864 55.4689C110.026 56.0056 110.241 56.5201 110.501 57.0066L109.179 57.7148C108.872 57.1422 108.62 56.5363 108.428 55.9038ZM110.27 59.344L111.429 58.3918C111.782 58.8224 112.178 59.2176 112.608 59.5714L111.656 60.7304C111.15 60.3146 110.685 59.8501 110.27 59.344ZM115.096 62.5719L115.531 61.1363C114.994 60.9737 114.48 60.7593 113.993 60.4987L113.285 61.821C113.858 62.1277 114.464 62.3803 115.096 62.5719ZM120.7 43V44.5H122.5V43H120.7ZM124.3 43V44.5H126.1V43H124.3ZM127.9 43V44.5H129.7V43H127.9ZM131.5 43V44.5H133.3V43H131.5ZM135.1 43V44.5H136C136.282 44.5 136.561 44.5137 136.835 44.5404L136.981 43.0475C136.658 43.0161 136.331 43 136 43H135.1ZM133.3 63V61.5H131.5V63H133.3ZM129.7 63V61.5H127.9V63H129.7ZM126.1 63V61.5H124.3V63H126.1ZM122.5 63V61.5H120.7V63H122.5Z" fill="#67778E"/>
<path d="M119.878 50.5171L117.751 57H116.038L118.943 49.1797H120.034L119.878 50.5171ZM121.645 57L119.513 50.5171L119.341 49.1797H120.442L123.364 57H121.645ZM121.548 54.0889V55.3511H117.418V54.0889H121.548Z" fill="#67778E"/>
<path d="M127.178 54.2124H125.186V52.9556H127.178C127.486 52.9556 127.737 52.9054 127.93 52.8052C128.124 52.7013 128.265 52.5581 128.355 52.3755C128.444 52.1929 128.489 51.987 128.489 51.7578C128.489 51.5251 128.444 51.3084 128.355 51.1079C128.265 50.9074 128.124 50.7463 127.93 50.6245C127.737 50.5028 127.486 50.4419 127.178 50.4419H125.744V57H124.133V49.1797H127.178C127.791 49.1797 128.315 49.2907 128.752 49.5127C129.192 49.7311 129.529 50.0337 129.762 50.4204C129.995 50.8071 130.111 51.2493 130.111 51.7471C130.111 52.252 129.995 52.6888 129.762 53.0576C129.529 53.4264 129.192 53.7111 128.752 53.9116C128.315 54.1121 127.791 54.2124 127.178 54.2124Z" fill="#67778E"/>
<path d="M134.312 54.2124H132.319V52.9556H134.312C134.62 52.9556 134.871 52.9054 135.064 52.8052C135.257 52.7013 135.399 52.5581 135.488 52.3755C135.578 52.1929 135.623 51.987 135.623 51.7578C135.623 51.5251 135.578 51.3084 135.488 51.1079C135.399 50.9074 135.257 50.7463 135.064 50.6245C134.871 50.5028 134.62 50.4419 134.312 50.4419H132.878V57H131.267V49.1797H134.312C134.924 49.1797 135.449 49.2907 135.886 49.5127C136.326 49.7311 136.663 50.0337 136.896 50.4204C137.128 50.8071 137.245 51.2493 137.245 51.7471C137.245 52.252 137.128 52.6888 136.896 53.0576C136.663 53.4264 136.326 53.7111 135.886 53.9116C135.449 54.1121 134.924 54.2124 134.312 54.2124Z" fill="#67778E"/>
<path d="M40 167C40 161.477 44.4772 157 50 157H90C95.5228 157 100 161.477 100 167C100 172.523 95.5228 177 90 177H50C44.4772 177 40 172.523 40 167Z" fill="white"/>
<path fill-rule="evenodd" clip-rule="evenodd" d="M49.0195 176.953L49.1647 175.46C49.4391 175.486 49.7177 175.5 50 175.5H51V177H50C49.6692 177 49.3421 176.984 49.0195 176.953ZM89 177V175.5H90C90.2823 175.5 90.5609 175.486 90.8353 175.46L90.9805 176.953C90.6579 176.984 90.3308 177 90 177H89ZM92.9038 176.572L92.4689 175.136C93.0056 174.974 93.5201 174.759 94.0066 174.499L94.7148 175.821C94.1422 176.128 93.5363 176.38 92.9038 176.572ZM96.344 174.73L95.3918 173.571C95.8224 173.218 96.2176 172.822 96.5714 172.392L97.7304 173.344C97.3146 173.85 96.8501 174.315 96.344 174.73ZM98.821 171.715L97.4987 171.007C97.7593 170.52 97.9737 170.006 98.1363 169.469L99.5719 169.904C99.3803 170.536 99.1277 171.142 98.821 171.715ZM99.9525 167.981L98.4596 167.835C98.4863 167.561 98.5 167.282 98.5 167C98.5 166.718 98.4863 166.439 98.4596 166.165L99.9525 166.019C99.9839 166.342 100 166.669 100 167C100 167.331 99.9839 167.658 99.9525 167.981ZM99.5719 164.096L98.1363 164.531C97.9737 163.994 97.7593 163.48 97.4987 162.993L98.821 162.285C99.1277 162.858 99.3803 163.464 99.5719 164.096ZM97.7304 160.656C97.3146 160.15 96.8501 159.685 96.344 159.27L95.3918 160.429C95.8224 160.782 96.2176 161.178 96.5714 161.608L97.7304 160.656ZM94.7148 158.179L94.0066 159.501C93.5201 159.241 93.0056 159.026 92.4689 158.864L92.9038 157.428C93.5363 157.62 94.1422 157.872 94.7148 158.179ZM51 157H50C49.6692 157 49.3421 157.016 49.0195 157.047L49.1647 158.54C49.4391 158.514 49.7177 158.5 50 158.5H51V157ZM47.0962 157.428L47.5311 158.864C46.9944 159.026 46.4799 159.241 45.9934 159.501L45.2852 158.179C45.8578 157.872 46.4637 157.62 47.0962 157.428ZM43.656 159.27L44.6082 160.429C44.1776 160.782 43.7824 161.178 43.4286 161.608L42.2696 160.656C42.6854 160.15 43.1499 159.685 43.656 159.27ZM41.179 162.285L42.5013 162.993C42.2407 163.48 42.0263 163.994 41.8637 164.531L40.4281 164.096C40.6197 163.464 40.8723 162.858 41.179 162.285ZM40.0475 166.019L41.5404 166.165C41.5137 166.439 41.5 166.718 41.5 167C41.5 167.282 41.5137 167.561 41.5404 167.835L40.0475 167.981C40.0161 167.658 40 167.331 40 167C40 166.669 40.0161 166.342 40.0475 166.019ZM40.4281 169.904L41.8637 169.469C42.0263 170.006 42.2407 170.52 42.5013 171.007L41.179 171.715C40.8723 171.142 40.6197 170.536 40.4281 169.904ZM42.2696 173.344L43.4286 172.392C43.7824 172.822 44.1776 173.218 44.6082 173.571L43.656 174.73C43.1499 174.315 42.6854 173.85 42.2696 173.344ZM47.0962 176.572L47.5311 175.136C46.9944 174.974 46.4799 174.759 45.9934 174.499L45.2852 175.821C45.8578 176.128 46.4637 176.38 47.0962 176.572ZM53 157V158.5H55V157H53ZM57 157V158.5H59V157H57ZM61 157V158.5H63V157H61ZM65 157V158.5H67V157H65ZM69 157V158.5H71V157H69ZM73 157V158.5H75V157H73ZM77 157V158.5H79V157H77ZM81 157V158.5H83V157H81ZM85 157V158.5H87V157H85ZM89 157V158.5H90C90.2823 158.5 90.5609 158.514 90.8353 158.54L90.9805 157.047C90.6579 157.016 90.3308 157 90 157H89ZM87 177V175.5H85V177H87ZM83 177V175.5H81V177H83ZM79 177V175.5H77V177H79ZM75 177V175.5H73V177H75ZM71 177V175.5H69V177H71ZM67 177V175.5H65V177H67ZM63 177V175.5H61V177H63ZM59 177V175.5H57V177H59ZM55 177V175.5H53V177H55Z" fill="#67778E"/>
<path d="M55.1221 166.907V167.278C55.1221 167.872 55.0415 168.406 54.8804 168.878C54.7192 169.351 54.4919 169.754 54.1982 170.087C53.9046 170.416 53.5537 170.669 53.1455 170.844C52.7409 171.02 52.2915 171.107 51.7974 171.107C51.3068 171.107 50.8574 171.02 50.4492 170.844C50.0446 170.669 49.6937 170.416 49.3965 170.087C49.0993 169.754 48.8683 169.351 48.7036 168.878C48.5425 168.406 48.4619 167.872 48.4619 167.278V166.907C48.4619 166.309 48.5425 165.776 48.7036 165.307C48.8647 164.834 49.0921 164.431 49.3857 164.098C49.6829 163.765 50.0339 163.511 50.4385 163.335C50.8467 163.16 51.2961 163.072 51.7866 163.072C52.2808 163.072 52.7301 163.16 53.1348 163.335C53.543 163.511 53.8939 163.765 54.1875 164.098C54.4847 164.431 54.7139 164.834 54.875 165.307C55.0397 165.776 55.1221 166.309 55.1221 166.907ZM53.4946 167.278V166.896C53.4946 166.481 53.457 166.116 53.3818 165.801C53.3066 165.486 53.1956 165.221 53.0488 165.006C52.902 164.791 52.723 164.63 52.5117 164.522C52.3005 164.411 52.0588 164.356 51.7866 164.356C51.5145 164.356 51.2728 164.411 51.0615 164.522C50.8538 164.63 50.6766 164.791 50.5298 165.006C50.3866 165.221 50.2773 165.486 50.2021 165.801C50.127 166.116 50.0894 166.481 50.0894 166.896V167.278C50.0894 167.69 50.127 168.055 50.2021 168.374C50.2773 168.689 50.3883 168.955 50.5352 169.174C50.682 169.389 50.861 169.552 51.0723 169.663C51.2835 169.774 51.5252 169.829 51.7974 169.829C52.0695 169.829 52.3112 169.774 52.5225 169.663C52.7337 169.552 52.911 169.389 53.0542 169.174C53.1974 168.955 53.3066 168.689 53.3818 168.374C53.457 168.055 53.4946 167.69 53.4946 167.278Z" fill="#67778E"/>
<path d="M60.6446 163.18H62.2505V168.347C62.2505 168.948 62.1216 169.455 61.8638 169.867C61.6096 170.278 61.2569 170.588 60.8057 170.796C60.3581 171.004 59.8425 171.107 59.2588 171.107C58.6752 171.107 58.156 171.004 57.7012 170.796C57.2501 170.588 56.8956 170.278 56.6378 169.867C56.3835 169.455 56.2564 168.948 56.2564 168.347V163.18H57.8677V168.347C57.8677 168.698 57.9232 168.984 58.0342 169.206C58.1452 169.428 58.3046 169.591 58.5123 169.695C58.7235 169.799 58.9724 169.851 59.2588 169.851C59.5525 169.851 59.8013 169.799 60.0054 169.695C60.2131 169.591 60.3707 169.428 60.4781 169.206C60.5891 168.984 60.6446 168.698 60.6446 168.347V163.18Z" fill="#67778E"/>
<path d="M67.1178 163.18V171H65.5118V163.18H67.1178ZM69.524 163.18V164.442H63.1432V163.18H69.524Z" fill="#67778E"/>
<path d="M73.5319 168.212H71.5392V166.956H73.5319C73.8398 166.956 74.0905 166.905 74.2839 166.805C74.4772 166.701 74.6187 166.558 74.7082 166.375C74.7977 166.193 74.8424 165.987 74.8424 165.758C74.8424 165.525 74.7977 165.308 74.7082 165.108C74.6187 164.907 74.4772 164.746 74.2839 164.625C74.0905 164.503 73.8398 164.442 73.5319 164.442H72.0978V171H70.4865V163.18H73.5319C74.1442 163.18 74.6688 163.291 75.1056 163.513C75.5461 163.731 75.8827 164.034 76.1154 164.42C76.3481 164.807 76.4645 165.249 76.4645 165.747C76.4645 166.252 76.3481 166.689 76.1154 167.058C75.8827 167.426 75.5461 167.711 75.1056 167.912C74.6688 168.112 74.1442 168.212 73.5319 168.212Z" fill="#67778E"/>
<path d="M81.9387 163.18H83.5447V168.347C83.5447 168.948 83.4157 169.455 83.1579 169.867C82.9037 170.278 82.551 170.588 82.0998 170.796C81.6522 171.004 81.1366 171.107 80.553 171.107C79.9693 171.107 79.4501 171.004 78.9953 170.796C78.5442 170.588 78.1897 170.278 77.9319 169.867C77.6776 169.455 77.5505 168.948 77.5505 168.347V163.18H79.1618V168.347C79.1618 168.698 79.2173 168.984 79.3283 169.206C79.4394 169.428 79.5987 169.591 79.8064 169.695C80.0176 169.799 80.2665 169.851 80.553 169.851C80.8466 169.851 81.0954 169.799 81.2995 169.695C81.5072 169.591 81.6648 169.428 81.7722 169.206C81.8832 168.984 81.9387 168.698 81.9387 168.347V163.18Z" fill="#67778E"/>
<path d="M88.4119 163.18V171H86.8059V163.18H88.4119ZM90.8181 163.18V164.442H84.4373V163.18H90.8181Z" fill="#67778E"/>
<defs>
<filter id="filter0_dd_24068_48873" x="0.984375" y="0.556641" width="62.8926" height="65.9478" filterUnits="userSpaceOnUse" color-interpolation-filters="sRGB">
<feFlood flood-opacity="0" result="BackgroundImageFix"/>
<feColorMatrix in="SourceAlpha" type="matrix" values="0 0 0 0 0 0 0 0 0 0 0 0 0 0 0 0 0 0 127 0" result="hardAlpha"/>
<feMorphology radius="1" operator="erode" in="SourceAlpha" result="effect1_dropShadow_24068_48873"/>
<feOffset dy="2"/>
<feGaussianBlur stdDeviation="4"/>
<feColorMatrix type="matrix" values="0 0 0 0 0.105882 0 0 0 0 0.141176 0 0 0 0 0.172549 0 0 0 0.08 0"/>
<feBlend mode="normal" in2="BackgroundImageFix" result="effect1_dropShadow_24068_48873"/>
<feColorMatrix in="SourceAlpha" type="matrix" values="0 0 0 0 0 0 0 0 0 0 0 0 0 0 0 0 0 0 127 0" result="hardAlpha"/>
<feMorphology radius="1" operator="erode" in="SourceAlpha" result="effect2_dropShadow_24068_48873"/>
<feOffset dy="2"/>
<feGaussianBlur stdDeviation="1"/>
<feComposite in2="hardAlpha" operator="out"/>
<feColorMatrix type="matrix" values="0 0 0 0 0.105882 0 0 0 0 0.141176 0 0 0 0 0.172549 0 0 0 0.04 0"/>
<feBlend mode="normal" in2="effect1_dropShadow_24068_48873" result="effect2_dropShadow_24068_48873"/>
<feBlend mode="normal" in="SourceGraphic" in2="effect2_dropShadow_24068_48873" result="shape"/>
</filter>
<filter id="filter1_dd_24068_48873" x="122.9" y="0.556641" width="62.8926" height="62.8926" filterUnits="userSpaceOnUse" color-interpolation-filters="sRGB">
<feFlood flood-opacity="0" result="BackgroundImageFix"/>
<feColorMatrix in="SourceAlpha" type="matrix" values="0 0 0 0 0 0 0 0 0 0 0 0 0 0 0 0 0 0 127 0" result="hardAlpha"/>
<feMorphology radius="1" operator="erode" in="SourceAlpha" result="effect1_dropShadow_24068_48873"/>
<feOffset dy="2"/>
<feGaussianBlur stdDeviation="4"/>
<feColorMatrix type="matrix" values="0 0 0 0 0.105882 0 0 0 0 0.141176 0 0 0 0 0.172549 0 0 0 0.08 0"/>
<feBlend mode="normal" in2="BackgroundImageFix" result="effect1_dropShadow_24068_48873"/>
<feColorMatrix in="SourceAlpha" type="matrix" values="0 0 0 0 0 0 0 0 0 0 0 0 0 0 0 0 0 0 127 0" result="hardAlpha"/>
<feMorphology radius="1" operator="erode" in="SourceAlpha" result="effect2_dropShadow_24068_48873"/>
<feOffset dy="2"/>
<feGaussianBlur stdDeviation="1"/>
<feComposite in2="hardAlpha" operator="out"/>
<feColorMatrix type="matrix" values="0 0 0 0 0.105882 0 0 0 0 0.141176 0 0 0 0 0.172549 0 0 0 0.04 0"/>
<feBlend mode="normal" in2="effect1_dropShadow_24068_48873" result="effect2_dropShadow_24068_48873"/>
<feBlend mode="normal" in="SourceGraphic" in2="effect2_dropShadow_24068_48873" result="shape"/>
</filter>
<filter id="filter2_dd_24068_48873" x="0.984375" y="159.853" width="66.0547" height="62.8926" filterUnits="userSpaceOnUse" color-interpolation-filters="sRGB">
<feFlood flood-opacity="0" result="BackgroundImageFix"/>
<feColorMatrix in="SourceAlpha" type="matrix" values="0 0 0 0 0 0 0 0 0 0 0 0 0 0 0 0 0 0 127 0" result="hardAlpha"/>
<feMorphology radius="1" operator="erode" in="SourceAlpha" result="effect1_dropShadow_24068_48873"/>
<feOffset dy="2"/>
<feGaussianBlur stdDeviation="4"/>
<feColorMatrix type="matrix" values="0 0 0 0 0.105882 0 0 0 0 0.141176 0 0 0 0 0.172549 0 0 0 0.08 0"/>
<feBlend mode="normal" in2="BackgroundImageFix" result="effect1_dropShadow_24068_48873"/>
<feColorMatrix in="SourceAlpha" type="matrix" values="0 0 0 0 0 0 0 0 0 0 0 0 0 0 0 0 0 0 127 0" result="hardAlpha"/>
<feMorphology radius="1" operator="erode" in="SourceAlpha" result="effect2_dropShadow_24068_48873"/>
<feOffset dy="2"/>
<feGaussianBlur stdDeviation="1"/>
<feComposite in2="hardAlpha" operator="out"/>
<feColorMatrix type="matrix" values="0 0 0 0 0.105882 0 0 0 0 0.141176 0 0 0 0 0.172549 0 0 0 0.04 0"/>
<feBlend mode="normal" in2="effect1_dropShadow_24068_48873" result="effect2_dropShadow_24068_48873"/>
<feBlend mode="normal" in="SourceGraphic" in2="effect2_dropShadow_24068_48873" result="shape"/>
</filter>
<filter id="filter3_dd_24068_48873" x="122.9" y="156.797" width="62.8926" height="65.9482" filterUnits="userSpaceOnUse" color-interpolation-filters="sRGB">
<feFlood flood-opacity="0" result="BackgroundImageFix"/>
<feColorMatrix in="SourceAlpha" type="matrix" values="0 0 0 0 0 0 0 0 0 0 0 0 0 0 0 0 0 0 127 0" result="hardAlpha"/>
<feMorphology radius="1" operator="erode" in="SourceAlpha" result="effect1_dropShadow_24068_48873"/>
<feOffset dy="2"/>
<feGaussianBlur stdDeviation="4"/>
<feColorMatrix type="matrix" values="0 0 0 0 0.105882 0 0 0 0 0.141176 0 0 0 0 0.172549 0 0 0 0.08 0"/>
<feBlend mode="normal" in2="BackgroundImageFix" result="effect1_dropShadow_24068_48873"/>
<feColorMatrix in="SourceAlpha" type="matrix" values="0 0 0 0 0 0 0 0 0 0 0 0 0 0 0 0 0 0 127 0" result="hardAlpha"/>
<feMorphology radius="1" operator="erode" in="SourceAlpha" result="effect2_dropShadow_24068_48873"/>
<feOffset dy="2"/>
<feGaussianBlur stdDeviation="1"/>
<feComposite in2="hardAlpha" operator="out"/>
<feColorMatrix type="matrix" values="0 0 0 0 0.105882 0 0 0 0 0.141176 0 0 0 0 0.172549 0 0 0 0.04 0"/>
<feBlend mode="normal" in2="effect1_dropShadow_24068_48873" result="effect2_dropShadow_24068_48873"/>
<feBlend mode="normal" in="SourceGraphic" in2="effect2_dropShadow_24068_48873" result="shape"/>
</filter>
<linearGradient id="paint0_linear_24068_48873" x1="164.555" y1="181.151" x2="164.555" y2="194.335" gradientUnits="userSpaceOnUse">
<stop offset="0.25" stop-color="#7366FF"/>
<stop offset="1" stop-color="#5219FF"/>
</linearGradient>
<linearGradient id="paint1_linear_24068_48873" x1="153.139" y1="198.408" x2="167.251" y2="198.408" gradientUnits="userSpaceOnUse">
<stop stop-color="#7366FF"/>
<stop offset="1" stop-color="#A299FF"/>
</linearGradient>
<clipPath id="clip0_24068_48873">
<rect width="36.6693" height="36.6693" fill="white" transform="translate(14.0957 11.668)"/>
</clipPath>
<clipPath id="clip1_24068_48873">
<rect width="36.6693" height="36.6693" fill="white" transform="translate(136.012 11.668)"/>
</clipPath>
</defs>
</svg>
