<svg width="186" height="223" viewBox="0 0 186 223" fill="none" xmlns="http://www.w3.org/2000/svg">
<g filter="url(#filter0_dd_23900_152291)">
<path d="M25.1758 54.4493C25.1758 52.7617 26.5439 51.3936 28.2316 51.3936H34.3431C36.0308 51.3936 37.3989 52.7617 37.3989 54.4493C37.3989 56.137 36.0308 57.5051 34.3431 57.5051H28.2316C26.5439 57.5051 25.1758 56.137 25.1758 54.4493Z" fill="#67778E"/>
<path d="M7.66908 11.6682C7.66908 8.50384 10.2343 5.93861 13.3987 5.93861H50.0679C53.2323 5.93861 55.7975 8.50383 55.7975 11.6682V48.3375C55.7975 51.5018 53.2323 54.0671 50.068 54.0671H13.3987C10.2343 54.0671 7.66908 51.5018 7.66908 48.3375V11.6682Z" fill="white"/>
<path d="M7.66908 11.6682C7.66908 8.50384 10.2343 5.93861 13.3987 5.93861H50.0679C53.2323 5.93861 55.7975 8.50383 55.7975 11.6682V48.3375C55.7975 51.5018 53.2323 54.0671 50.068 54.0671H13.3987C10.2343 54.0671 7.66908 51.5018 7.66908 48.3375V11.6682Z" stroke="#C6D3E7" stroke-width="0.763944"/>
<g clip-path="url(#clip0_23900_152291)">
<path d="M31.61 12.7072C31.2948 12.723 30.986 12.8012 30.7016 12.937L18.3063 18.8596C17.9855 19.0129 17.7036 19.2358 17.4816 19.5119C17.2595 19.788 17.1031 20.1102 17.0238 20.4545L13.9658 33.7581C13.8952 34.0647 13.8873 34.3821 13.9426 34.6917C13.9978 35.0013 14.1152 35.2968 14.2876 35.5606C14.3294 35.6251 14.3744 35.6875 14.4224 35.7477L23.0019 46.415C23.224 46.691 23.5059 46.9139 23.8267 47.067C24.1476 47.2202 24.499 47.2997 24.8551 47.2996L38.6138 47.2965C38.9697 47.2967 39.3211 47.2175 39.6419 47.0646C39.9627 46.9118 40.2447 46.6892 40.467 46.4135L49.0434 35.7445C49.2656 35.4683 49.4221 35.146 49.5014 34.8016C49.5807 34.4571 49.5807 34.0994 49.5014 33.7549L46.4388 20.4513C46.3595 20.107 46.2031 19.7848 45.981 19.5087C45.759 19.2326 45.4771 19.0097 45.1563 18.8565L32.7593 12.937C32.4017 12.7661 32.0065 12.6871 31.61 12.7072Z" fill="#326CE5"/>
<path d="M31.7327 17.2354C31.3229 17.2354 30.9907 17.6045 30.9907 18.0597C30.9907 18.0667 30.9922 18.0734 30.9923 18.0803C30.9917 18.1422 30.9887 18.2167 30.9907 18.2705C31.0005 18.5331 31.0577 18.7341 31.0922 18.976C31.1546 19.4938 31.2068 19.923 31.1746 20.3219C31.1432 20.4723 31.0324 20.6099 30.9337 20.7055L30.9162 21.0194C30.4649 21.0566 30.0167 21.1254 29.575 21.2255C27.6487 21.6629 25.99 22.6552 24.7273 23.995C24.6371 23.9328 24.5478 23.8694 24.4594 23.8048C24.3269 23.8227 24.193 23.8636 24.0186 23.7619C23.6866 23.5385 23.3842 23.23 23.0183 22.8584C22.8507 22.6806 22.7293 22.5113 22.53 22.34C22.4848 22.3011 22.4158 22.2484 22.3652 22.2084C22.2094 22.0842 22.0258 22.0195 21.8484 22.0134C21.6203 22.0056 21.4008 22.0948 21.2571 22.275C21.0016 22.5953 21.0834 23.085 21.4394 23.3688C21.443 23.3717 21.4468 23.3739 21.4505 23.3768C21.4994 23.4164 21.5593 23.4672 21.6042 23.5004C21.8156 23.6565 22.0087 23.7364 22.2193 23.8603C22.6631 24.1343 23.0309 24.3615 23.3227 24.6355C23.4366 24.7569 23.4566 24.9709 23.4717 25.0635L23.7095 25.2759C22.4366 27.1916 21.8474 29.5579 22.1956 31.969L21.8849 32.0593C21.8029 32.1651 21.6872 32.3315 21.5662 32.3812C21.1845 32.5014 20.7548 32.5455 20.2362 32.5999C19.9927 32.6202 19.7825 32.6081 19.5244 32.657C19.4675 32.6677 19.3884 32.6884 19.3262 32.7029L19.3199 32.7046C19.3165 32.7053 19.312 32.707 19.3088 32.7077C18.8715 32.8134 18.5906 33.2153 18.681 33.6113C18.7714 34.0074 19.1986 34.2483 19.6385 34.1535C19.6417 34.1528 19.6463 34.1526 19.6496 34.1519C19.6546 34.1508 19.6589 34.1484 19.6639 34.1472C19.7252 34.1337 19.802 34.1187 19.8557 34.1044C20.1095 34.0364 20.2933 33.9366 20.5215 33.8491C21.0124 33.6731 21.419 33.526 21.8151 33.4686C21.9805 33.4557 22.1549 33.5707 22.2416 33.6193L22.5649 33.5638C23.3091 35.8711 24.8688 37.736 26.8436 38.9062L26.7089 39.2296C26.7575 39.3551 26.811 39.525 26.7748 39.6491C26.6308 40.0225 26.3842 40.4167 26.1033 40.8561C25.9673 41.0591 25.8281 41.2167 25.7054 41.449C25.676 41.5046 25.6386 41.59 25.6103 41.6487C25.4196 42.0567 25.5594 42.5266 25.9257 42.703C26.2943 42.8804 26.7518 42.6932 26.9498 42.2844C26.9501 42.2838 26.9511 42.2834 26.9514 42.2828C26.9516 42.2824 26.9512 42.2817 26.9514 42.2813C26.9796 42.2233 27.0196 42.1471 27.0434 42.0926C27.1485 41.8518 27.1835 41.6454 27.2574 41.4125C27.4537 40.9194 27.5615 40.402 27.8317 40.0797C27.9058 39.9914 28.0264 39.9574 28.1515 39.9239L28.3195 39.6195C30.0411 40.2804 31.9683 40.4577 33.8934 40.0207C34.326 39.9223 34.7514 39.7941 35.1664 39.637C35.2135 39.7208 35.3013 39.8818 35.3249 39.9223C35.452 39.9637 35.5907 39.9851 35.7038 40.1522C35.9059 40.4977 36.0442 40.9063 36.2126 41.3998C36.2866 41.6327 36.3231 41.8391 36.4282 42.0799C36.4522 42.1348 36.492 42.2121 36.5202 42.2701C36.7178 42.6803 37.1767 42.8681 37.5459 42.6903C37.9121 42.5138 38.0521 42.044 37.8613 41.636C37.833 41.5773 37.794 41.4919 37.7646 41.4363C37.6419 41.204 37.5027 41.048 37.3667 40.845C37.0858 40.4056 36.8528 40.0405 36.7088 39.6671C36.6486 39.4745 36.719 39.3547 36.7659 39.2296C36.7378 39.1974 36.6777 39.0155 36.6423 38.93C38.6946 37.7181 40.2084 35.7837 40.9193 33.5495C41.0154 33.5646 41.1822 33.5942 41.2364 33.605C41.348 33.5315 41.4506 33.4354 41.6518 33.4512C42.0479 33.5085 42.4544 33.6557 42.9454 33.8317C43.1735 33.9191 43.3573 34.0206 43.6112 34.0885C43.6648 34.1029 43.7416 34.1163 43.803 34.1297C43.8079 34.1309 43.8123 34.1334 43.8172 34.1345C43.8206 34.1352 43.8251 34.1353 43.8283 34.1361C44.2683 34.2308 44.6955 33.99 44.7858 33.5939C44.8761 33.1979 44.5954 32.7958 44.1581 32.6903C44.0945 32.6758 44.0043 32.6513 43.9425 32.6396C43.6843 32.5907 43.4742 32.6027 43.2307 32.5825C42.712 32.5281 42.2824 32.4839 41.9006 32.3637C41.745 32.3034 41.6343 32.1181 41.5804 32.0419L41.2808 31.9547C41.4361 30.8308 41.3943 29.6612 41.1254 28.4909C40.8541 27.3097 40.3747 26.2294 39.7351 25.2775C39.812 25.2076 39.9572 25.0791 39.9983 25.0413C40.0103 24.9082 40 24.7686 40.1378 24.6212C40.4295 24.3473 40.7974 24.12 41.2412 23.846C41.4518 23.7221 41.6465 23.6422 41.8578 23.4861C41.9056 23.4508 41.9709 23.3949 42.0211 23.3545C42.377 23.0707 42.4589 22.581 42.2034 22.2607C41.9479 21.9404 41.4528 21.9102 41.0969 22.1941C41.0463 22.2342 40.9775 22.2866 40.932 22.3257C40.7329 22.4971 40.6098 22.6663 40.4422 22.8441C40.0763 23.2157 39.7739 23.5258 39.4418 23.7493C39.298 23.833 39.0873 23.8041 38.9916 23.7984L38.7095 23.9998C37.1003 22.3125 34.9096 21.2338 32.5507 21.0242C32.5441 20.9253 32.5354 20.7467 32.5332 20.6928C32.4366 20.6005 32.3199 20.5216 32.2907 20.3219C32.2584 19.923 32.3123 19.4938 32.3747 18.976C32.4091 18.7341 32.4663 18.5332 32.4761 18.2705C32.4784 18.2109 32.4748 18.1242 32.4746 18.0597C32.4745 17.6045 32.1424 17.2354 31.7327 17.2354ZM30.8037 22.99L30.5833 26.8818L30.5675 26.8897C30.5526 27.2379 30.2661 27.5159 29.9143 27.5159C29.7702 27.5159 29.6372 27.4696 29.5291 27.3907L29.5227 27.3938L26.3316 25.1316C27.3123 24.1673 28.5669 23.4545 30.0126 23.1263C30.2738 23.0673 30.5378 23.0218 30.8037 22.99ZM32.6632 22.99C34.3511 23.1975 35.9121 23.9619 37.1083 25.1333L33.9377 27.3812L33.9267 27.3764C33.6452 27.5819 33.2487 27.531 33.0294 27.256C32.9427 27.1481 32.8927 27.0153 32.8867 26.877L32.8835 26.8755L32.6632 22.99ZM25.1743 26.5854L28.0881 29.1916L28.0849 29.2074C28.3479 29.436 28.3867 29.8328 28.1673 30.1078C28.0808 30.2165 27.962 30.2948 27.8281 30.3314L27.8249 30.344L24.09 31.422C23.8999 29.6838 24.3096 27.9941 25.1743 26.5854ZM38.2704 26.5869C38.7033 27.2886 39.0311 28.0724 39.2263 28.9221C39.4191 29.7615 39.4675 30.5995 39.388 31.4094L35.634 30.3282L35.6308 30.3123C35.2947 30.2205 35.0881 29.8786 35.1664 29.5356C35.1968 29.4007 35.2696 29.279 35.374 29.1884L35.3725 29.1805L38.2704 26.5869V26.5869ZM31.135 29.3929H32.3287L33.0706 30.3203L32.8043 31.4775L31.7327 31.9927L30.6578 31.476L30.3915 30.3187L31.135 29.3929ZM34.9619 32.5666C35.0126 32.5641 35.0631 32.5687 35.1125 32.5777L35.1188 32.5698L38.9821 33.2229C38.4167 34.8114 37.3348 36.1875 35.8892 37.1085L34.3896 33.4861L34.3943 33.4798C34.2566 33.1597 34.3944 32.7843 34.7114 32.6316C34.7925 32.5926 34.8773 32.5709 34.9619 32.5666ZM28.4733 32.5825C28.7681 32.5866 29.0325 32.7913 29.1011 33.0914C29.1331 33.2319 29.1175 33.371 29.0646 33.494L29.0757 33.5083L27.5919 37.0942C26.2046 36.204 25.0996 34.8711 24.5085 33.2356L28.3385 32.5857L28.3449 32.5936C28.3877 32.5857 28.4312 32.5819 28.4733 32.5825ZM31.7088 34.1535C31.8146 34.1499 31.9197 34.1721 32.0148 34.2185C32.1447 34.281 32.245 34.3795 32.3081 34.4975H32.3224L34.2104 37.909C33.9626 37.9919 33.7107 38.0622 33.4558 38.1199C32.0119 38.4478 30.5725 38.3484 29.2692 37.9043L31.1524 34.4991H31.1556C31.2096 34.3982 31.2891 34.3132 31.3861 34.2525C31.4832 34.1919 31.5945 34.1577 31.7089 34.1535L31.7088 34.1535Z" fill="white" stroke="white" stroke-width="0.14494"/>
</g>
</g>
<g filter="url(#filter1_dd_23900_152291)">
<path d="M129.585 11.6682C129.585 8.50384 132.15 5.93861 135.315 5.93861H171.984C175.148 5.93861 177.714 8.50383 177.714 11.6682V48.3375C177.714 51.5018 175.148 54.0671 171.984 54.0671H135.315C132.15 54.0671 129.585 51.5018 129.585 48.3375V11.6682Z" fill="white"/>
<path d="M129.585 11.6682C129.585 8.50384 132.15 5.93861 135.315 5.93861H171.984C175.148 5.93861 177.714 8.50383 177.714 11.6682V48.3375C177.714 51.5018 175.148 54.0671 171.984 54.0671H135.315C132.15 54.0671 129.585 51.5018 129.585 48.3375V11.6682Z" stroke="#C6D3E7" stroke-width="0.763944"/>
<g clip-path="url(#clip1_23900_152291)">
<path d="M153.526 12.7072C153.211 12.723 152.902 12.8012 152.618 12.937L140.222 18.8596C139.901 19.0129 139.62 19.2358 139.398 19.5119C139.176 19.788 139.019 20.1102 138.94 20.4545L135.882 33.7581C135.811 34.0647 135.803 34.3821 135.859 34.6917C135.914 35.0013 136.031 35.2968 136.204 35.5606C136.245 35.6251 136.29 35.6875 136.338 35.7477L144.918 46.415C145.14 46.691 145.422 46.9139 145.743 47.067C146.064 47.2202 146.415 47.2997 146.771 47.2996L160.53 47.2965C160.886 47.2967 161.237 47.2175 161.558 47.0646C161.879 46.9118 162.161 46.6892 162.383 46.4135L170.959 35.7445C171.182 35.4683 171.338 35.146 171.417 34.8016C171.497 34.4571 171.497 34.0994 171.417 33.7549L168.355 20.4513C168.276 20.107 168.119 19.7848 167.897 19.5087C167.675 19.2326 167.393 19.0097 167.072 18.8565L154.675 12.937C154.318 12.7661 153.922 12.6871 153.526 12.7072Z" fill="#326CE5"/>
<path d="M153.649 17.2354C153.239 17.2354 152.907 17.6045 152.907 18.0597C152.907 18.0667 152.908 18.0734 152.908 18.0803C152.908 18.1422 152.905 18.2167 152.907 18.2705C152.916 18.5331 152.974 18.7341 153.008 18.976C153.071 19.4938 153.123 19.923 153.091 20.3219C153.059 20.4723 152.948 20.6099 152.85 20.7055L152.832 21.0194C152.381 21.0566 151.933 21.1254 151.491 21.2255C149.565 21.6629 147.906 22.6552 146.643 23.995C146.553 23.9328 146.464 23.8694 146.375 23.8048C146.243 23.8227 146.109 23.8636 145.935 23.7619C145.603 23.5385 145.3 23.23 144.934 22.8584C144.767 22.6806 144.645 22.5113 144.446 22.34C144.401 22.3011 144.332 22.2484 144.281 22.2084C144.125 22.0842 143.942 22.0195 143.764 22.0134C143.536 22.0056 143.317 22.0948 143.173 22.275C142.918 22.5953 142.999 23.085 143.355 23.3688C143.359 23.3717 143.363 23.3739 143.366 23.3768C143.415 23.4164 143.475 23.4672 143.52 23.5004C143.732 23.6565 143.925 23.7364 144.135 23.8603C144.579 24.1343 144.947 24.3615 145.239 24.6355C145.353 24.7569 145.373 24.9709 145.388 25.0635L145.626 25.2759C144.353 27.1916 143.763 29.5579 144.112 31.969L143.801 32.0593C143.719 32.1651 143.603 32.3315 143.482 32.3812C143.1 32.5014 142.671 32.5455 142.152 32.5999C141.909 32.6202 141.699 32.6081 141.44 32.657C141.384 32.6677 141.304 32.6884 141.242 32.7029L141.236 32.7046C141.232 32.7053 141.228 32.707 141.225 32.7077C140.787 32.8134 140.507 33.2153 140.597 33.6113C140.687 34.0074 141.115 34.2483 141.555 34.1535C141.558 34.1528 141.562 34.1526 141.566 34.1519C141.571 34.1508 141.575 34.1484 141.58 34.1472C141.641 34.1337 141.718 34.1187 141.772 34.1044C142.026 34.0364 142.209 33.9366 142.438 33.8491C142.928 33.6731 143.335 33.526 143.731 33.4686C143.897 33.4557 144.071 33.5707 144.158 33.6193L144.481 33.5638C145.225 35.8711 146.785 37.736 148.76 38.9062L148.625 39.2296C148.673 39.3551 148.727 39.525 148.691 39.6491C148.547 40.0225 148.3 40.4167 148.019 40.8561C147.883 41.0591 147.744 41.2167 147.621 41.449C147.592 41.5046 147.555 41.59 147.526 41.6487C147.336 42.0567 147.475 42.5266 147.842 42.703C148.21 42.8804 148.668 42.6932 148.866 42.2844C148.866 42.2838 148.867 42.2834 148.867 42.2828C148.868 42.2824 148.867 42.2817 148.867 42.2813C148.896 42.2233 148.936 42.1471 148.959 42.0926C149.064 41.8518 149.099 41.6454 149.173 41.4125C149.37 40.9194 149.478 40.402 149.748 40.0797C149.822 39.9914 149.942 39.9574 150.068 39.9239L150.236 39.6195C151.957 40.2804 153.884 40.4577 155.809 40.0207C156.242 39.9223 156.667 39.7941 157.082 39.637C157.13 39.7208 157.217 39.8818 157.241 39.9223C157.368 39.9637 157.507 39.9851 157.62 40.1522C157.822 40.4977 157.96 40.9063 158.129 41.3998C158.203 41.6327 158.239 41.8391 158.344 42.0799C158.368 42.1348 158.408 42.2121 158.436 42.2701C158.634 42.6803 159.093 42.8681 159.462 42.6903C159.828 42.5138 159.968 42.044 159.777 41.636C159.749 41.5773 159.71 41.4919 159.681 41.4363C159.558 41.204 159.419 41.048 159.283 40.845C159.002 40.4056 158.769 40.0405 158.625 39.6671C158.565 39.4745 158.635 39.3547 158.682 39.2296C158.654 39.1974 158.594 39.0155 158.558 38.93C160.611 37.7181 162.124 35.7837 162.835 33.5495C162.931 33.5646 163.098 33.5942 163.152 33.605C163.264 33.5315 163.367 33.4354 163.568 33.4512C163.964 33.5085 164.37 33.6557 164.861 33.8317C165.09 33.9191 165.273 34.0206 165.527 34.0885C165.581 34.1029 165.658 34.1163 165.719 34.1297C165.724 34.1309 165.728 34.1334 165.733 34.1345C165.737 34.1352 165.741 34.1353 165.744 34.1361C166.184 34.2308 166.612 33.99 166.702 33.5939C166.792 33.1979 166.511 32.7958 166.074 32.6903C166.01 32.6758 165.92 32.6513 165.858 32.6396C165.6 32.5907 165.39 32.6027 165.147 32.5825C164.628 32.5281 164.198 32.4839 163.817 32.3637C163.661 32.3034 163.55 32.1181 163.496 32.0419L163.197 31.9547C163.352 30.8308 163.31 29.6612 163.041 28.4909C162.77 27.3097 162.291 26.2294 161.651 25.2775C161.728 25.2076 161.873 25.0791 161.914 25.0413C161.926 24.9082 161.916 24.7686 162.054 24.6212C162.346 24.3473 162.713 24.12 163.157 23.846C163.368 23.7221 163.562 23.6422 163.774 23.4861C163.822 23.4508 163.887 23.3949 163.937 23.3545C164.293 23.0707 164.375 22.581 164.119 22.2607C163.864 21.9404 163.369 21.9102 163.013 22.1941C162.962 22.2342 162.894 22.2866 162.848 22.3257C162.649 22.4971 162.526 22.6663 162.358 22.8441C161.992 23.2157 161.69 23.5258 161.358 23.7493C161.214 23.833 161.003 23.8041 160.908 23.7984L160.625 23.9998C159.016 22.3125 156.826 21.2338 154.467 21.0242C154.46 20.9253 154.451 20.7467 154.449 20.6928C154.353 20.6005 154.236 20.5216 154.207 20.3219C154.174 19.923 154.228 19.4938 154.291 18.976C154.325 18.7341 154.382 18.5332 154.392 18.2705C154.394 18.2109 154.391 18.1242 154.391 18.0597C154.391 17.6045 154.058 17.2354 153.649 17.2354ZM152.72 22.99L152.499 26.8818L152.483 26.8897C152.469 27.2379 152.182 27.5159 151.83 27.5159C151.686 27.5159 151.553 27.4696 151.445 27.3907L151.439 27.3938L148.248 25.1316C149.228 24.1673 150.483 23.4545 151.929 23.1263C152.19 23.0673 152.454 23.0218 152.72 22.99ZM154.579 22.99C156.267 23.1975 157.828 23.9619 159.024 25.1333L155.854 27.3812L155.843 27.3764C155.561 27.5819 155.165 27.531 154.945 27.256C154.859 27.1481 154.809 27.0153 154.803 26.877L154.8 26.8755L154.579 22.99ZM147.09 26.5854L150.004 29.1916L150.001 29.2074C150.264 29.436 150.303 29.8328 150.083 30.1078C149.997 30.2165 149.878 30.2948 149.744 30.3314L149.741 30.344L146.006 31.422C145.816 29.6838 146.226 27.9941 147.09 26.5854ZM160.186 26.5869C160.619 27.2886 160.947 28.0724 161.142 28.9221C161.335 29.7615 161.383 30.5995 161.304 31.4094L157.55 30.3282L157.547 30.3123C157.211 30.2205 157.004 29.8786 157.082 29.5356C157.113 29.4007 157.186 29.279 157.29 29.1884L157.288 29.1805L160.186 26.5869V26.5869ZM153.051 29.3929H154.245L154.987 30.3203L154.72 31.4775L153.649 31.9927L152.574 31.476L152.307 30.3187L153.051 29.3929ZM156.878 32.5666C156.929 32.5641 156.979 32.5687 157.028 32.5777L157.035 32.5698L160.898 33.2229C160.333 34.8114 159.251 36.1875 157.805 37.1085L156.306 33.4861L156.31 33.4798C156.173 33.1597 156.31 32.7843 156.627 32.6316C156.709 32.5926 156.793 32.5709 156.878 32.5666ZM150.389 32.5825C150.684 32.5866 150.949 32.7913 151.017 33.0914C151.049 33.2319 151.034 33.371 150.981 33.494L150.992 33.5083L149.508 37.0942C148.121 36.204 147.016 34.8711 146.424 33.2356L150.255 32.5857L150.261 32.5936C150.304 32.5857 150.347 32.5819 150.389 32.5825ZM153.625 34.1535C153.731 34.1499 153.836 34.1721 153.931 34.2185C154.061 34.281 154.161 34.3795 154.224 34.4975H154.238L156.126 37.909C155.879 37.9919 155.627 38.0622 155.372 38.1199C153.928 38.4478 152.488 38.3484 151.185 37.9043L153.068 34.4991H153.072C153.126 34.3982 153.205 34.3132 153.302 34.2525C153.399 34.1919 153.51 34.1577 153.625 34.1535L153.625 34.1535Z" fill="white" stroke="white" stroke-width="0.14494"/>
</g>
</g>
<g filter="url(#filter2_dd_23900_152291)">
<path d="M56.286 182.741C57.9737 182.741 59.3418 184.109 59.3418 185.797L59.3418 191.909C59.3418 193.596 57.9737 194.964 56.286 194.964C54.5984 194.964 53.2302 193.596 53.2302 191.909L53.2302 185.797C53.2302 184.109 54.5984 182.741 56.286 182.741Z" fill="#67778E"/>
<path d="M7.66908 170.964C7.66908 167.8 10.2343 165.235 13.3987 165.235H50.0679C53.2323 165.235 55.7975 167.8 55.7975 170.964V207.633C55.7975 210.798 53.2323 213.363 50.068 213.363H13.3987C10.2343 213.363 7.66908 210.798 7.66908 207.633V170.964Z" fill="white"/>
<path d="M7.66908 170.964C7.66908 167.8 10.2343 165.235 13.3987 165.235H50.0679C53.2323 165.235 55.7975 167.8 55.7975 170.964V207.633C55.7975 210.798 53.2323 213.363 50.068 213.363H13.3987C10.2343 213.363 7.66908 210.798 7.66908 207.633V170.964Z" stroke="#C6D3E7" stroke-width="0.763944"/>
<path d="M37.4679 172.05C37.2619 171.844 36.9826 171.729 36.6913 171.729H21.1314C20.5249 171.729 20.0332 172.22 20.0332 172.827V205.772C20.0332 206.378 20.5249 206.87 21.1314 206.87H43.0279C43.6344 206.87 44.1261 206.378 44.1261 205.772V179.163C44.1261 178.872 44.0104 178.593 43.8044 178.387L37.4679 172.05Z" fill="#E2E9F3"/>
<path d="M40.4129 182.71H23.8183C23.5487 182.71 23.3301 183.052 23.3301 183.474C23.3301 183.896 23.5487 184.238 23.8183 184.238H40.4129C40.6825 184.238 40.9011 183.896 40.9011 183.474C40.9011 183.052 40.6825 182.71 40.4129 182.71Z" fill="#847AE6"/>
<path d="M40.4134 187.532H23.8183C23.6888 187.532 23.5646 187.451 23.4731 187.308C23.3815 187.165 23.3301 186.97 23.3301 186.768C23.3301 186.565 23.3815 186.371 23.4731 186.228C23.5646 186.084 23.6888 186.004 23.8183 186.004H40.4134C40.5428 186.004 40.6668 186.085 40.7583 186.228C40.8497 186.371 40.9011 186.565 40.9011 186.768C40.9011 186.97 40.8497 187.164 40.7583 187.308C40.6668 187.451 40.5428 187.532 40.4134 187.532Z" fill="#847AE6"/>
<path d="M40.4134 190.827H23.8183C23.6889 190.827 23.5648 190.746 23.4733 190.603C23.3817 190.46 23.3302 190.266 23.3301 190.063C23.3301 189.86 23.3815 189.666 23.4731 189.523C23.5646 189.379 23.6888 189.299 23.8183 189.299H40.4134C40.5428 189.299 40.6668 189.38 40.7583 189.523C40.8497 189.666 40.9011 189.861 40.9011 190.063C40.9011 190.266 40.8497 190.46 40.7582 190.603C40.6668 190.746 40.5428 190.827 40.4134 190.827Z" fill="#847AE6"/>
<path d="M40.4134 194.121H23.8183C23.6888 194.121 23.5646 194.04 23.4731 193.897C23.3815 193.753 23.3301 193.559 23.3301 193.356C23.3302 193.154 23.3817 192.959 23.4733 192.816C23.5648 192.673 23.6889 192.593 23.8183 192.593H40.4134C40.5428 192.593 40.6668 192.673 40.7582 192.816C40.8497 192.96 40.9011 193.154 40.9011 193.356C40.9011 193.559 40.8497 193.753 40.7583 193.896C40.6668 194.04 40.5428 194.12 40.4134 194.121Z" fill="#847AE6"/>
<path d="M37.1445 178.708H44.1244L37.1445 171.729V178.708Z" fill="#5B50D6"/>
<path d="M44.1244 178.708H37.1445L44.1244 185.688V178.708Z" fill="#D2DEEF"/>
</g>
<path d="M32.7324 57.9492C32.7324 57.3969 32.2847 56.9492 31.7324 56.9492C31.1801 56.9492 30.7324 57.3969 30.7324 57.9492H32.7324ZM31.0253 162.06C31.4158 162.45 32.049 162.45 32.4395 162.06L38.8035 155.696C39.194 155.305 39.194 154.672 38.8035 154.282C38.413 153.891 37.7798 153.891 37.3893 154.282L31.7324 159.939L26.0756 154.282C25.685 153.891 25.0519 153.891 24.6614 154.282C24.2708 154.672 24.2708 155.305 24.6614 155.696L31.0253 162.06ZM30.7324 57.9492V161.353H32.7324V57.9492H30.7324Z" fill="#67778E"/>
<path d="M7.42969 110C7.42969 104.477 11.9068 100 17.4297 100H53.4297C58.9525 100 63.4297 104.477 63.4297 110C63.4297 115.523 58.9525 120 53.4297 120H17.4297C11.9068 120 7.42969 115.523 7.42969 110Z" fill="#67778E"/>
<path d="M18.5288 114H16.8262L16.8369 112.743H18.5288C18.9513 112.743 19.3076 112.648 19.5977 112.458C19.8877 112.265 20.1061 111.984 20.2529 111.615C20.4033 111.246 20.4785 110.801 20.4785 110.278V109.896C20.4785 109.495 20.4355 109.143 20.3496 108.838C20.2673 108.534 20.1437 108.278 19.979 108.07C19.8143 107.863 19.612 107.707 19.3721 107.603C19.1322 107.496 18.8564 107.442 18.5449 107.442H16.7939V106.18H18.5449C19.0677 106.18 19.5457 106.269 19.979 106.448C20.4159 106.624 20.7936 106.876 21.1123 107.206C21.431 107.535 21.6763 107.929 21.8481 108.387C22.0236 108.842 22.1113 109.349 22.1113 109.907V110.278C22.1113 110.833 22.0236 111.34 21.8481 111.798C21.6763 112.256 21.431 112.65 21.1123 112.979C20.7972 113.305 20.4194 113.558 19.979 113.737C19.5422 113.912 19.0588 114 18.5288 114ZM17.7393 106.18V114H16.1279V106.18H17.7393ZM26.3878 110.568H24.379L24.3682 109.461H26.0547C26.3519 109.461 26.5954 109.424 26.7852 109.349C26.975 109.27 27.1164 109.157 27.2095 109.01C27.3062 108.86 27.3545 108.677 27.3545 108.462C27.3545 108.219 27.308 108.022 27.2149 107.872C27.1254 107.721 26.9839 107.612 26.7906 107.544C26.6008 107.476 26.3555 107.442 26.0547 107.442H24.9376V114H23.3262V106.18H26.0547C26.5095 106.18 26.9159 106.223 27.274 106.309C27.6356 106.395 27.9418 106.525 28.1924 106.701C28.4431 106.876 28.6347 107.098 28.7671 107.367C28.8996 107.632 28.9659 107.947 28.9659 108.312C28.9659 108.634 28.8925 108.931 28.7457 109.204C28.6024 109.476 28.3751 109.698 28.0635 109.87C27.7556 110.042 27.3528 110.136 26.855 110.154L26.3878 110.568ZM26.3179 114H23.9385L24.5669 112.743H26.3179C26.6008 112.743 26.8318 112.698 27.0108 112.609C27.1898 112.516 27.3223 112.39 27.4083 112.233C27.4942 112.075 27.5372 111.895 27.5372 111.69C27.5372 111.461 27.4978 111.263 27.419 111.094C27.3438 110.926 27.2221 110.797 27.0538 110.708C26.8855 110.614 26.6635 110.568 26.3878 110.568H24.8355L24.8462 109.461H26.7798L27.1504 109.896C27.6267 109.889 28.0098 109.973 28.2999 110.149C28.5935 110.321 28.8065 110.545 28.939 110.82C29.0751 111.096 29.1431 111.391 29.1431 111.707C29.1431 112.208 29.0339 112.63 28.8155 112.974C28.5971 113.314 28.2766 113.57 27.8541 113.742C27.4351 113.914 26.9231 114 26.3179 114ZM34.5797 114V115.176H29.7027V114H34.5797ZM39.6564 106.18H41.2624V111.347C41.2624 111.948 41.1335 112.455 40.8757 112.867C40.6214 113.278 40.2687 113.588 39.8175 113.796C39.37 114.004 38.8543 114.107 38.2707 114.107C37.687 114.107 37.1678 114.004 36.7131 113.796C36.2619 113.588 35.9074 113.278 35.6496 112.867C35.3953 112.455 35.2682 111.948 35.2682 111.347V106.18H36.8796V111.347C36.8796 111.698 36.9351 111.984 37.0461 112.206C37.1571 112.428 37.3164 112.591 37.5241 112.695C37.7354 112.799 37.9842 112.851 38.2707 112.851C38.5643 112.851 38.8132 112.799 39.0173 112.695C39.2249 112.591 39.3825 112.428 39.4899 112.206C39.6009 111.984 39.6564 111.698 39.6564 111.347V106.18ZM42.633 106.18H45.5495C46.1475 106.18 46.6614 106.269 47.091 106.448C47.5243 106.627 47.8573 106.892 48.0901 107.243C48.3228 107.594 48.4392 108.026 48.4392 108.538C48.4392 108.957 48.3676 109.316 48.2243 109.617C48.0847 109.914 47.886 110.163 47.6281 110.364C47.3739 110.561 47.0749 110.718 46.7312 110.836L46.2209 111.105H43.6858L43.675 109.848H45.5603C45.8432 109.848 46.0777 109.798 46.2639 109.698C46.4501 109.597 46.5897 109.458 46.6828 109.279C46.7795 109.1 46.8279 108.892 46.8279 108.656C46.8279 108.405 46.7813 108.188 46.6882 108.006C46.5951 107.823 46.4537 107.684 46.2639 107.587C46.0741 107.49 45.836 107.442 45.5495 107.442H44.2444V114H42.633V106.18ZM47.0051 114L45.2219 110.514L46.9245 110.503L48.7292 113.925V114H47.0051ZM54.7513 112.743V114H50.8142V112.743H54.7513ZM51.3352 106.18V114H49.7239V106.18H51.3352Z" fill="white"/>
<g filter="url(#filter3_dd_23900_152291)">
<path d="M147.092 164.853C147.092 163.165 148.46 161.797 150.148 161.797H156.259C157.947 161.797 159.315 163.165 159.315 164.853C159.315 166.54 157.947 167.908 156.259 167.908H150.148C148.46 167.908 147.092 166.54 147.092 164.853Z" fill="#67778E"/>
<path d="M129.585 170.964C129.585 167.8 132.15 165.235 135.315 165.235H171.984C175.148 165.235 177.714 167.8 177.714 170.964V207.633C177.714 210.798 175.148 213.363 171.984 213.363H135.315C132.15 213.363 129.585 210.798 129.585 207.633V170.964Z" fill="white"/>
<path d="M129.585 170.964C129.585 167.8 132.15 165.235 135.315 165.235H171.984C175.148 165.235 177.714 167.8 177.714 170.964V207.633C177.714 210.798 175.148 213.363 171.984 213.363H135.315C132.15 213.363 129.585 210.798 129.585 207.633V170.964Z" stroke="#C6D3E7" stroke-width="0.763944"/>
<path d="M166.552 191.225L165.463 198.074L171.941 200.558L171.94 194.335L166.552 191.225Z" fill="#A299FF"/>
<path d="M138.33 197.446V181.15L143.721 182.86V194.333L152.442 199.369L153.094 201.853L152.442 205.593L138.33 197.446Z" fill="#7366FF"/>
<path d="M152.444 179.228L143.721 184.263L138.33 181.151L152.441 173.004L166.553 181.151L163.575 183.523L161.166 184.264L152.444 179.228Z" fill="#7366FF"/>
<path d="M171.942 200.556L166.551 203.67L161.164 200.556V194.334L171.942 200.556Z" fill="#5219FF"/>
<path d="M152.445 183.091L152.441 189.314L157.834 192.425L157.833 186.201L152.445 183.091Z" fill="#A299FF"/>
<path d="M152.441 189.313L147.053 192.425L152.442 195.537L157.834 192.425L152.441 189.313Z" fill="#5219FF"/>
<path d="M152.445 183.091L147.053 186.203L147.053 192.425L152.441 189.314L152.445 183.091Z" fill="#7366FF"/>
<path d="M166.551 181.15V191.224L161.164 194.334V184.263L166.551 181.15Z" fill="url(#paint0_linear_23900_152291)"/>
<path d="M166.553 191.222L152.441 199.369V205.594L166.552 197.445L166.553 191.222Z" fill="url(#paint1_linear_23900_152291)"/>
</g>
<path d="M59.6797 188.299C59.1274 188.299 58.6797 188.747 58.6797 189.299C58.6797 189.851 59.1274 190.299 59.6797 190.299V188.299ZM126.41 190.006C126.801 189.615 126.801 188.982 126.41 188.592L120.046 182.228C119.656 181.837 119.023 181.837 118.632 182.228C118.242 182.618 118.242 183.251 118.632 183.642L124.289 189.299L118.632 194.956C118.242 195.346 118.242 195.979 118.632 196.37C119.023 196.76 119.656 196.76 120.046 196.37L126.41 190.006ZM59.6797 190.299H125.703V188.299H59.6797V190.299Z" fill="#67778E"/>
<path d="M152.65 161.353C152.65 161.905 153.098 162.353 153.65 162.353C154.203 162.353 154.65 161.905 154.65 161.353H152.65ZM154.357 57.2421C153.967 56.8516 153.334 56.8516 152.943 57.2421L146.579 63.6061C146.189 63.9966 146.189 64.6298 146.579 65.0203C146.97 65.4108 147.603 65.4108 147.994 65.0203L153.65 59.3634L159.307 65.0203C159.698 65.4108 160.331 65.4108 160.721 65.0203C161.112 64.6298 161.112 63.9966 160.721 63.6061L154.357 57.2421ZM154.65 161.353V57.9492H152.65V161.353H154.65Z" fill="#67778E"/>
<path d="M122.477 110C122.477 104.477 126.954 100 132.477 100H168.477C173.999 100 178.477 104.477 178.477 110C178.477 115.523 173.999 120 168.477 120H132.477C126.954 120 122.477 115.523 122.477 110Z" fill="#67778E"/>
<path d="M133.576 114H131.873L131.884 112.743H133.576C133.998 112.743 134.354 112.648 134.645 112.458C134.935 112.265 135.153 111.984 135.3 111.615C135.45 111.246 135.525 110.801 135.525 110.278V109.896C135.525 109.495 135.482 109.143 135.396 108.838C135.314 108.534 135.191 108.278 135.026 108.07C134.861 107.863 134.659 107.707 134.419 107.603C134.179 107.496 133.903 107.442 133.592 107.442H131.841V106.18H133.592C134.115 106.18 134.593 106.269 135.026 106.448C135.463 106.624 135.84 106.876 136.159 107.206C136.478 107.535 136.723 107.929 136.895 108.387C137.07 108.842 137.158 109.349 137.158 109.907V110.278C137.158 110.833 137.07 111.34 136.895 111.798C136.723 112.256 136.478 112.65 136.159 112.979C135.844 113.305 135.466 113.558 135.026 113.737C134.589 113.912 134.106 114 133.576 114ZM132.786 106.18V114H131.175V106.18H132.786ZM141.435 110.568H139.426L139.415 109.461H141.102C141.399 109.461 141.642 109.424 141.832 109.349C142.022 109.27 142.163 109.157 142.256 109.01C142.353 108.86 142.401 108.677 142.401 108.462C142.401 108.219 142.355 108.022 142.262 107.872C142.172 107.721 142.031 107.612 141.837 107.544C141.648 107.476 141.402 107.442 141.102 107.442H139.984V114H138.373V106.18H141.102C141.556 106.18 141.963 106.223 142.321 106.309C142.683 106.395 142.989 106.525 143.239 106.701C143.49 106.876 143.682 107.098 143.814 107.367C143.947 107.632 144.013 107.947 144.013 108.312C144.013 108.634 143.939 108.931 143.793 109.204C143.649 109.476 143.422 109.698 143.11 109.87C142.802 110.042 142.4 110.136 141.902 110.154L141.435 110.568ZM141.365 114H138.985L139.614 112.743H141.365C141.648 112.743 141.879 112.698 142.058 112.609C142.237 112.516 142.369 112.39 142.455 112.233C142.541 112.075 142.584 111.895 142.584 111.69C142.584 111.461 142.545 111.263 142.466 111.094C142.391 110.926 142.269 110.797 142.101 110.708C141.932 110.614 141.71 110.568 141.435 110.568H139.882L139.893 109.461H141.827L142.197 109.896C142.674 109.889 143.057 109.973 143.347 110.149C143.64 110.321 143.853 110.545 143.986 110.82C144.122 111.096 144.19 111.391 144.19 111.707C144.19 112.208 144.081 112.63 143.862 112.974C143.644 113.314 143.323 113.57 142.901 113.742C142.482 113.914 141.97 114 141.365 114ZM149.627 114V115.176H144.75V114H149.627ZM154.703 106.18H156.309V111.347C156.309 111.948 156.18 112.455 155.923 112.867C155.668 113.278 155.316 113.588 154.864 113.796C154.417 114.004 153.901 114.107 153.318 114.107C152.734 114.107 152.215 114.004 151.76 113.796C151.309 113.588 150.954 113.278 150.696 112.867C150.442 112.455 150.315 111.948 150.315 111.347V106.18H151.926V111.347C151.926 111.698 151.982 111.984 152.093 112.206C152.204 112.428 152.363 112.591 152.571 112.695C152.782 112.799 153.031 112.851 153.318 112.851C153.611 112.851 153.86 112.799 154.064 112.695C154.272 112.591 154.429 112.428 154.537 112.206C154.648 111.984 154.703 111.698 154.703 111.347V106.18ZM157.68 106.18H160.596C161.194 106.18 161.708 106.269 162.138 106.448C162.571 106.627 162.904 106.892 163.137 107.243C163.37 107.594 163.486 108.026 163.486 108.538C163.486 108.957 163.414 109.316 163.271 109.617C163.132 109.914 162.933 110.163 162.675 110.364C162.421 110.561 162.122 110.718 161.778 110.836L161.268 111.105H158.733L158.722 109.848H160.607C160.89 109.848 161.125 109.798 161.311 109.698C161.497 109.597 161.637 109.458 161.73 109.279C161.826 109.1 161.875 108.892 161.875 108.656C161.875 108.405 161.828 108.188 161.735 108.006C161.642 107.823 161.501 107.684 161.311 107.587C161.121 107.49 160.883 107.442 160.596 107.442H159.291V114H157.68V106.18ZM162.052 114L160.269 110.514L161.971 110.503L163.776 113.925V114H162.052ZM169.798 112.743V114H165.861V112.743H169.798ZM166.382 106.18V114H164.771V106.18H166.382Z" fill="white"/>
<defs>
<filter id="filter0_dd_23900_152291" x="0.287109" y="0.556641" width="62.8926" height="65.9482" filterUnits="userSpaceOnUse" color-interpolation-filters="sRGB">
<feFlood flood-opacity="0" result="BackgroundImageFix"/>
<feColorMatrix in="SourceAlpha" type="matrix" values="0 0 0 0 0 0 0 0 0 0 0 0 0 0 0 0 0 0 127 0" result="hardAlpha"/>
<feMorphology radius="1" operator="erode" in="SourceAlpha" result="effect1_dropShadow_23900_152291"/>
<feOffset dy="2"/>
<feGaussianBlur stdDeviation="4"/>
<feColorMatrix type="matrix" values="0 0 0 0 0.105882 0 0 0 0 0.141176 0 0 0 0 0.172549 0 0 0 0.08 0"/>
<feBlend mode="normal" in2="BackgroundImageFix" result="effect1_dropShadow_23900_152291"/>
<feColorMatrix in="SourceAlpha" type="matrix" values="0 0 0 0 0 0 0 0 0 0 0 0 0 0 0 0 0 0 127 0" result="hardAlpha"/>
<feMorphology radius="1" operator="erode" in="SourceAlpha" result="effect2_dropShadow_23900_152291"/>
<feOffset dy="2"/>
<feGaussianBlur stdDeviation="1"/>
<feComposite in2="hardAlpha" operator="out"/>
<feColorMatrix type="matrix" values="0 0 0 0 0.105882 0 0 0 0 0.141176 0 0 0 0 0.172549 0 0 0 0.04 0"/>
<feBlend mode="normal" in2="effect1_dropShadow_23900_152291" result="effect2_dropShadow_23900_152291"/>
<feBlend mode="normal" in="SourceGraphic" in2="effect2_dropShadow_23900_152291" result="shape"/>
</filter>
<filter id="filter1_dd_23900_152291" x="122.203" y="0.556641" width="62.8926" height="62.8926" filterUnits="userSpaceOnUse" color-interpolation-filters="sRGB">
<feFlood flood-opacity="0" result="BackgroundImageFix"/>
<feColorMatrix in="SourceAlpha" type="matrix" values="0 0 0 0 0 0 0 0 0 0 0 0 0 0 0 0 0 0 127 0" result="hardAlpha"/>
<feMorphology radius="1" operator="erode" in="SourceAlpha" result="effect1_dropShadow_23900_152291"/>
<feOffset dy="2"/>
<feGaussianBlur stdDeviation="4"/>
<feColorMatrix type="matrix" values="0 0 0 0 0.105882 0 0 0 0 0.141176 0 0 0 0 0.172549 0 0 0 0.08 0"/>
<feBlend mode="normal" in2="BackgroundImageFix" result="effect1_dropShadow_23900_152291"/>
<feColorMatrix in="SourceAlpha" type="matrix" values="0 0 0 0 0 0 0 0 0 0 0 0 0 0 0 0 0 0 127 0" result="hardAlpha"/>
<feMorphology radius="1" operator="erode" in="SourceAlpha" result="effect2_dropShadow_23900_152291"/>
<feOffset dy="2"/>
<feGaussianBlur stdDeviation="1"/>
<feComposite in2="hardAlpha" operator="out"/>
<feColorMatrix type="matrix" values="0 0 0 0 0.105882 0 0 0 0 0.141176 0 0 0 0 0.172549 0 0 0 0.04 0"/>
<feBlend mode="normal" in2="effect1_dropShadow_23900_152291" result="effect2_dropShadow_23900_152291"/>
<feBlend mode="normal" in="SourceGraphic" in2="effect2_dropShadow_23900_152291" result="shape"/>
</filter>
<filter id="filter2_dd_23900_152291" x="0.287109" y="159.853" width="66.0547" height="62.8926" filterUnits="userSpaceOnUse" color-interpolation-filters="sRGB">
<feFlood flood-opacity="0" result="BackgroundImageFix"/>
<feColorMatrix in="SourceAlpha" type="matrix" values="0 0 0 0 0 0 0 0 0 0 0 0 0 0 0 0 0 0 127 0" result="hardAlpha"/>
<feMorphology radius="1" operator="erode" in="SourceAlpha" result="effect1_dropShadow_23900_152291"/>
<feOffset dy="2"/>
<feGaussianBlur stdDeviation="4"/>
<feColorMatrix type="matrix" values="0 0 0 0 0.105882 0 0 0 0 0.141176 0 0 0 0 0.172549 0 0 0 0.08 0"/>
<feBlend mode="normal" in2="BackgroundImageFix" result="effect1_dropShadow_23900_152291"/>
<feColorMatrix in="SourceAlpha" type="matrix" values="0 0 0 0 0 0 0 0 0 0 0 0 0 0 0 0 0 0 127 0" result="hardAlpha"/>
<feMorphology radius="1" operator="erode" in="SourceAlpha" result="effect2_dropShadow_23900_152291"/>
<feOffset dy="2"/>
<feGaussianBlur stdDeviation="1"/>
<feComposite in2="hardAlpha" operator="out"/>
<feColorMatrix type="matrix" values="0 0 0 0 0.105882 0 0 0 0 0.141176 0 0 0 0 0.172549 0 0 0 0.04 0"/>
<feBlend mode="normal" in2="effect1_dropShadow_23900_152291" result="effect2_dropShadow_23900_152291"/>
<feBlend mode="normal" in="SourceGraphic" in2="effect2_dropShadow_23900_152291" result="shape"/>
</filter>
<filter id="filter3_dd_23900_152291" x="122.203" y="156.797" width="62.8926" height="65.9482" filterUnits="userSpaceOnUse" color-interpolation-filters="sRGB">
<feFlood flood-opacity="0" result="BackgroundImageFix"/>
<feColorMatrix in="SourceAlpha" type="matrix" values="0 0 0 0 0 0 0 0 0 0 0 0 0 0 0 0 0 0 127 0" result="hardAlpha"/>
<feMorphology radius="1" operator="erode" in="SourceAlpha" result="effect1_dropShadow_23900_152291"/>
<feOffset dy="2"/>
<feGaussianBlur stdDeviation="4"/>
<feColorMatrix type="matrix" values="0 0 0 0 0.105882 0 0 0 0 0.141176 0 0 0 0 0.172549 0 0 0 0.08 0"/>
<feBlend mode="normal" in2="BackgroundImageFix" result="effect1_dropShadow_23900_152291"/>
<feColorMatrix in="SourceAlpha" type="matrix" values="0 0 0 0 0 0 0 0 0 0 0 0 0 0 0 0 0 0 127 0" result="hardAlpha"/>
<feMorphology radius="1" operator="erode" in="SourceAlpha" result="effect2_dropShadow_23900_152291"/>
<feOffset dy="2"/>
<feGaussianBlur stdDeviation="1"/>
<feComposite in2="hardAlpha" operator="out"/>
<feColorMatrix type="matrix" values="0 0 0 0 0.105882 0 0 0 0 0.141176 0 0 0 0 0.172549 0 0 0 0.04 0"/>
<feBlend mode="normal" in2="effect1_dropShadow_23900_152291" result="effect2_dropShadow_23900_152291"/>
<feBlend mode="normal" in="SourceGraphic" in2="effect2_dropShadow_23900_152291" result="shape"/>
</filter>
<linearGradient id="paint0_linear_23900_152291" x1="163.858" y1="181.15" x2="163.858" y2="194.334" gradientUnits="userSpaceOnUse">
<stop offset="0.25" stop-color="#7366FF"/>
<stop offset="1" stop-color="#5219FF"/>
</linearGradient>
<linearGradient id="paint1_linear_23900_152291" x1="152.441" y1="198.408" x2="166.553" y2="198.408" gradientUnits="userSpaceOnUse">
<stop stop-color="#7366FF"/>
<stop offset="1" stop-color="#A299FF"/>
</linearGradient>
<clipPath id="clip0_23900_152291">
<rect width="36.6693" height="36.6693" fill="white" transform="translate(13.3984 11.668)"/>
</clipPath>
<clipPath id="clip1_23900_152291">
<rect width="36.6693" height="36.6693" fill="white" transform="translate(135.314 11.668)"/>
</clipPath>
</defs>
</svg>
