<svg width="185" height="223" viewBox="0 0 185 223" fill="none" xmlns="http://www.w3.org/2000/svg">
<g filter="url(#filter0_dd_23900_152279)">
<path d="M56.0321 23.4453C57.7198 23.4453 59.0879 24.8134 59.0879 26.5011L59.0879 32.6126C59.0879 34.3003 57.7198 35.6684 56.0321 35.6684C54.3445 35.6684 52.9763 34.3003 52.9763 32.6126L52.9763 26.5011C52.9763 24.8134 54.3445 23.4453 56.0321 23.4453Z" fill="#67778E"/>
<path d="M7.41517 11.6682C7.41517 8.50384 9.98039 5.93861 13.1448 5.93861H49.814C52.9784 5.93861 55.5436 8.50383 55.5436 11.6682V48.3375C55.5436 51.5018 52.9784 54.0671 49.814 54.0671H13.1448C9.9804 54.0671 7.41517 51.5018 7.41517 48.3375V11.6682Z" fill="white"/>
<path d="M7.41517 11.6682C7.41517 8.50384 9.98039 5.93861 13.1448 5.93861H49.814C52.9784 5.93861 55.5436 8.50383 55.5436 11.6682V48.3375C55.5436 51.5018 52.9784 54.0671 49.814 54.0671H13.1448C9.9804 54.0671 7.41517 51.5018 7.41517 48.3375V11.6682Z" stroke="#C6D3E7" stroke-width="0.763944"/>
<g clip-path="url(#clip0_23900_152279)">
<path d="M31.3561 12.7072C31.0409 12.723 30.732 12.8012 30.4477 12.937L18.0524 18.8596C17.7316 19.0129 17.4497 19.2358 17.2277 19.5119C17.0056 19.788 16.8492 20.1102 16.7699 20.4545L13.7119 33.7581C13.6413 34.0647 13.6334 34.3821 13.6887 34.6917C13.7439 35.0013 13.8613 35.2968 14.0337 35.5606C14.0755 35.6251 14.1205 35.6875 14.1685 35.7477L22.748 46.415C22.9701 46.691 23.252 46.9139 23.5728 47.067C23.8936 47.2202 24.2451 47.2997 24.6012 47.2996L38.3599 47.2965C38.7158 47.2967 39.0672 47.2175 39.388 47.0646C39.7088 46.9118 39.9908 46.6892 40.2131 46.4135L48.7895 35.7445C49.0117 35.4683 49.1682 35.146 49.2475 34.8016C49.3268 34.4571 49.3268 34.0994 49.2475 33.7549L46.1849 20.4513C46.1056 20.107 45.9492 19.7848 45.7271 19.5087C45.5051 19.2326 45.2232 19.0097 44.9024 18.8565L32.5054 12.937C32.1478 12.7661 31.7525 12.6871 31.3561 12.7072Z" fill="#326CE5"/>
<path d="M31.4787 17.2354C31.069 17.2354 30.7368 17.6045 30.7368 18.0597C30.7368 18.0667 30.7383 18.0734 30.7384 18.0803C30.7378 18.1422 30.7348 18.2167 30.7368 18.2705C30.7466 18.5331 30.8038 18.7341 30.8383 18.976C30.9007 19.4938 30.9529 19.923 30.9207 20.3219C30.8893 20.4723 30.7785 20.6099 30.6798 20.7055L30.6623 21.0194C30.211 21.0566 29.7628 21.1254 29.3211 21.2255C27.3948 21.6629 25.7361 22.6552 24.4734 23.995C24.3832 23.9328 24.2939 23.8694 24.2055 23.8048C24.073 23.8227 23.9391 23.8636 23.7647 23.7619C23.4327 23.5385 23.1303 23.23 22.7644 22.8584C22.5967 22.6806 22.4754 22.5113 22.2761 22.34C22.2309 22.3011 22.1619 22.2484 22.1113 22.2084C21.9555 22.0842 21.7719 22.0195 21.5945 22.0134C21.3664 22.0056 21.1469 22.0948 21.0032 22.275C20.7477 22.5953 20.8295 23.085 21.1855 23.3688C21.1891 23.3717 21.1929 23.3739 21.1966 23.3768C21.2455 23.4164 21.3054 23.4672 21.3503 23.5004C21.5617 23.6565 21.7548 23.7364 21.9654 23.8603C22.4092 24.1343 22.777 24.3615 23.0688 24.6355C23.1827 24.7569 23.2027 24.9709 23.2178 25.0635L23.4556 25.2759C22.1826 27.1916 21.5935 29.5579 21.9417 31.969L21.631 32.0593C21.549 32.1651 21.4333 32.3315 21.3123 32.3812C20.9306 32.5014 20.5009 32.5455 19.9823 32.5999C19.7388 32.6202 19.5286 32.6081 19.2704 32.657C19.2136 32.6677 19.1345 32.6884 19.0723 32.7029L19.066 32.7046C19.0626 32.7053 19.0581 32.707 19.0548 32.7077C18.6176 32.8134 18.3367 33.2153 18.4271 33.6113C18.5175 34.0074 18.9447 34.2483 19.3846 34.1535C19.3878 34.1528 19.3924 34.1526 19.3957 34.1519C19.4007 34.1508 19.405 34.1484 19.4099 34.1472C19.4713 34.1337 19.5481 34.1187 19.6018 34.1044C19.8556 34.0364 20.0394 33.9366 20.2676 33.8491C20.7585 33.6731 21.1651 33.526 21.5612 33.4686C21.7266 33.4557 21.9009 33.5707 21.9876 33.6193L22.311 33.5638C23.0552 35.8711 24.6149 37.736 26.5897 38.9062L26.4549 39.2296C26.5035 39.3551 26.5571 39.525 26.5209 39.6491C26.3769 40.0225 26.1303 40.4167 25.8494 40.8561C25.7134 41.0591 25.5742 41.2167 25.4515 41.449C25.4221 41.5046 25.3847 41.59 25.3564 41.6487C25.1657 42.0567 25.3055 42.5266 25.6718 42.703C26.0404 42.8804 26.4979 42.6932 26.6959 42.2844C26.6962 42.2838 26.6972 42.2834 26.6975 42.2828C26.6977 42.2824 26.6973 42.2817 26.6975 42.2813C26.7257 42.2233 26.7657 42.1471 26.7895 42.0926C26.8946 41.8518 26.9296 41.6454 27.0035 41.4125C27.1998 40.9194 27.3076 40.402 27.5778 40.0797C27.6518 39.9914 27.7725 39.9574 27.8976 39.9239L28.0656 39.6195C29.7872 40.2804 31.7144 40.4577 33.6395 40.0207C34.0721 39.9223 34.4975 39.7941 34.9124 39.637C34.9596 39.7208 35.0474 39.8818 35.071 39.9223C35.1981 39.9637 35.3368 39.9851 35.4499 40.1522C35.652 40.4977 35.7903 40.9063 35.9587 41.3998C36.0326 41.6327 36.0692 41.8391 36.1743 42.0799C36.1983 42.1348 36.238 42.2121 36.2663 42.2701C36.4638 42.6803 36.9228 42.8681 37.292 42.6903C37.6582 42.5138 37.7982 42.044 37.6074 41.636C37.5791 41.5773 37.5401 41.4919 37.5107 41.4363C37.388 41.204 37.2488 41.048 37.1128 40.845C36.8319 40.4056 36.5989 40.0405 36.4549 39.6671C36.3947 39.4745 36.4651 39.3547 36.512 39.2296C36.4839 39.1974 36.4238 39.0155 36.3884 38.93C38.4407 37.7181 39.9545 35.7837 40.6654 33.5495C40.7615 33.5646 40.9283 33.5942 40.9825 33.605C41.0941 33.5315 41.1967 33.4354 41.3979 33.4512C41.7939 33.5085 42.2005 33.6557 42.6914 33.8317C42.9196 33.9191 43.1034 34.0206 43.3573 34.0885C43.4109 34.1029 43.4877 34.1163 43.5491 34.1297C43.554 34.1309 43.5584 34.1334 43.5633 34.1345C43.5667 34.1352 43.5712 34.1353 43.5744 34.1361C44.0144 34.2308 44.4416 33.99 44.5319 33.5939C44.6222 33.1979 44.3415 32.7958 43.9042 32.6903C43.8406 32.6758 43.7504 32.6513 43.6886 32.6396C43.4304 32.5907 43.2203 32.6027 42.9768 32.5825C42.4581 32.5281 42.0285 32.4839 41.6467 32.3637C41.4911 32.3034 41.3804 32.1181 41.3265 32.0419L41.0269 31.9547C41.1822 30.8308 41.1404 29.6612 40.8715 28.4909C40.6002 27.3097 40.1207 26.2294 39.4812 25.2775C39.5581 25.2076 39.7032 25.0791 39.7444 25.0413C39.7564 24.9082 39.7461 24.7686 39.8839 24.6212C40.1756 24.3473 40.5435 24.12 40.9872 23.846C41.1979 23.7221 41.3926 23.6422 41.6039 23.4861C41.6517 23.4508 41.717 23.3949 41.7672 23.3545C42.1231 23.0707 42.205 22.581 41.9495 22.2607C41.694 21.9404 41.1989 21.9102 40.843 22.1941C40.7923 22.2342 40.7236 22.2866 40.6781 22.3257C40.4789 22.4971 40.3559 22.6663 40.1883 22.8441C39.8224 23.2157 39.52 23.5258 39.1879 23.7493C39.0441 23.833 38.8333 23.8041 38.7377 23.7984L38.4556 23.9998C36.8464 22.3125 34.6557 21.2338 32.2968 21.0242C32.2902 20.9253 32.2815 20.7467 32.2793 20.6928C32.1827 20.6005 32.066 20.5216 32.0368 20.3219C32.0045 19.923 32.0584 19.4938 32.1208 18.976C32.1552 18.7341 32.2124 18.5332 32.2222 18.2705C32.2245 18.2109 32.2209 18.1242 32.2207 18.0597C32.2206 17.6045 31.8885 17.2354 31.4787 17.2354ZM30.5497 22.99L30.3294 26.8818L30.3136 26.8897C30.2987 27.2379 30.0122 27.5159 29.6604 27.5159C29.5163 27.5159 29.3833 27.4696 29.2752 27.3907L29.2688 27.3938L26.0777 25.1316C27.0584 24.1673 28.313 23.4545 29.7587 23.1263C30.0199 23.0673 30.2839 23.0218 30.5497 22.99ZM32.4093 22.99C34.0972 23.1975 35.6582 23.9619 36.8544 25.1333L33.6838 27.3812L33.6728 27.3764C33.3913 27.5819 32.9948 27.531 32.7755 27.256C32.6888 27.1481 32.6388 27.0153 32.6328 26.877L32.6296 26.8755L32.4093 22.99ZM24.9204 26.5854L27.8342 29.1916L27.831 29.2074C28.094 29.436 28.1328 29.8328 27.9134 30.1078C27.8269 30.2165 27.7081 30.2948 27.5742 30.3314L27.571 30.344L23.8361 31.422C23.646 29.6838 24.0557 27.9941 24.9204 26.5854ZM38.0165 26.5869C38.4494 27.2886 38.7772 28.0724 38.9723 28.9221C39.1652 29.7615 39.2136 30.5995 39.1341 31.4094L35.3801 30.3282L35.3769 30.3123C35.0408 30.2205 34.8342 29.8786 34.9124 29.5356C34.9429 29.4007 35.0157 29.279 35.1201 29.1884L35.1186 29.1805L38.0165 26.5869V26.5869ZM30.8811 29.3929H32.0748L32.8167 30.3203L32.5504 31.4775L31.4787 31.9927L30.4039 31.476L30.1376 30.3187L30.8811 29.3929ZM34.708 32.5666C34.7587 32.5641 34.8092 32.5687 34.8586 32.5777L34.8649 32.5698L38.7282 33.2229C38.1628 34.8114 37.0809 36.1875 35.6353 37.1085L34.1357 33.4861L34.1404 33.4798C34.0027 33.1597 34.1405 32.7843 34.4575 32.6316C34.5386 32.5926 34.6234 32.5709 34.708 32.5666ZM28.2194 32.5825C28.5142 32.5866 28.7786 32.7913 28.8472 33.0914C28.8792 33.2319 28.8636 33.371 28.8107 33.494L28.8218 33.5083L27.338 37.0942C25.9506 36.204 24.8457 34.8711 24.2546 33.2356L28.0846 32.5857L28.091 32.5936C28.1338 32.5857 28.1772 32.5819 28.2194 32.5825ZM31.4549 34.1535C31.5607 34.1499 31.6657 34.1721 31.7609 34.2185C31.8908 34.281 31.9911 34.3795 32.0542 34.4975H32.0685L33.9565 37.909C33.7087 37.9919 33.4568 38.0622 33.2019 38.1199C31.758 38.4478 30.3186 38.3484 29.0152 37.9043L30.8985 34.4991H30.9017C30.9557 34.3982 31.0352 34.3132 31.1322 34.2525C31.2293 34.1919 31.3406 34.1577 31.455 34.1535L31.4549 34.1535Z" fill="white" stroke="white" stroke-width="0.14494"/>
</g>
</g>
<g filter="url(#filter1_dd_23900_152279)">
<path d="M129.331 170.965C129.331 167.801 131.896 165.235 135.061 165.235H171.73C174.894 165.235 177.46 167.801 177.46 170.965V207.634C177.46 210.799 174.894 213.364 171.73 213.364H135.061C131.896 213.364 129.331 210.799 129.331 207.634V170.965Z" fill="white"/>
<path d="M129.331 170.965C129.331 167.801 131.896 165.235 135.061 165.235H171.73C174.894 165.235 177.46 167.801 177.46 170.965V207.634C177.46 210.799 174.894 213.364 171.73 213.364H135.061C131.896 213.364 129.331 210.799 129.331 207.634V170.965Z" stroke="#C6D3E7" stroke-width="0.763944"/>
<path d="M166.774 196.197V200.896C166.774 203.774 160.638 206.106 153.068 206.106C147.465 206.106 142.648 204.828 140.523 202.997C139.778 202.355 139.363 201.644 139.363 200.895V196.197H166.774Z" fill="#7366FF"/>
<path d="M166.775 196.198C166.775 197.515 165.49 198.717 163.373 199.634C160.861 200.722 157.177 201.408 153.071 201.408C145.502 201.408 139.365 199.075 139.365 196.198C139.365 195.383 139.859 194.611 140.737 193.923C142.025 192.916 144.141 192.091 146.748 191.575C148.64 191.2 150.79 190.988 153.07 190.988C155.35 190.988 157.499 191.202 159.392 191.575C160.817 191.857 162.094 192.231 163.169 192.677C164.065 193.047 164.818 193.466 165.402 193.923C166.282 194.611 166.775 195.383 166.775 196.198Z" fill="#A299FF"/>
<path d="M166.774 186.951V191.648C166.774 192.464 166.281 193.236 165.403 193.923C164.878 194.334 164.216 194.714 163.438 195.056C162.397 195.513 161.15 195.901 159.751 196.198C157.775 196.619 155.496 196.86 153.07 196.86C150.644 196.86 148.365 196.621 146.389 196.198C143.946 195.679 141.965 194.884 140.737 193.923C139.861 193.236 139.365 192.464 139.365 191.648V186.951H166.774Z" fill="#7366FF"/>
<path d="M166.774 186.95C166.774 188.318 165.387 189.563 163.118 190.493C162.053 190.929 160.793 191.296 159.392 191.573C157.5 191.948 155.35 192.16 153.07 192.16C150.79 192.16 148.64 191.948 146.748 191.573C142.361 190.705 139.365 188.96 139.365 186.95C139.365 186.132 139.859 185.362 140.737 184.675C142.025 183.668 144.141 182.842 146.748 182.326C148.64 181.952 150.79 181.739 153.07 181.739C155.35 181.739 157.499 181.952 159.391 182.326C160.973 182.638 162.375 183.066 163.519 183.579C164.261 183.911 164.895 184.28 165.402 184.675C166.281 185.362 166.774 186.134 166.774 186.95Z" fill="#A299FF"/>
<path d="M166.774 177.703V182.402C166.774 183.217 166.281 183.989 165.403 184.677C164.722 185.208 163.812 185.689 162.719 186.101C161.753 186.458 160.761 186.743 159.751 186.951C157.775 187.372 155.496 187.611 153.07 187.611C150.644 187.611 148.365 187.372 146.389 186.951C143.946 186.432 141.965 185.637 140.737 184.677C139.861 183.988 139.365 183.216 139.365 182.402V177.703H166.774Z" fill="#7366FF"/>
<path d="M166.774 177.703C166.774 179.066 165.399 180.306 163.148 181.234C162.076 181.676 160.806 182.047 159.391 182.327C157.499 182.701 155.35 182.913 153.07 182.913C150.79 182.913 148.64 182.701 146.748 182.327C142.361 181.458 139.365 179.715 139.365 177.703C139.365 174.826 145.501 172.493 153.071 172.493C154.662 172.49 156.251 172.598 157.828 172.816C163.051 173.551 166.774 175.462 166.774 177.703Z" fill="#A299FF"/>
<path d="M141.459 183.173C141.685 183.173 141.869 182.989 141.869 182.763C141.869 182.536 141.685 182.353 141.459 182.353C141.232 182.353 141.049 182.536 141.049 182.763C141.049 182.989 141.232 183.173 141.459 183.173Z" fill="white"/>
<path d="M143.771 184.142C143.998 184.142 144.181 183.959 144.181 183.732C144.181 183.506 143.998 183.322 143.771 183.322C143.545 183.322 143.361 183.506 143.361 183.732C143.361 183.959 143.545 184.142 143.771 184.142Z" fill="white"/>
<path d="M146.088 184.905C146.314 184.905 146.498 184.721 146.498 184.495C146.498 184.269 146.314 184.085 146.088 184.085C145.861 184.085 145.678 184.269 145.678 184.495C145.678 184.721 145.861 184.905 146.088 184.905Z" fill="white"/>
<path d="M141.459 192.458C141.685 192.458 141.869 192.274 141.869 192.048C141.869 191.821 141.685 191.638 141.459 191.638C141.232 191.638 141.049 191.821 141.049 192.048C141.049 192.274 141.232 192.458 141.459 192.458Z" fill="white"/>
<path d="M143.771 193.426C143.998 193.426 144.181 193.243 144.181 193.016C144.181 192.79 143.998 192.606 143.771 192.606C143.545 192.606 143.361 192.79 143.361 193.016C143.361 193.243 143.545 193.426 143.771 193.426Z" fill="white"/>
<path d="M146.088 194.188C146.314 194.188 146.498 194.005 146.498 193.778C146.498 193.552 146.314 193.368 146.088 193.368C145.861 193.368 145.678 193.552 145.678 193.778C145.678 194.005 145.861 194.188 146.088 194.188Z" fill="white"/>
<path d="M141.459 201.74C141.685 201.74 141.869 201.556 141.869 201.33C141.869 201.103 141.685 200.92 141.459 200.92C141.232 200.92 141.049 201.103 141.049 201.33C141.049 201.556 141.232 201.74 141.459 201.74Z" fill="white"/>
<path d="M143.771 202.71C143.998 202.71 144.181 202.526 144.181 202.3C144.181 202.073 143.998 201.89 143.771 201.89C143.545 201.89 143.361 202.073 143.361 202.3C143.361 202.526 143.545 202.71 143.771 202.71Z" fill="white"/>
<path d="M146.088 203.472C146.314 203.472 146.498 203.289 146.498 203.062C146.498 202.836 146.314 202.652 146.088 202.652C145.861 202.652 145.678 202.836 145.678 203.062C145.678 203.289 145.861 203.472 146.088 203.472Z" fill="white"/>
</g>
<path d="M59.4258 29.0029C58.8735 29.0029 58.4258 29.4506 58.4258 30.0029C58.4258 30.5552 58.8735 31.0029 59.4258 31.0029V29.0029ZM126.157 190.007C126.547 189.616 126.547 188.983 126.157 188.593L119.793 182.229C119.402 181.838 118.769 181.838 118.378 182.229C117.988 182.619 117.988 183.252 118.378 183.643L124.035 189.3L118.378 194.957C117.988 195.347 117.988 195.98 118.378 196.371C118.769 196.761 119.402 196.761 119.793 196.371L126.157 190.007ZM59.4258 31.0029H68.4376V29.0029H59.4258V31.0029ZM91.4376 54.0029V165.3H93.4376V54.0029H91.4376ZM116.438 190.3H125.449V188.3H116.438V190.3ZM91.4376 165.3C91.4376 179.107 102.63 190.3 116.438 190.3V188.3C103.735 188.3 93.4376 178.002 93.4376 165.3H91.4376ZM68.4376 31.0029C81.1402 31.0029 91.4376 41.3004 91.4376 54.0029H93.4376C93.4376 40.1958 82.2447 29.0029 68.4376 29.0029V31.0029Z" fill="#67778E"/>
<path d="M34.6523 110C34.6523 104.477 39.1295 100 44.6523 100H139.652C145.175 100 149.652 104.477 149.652 110C149.652 115.523 145.175 120 139.652 120H44.6523C39.1295 120 34.6523 115.523 34.6523 110Z" fill="#67778E"/>
<path d="M47.8838 111.406H49.4897C49.4575 111.932 49.3125 112.399 49.0547 112.808C48.8005 113.216 48.4442 113.535 47.9858 113.764C47.5311 113.993 46.9832 114.107 46.3423 114.107C45.841 114.107 45.3916 114.021 44.9941 113.85C44.5967 113.674 44.2565 113.424 43.9736 113.098C43.6943 112.772 43.4813 112.378 43.3345 111.916C43.1877 111.454 43.1143 110.937 43.1143 110.364V109.821C43.1143 109.248 43.1895 108.731 43.3398 108.269C43.4938 107.804 43.7122 107.408 43.9951 107.082C44.2816 106.756 44.6235 106.506 45.021 106.33C45.4185 106.155 45.8625 106.067 46.353 106.067C47.0047 106.067 47.5544 106.185 48.002 106.421C48.4531 106.658 48.8022 106.984 49.0493 107.399C49.3 107.814 49.4504 108.287 49.5005 108.817H47.8892C47.8713 108.502 47.8086 108.235 47.7012 108.017C47.5938 107.795 47.4308 107.628 47.2124 107.517C46.9976 107.403 46.7111 107.345 46.353 107.345C46.0845 107.345 45.8499 107.395 45.6494 107.496C45.4489 107.596 45.2806 107.748 45.1445 107.952C45.0085 108.156 44.9064 108.414 44.8384 108.726C44.7739 109.034 44.7417 109.395 44.7417 109.811V110.364C44.7417 110.768 44.7721 111.125 44.833 111.433C44.8939 111.737 44.987 111.995 45.1123 112.206C45.2412 112.414 45.4059 112.571 45.6064 112.679C45.8105 112.783 46.0558 112.834 46.3423 112.834C46.6789 112.834 46.9564 112.781 47.1748 112.673C47.3932 112.566 47.5597 112.407 47.6743 112.195C47.7925 111.984 47.8623 111.721 47.8838 111.406ZM50.5919 106.18H53.5084C54.1063 106.18 54.6202 106.269 55.0499 106.448C55.4831 106.627 55.8161 106.892 56.0489 107.243C56.2816 107.594 56.398 108.026 56.398 108.538C56.398 108.957 56.3264 109.316 56.1832 109.617C56.0435 109.914 55.8448 110.163 55.587 110.364C55.3327 110.561 55.0337 110.718 54.69 110.836L54.1797 111.105H51.6446L51.6338 109.848H53.5191C53.802 109.848 54.0365 109.798 54.2227 109.698C54.4089 109.597 54.5486 109.458 54.6417 109.279C54.7383 109.1 54.7867 108.892 54.7867 108.656C54.7867 108.405 54.7401 108.188 54.647 108.006C54.5539 107.823 54.4125 107.684 54.2227 107.587C54.0329 107.49 53.7948 107.442 53.5084 107.442H52.2032V114H50.5919V106.18ZM54.9639 114L53.1807 110.514L54.8834 110.503L56.688 113.925V114H54.9639ZM62.9303 112.743V114H58.7677V112.743H62.9303ZM59.2941 106.18V114H57.6827V106.18H59.2941ZM62.3878 109.365V110.589H58.7677V109.365H62.3878ZM62.9249 106.18V107.442H58.7677V106.18H62.9249ZM67.0939 107.517L64.967 114H63.2536L66.1593 106.18H67.2497L67.0939 107.517ZM68.861 114L66.7287 107.517L66.5568 106.18H67.6579L70.5798 114H68.861ZM68.7643 111.089V112.351H64.634V111.089H68.7643ZM74.1794 106.18V114H72.5735V106.18H74.1794ZM76.5857 106.18V107.442H70.2048V106.18H76.5857ZM82.7957 112.743V114H78.6331V112.743H82.7957ZM79.1595 106.18V114H77.5481V106.18H79.1595ZM82.2532 109.365V110.589H78.6331V109.365H82.2532ZM82.7903 106.18V107.442H78.6331V106.18H82.7903ZM88.9638 114H87.2611L87.2719 112.743H88.9638C89.3863 112.743 89.7426 112.648 90.0326 112.458C90.3226 112.265 90.5411 111.984 90.6879 111.615C90.8383 111.246 90.9135 110.801 90.9135 110.278V109.896C90.9135 109.495 90.8705 109.143 90.7846 108.838C90.7022 108.534 90.5787 108.278 90.414 108.07C90.2492 107.863 90.0469 107.707 89.807 107.603C89.5671 107.496 89.2914 107.442 88.9799 107.442H87.2289V106.18H88.9799C89.5027 106.18 89.9807 106.269 90.414 106.448C90.8508 106.624 91.2286 106.876 91.5473 107.206C91.8659 107.535 92.1112 107.929 92.2831 108.387C92.4586 108.842 92.5463 109.349 92.5463 109.907V110.278C92.5463 110.833 92.4586 111.34 92.2831 111.798C92.1112 112.256 91.8659 112.65 91.5473 112.979C91.2322 113.305 90.8544 113.558 90.414 113.737C89.9771 113.912 89.4937 114 88.9638 114ZM88.1742 106.18V114H86.5629V106.18H88.1742ZM96.8227 107.517L94.6958 114H92.9824L95.8881 106.18H96.9785L96.8227 107.517ZM98.5898 114L96.4575 107.517L96.2856 106.18H97.3867L100.309 114H98.5898ZM98.4931 111.089V112.351H94.3627V111.089H98.4931ZM103.908 106.18V114H102.302V106.18H103.908ZM106.314 106.18V107.442H99.9336V106.18H106.314ZM109.877 107.517L107.75 114H106.036L108.942 106.18H110.032L109.877 107.517ZM111.644 114L109.511 107.517L109.339 106.18H110.44L113.362 114H111.644ZM111.547 111.089V112.351H107.417V111.089H111.547ZM117.193 110.568H115.184L115.173 109.461H116.86C117.157 109.461 117.401 109.424 117.59 109.349C117.78 109.27 117.922 109.157 118.015 109.01C118.111 108.86 118.16 108.677 118.16 108.462C118.16 108.219 118.113 108.022 118.02 107.872C117.931 107.721 117.789 107.612 117.596 107.544C117.406 107.476 117.161 107.442 116.86 107.442H115.743V114H114.131V106.18H116.86C117.315 106.18 117.721 106.223 118.079 106.309C118.441 106.395 118.747 106.525 118.998 106.701C119.248 106.876 119.44 107.098 119.572 107.367C119.705 107.632 119.771 107.947 119.771 108.312C119.771 108.634 119.698 108.931 119.551 109.204C119.408 109.476 119.18 109.698 118.869 109.87C118.561 110.042 118.158 110.136 117.66 110.154L117.193 110.568ZM117.123 114H114.744L115.372 112.743H117.123C117.406 112.743 117.637 112.698 117.816 112.609C117.995 112.516 118.128 112.39 118.213 112.233C118.299 112.075 118.342 111.895 118.342 111.69C118.342 111.461 118.303 111.263 118.224 111.094C118.149 110.926 118.027 110.797 117.859 110.708C117.691 110.614 117.469 110.568 117.193 110.568H115.641L115.651 109.461H117.585L117.956 109.896C118.432 109.889 118.815 109.973 119.105 110.149C119.399 110.321 119.612 110.545 119.744 110.82C119.88 111.096 119.948 111.391 119.948 111.707C119.948 112.208 119.839 112.63 119.621 112.974C119.402 113.314 119.082 113.57 118.659 113.742C118.24 113.914 117.728 114 117.123 114ZM124.381 107.517L122.254 114H120.54L123.446 106.18H124.536L124.381 107.517ZM126.148 114L124.015 107.517L123.843 106.18H124.945L127.866 114H126.148ZM126.051 111.089V112.351H121.921V111.089H126.051ZM132.707 111.954C132.707 111.814 132.685 111.689 132.642 111.578C132.603 111.463 132.528 111.359 132.417 111.266C132.306 111.169 132.15 111.075 131.949 110.981C131.749 110.888 131.489 110.792 131.171 110.691C130.816 110.577 130.48 110.448 130.161 110.305C129.846 110.161 129.566 109.995 129.323 109.805C129.083 109.612 128.893 109.388 128.754 109.134C128.618 108.88 128.55 108.584 128.55 108.248C128.55 107.922 128.621 107.626 128.764 107.361C128.908 107.093 129.108 106.864 129.366 106.674C129.624 106.48 129.928 106.332 130.279 106.228C130.634 106.124 131.022 106.072 131.445 106.072C132.021 106.072 132.524 106.176 132.954 106.384C133.384 106.591 133.717 106.876 133.953 107.238C134.193 107.599 134.313 108.013 134.313 108.479H132.712C132.712 108.249 132.664 108.049 132.567 107.877C132.474 107.701 132.331 107.564 132.137 107.463C131.948 107.363 131.708 107.313 131.418 107.313C131.138 107.313 130.906 107.356 130.719 107.442C130.533 107.524 130.394 107.637 130.301 107.78C130.207 107.92 130.161 108.077 130.161 108.253C130.161 108.385 130.193 108.505 130.258 108.613C130.326 108.72 130.426 108.82 130.558 108.914C130.691 109.007 130.854 109.094 131.047 109.177C131.24 109.259 131.464 109.34 131.718 109.418C132.145 109.547 132.519 109.692 132.841 109.854C133.167 110.015 133.439 110.195 133.657 110.396C133.876 110.597 134.041 110.824 134.152 111.078C134.263 111.332 134.318 111.621 134.318 111.943C134.318 112.283 134.252 112.587 134.119 112.856C133.987 113.125 133.795 113.352 133.545 113.538C133.294 113.724 132.995 113.866 132.648 113.962C132.3 114.059 131.912 114.107 131.482 114.107C131.095 114.107 130.714 114.057 130.338 113.957C129.962 113.853 129.62 113.697 129.312 113.49C129.008 113.282 128.764 113.017 128.582 112.695C128.399 112.373 128.308 111.991 128.308 111.551H129.925C129.925 111.794 129.962 112 130.037 112.168C130.113 112.337 130.218 112.473 130.354 112.577C130.494 112.681 130.659 112.756 130.848 112.802C131.042 112.849 131.253 112.872 131.482 112.872C131.761 112.872 131.991 112.833 132.17 112.754C132.352 112.675 132.487 112.566 132.572 112.426C132.662 112.287 132.707 112.129 132.707 111.954ZM140.705 112.743V114H136.543V112.743H140.705ZM137.069 106.18V114H135.458V106.18H137.069ZM140.163 109.365V110.589H136.543V109.365H140.163ZM140.7 106.18V107.442H136.543V106.18H140.7Z" fill="white"/>
<path d="M74.6387 64.5576C74.6387 64.2511 74.6536 63.9482 74.6826 63.6497L73.9361 63.5771C74.0006 62.9149 74.1296 62.2717 74.3168 61.6538L75.0346 61.8713C75.2117 61.2867 75.4452 60.7265 75.7288 60.1969L75.0677 59.8428C75.3781 59.2632 75.744 58.7178 76.1583 58.2136L76.7378 58.6897C77.1225 58.2214 77.5524 57.7915 78.0208 57.4067L77.5446 56.8272C78.0488 56.413 78.5943 56.0471 79.1739 55.7366L79.528 56.3978C80.0575 56.1141 80.6177 55.8806 81.2023 55.7035L80.9848 54.9857C81.6028 54.7985 82.246 54.6695 82.9081 54.6051L82.9808 55.3516C83.2793 55.3225 83.5821 55.3076 83.8887 55.3076H84.9512V54.5576H87.0762V55.3076H89.2012V54.5576H91.3262V55.3076H93.4512V54.5576H95.5762V55.3076H97.7012V54.5576H99.8262V55.3076H100.889C101.195 55.3076 101.498 55.3225 101.797 55.3516L101.869 54.6051C102.531 54.6695 103.175 54.7985 103.793 54.9857L103.575 55.7035C104.16 55.8806 104.72 56.1141 105.249 56.3978L105.603 55.7366C106.183 56.0471 106.729 56.413 107.233 56.8272L106.757 57.4067C107.225 57.7915 107.655 58.2214 108.04 58.6897L108.619 58.2136C109.033 58.7178 109.399 59.2632 109.71 59.8428L109.049 60.1969C109.332 60.7265 109.566 61.2867 109.743 61.8713L110.461 61.6538C110.648 62.2717 110.777 62.9149 110.841 63.5771L110.095 63.6497C110.124 63.9482 110.139 64.2511 110.139 64.5576C110.139 64.8642 110.124 65.167 110.095 65.4655L110.841 65.5382C110.777 66.2003 110.648 66.8435 110.461 67.4614L109.743 67.244C109.566 67.8286 109.332 68.3888 109.049 68.9183L109.71 69.2724C109.399 69.852 109.033 70.3975 108.619 70.9016L108.04 70.4255C107.655 70.8939 107.225 71.3237 106.757 71.7085L107.233 72.288C106.729 72.7023 106.183 73.0682 105.603 73.3786L105.249 72.7175C104.72 73.0011 104.16 73.2346 103.575 73.4117L103.793 74.1295C103.175 74.3167 102.531 74.4457 101.869 74.5102L101.797 73.7637C101.498 73.7927 101.195 73.8076 100.889 73.8076H99.8262V74.5576H97.7012V73.8076H95.5762V74.5576H93.4512V73.8076H91.3262V74.5576H89.2012V73.8076H87.0762V74.5576H84.9512V73.8076H83.8887C83.5821 73.8076 83.2793 73.7927 82.9808 73.7637L82.9081 74.5102C82.246 74.4457 81.6028 74.3167 80.9848 74.1295L81.2023 73.4117C80.6177 73.2346 80.0575 73.0011 79.528 72.7175L79.1739 73.3786C78.5943 73.0682 78.0488 72.7023 77.5446 72.288L78.0208 71.7085C77.5524 71.3237 77.1225 70.8939 76.7378 70.4255L76.1583 70.9016C75.744 70.3975 75.3781 69.852 75.0677 69.2724L75.7288 68.9183C75.4452 68.3888 75.2117 67.8286 75.0346 67.244L74.3168 67.4614C74.1296 66.8435 74.0006 66.2003 73.9361 65.5382L74.6826 65.4655C74.6536 65.167 74.6387 64.8642 74.6387 64.5576Z" fill="white"/>
<path d="M74.6387 64.5576C74.6387 64.2511 74.6536 63.9482 74.6826 63.6497L73.9361 63.5771C74.0006 62.9149 74.1296 62.2717 74.3168 61.6538L75.0346 61.8713C75.2117 61.2867 75.4452 60.7265 75.7288 60.1969L75.0677 59.8428C75.3781 59.2632 75.744 58.7178 76.1583 58.2136L76.7378 58.6897C77.1225 58.2214 77.5524 57.7915 78.0208 57.4067L77.5446 56.8272C78.0488 56.413 78.5943 56.0471 79.1739 55.7366L79.528 56.3978C80.0575 56.1141 80.6177 55.8806 81.2023 55.7035L80.9848 54.9857C81.6028 54.7985 82.246 54.6695 82.9081 54.6051L82.9808 55.3516C83.2793 55.3225 83.5821 55.3076 83.8887 55.3076H84.9512V54.5576H87.0762V55.3076H89.2012V54.5576H91.3262V55.3076H93.4512V54.5576H95.5762V55.3076H97.7012V54.5576H99.8262V55.3076H100.889C101.195 55.3076 101.498 55.3225 101.797 55.3516L101.869 54.6051C102.531 54.6695 103.175 54.7985 103.793 54.9857L103.575 55.7035C104.16 55.8806 104.72 56.1141 105.249 56.3978L105.603 55.7366C106.183 56.0471 106.729 56.413 107.233 56.8272L106.757 57.4067C107.225 57.7915 107.655 58.2214 108.04 58.6897L108.619 58.2136C109.033 58.7178 109.399 59.2632 109.71 59.8428L109.049 60.1969C109.332 60.7265 109.566 61.2867 109.743 61.8713L110.461 61.6538C110.648 62.2717 110.777 62.9149 110.841 63.5771L110.095 63.6497C110.124 63.9482 110.139 64.2511 110.139 64.5576C110.139 64.8642 110.124 65.167 110.095 65.4655L110.841 65.5382C110.777 66.2003 110.648 66.8435 110.461 67.4614L109.743 67.244C109.566 67.8286 109.332 68.3888 109.049 68.9183L109.71 69.2724C109.399 69.852 109.033 70.3975 108.619 70.9016L108.04 70.4255C107.655 70.8939 107.225 71.3237 106.757 71.7085L107.233 72.288C106.729 72.7023 106.183 73.0682 105.603 73.3786L105.249 72.7175C104.72 73.0011 104.16 73.2346 103.575 73.4117L103.793 74.1295C103.175 74.3167 102.531 74.4457 101.869 74.5102L101.797 73.7637C101.498 73.7927 101.195 73.8076 100.889 73.8076H99.8262V74.5576H97.7012V73.8076H95.5762V74.5576H93.4512V73.8076H91.3262V74.5576H89.2012V73.8076H87.0762V74.5576H84.9512V73.8076H83.8887C83.5821 73.8076 83.2793 73.7927 82.9808 73.7637L82.9081 74.5102C82.246 74.4457 81.6028 74.3167 80.9848 74.1295L81.2023 73.4117C80.6177 73.2346 80.0575 73.0011 79.528 72.7175L79.1739 73.3786C78.5943 73.0682 78.0488 72.7023 77.5446 72.288L78.0208 71.7085C77.5524 71.3237 77.1225 70.8939 76.7378 70.4255L76.1583 70.9016C75.744 70.3975 75.3781 69.852 75.0677 69.2724L75.7288 68.9183C75.4452 68.3888 75.2117 67.8286 75.0346 67.244L74.3168 67.4614C74.1296 66.8435 74.0006 66.2003 73.9361 65.5382L74.6826 65.4655C74.6536 65.167 74.6387 64.8642 74.6387 64.5576Z" stroke="#67778E" stroke-width="1.5" stroke-dasharray="2 2"/>
<path d="M85.7505 66.1567V60.7373H87.3564V66.1567C87.3564 66.6795 87.2419 67.1289 87.0127 67.5049C86.7835 67.8773 86.4702 68.1637 86.0728 68.3643C85.6789 68.5648 85.2349 68.665 84.7407 68.665C84.2287 68.665 83.7757 68.5791 83.3818 68.4072C82.988 68.2354 82.6782 67.9722 82.4526 67.6177C82.2271 67.2596 82.1143 66.8066 82.1143 66.2588H83.731C83.731 66.5452 83.7703 66.7726 83.8491 66.9409C83.9315 67.1092 84.0479 67.2292 84.1982 67.3008C84.3486 67.3724 84.5295 67.4082 84.7407 67.4082C84.9448 67.4082 85.1221 67.3599 85.2725 67.2632C85.4229 67.1665 85.5392 67.0251 85.6216 66.8389C85.7075 66.6527 85.7505 66.4253 85.7505 66.1567ZM95.1993 64.4648V64.8354C95.1993 65.4299 95.1187 65.9634 94.9576 66.436C94.7964 66.9087 94.5691 67.3115 94.2754 67.6445C93.9818 67.974 93.6309 68.2264 93.2227 68.4019C92.8181 68.5773 92.3687 68.665 91.8746 68.665C91.384 68.665 90.9346 68.5773 90.5264 68.4019C90.1218 68.2264 89.7709 67.974 89.4737 67.6445C89.1765 67.3115 88.9455 66.9087 88.7808 66.436C88.6197 65.9634 88.5391 65.4299 88.5391 64.8354V64.4648C88.5391 63.8669 88.6197 63.3333 88.7808 62.8643C88.9419 62.3916 89.1693 61.9888 89.4629 61.6558C89.7601 61.3228 90.1111 61.0685 90.5157 60.8931C90.9239 60.7176 91.3733 60.6299 91.8638 60.6299C92.358 60.6299 92.8073 60.7176 93.212 60.8931C93.6202 61.0685 93.9711 61.3228 94.2647 61.6558C94.5619 61.9888 94.7911 62.3916 94.9522 62.8643C95.1169 63.3333 95.1993 63.8669 95.1993 64.4648ZM93.5718 64.8354V64.4541C93.5718 64.0387 93.5342 63.6735 93.459 63.3584C93.3838 63.0433 93.2728 62.7783 93.126 62.5635C92.9792 62.3486 92.8002 62.1875 92.5889 62.0801C92.3777 61.9691 92.136 61.9136 91.8638 61.9136C91.5917 61.9136 91.35 61.9691 91.1387 62.0801C90.931 62.1875 90.7538 62.3486 90.607 62.5635C90.4638 62.7783 90.3545 63.0433 90.2794 63.3584C90.2042 63.6735 90.1666 64.0387 90.1666 64.4541V64.8354C90.1666 65.2472 90.2042 65.6125 90.2794 65.9312C90.3545 66.2463 90.4655 66.513 90.6124 66.7314C90.7592 66.9463 90.9382 67.1092 91.1495 67.2202C91.3607 67.3312 91.6024 67.3867 91.8746 67.3867C92.1467 67.3867 92.3884 67.3312 92.5997 67.2202C92.8109 67.1092 92.9882 66.9463 93.1314 66.7314C93.2746 66.513 93.3838 66.2463 93.459 65.9312C93.5342 65.6125 93.5718 65.2472 93.5718 64.8354ZM99.465 65.1255H97.4562L97.4454 64.019H99.1319C99.4291 64.019 99.6726 63.9814 99.8624 63.9062C100.052 63.8275 100.194 63.7147 100.287 63.5679C100.383 63.4175 100.432 63.2349 100.432 63.02C100.432 62.7765 100.385 62.5796 100.292 62.4292C100.203 62.2788 100.061 62.1696 99.8678 62.1016C99.678 62.0335 99.4327 61.9995 99.1319 61.9995H98.0148V68.5576H96.4034V60.7373H99.1319C99.5867 60.7373 99.9931 60.7803 100.351 60.8662C100.713 60.9521 101.019 61.0828 101.27 61.2583C101.52 61.4338 101.712 61.6558 101.844 61.9243C101.977 62.1893 102.043 62.5044 102.043 62.8696C102.043 63.1919 101.97 63.4891 101.823 63.7612C101.68 64.0334 101.452 64.2554 101.141 64.4272C100.833 64.5991 100.43 64.694 99.9322 64.7119L99.465 65.1255ZM99.3951 68.5576H97.0157L97.6442 67.3008H99.3951C99.678 67.3008 99.909 67.256 100.088 67.1665C100.267 67.0734 100.4 66.9481 100.485 66.7905C100.571 66.633 100.614 66.4521 100.614 66.248C100.614 66.0189 100.575 65.8201 100.496 65.6519C100.421 65.4836 100.299 65.3547 100.131 65.2651C99.9627 65.172 99.7407 65.1255 99.465 65.1255H97.9127L97.9234 64.019H99.857L100.228 64.4541C100.704 64.4469 101.087 64.5311 101.377 64.7065C101.671 64.8784 101.884 65.1022 102.016 65.3779C102.152 65.6536 102.22 65.9491 102.22 66.2642C102.22 66.7655 102.111 67.188 101.893 67.5317C101.674 67.8719 101.354 68.1279 100.931 68.2998C100.512 68.4717 100 68.5576 99.3951 68.5576Z" fill="#67778E"/>
<defs>
<filter id="filter0_dd_23900_152279" x="0.0332031" y="0.556641" width="66.0547" height="62.8926" filterUnits="userSpaceOnUse" color-interpolation-filters="sRGB">
<feFlood flood-opacity="0" result="BackgroundImageFix"/>
<feColorMatrix in="SourceAlpha" type="matrix" values="0 0 0 0 0 0 0 0 0 0 0 0 0 0 0 0 0 0 127 0" result="hardAlpha"/>
<feMorphology radius="1" operator="erode" in="SourceAlpha" result="effect1_dropShadow_23900_152279"/>
<feOffset dy="2"/>
<feGaussianBlur stdDeviation="4"/>
<feColorMatrix type="matrix" values="0 0 0 0 0.105882 0 0 0 0 0.141176 0 0 0 0 0.172549 0 0 0 0.08 0"/>
<feBlend mode="normal" in2="BackgroundImageFix" result="effect1_dropShadow_23900_152279"/>
<feColorMatrix in="SourceAlpha" type="matrix" values="0 0 0 0 0 0 0 0 0 0 0 0 0 0 0 0 0 0 127 0" result="hardAlpha"/>
<feMorphology radius="1" operator="erode" in="SourceAlpha" result="effect2_dropShadow_23900_152279"/>
<feOffset dy="2"/>
<feGaussianBlur stdDeviation="1"/>
<feComposite in2="hardAlpha" operator="out"/>
<feColorMatrix type="matrix" values="0 0 0 0 0.105882 0 0 0 0 0.141176 0 0 0 0 0.172549 0 0 0 0.04 0"/>
<feBlend mode="normal" in2="effect1_dropShadow_23900_152279" result="effect2_dropShadow_23900_152279"/>
<feBlend mode="normal" in="SourceGraphic" in2="effect2_dropShadow_23900_152279" result="shape"/>
</filter>
<filter id="filter1_dd_23900_152279" x="121.949" y="159.854" width="62.8926" height="62.8926" filterUnits="userSpaceOnUse" color-interpolation-filters="sRGB">
<feFlood flood-opacity="0" result="BackgroundImageFix"/>
<feColorMatrix in="SourceAlpha" type="matrix" values="0 0 0 0 0 0 0 0 0 0 0 0 0 0 0 0 0 0 127 0" result="hardAlpha"/>
<feMorphology radius="1" operator="erode" in="SourceAlpha" result="effect1_dropShadow_23900_152279"/>
<feOffset dy="2"/>
<feGaussianBlur stdDeviation="4"/>
<feColorMatrix type="matrix" values="0 0 0 0 0.105882 0 0 0 0 0.141176 0 0 0 0 0.172549 0 0 0 0.08 0"/>
<feBlend mode="normal" in2="BackgroundImageFix" result="effect1_dropShadow_23900_152279"/>
<feColorMatrix in="SourceAlpha" type="matrix" values="0 0 0 0 0 0 0 0 0 0 0 0 0 0 0 0 0 0 127 0" result="hardAlpha"/>
<feMorphology radius="1" operator="erode" in="SourceAlpha" result="effect2_dropShadow_23900_152279"/>
<feOffset dy="2"/>
<feGaussianBlur stdDeviation="1"/>
<feComposite in2="hardAlpha" operator="out"/>
<feColorMatrix type="matrix" values="0 0 0 0 0.105882 0 0 0 0 0.141176 0 0 0 0 0.172549 0 0 0 0.04 0"/>
<feBlend mode="normal" in2="effect1_dropShadow_23900_152279" result="effect2_dropShadow_23900_152279"/>
<feBlend mode="normal" in="SourceGraphic" in2="effect2_dropShadow_23900_152279" result="shape"/>
</filter>
<clipPath id="clip0_23900_152279">
<rect width="36.6693" height="36.6693" fill="white" transform="translate(13.1445 11.668)"/>
</clipPath>
</defs>
</svg>
