<svg width="186" height="223" viewBox="0 0 186 223" fill="none" xmlns="http://www.w3.org/2000/svg">
<g filter="url(#filter0_dd_24068_48860)">
<path d="M56.7294 23.4453C58.417 23.4453 59.7852 24.8134 59.7852 26.5011L59.7852 32.6126C59.7852 34.3003 58.417 35.6684 56.7294 35.6684C55.0417 35.6684 53.6736 34.3003 53.6736 32.6126L53.6736 26.5011C53.6736 24.8134 55.0417 23.4453 56.7294 23.4453Z" fill="#67778E"/>
<path d="M8.11244 11.6682C8.11244 8.50384 10.6777 5.93861 13.842 5.93861H50.5113C53.6757 5.93861 56.2409 8.50383 56.2409 11.6682V48.3375C56.2409 51.5018 53.6757 54.0671 50.5113 54.0671H13.842C10.6777 54.0671 8.11244 51.5018 8.11244 48.3375V11.6682Z" fill="white"/>
<path d="M8.11244 11.6682C8.11244 8.50384 10.6777 5.93861 13.842 5.93861H50.5113C53.6757 5.93861 56.2409 8.50383 56.2409 11.6682V48.3375C56.2409 51.5018 53.6757 54.0671 50.5113 54.0671H13.842C10.6777 54.0671 8.11244 51.5018 8.11244 48.3375V11.6682Z" stroke="#C6D3E7" stroke-width="0.763944"/>
<g clip-path="url(#clip0_24068_48860)">
<path d="M32.0533 12.7076C31.7381 12.7235 31.4293 12.8017 31.145 12.9375L18.7496 18.8601C18.4288 19.0133 18.1469 19.2363 17.9249 19.5124C17.7029 19.7885 17.5465 20.1106 17.4672 20.4549L14.4092 33.7586C14.3385 34.0652 14.3306 34.3826 14.3859 34.6922C14.4412 35.0018 14.5585 35.2973 14.731 35.5611C14.7728 35.6256 14.8178 35.688 14.8657 35.7482L23.4453 46.4155C23.6673 46.6915 23.9493 46.9144 24.2701 47.0675C24.5909 47.2207 24.9424 47.3002 25.2985 47.3001L39.0571 47.297C39.4131 47.2972 39.7645 47.218 40.0853 47.0651C40.4061 46.9122 40.6881 46.6897 40.9103 46.414L49.4867 35.745C49.7089 35.4688 49.8655 35.1465 49.9448 34.8021C50.0241 34.4576 50.0241 34.0999 49.9448 33.7554L46.8821 20.4517C46.8029 20.1075 46.6464 19.7853 46.4244 19.5092C46.2024 19.2331 45.9205 19.0102 45.5997 18.857L33.2027 12.9374C32.845 12.7666 32.4498 12.6876 32.0533 12.7076Z" fill="#326CE5"/>
<path d="M32.176 17.2354C31.7663 17.2354 31.4341 17.6045 31.4341 18.0597C31.4341 18.0667 31.4355 18.0734 31.4356 18.0803C31.4351 18.1422 31.4321 18.2167 31.4341 18.2705C31.4438 18.5331 31.5011 18.7341 31.5356 18.976C31.598 19.4938 31.6502 19.923 31.618 20.3219C31.5865 20.4723 31.4758 20.6099 31.377 20.7055L31.3596 21.0194C30.9082 21.0566 30.4601 21.1254 30.0184 21.2255C28.092 21.6629 26.4334 22.6552 25.1706 23.995C25.0805 23.9328 24.9912 23.8694 24.9027 23.8048C24.7702 23.8227 24.6364 23.8636 24.462 23.7619C24.13 23.5385 23.8276 23.23 23.4617 22.8584C23.294 22.6806 23.1726 22.5113 22.9734 22.34C22.9282 22.3011 22.8592 22.2484 22.8085 22.2084C22.6528 22.0842 22.4692 22.0195 22.2918 22.0134C22.0637 22.0056 21.8441 22.0948 21.7005 22.275C21.445 22.5953 21.5268 23.085 21.8827 23.3688C21.8863 23.3717 21.8902 23.3739 21.8938 23.3768C21.9427 23.4164 22.0027 23.4672 22.0476 23.5004C22.259 23.6565 22.4521 23.7364 22.6627 23.8603C23.1064 24.1343 23.4743 24.3615 23.766 24.6355C23.88 24.7569 23.8999 24.9709 23.9151 25.0635L24.1529 25.2759C22.8799 27.1916 22.2907 29.5579 22.639 31.969L22.3282 32.0593C22.2463 32.1651 22.1306 32.3315 22.0096 32.3812C21.6278 32.5014 21.1982 32.5455 20.6795 32.5999C20.436 32.6202 20.2259 32.6081 19.9677 32.657C19.9109 32.6677 19.8318 32.6884 19.7696 32.7029L19.7632 32.7046C19.7598 32.7053 19.7554 32.707 19.7521 32.7077C19.3148 32.8134 19.0339 33.2153 19.1243 33.6113C19.2148 34.0074 19.6419 34.2483 20.0819 34.1535C20.085 34.1528 20.0897 34.1526 20.093 34.1519C20.0979 34.1508 20.1023 34.1484 20.1072 34.1472C20.1686 34.1337 20.2454 34.1187 20.2991 34.1044C20.5529 34.0364 20.7367 33.9366 20.9649 33.8491C21.4557 33.6731 21.8623 33.526 22.2585 33.4686C22.4239 33.4557 22.5982 33.5707 22.6849 33.6193L23.0083 33.5638C23.7525 35.8711 25.3121 37.736 27.287 38.9062L27.1522 39.2296C27.2008 39.3551 27.2544 39.525 27.2182 39.6491C27.0742 40.0225 26.8275 40.4167 26.5467 40.8561C26.4107 41.0591 26.2715 41.2167 26.1487 41.449C26.1194 41.5046 26.082 41.59 26.0536 41.6487C25.8629 42.0567 26.0028 42.5266 26.3691 42.703C26.7377 42.8804 27.1952 42.6932 27.3932 42.2844C27.3935 42.2838 27.3945 42.2834 27.3947 42.2828C27.395 42.2824 27.3945 42.2817 27.3947 42.2813C27.423 42.2233 27.4629 42.1471 27.4867 42.0926C27.5918 41.8518 27.6268 41.6454 27.7007 41.4125C27.8971 40.9194 28.0049 40.402 28.2751 40.0797C28.3491 39.9914 28.4697 39.9574 28.5948 39.9239L28.7629 39.6195C30.4845 40.2804 32.4117 40.4577 34.3367 40.0207C34.7694 39.9223 35.1947 39.7941 35.6097 39.637C35.6569 39.7208 35.7447 39.8818 35.7682 39.9223C35.8954 39.9637 36.0341 39.9851 36.1471 40.1522C36.3493 40.4977 36.4875 40.9063 36.656 41.3998C36.7299 41.6327 36.7665 41.8391 36.8716 42.0799C36.8955 42.1348 36.9353 42.2121 36.9635 42.2701C37.1611 42.6803 37.6201 42.8681 37.9893 42.6903C38.3555 42.5138 38.4955 42.044 38.3047 41.636C38.2763 41.5773 38.2374 41.4919 38.208 41.4363C38.0852 41.204 37.9461 41.048 37.8101 40.845C37.5292 40.4056 37.2962 40.0405 37.1522 39.6671C37.092 39.4745 37.1623 39.3547 37.2093 39.2296C37.1811 39.1974 37.121 39.0155 37.0856 38.93C39.138 37.7181 40.6518 35.7837 41.3627 33.5495C41.4587 33.5646 41.6256 33.5942 41.6797 33.605C41.7914 33.5315 41.8939 33.4354 42.0951 33.4512C42.4912 33.5085 42.8978 33.6557 43.3887 33.8317C43.6169 33.9191 43.8007 34.0206 44.0545 34.0885C44.1082 34.1029 44.185 34.1163 44.2463 34.1297C44.2513 34.1309 44.2556 34.1334 44.2606 34.1345C44.2639 34.1352 44.2685 34.1353 44.2717 34.1361C44.7116 34.2308 45.1389 33.99 45.2292 33.5939C45.3195 33.1979 45.0388 32.7958 44.6014 32.6903C44.5378 32.6758 44.4476 32.6513 44.3858 32.6396C44.1276 32.5907 43.9176 32.6027 43.6741 32.5825C43.1554 32.5281 42.7257 32.4839 42.344 32.3637C42.1884 32.3034 42.0776 32.1181 42.0237 32.0419L41.7241 31.9547C41.8795 30.8308 41.8376 29.6612 41.5688 28.4909C41.2975 27.3097 40.818 26.2294 40.1785 25.2775C40.2553 25.2076 40.4005 25.0791 40.4417 25.0413C40.4537 24.9082 40.4433 24.7686 40.5812 24.6212C40.8729 24.3473 41.2408 24.12 41.6845 23.846C41.8951 23.7221 42.0898 23.6422 42.3012 23.4861C42.349 23.4508 42.4143 23.3949 42.4645 23.3545C42.8203 23.0707 42.9023 22.581 42.6468 22.2607C42.3913 21.9404 41.8962 21.9102 41.5402 22.1941C41.4896 22.2342 41.4209 22.2866 41.3754 22.3257C41.1762 22.4971 41.0532 22.6663 40.8855 22.8441C40.5196 23.2157 40.2172 23.5258 39.8852 23.7493C39.7413 23.833 39.5306 23.8041 39.435 23.7984L39.1528 23.9998C37.5437 22.3125 35.353 21.2338 32.994 21.0242C32.9874 20.9253 32.9788 20.7467 32.9766 20.6928C32.88 20.6005 32.7633 20.5216 32.734 20.3219C32.7017 19.923 32.7556 19.4938 32.818 18.976C32.8525 18.7341 32.9097 18.5332 32.9195 18.2705C32.9217 18.2109 32.9181 18.1242 32.9179 18.0597C32.9179 17.6045 32.5858 17.2354 32.176 17.2354ZM31.247 22.99L31.0266 26.8818L31.0108 26.8897C30.996 27.2379 30.7095 27.5159 30.3577 27.5159C30.2136 27.5159 30.0805 27.4696 29.9724 27.3907L29.9661 27.3938L26.7749 25.1316C27.7557 24.1673 29.0102 23.4545 30.4559 23.1263C30.7171 23.0673 30.9812 23.0218 31.247 22.99ZM33.1065 22.99C34.7945 23.1975 36.3555 23.9619 37.5517 25.1333L34.3811 27.3812L34.37 27.3764C34.0886 27.5819 33.6921 27.531 33.4728 27.256C33.386 27.1481 33.3361 27.0153 33.3301 26.877L33.3269 26.8755L33.1065 22.99ZM25.6177 26.5854L28.5314 29.1916L28.5282 29.2074C28.7913 29.436 28.8301 29.8328 28.6107 30.1078C28.5242 30.2165 28.4054 30.2948 28.2714 30.3314L28.2683 30.344L24.5333 31.422C24.3432 29.6838 24.7529 27.9941 25.6177 26.5854ZM38.7137 26.5869C39.1466 27.2886 39.4745 28.0724 39.6696 28.9221C39.8624 29.7615 39.9108 30.5995 39.8313 31.4094L36.0774 30.3282L36.0742 30.3123C35.7381 30.2205 35.5314 29.8786 35.6097 29.5356C35.6402 29.4007 35.7129 29.279 35.8174 29.1884L35.8158 29.1805L38.7137 26.5869V26.5869ZM31.5783 29.3929H32.7721L33.514 30.3203L33.2477 31.4775L32.176 31.9927L31.1012 31.476L30.8348 30.3187L31.5783 29.3929ZM35.4052 32.5666C35.456 32.5641 35.5064 32.5687 35.5558 32.5777L35.5622 32.5698L39.4255 33.2229C38.8601 34.8114 37.7782 36.1875 36.3326 37.1085L34.8329 33.4861L34.8377 33.4798C34.6999 33.1597 34.8378 32.7843 35.1547 32.6316C35.2359 32.5926 35.3207 32.5709 35.4052 32.5666ZM28.9167 32.5825C29.2115 32.5866 29.4759 32.7913 29.5444 33.0914C29.5765 33.2319 29.5609 33.371 29.5079 33.494L29.5191 33.5083L28.0353 37.0942C26.6479 36.204 25.5429 34.8711 24.9518 33.2356L28.7819 32.5857L28.7882 32.5936C28.8311 32.5857 28.8745 32.5819 28.9167 32.5825ZM32.1522 34.1535C32.2579 34.1499 32.363 34.1721 32.4582 34.2185C32.588 34.281 32.6883 34.3795 32.7514 34.4975H32.7657L34.6538 37.909C34.4059 37.9919 34.1541 38.0622 33.8992 38.1199C32.4552 38.4478 31.0158 38.3484 29.7125 37.9043L31.5958 34.4991H31.599C31.6529 34.3982 31.7324 34.3132 31.8295 34.2525C31.9266 34.1919 32.0378 34.1577 32.1522 34.1535L32.1522 34.1535Z" fill="white" stroke="white" stroke-width="0.14494"/>
</g>
</g>
<g filter="url(#filter1_dd_24068_48860)">
<path d="M130.028 170.965C130.028 167.801 132.594 165.235 135.758 165.235H172.427C175.592 165.235 178.157 167.801 178.157 170.965V207.634C178.157 210.799 175.592 213.364 172.427 213.364H135.758C132.594 213.364 130.028 210.799 130.028 207.634V170.965Z" fill="white"/>
<path d="M130.028 170.965C130.028 167.801 132.594 165.235 135.758 165.235H172.427C175.592 165.235 178.157 167.801 178.157 170.965V207.634C178.157 210.799 175.592 213.364 172.427 213.364H135.758C132.594 213.364 130.028 210.799 130.028 207.634V170.965Z" stroke="#C6D3E7" stroke-width="0.763944"/>
<path d="M167.471 196.198V200.897C167.471 203.774 161.335 206.107 153.765 206.107C148.162 206.107 143.345 204.829 141.22 202.998C140.475 202.355 140.061 201.644 140.061 200.895V196.198H167.471Z" fill="#7366FF"/>
<path d="M167.472 196.198C167.472 197.515 166.188 198.718 164.07 199.635C161.558 200.722 157.874 201.408 153.768 201.408C146.199 201.408 140.062 199.076 140.062 196.198C140.062 195.383 140.556 194.611 141.435 193.924C142.722 192.917 144.838 192.091 147.446 191.575C149.337 191.201 151.487 190.989 153.767 190.989C156.047 190.989 158.197 191.203 160.09 191.575C161.514 191.857 162.792 192.231 163.867 192.677C164.762 193.047 165.515 193.467 166.1 193.923C166.98 194.611 167.472 195.383 167.472 196.198Z" fill="#A299FF"/>
<path d="M167.472 186.951V191.648C167.472 192.464 166.979 193.236 166.1 193.923C165.575 194.334 164.913 194.714 164.135 195.056C163.094 195.513 161.847 195.901 160.449 196.198C158.472 196.619 156.193 196.86 153.767 196.86C151.341 196.86 149.063 196.621 147.086 196.198C144.644 195.679 142.663 194.884 141.435 193.923C140.558 193.236 140.062 192.464 140.062 191.648V186.951H167.472Z" fill="#7366FF"/>
<path d="M167.472 186.95C167.472 188.318 166.084 189.563 163.815 190.493C162.75 190.929 161.49 191.296 160.089 191.573C158.197 191.948 156.047 192.16 153.767 192.16C151.487 192.16 149.337 191.948 147.446 191.573C143.059 190.705 140.062 188.96 140.062 186.95C140.062 186.132 140.556 185.362 141.435 184.675C142.722 183.668 144.838 182.842 147.446 182.326C149.337 181.952 151.487 181.739 153.767 181.739C156.047 181.739 158.196 181.952 160.089 182.326C161.671 182.638 163.072 183.066 164.216 183.579C164.958 183.911 165.593 184.28 166.099 184.675C166.979 185.362 167.472 186.134 167.472 186.95Z" fill="#A299FF"/>
<path d="M167.472 177.703V182.402C167.472 183.217 166.979 183.989 166.1 184.677C165.42 185.208 164.509 185.689 163.416 186.101C162.45 186.458 161.458 186.743 160.449 186.951C158.472 187.372 156.193 187.611 153.767 187.611C151.341 187.611 149.063 187.372 147.086 186.951C144.644 186.432 142.663 185.637 141.435 184.677C140.558 183.988 140.062 183.216 140.062 182.402V177.703H167.472Z" fill="#7366FF"/>
<path d="M167.472 177.703C167.472 179.066 166.096 180.306 163.845 181.234C162.773 181.676 161.504 182.047 160.089 182.327C158.196 182.701 156.047 182.913 153.767 182.913C151.487 182.913 149.337 182.701 147.446 182.327C143.059 181.458 140.062 179.715 140.062 177.703C140.062 174.826 146.198 172.493 153.768 172.493C155.359 172.49 156.949 172.598 158.525 172.816C163.748 173.551 167.472 175.462 167.472 177.703Z" fill="#A299FF"/>
<path d="M142.156 183.173C142.383 183.173 142.566 182.989 142.566 182.763C142.566 182.536 142.383 182.353 142.156 182.353C141.93 182.353 141.746 182.536 141.746 182.763C141.746 182.989 141.93 183.173 142.156 183.173Z" fill="white"/>
<path d="M144.469 184.142C144.695 184.142 144.879 183.959 144.879 183.732C144.879 183.506 144.695 183.322 144.469 183.322C144.242 183.322 144.059 183.506 144.059 183.732C144.059 183.959 144.242 184.142 144.469 184.142Z" fill="white"/>
<path d="M146.785 184.905C147.011 184.905 147.195 184.721 147.195 184.495C147.195 184.269 147.011 184.085 146.785 184.085C146.559 184.085 146.375 184.269 146.375 184.495C146.375 184.721 146.559 184.905 146.785 184.905Z" fill="white"/>
<path d="M142.156 192.458C142.383 192.458 142.566 192.274 142.566 192.048C142.566 191.821 142.383 191.638 142.156 191.638C141.93 191.638 141.746 191.821 141.746 192.048C141.746 192.274 141.93 192.458 142.156 192.458Z" fill="white"/>
<path d="M144.469 193.426C144.695 193.426 144.879 193.242 144.879 193.016C144.879 192.79 144.695 192.606 144.469 192.606C144.242 192.606 144.059 192.79 144.059 193.016C144.059 193.242 144.242 193.426 144.469 193.426Z" fill="white"/>
<path d="M146.785 194.189C147.011 194.189 147.195 194.005 147.195 193.779C147.195 193.552 147.011 193.369 146.785 193.369C146.559 193.369 146.375 193.552 146.375 193.779C146.375 194.005 146.559 194.189 146.785 194.189Z" fill="white"/>
<path d="M142.156 201.74C142.383 201.74 142.566 201.556 142.566 201.33C142.566 201.103 142.383 200.92 142.156 200.92C141.93 200.92 141.746 201.103 141.746 201.33C141.746 201.556 141.93 201.74 142.156 201.74Z" fill="white"/>
<path d="M144.469 202.71C144.695 202.71 144.879 202.526 144.879 202.3C144.879 202.073 144.695 201.89 144.469 201.89C144.242 201.89 144.059 202.073 144.059 202.3C144.059 202.526 144.242 202.71 144.469 202.71Z" fill="white"/>
<path d="M146.785 203.472C147.011 203.472 147.195 203.289 147.195 203.062C147.195 202.836 147.011 202.652 146.785 202.652C146.559 202.652 146.375 202.836 146.375 203.062C146.375 203.289 146.559 203.472 146.785 203.472Z" fill="white"/>
</g>
<path d="M60.123 29.0029C59.5708 29.0029 59.123 29.4506 59.123 30.0029C59.123 30.5552 59.5708 31.0029 60.123 31.0029V29.0029ZM126.854 190.007C127.244 189.616 127.244 188.983 126.854 188.593L120.49 182.229C120.099 181.838 119.466 181.838 119.076 182.229C118.685 182.619 118.685 183.252 119.076 183.643L124.732 189.3L119.076 194.957C118.685 195.347 118.685 195.98 119.076 196.371C119.466 196.761 120.099 196.761 120.49 196.371L126.854 190.007ZM60.123 31.0029H69.1349V29.0029H60.123V31.0029ZM92.1349 54.0029V165.3H94.1349V54.0029H92.1349ZM117.135 190.3H126.147V188.3H117.135V190.3ZM92.1349 165.3C92.1349 179.107 103.328 190.3 117.135 190.3V188.3C104.432 188.3 94.1349 178.002 94.1349 165.3H92.1349ZM69.1349 31.0029C81.8374 31.0029 92.1349 41.3004 92.1349 54.0029H94.1349C94.1349 40.1958 82.942 29.0029 69.1349 29.0029V31.0029Z" fill="#67778E"/>
<path d="M35.3496 110C35.3496 104.477 39.8268 100 45.3496 100H140.35C145.872 100 150.35 104.477 150.35 110C150.35 115.523 145.872 120 140.35 120H45.3496C39.8268 120 35.3496 115.523 35.3496 110Z" fill="#67778E"/>
<path d="M48.5811 111.406H50.187C50.1548 111.932 50.0098 112.399 49.752 112.808C49.4977 113.216 49.1414 113.535 48.6831 113.764C48.2284 113.993 47.6805 114.107 47.0396 114.107C46.5382 114.107 46.0889 114.021 45.6914 113.85C45.2939 113.674 44.9538 113.424 44.6709 113.098C44.3916 112.772 44.1785 112.378 44.0317 111.916C43.8849 111.454 43.8115 110.937 43.8115 110.364V109.821C43.8115 109.248 43.8867 108.731 44.0371 108.269C44.1911 107.804 44.4095 107.408 44.6924 107.082C44.9788 106.756 45.3208 106.506 45.7183 106.33C46.1157 106.155 46.5597 106.067 47.0503 106.067C47.702 106.067 48.2516 106.185 48.6992 106.421C49.1504 106.658 49.4995 106.984 49.7466 107.399C49.9972 107.814 50.1476 108.287 50.1978 108.817H48.5864C48.5685 108.502 48.5059 108.235 48.3984 108.017C48.291 107.795 48.1281 107.628 47.9097 107.517C47.6948 107.403 47.4084 107.345 47.0503 107.345C46.7817 107.345 46.5472 107.395 46.3467 107.496C46.1462 107.596 45.9779 107.748 45.8418 107.952C45.7057 108.156 45.6037 108.414 45.5356 108.726C45.4712 109.034 45.439 109.395 45.439 109.811V110.364C45.439 110.768 45.4694 111.125 45.5303 111.433C45.5911 111.737 45.6842 111.995 45.8096 112.206C45.9385 112.414 46.1032 112.571 46.3037 112.679C46.5078 112.783 46.7531 112.834 47.0396 112.834C47.3761 112.834 47.6536 112.781 47.8721 112.673C48.0905 112.566 48.257 112.407 48.3716 112.195C48.4897 111.984 48.5596 111.721 48.5811 111.406ZM51.2891 106.18H54.2056C54.8036 106.18 55.3174 106.269 55.7471 106.448C56.1804 106.627 56.5134 106.892 56.7461 107.243C56.9789 107.594 57.0953 108.026 57.0953 108.538C57.0953 108.957 57.0237 109.316 56.8804 109.617C56.7408 109.914 56.542 110.163 56.2842 110.364C56.03 110.561 55.731 110.718 55.3873 110.836L54.877 111.105H52.3419L52.3311 109.848H54.2164C54.4992 109.848 54.7338 109.798 54.92 109.698C55.1062 109.597 55.2458 109.458 55.3389 109.279C55.4356 109.1 55.4839 108.892 55.4839 108.656C55.4839 108.405 55.4374 108.188 55.3443 108.006C55.2512 107.823 55.1098 107.684 54.92 107.587C54.7302 107.49 54.4921 107.442 54.2056 107.442H52.9004V114H51.2891V106.18ZM55.6612 114L53.878 110.514L55.5806 110.503L57.3853 113.925V114H55.6612ZM63.6276 112.743V114H59.465V112.743H63.6276ZM59.9913 106.18V114H58.38V106.18H59.9913ZM63.0851 109.365V110.589H59.465V109.365H63.0851ZM63.6222 106.18V107.442H59.465V106.18H63.6222ZM67.7912 107.517L65.6642 114H63.9508L66.8566 106.18H67.9469L67.7912 107.517ZM69.5583 114L67.4259 107.517L67.2541 106.18H68.3551L71.277 114H69.5583ZM69.4616 111.089V112.351H65.3312V111.089H69.4616ZM74.8767 106.18V114H73.2707V106.18H74.8767ZM77.2829 106.18V107.442H70.9021V106.18H77.2829ZM83.493 112.743V114H79.3304V112.743H83.493ZM79.8567 106.18V114H78.2454V106.18H79.8567ZM82.9505 109.365V110.589H79.3304V109.365H82.9505ZM83.4876 106.18V107.442H79.3304V106.18H83.4876ZM87.2601 106.18H90.1767C90.7746 106.18 91.2885 106.269 91.7182 106.448C92.1514 106.627 92.4844 106.892 92.7172 107.243C92.9499 107.594 93.0663 108.026 93.0663 108.538C93.0663 108.957 92.9947 109.316 92.8515 109.617C92.7118 109.914 92.5131 110.163 92.2553 110.364C92.001 110.561 91.702 110.718 91.3583 110.836L90.848 111.105H88.3129L88.3021 109.848H90.1874C90.4703 109.848 90.7048 109.798 90.891 109.698C91.0772 109.597 91.2169 109.458 91.31 109.279C91.4066 109.1 91.455 108.892 91.455 108.656C91.455 108.405 91.4084 108.188 91.3153 108.006C91.2222 107.823 91.0808 107.684 90.891 107.587C90.7012 107.49 90.4631 107.442 90.1767 107.442H88.8715V114H87.2601V106.18ZM91.6322 114L89.849 110.514L91.5517 110.503L93.3563 113.925V114H91.6322ZM99.5986 112.743V114H95.436V112.743H99.5986ZM95.9624 106.18V114H94.351V106.18H95.9624ZM99.0561 109.365V110.589H95.436V109.365H99.0561ZM99.5932 106.18V107.442H95.436V106.18H99.5932ZM104.654 111.954C104.654 111.814 104.632 111.689 104.589 111.578C104.55 111.463 104.475 111.359 104.364 111.266C104.253 111.169 104.097 111.075 103.896 110.981C103.696 110.888 103.436 110.792 103.118 110.691C102.763 110.577 102.427 110.448 102.108 110.305C101.793 110.161 101.514 109.995 101.27 109.805C101.03 109.612 100.84 109.388 100.701 109.134C100.565 108.88 100.497 108.584 100.497 108.248C100.497 107.922 100.568 107.626 100.711 107.361C100.855 107.093 101.055 106.864 101.313 106.674C101.571 106.48 101.875 106.332 102.226 106.228C102.581 106.124 102.969 106.072 103.392 106.072C103.968 106.072 104.471 106.176 104.901 106.384C105.331 106.591 105.664 106.876 105.9 107.238C106.14 107.599 106.26 108.013 106.26 108.479H104.659C104.659 108.249 104.611 108.049 104.514 107.877C104.421 107.701 104.278 107.564 104.084 107.463C103.895 107.363 103.655 107.313 103.365 107.313C103.085 107.313 102.853 107.356 102.667 107.442C102.48 107.524 102.341 107.637 102.248 107.78C102.154 107.92 102.108 108.077 102.108 108.253C102.108 108.385 102.14 108.505 102.205 108.613C102.273 108.72 102.373 108.82 102.505 108.914C102.638 109.007 102.801 109.094 102.994 109.177C103.188 109.259 103.411 109.34 103.666 109.418C104.092 109.547 104.466 109.692 104.788 109.854C105.114 110.015 105.386 110.195 105.604 110.396C105.823 110.597 105.988 110.824 106.099 111.078C106.21 111.332 106.265 111.621 106.265 111.943C106.265 112.283 106.199 112.587 106.066 112.856C105.934 113.125 105.742 113.352 105.492 113.538C105.241 113.724 104.942 113.866 104.595 113.962C104.247 114.059 103.859 114.107 103.429 114.107C103.042 114.107 102.661 114.057 102.285 113.957C101.909 113.853 101.567 113.697 101.259 113.49C100.955 113.282 100.711 113.017 100.529 112.695C100.346 112.373 100.255 111.991 100.255 111.551H101.872C101.872 111.794 101.909 112 101.984 112.168C102.06 112.337 102.165 112.473 102.301 112.577C102.441 112.681 102.606 112.756 102.795 112.802C102.989 112.849 103.2 112.872 103.429 112.872C103.708 112.872 103.938 112.833 104.117 112.754C104.299 112.675 104.434 112.566 104.52 112.426C104.609 112.287 104.654 112.129 104.654 111.954ZM113.829 109.907V110.278C113.829 110.872 113.748 111.406 113.587 111.878C113.426 112.351 113.198 112.754 112.905 113.087C112.611 113.416 112.26 113.669 111.852 113.844C111.447 114.02 110.998 114.107 110.504 114.107C110.013 114.107 109.564 114.02 109.156 113.844C108.751 113.669 108.4 113.416 108.103 113.087C107.806 112.754 107.575 112.351 107.41 111.878C107.249 111.406 107.169 110.872 107.169 110.278V109.907C107.169 109.309 107.249 108.776 107.41 108.307C107.571 107.834 107.799 107.431 108.092 107.098C108.39 106.765 108.74 106.511 109.145 106.335C109.553 106.16 110.003 106.072 110.493 106.072C110.987 106.072 111.437 106.16 111.841 106.335C112.25 106.511 112.6 106.765 112.894 107.098C113.191 107.431 113.42 107.834 113.582 108.307C113.746 108.776 113.829 109.309 113.829 109.907ZM112.201 110.278V109.896C112.201 109.481 112.164 109.116 112.088 108.801C112.013 108.486 111.902 108.221 111.755 108.006C111.609 107.791 111.43 107.63 111.218 107.522C111.007 107.411 110.765 107.356 110.493 107.356C110.221 107.356 109.979 107.411 109.768 107.522C109.56 107.63 109.383 107.791 109.236 108.006C109.093 108.221 108.984 108.486 108.909 108.801C108.834 109.116 108.796 109.481 108.796 109.896V110.278C108.796 110.69 108.834 111.055 108.909 111.374C108.984 111.689 109.095 111.955 109.242 112.174C109.389 112.389 109.568 112.552 109.779 112.663C109.99 112.774 110.232 112.829 110.504 112.829C110.776 112.829 111.018 112.774 111.229 112.663C111.44 112.552 111.618 112.389 111.761 112.174C111.904 111.955 112.013 111.689 112.088 111.374C112.164 111.055 112.201 110.69 112.201 110.278ZM119.351 106.18H120.957V111.347C120.957 111.948 120.828 112.455 120.57 112.867C120.316 113.278 119.963 113.588 119.512 113.796C119.065 114.004 118.549 114.107 117.965 114.107C117.382 114.107 116.863 114.004 116.408 113.796C115.957 113.588 115.602 113.278 115.344 112.867C115.09 112.455 114.963 111.948 114.963 111.347V106.18H116.574V111.347C116.574 111.698 116.63 111.984 116.741 112.206C116.852 112.428 117.011 112.591 117.219 112.695C117.43 112.799 117.679 112.851 117.965 112.851C118.259 112.851 118.508 112.799 118.712 112.695C118.92 112.591 119.077 112.428 119.185 112.206C119.296 111.984 119.351 111.698 119.351 111.347V106.18ZM122.328 106.18H125.244C125.842 106.18 126.356 106.269 126.786 106.448C127.219 106.627 127.552 106.892 127.785 107.243C128.018 107.594 128.134 108.026 128.134 108.538C128.134 108.957 128.062 109.316 127.919 109.617C127.779 109.914 127.581 110.163 127.323 110.364C127.069 110.561 126.77 110.718 126.426 110.836L125.916 111.105H123.381L123.37 109.848H125.255C125.538 109.848 125.772 109.798 125.959 109.698C126.145 109.597 126.285 109.458 126.378 109.279C126.474 109.1 126.523 108.892 126.523 108.656C126.523 108.405 126.476 108.188 126.383 108.006C126.29 107.823 126.148 107.684 125.959 107.587C125.769 107.49 125.531 107.442 125.244 107.442H123.939V114H122.328V106.18ZM126.7 114L124.917 110.514L126.619 110.503L128.424 113.925V114H126.7ZM133.952 111.406H135.558C135.526 111.932 135.381 112.399 135.123 112.808C134.869 113.216 134.512 113.535 134.054 113.764C133.599 113.993 133.051 114.107 132.41 114.107C131.909 114.107 131.46 114.021 131.062 113.85C130.665 113.674 130.325 113.424 130.042 113.098C129.762 112.772 129.549 112.378 129.403 111.916C129.256 111.454 129.182 110.937 129.182 110.364V109.821C129.182 109.248 129.258 108.731 129.408 108.269C129.562 107.804 129.78 107.408 130.063 107.082C130.35 106.756 130.692 106.506 131.089 106.33C131.487 106.155 131.931 106.067 132.421 106.067C133.073 106.067 133.622 106.185 134.07 106.421C134.521 106.658 134.87 106.984 135.117 107.399C135.368 107.814 135.518 108.287 135.569 108.817H133.957C133.939 108.502 133.877 108.235 133.769 108.017C133.662 107.795 133.499 107.628 133.28 107.517C133.066 107.403 132.779 107.345 132.421 107.345C132.153 107.345 131.918 107.395 131.718 107.496C131.517 107.596 131.349 107.748 131.213 107.952C131.077 108.156 130.975 108.414 130.906 108.726C130.842 109.034 130.81 109.395 130.81 109.811V110.364C130.81 110.768 130.84 111.125 130.901 111.433C130.962 111.737 131.055 111.995 131.18 112.206C131.309 112.414 131.474 112.571 131.675 112.679C131.879 112.783 132.124 112.834 132.41 112.834C132.747 112.834 133.024 112.781 133.243 112.673C133.461 112.566 133.628 112.407 133.742 112.195C133.861 111.984 133.93 111.721 133.952 111.406ZM141.908 112.743V114H137.745V112.743H141.908ZM138.271 106.18V114H136.66V106.18H138.271ZM141.365 109.365V110.589H137.745V109.365H141.365ZM141.902 106.18V107.442H137.745V106.18H141.902Z" fill="white"/>
<path d="M40 53C40 47.4772 44.4772 43 50 43H67C72.5228 43 77 47.4772 77 53C77 58.5228 72.5228 63 67 63H50C44.4772 63 40 58.5228 40 53Z" fill="white"/>
<path fill-rule="evenodd" clip-rule="evenodd" d="M49.0195 62.9525L49.1647 61.4596C49.4391 61.4863 49.7177 61.5 50 61.5H51.0625V63H50C49.6692 63 49.3421 62.9839 49.0195 62.9525ZM65.9375 63V61.5H67C67.2823 61.5 67.5609 61.4863 67.8353 61.4596L67.9805 62.9525C67.6579 62.9839 67.3308 63 67 63H65.9375ZM69.9038 62.5719L69.4689 61.1363C70.0056 60.9737 70.5201 60.7593 71.0066 60.4987L71.7148 61.821C71.1422 62.1277 70.5363 62.3803 69.9038 62.5719ZM73.344 60.7304L72.3918 59.5714C72.8224 59.2176 73.2176 58.8224 73.5714 58.3918L74.7304 59.344C74.3146 59.8501 73.8501 60.3146 73.344 60.7304ZM75.821 57.7148L74.4987 57.0066C74.7593 56.5201 74.9737 56.0056 75.1363 55.4689L76.5719 55.9038C76.3803 56.5363 76.1277 57.1422 75.821 57.7148ZM76.9525 53.9806L75.4596 53.8353C75.4863 53.5609 75.5 53.2823 75.5 53C75.5 52.7177 75.4863 52.4391 75.4596 52.1647L76.9525 52.0195C76.9839 52.3421 77 52.6692 77 53C77 53.3308 76.9839 53.6579 76.9525 53.9806ZM76.5719 50.0962L75.1363 50.5311C74.9737 49.9944 74.7593 49.4799 74.4987 48.9934L75.821 48.2852C76.1277 48.8578 76.3803 49.4637 76.5719 50.0962ZM74.7304 46.656L73.5714 47.6082C73.2176 47.1776 72.8224 46.7824 72.3918 46.4286L73.344 45.2696C73.8501 45.6854 74.3146 46.1499 74.7304 46.656ZM71.7148 44.179L71.0066 45.5013C70.5201 45.2407 70.0056 45.0263 69.4689 44.8637L69.9038 43.4281C70.5363 43.6197 71.1422 43.8723 71.7148 44.179ZM51.0625 43H50C49.6692 43 49.3421 43.0161 49.0195 43.0475L49.1647 44.5404C49.4391 44.5137 49.7177 44.5 50 44.5H51.0625V43ZM47.0962 43.4281L47.5311 44.8637C46.9944 45.0263 46.4799 45.2407 45.9934 45.5013L45.2852 44.179C45.8578 43.8723 46.4637 43.6197 47.0962 43.4281ZM43.656 45.2696L44.6082 46.4286C44.1776 46.7824 43.7824 47.1776 43.4286 47.6082L42.2696 46.656C42.6854 46.1499 43.1499 45.6854 43.656 45.2696ZM41.179 48.2852L42.5013 48.9934C42.2407 49.4799 42.0263 49.9944 41.8637 50.5311L40.4281 50.0962C40.6197 49.4637 40.8723 48.8578 41.179 48.2852ZM40.0475 52.0195L41.5404 52.1647C41.5137 52.4391 41.5 52.7177 41.5 53C41.5 53.2823 41.5137 53.5609 41.5404 53.8353L40.0475 53.9805C40.0161 53.6579 40 53.3308 40 53C40 52.6692 40.0161 52.3421 40.0475 52.0195ZM40.4281 55.9038L41.8637 55.4689C42.0263 56.0056 42.2407 56.5201 42.5013 57.0066L41.179 57.7148C40.8723 57.1422 40.6197 56.5363 40.4281 55.9038ZM42.2696 59.344L43.4286 58.3918C43.7824 58.8224 44.1776 59.2176 44.6082 59.5714L43.656 60.7304C43.1499 60.3146 42.6854 59.8501 42.2696 59.344ZM47.0962 62.5719L47.5311 61.1363C46.9944 60.9737 46.4799 60.7593 45.9934 60.4987L45.2852 61.821C45.8578 62.1277 46.4637 62.3803 47.0962 62.5719ZM53.1875 43V44.5H55.3125V43H53.1875ZM57.4375 43V44.5H59.5625V43H57.4375ZM61.6875 43V44.5H63.8125V43H61.6875ZM65.9375 43V44.5H67C67.2823 44.5 67.5609 44.5137 67.8353 44.5404L67.9806 43.0475C67.6579 43.0161 67.3308 43 67 43H65.9375ZM63.8125 63V61.5H61.6875V63H63.8125ZM59.5625 63V61.5H57.4375V63H59.5625ZM55.3125 63V61.5H53.1875V63H55.3125Z" fill="#67778E"/>
<path d="M51.8618 54.5991V49.1797H53.4678V54.5991C53.4678 55.1219 53.3532 55.5713 53.124 55.9473C52.8949 56.3197 52.5815 56.6061 52.1841 56.8066C51.7902 57.0072 51.3462 57.1074 50.8521 57.1074C50.34 57.1074 49.887 57.0215 49.4932 56.8496C49.0993 56.6777 48.7896 56.4146 48.564 56.0601C48.3384 55.702 48.2256 55.249 48.2256 54.7012H49.8423C49.8423 54.9876 49.8817 55.215 49.9604 55.3833C50.0428 55.5516 50.1592 55.6715 50.3096 55.7432C50.46 55.8148 50.6408 55.8506 50.8521 55.8506C51.0562 55.8506 51.2334 55.8022 51.3838 55.7056C51.5342 55.6089 51.6506 55.4674 51.7329 55.2812C51.8188 55.0951 51.8618 54.8677 51.8618 54.5991Z" fill="#67778E"/>
<path d="M61.3106 52.9072V53.2778C61.3106 53.8722 61.23 54.4058 61.0689 54.8784C60.9078 55.3511 60.6804 55.7539 60.3868 56.0869C60.0932 56.4163 59.7422 56.6688 59.334 56.8442C58.9294 57.0197 58.48 57.1074 57.9859 57.1074C57.4953 57.1074 57.046 57.0197 56.6378 56.8442C56.2331 56.6688 55.8822 56.4163 55.585 56.0869C55.2878 55.7539 55.0569 55.3511 54.8921 54.8784C54.731 54.4058 54.6504 53.8722 54.6504 53.2778V52.9072C54.6504 52.3092 54.731 51.7757 54.8921 51.3066C55.0533 50.834 55.2807 50.4312 55.5743 50.0981C55.8715 49.7651 56.2224 49.5109 56.627 49.3354C57.0352 49.16 57.4846 49.0723 57.9752 49.0723C58.4693 49.0723 58.9187 49.16 59.3233 49.3354C59.7315 49.5109 60.0824 49.7651 60.376 50.0981C60.6732 50.4312 60.9024 50.834 61.0635 51.3066C61.2282 51.7757 61.3106 52.3092 61.3106 52.9072ZM59.6832 53.2778V52.8965C59.6832 52.4811 59.6456 52.1159 59.5704 51.8008C59.4952 51.4857 59.3842 51.2207 59.2374 51.0059C59.0905 50.791 58.9115 50.6299 58.7003 50.5225C58.489 50.4115 58.2473 50.356 57.9752 50.356C57.703 50.356 57.4613 50.4115 57.2501 50.5225C57.0424 50.6299 56.8651 50.791 56.7183 51.0059C56.5751 51.2207 56.4659 51.4857 56.3907 51.8008C56.3155 52.1159 56.2779 52.4811 56.2779 52.8965V53.2778C56.2779 53.6896 56.3155 54.0549 56.3907 54.3735C56.4659 54.6886 56.5769 54.9554 56.7237 55.1738C56.8705 55.3887 57.0495 55.5516 57.2608 55.6626C57.4721 55.7736 57.7138 55.8291 57.9859 55.8291C58.258 55.8291 58.4997 55.7736 58.711 55.6626C58.9223 55.5516 59.0995 55.3887 59.2427 55.1738C59.386 54.9554 59.4952 54.6886 59.5704 54.3735C59.6456 54.0549 59.6832 53.6896 59.6832 53.2778Z" fill="#67778E"/>
<path d="M65.5763 53.5679H63.5675L63.5568 52.4614H65.2433C65.5405 52.4614 65.784 52.4238 65.9737 52.3486C66.1635 52.2699 66.305 52.1571 66.3981 52.0103C66.4947 51.8599 66.5431 51.6772 66.5431 51.4624C66.5431 51.2189 66.4965 51.022 66.4034 50.8716C66.3139 50.7212 66.1725 50.612 65.9791 50.5439C65.7893 50.4759 65.5441 50.4419 65.2433 50.4419H64.1261V57H62.5148V49.1797H65.2433C65.698 49.1797 66.1044 49.2227 66.4625 49.3086C66.8242 49.3945 67.1303 49.5252 67.381 49.7007C67.6316 49.8761 67.8232 50.0981 67.9557 50.3667C68.0882 50.6317 68.1544 50.9468 68.1544 51.312C68.1544 51.6343 68.081 51.9315 67.9342 52.2036C67.791 52.4757 67.5636 52.6978 67.2521 52.8696C66.9441 53.0415 66.5413 53.1364 66.0436 53.1543L65.5763 53.5679ZM65.5065 57H63.1271L63.7555 55.7432H65.5065C65.7893 55.7432 66.0203 55.6984 66.1993 55.6089C66.3784 55.5158 66.5109 55.3905 66.5968 55.2329C66.6827 55.0754 66.7257 54.8945 66.7257 54.6904C66.7257 54.4613 66.6863 54.2625 66.6075 54.0942C66.5323 53.9259 66.4106 53.797 66.2423 53.7075C66.074 53.6144 65.852 53.5679 65.5763 53.5679H64.024L64.0348 52.4614H65.9684L66.339 52.8965C66.8152 52.8893 67.1984 52.9735 67.4884 53.1489C67.782 53.3208 67.9951 53.5446 68.1276 53.8203C68.2636 54.096 68.3317 54.3914 68.3317 54.7065C68.3317 55.2078 68.2224 55.6304 68.004 55.9741C67.7856 56.3143 67.4651 56.5703 67.0426 56.7422C66.6236 56.9141 66.1116 57 65.5065 57Z" fill="#67778E"/>
<path d="M102 161C102 155.477 106.477 151 112 151H164C169.523 151 174 155.477 174 161C174 166.523 169.523 171 164 171H112C106.477 171 102 166.523 102 161Z" fill="white"/>
<path fill-rule="evenodd" clip-rule="evenodd" d="M111.019 170.953L111.165 169.46C111.439 169.486 111.718 169.5 112 169.5H113V171H112C111.669 171 111.342 170.984 111.019 170.953ZM163 171V169.5H164C164.282 169.5 164.561 169.486 164.835 169.46L164.981 170.953C164.658 170.984 164.331 171 164 171H163ZM166.904 170.572L166.469 169.136C167.006 168.974 167.52 168.759 168.007 168.499L168.715 169.821C168.142 170.128 167.536 170.38 166.904 170.572ZM170.344 168.73C170.85 168.315 171.315 167.85 171.73 167.344L170.571 166.392C170.218 166.822 169.822 167.218 169.392 167.571L170.344 168.73ZM172.821 165.715L171.499 165.007C171.759 164.52 171.974 164.006 172.136 163.469L173.572 163.904C173.38 164.536 173.128 165.142 172.821 165.715ZM173.953 161.981L172.46 161.835C172.486 161.561 172.5 161.282 172.5 161C172.5 160.718 172.486 160.439 172.46 160.165L173.953 160.019C173.984 160.342 174 160.669 174 161C174 161.331 173.984 161.658 173.953 161.981ZM173.572 158.096C173.38 157.464 173.128 156.858 172.821 156.285L171.499 156.993C171.759 157.48 171.974 157.994 172.136 158.531L173.572 158.096ZM171.73 154.656L170.571 155.608C170.218 155.178 169.822 154.782 169.392 154.429L170.344 153.27C170.85 153.685 171.315 154.15 171.73 154.656ZM168.715 152.179L168.007 153.501C167.52 153.241 167.006 153.026 166.469 152.864L166.904 151.428C167.536 151.62 168.142 151.872 168.715 152.179ZM113 151H112C111.669 151 111.342 151.016 111.019 151.047L111.165 152.54C111.439 152.514 111.718 152.5 112 152.5H113V151ZM109.096 151.428L109.531 152.864C108.994 153.026 108.48 153.241 107.993 153.501L107.285 152.179C107.858 151.872 108.464 151.62 109.096 151.428ZM105.656 153.27L106.608 154.429C106.178 154.782 105.782 155.178 105.429 155.608L104.27 154.656C104.685 154.15 105.15 153.685 105.656 153.27ZM103.179 156.285L104.501 156.993C104.241 157.48 104.026 157.994 103.864 158.531L102.428 158.096C102.62 157.464 102.872 156.858 103.179 156.285ZM102.047 160.019L103.54 160.165C103.514 160.439 103.5 160.718 103.5 161C103.5 161.282 103.514 161.561 103.54 161.835L102.047 161.981C102.016 161.658 102 161.331 102 161C102 160.669 102.016 160.342 102.047 160.019ZM102.428 163.904L103.864 163.469C104.026 164.006 104.241 164.52 104.501 165.007L103.179 165.715C102.872 165.142 102.62 164.536 102.428 163.904ZM104.27 167.344L105.429 166.392C105.782 166.822 106.178 167.218 106.608 167.571L105.656 168.73C105.15 168.315 104.685 167.85 104.27 167.344ZM109.096 170.572L109.531 169.136C108.994 168.974 108.48 168.759 107.993 168.499L107.285 169.821C107.858 170.128 108.464 170.38 109.096 170.572ZM115 151V152.5H117V151H115ZM119 151V152.5H121V151H119ZM123 151V152.5H125V151H123ZM127 151V152.5H129V151H127ZM131 151V152.5H133V151H131ZM135 151V152.5H137V151H135ZM139 151V152.5H141V151H139ZM143 151V152.5H145V151H143ZM147 151V152.5H149V151H147ZM151 151V152.5H153V151H151ZM155 151V152.5H157V151H155ZM159 151V152.5H161V151H159ZM163 151V152.5H164C164.282 152.5 164.561 152.514 164.835 152.54L164.981 151.047C164.658 151.016 164.331 151 164 151H163ZM161 171V169.5H159V171H161ZM157 171V169.5H155V171H157ZM153 171V169.5H151V171H153ZM149 171V169.5H147V171H149ZM145 171V169.5H143V171H145ZM141 171V169.5H139V171H141ZM137 171V169.5H135V171H137ZM133 171V169.5H131V171H133ZM129 171V169.5H127V171H129ZM125 171V169.5H123V171H125ZM121 171V169.5H119V171H121ZM117 171V169.5H115V171H117Z" fill="#67778E"/>
<path d="M110.698 157.18H113.615C114.213 157.18 114.727 157.269 115.156 157.448C115.59 157.627 115.923 157.892 116.155 158.243C116.388 158.594 116.504 159.026 116.504 159.538C116.504 159.957 116.433 160.316 116.29 160.617C116.15 160.914 115.951 161.163 115.693 161.364C115.439 161.561 115.14 161.718 114.796 161.836L114.286 162.105H111.751L111.74 160.848H113.625C113.908 160.848 114.143 160.798 114.329 160.698C114.515 160.597 114.655 160.458 114.748 160.279C114.845 160.1 114.893 159.892 114.893 159.656C114.893 159.405 114.847 159.188 114.753 159.006C114.66 158.823 114.519 158.684 114.329 158.587C114.139 158.49 113.901 158.442 113.615 158.442H112.31V165H110.698V157.18ZM115.07 165L113.287 161.514L114.99 161.503L116.794 164.925V165H115.07Z" fill="#67778E"/>
<path d="M123.037 163.743V165H118.874V163.743H123.037ZM119.4 157.18V165H117.789V157.18H119.4ZM122.494 160.365V161.589H118.874V160.365H122.494ZM123.031 157.18V158.442H118.874V157.18H123.031Z" fill="#67778E"/>
<path d="M128.092 162.954C128.092 162.814 128.07 162.689 128.027 162.578C127.988 162.463 127.913 162.359 127.802 162.266C127.691 162.169 127.535 162.075 127.335 161.981C127.134 161.888 126.874 161.792 126.556 161.691C126.201 161.577 125.865 161.448 125.546 161.305C125.231 161.161 124.952 160.995 124.708 160.805C124.468 160.612 124.278 160.388 124.139 160.134C124.003 159.88 123.935 159.584 123.935 159.248C123.935 158.922 124.006 158.626 124.15 158.361C124.293 158.093 124.493 157.864 124.751 157.674C125.009 157.48 125.313 157.332 125.664 157.228C126.019 157.124 126.407 157.072 126.83 157.072C127.406 157.072 127.909 157.176 128.339 157.384C128.769 157.591 129.102 157.876 129.338 158.238C129.578 158.599 129.698 159.013 129.698 159.479H128.097C128.097 159.249 128.049 159.049 127.952 158.877C127.859 158.701 127.716 158.564 127.523 158.463C127.333 158.363 127.093 158.313 126.803 158.313C126.524 158.313 126.291 158.356 126.105 158.442C125.918 158.524 125.779 158.637 125.686 158.78C125.593 158.92 125.546 159.077 125.546 159.253C125.546 159.385 125.578 159.505 125.643 159.613C125.711 159.72 125.811 159.82 125.943 159.914C126.076 160.007 126.239 160.094 126.432 160.177C126.626 160.259 126.849 160.34 127.104 160.418C127.53 160.547 127.904 160.692 128.226 160.854C128.552 161.015 128.824 161.195 129.043 161.396C129.261 161.597 129.426 161.824 129.537 162.078C129.648 162.332 129.703 162.621 129.703 162.943C129.703 163.283 129.637 163.587 129.505 163.856C129.372 164.125 129.18 164.352 128.93 164.538C128.679 164.724 128.38 164.866 128.033 164.962C127.685 165.059 127.297 165.107 126.867 165.107C126.481 165.107 126.099 165.057 125.723 164.957C125.347 164.853 125.005 164.697 124.697 164.49C124.393 164.282 124.15 164.017 123.967 163.695C123.784 163.373 123.693 162.991 123.693 162.551H125.31C125.31 162.794 125.347 163 125.422 163.168C125.498 163.337 125.603 163.473 125.739 163.577C125.879 163.681 126.044 163.756 126.234 163.802C126.427 163.849 126.638 163.872 126.867 163.872C127.147 163.872 127.376 163.833 127.555 163.754C127.737 163.675 127.872 163.566 127.958 163.426C128.047 163.287 128.092 163.129 128.092 162.954Z" fill="#67778E"/>
<path d="M137.267 160.907V161.278C137.267 161.872 137.186 162.406 137.025 162.878C136.864 163.351 136.637 163.754 136.343 164.087C136.049 164.416 135.698 164.669 135.29 164.844C134.886 165.02 134.436 165.107 133.942 165.107C133.451 165.107 133.002 165.02 132.594 164.844C132.189 164.669 131.838 164.416 131.541 164.087C131.244 163.754 131.013 163.351 130.848 162.878C130.687 162.406 130.607 161.872 130.607 161.278V160.907C130.607 160.309 130.687 159.776 130.848 159.307C131.009 158.834 131.237 158.431 131.53 158.098C131.828 157.765 132.179 157.511 132.583 157.335C132.991 157.16 133.441 157.072 133.931 157.072C134.425 157.072 134.875 157.16 135.279 157.335C135.688 157.511 136.039 157.765 136.332 158.098C136.629 158.431 136.859 158.834 137.02 159.307C137.184 159.776 137.267 160.309 137.267 160.907ZM135.639 161.278V160.896C135.639 160.481 135.602 160.116 135.527 159.801C135.451 159.486 135.34 159.221 135.194 159.006C135.047 158.791 134.868 158.63 134.656 158.522C134.445 158.411 134.203 158.356 133.931 158.356C133.659 158.356 133.417 158.411 133.206 158.522C132.999 158.63 132.821 158.791 132.674 159.006C132.531 159.221 132.422 159.486 132.347 159.801C132.272 160.116 132.234 160.481 132.234 160.896V161.278C132.234 161.69 132.272 162.055 132.347 162.374C132.422 162.689 132.533 162.955 132.68 163.174C132.827 163.389 133.006 163.552 133.217 163.663C133.428 163.774 133.67 163.829 133.942 163.829C134.214 163.829 134.456 163.774 134.667 163.663C134.878 163.552 135.056 163.389 135.199 163.174C135.342 162.955 135.451 162.689 135.527 162.374C135.602 162.055 135.639 161.69 135.639 161.278Z" fill="#67778E"/>
<path d="M142.789 157.18H144.395V162.347C144.395 162.948 144.266 163.455 144.009 163.867C143.754 164.278 143.402 164.588 142.95 164.796C142.503 165.004 141.987 165.107 141.404 165.107C140.82 165.107 140.301 165.004 139.846 164.796C139.395 164.588 139.04 164.278 138.782 163.867C138.528 163.455 138.401 162.948 138.401 162.347V157.18H140.012V162.347C140.012 162.698 140.068 162.984 140.179 163.206C140.29 163.428 140.449 163.591 140.657 163.695C140.868 163.799 141.117 163.851 141.404 163.851C141.697 163.851 141.946 163.799 142.15 163.695C142.358 163.591 142.515 163.428 142.623 163.206C142.734 162.984 142.789 162.698 142.789 162.347V157.18Z" fill="#67778E"/>
<path d="M145.766 157.18H148.682C149.28 157.18 149.794 157.269 150.224 157.448C150.657 157.627 150.99 157.892 151.223 158.243C151.456 158.594 151.572 159.026 151.572 159.538C151.572 159.957 151.5 160.316 151.357 160.617C151.218 160.914 151.019 161.163 150.761 161.364C150.507 161.561 150.208 161.718 149.864 161.836L149.354 162.105H146.819L146.808 160.848H148.693C148.976 160.848 149.211 160.798 149.397 160.698C149.583 160.597 149.723 160.458 149.816 160.279C149.912 160.1 149.961 159.892 149.961 159.656C149.961 159.405 149.914 159.188 149.821 159.006C149.728 158.823 149.587 158.684 149.397 158.587C149.207 158.49 148.969 158.442 148.682 158.442H147.377V165H145.766V157.18ZM150.138 165L148.355 161.514L150.057 161.503L151.862 164.925V165H150.138Z" fill="#67778E"/>
<path d="M157.39 162.406H158.996C158.964 162.932 158.819 163.399 158.561 163.808C158.307 164.216 157.95 164.535 157.492 164.764C157.037 164.993 156.489 165.107 155.848 165.107C155.347 165.107 154.898 165.021 154.5 164.85C154.103 164.674 153.763 164.424 153.48 164.098C153.201 163.772 152.987 163.378 152.841 162.916C152.694 162.454 152.62 161.937 152.62 161.364V160.821C152.62 160.248 152.696 159.731 152.846 159.269C153 158.804 153.218 158.408 153.501 158.082C153.788 157.756 154.13 157.506 154.527 157.33C154.925 157.155 155.369 157.067 155.859 157.067C156.511 157.067 157.061 157.185 157.508 157.421C157.959 157.658 158.308 157.984 158.556 158.399C158.806 158.814 158.957 159.287 159.007 159.817H157.395C157.377 159.502 157.315 159.235 157.207 159.017C157.1 158.795 156.937 158.628 156.719 158.517C156.504 158.403 156.217 158.345 155.859 158.345C155.591 158.345 155.356 158.395 155.156 158.496C154.955 158.596 154.787 158.748 154.651 158.952C154.515 159.156 154.413 159.414 154.345 159.726C154.28 160.034 154.248 160.395 154.248 160.811V161.364C154.248 161.768 154.278 162.125 154.339 162.433C154.4 162.737 154.493 162.995 154.618 163.206C154.747 163.414 154.912 163.571 155.113 163.679C155.317 163.783 155.562 163.834 155.848 163.834C156.185 163.834 156.463 163.781 156.681 163.673C156.899 163.566 157.066 163.407 157.181 163.195C157.299 162.984 157.368 162.721 157.39 162.406Z" fill="#67778E"/>
<path d="M165.346 163.743V165H161.183V163.743H165.346ZM161.709 157.18V165H160.098V157.18H161.709ZM164.803 160.365V161.589H161.183V160.365H164.803ZM165.34 157.18V158.442H161.183V157.18H165.34Z" fill="#67778E"/>
<defs>
<filter id="filter0_dd_24068_48860" x="0.730469" y="0.556641" width="66.0547" height="62.8926" filterUnits="userSpaceOnUse" color-interpolation-filters="sRGB">
<feFlood flood-opacity="0" result="BackgroundImageFix"/>
<feColorMatrix in="SourceAlpha" type="matrix" values="0 0 0 0 0 0 0 0 0 0 0 0 0 0 0 0 0 0 127 0" result="hardAlpha"/>
<feMorphology radius="1" operator="erode" in="SourceAlpha" result="effect1_dropShadow_24068_48860"/>
<feOffset dy="2"/>
<feGaussianBlur stdDeviation="4"/>
<feColorMatrix type="matrix" values="0 0 0 0 0.105882 0 0 0 0 0.141176 0 0 0 0 0.172549 0 0 0 0.08 0"/>
<feBlend mode="normal" in2="BackgroundImageFix" result="effect1_dropShadow_24068_48860"/>
<feColorMatrix in="SourceAlpha" type="matrix" values="0 0 0 0 0 0 0 0 0 0 0 0 0 0 0 0 0 0 127 0" result="hardAlpha"/>
<feMorphology radius="1" operator="erode" in="SourceAlpha" result="effect2_dropShadow_24068_48860"/>
<feOffset dy="2"/>
<feGaussianBlur stdDeviation="1"/>
<feComposite in2="hardAlpha" operator="out"/>
<feColorMatrix type="matrix" values="0 0 0 0 0.105882 0 0 0 0 0.141176 0 0 0 0 0.172549 0 0 0 0.04 0"/>
<feBlend mode="normal" in2="effect1_dropShadow_24068_48860" result="effect2_dropShadow_24068_48860"/>
<feBlend mode="normal" in="SourceGraphic" in2="effect2_dropShadow_24068_48860" result="shape"/>
</filter>
<filter id="filter1_dd_24068_48860" x="122.646" y="159.854" width="62.8926" height="62.8926" filterUnits="userSpaceOnUse" color-interpolation-filters="sRGB">
<feFlood flood-opacity="0" result="BackgroundImageFix"/>
<feColorMatrix in="SourceAlpha" type="matrix" values="0 0 0 0 0 0 0 0 0 0 0 0 0 0 0 0 0 0 127 0" result="hardAlpha"/>
<feMorphology radius="1" operator="erode" in="SourceAlpha" result="effect1_dropShadow_24068_48860"/>
<feOffset dy="2"/>
<feGaussianBlur stdDeviation="4"/>
<feColorMatrix type="matrix" values="0 0 0 0 0.105882 0 0 0 0 0.141176 0 0 0 0 0.172549 0 0 0 0.08 0"/>
<feBlend mode="normal" in2="BackgroundImageFix" result="effect1_dropShadow_24068_48860"/>
<feColorMatrix in="SourceAlpha" type="matrix" values="0 0 0 0 0 0 0 0 0 0 0 0 0 0 0 0 0 0 127 0" result="hardAlpha"/>
<feMorphology radius="1" operator="erode" in="SourceAlpha" result="effect2_dropShadow_24068_48860"/>
<feOffset dy="2"/>
<feGaussianBlur stdDeviation="1"/>
<feComposite in2="hardAlpha" operator="out"/>
<feColorMatrix type="matrix" values="0 0 0 0 0.105882 0 0 0 0 0.141176 0 0 0 0 0.172549 0 0 0 0.04 0"/>
<feBlend mode="normal" in2="effect1_dropShadow_24068_48860" result="effect2_dropShadow_24068_48860"/>
<feBlend mode="normal" in="SourceGraphic" in2="effect2_dropShadow_24068_48860" result="shape"/>
</filter>
<clipPath id="clip0_24068_48860">
<rect width="36.6693" height="36.6693" fill="white" transform="translate(13.8418 11.668)"/>
</clipPath>
</defs>
</svg>
