<svg width="186" height="223" viewBox="0 0 186 223" fill="none" xmlns="http://www.w3.org/2000/svg">
<g filter="url(#filter0_dd_24068_48847)">
<path d="M56.4755 23.4453C58.1631 23.4453 59.5312 24.8134 59.5312 26.5011L59.5312 32.6126C59.5312 34.3003 58.1631 35.6684 56.4755 35.6684C54.7878 35.6684 53.4197 34.3003 53.4197 32.6126L53.4197 26.5011C53.4197 24.8134 54.7878 23.4453 56.4755 23.4453Z" fill="#67778E"/>
<path d="M7.85853 11.6682C7.85853 8.50384 10.4238 5.93861 13.5881 5.93861H50.2574C53.4218 5.93861 55.987 8.50383 55.987 11.6682V48.3375C55.987 51.5018 53.4218 54.0671 50.2574 54.0671H13.5881C10.4238 54.0671 7.85853 51.5018 7.85853 48.3375V11.6682Z" fill="white"/>
<path d="M7.85853 11.6682C7.85853 8.50384 10.4238 5.93861 13.5881 5.93861H50.2574C53.4218 5.93861 55.987 8.50383 55.987 11.6682V48.3375C55.987 51.5018 53.4218 54.0671 50.2574 54.0671H13.5881C10.4238 54.0671 7.85853 51.5018 7.85853 48.3375V11.6682Z" stroke="#C6D3E7" stroke-width="0.763944"/>
<path d="M44.8253 31.9297L43.7363 38.779L50.2143 41.2635L50.2133 35.0398L44.8253 31.9297Z" fill="#A299FF"/>
<path d="M16.6035 38.1509V21.8555L21.9941 23.5648V35.0385L30.7159 40.0739L31.3675 42.5581L30.7159 46.2983L16.6035 38.1509Z" fill="#7366FF"/>
<path d="M30.7172 19.9329L21.9941 24.9673L16.6035 21.8552L30.714 13.7085L44.8264 21.8552L41.8489 24.2275L39.439 24.9682L30.7172 19.9329Z" fill="#7366FF"/>
<path d="M50.2155 41.2612L44.8249 44.3755L39.4375 41.2612V35.0391L50.2155 41.2612Z" fill="#5219FF"/>
<path d="M30.7181 23.7949L30.7148 30.0177L36.1071 33.1287L36.1061 26.905L30.7181 23.7949Z" fill="#A299FF"/>
<path d="M30.7149 30.0181L25.3262 33.1291L30.7158 36.2418L36.1071 33.1291L30.7149 30.0181Z" fill="#5219FF"/>
<path d="M30.7181 23.7949L25.3268 26.9076L25.3262 33.1287L30.7149 30.0177L30.7181 23.7949Z" fill="#7366FF"/>
<path d="M44.8249 21.8555V31.9294L39.4375 35.0389V24.9685L44.8249 21.8555Z" fill="url(#paint0_linear_24068_48847)"/>
<path d="M44.8269 31.9258L30.7148 40.0735V46.2979L44.8253 38.1495L44.8269 31.9258Z" fill="url(#paint1_linear_24068_48847)"/>
</g>
<g filter="url(#filter1_dd_24068_48847)">
<path d="M129.775 170.964C129.775 167.8 132.34 165.235 135.504 165.235H172.173C175.338 165.235 177.903 167.8 177.903 170.964V207.633C177.903 210.798 175.338 213.363 172.173 213.363H135.504C132.34 213.363 129.775 210.798 129.775 207.633V170.964Z" fill="white"/>
<path d="M129.775 170.964C129.775 167.8 132.34 165.235 135.504 165.235H172.173C175.338 165.235 177.903 167.8 177.903 170.964V207.633C177.903 210.798 175.338 213.363 172.173 213.363H135.504C132.34 213.363 129.775 210.798 129.775 207.633V170.964Z" stroke="#C6D3E7" stroke-width="0.763944"/>
<path d="M153.715 172.004C153.4 172.019 153.091 172.098 152.807 172.233L140.412 178.156C140.091 178.309 139.809 178.532 139.587 178.808C139.365 179.084 139.209 179.407 139.129 179.751L136.071 193.055C136.001 193.361 135.993 193.679 136.048 193.988C136.103 194.298 136.221 194.593 136.393 194.857C136.435 194.921 136.48 194.984 136.528 195.044L145.107 205.711C145.329 205.987 145.611 206.21 145.932 206.363C146.253 206.517 146.605 206.596 146.961 206.596L160.719 206.593C161.075 206.593 161.427 206.514 161.747 206.361C162.068 206.208 162.35 205.986 162.572 205.71L171.149 195.041C171.371 194.765 171.528 194.442 171.607 194.098C171.686 193.754 171.686 193.396 171.607 193.051L168.544 179.748C168.465 179.403 168.309 179.081 168.087 178.805C167.864 178.529 167.583 178.306 167.262 178.153L154.865 172.233C154.507 172.062 154.112 171.983 153.715 172.004Z" fill="#326CE5"/>
<path d="M153.838 176.531C153.428 176.531 153.096 176.9 153.096 177.356C153.096 177.363 153.098 177.369 153.098 177.376C153.097 177.438 153.094 177.513 153.096 177.566C153.106 177.829 153.163 178.03 153.198 178.272C153.26 178.79 153.312 179.219 153.28 179.618C153.249 179.768 153.138 179.906 153.039 180.001L153.022 180.315C152.57 180.352 152.122 180.421 151.681 180.521C149.754 180.959 148.095 181.951 146.833 183.291C146.743 183.229 146.653 183.165 146.565 183.101C146.432 183.119 146.299 183.159 146.124 183.058C145.792 182.834 145.49 182.526 145.124 182.154C144.956 181.977 144.835 181.807 144.636 181.636C144.59 181.597 144.521 181.544 144.471 181.504C144.315 181.38 144.131 181.315 143.954 181.309C143.726 181.302 143.506 181.391 143.363 181.571C143.107 181.891 143.189 182.381 143.545 182.665C143.548 182.668 143.552 182.67 143.556 182.673C143.605 182.712 143.665 182.763 143.71 182.796C143.921 182.952 144.114 183.032 144.325 183.156C144.769 183.43 145.136 183.657 145.428 183.931C145.542 184.053 145.562 184.267 145.577 184.359L145.815 184.572C144.542 186.488 143.953 188.854 144.301 191.265L143.99 191.355C143.908 191.461 143.793 191.627 143.672 191.677C143.29 191.797 142.86 191.841 142.342 191.896C142.098 191.916 141.888 191.904 141.63 191.953C141.573 191.964 141.494 191.984 141.432 191.999L141.425 192C141.422 192.001 141.417 192.003 141.414 192.004C140.977 192.109 140.696 192.511 140.786 192.907C140.877 193.303 141.304 193.544 141.744 193.449C141.747 193.449 141.752 193.449 141.755 193.448C141.76 193.447 141.764 193.444 141.769 193.443C141.831 193.43 141.908 193.415 141.961 193.4C142.215 193.332 142.399 193.232 142.627 193.145C143.118 192.969 143.524 192.822 143.921 192.765C144.086 192.752 144.26 192.867 144.347 192.915L144.67 192.86C145.415 195.167 146.974 197.032 148.949 198.202L148.814 198.525C148.863 198.651 148.916 198.821 148.88 198.945C148.736 199.318 148.49 199.713 148.209 200.152C148.073 200.355 147.934 200.513 147.811 200.745C147.781 200.8 147.744 200.886 147.716 200.945C147.525 201.353 147.665 201.822 148.031 201.999C148.4 202.176 148.857 201.989 149.055 201.58C149.056 201.58 149.057 201.579 149.057 201.579C149.057 201.578 149.057 201.578 149.057 201.577C149.085 201.519 149.125 201.443 149.149 201.388C149.254 201.148 149.289 200.941 149.363 200.708C149.559 200.215 149.667 199.698 149.937 199.376C150.011 199.287 150.132 199.253 150.257 199.22L150.425 198.915C152.147 199.576 154.074 199.754 155.999 199.317C156.431 199.218 156.857 199.09 157.272 198.933C157.319 199.017 157.407 199.178 157.43 199.218C157.557 199.26 157.696 199.281 157.809 199.448C158.011 199.794 158.15 200.202 158.318 200.696C158.392 200.929 158.429 201.135 158.534 201.376C158.558 201.431 158.597 201.508 158.626 201.566C158.823 201.976 159.282 202.164 159.651 201.986C160.018 201.81 160.158 201.34 159.967 200.932C159.938 200.873 159.899 200.788 159.87 200.732C159.747 200.5 159.608 200.344 159.472 200.141C159.191 199.701 158.958 199.336 158.814 198.963C158.754 198.77 158.824 198.651 158.871 198.525C158.843 198.493 158.783 198.311 158.748 198.226C160.8 197.014 162.314 195.08 163.025 192.845C163.121 192.861 163.288 192.89 163.342 192.901C163.453 192.827 163.556 192.731 163.757 192.747C164.153 192.804 164.56 192.952 165.051 193.128C165.279 193.215 165.463 193.316 165.717 193.384C165.77 193.399 165.847 193.412 165.908 193.426C165.913 193.427 165.918 193.429 165.923 193.43C165.926 193.431 165.931 193.431 165.934 193.432C166.374 193.527 166.801 193.286 166.891 192.89C166.982 192.494 166.701 192.092 166.264 191.986C166.2 191.972 166.11 191.947 166.048 191.935C165.79 191.887 165.58 191.899 165.336 191.878C164.817 191.824 164.388 191.78 164.006 191.66C163.85 191.599 163.74 191.414 163.686 191.338L163.386 191.251C163.542 190.127 163.5 188.957 163.231 187.787C162.96 186.606 162.48 185.525 161.841 184.573C161.917 184.504 162.063 184.375 162.104 184.337C162.116 184.204 162.105 184.065 162.243 183.917C162.535 183.643 162.903 183.416 163.347 183.142C163.557 183.018 163.752 182.938 163.963 182.782C164.011 182.747 164.076 182.691 164.127 182.65C164.482 182.367 164.564 181.877 164.309 181.557C164.053 181.236 163.558 181.206 163.202 181.49C163.152 181.53 163.083 181.582 163.037 181.622C162.838 181.793 162.715 181.962 162.548 182.14C162.182 182.512 161.879 182.822 161.547 183.045C161.403 183.129 161.193 183.1 161.097 183.094L160.815 183.296C159.206 181.608 157.015 180.53 154.656 180.32C154.65 180.221 154.641 180.043 154.639 179.989C154.542 179.896 154.425 179.817 154.396 179.618C154.364 179.219 154.418 178.79 154.48 178.272C154.515 178.03 154.572 177.829 154.582 177.566C154.584 177.507 154.58 177.42 154.58 177.356C154.58 176.9 154.248 176.531 153.838 176.531ZM152.909 182.286L152.689 186.178L152.673 186.186C152.658 186.534 152.372 186.812 152.02 186.812C151.876 186.812 151.743 186.766 151.635 186.687L151.628 186.69L148.437 184.428C149.418 183.463 150.672 182.75 152.118 182.422C152.379 182.363 152.643 182.318 152.909 182.286ZM154.769 182.286C156.457 182.493 158.018 183.258 159.214 184.429L156.043 186.677L156.032 186.672C155.751 186.878 155.354 186.827 155.135 186.552C155.048 186.444 154.998 186.311 154.992 186.173L154.989 186.171L154.769 182.286ZM147.28 185.881L150.194 188.487L150.19 188.503C150.453 188.732 150.492 189.129 150.273 189.404C150.186 189.512 150.067 189.591 149.934 189.627L149.93 189.64L146.195 190.718C146.005 188.98 146.415 187.29 147.28 185.881ZM160.376 185.883C160.809 186.585 161.137 187.368 161.332 188.218C161.525 189.057 161.573 189.895 161.493 190.705L157.739 189.624L157.736 189.608C157.4 189.516 157.194 189.174 157.272 188.831C157.302 188.697 157.375 188.575 157.48 188.484L157.478 188.476L160.376 185.883V185.883ZM153.24 188.689H154.434L155.176 189.616L154.91 190.773L153.838 191.289L152.763 190.772L152.497 189.615L153.24 188.689ZM157.067 191.863C157.118 191.86 157.169 191.865 157.218 191.874L157.224 191.866L161.088 192.519C160.522 194.107 159.44 195.483 157.995 196.404L156.495 192.782L156.5 192.776C156.362 192.456 156.5 192.08 156.817 191.928C156.898 191.888 156.983 191.867 157.067 191.863ZM150.579 191.878C150.874 191.883 151.138 192.087 151.207 192.387C151.239 192.528 151.223 192.667 151.17 192.79L151.181 192.804L149.697 196.39C148.31 195.5 147.205 194.167 146.614 192.531L150.444 191.882L150.45 191.889C150.493 191.882 150.537 191.878 150.579 191.878ZM153.814 193.449C153.92 193.446 154.025 193.468 154.12 193.514C154.25 193.577 154.35 193.675 154.414 193.793H154.428L156.316 197.205C156.068 197.288 155.816 197.358 155.561 197.416C154.117 197.744 152.678 197.644 151.375 197.2L153.258 193.795H153.261C153.315 193.694 153.395 193.609 153.492 193.548C153.589 193.488 153.7 193.454 153.814 193.449L153.814 193.449Z" fill="white" stroke="white" stroke-width="0.14494"/>
</g>
<path d="M59.8691 29.0029C59.3169 29.0029 58.8691 29.4506 58.8691 30.0029C58.8691 30.5552 59.3169 31.0029 59.8691 31.0029V29.0029ZM126.6 190.006C126.99 189.615 126.99 188.982 126.6 188.592L120.236 182.228C119.845 181.837 119.212 181.837 118.822 182.228C118.431 182.618 118.431 183.251 118.822 183.642L124.479 189.299L118.822 194.956C118.431 195.346 118.431 195.979 118.822 196.37C119.212 196.76 119.845 196.76 120.236 196.37L126.6 190.006ZM59.8691 31.0029H68.881V29.0029H59.8691V31.0029ZM91.881 54.0029V165.299H93.881V54.0029H91.881ZM116.881 190.299H125.893V188.299H116.881V190.299ZM91.881 165.299C91.881 179.106 103.074 190.299 116.881 190.299V188.299C104.178 188.299 93.881 178.001 93.881 165.299H91.881ZM68.881 31.0029C81.5835 31.0029 91.881 41.3004 91.881 54.0029H93.881C93.881 40.1958 82.6881 29.0029 68.881 29.0029V31.0029Z" fill="#67778E"/>
<path d="M28.6992 119C28.6992 113.477 33.1764 109 38.6992 109H147.699C153.222 109 157.699 113.477 157.699 119C157.699 124.523 153.222 129 147.699 129H38.6992C33.1764 129 28.6992 124.523 28.6992 119Z" fill="#67778E"/>
<path d="M42.7769 121.743V123H38.6143V121.743H42.7769ZM39.1406 115.18V123H37.5293V115.18H39.1406ZM42.2344 118.365V119.589H38.6143V118.365H42.2344ZM42.7715 115.18V116.442H38.6143V115.18H42.7715ZM45.0875 115.18L46.5591 117.908L48.0308 115.18H49.8731L47.6011 119.058L49.9322 123H48.0738L46.5591 120.218L45.0445 123H43.1753L45.5118 119.058L43.2344 115.18H45.0875ZM56.0348 121.743V123H51.8722V121.743H56.0348ZM52.3985 115.18V123H50.7872V115.18H52.3985ZM55.4923 118.365V119.589H51.8722V118.365H55.4923ZM56.0294 115.18V116.442H51.8722V115.18H56.0294ZM61.5519 120.406H63.1579C63.1256 120.932 62.9806 121.399 62.7228 121.808C62.4686 122.216 62.1123 122.535 61.654 122.764C61.1992 122.993 60.6514 123.107 60.0104 123.107C59.5091 123.107 59.0597 123.021 58.6623 122.85C58.2648 122.674 57.9246 122.424 57.6418 122.098C57.3625 121.772 57.1494 121.378 57.0026 120.916C56.8558 120.454 56.7824 119.937 56.7824 119.364V118.821C56.7824 118.248 56.8576 117.731 57.008 117.269C57.1619 116.804 57.3804 116.408 57.6632 116.082C57.9497 115.756 58.2917 115.506 58.6891 115.33C59.0866 115.155 59.5306 115.067 60.0212 115.067C60.6728 115.067 61.2225 115.185 61.6701 115.421C62.1213 115.658 62.4704 115.984 62.7174 116.399C62.9681 116.814 63.1185 117.287 63.1686 117.817H61.5573C61.5394 117.502 61.4767 117.235 61.3693 117.017C61.2619 116.795 61.099 116.628 60.8805 116.517C60.6657 116.403 60.3792 116.345 60.0212 116.345C59.7526 116.345 59.5181 116.395 59.3175 116.496C59.117 116.596 58.9487 116.748 58.8127 116.952C58.6766 117.156 58.5745 117.414 58.5065 117.726C58.4421 118.034 58.4098 118.395 58.4098 118.811V119.364C58.4098 119.768 58.4403 120.125 58.5011 120.433C58.562 120.737 58.6551 120.995 58.7804 121.206C58.9093 121.414 59.0741 121.571 59.2746 121.679C59.4787 121.783 59.724 121.834 60.0104 121.834C60.347 121.834 60.6245 121.781 60.8429 121.673C61.0614 121.566 61.2279 121.407 61.3424 121.195C61.4606 120.984 61.5304 120.721 61.5519 120.406ZM68.5783 115.18H70.1843V120.347C70.1843 120.948 70.0554 121.455 69.7976 121.867C69.5433 122.278 69.1906 122.588 68.7395 122.796C68.2919 123.004 67.7763 123.107 67.1926 123.107C66.6089 123.107 66.0897 123.004 65.635 122.796C65.1838 122.588 64.8293 122.278 64.5715 121.867C64.3173 121.455 64.1902 120.948 64.1902 120.347V115.18H65.8015V120.347C65.8015 120.698 65.857 120.984 65.968 121.206C66.079 121.428 66.2383 121.591 66.446 121.695C66.6573 121.799 66.9061 121.851 67.1926 121.851C67.4862 121.851 67.7351 121.799 67.9392 121.695C68.1469 121.591 68.3044 121.428 68.4118 121.206C68.5228 120.984 68.5783 120.698 68.5783 120.347V115.18ZM75.0515 115.18V123H73.4456V115.18H75.0515ZM77.4578 115.18V116.442H71.0769V115.18H77.4578ZM83.6678 121.743V123H79.5052V121.743H83.6678ZM80.0316 115.18V123H78.4202V115.18H80.0316ZM83.1253 118.365V119.589H79.5052V118.365H83.1253ZM83.6624 115.18V116.442H79.5052V115.18H83.6624ZM84.6141 122.253C84.6141 122.024 84.6929 121.833 84.8505 121.679C85.0116 121.525 85.2247 121.448 85.4896 121.448C85.7546 121.448 85.9659 121.525 86.1234 121.679C86.2846 121.833 86.3651 122.024 86.3651 122.253C86.3651 122.483 86.2846 122.674 86.1234 122.828C85.9659 122.982 85.7546 123.059 85.4896 123.059C85.2247 123.059 85.0116 122.982 84.8505 122.828C84.6929 122.674 84.6141 122.483 84.6141 122.253ZM84.6141 117.822C84.6141 117.593 84.6929 117.402 84.8505 117.248C85.0116 117.094 85.2247 117.017 85.4896 117.017C85.7546 117.017 85.9659 117.094 86.1234 117.248C86.2846 117.402 86.3651 117.593 86.3651 117.822C86.3651 118.051 86.2846 118.243 86.1234 118.397C85.9659 118.551 85.7546 118.628 85.4896 118.628C85.2247 118.628 85.0116 118.551 84.8505 118.397C84.6929 118.243 84.6141 118.051 84.6141 117.822ZM90.4814 117.35V116.549C90.4814 116.317 90.5262 116.077 90.6157 115.83C90.7052 115.583 90.8234 115.35 90.9702 115.131C91.117 114.909 91.2782 114.721 91.4536 114.567L92.1733 114.986C92.0444 115.201 91.9334 115.432 91.8403 115.679C91.7472 115.926 91.7007 116.216 91.7007 116.549V117.35H90.4814ZM92.3076 117.35V116.549C92.3076 116.317 92.3524 116.077 92.4419 115.83C92.5314 115.583 92.6496 115.35 92.7964 115.131C92.9432 114.909 93.1043 114.721 93.2798 114.567L93.9995 114.986C93.8706 115.201 93.7596 115.432 93.6665 115.679C93.5734 115.926 93.5269 116.216 93.5269 116.549V117.35H92.3076ZM99.1353 120.954C99.1353 120.814 99.1138 120.689 99.0709 120.578C99.0315 120.463 98.9563 120.359 98.8453 120.266C98.7343 120.169 98.5785 120.075 98.378 119.981C98.1775 119.888 97.9179 119.792 97.5992 119.691C97.2447 119.577 96.9081 119.448 96.5894 119.305C96.2743 119.161 95.995 118.995 95.7515 118.805C95.5116 118.612 95.3218 118.388 95.1822 118.134C95.0461 117.88 94.9781 117.584 94.9781 117.248C94.9781 116.922 95.0497 116.626 95.1929 116.361C95.3362 116.093 95.5367 115.864 95.7945 115.674C96.0523 115.48 96.3567 115.332 96.7076 115.228C97.0621 115.124 97.4506 115.072 97.8731 115.072C98.4496 115.072 98.9527 115.176 99.3824 115.384C99.8121 115.591 100.145 115.876 100.381 116.238C100.621 116.599 100.741 117.013 100.741 117.479H99.1407C99.1407 117.249 99.0923 117.049 98.9957 116.877C98.9026 116.701 98.7593 116.564 98.566 116.463C98.3762 116.363 98.1363 116.313 97.8462 116.313C97.5669 116.313 97.3342 116.356 97.148 116.442C96.9618 116.524 96.8222 116.637 96.7291 116.78C96.636 116.92 96.5894 117.077 96.5894 117.253C96.5894 117.385 96.6216 117.505 96.6861 117.613C96.7541 117.72 96.8544 117.82 96.9869 117.914C97.1194 118.007 97.2823 118.094 97.4756 118.177C97.669 118.259 97.8928 118.34 98.147 118.418C98.5731 118.547 98.9473 118.692 99.2696 118.854C99.5954 119.015 99.8676 119.195 100.086 119.396C100.304 119.597 100.469 119.824 100.58 120.078C100.691 120.332 100.747 120.621 100.747 120.943C100.747 121.283 100.68 121.587 100.548 121.856C100.415 122.125 100.224 122.352 99.9732 122.538C99.7225 122.724 99.4236 122.866 99.0762 122.962C98.7289 123.059 98.3404 123.107 97.9107 123.107C97.524 123.107 97.1426 123.057 96.7667 122.957C96.3907 122.853 96.0487 122.697 95.7408 122.49C95.4364 122.282 95.1929 122.017 95.0103 121.695C94.8277 121.373 94.7364 120.991 94.7364 120.551H96.3531C96.3531 120.794 96.3907 121 96.4659 121.168C96.5411 121.337 96.6467 121.473 96.7828 121.577C96.9224 121.681 97.0871 121.756 97.2769 121.802C97.4703 121.849 97.6815 121.872 97.9107 121.872C98.19 121.872 98.4192 121.833 98.5982 121.754C98.7808 121.675 98.9151 121.566 99.001 121.426C99.0905 121.287 99.1353 121.129 99.1353 120.954ZM105.383 115.18V123H103.777V115.18H105.383ZM107.789 115.18V116.442H101.408V115.18H107.789ZM111.351 116.517L109.224 123H107.511L110.417 115.18H111.507L111.351 116.517ZM113.118 123L110.986 116.517L110.814 115.18H111.915L114.837 123H113.118ZM113.022 120.089V121.351H108.891V120.089H113.022ZM115.606 115.18H118.523C119.121 115.18 119.634 115.269 120.064 115.448C120.497 115.627 120.83 115.892 121.063 116.243C121.296 116.594 121.412 117.026 121.412 117.538C121.412 117.957 121.341 118.316 121.197 118.617C121.058 118.914 120.859 119.163 120.601 119.364C120.347 119.561 120.048 119.718 119.704 119.836L119.194 120.105H116.659L116.648 118.848H118.533C118.816 118.848 119.051 118.798 119.237 118.698C119.423 118.597 119.563 118.458 119.656 118.279C119.753 118.1 119.801 117.892 119.801 117.656C119.801 117.405 119.754 117.188 119.661 117.006C119.568 116.823 119.427 116.684 119.237 116.587C119.047 116.49 118.809 116.442 118.523 116.442H117.217V123H115.606V115.18ZM119.978 123L118.195 119.514L119.898 119.503L121.702 122.925V123H119.978ZM125.871 115.18V123H124.265V115.18H125.871ZM128.278 115.18V116.442H121.897V115.18H128.278ZM127.897 122.253C127.897 122.024 127.976 121.833 128.134 121.679C128.295 121.525 128.508 121.448 128.773 121.448C129.038 121.448 129.249 121.525 129.407 121.679C129.568 121.833 129.648 122.024 129.648 122.253C129.648 122.483 129.568 122.674 129.407 122.828C129.249 122.982 129.038 123.059 128.773 123.059C128.508 123.059 128.295 122.982 128.134 122.828C127.976 122.674 127.897 122.483 127.897 122.253ZM135.225 120.954C135.225 120.814 135.203 120.689 135.16 120.578C135.121 120.463 135.045 120.359 134.934 120.266C134.823 120.169 134.668 120.075 134.467 119.981C134.267 119.888 134.007 119.792 133.688 119.691C133.334 119.577 132.997 119.448 132.679 119.305C132.363 119.161 132.084 118.995 131.841 118.805C131.601 118.612 131.411 118.388 131.271 118.134C131.135 117.88 131.067 117.584 131.067 117.248C131.067 116.922 131.139 116.626 131.282 116.361C131.425 116.093 131.626 115.864 131.884 115.674C132.141 115.48 132.446 115.332 132.797 115.228C133.151 115.124 133.54 115.072 133.962 115.072C134.539 115.072 135.042 115.176 135.472 115.384C135.901 115.591 136.234 115.876 136.471 116.238C136.711 116.599 136.83 117.013 136.83 117.479H135.23C135.23 117.249 135.182 117.049 135.085 116.877C134.992 116.701 134.849 116.564 134.655 116.463C134.465 116.363 134.225 116.313 133.935 116.313C133.656 116.313 133.423 116.356 133.237 116.442C133.051 116.524 132.911 116.637 132.818 116.78C132.725 116.92 132.679 117.077 132.679 117.253C132.679 117.385 132.711 117.505 132.775 117.613C132.843 117.72 132.944 117.82 133.076 117.914C133.209 118.007 133.371 118.094 133.565 118.177C133.758 118.259 133.982 118.34 134.236 118.418C134.662 118.547 135.037 118.692 135.359 118.854C135.685 119.015 135.957 119.195 136.175 119.396C136.394 119.597 136.558 119.824 136.669 120.078C136.78 120.332 136.836 120.621 136.836 120.943C136.836 121.283 136.77 121.587 136.637 121.856C136.505 122.125 136.313 122.352 136.062 122.538C135.812 122.724 135.513 122.866 135.165 122.962C134.818 123.059 134.43 123.107 134 123.107C133.613 123.107 133.232 123.057 132.856 122.957C132.48 122.853 132.138 122.697 131.83 122.49C131.526 122.282 131.282 122.017 131.1 121.695C130.917 121.373 130.826 120.991 130.826 120.551H132.442C132.442 120.794 132.48 121 132.555 121.168C132.63 121.337 132.736 121.473 132.872 121.577C133.012 121.681 133.176 121.756 133.366 121.802C133.559 121.849 133.771 121.872 134 121.872C134.279 121.872 134.508 121.833 134.687 121.754C134.87 121.675 135.004 121.566 135.09 121.426C135.18 121.287 135.225 121.129 135.225 120.954ZM143.191 118.365V119.622H139.109V118.365H143.191ZM139.587 115.18V123H137.976V115.18H139.587ZM144.34 115.18V123H142.734V115.18H144.34ZM147.172 114.75V115.566C147.172 115.799 147.127 116.039 147.038 116.286C146.952 116.533 146.835 116.768 146.688 116.99C146.542 117.208 146.381 117.394 146.205 117.548L145.48 117.129C145.612 116.918 145.725 116.689 145.818 116.442C145.911 116.191 145.958 115.901 145.958 115.572V114.75H147.172ZM149.025 114.75V115.566C149.025 115.799 148.98 116.039 148.891 116.286C148.805 116.533 148.688 116.768 148.542 116.99C148.395 117.208 148.234 117.394 148.058 117.548L147.333 117.129C147.465 116.918 147.578 116.689 147.671 116.442C147.764 116.191 147.811 115.901 147.811 115.572V114.75H149.025Z" fill="white"/>
<path d="M49.1992 92C49.1992 86.4772 53.6764 82 59.1992 82H127.199C132.722 82 137.199 86.4772 137.199 92C137.199 97.5228 132.722 102 127.199 102H59.1992C53.6764 102 49.1992 97.5228 49.1992 92Z" fill="#67778E"/>
<path d="M63.2824 94.7432V96H59.1198V94.7432H63.2824ZM59.6462 88.1797V96H58.0349V88.1797H59.6462ZM62.74 91.3647V92.5894H59.1198V91.3647H62.74ZM63.2771 88.1797V89.4419H59.1198V88.1797H63.2771ZM70.6311 88.1797V96H69.0198L65.8777 90.7578V96H64.2664V88.1797H65.8777L69.0252 93.4272V88.1797H70.6311ZM74.8968 94.3672L76.7391 88.1797H78.533L75.8099 96H74.6283L74.8968 94.3672ZM73.1995 88.1797L75.0365 94.3672L75.3158 96H74.1234L71.4163 88.1797H73.1995ZM86.1621 93.9536C86.1621 93.814 86.1406 93.6886 86.0976 93.5776C86.0582 93.4631 85.983 93.3592 85.872 93.2661C85.761 93.1694 85.6053 93.0745 85.4047 92.9814C85.2042 92.8883 84.9446 92.7917 84.6259 92.6914C84.2714 92.5768 83.9348 92.4479 83.6162 92.3047C83.3011 92.1615 83.0218 91.995 82.7783 91.8052C82.5384 91.6118 82.3486 91.388 82.2089 91.1338C82.0729 90.8796 82.0048 90.5841 82.0048 90.2476C82.0048 89.9217 82.0764 89.6263 82.2197 89.3613C82.3629 89.0928 82.5634 88.8636 82.8212 88.6738C83.079 88.4805 83.3834 88.3319 83.7343 88.228C84.0888 88.1242 84.4773 88.0723 84.8998 88.0723C85.4763 88.0723 85.9794 88.1761 86.4091 88.3838C86.8388 88.5915 87.1718 88.8761 87.4081 89.2378C87.6481 89.5994 87.768 90.013 87.768 90.4785H86.1674C86.1674 90.2493 86.1191 90.0488 86.0224 89.877C85.9293 89.7015 85.7861 89.5636 85.5927 89.4634C85.4029 89.3631 85.163 89.313 84.873 89.313C84.5937 89.313 84.3609 89.356 84.1747 89.4419C83.9886 89.5243 83.8489 89.637 83.7558 89.7803C83.6627 89.9199 83.6162 90.0775 83.6162 90.2529C83.6162 90.3854 83.6484 90.5054 83.7128 90.6128C83.7809 90.7202 83.8811 90.8205 84.0136 90.9136C84.1461 91.0067 84.309 91.0944 84.5024 91.1768C84.6957 91.2591 84.9195 91.3397 85.1738 91.4185C85.5999 91.5474 85.9741 91.6924 86.2963 91.8535C86.6222 92.0146 86.8943 92.1955 87.1127 92.396C87.3312 92.5965 87.4959 92.8239 87.6069 93.0781C87.7179 93.3324 87.7734 93.6206 87.7734 93.9429C87.7734 94.283 87.7071 94.5874 87.5747 94.856C87.4422 95.1245 87.2506 95.3519 86.9999 95.5381C86.7493 95.7243 86.4503 95.8657 86.103 95.9624C85.7556 96.0591 85.3671 96.1074 84.9374 96.1074C84.5507 96.1074 84.1694 96.0573 83.7934 95.957C83.4174 95.8532 83.0755 95.6974 82.7675 95.4897C82.4632 95.2821 82.2197 95.0171 82.0371 94.6948C81.8544 94.3726 81.7631 93.9912 81.7631 93.5508H83.3798C83.3798 93.7943 83.4174 94.0002 83.4926 94.1685C83.5678 94.3368 83.6734 94.4728 83.8095 94.5767C83.9492 94.6805 84.1139 94.7557 84.3037 94.8022C84.497 94.8488 84.7083 94.8721 84.9374 94.8721C85.2167 94.8721 85.4459 94.8327 85.6249 94.7539C85.8076 94.6751 85.9418 94.5659 86.0278 94.4263C86.1173 94.2866 86.1621 94.1291 86.1621 93.9536ZM92.4097 88.1797V96H90.8037V88.1797H92.4097ZM94.8159 88.1797V89.4419H88.4351V88.1797H94.8159ZM98.378 89.5171L96.251 96H94.5377L97.4434 88.1797H98.5337L98.378 89.5171ZM100.145 96L98.0127 89.5171L97.8409 88.1797H98.9419L101.864 96H100.145ZM100.048 93.0889V94.3511H95.918V93.0889H100.048ZM102.633 88.1797H105.549C106.147 88.1797 106.661 88.2692 107.091 88.4482C107.524 88.6273 107.857 88.8923 108.09 89.2432C108.323 89.5941 108.439 90.0256 108.439 90.5376C108.439 90.9565 108.367 91.3164 108.224 91.6172C108.085 91.9144 107.886 92.1632 107.628 92.3638C107.374 92.5607 107.075 92.7183 106.731 92.8364L106.221 93.105H103.686L103.675 91.8481H105.56C105.843 91.8481 106.078 91.798 106.264 91.6978C106.45 91.5975 106.59 91.4578 106.683 91.2788C106.779 91.0998 106.828 90.8921 106.828 90.6558C106.828 90.4051 106.781 90.1885 106.688 90.0059C106.595 89.8232 106.454 89.6836 106.264 89.5869C106.074 89.4902 105.836 89.4419 105.549 89.4419H104.244V96H102.633V88.1797ZM107.005 96L105.222 92.5142L106.924 92.5034L108.729 95.9248V96H107.005ZM112.898 88.1797V96H111.292V88.1797H112.898ZM115.304 88.1797V89.4419H108.924V88.1797H115.304ZM125.069 93.69C125.142 93.4993 125.223 93.3233 125.311 93.162C125.399 92.9933 125.498 92.8357 125.608 92.689H119.712V91.787H125.608C125.505 91.6403 125.41 91.4863 125.322 91.325C125.234 91.1563 125.153 90.9767 125.08 90.786H125.916C126.37 91.3213 126.869 91.7283 127.412 92.007V92.48C126.869 92.744 126.37 93.1473 125.916 93.69H125.069Z" fill="white"/>
<path d="M112 167C112 161.477 116.477 157 122 157H139C144.523 157 149 161.477 149 167C149 172.523 144.523 177 139 177H122C116.477 177 112 172.523 112 167Z" fill="white"/>
<path fill-rule="evenodd" clip-rule="evenodd" d="M121.019 176.953L121.165 175.46C121.439 175.486 121.718 175.5 122 175.5H123.063V177H122C121.669 177 121.342 176.984 121.019 176.953ZM137.938 177V175.5H139C139.282 175.5 139.561 175.486 139.835 175.46L139.981 176.953C139.658 176.984 139.331 177 139 177H137.938ZM141.904 176.572L141.469 175.136C142.006 174.974 142.52 174.759 143.007 174.499L143.715 175.821C143.142 176.128 142.536 176.38 141.904 176.572ZM145.344 174.73L144.392 173.571C144.822 173.218 145.218 172.822 145.571 172.392L146.73 173.344C146.315 173.85 145.85 174.315 145.344 174.73ZM147.821 171.715L146.499 171.007C146.759 170.52 146.974 170.006 147.136 169.469L148.572 169.904C148.38 170.536 148.128 171.142 147.821 171.715ZM148.953 167.981L147.46 167.835C147.486 167.561 147.5 167.282 147.5 167C147.5 166.718 147.486 166.439 147.46 166.165L148.953 166.019C148.984 166.342 149 166.669 149 167C149 167.331 148.984 167.658 148.953 167.981ZM148.572 164.096L147.136 164.531C146.974 163.994 146.759 163.48 146.499 162.993L147.821 162.285C148.128 162.858 148.38 163.464 148.572 164.096ZM146.73 160.656L145.571 161.608C145.218 161.178 144.822 160.782 144.392 160.429L145.344 159.27C145.85 159.685 146.315 160.15 146.73 160.656ZM143.715 158.179L143.007 159.501C142.52 159.241 142.006 159.026 141.469 158.864L141.904 157.428C142.536 157.62 143.142 157.872 143.715 158.179ZM123.062 157H122C121.669 157 121.342 157.016 121.019 157.047L121.165 158.54C121.439 158.514 121.718 158.5 122 158.5H123.062V157ZM119.096 157.428L119.531 158.864C118.994 159.026 118.48 159.241 117.993 159.501L117.285 158.179C117.858 157.872 118.464 157.62 119.096 157.428ZM115.656 159.27L116.608 160.429C116.178 160.782 115.782 161.178 115.429 161.608L114.27 160.656C114.685 160.15 115.15 159.685 115.656 159.27ZM113.179 162.285L114.501 162.993C114.241 163.48 114.026 163.994 113.864 164.531L112.428 164.096C112.62 163.464 112.872 162.858 113.179 162.285ZM112.047 166.019L113.54 166.165C113.514 166.439 113.5 166.718 113.5 167C113.5 167.282 113.514 167.561 113.54 167.835L112.047 167.981C112.016 167.658 112 167.331 112 167C112 166.669 112.016 166.342 112.047 166.019ZM112.428 169.904L113.864 169.469C114.026 170.006 114.241 170.52 114.501 171.007L113.179 171.715C112.872 171.142 112.62 170.536 112.428 169.904ZM114.27 173.344L115.429 172.392C115.782 172.822 116.178 173.218 116.608 173.571L115.656 174.73C115.15 174.315 114.685 173.85 114.27 173.344ZM119.096 176.572L119.531 175.136C118.994 174.974 118.48 174.759 117.993 174.499L117.285 175.821C117.858 176.128 118.464 176.38 119.096 176.572ZM125.187 157V158.5H127.312V157H125.187ZM129.438 157V158.5H131.562V157H129.438ZM133.688 157V158.5H135.812V157H133.688ZM137.938 157V158.5H139C139.282 158.5 139.561 158.514 139.835 158.54L139.981 157.047C139.658 157.016 139.331 157 139 157H137.938ZM135.812 177V175.5H133.688V177H135.812ZM131.562 177V175.5H129.438V177H131.562ZM127.313 177V175.5H125.188V177H127.313Z" fill="#67778E"/>
<path d="M123.862 168.599V163.18H125.468V168.599C125.468 169.122 125.353 169.571 125.124 169.947C124.895 170.32 124.582 170.606 124.184 170.807C123.79 171.007 123.346 171.107 122.852 171.107C122.34 171.107 121.887 171.021 121.493 170.85C121.099 170.678 120.79 170.415 120.564 170.06C120.338 169.702 120.226 169.249 120.226 168.701H121.842C121.842 168.988 121.882 169.215 121.96 169.383C122.043 169.552 122.159 169.672 122.31 169.743C122.46 169.815 122.641 169.851 122.852 169.851C123.056 169.851 123.233 169.802 123.384 169.706C123.534 169.609 123.651 169.467 123.733 169.281C123.819 169.095 123.862 168.868 123.862 168.599Z" fill="#67778E"/>
<path d="M133.311 166.907V167.278C133.311 167.872 133.23 168.406 133.069 168.878C132.908 169.351 132.68 169.754 132.387 170.087C132.093 170.416 131.742 170.669 131.334 170.844C130.929 171.02 130.48 171.107 129.986 171.107C129.495 171.107 129.046 171.02 128.638 170.844C128.233 170.669 127.882 170.416 127.585 170.087C127.288 169.754 127.057 169.351 126.892 168.878C126.731 168.406 126.65 167.872 126.65 167.278V166.907C126.65 166.309 126.731 165.776 126.892 165.307C127.053 164.834 127.281 164.431 127.574 164.098C127.871 163.765 128.222 163.511 128.627 163.335C129.035 163.16 129.485 163.072 129.975 163.072C130.469 163.072 130.919 163.16 131.323 163.335C131.732 163.511 132.082 163.765 132.376 164.098C132.673 164.431 132.902 164.834 133.064 165.307C133.228 165.776 133.311 166.309 133.311 166.907ZM131.683 167.278V166.896C131.683 166.481 131.646 166.116 131.57 165.801C131.495 165.486 131.384 165.221 131.237 165.006C131.091 164.791 130.912 164.63 130.7 164.522C130.489 164.411 130.247 164.356 129.975 164.356C129.703 164.356 129.461 164.411 129.25 164.522C129.042 164.63 128.865 164.791 128.718 165.006C128.575 165.221 128.466 165.486 128.391 165.801C128.315 166.116 128.278 166.481 128.278 166.896V167.278C128.278 167.69 128.315 168.055 128.391 168.374C128.466 168.689 128.577 168.955 128.724 169.174C128.87 169.389 129.05 169.552 129.261 169.663C129.472 169.774 129.714 169.829 129.986 169.829C130.258 169.829 130.5 169.774 130.711 169.663C130.922 169.552 131.1 169.389 131.243 169.174C131.386 168.955 131.495 168.689 131.57 168.374C131.646 168.055 131.683 167.69 131.683 167.278Z" fill="#67778E"/>
<path d="M137.576 167.568H135.567L135.557 166.461H137.243C137.54 166.461 137.784 166.424 137.974 166.349C138.164 166.27 138.305 166.157 138.398 166.01C138.495 165.86 138.543 165.677 138.543 165.462C138.543 165.219 138.497 165.022 138.403 164.872C138.314 164.721 138.172 164.612 137.979 164.544C137.789 164.476 137.544 164.442 137.243 164.442H136.126V171H134.515V163.18H137.243C137.698 163.18 138.104 163.223 138.463 163.309C138.824 163.395 139.13 163.525 139.381 163.701C139.632 163.876 139.823 164.098 139.956 164.367C140.088 164.632 140.154 164.947 140.154 165.312C140.154 165.634 140.081 165.931 139.934 166.204C139.791 166.476 139.564 166.698 139.252 166.87C138.944 167.042 138.541 167.136 138.044 167.154L137.576 167.568ZM137.506 171H135.127L135.755 169.743H137.506C137.789 169.743 138.02 169.698 138.199 169.609C138.378 169.516 138.511 169.39 138.597 169.233C138.683 169.075 138.726 168.895 138.726 168.69C138.726 168.461 138.686 168.263 138.608 168.094C138.532 167.926 138.411 167.797 138.242 167.708C138.074 167.614 137.852 167.568 137.576 167.568H136.024L136.035 166.461H137.968L138.339 166.896C138.815 166.889 139.198 166.973 139.488 167.149C139.782 167.321 139.995 167.545 140.128 167.82C140.264 168.096 140.332 168.391 140.332 168.707C140.332 169.208 140.222 169.63 140.004 169.974C139.786 170.314 139.465 170.57 139.043 170.742C138.624 170.914 138.112 171 137.506 171Z" fill="#67778E"/>
<defs>
<filter id="filter0_dd_24068_48847" x="0.476562" y="0.556641" width="66.0547" height="62.8926" filterUnits="userSpaceOnUse" color-interpolation-filters="sRGB">
<feFlood flood-opacity="0" result="BackgroundImageFix"/>
<feColorMatrix in="SourceAlpha" type="matrix" values="0 0 0 0 0 0 0 0 0 0 0 0 0 0 0 0 0 0 127 0" result="hardAlpha"/>
<feMorphology radius="1" operator="erode" in="SourceAlpha" result="effect1_dropShadow_24068_48847"/>
<feOffset dy="2"/>
<feGaussianBlur stdDeviation="4"/>
<feColorMatrix type="matrix" values="0 0 0 0 0.105882 0 0 0 0 0.141176 0 0 0 0 0.172549 0 0 0 0.08 0"/>
<feBlend mode="normal" in2="BackgroundImageFix" result="effect1_dropShadow_24068_48847"/>
<feColorMatrix in="SourceAlpha" type="matrix" values="0 0 0 0 0 0 0 0 0 0 0 0 0 0 0 0 0 0 127 0" result="hardAlpha"/>
<feMorphology radius="1" operator="erode" in="SourceAlpha" result="effect2_dropShadow_24068_48847"/>
<feOffset dy="2"/>
<feGaussianBlur stdDeviation="1"/>
<feComposite in2="hardAlpha" operator="out"/>
<feColorMatrix type="matrix" values="0 0 0 0 0.105882 0 0 0 0 0.141176 0 0 0 0 0.172549 0 0 0 0.04 0"/>
<feBlend mode="normal" in2="effect1_dropShadow_24068_48847" result="effect2_dropShadow_24068_48847"/>
<feBlend mode="normal" in="SourceGraphic" in2="effect2_dropShadow_24068_48847" result="shape"/>
</filter>
<filter id="filter1_dd_24068_48847" x="122.393" y="159.853" width="62.8926" height="62.8926" filterUnits="userSpaceOnUse" color-interpolation-filters="sRGB">
<feFlood flood-opacity="0" result="BackgroundImageFix"/>
<feColorMatrix in="SourceAlpha" type="matrix" values="0 0 0 0 0 0 0 0 0 0 0 0 0 0 0 0 0 0 127 0" result="hardAlpha"/>
<feMorphology radius="1" operator="erode" in="SourceAlpha" result="effect1_dropShadow_24068_48847"/>
<feOffset dy="2"/>
<feGaussianBlur stdDeviation="4"/>
<feColorMatrix type="matrix" values="0 0 0 0 0.105882 0 0 0 0 0.141176 0 0 0 0 0.172549 0 0 0 0.08 0"/>
<feBlend mode="normal" in2="BackgroundImageFix" result="effect1_dropShadow_24068_48847"/>
<feColorMatrix in="SourceAlpha" type="matrix" values="0 0 0 0 0 0 0 0 0 0 0 0 0 0 0 0 0 0 127 0" result="hardAlpha"/>
<feMorphology radius="1" operator="erode" in="SourceAlpha" result="effect2_dropShadow_24068_48847"/>
<feOffset dy="2"/>
<feGaussianBlur stdDeviation="1"/>
<feComposite in2="hardAlpha" operator="out"/>
<feColorMatrix type="matrix" values="0 0 0 0 0.105882 0 0 0 0 0.141176 0 0 0 0 0.172549 0 0 0 0.04 0"/>
<feBlend mode="normal" in2="effect1_dropShadow_24068_48847" result="effect2_dropShadow_24068_48847"/>
<feBlend mode="normal" in="SourceGraphic" in2="effect2_dropShadow_24068_48847" result="shape"/>
</filter>
<linearGradient id="paint0_linear_24068_48847" x1="42.1313" y1="21.8554" x2="42.1313" y2="35.039" gradientUnits="userSpaceOnUse">
<stop offset="0.25" stop-color="#7366FF"/>
<stop offset="1" stop-color="#5219FF"/>
</linearGradient>
<linearGradient id="paint1_linear_24068_48847" x1="30.7147" y1="39.1119" x2="44.8268" y2="39.1119" gradientUnits="userSpaceOnUse">
<stop stop-color="#7366FF"/>
<stop offset="1" stop-color="#A299FF"/>
</linearGradient>
</defs>
</svg>
