<svg xmlns="http://www.w3.org/2000/svg" width="1200" height="500" viewBox="0 0 1200 500">
  <rect width="1200" height="500" fill="#f7f8fa"/>
  <rect width="224" height="500" fill="#20242c"/>
  <circle cx="32" cy="31" r="12" fill="#6d5ce7"/><text x="53" y="37" fill="#fff" font-family="Arial,sans-serif" font-size="18" font-weight="700">Qovery</text>
  <g font-family="Arial,sans-serif" font-size="14" fill="#aeb4bf">
    <text x="24" y="90">Organization</text><text x="24" y="134">Dashboard</text><text x="24" y="174">Projects</text>
    <rect x="12" y="193" width="200" height="40" rx="6" fill="#343943"/><text x="24" y="219" fill="#fff">Clusters</text>
    <text x="24" y="266">Settings</text>
  </g>
  <rect x="224" width="976" height="64" fill="#fff"/><line x1="224" y1="64" x2="1200" y2="64" stroke="#e4e7ec"/>
  <g font-family="Arial,sans-serif"><text x="260" y="39" font-size="14" fill="#68707d">Clusters / production-eu</text>

    <g transform="translate(276 126)">
      <rect width="40" height="40" rx="8" fill="#ece9ff"/><circle cx="20" cy="20" r="9" fill="#6d5ce7"/>
      <text x="56" y="27" font-size="24" font-weight="600" fill="#252932">production-eu</text>
      <rect x="748" y="3" width="104" height="34" rx="6" fill="#fff" stroke="#cfd4dc"/><text x="770" y="25" font-size="13" fill="#3f4652">Settings</text>
    </g>
    <g transform="translate(276 204)">
      <text y="0" font-size="14" font-weight="600" fill="#6d5ce7">Overview</text><text x="92" y="0" font-size="14" fill="#68707d">Nodes</text><text x="150" y="0" font-size="14" fill="#68707d">Logs</text>
      <line y1="17" x2="864" y2="17" stroke="#dfe3e8"/><line y1="17" x2="66" y2="17" stroke="#6d5ce7" stroke-width="2"/>
    </g>
    <g transform="translate(276 254)">
      <rect width="420" height="142" rx="8" fill="#fff" stroke="#dfe3e8"/><text x="20" y="32" font-size="16" font-weight="600" fill="#252932">Cluster status</text>
      <circle cx="28" cy="65" r="6" fill="#31a36c"/><text x="44" y="70" font-size="14" fill="#3f4652">Running</text>
      <text x="20" y="108" font-size="12" fill="#8a919d">Cloud provider</text><text x="20" y="129" font-size="14" fill="#3f4652">AWS · eu-west-3</text>
      <rect x="444" width="420" height="142" rx="8" fill="#fff" stroke="#dfe3e8"/><text x="464" y="32" font-size="16" font-weight="600" fill="#252932">Resources</text>
      <text x="464" y="68" font-size="12" fill="#8a919d">CPU</text><text x="464" y="92" font-size="20" font-weight="600" fill="#252932">42%</text>
      <text x="590" y="68" font-size="12" fill="#8a919d">Memory</text><text x="590" y="92" font-size="20" font-weight="600" fill="#252932">61%</text>
    </g>
  </g>
</svg>