<svg width="176" height="124" viewBox="0 0 176 124" fill="none" xmlns="http://www.w3.org/2000/svg">
<path opacity="0.1" d="M104.276 26.6304L72.9073 41.7764L64.6523 77.4777L86.6654 105.065H122.987L145 77.4777L136.745 42.8583L104.276 26.6304Z" fill="black"/>
<g opacity="0.2">
<path d="M13.0557 34.6692L8.90853 34.6692L8.90853 30.522L7.52612 30.522L7.52612 34.6692L3.37891 34.6692L3.37891 36.0516L7.52612 36.0516L7.52612 40.1988L8.90853 40.1988L8.90853 36.0516L13.0557 36.0516L13.0557 34.6692Z" fill="url(#paint0_linear_25616_63599)"/>
<path d="M13.0557 60.8064L8.90853 60.8064L8.90853 56.6592L7.52612 56.6592L7.52612 60.8064L3.37891 60.8064L3.37891 62.1888L7.52612 62.1888L7.52612 66.336L8.90853 66.336L8.90853 62.1888L13.0557 62.1888L13.0557 60.8064Z" fill="url(#paint1_linear_25616_63599)"/>
<path d="M13.0557 86.9441L8.90853 86.9441L8.90853 82.7969L7.52612 82.7969L7.52612 86.9441L3.37891 86.9441L3.37891 88.3265L7.52612 88.3265L7.52612 92.4737L8.90853 92.4737L8.90853 88.3265L13.0557 88.3265L13.0557 86.9441Z" fill="url(#paint2_linear_25616_63599)"/>
</g>
<g opacity="0.6">
<path d="M36.1182 21.6003L31.971 21.6003L31.971 17.4531L30.5886 17.4531L30.5886 21.6003L26.4414 21.6003L26.4414 22.9827L30.5886 22.9827L30.5886 27.13L31.971 27.13L31.971 22.9827L36.1182 22.9827L36.1182 21.6003Z" fill="#316CE4"/>
<path d="M36.1182 47.738L31.971 47.738L31.971 43.5908L30.5886 43.5908L30.5886 47.738L26.4414 47.738L26.4414 49.1204L30.5886 49.1204L30.5886 53.2677L31.971 53.2677L31.971 49.1204L36.1182 49.1204L36.1182 47.738Z" fill="url(#paint3_linear_25616_63599)"/>
<path d="M36.1182 73.8752L31.971 73.8752L31.971 69.728L30.5886 69.728L30.5886 73.8752L26.4414 73.8752L26.4414 75.2576L30.5886 75.2576L30.5886 79.4049L31.971 79.4049L31.971 75.2576L36.1182 75.2576L36.1182 73.8752Z" fill="#316CE4"/>
<path d="M36.1182 100.013L31.971 100.013L31.971 95.8657L30.5886 95.8657L30.5886 100.013L26.4414 100.013L26.4414 101.395L30.5886 101.395L30.5886 105.543L31.971 105.543L31.971 101.395L36.1182 101.395L36.1182 100.013Z" fill="#316CE4"/>
</g>
<g opacity="0.8">
<path d="M59.1807 8.53149L55.0335 8.53149L55.0335 4.38428L53.6511 4.38428L53.6511 8.53149L49.5039 8.53149L49.5039 9.9139L53.6511 9.9139L53.6511 14.0611L55.0335 14.0611L55.0335 9.9139L59.1807 9.9139L59.1807 8.53149Z" fill="#316CE4"/>
<path d="M59.1807 34.6692L55.0335 34.6692L55.0335 30.522L53.6511 30.522L53.6511 34.6692L49.5039 34.6692L49.5039 36.0516L53.6511 36.0516L53.6511 40.1988L55.0335 40.1988L55.0335 36.0516L59.1807 36.0516L59.1807 34.6692Z" fill="#316CE4"/>
<path d="M59.1807 60.8064L55.0335 60.8064L55.0335 56.6592L53.6511 56.6592L53.6511 60.8064L49.5039 60.8064L49.5039 62.1888L53.6511 62.1888L53.6511 66.336L55.0335 66.336L55.0335 62.1888L59.1807 62.1888L59.1807 60.8064Z" fill="#316CE4"/>
<path d="M59.1807 86.9441L55.0335 86.9441L55.0335 82.7969L53.6511 82.7969L53.6511 86.9441L49.5039 86.9441L49.5039 88.3265L53.6511 88.3265L53.6511 92.4737L55.0335 92.4737L55.0335 88.3265L59.1807 88.3265L59.1807 86.9441Z" fill="#316CE4"/>
<path d="M59.1807 113.082L55.0335 113.082L55.0335 108.935L53.6511 108.935L53.6511 113.082L49.5039 113.082L49.5039 114.464L53.6511 114.464L53.6511 118.611L55.0335 118.611L55.0335 114.464L59.1807 114.464L59.1807 113.082Z" fill="#316CE4"/>
</g>
<g opacity="0.8">
<path d="M82.2432 -4.53735L78.096 -4.53735L78.096 -8.68457L76.7136 -8.68457L76.7136 -4.53735L72.5664 -4.53735L72.5664 -3.15495L76.7136 -3.15495L76.7136 0.992268L78.096 0.992268L78.096 -3.15495L82.2432 -3.15495L82.2432 -4.53735Z" fill="url(#paint4_linear_25616_63599)"/>
<path d="M82.2432 21.6003L78.096 21.6003L78.096 17.4531L76.7136 17.4531L76.7136 21.6003L72.5664 21.6003L72.5664 22.9827L76.7136 22.9827L76.7136 27.13L78.096 27.13L78.096 22.9827L82.2432 22.9827L82.2432 21.6003Z" fill="url(#paint5_linear_25616_63599)"/>
<path d="M82.2432 47.738L78.096 47.738L78.096 43.5908L76.7136 43.5908L76.7136 47.738L72.5664 47.738L72.5664 49.1204L76.7136 49.1204L76.7136 53.2677L78.096 53.2677L78.096 49.1204L82.2432 49.1204L82.2432 47.738Z" fill="url(#paint6_linear_25616_63599)"/>
<path d="M82.2432 73.8752L78.096 73.8752L78.096 69.728L76.7136 69.728L76.7136 73.8752L72.5664 73.8752L72.5664 75.2576L76.7136 75.2576L76.7136 79.4049L78.096 79.4049L78.096 75.2576L82.2432 75.2576L82.2432 73.8752Z" fill="url(#paint7_linear_25616_63599)"/>
<path d="M82.2432 100.013L78.096 100.013L78.096 95.8657L76.7136 95.8657L76.7136 100.013L72.5664 100.013L72.5664 101.395L76.7136 101.395L76.7136 105.543L78.096 105.543L78.096 101.395L82.2432 101.395L82.2432 100.013Z" fill="url(#paint8_linear_25616_63599)"/>
<path d="M82.2432 126.151L78.096 126.151L78.096 122.003L76.7136 122.003L76.7136 126.151L72.5664 126.151L72.5664 127.533L76.7136 127.533L76.7136 131.68L78.096 131.68L78.096 127.533L82.2432 127.533L82.2432 126.151Z" fill="url(#paint9_linear_25616_63599)"/>
</g>
<path d="M105.306 8.53149L101.159 8.53149L101.159 4.38428L99.7761 4.38428L99.7761 8.53149L95.6289 8.53149L95.6289 9.9139L99.7761 9.9139L99.7761 14.0611L101.159 14.0611L101.159 9.9139L105.306 9.9139L105.306 8.53149Z" fill="#316CE4"/>
<path d="M105.306 34.6692L101.159 34.6692L101.159 30.522L99.7761 30.522L99.7761 34.6692L95.6289 34.6692L95.6289 36.0516L99.7761 36.0516L99.7761 40.1988L101.159 40.1988L101.159 36.0516L105.306 36.0516L105.306 34.6692Z" fill="url(#paint10_linear_25616_63599)"/>
<path d="M105.306 60.8064L101.159 60.8064L101.159 56.6592L99.7761 56.6592L99.7761 60.8064L95.6289 60.8064L95.6289 62.1888L99.7761 62.1888L99.7761 66.336L101.159 66.336L101.159 62.1888L105.306 62.1888L105.306 60.8064Z" fill="#316CE4"/>
<path d="M105.306 86.9441L101.159 86.9441L101.159 82.7969L99.7761 82.7969L99.7761 86.9441L95.6289 86.9441L95.6289 88.3265L99.7761 88.3265L99.7761 92.4737L101.159 92.4737L101.159 88.3265L105.306 88.3265L105.306 86.9441Z" fill="#316CE4"/>
<path d="M105.306 113.082L101.159 113.082L101.159 108.935L99.7761 108.935L99.7761 113.082L95.6289 113.082L95.6289 114.464L99.7761 114.464L99.7761 118.611L101.159 118.611L101.159 114.464L105.306 114.464L105.306 113.082Z" fill="#316CE4"/>
<path d="M128.368 8.53149L124.221 8.53149L124.221 4.38428L122.839 4.38428L122.839 8.53149L118.691 8.53149L118.691 9.9139L122.839 9.9139L122.839 14.0611L124.221 14.0611L124.221 9.9139L128.368 9.9139L128.368 8.53149Z" fill="url(#paint11_linear_25616_63599)"/>
<path d="M128.368 34.6692L124.221 34.6692L124.221 30.522L122.839 30.522L122.839 34.6692L118.691 34.6692L118.691 36.0516L122.839 36.0516L122.839 40.1988L124.221 40.1988L124.221 36.0516L128.368 36.0516L128.368 34.6692Z" fill="url(#paint12_linear_25616_63599)"/>
<path d="M128.368 60.8064L124.221 60.8064L124.221 56.6592L122.839 56.6592L122.839 60.8064L118.691 60.8064L118.691 62.1888L122.839 62.1888L122.839 66.336L124.221 66.336L124.221 62.1888L128.368 62.1888L128.368 60.8064Z" fill="url(#paint13_linear_25616_63599)"/>
<path d="M128.368 86.9441L124.221 86.9441L124.221 82.7969L122.839 82.7969L122.839 86.9441L118.691 86.9441L118.691 88.3265L122.839 88.3265L122.839 92.4737L124.221 92.4737L124.221 88.3265L128.368 88.3265L128.368 86.9441Z" fill="url(#paint14_linear_25616_63599)"/>
<path d="M128.368 113.082L124.221 113.082L124.221 108.935L122.839 108.935L122.839 113.082L118.691 113.082L118.691 114.464L122.839 114.464L122.839 118.611L124.221 118.611L124.221 114.464L128.368 114.464L128.368 113.082Z" fill="url(#paint15_linear_25616_63599)"/>
<g opacity="0.8">
<path d="M151.431 -4.53735L147.284 -4.53735L147.284 -8.68457L145.901 -8.68457L145.901 -4.53735L141.754 -4.53735L141.754 -3.15495L145.901 -3.15495L145.901 0.992268L147.284 0.992268L147.284 -3.15495L151.431 -3.15495L151.431 -4.53735Z" fill="url(#paint16_linear_25616_63599)"/>
<path d="M151.431 21.6003L147.284 21.6003L147.284 17.4531L145.901 17.4531L145.901 21.6003L141.754 21.6003L141.754 22.9827L145.901 22.9827L145.901 27.13L147.284 27.13L147.284 22.9827L151.431 22.9827L151.431 21.6003Z" fill="url(#paint17_linear_25616_63599)"/>
<path d="M151.431 47.738L147.284 47.738L147.284 43.5908L145.901 43.5908L145.901 47.738L141.754 47.738L141.754 49.1204L145.901 49.1204L145.901 53.2677L147.284 53.2677L147.284 49.1204L151.431 49.1204L151.431 47.738Z" fill="url(#paint18_linear_25616_63599)"/>
<path d="M151.431 73.8752L147.284 73.8752L147.284 69.728L145.901 69.728L145.901 73.8752L141.754 73.8752L141.754 75.2576L145.901 75.2576L145.901 79.4049L147.284 79.4049L147.284 75.2576L151.431 75.2576L151.431 73.8752Z" fill="url(#paint19_linear_25616_63599)"/>
<path d="M151.431 100.013L147.284 100.013L147.284 95.8657L145.901 95.8657L145.901 100.013L141.754 100.013L141.754 101.395L145.901 101.395L145.901 105.543L147.284 105.543L147.284 101.395L151.431 101.395L151.431 100.013Z" fill="url(#paint20_linear_25616_63599)"/>
<path d="M151.431 126.151L147.284 126.151L147.284 122.003L145.901 122.003L145.901 126.151L141.754 126.151L141.754 127.533L145.901 127.533L145.901 131.68L147.284 131.68L147.284 127.533L151.431 127.533L151.431 126.151Z" fill="url(#paint21_linear_25616_63599)"/>
</g>
<g opacity="0.8">
<path d="M174.493 8.53149L170.346 8.53149L170.346 4.38428L168.964 4.38428L168.964 8.53149L164.816 8.53149L164.816 9.9139L168.964 9.9139L168.964 14.0611L170.346 14.0611L170.346 9.9139L174.493 9.9139L174.493 8.53149Z" fill="#316CE4"/>
<path d="M174.493 34.6697L170.346 34.6697L170.346 30.5225L168.964 30.5225L168.964 34.6697L164.816 34.6697L164.816 36.0521L168.964 36.0521L168.964 40.1993L170.346 40.1993L170.346 36.0521L174.493 36.0521L174.493 34.6697Z" fill="#316CE4"/>
<path d="M174.493 60.8064L170.346 60.8064L170.346 56.6592L168.964 56.6592L168.964 60.8064L164.816 60.8064L164.816 62.1888L168.964 62.1888L168.964 66.336L170.346 66.336L170.346 62.1888L174.493 62.1888L174.493 60.8064Z" fill="#316CE4"/>
<path d="M174.493 86.9441L170.346 86.9441L170.346 82.7969L168.964 82.7969L168.964 86.9441L164.816 86.9441L164.816 88.3265L168.964 88.3265L168.964 92.4737L170.346 92.4737L170.346 88.3265L174.493 88.3265L174.493 86.9441Z" fill="#316CE4"/>
<path d="M174.493 113.082L170.346 113.082L170.346 108.935L168.964 108.935L168.964 113.082L164.816 113.082L164.816 114.465L168.964 114.465L168.964 118.612L170.346 118.612L170.346 114.465L174.493 114.465L174.493 113.082Z" fill="#316CE4"/>
</g>
<g clip-path="url(#clip0_25616_63599)">
<path d="M98.6893 102.951C93.3365 102.951 87.9766 102.881 82.6238 102.993C80.9235 103.028 79.8459 102.47 78.8453 101.123C72.3099 92.3793 65.7046 83.6775 59.0992 74.9898C58.2176 73.8314 57.7698 72.8196 58.1406 71.2146C60.6666 60.3776 63.0736 49.5196 65.3967 38.6407C65.7396 37.0427 66.5582 36.2751 67.8877 35.6261C77.3759 30.9578 86.8501 26.2615 96.2963 21.5303C97.5418 20.9093 98.5634 20.7976 99.8648 21.4396C109.969 26.4359 120.094 31.3904 130.24 36.2821C131.779 37.0218 132.374 38.0476 132.731 39.6874C134.998 50.2244 137.356 60.7404 139.812 71.2355C140.197 72.8684 140.057 74.0198 139 75.3596C132.318 83.852 125.698 92.3862 119.149 100.983C118.051 102.421 116.959 103.056 115.112 103.014C109.633 102.867 104.161 102.951 98.6893 102.951Z" fill="#316CE3"/>
<path d="M111.892 75.7571C114.383 75.7571 116.797 75.6873 119.197 75.771C124.403 75.9525 127.769 81.4652 125.593 86.1266C125.25 86.8663 124.704 87.1873 123.948 87.0896C123.151 86.9849 122.787 86.4127 122.689 85.6451C122.43 83.6354 123.108 80.7508 121.373 79.7765C119.639 78.8022 116.573 79.0926 113.872 79.0926C105.252 78.9949 96.6313 79.0787 88.0107 79.0508C80.2788 79.0298 76.7453 75.45 76.7313 67.6973C76.7243 63.7477 76.6683 59.7981 76.7453 55.8485C76.8922 47.7608 82.364 42.4016 90.4807 42.3318C93.7414 42.3039 97.0021 42.283 100.263 42.3388C107.246 42.4574 112.739 46.9723 113.362 53.8597C113.865 59.3864 113.613 64.9968 113.439 70.5653C113.411 72.2192 112.501 73.8451 111.892 75.7571Z" fill="#FDFDFE"/>
<path d="M94.8468 75.7501C92.0549 75.7501 89.2561 75.8339 86.4712 75.7292C82.5248 75.5827 80.2017 73.2938 80.1247 69.3721C80.0268 64.62 80.0128 59.8609 80.1317 55.1018C80.2647 49.7915 84.1341 45.8768 89.396 45.7093C93.2305 45.5837 97.0789 45.5907 100.913 45.7093C106.182 45.8698 110.08 49.7636 110.22 55.06C110.346 59.8121 110.325 64.5712 110.227 69.3303C110.15 73.2659 107.848 75.5896 103.922 75.7292C100.899 75.8408 97.8696 75.7501 94.8468 75.7501Z" fill="#316CE3"/>
<path d="M92.6865 63.8179C92.6865 65.3252 92.7215 66.8324 92.6865 68.3397C92.6585 69.4074 92.1197 70.147 90.9932 70.1261C90.0416 70.1052 89.4678 69.3725 89.4608 68.5142C89.4048 63.6364 89.3978 58.7587 89.4468 53.881C89.4538 52.8901 90.0066 52.0458 91.1821 52.1225C92.3367 52.1993 92.6725 53.0576 92.6865 54.0834C92.7075 55.3394 92.6865 56.0861 92.6865 58.7227C94.309 57.2543 96.3094 55.314 97.8085 53.6856C98.5921 52.8343 99.5927 51.7597 100.754 52.8552C102.042 54.0764 100.957 55.1441 100.048 56.0861C99.9636 56.1698 99.8796 56.2466 99.7957 56.3303C97.92 58.2009 97.1133 59.092 95.5254 60.6916C96.2311 61.4754 97.8725 63.2695 99.9776 65.4717C100.922 66.4626 102.902 67.5093 101.153 69.1143C99.7047 70.4401 98.6271 68.8003 97.7245 67.8373C96.3181 66.33 95.0376 64.7041 93.7011 63.127C93.3652 63.3503 93.0224 63.5806 92.6865 63.8179Z" fill="#FAFBFE"/>
</g>
<defs>
<linearGradient id="paint0_linear_25616_63599" x1="8.21733" y1="30.522" x2="8.21733" y2="40.1988" gradientUnits="userSpaceOnUse">
<stop offset="0.0001" stop-color="#6F97EA"/>
<stop offset="1" stop-color="#316CE4"/>
</linearGradient>
<linearGradient id="paint1_linear_25616_63599" x1="8.21733" y1="56.6592" x2="8.21733" y2="66.336" gradientUnits="userSpaceOnUse">
<stop offset="0.0001" stop-color="#6F97EA"/>
<stop offset="1" stop-color="#316CE4"/>
</linearGradient>
<linearGradient id="paint2_linear_25616_63599" x1="8.21733" y1="82.7969" x2="8.21733" y2="92.4737" gradientUnits="userSpaceOnUse">
<stop offset="0.0001" stop-color="#6F97EA"/>
<stop offset="1" stop-color="#316CE4"/>
</linearGradient>
<linearGradient id="paint3_linear_25616_63599" x1="31.2798" y1="43.5908" x2="31.2798" y2="53.2677" gradientUnits="userSpaceOnUse">
<stop offset="0.0001" stop-color="#6F97EA"/>
<stop offset="1" stop-color="#316CE4"/>
</linearGradient>
<linearGradient id="paint4_linear_25616_63599" x1="77.4048" y1="-8.68457" x2="77.4048" y2="0.992268" gradientUnits="userSpaceOnUse">
<stop offset="0.0001" stop-color="#6F97EA"/>
<stop offset="1" stop-color="#316CE4"/>
</linearGradient>
<linearGradient id="paint5_linear_25616_63599" x1="77.4048" y1="17.4531" x2="77.4048" y2="27.13" gradientUnits="userSpaceOnUse">
<stop offset="0.0001" stop-color="#6F97EA"/>
<stop offset="1" stop-color="#316CE4"/>
</linearGradient>
<linearGradient id="paint6_linear_25616_63599" x1="77.4048" y1="43.5908" x2="77.4048" y2="53.2677" gradientUnits="userSpaceOnUse">
<stop offset="0.0001" stop-color="#6F97EA"/>
<stop offset="1" stop-color="#316CE4"/>
</linearGradient>
<linearGradient id="paint7_linear_25616_63599" x1="77.4048" y1="69.728" x2="77.4048" y2="79.4049" gradientUnits="userSpaceOnUse">
<stop offset="0.0001" stop-color="#6F97EA"/>
<stop offset="1" stop-color="#316CE4"/>
</linearGradient>
<linearGradient id="paint8_linear_25616_63599" x1="77.4048" y1="95.8657" x2="77.4048" y2="105.543" gradientUnits="userSpaceOnUse">
<stop offset="0.0001" stop-color="#6F97EA"/>
<stop offset="1" stop-color="#316CE4"/>
</linearGradient>
<linearGradient id="paint9_linear_25616_63599" x1="77.4048" y1="122.003" x2="77.4048" y2="131.68" gradientUnits="userSpaceOnUse">
<stop offset="0.0001" stop-color="#6F97EA"/>
<stop offset="1" stop-color="#316CE4"/>
</linearGradient>
<linearGradient id="paint10_linear_25616_63599" x1="100.467" y1="30.522" x2="100.467" y2="40.1988" gradientUnits="userSpaceOnUse">
<stop offset="0.0001" stop-color="#6F97EA"/>
<stop offset="1" stop-color="#316CE4"/>
</linearGradient>
<linearGradient id="paint11_linear_25616_63599" x1="123.53" y1="4.38428" x2="123.53" y2="14.0611" gradientUnits="userSpaceOnUse">
<stop offset="0.0001" stop-color="#6F97EA"/>
<stop offset="1" stop-color="#316CE4"/>
</linearGradient>
<linearGradient id="paint12_linear_25616_63599" x1="123.53" y1="30.522" x2="123.53" y2="40.1988" gradientUnits="userSpaceOnUse">
<stop offset="0.0001" stop-color="#6F97EA"/>
<stop offset="1" stop-color="#316CE4"/>
</linearGradient>
<linearGradient id="paint13_linear_25616_63599" x1="123.53" y1="56.6592" x2="123.53" y2="66.336" gradientUnits="userSpaceOnUse">
<stop offset="0.0001" stop-color="#6F97EA"/>
<stop offset="1" stop-color="#316CE4"/>
</linearGradient>
<linearGradient id="paint14_linear_25616_63599" x1="123.53" y1="82.7969" x2="123.53" y2="92.4737" gradientUnits="userSpaceOnUse">
<stop offset="0.0001" stop-color="#6F97EA"/>
<stop offset="1" stop-color="#316CE4"/>
</linearGradient>
<linearGradient id="paint15_linear_25616_63599" x1="123.53" y1="108.935" x2="123.53" y2="118.611" gradientUnits="userSpaceOnUse">
<stop offset="0.0001" stop-color="#6F97EA"/>
<stop offset="1" stop-color="#316CE4"/>
</linearGradient>
<linearGradient id="paint16_linear_25616_63599" x1="146.592" y1="-8.68457" x2="146.592" y2="0.992268" gradientUnits="userSpaceOnUse">
<stop offset="0.0001" stop-color="#6F97EA"/>
<stop offset="1" stop-color="#316CE4"/>
</linearGradient>
<linearGradient id="paint17_linear_25616_63599" x1="146.592" y1="17.4531" x2="146.592" y2="27.13" gradientUnits="userSpaceOnUse">
<stop offset="0.0001" stop-color="#6F97EA"/>
<stop offset="1" stop-color="#316CE4"/>
</linearGradient>
<linearGradient id="paint18_linear_25616_63599" x1="146.592" y1="43.5908" x2="146.592" y2="53.2677" gradientUnits="userSpaceOnUse">
<stop offset="0.0001" stop-color="#6F97EA"/>
<stop offset="1" stop-color="#316CE4"/>
</linearGradient>
<linearGradient id="paint19_linear_25616_63599" x1="146.592" y1="69.728" x2="146.592" y2="79.4049" gradientUnits="userSpaceOnUse">
<stop offset="0.0001" stop-color="#6F97EA"/>
<stop offset="1" stop-color="#316CE4"/>
</linearGradient>
<linearGradient id="paint20_linear_25616_63599" x1="146.592" y1="95.8657" x2="146.592" y2="105.543" gradientUnits="userSpaceOnUse">
<stop offset="0.0001" stop-color="#6F97EA"/>
<stop offset="1" stop-color="#316CE4"/>
</linearGradient>
<linearGradient id="paint21_linear_25616_63599" x1="146.592" y1="122.003" x2="146.592" y2="131.68" gradientUnits="userSpaceOnUse">
<stop offset="0.0001" stop-color="#6F97EA"/>
<stop offset="1" stop-color="#316CE4"/>
</linearGradient>
<clipPath id="clip0_25616_63599">
<rect width="82" height="82" fill="white" transform="translate(58 21)"/>
</clipPath>
</defs>
</svg>
