<svg width="394" height="394" viewBox="0 0 394 394" fill="none" xmlns="http://www.w3.org/2000/svg">
<path d="M353.06 215.215H309.323C303.834 215.215 299.383 219.668 299.383 225.161V369.373C299.383 374.866 294.933 379.318 289.443 379.318H104.557C99.0671 379.318 94.6168 374.866 94.6168 369.373V279.544C94.6168 274.051 90.1664 269.598 84.6766 269.598H40.9401C35.4503 269.598 31 265.146 31 259.653V23.264C31 17.7712 35.4269 13.3184 40.9167 13.3184H353.089C358.579 13.3184 363 17.7712 363 23.264V205.269C363 210.762 358.55 215.215 353.06 215.215Z" fill="#211F26"/>
</svg>
