<svg width="329" height="328" viewBox="0 0 329 328" fill="none" xmlns="http://www.w3.org/2000/svg">
<path d="M275.398 182.797L264.772 249.633L327.984 273.877L327.974 213.146L275.398 182.797Z" fill="#A299FF"/>
<path d="M0 243.506V84.4956L52.6015 101.175V213.136L137.708 262.271L144.067 286.511L137.708 323.008L0 243.506Z" fill="#7366FF"/>
<path d="M137.721 65.7373L52.6017 114.863L0.000244141 84.4957L137.69 5L275.398 84.4957L246.344 107.644L222.828 114.872L137.721 65.7373Z" fill="#7366FF"/>
<path d="M328 273.854L275.398 304.243L222.828 273.854V213.139L328 273.854Z" fill="#5219FF"/>
<path d="M137.721 103.424L137.69 164.145L190.307 194.503L190.298 133.772L137.721 103.424Z" fill="#A299FF"/>
<path d="M137.69 164.146L85.1072 194.503L137.699 224.877L190.307 194.503L137.69 164.146Z" fill="#5219FF"/>
<path d="M137.721 103.424L85.1135 133.797L85.1072 194.503L137.69 164.145L137.721 103.424Z" fill="#7366FF"/>
<path d="M275.398 84.4956V182.797L222.828 213.139V114.872L275.398 84.4956Z" fill="url(#paint0_linear_1_359)"/>
<path d="M275.414 182.766L137.708 262.271V323.008L275.398 243.497L275.414 182.766Z" fill="url(#paint1_linear_1_359)"/>
<defs>
<linearGradient id="paint0_linear_1_359" x1="249.114" y1="84.4953" x2="249.114" y2="213.14" gradientUnits="userSpaceOnUse">
<stop offset="0.25" stop-color="#7366FF"/>
<stop offset="1" stop-color="#5219FF"/>
</linearGradient>
<linearGradient id="paint1_linear_1_359" x1="137.707" y1="252.888" x2="275.413" y2="252.888" gradientUnits="userSpaceOnUse">
<stop stop-color="#7366FF"/>
<stop offset="1" stop-color="#A299FF"/>
</linearGradient>
</defs>
</svg>
