<svg width="91" height="28" viewBox="0 0 91 28" fill="none" xmlns="http://www.w3.org/2000/svg">
<path d="M21.4611 15.4487L20.6414 20.6045L25.5176 22.4748L25.5169 17.7899L21.4611 15.4487Z" fill="#A299FF"/>
<path d="M0.216309 20.1316V7.86523L4.27409 9.15194V17.7888L10.8394 21.5791L11.3299 23.4491L10.8394 26.2645L0.216309 20.1316Z" fill="#7366FF"/>
<path d="M10.8404 6.4183L4.27409 10.2079L0.216309 7.86537L10.838 1.73291L21.4611 7.86537L19.2197 9.65106L17.4057 10.2087L10.8404 6.4183Z" fill="#7366FF"/>
<path d="M25.5189 22.4728L21.4611 24.817L17.4058 22.4728V17.7891L25.5189 22.4728Z" fill="#5219FF"/>
<path d="M10.8404 9.32568L10.838 14.0099L14.897 16.3517L14.8963 11.6668L10.8404 9.32568Z" fill="#A299FF"/>
<path d="M10.8379 14.0098L6.78162 16.3516L10.8387 18.6947L14.8969 16.3516L10.8379 14.0098Z" fill="#5219FF"/>
<path d="M10.8404 9.32568L6.7821 11.6687L6.78162 16.3517L10.8379 14.0099L10.8404 9.32568Z" fill="#7366FF"/>
<path d="M21.4611 7.86523V15.4484L17.4058 17.789V10.2085L21.4611 7.86523Z" fill="url(#paint0_linear_27962_89150)"/>
<path d="M21.4622 15.4463L10.8394 21.5795V26.2649L21.461 20.1312L21.4622 15.4463Z" fill="url(#paint1_linear_27962_89150)"/>
<path d="M46.6839 19.3526C45.9899 18.6663 45.5164 17.7886 45.3239 16.8318C45.1314 15.875 45.2287 14.8825 45.6032 13.9812C45.9777 13.08 46.6126 12.3109 47.4265 11.7723C48.2404 11.2337 49.1965 10.9501 50.1725 10.9578C50.8196 10.9509 51.4615 11.073 52.061 11.3169C52.6604 11.5607 53.2052 11.9216 53.6637 12.3783C54.1221 12.8351 54.485 13.3785 54.7312 13.977C54.9773 14.5755 55.1018 15.217 55.0974 15.8642C55.0894 16.8353 54.7958 17.7827 54.253 18.5881C53.7103 19.3935 52.9425 20.0214 52.0453 20.3933C51.1482 20.7653 50.1614 20.865 49.208 20.6799C48.2545 20.4948 47.3767 20.0332 46.6839 19.3526V19.3526ZM50.1725 18.8117C50.5566 18.8206 50.9386 18.7507 51.2947 18.6063C51.6508 18.4619 51.9736 18.2462 52.2431 17.9722C52.7822 17.4027 53.0826 16.6483 53.0826 15.8642C53.0826 15.08 52.7822 14.3256 52.2431 13.7561C51.6883 13.2177 50.9455 12.9166 50.1724 12.9166C49.3992 12.9166 48.6565 13.2177 48.1016 13.7561C47.5625 14.3256 47.2621 15.08 47.2621 15.8642C47.2621 16.6483 47.5625 17.4027 48.1016 17.9722C48.3712 18.2462 48.694 18.462 49.0501 18.6063C49.4063 18.7507 49.7883 18.8206 50.1725 18.8117Z" fill="#151B2B"/>
<path d="M62.5388 11.2007H64.7401L61.1024 20.5284H58.7705L55.1327 11.2007H57.3341L59.9458 18.2896L62.5388 11.2007Z" fill="#151B2B"/>
<path d="M66.8929 16.7227C67.1914 18.1404 68.3293 18.924 69.8777 18.924C70.941 18.924 71.7433 18.5321 72.2841 17.7673L73.9446 18.7374C73.0304 20.0992 71.6686 20.7708 69.859 20.7708C68.3479 20.7708 67.1167 20.3045 66.184 19.3903C65.7225 18.9292 65.3603 18.3785 65.1197 17.7721C64.879 17.1657 64.7651 16.5165 64.7848 15.8645C64.7679 15.2199 64.8814 14.5786 65.1187 13.9791C65.3559 13.3796 65.7119 12.8343 66.1653 12.3759C67.0795 11.4244 68.2734 10.9581 69.7098 10.9581C70.34 10.9413 70.9664 11.0609 71.5459 11.3089C72.1255 11.5568 72.6446 11.9272 73.0677 12.3946C73.944 13.3422 74.4188 14.5927 74.3922 15.8832C74.3889 16.1645 74.364 16.4452 74.3176 16.7227L66.8929 16.7227ZM72.3588 15.0809C72.079 13.5698 71.0157 12.7862 69.6911 12.7862C68.1987 12.7862 67.154 13.6632 66.8742 15.0809H72.3588Z" fill="#151B2B"/>
<path d="M77.7327 12.7678C78.2362 11.6111 79.2064 11.2007 80.6054 11.2007V13.1854C79.8871 13.1534 79.1784 13.3608 78.5907 13.7751C78.0124 14.1855 77.7327 14.8757 77.7327 15.8273V20.5284H75.7178V11.2007H77.7327V12.7678Z" fill="#151B2B"/>
<path d="M88.388 11.2007H90.5333L86.9516 20.8269C86.0561 23.2333 84.545 24.39 82.3997 24.2593V22.3752C83.6683 22.4499 84.3771 21.8342 84.8809 20.5469L84.9741 20.3605L81.0192 11.2007H83.2206L86.0001 17.9726L88.388 11.2007Z" fill="#151B2B"/>
<path d="M44.585 18.9232L42.7638 17.8718C43.5655 16.741 43.9874 15.3848 43.9688 13.9988C43.9671 12.6596 43.5688 11.3508 42.8242 10.2376C42.0796 9.12445 41.022 8.25671 39.7848 7.74387C38.5476 7.23103 37.1863 7.09605 35.8725 7.35597C34.5587 7.61589 33.3513 8.25906 32.4026 9.20435C31.7604 9.82411 31.2532 10.5699 30.9129 11.395C30.5726 12.22 30.4066 13.1065 30.4251 13.9988C30.4182 14.89 30.5887 15.7737 30.9266 16.5985C31.2644 17.4232 31.763 18.1724 32.3932 18.8027C33.0234 19.4329 33.7727 19.9314 34.5974 20.2693C35.4221 20.6072 36.3058 20.7776 37.197 20.7708C38.424 20.7711 39.6286 20.4425 40.6855 19.8193C40.9138 19.6884 41.1312 19.5392 41.3356 19.3733L44.585 21.2483L44.585 18.9232ZM37.197 18.6813C36.5871 18.693 35.9812 18.5799 35.4166 18.3489C34.852 18.1179 34.3406 17.7739 33.9137 17.3381C33.0518 16.4401 32.5704 15.2436 32.5704 13.9988C32.5704 12.7541 33.0518 11.5575 33.9137 10.6595C34.7898 9.79876 35.9688 9.31646 37.197 9.31646C38.4252 9.31646 39.6043 9.79876 40.4804 10.6595C40.9199 11.0953 41.2658 11.6163 41.4967 12.1905C41.7277 12.7647 41.8389 13.3801 41.8235 13.9988C41.8358 15.0084 41.5207 15.9948 40.9252 16.8102L37.197 14.6577V16.9847L39.2818 18.1881C39.2035 18.2295 39.1558 18.2522 39.1558 18.2522C38.5415 18.5349 37.8733 18.6813 37.197 18.6813Z" fill="#151B2B"/>
<defs>
<linearGradient id="paint0_linear_27962_89150" x1="19.4335" y1="7.86521" x2="19.4335" y2="17.7891" gradientUnits="userSpaceOnUse">
<stop offset="0.25" stop-color="#7366FF"/>
<stop offset="1" stop-color="#5219FF"/>
</linearGradient>
<linearGradient id="paint1_linear_27962_89150" x1="10.8392" y1="20.8557" x2="21.4621" y2="20.8557" gradientUnits="userSpaceOnUse">
<stop stop-color="#7366FF"/>
<stop offset="1" stop-color="#A299FF"/>
</linearGradient>
</defs>
</svg>
