<svg width="24" height="24" viewBox="0 0 24 24" fill="none" xmlns="http://www.w3.org/2000/svg">
<path d="M20.25 6.4094L12.75 2.19574C12.2856 1.93475 11.7138 1.93475 11.25 2.19574L3.75 6.4094C3.2862 6.6698 3 7.15205 3 7.67343V16.1008C3 16.6221 3.2856 17.1038 3.75 17.3648L12 22V17.3648C12 17.1038 12.1428 16.8633 12.375 16.7325L16.5 14.4152V19.4713L20.25 17.3648C20.7144 17.1038 21 16.6221 21 16.1008V7.67343C21 7.15205 20.7144 6.67039 20.25 6.4094ZM11.625 12.0979L7.50001 14.4152V9.77996C7.50001 9.519 7.64279 9.27844 7.87501 9.14766L11.625 7.04112C11.8572 6.91092 12.1428 6.91092 12.375 7.04112L16.125 9.14766C16.3572 9.27785 16.5 9.519 16.5 9.77996V14.4152L12.375 12.0979C12.1428 11.9677 11.8572 11.9677 11.625 12.0979Z" fill="#642DFF"/>
</svg>
