<svg width="84" height="96" viewBox="0 0 84 96" fill="none" xmlns="http://www.w3.org/2000/svg">
<path d="M80.3554 21.4078L45.5514 1.31333C43.3963 0.0687351 40.7428 0.0687351 38.5906 1.31333L3.78655 21.4078C1.63427 22.6496 0.306152 24.9494 0.306152 27.4358V67.6247C0.306152 70.1111 1.63149 72.4082 3.78655 73.6528L42.071 95.7575V73.6528C42.071 72.4082 42.7336 71.261 43.8112 70.6373L62.9534 59.5864V83.6986L80.3554 73.6528C82.5104 72.4082 83.8358 70.1111 83.8358 67.6247V27.4358C83.8358 24.9494 82.5104 22.6524 80.3554 21.4078ZM40.3308 48.5354L21.1886 59.5864V37.4816C21.1886 36.2371 21.8512 35.0899 22.9288 34.4662L40.3308 24.4204C41.4083 23.7995 42.7336 23.7995 43.8112 24.4204L61.2132 34.4662C62.2907 35.0871 62.9534 36.2371 62.9534 37.4816V59.5864L43.8112 48.5354C42.7336 47.9145 41.4083 47.9145 40.3308 48.5354Z" fill="#642DFF"/>
</svg>
