<svg width="91" height="28" viewBox="0 0 91 28" fill="none" xmlns="http://www.w3.org/2000/svg">
<path d="M21.4611 15.4485L20.6414 20.6043L25.5176 22.4745L25.5169 17.7896L21.4611 15.4485Z" fill="#A299FF"/>
<path d="M0.216309 20.1317V7.86536L4.27409 9.15206V17.7889L10.8394 21.5793L11.3299 23.4493L10.8394 26.2647L0.216309 20.1317Z" fill="#7366FF"/>
<path d="M10.8404 6.4183L4.27409 10.2079L0.216309 7.86537L10.838 1.73291L21.4611 7.86537L19.2197 9.65106L17.4057 10.2087L10.8404 6.4183Z" fill="#7366FF"/>
<path d="M25.5189 22.4729L21.4611 24.8172L17.4058 22.4729V17.7892L25.5189 22.4729Z" fill="#5219FF"/>
<path d="M10.8403 9.3255L10.8379 14.0097L14.8969 16.3515L14.8962 11.6666L10.8403 9.3255Z" fill="#A299FF"/>
<path d="M10.8381 14.0097L6.78174 16.3516L10.8388 18.6946L14.8971 16.3516L10.8381 14.0097Z" fill="#5219FF"/>
<path d="M10.8405 9.3255L6.78222 11.6686L6.78174 16.3515L10.8381 14.0097L10.8405 9.3255Z" fill="#7366FF"/>
<path d="M21.4611 7.86536V15.4485L17.4058 17.7891V10.2087L21.4611 7.86536Z" fill="url(#paint0_linear_22410_52317)"/>
<path d="M21.4622 15.4461L10.8394 21.5793V26.2647L21.461 20.131L21.4622 15.4461Z" fill="url(#paint1_linear_22410_52317)"/>
<path d="M46.6839 19.3528C45.9899 18.6665 45.5164 17.7889 45.3239 16.8321C45.1314 15.8752 45.2287 14.8827 45.6032 13.9815C45.9777 13.0802 46.6126 12.3111 47.4265 11.7725C48.2404 11.234 49.1965 10.9504 50.1725 10.958C50.8196 10.9511 51.4615 11.0732 52.061 11.3171C52.6604 11.561 53.2052 11.9218 53.6637 12.3786C54.1221 12.8353 54.485 13.3788 54.7312 13.9773C54.9773 14.5758 55.1018 15.2173 55.0974 15.8644C55.0894 16.8356 54.7958 17.7829 54.253 18.5884C53.7103 19.3938 52.9425 20.0216 52.0453 20.3936C51.1482 20.7656 50.1614 20.8652 49.208 20.6802C48.2545 20.4951 47.3767 20.0335 46.6839 19.3529V19.3528ZM50.1725 18.812C50.5566 18.8209 50.9386 18.751 51.2947 18.6066C51.6508 18.4622 51.9736 18.2464 52.2431 17.9725C52.7822 17.403 53.0826 16.6486 53.0826 15.8644C53.0826 15.0802 52.7822 14.3258 52.2431 13.7563C51.6883 13.2179 50.9455 12.9168 50.1724 12.9168C49.3992 12.9168 48.6565 13.2179 48.1016 13.7563C47.5625 14.3258 47.2621 15.0802 47.2621 15.8644C47.2621 16.6486 47.5625 17.403 48.1016 17.9725C48.3712 18.2464 48.694 18.4622 49.0501 18.6066C49.4063 18.751 49.7883 18.8209 50.1725 18.812Z" fill="white"/>
<path d="M62.5387 11.2006H64.74L61.1022 20.5282H58.7703L55.1326 11.2006H57.334L59.9457 18.2895L62.5387 11.2006Z" fill="white"/>
<path d="M66.8927 16.7227C67.1912 18.1404 68.3292 18.924 69.8776 18.924C70.9409 18.924 71.7432 18.5321 72.284 17.7673L73.9445 18.7374C73.0303 20.0992 71.6685 20.7708 69.8589 20.7708C68.3478 20.7708 67.1166 20.3045 66.1839 19.3903C65.7224 18.9292 65.3602 18.3785 65.1195 17.7721C64.8789 17.1657 64.7649 16.5165 64.7847 15.8645C64.7677 15.2199 64.8813 14.5786 65.1186 13.9791C65.3558 13.3796 65.7118 12.8343 66.1652 12.3759C67.0793 11.4244 68.2733 10.9581 69.7097 10.9581C70.3399 10.9413 70.9662 11.0609 71.5458 11.3089C72.1254 11.5568 72.6445 11.9272 73.0675 12.3946C73.9439 13.3422 74.4186 14.5927 74.3921 15.8832C74.3888 16.1645 74.3638 16.4452 74.3174 16.7227L66.8927 16.7227ZM72.3587 15.0809C72.0789 13.5698 71.0156 12.7862 69.691 12.7862C68.1986 12.7862 67.1538 13.6632 66.8741 15.0809H72.3587Z" fill="white"/>
<path d="M77.7324 12.7676C78.236 11.611 79.2061 11.2006 80.6052 11.2006V13.1852C79.8868 13.1532 79.1782 13.3607 78.5905 13.775C78.0122 14.1854 77.7324 14.8756 77.7324 15.8271V20.5282H75.7175V11.2006H77.7324V12.7676Z" fill="white"/>
<path d="M88.3879 11.2006H90.5333L86.9515 20.8267C86.056 23.2331 84.5449 24.3898 82.3996 24.2592V22.3751C83.6681 22.4498 84.377 21.8341 84.8808 20.5468L84.974 20.3604L81.019 11.2006H83.2205L86.0001 17.9725L88.3879 11.2006Z" fill="white"/>
<path d="M44.5848 18.9233L42.7637 17.8718C43.5654 16.741 43.9873 15.3849 43.9687 13.9989C43.967 12.6596 43.5687 11.3509 42.8241 10.2377C42.0794 9.12451 41.0218 8.25677 39.7847 7.74393C38.5475 7.23109 37.1861 7.09612 35.8723 7.35603C34.5585 7.61595 33.3511 8.25912 32.4024 9.20441C31.7602 9.82417 31.2531 10.57 30.9128 11.395C30.5725 12.2201 30.4064 13.1066 30.425 13.9989C30.4181 14.8901 30.5886 15.7738 30.9264 16.5985C31.2643 17.4232 31.7629 18.1725 32.3931 18.8027C33.0233 19.4329 33.7726 19.9315 34.5973 20.2694C35.422 20.6072 36.3057 20.7777 37.1969 20.7708C38.4239 20.7711 39.6285 20.4426 40.6854 19.8194C40.9137 19.6884 41.1311 19.5393 41.3355 19.3734L44.5848 21.2483L44.5848 18.9233ZM37.1969 18.6814C36.587 18.6931 35.9811 18.5799 35.4165 18.3489C34.8519 18.1179 34.3404 17.774 33.9136 17.3382C33.0516 16.4401 32.5703 15.2436 32.5703 13.9989C32.5703 12.7541 33.0516 11.5576 33.9136 10.6596C34.7897 9.79883 35.9687 9.31652 37.1969 9.31652C38.4251 9.31652 39.6042 9.79883 40.4803 10.6596C40.9198 11.0954 41.2656 11.6163 41.4966 12.1906C41.7276 12.7648 41.8387 13.3801 41.8233 13.9989C41.8357 15.0085 41.5205 15.9949 40.9251 16.8103L37.1969 14.6577V16.9848L39.2816 18.1882C39.2034 18.2296 39.1557 18.2523 39.1557 18.2523C38.5414 18.5349 37.8731 18.6813 37.1969 18.6814Z" fill="white"/>
<defs>
<linearGradient id="paint0_linear_22410_52317" x1="19.4335" y1="7.86533" x2="19.4335" y2="17.7892" gradientUnits="userSpaceOnUse">
<stop offset="0.25" stop-color="#7366FF"/>
<stop offset="1" stop-color="#5219FF"/>
</linearGradient>
<linearGradient id="paint1_linear_22410_52317" x1="10.8392" y1="20.8555" x2="21.4621" y2="20.8555" gradientUnits="userSpaceOnUse">
<stop stop-color="#7366FF"/>
<stop offset="1" stop-color="#A299FF"/>
</linearGradient>
</defs>
</svg>
