<svg width="360" height="130" viewBox="0 0 360 130" fill="none" xmlns="http://www.w3.org/2000/svg">
<g clip-path="url(#clip0_111_14941)">
<path d="M360 0H0V130H360V0Z" fill="#642DFF"/>
<path d="M145.279 44.7377C160.042 44.7377 168.095 54.7507 168.095 68.7688C168.095 74.7765 166.753 78.7815 165.411 81.4516V82.7868L167.424 84.7892V91.4646L166.753 92.1321H162.055L159.371 89.4619H158.7C155.345 91.4646 150.647 92.7995 145.279 92.7995C130.515 92.7995 122.463 82.7868 122.463 68.7688C122.463 54.7507 130.515 44.7377 145.279 44.7377ZM145.279 84.7892C148.634 84.7892 150.647 84.1217 151.99 83.4543V82.1191L145.95 76.1114V70.1037L146.621 69.4362H151.319L152.661 70.1037L157.358 74.7765H158.029C158.7 72.7738 158.7 70.7714 158.7 68.7688C158.7 59.4235 154.674 52.7481 145.279 52.7481C135.884 52.7481 131.858 59.4235 131.858 68.7688C131.858 78.114 135.884 84.7892 145.279 84.7892Z" fill="white"/>
<path d="M189.572 92.7995C179.506 92.7995 172.795 86.1244 172.795 75.4439C172.795 64.7638 179.506 58.0883 189.572 58.0883C199.638 58.0883 206.348 64.7638 206.348 75.4439C206.348 86.1244 199.638 92.7995 189.572 92.7995ZM189.572 66.0987C184.874 66.0987 182.19 69.4362 182.19 75.4439C182.19 81.4516 184.874 84.7892 189.572 84.7892C194.269 84.7892 196.953 81.4516 196.953 75.4439C196.953 69.4362 194.269 66.0987 189.572 66.0987Z" fill="white"/>
<path d="M229.835 91.4646L229.164 92.1324H221.782L221.111 91.4646L209.703 66.099V59.4236L210.374 58.7561H216.414L217.085 59.4236L225.137 80.1167H225.808L233.861 59.4236L234.532 58.7561H240.572L241.243 59.4236V66.099L229.835 91.4646Z" fill="white"/>
<path d="M276.812 78.114L276.141 78.7815H255.339L254.667 79.4492C254.667 80.7842 256.01 84.7892 261.378 84.7892C263.391 84.7892 265.404 84.1217 266.075 82.7868L266.746 82.1194H274.799L275.47 82.7868C274.799 86.7918 271.444 92.7995 261.378 92.7995C249.97 92.7995 244.602 84.7892 244.602 75.4439C244.602 66.0987 249.97 58.0883 260.707 58.0883C271.444 58.0883 276.812 66.0987 276.812 75.4439V78.114ZM266.746 71.4389C266.746 70.7714 266.075 66.0987 260.707 66.0987C255.339 66.0987 254.667 70.7714 254.667 71.4389L255.339 72.1064H266.075L266.746 71.4389Z" fill="white"/>
<path d="M304.327 66.7664H299.628C294.26 66.7664 292.247 69.4366 292.247 75.4443V91.4646L291.575 92.1324H283.523L282.852 91.4646V59.4236L283.523 58.7561H290.904L291.575 59.4236L292.247 61.4262H292.918C294.327 59.4904 297.145 58.7561 300.299 58.7561H304.327L304.998 59.4236V66.099L304.327 66.7664Z" fill="white"/>
<path d="M329.155 92.7999C326.472 99.475 323.788 103.48 314.392 103.48H311.037L310.365 102.813V96.1374L311.037 95.47H314.392C317.747 95.47 318.418 94.8022 319.09 92.7999V92.1324L308.354 66.099V59.4236L309.022 58.7561H315.063L315.735 59.4236L323.788 82.1194H324.457L332.51 59.4236L333.181 58.7561H339.223L339.891 59.4236V66.099L329.155 92.7999Z" fill="white"/>
<path d="M96.9964 39.4246L63.4431 20.1544C61.3657 18.9609 58.8076 18.9609 56.7326 20.1544L23.1795 39.4246C21.1046 40.6154 19.8242 42.8209 19.8242 45.2051V83.7453C19.8242 86.1298 21.1019 88.3326 23.1795 89.5261L60.0879 110.724V89.5261C60.0879 88.3326 60.7268 87.2324 61.7657 86.6345L80.2198 76.0368V99.1599L96.9964 89.5261C99.0741 88.3326 100.352 86.1298 100.352 83.7453V45.2051C100.352 42.8209 99.0741 40.6181 96.9964 39.4246ZM58.4104 65.4391L39.956 76.0368V54.8389C39.956 53.6455 40.5949 52.5453 41.6338 51.9473L58.4104 42.3135C59.449 41.718 60.7268 41.718 61.7657 42.3135L78.5423 51.9473C79.5808 52.5426 80.2198 53.6455 80.2198 54.8389V76.0368L61.7657 65.4391C60.7268 64.8438 59.449 64.8438 58.4104 65.4391Z" fill="white"/>
</g>
<defs>
<clipPath id="clip0_111_14941">
<rect width="360" height="130" rx="16" fill="white"/>
</clipPath>
</defs>
</svg>
