<svg width="1190" height="432" viewBox="0 0 1190 432" fill="none" xmlns="http://www.w3.org/2000/svg">
<rect width="1190" height="432" fill="#642DFF"/>
<path d="M480.229 148.667C529.03 148.667 555.648 181.941 555.648 228.524C555.648 248.488 551.212 261.797 546.776 270.67V275.107L553.43 281.761V303.944L551.212 306.162H535.684L526.811 297.289H524.593C513.502 303.944 497.974 308.38 480.229 308.38C431.427 308.38 404.809 275.107 404.809 228.524C404.809 181.941 431.427 148.667 480.229 148.667ZM480.229 281.761C491.32 281.761 497.974 279.543 502.411 277.325V272.888L482.447 252.924V232.96L484.665 230.742H500.193L504.629 232.96L520.157 248.488H522.375C524.593 241.833 524.593 235.179 524.593 228.524C524.593 197.469 511.284 175.286 480.229 175.286C449.173 175.286 435.864 197.469 435.864 228.524C435.864 259.579 449.173 281.761 480.229 281.761Z" fill="white"/>
<path d="M626.64 308.38C593.367 308.38 571.184 286.198 571.184 250.706C571.184 215.215 593.367 193.032 626.64 193.032C659.914 193.032 682.096 215.215 682.096 250.706C682.096 286.198 659.914 308.38 626.64 308.38ZM626.64 219.651C611.112 219.651 602.24 230.742 602.24 250.706C602.24 270.67 611.112 281.761 626.64 281.761C642.168 281.761 651.041 270.67 651.041 250.706C651.041 230.742 642.168 219.651 626.64 219.651Z" fill="white"/>
<path d="M759.734 303.944L757.516 306.163H733.116L730.897 303.944L693.188 219.652V197.469L695.406 195.251H715.37L717.588 197.469L744.207 266.234H746.425L773.044 197.469L775.262 195.251H795.226L797.444 197.469V219.652L759.734 303.944Z" fill="white"/>
<path d="M915.02 259.579L912.802 261.797H844.037L841.818 264.016C841.818 268.452 846.255 281.761 864.001 281.761C870.655 281.761 877.31 279.543 879.528 275.107L881.746 272.889H908.365L910.583 275.107C908.365 288.416 897.274 308.38 864.001 308.38C826.291 308.38 808.545 281.761 808.545 250.706C808.545 219.651 826.291 193.032 861.782 193.032C897.274 193.032 915.02 219.651 915.02 250.706V259.579ZM881.746 237.397C881.746 235.179 879.528 219.651 861.782 219.651C844.037 219.651 841.818 235.179 841.818 237.397L844.037 239.615H879.528L881.746 237.397Z" fill="white"/>
<path d="M1005.97 221.87H990.439C972.693 221.87 966.039 230.743 966.039 250.707V303.944L963.82 306.163H937.202L934.983 303.944V197.469L937.202 195.251H961.602L963.82 197.469L966.039 204.124H968.257C972.915 197.691 982.232 195.251 992.657 195.251H1005.97L1008.19 197.469V219.652L1005.97 221.87Z" fill="white"/>
<path d="M1088.04 308.381C1079.17 330.563 1070.3 343.872 1039.24 343.872H1028.15L1025.93 341.654V319.472L1028.15 317.254H1039.24C1050.33 317.254 1052.55 315.035 1054.77 308.381V306.163L1019.28 219.652V197.469L1021.49 195.251H1041.46L1043.68 197.469L1070.3 272.889H1072.51L1099.13 197.469L1101.35 195.251H1121.32L1123.53 197.469V219.652L1088.04 308.381Z" fill="white"/>
<path d="M320.63 131.011L209.718 66.9746C202.851 63.0085 194.395 63.0085 187.536 66.9746L76.6244 131.011C69.7656 134.968 65.5332 142.297 65.5332 150.22V278.292C65.5332 286.216 69.7567 293.536 76.6244 297.502L198.627 367.944V297.502C198.627 293.536 200.739 289.88 204.173 287.893L265.174 252.676V329.516L320.63 297.502C327.498 293.536 331.721 286.216 331.721 278.292V150.22C331.721 142.297 327.498 134.977 320.63 131.011ZM193.082 217.459L132.08 252.676V182.234C132.08 178.268 134.192 174.612 137.626 172.625L193.082 140.611C196.515 138.632 200.739 138.632 204.173 140.611L259.629 172.625C263.062 174.603 265.174 178.268 265.174 182.234V252.676L204.173 217.459C200.739 215.481 196.515 215.481 193.082 217.459Z" fill="white"/>
</svg>
