<svg width="444" height="459" viewBox="0 0 444 459" fill="none" xmlns="http://www.w3.org/2000/svg">
<path fill-rule="evenodd" clip-rule="evenodd" d="M151.6 56.4499C200.54 1.4599 281.58 -14.6701 348.21 17.0699C436.73 59.2399 469.03 166.67 420.83 249.55L312.41 435.76C306.35 446.17 296.38 453.76 284.69 456.87C273 459.98 260.54 458.36 250.05 452.36L381.31 226.87C416.28 166.72 392.89 88.7599 328.71 58.0699C280.55 35.0399 221.69 46.5399 186.11 86.1499C166.49 107.89 155.47 135.97 155.1 165.16C154.73 194.36 165.04 222.69 184.11 244.92C187.54 248.91 191.23 252.67 195.15 256.17L118.52 388.05C115.52 393.21 111.53 397.72 106.78 401.35C102.02 404.97 96.6 407.63 90.81 409.17C85.02 410.71 78.98 411.1 73.04 410.33C67.1 409.55 61.37 407.62 56.17 404.65L139.36 261.48C127.41 244.37 118.83 225.17 114.07 204.9L63.1 292.8C57.04 303.21 47.07 310.8 35.38 313.91C23.69 317.02 11.23 315.4 0.73999 309.4L132.57 82.6399C138.06 73.3199 144.43 64.5499 151.6 56.4499ZM303.76 128.63C335.51 146.84 346.47 187.33 328.1 218.85L201.69 435.74C195.63 446.15 185.66 453.74 173.97 456.85C162.28 459.96 149.82 458.34 139.33 452.34L256.71 250.41C247.29 248.44 238.42 244.47 230.7 238.76C222.98 233.05 216.6 225.75 212 217.36C207.4 208.96 204.69 199.68 204.05 190.14C203.41 180.6 204.87 171.04 208.32 162.12C211.77 153.2 217.12 145.12 224.02 138.45C230.92 131.78 239.19 126.68 248.26 123.5C257.34 120.32 267 119.13 276.58 120.01C286.16 120.89 295.43 123.83 303.76 128.63ZM257.78 169.39C255.61 171.05 253.78 173.11 252.42 175.47H252.41C250.35 179.02 249.39 183.09 249.66 187.18C249.93 191.27 251.42 195.18 253.93 198.43C256.44 201.68 259.87 204.12 263.77 205.43C267.68 206.75 271.89 206.88 275.87 205.82C279.86 204.76 283.43 202.55 286.15 199.47C288.87 196.39 290.61 192.58 291.15 188.52C291.69 184.46 291 180.33 289.18 176.65C287.36 172.98 284.47 169.92 280.9 167.87C278.53 166.51 275.91 165.63 273.19 165.27C270.47 164.92 267.71 165.09 265.07 165.8C262.43 166.52 259.95 167.73 257.78 169.39Z" fill="#505AA5"/>
</svg>
