<?xml version="1.0"?>
<svg width="40" height="40" xmlns="http://www.w3.org/2000/svg" xmlns:svg="http://www.w3.org/2000/svg">
 <g class="layer">
  <title>Layer 1</title>
  <g class="graphic" id="svg_1">
   <g id="svg_2">
    <path d="m12.48,22.89c-7.01,0 -12.48,3.63 -12.48,8.27c0,4.65 5.47,8.28 12.48,8.28c7.01,0 12.48,-3.63 12.48,-8.28c0,-4.64 -5.47,-8.27 -12.48,-8.27zm0,13.21c-4.32,0 -9.14,-2.04 -9.14,-4.94c0,-2.89 4.82,-4.93 9.14,-4.93c1,0 2.04,0.11 3.01,0.32c1.39,0.21 7.96,2.22 5.86,5.77c-1.04,2.27 -5.15,3.78 -8.87,3.78z" fill="#64E892" id="svg_3"/>
   </g>
   <g id="svg_4">
    <path d="m20.49,19.66c-4.88,-6.27 -11.62,-8.99 -15.37,-6.18c-1.25,0.95 -2.04,2.37 -2.28,4.17c-0.47,3.52 1.12,8.04 4.26,12.1c3.57,4.61 8.16,7.3 11.82,7.3c1.33,0 2.55,-0.36 3.55,-1.1c1.24,-0.94 2.04,-2.36 2.28,-4.16c0.47,-3.55 -1.13,-8.08 -4.26,-12.13zm0.47,13.19c-0.65,0.77 -1.24,1 -1.8,0.86c-2.34,0.2 -6.24,-1.84 -9.46,-6.01c-2.54,-3.25 -3.96,-7.03 -3.61,-9.6c0.12,-0.92 0.44,-1.57 0.98,-1.96c0.41,-0.29 0.97,-0.47 1.62,-0.47c2.37,0 6.06,2.04 9.14,6.03c2.07,2.66 3.4,5.68 3.61,8.1c0.5,0.86 0.5,1.87 -0.48,3.05z" fill="#64E892" id="svg_5"/>
   </g>
   <g id="svg_6">
    <path d="m19.69,0c-5.47,0 -8.42,9.52 -8.42,18.48c0,8.96 2.95,18.48 8.42,18.48c5.47,0 8.43,-9.52 8.43,-18.48c0,-8.96 -2.96,-18.48 -8.43,-18.48zm0.56,33.53c-2.83,1.74 -4.82,-7.01 -4.82,-7.01l0.03,0c-0.53,-2.25 -0.85,-4.94 -0.85,-8.01c0,-9.26 3.01,-15.17 5.08,-15.17c2.07,0 5.09,5.91 5.09,15.17c0,8.43 -2.52,14.1 -4.53,15.02z" fill="#64E892" id="svg_7"/>
   </g>
  </g>
 </g>
</svg>