<svg width="24" height="24" viewBox="0 0 24 24" fill="none" xmlns="http://www.w3.org/2000/svg">
<path d="M11.5176 17.9874H15.1442C15.94 17.8916 16.5505 17.2355 16.5888 16.4348V11.2045C16.5888 10.5101 16.0259 9.94727 15.3316 9.94727C14.6373 9.94727 14.0744 10.5101 14.0744 11.2045V14.5287C14.0744 14.7794 13.9747 15.0198 13.7972 15.197C13.6198 15.3741 13.3791 15.4734 13.1284 15.4729H11.4858C11.1497 15.4738 10.8279 15.6091 10.5921 15.8485C10.3564 16.088 10.2261 16.4117 10.2303 16.7478C10.2496 17.4429 10.8223 17.9943 11.5176 17.9874Z" fill="#510098"/>
<path d="M13.151 6.04637H9.52446C8.72863 6.14215 8.1181 6.79826 8.07983 7.59891V12.8293C8.07983 13.5236 8.6427 14.0864 9.33703 14.0864C10.0314 14.0864 10.5942 13.5236 10.5942 12.8293V9.5068C10.5942 8.98434 11.0178 8.56081 11.5402 8.56081H13.1829C13.5192 8.56037 13.8414 8.42533 14.0776 8.18583C14.3138 7.94633 14.4443 7.62228 14.4401 7.28594C14.4189 6.59099 13.8463 6.04033 13.151 6.04637Z" fill="#510098"/>
<path d="M13.7578 3.5161C16.7084 3.51512 19.1025 5.90369 19.1083 8.85431V19.1311C18.9869 19.845 18.4123 20.3952 17.6938 20.4856H10.8614C7.90903 20.4846 5.51615 18.0909 5.51615 15.1385V5.16937C5.51568 4.73075 5.68972 4.30997 5.99987 3.99982C6.31002 3.68967 6.73081 3.51563 7.16943 3.5161H13.7578ZM13.7578 0.999944H7.16943C4.86672 0.999944 3 2.86666 3 5.16937V15.1438C3.00293 19.4835 6.52175 22.9999 10.8614 22.9999H17.8246C19.8163 22.8368 21.4116 21.2823 21.6263 19.2956V8.85431C21.6249 6.76918 20.795 4.77007 19.3192 3.29699C17.8435 1.82391 15.8429 0.997603 13.7578 0.999944Z" fill="#510098"/>
</svg>
