<svg width="40" height="40" viewBox="0 0 40 40" fill="none" xmlns="http://www.w3.org/2000/svg">
<path d="M33.7017 18.2916C33.5956 12.7029 25.92 6 25.92 6C25.92 6 29.0114 11.2089 29.4093 13.1985C26.0491 9.17501 19.8183 6.97272 19.8183 6.97272C19.8183 6.97272 26.5993 13.5886 27.158 14.8266C21.804 10.9529 11.6829 9.71401 11.6829 9.71401C11.6829 9.71401 23.1773 15.0482 24.1057 16.2862C15.7408 12.7494 7.04038 14.5334 7.04038 14.5334C7.04038 14.5334 18.3547 16.6236 20.3443 18.0827C12.4346 17.0722 3.94544 20.5465 3.94544 20.5465C3.94544 20.5465 15.7063 20.016 17.5192 20.5465C10.6882 20.3352 2.84007 26.2944 2.84007 26.2944C2.84007 26.2944 10.7102 24.5258 14.5569 23.9511C7.04038 27.046 2 33.236 2 33.236C2 33.236 8.72059 29.6105 11.1524 28.9915C10.666 30.3621 9.56059 32.7938 11.6829 33.236C13.3807 33.5898 16.6054 32.4697 17.5192 32.1748C17.7845 32.8381 18.0708 33.236 19.6414 33.236C21.0121 33.236 22.2797 32.6465 22.7808 32.1748C23.2671 32.8381 23.9605 33.236 24.9472 33.236C26.1409 33.236 26.7305 32.9708 27.158 32.617C27.5559 32.9708 27.9538 33.3174 29.1476 33.236C31.1373 33.1004 31.2257 30.6274 31.4025 28.6378C31.5794 26.6481 33.569 24.3931 35.8681 23.2436C38.1672 22.0941 38.1673 20.016 36.7525 20.5465C34.8955 20.9887 37.3715 21.9613 34.8955 23.0225C30.695 25.3217 29.0149 27.8861 28.0864 30.1852C27.158 32.4844 24.3724 31.6443 24.3724 31.1579C24.3724 30.6716 25.8757 28.5493 24.3724 28.2399C22.7468 27.9051 20.8353 29.3451 17.9614 30.4948C16.2812 31.1668 12.2356 32.2633 12.4346 31.4675C13.9047 25.587 20.7027 23.9511 24.682 22.5803C21.9849 22.0941 17.0328 22.5803 17.0328 22.5803C17.0328 22.5803 22.6284 21.002 25.0601 21.002C22.3188 19.9409 18.3794 19.1494 18.3794 19.1494C18.3794 19.1494 24.3792 19.5873 26.2952 19.8231C24.8361 18.8061 20.3443 16.4546 20.3443 16.4546C20.3443 16.4546 26.7582 18.2032 27.6426 18.6454C27.3596 17.6549 23.4882 14.0406 23.4882 14.0406C23.4882 14.0406 28.7938 17.1542 29.6339 18.0827C29.457 16.8005 27.158 12.7494 27.158 12.7494C27.158 12.7494 30.9449 16.5198 31.7408 17.802C31.9177 16.3429 30.7303 12.4125 30.7303 12.4125C30.7303 12.4125 32.7731 16.5672 33.7017 18.2916Z" fill="#211F26"/>
</svg>
