<svg width="186" height="223" viewBox="0 0 186 223" fill="none" xmlns="http://www.w3.org/2000/svg">
<g filter="url(#filter0_dd_28400_28894)">
<path d="M54.3485 21.7085C56.0362 21.7085 57.4043 23.0766 57.4043 24.7643L57.4043 30.8758C57.4043 32.5635 56.0362 33.9316 54.3485 33.9316V33.9316C52.6609 33.9316 51.2927 32.5635 51.2927 30.8758L51.2927 24.7643C51.2927 23.0766 52.6609 21.7085 54.3485 21.7085V21.7085Z" fill="#8E8C99"/>
<rect x="5.84766" y="4.31982" width="47.8924" height="47.8924" rx="5.5" fill="#FFFEFF"/>
<rect x="5.84766" y="4.31982" width="47.8924" height="47.8924" rx="5.5" stroke="#DBD8E0"/>
<path d="M14.577 30.0372C13.6827 29.1428 13.6827 27.6928 14.577 26.7984L28.3297 13.0458C29.224 12.1514 30.6741 12.1514 31.5685 13.0458L45.3211 26.7984C46.2154 27.6928 46.2154 29.1428 45.3211 30.0372L31.5685 43.7898C30.6741 44.6842 29.224 44.6842 28.3297 43.7898L14.577 30.0372Z" fill="#EE513B"/>
<path d="M25.3829 15.731L23.9902 17.1236L27.5871 20.7206C27.4416 21.0327 27.3604 21.3809 27.3604 21.748C27.3604 22.7903 28.0153 23.6797 28.936 24.027V32.826C28.0153 33.1734 27.3604 34.0627 27.3604 35.105C27.3604 36.4499 28.4506 37.5401 29.7954 37.5401C31.1403 37.5401 32.2305 36.4499 32.2305 35.105C32.2305 34.1601 31.6923 33.3408 30.9056 32.9372V24.0391L34.3439 27.4774C34.2055 27.7832 34.1285 28.1228 34.1285 28.4803C34.1285 29.8251 35.2187 30.9153 36.5636 30.9153C37.9084 30.9153 38.9986 29.8251 38.9986 28.4803C38.9986 27.1354 37.9084 26.0452 36.5636 26.0452C36.3022 26.0452 36.0505 26.0863 35.8145 26.1625L32.1218 22.4698C32.1925 22.2418 32.2305 21.9993 32.2305 21.748C32.2305 20.4032 31.1403 19.3129 29.7954 19.3129C29.5441 19.3129 29.3018 19.351 29.0736 19.4217L25.3829 15.731Z" fill="white"/>
</g>
<g filter="url(#filter1_dd_28400_28894)">
<path d="M127.265 21.7085C128.952 21.7085 130.32 23.0766 130.32 24.7643L130.32 30.8758C130.32 32.5635 128.952 33.9316 127.265 33.9316V33.9316C125.577 33.9316 124.209 32.5635 124.209 30.8758L124.209 24.7643C124.209 23.0766 125.577 21.7085 127.265 21.7085V21.7085Z" fill="#8E8C99"/>
<rect x="127.764" y="4.31982" width="47.8924" height="47.8924" rx="5.5" fill="#FFFEFF"/>
<rect x="127.764" y="4.31982" width="47.8924" height="47.8924" rx="5.5" stroke="#DBD8E0"/>
<path d="M165.569 38.2142V20.2146L157.126 11.771H140.044C139.815 11.771 139.595 11.862 139.433 12.0241C139.271 12.1861 139.18 12.4058 139.18 12.635V38.2142H165.569Z" fill="#E1FBFF" stroke="#394D54" stroke-width="0.671284" stroke-linejoin="round"/>
<path opacity="0.12" d="M165.568 20.9307H157.989C157.76 20.9307 157.54 20.8397 157.378 20.6777C157.216 20.5156 157.125 20.2959 157.125 20.0667V12.4873L165.568 20.2153V20.9307H165.568Z" fill="black" stroke="black" stroke-width="1.34257" stroke-linejoin="round"/>
<path d="M165.568 20.2144H157.989C157.76 20.2144 157.54 20.1234 157.378 19.9614C157.216 19.7993 157.125 19.5796 157.125 19.3504V11.771L165.568 20.2144Z" fill="#F5FEFF" stroke="#394D54" stroke-width="0.671284" stroke-linejoin="round"/>
<path d="M139.18 38.2129V44.1823C139.18 44.335 139.24 44.4816 139.348 44.5896C139.456 44.6976 139.603 44.7583 139.756 44.7583H164.993C165.146 44.7583 165.292 44.6976 165.4 44.5896C165.508 44.4816 165.569 44.335 165.569 44.1823V38.2129H139.18Z" fill="#93E4F9" stroke="#394D54" stroke-width="0.671284" stroke-linejoin="round"/>
<path d="M141.275 40.3257C141.505 40.2911 141.736 40.2736 141.968 40.2734C142.436 40.2734 142.769 40.382 142.99 40.5879C143.112 40.7043 143.206 40.8455 143.268 41.0019C143.329 41.1583 143.356 41.3262 143.346 41.494C143.355 41.6735 143.327 41.853 143.265 42.0215C143.202 42.1901 143.106 42.3444 142.983 42.475C142.747 42.711 142.358 42.8382 141.867 42.8382C141.67 42.8393 141.472 42.8293 141.276 42.8082V40.3257H141.275ZM141.601 42.5577C141.71 42.5727 141.82 42.5789 141.931 42.5764C142.627 42.5764 143.005 42.1876 143.005 41.5055C143.009 40.9102 142.672 40.5321 141.983 40.5321C141.855 40.53 141.727 40.5413 141.601 40.5656V42.5575L141.601 42.5577Z" fill="#394D54"/>
<path d="M146.285 41.5258C146.285 42.3943 145.757 42.8549 145.113 42.8549C144.447 42.8549 143.979 42.3382 143.979 41.5743C143.979 40.7731 144.476 40.2495 145.15 40.2495C145.839 40.2489 146.285 40.7768 146.285 41.5258ZM144.326 41.5669C144.326 42.1061 144.618 42.5893 145.131 42.5893C145.648 42.5893 145.94 42.1141 145.94 41.5409C145.94 41.0393 145.678 40.515 145.135 40.515C144.596 40.5148 144.326 41.0127 144.326 41.5669Z" fill="#394D54"/>
<path d="M148.829 42.7309C148.618 42.8174 148.391 42.8582 148.163 42.8507C147.451 42.8507 146.916 42.4014 146.916 41.574C146.916 40.784 147.451 40.2492 148.234 40.2492C148.439 40.2406 148.644 40.279 148.833 40.3616L148.754 40.6274C148.594 40.5552 148.42 40.5193 148.245 40.5224C147.654 40.5224 147.26 40.9007 147.26 41.5634C147.26 42.1811 147.616 42.5781 148.23 42.5781C148.413 42.5808 148.594 42.545 148.762 42.4731L148.829 42.7309Z" fill="#394D54"/>
<path d="M149.53 40.2905H149.855V41.5073H149.866C149.934 41.41 150.001 41.3201 150.065 41.2377L150.836 40.2905H151.24L150.327 41.3613L151.311 42.8141H150.926L150.095 41.5748L149.855 41.8519V42.8142H149.529V40.2905H149.53Z" fill="#394D54"/>
<path d="M153.236 41.6309H152.255V42.5405H153.349V42.8141H151.93V40.2905H153.293V40.5641H152.256V41.3616H153.237V41.6313L153.236 41.6309Z" fill="#394D54"/>
<path d="M154.07 40.3244C154.277 40.2877 154.486 40.2702 154.696 40.2721C155.044 40.2721 155.268 40.3356 155.426 40.478C155.491 40.5392 155.542 40.6136 155.577 40.6962C155.611 40.7789 155.627 40.8678 155.624 40.9572C155.626 41.1017 155.58 41.2428 155.495 41.3591C155.409 41.4754 155.287 41.5604 155.149 41.6012V41.6124C155.344 41.68 155.46 41.8597 155.519 42.1216C155.563 42.3579 155.629 42.5898 155.714 42.8144H155.377C155.302 42.6193 155.245 42.4174 155.209 42.2115C155.134 41.8633 154.999 41.7322 154.703 41.721H154.396V42.8144H154.07L154.07 40.3244ZM154.396 41.4738H154.729C155.077 41.4738 155.298 41.2828 155.298 40.9945C155.298 40.6688 155.062 40.5266 154.718 40.5228C154.61 40.5198 154.502 40.5299 154.396 40.5529V41.4745V41.4738Z" fill="#394D54"/>
<path d="M156.438 40.2905H157.797V40.5641H156.763V41.4028H157.718V41.6723H156.763V42.8144H156.438V40.2905Z" fill="#394D54"/>
<path d="M158.847 40.2905V42.8139H158.521V40.2905H158.847Z" fill="#394D54"/>
<path d="M159.748 40.2905H160.074V42.5406H161.152V42.8142H159.748V40.2905Z" fill="#394D54"/>
<path d="M163.131 41.6309H162.15V42.5405H163.243V42.8141H161.824V40.2905H163.187V40.5641H162.15V41.3616H163.131V41.6313L163.131 41.6309Z" fill="#394D54"/>
<path d="M154.131 25.2842H156.144V27.3426H157.162C157.637 27.3403 158.11 27.261 158.56 27.1079C158.797 27.0295 159.025 26.9265 159.24 26.8006C158.965 26.4193 158.801 25.9686 158.768 25.4992C158.71 24.8711 158.837 24.0533 159.262 23.5607L159.474 23.3159L159.726 23.5201C160.361 24.0303 160.895 24.7431 160.99 25.5558C161.766 25.3168 162.606 25.395 163.326 25.7731L163.602 25.9315L163.457 26.2151C162.887 27.3274 161.695 27.6721 160.53 27.6099C158.788 31.9539 154.992 34.0094 150.391 34.0094C148.014 34.0094 145.832 33.1208 144.59 31.0115L144.57 30.977L144.389 30.6089C143.979 29.6789 143.819 28.658 143.924 27.6471L143.953 27.3425H145.675V25.2842H147.688V23.2708H151.715V21.2573H154.131V25.2842Z" fill="#394D54"/>
<path d="M160.653 26.0457C160.788 24.9966 160.003 24.1725 159.515 23.7812C158.954 24.4292 158.867 26.1304 159.747 26.8462C159.256 27.2827 158.221 27.6781 157.161 27.6781H144.258C144.147 28.7079 144.332 29.748 144.793 30.676L144.94 30.9445C145.032 31.1022 145.134 31.2546 145.244 31.401C145.774 31.4351 146.263 31.4471 146.711 31.437C147.436 31.4416 148.158 31.3365 148.852 31.1254C148.89 31.1144 148.931 31.1186 148.966 31.1369C149.001 31.1552 149.028 31.1864 149.041 31.224C149.054 31.2616 149.052 31.3027 149.035 31.3388C149.019 31.375 148.989 31.4034 148.952 31.4183C148.88 31.4433 148.805 31.4668 148.727 31.4893C148.244 31.6245 147.748 31.7054 147.247 31.7305C147.282 31.7305 147.211 31.7356 147.21 31.7356C147.19 31.7368 147.165 31.7397 147.145 31.7408C146.912 31.7538 146.66 31.7567 146.403 31.7567C146.121 31.7567 145.844 31.7512 145.534 31.7356L145.526 31.7408C146.601 32.9491 148.282 33.6737 150.39 33.6737C154.849 33.6737 158.632 31.6966 160.307 27.2583C161.495 27.3803 162.637 27.0772 163.157 26.0632C162.33 25.5854 161.266 25.7379 160.653 26.0457Z" fill="#00AADA"/>
<path d="M160.653 26.0457C160.788 24.9966 160.003 24.1725 159.516 23.7812C158.954 24.4292 158.868 26.1304 159.748 26.8462C159.257 27.2827 158.222 27.6781 157.161 27.6781H145.023C144.97 29.3727 145.599 30.6588 146.712 31.4364C147.437 31.441 148.158 31.336 148.852 31.1248C148.89 31.1139 148.931 31.118 148.967 31.1363C149.002 31.1547 149.029 31.1858 149.042 31.2234C149.054 31.261 149.053 31.3021 149.036 31.3382C149.02 31.3744 148.99 31.4028 148.953 31.4177C148.881 31.4428 148.805 31.4662 148.727 31.4887C148.232 31.6275 147.722 31.7119 147.208 31.7403L147.194 31.7259C148.712 32.5043 150.912 32.5016 153.435 31.5325C156.265 30.4454 158.898 28.3746 160.734 26.0063C160.707 26.0193 160.68 26.0325 160.653 26.0457Z" fill="#24B8EB"/>
<path d="M144.281 29.0234C144.357 29.5993 144.53 30.1583 144.792 30.6767L144.939 30.9452C145.032 31.1029 145.133 31.2553 145.243 31.4017C145.773 31.4358 146.263 31.4478 146.71 31.4377C147.435 31.4423 148.157 31.3372 148.851 31.1261C148.889 31.1151 148.93 31.1192 148.965 31.1376C149.001 31.1559 149.027 31.1871 149.04 31.2247C149.053 31.2623 149.051 31.3034 149.035 31.3395C149.018 31.3757 148.989 31.4041 148.952 31.419C148.88 31.444 148.804 31.4675 148.726 31.49C148.231 31.6269 147.723 31.7095 147.21 31.7363C147.189 31.7375 147.154 31.7378 147.133 31.7389C146.9 31.7519 146.651 31.76 146.394 31.76C146.113 31.76 145.825 31.7545 145.516 31.7389C146.591 32.9475 148.281 33.6748 150.39 33.6748C154.207 33.6748 157.529 32.2256 159.457 29.0237H144.281V29.0234Z" fill="#008BB8"/>
<path d="M145.139 29.0234C145.333 30.0004 145.897 30.8649 146.712 31.4375C147.437 31.4421 148.159 31.3371 148.852 31.1259C148.891 31.115 148.931 31.1191 148.967 31.1374C149.002 31.1558 149.029 31.187 149.042 31.2245C149.055 31.2621 149.053 31.3032 149.036 31.3394C149.02 31.3755 148.99 31.404 148.953 31.4188C148.881 31.4439 148.805 31.4674 148.728 31.4898C148.229 31.6267 147.717 31.7093 147.2 31.7362C148.718 32.5146 150.912 32.5033 153.435 31.5346C154.992 30.9214 156.446 30.0747 157.748 29.0237H145.139V29.0234Z" fill="#039BC6"/>
<path d="M147.473 25.7655H147.611V27.2199H147.473V25.7655ZM147.209 25.7655H147.352V27.2199H147.209V25.7655ZM146.944 25.7655H147.087V27.2199H146.944V25.7655ZM146.679 25.7655H146.823V27.2199H146.68V25.7655H146.679ZM146.415 25.7655H146.559V27.2199H146.415V25.7655ZM146.155 25.7655H146.294V27.2199H146.157V25.7655H146.155ZM146.01 25.6201H147.755V27.365H146.011V25.6196L146.01 25.6201Z" fill="#00ACD3"/>
<path d="M149.487 23.7514H149.625V25.2058H149.487V23.7514ZM149.223 23.7514H149.366V25.2058H149.223V23.7514H149.223ZM148.958 23.7514H149.102V25.2058H148.958V23.7514H148.958ZM148.694 23.7514H148.837V25.2058H148.694V23.7514ZM148.43 23.7514H148.573V25.2058H148.43L148.43 23.7514ZM148.17 23.7514H148.309V25.2058H148.171V23.7514H148.17ZM148.026 23.606H149.771V25.3509H148.025L148.026 23.606Z" fill="#00ACD3"/>
<path d="M149.487 25.7655H149.625V27.2199H149.487V25.7655ZM149.223 25.7655H149.366V27.2199H149.223V25.7655H149.223ZM148.958 25.7655H149.102V27.2199H148.958V25.7655H148.958ZM148.694 25.7655H148.837V27.2199H148.694V25.7655ZM148.43 25.7655H148.573V27.2199H148.43L148.43 25.7655ZM148.17 25.7655H148.309V27.2199H148.171V25.7655H148.17ZM148.026 25.6196H149.771V27.3646H148.025L148.026 25.6196Z" fill="#20C2EF"/>
<path d="M151.501 25.7655H151.639V27.2199H151.501V25.7655ZM151.237 25.7655H151.38V27.2199H151.237V25.7655ZM150.973 25.7655H151.116V27.2199H150.973V25.7655ZM150.708 25.7655H150.851V27.2199H150.708V25.7655H150.708ZM150.444 25.7655H150.587V27.2199H150.444V25.7655ZM150.184 25.7655H150.322V27.2199H150.185V25.7655H150.184ZM150.039 25.6201H151.786V27.365H150.039V25.6196L150.039 25.6201Z" fill="#00ACD3"/>
<path d="M151.501 23.7514H151.639V25.2058H151.501V23.7514ZM151.237 23.7514H151.38V25.2058H151.237V23.7514ZM150.973 23.7514H151.116V25.2058H150.973V23.7514ZM150.708 23.7514H150.851V25.2058H150.708V23.7514H150.708ZM150.444 23.7514H150.587V25.2058H150.444V23.7514ZM150.184 23.7514H150.322V25.2058H150.185V23.7514H150.184ZM150.039 23.606H151.786V25.3509H150.039V23.606H150.039Z" fill="#20C2EF"/>
<path d="M153.514 25.7655H153.652V27.2199H153.514V25.7655ZM153.25 25.7655H153.392V27.2199H153.25V25.7655H153.25ZM152.985 25.7655H153.128V27.2199H152.985V25.7655ZM152.721 25.7655H152.864V27.2199H152.721L152.721 25.7655ZM152.456 25.7655H152.6V27.2199H152.456V25.7655ZM152.196 25.7655H152.334V27.2199H152.197V25.7655H152.196ZM152.051 25.6201H153.796V27.365H152.052V25.6196L152.051 25.6201Z" fill="#20C2EF"/>
<path d="M153.514 23.7514H153.652V25.2058H153.514V23.7514ZM153.25 23.7514H153.392V25.2058H153.25V23.7514H153.25ZM152.985 23.7514H153.128V25.2058H152.985V23.7514ZM152.721 23.7514H152.864V25.2058H152.721L152.721 23.7514ZM152.456 23.7514H152.6V25.2058H152.456V23.7514ZM152.196 23.7514H152.334V25.2058H152.197V23.7514H152.196ZM152.051 23.606H153.796V25.3509H152.052V23.606H152.051Z" fill="#00ACD3"/>
<path d="M153.514 21.7377H153.652V23.1921H153.514V21.7377ZM153.25 21.7377H153.392V23.1921H153.25V21.7377H153.25ZM152.985 21.7377H153.128V23.1921H152.985V21.7377ZM152.721 21.7377H152.864V23.1921H152.721L152.721 21.7377ZM152.456 21.7377H152.6V23.1921H152.456V21.7377ZM152.196 21.7377H152.334V23.1921H152.197V21.7377H152.196ZM152.051 21.5923H153.796V23.3372H152.052V21.5924L152.051 21.5923Z" fill="#20C2EF"/>
<path d="M155.527 25.7655H155.665V27.2199H155.527V25.7655ZM155.263 25.7655H155.406V27.2199H155.263V25.7655ZM154.999 25.7655H155.142V27.2199H155V25.7655H154.999ZM154.734 25.7655H154.878V27.2199H154.734V25.7655ZM154.47 25.7655H154.613V27.2199H154.47V25.7655H154.47ZM154.21 25.7655H154.348V27.2199H154.212V25.7655H154.21H154.21ZM154.064 25.6201H155.809V27.365H154.066V25.6196L154.064 25.6201Z" fill="#00ACD3"/>
<path d="M149.657 30.1958C149.752 30.1958 149.845 30.224 149.925 30.2769C150.004 30.3298 150.065 30.405 150.102 30.493C150.138 30.5809 150.148 30.6777 150.129 30.7711C150.111 30.8645 150.065 30.9502 149.998 31.0176C149.93 31.0849 149.844 31.1307 149.751 31.1493C149.658 31.1679 149.561 31.1584 149.473 31.1219C149.385 31.0855 149.31 31.0238 149.257 30.9446C149.204 30.8655 149.176 30.7724 149.176 30.6772C149.176 30.5495 149.227 30.4271 149.317 30.3368C149.407 30.2466 149.53 30.1958 149.657 30.1958Z" fill="#D4EDF1"/>
<path d="M149.659 30.3297C149.701 30.3298 149.744 30.3378 149.783 30.3534C149.765 30.3642 149.749 30.3792 149.736 30.3973C149.724 30.4154 149.717 30.4361 149.714 30.4577C149.711 30.4793 149.713 30.5012 149.721 30.5217C149.728 30.5423 149.74 30.5609 149.755 30.5761C149.771 30.5913 149.79 30.6026 149.81 30.6093C149.831 30.616 149.853 30.6178 149.875 30.6145C149.896 30.6112 149.917 30.603 149.934 30.5905C149.952 30.578 149.967 30.5615 149.977 30.5424C150.006 30.6109 150.011 30.6868 149.993 30.7588C149.975 30.8308 149.935 30.8951 149.878 30.9422C149.82 30.9893 149.749 31.0167 149.675 31.0204C149.601 31.024 149.528 31.0037 149.466 30.9625C149.404 30.9213 149.358 30.8613 149.333 30.7914C149.308 30.7215 149.306 30.6455 149.327 30.5745C149.349 30.5035 149.393 30.4414 149.453 30.3973C149.512 30.3532 149.585 30.3294 149.659 30.3296" fill="#394D54"/>
<path d="M150.939 33.6636C149.747 33.0979 149.093 32.3289 148.729 31.4893C148.208 31.6278 147.674 31.7088 147.135 31.731C146.902 31.7441 146.657 31.7507 146.4 31.7509C146.103 31.7509 145.791 31.7422 145.463 31.7247C146.556 32.8173 147.901 33.6587 150.392 33.6741C150.575 33.674 150.758 33.6705 150.939 33.6636Z" fill="#BFDBE0"/>
<path d="M149.173 32.2625C148.999 32.0208 148.85 31.7611 148.731 31.4878C148.21 31.6264 147.675 31.7076 147.137 31.7299C147.771 32.0478 148.465 32.2293 149.173 32.2625Z" fill="#D4EDF1"/>
</g>
<g filter="url(#filter2_dd_28400_28894)">
<path d="M84.1973 132.359C84.1973 130.672 85.5654 129.304 87.253 129.304H93.3646C95.0522 129.304 96.4204 130.672 96.4204 132.359V132.359C96.4204 134.047 95.0522 135.415 93.3646 135.415H87.253C85.5654 135.415 84.1973 134.047 84.1973 132.359V132.359Z" fill="#8E8C99"/>
<rect x="66.8086" y="83.9673" width="47.8924" height="47.8924" rx="5.5" fill="#FFFEFF"/>
<rect x="66.8086" y="83.9673" width="47.8924" height="47.8924" rx="5.5" stroke="#DBD8E0"/>
<path d="M105.499 97.6631L92.1178 89.9375C91.2893 89.459 90.2691 89.459 89.4417 89.9375L76.0607 97.6631C75.2333 98.1405 74.7227 99.0247 74.7227 99.9807V115.432C74.7227 116.388 75.2322 117.271 76.0607 117.749L90.7797 126.248V117.749C90.7797 117.271 91.0345 116.83 91.4488 116.59L98.8083 112.341V121.612L105.499 117.749C106.327 117.271 106.837 116.388 106.837 115.432V99.9807C106.837 99.0247 106.327 98.1416 105.499 97.6631ZM90.1107 108.093L82.7512 112.341V103.843C82.7512 103.364 83.006 102.923 83.4202 102.684L90.1107 98.8213C90.525 98.5826 91.0345 98.5826 91.4488 98.8213L98.1392 102.684C98.5535 102.922 98.8083 103.364 98.8083 103.843V112.341L91.4488 108.093C91.0345 107.854 90.525 107.854 90.1107 108.093Z" fill="#6033F0"/>
</g>
<path d="M57.7402 27.2661C57.1879 27.2661 56.7402 27.7138 56.7402 28.2661C56.7402 28.8184 57.1879 29.2661 57.7402 29.2661V28.2661V27.2661ZM90.0479 80.6745C90.4384 81.065 91.0716 81.065 91.4621 80.6745L97.826 74.3105C98.2166 73.92 98.2166 73.2868 97.826 72.8963C97.4355 72.5058 96.8024 72.5058 96.4118 72.8963L90.755 78.5532L85.0981 72.8963C84.7076 72.5058 84.0744 72.5058 83.6839 72.8963C83.2934 73.2868 83.2934 73.92 83.6839 74.3105L90.0479 80.6745ZM57.7402 28.2661V29.2661H66.755V28.2661V27.2661H57.7402V28.2661ZM90.755 52.2661H89.755V79.9674H90.755H91.755V52.2661H90.755ZM66.755 28.2661V29.2661C79.4575 29.2661 89.755 39.5636 89.755 52.2661H90.755H91.755C91.755 38.459 80.5621 27.2661 66.755 27.2661V28.2661Z" fill="#8E8C99"/>
<path d="M123.763 29.2661C124.315 29.2661 124.763 28.8184 124.763 28.2661C124.763 27.7138 124.315 27.2661 123.763 27.2661V28.2661V29.2661ZM90.0468 80.6745C90.4373 81.065 91.0705 81.065 91.461 80.6745L97.825 74.3105C98.2155 73.92 98.2155 73.2868 97.825 72.8963C97.4344 72.5058 96.8013 72.5058 96.4108 72.8963L90.7539 78.5532L85.0971 72.8963C84.7065 72.5058 84.0734 72.5058 83.6828 72.8963C83.2923 73.2868 83.2923 73.92 83.6828 74.3105L90.0468 80.6745ZM123.763 28.2661V27.2661H114.754V28.2661V29.2661H123.763V28.2661ZM90.7539 52.2661H89.7539V79.9674H90.7539H91.7539V52.2661H90.7539ZM114.754 28.2661V27.2661C100.947 27.2661 89.7539 38.459 89.7539 52.2661H90.7539H91.7539C91.7539 39.5636 102.051 29.2661 114.754 29.2661V28.2661Z" fill="#8E8C99"/>
<path d="M66.9199 50.2632C66.9199 44.7403 71.3971 40.2632 76.9199 40.2632H103.92C109.443 40.2632 113.92 44.7403 113.92 50.2632V50.2632C113.92 55.786 109.443 60.2632 103.92 60.2632H76.9199C71.3971 60.2632 66.9199 55.786 66.9199 50.2632V50.2632Z" fill="#8E8C99"/>
<path d="M78.6797 50.8311H76.6709L76.6602 49.7246H78.3467C78.6439 49.7246 78.8874 49.687 79.0771 49.6118C79.2669 49.533 79.4084 49.4202 79.5015 49.2734C79.5981 49.123 79.6465 48.9404 79.6465 48.7256C79.6465 48.4821 79.5999 48.2852 79.5068 48.1348C79.4173 47.9844 79.2759 47.8752 79.0825 47.8071C78.8927 47.7391 78.6475 47.7051 78.3467 47.7051H77.2295V54.2632H75.6182V46.4429H78.3467C78.8014 46.4429 79.2078 46.4858 79.5659 46.5718C79.9276 46.6577 80.2337 46.7884 80.4844 46.9639C80.735 47.1393 80.9266 47.3613 81.0591 47.6299C81.1916 47.8949 81.2578 48.21 81.2578 48.5752C81.2578 48.8975 81.1844 49.1947 81.0376 49.4668C80.8944 49.7389 80.667 49.9609 80.3555 50.1328C80.0475 50.3047 79.6447 50.3996 79.147 50.4175L78.6797 50.8311ZM78.6099 54.2632H76.2305L76.8589 53.0063H78.6099C78.8927 53.0063 79.1237 52.9616 79.3027 52.8721C79.4818 52.779 79.6143 52.6536 79.7002 52.4961C79.7861 52.3385 79.8291 52.1577 79.8291 51.9536C79.8291 51.7244 79.7897 51.5257 79.7109 51.3574C79.6357 51.1891 79.514 51.0602 79.3457 50.9707C79.1774 50.8776 78.9554 50.8311 78.6797 50.8311H77.1274L77.1382 49.7246H79.0718L79.4424 50.1597C79.9186 50.1525 80.3018 50.2367 80.5918 50.4121C80.8854 50.584 81.0985 50.8078 81.231 51.0835C81.367 51.3592 81.4351 51.6546 81.4351 51.9697C81.4351 52.471 81.3258 52.8936 81.1074 53.2373C80.889 53.5775 80.5685 53.8335 80.146 54.0054C79.7271 54.1772 79.215 54.2632 78.6099 54.2632ZM87.0059 46.4429H88.6119V51.6099C88.6119 52.2114 88.483 52.7181 88.2252 53.1299C87.9709 53.5417 87.6182 53.8514 87.167 54.0591C86.7195 54.2668 86.2038 54.3706 85.6202 54.3706C85.0365 54.3706 84.5173 54.2668 84.0626 54.0591C83.6114 53.8514 83.2569 53.5417 82.9991 53.1299C82.7448 52.7181 82.6177 52.2114 82.6177 51.6099V46.4429H84.2291V51.6099C84.2291 51.9608 84.2846 52.2472 84.3956 52.4692C84.5066 52.6912 84.6659 52.8542 84.8736 52.958C85.0849 53.0618 85.3337 53.1138 85.6202 53.1138C85.9138 53.1138 86.1627 53.0618 86.3668 52.958C86.5744 52.8542 86.732 52.6912 86.8394 52.4692C86.9504 52.2472 87.0059 51.9608 87.0059 51.6099V46.4429ZM91.6959 46.4429V54.2632H90.09V46.4429H91.6959ZM98.2765 53.0063V54.2632H94.3395V53.0063H98.2765ZM94.8605 46.4429V54.2632H93.2492V46.4429H94.8605ZM101.645 54.2632H99.9426L99.9533 53.0063H101.645C102.068 53.0063 102.424 52.9115 102.714 52.7217C103.004 52.5283 103.223 52.2472 103.369 51.8784C103.52 51.5096 103.595 51.0638 103.595 50.541V50.1597C103.595 49.7586 103.552 49.4059 103.466 49.1016C103.384 48.7972 103.26 48.5412 103.095 48.3335C102.931 48.1258 102.728 47.9701 102.489 47.8662C102.249 47.7588 101.973 47.7051 101.661 47.7051H99.9104V46.4429H101.661C102.184 46.4429 102.662 46.5324 103.095 46.7114C103.532 46.8869 103.91 47.1393 104.229 47.4688C104.547 47.7982 104.793 48.1921 104.965 48.6504C105.14 49.1051 105.228 49.6118 105.228 50.1704V50.541C105.228 51.096 105.14 51.6027 104.965 52.061C104.793 52.5194 104.547 52.9132 104.229 53.2427C103.914 53.5685 103.536 53.821 103.095 54C102.659 54.1755 102.175 54.2632 101.645 54.2632ZM100.856 46.4429V54.2632H99.2444V46.4429H100.856Z" fill="#FFFEFF"/>
<g filter="url(#filter3_dd_28400_28894)">
<rect x="66.8086" y="163.617" width="47.8924" height="47.8924" rx="5.5" fill="#FFFEFF"/>
<rect x="66.8086" y="163.617" width="47.8924" height="47.8924" rx="5.5" stroke="#DBD8E0"/>
<path d="M105.672 196.338L90.6747 204.71L75.6777 196.338V178.04L90.6747 170.799L105.672 178.04V196.338Z" fill="#20C2EF" stroke="#394D54" stroke-width="0.733386" stroke-linejoin="round"/>
<path d="M90.6777 185.977V204.709L105.675 196.336V178.039L90.6777 185.977Z" fill="#20C2EF" stroke="#394D54" stroke-width="0.685823" stroke-linejoin="round"/>
<path d="M90.6747 170.799L75.6777 178.04L90.6747 185.979L105.672 178.04L90.6747 170.799Z" fill="#20C2EF" stroke="#394D54" stroke-width="0.685823" stroke-linejoin="round"/>
<path opacity="0.3" d="M76.457 178.065L90.6775 171.187L104.9 178.052L104.29 178.379L90.6775 171.806L77.0809 178.371L76.457 178.065Z" fill="white"/>
<path opacity="0.3" d="M91.0125 186.821L91.0059 186.204L105.34 178.616V179.236L91.0125 186.821Z" fill="white"/>
<path d="M90.6747 185.977V204.709L75.6777 196.336V178.039L90.6747 185.977Z" fill="#0EACD1" stroke="#394D54" stroke-width="0.685823" stroke-linejoin="round"/>
<path d="M102.962 182.224L101.195 183.213V196.523L102.962 195.537V182.224Z" fill="#0EACD1" stroke="#394D54" stroke-width="0.342912" stroke-linejoin="round"/>
<path d="M99.3939 184.156L97.627 185.145V198.455L99.3939 197.469V184.156Z" fill="#0EACD1" stroke="#394D54" stroke-width="0.342912" stroke-linejoin="round"/>
<path d="M95.8223 186.247L94.0547 187.235V200.546L95.8223 199.559V186.247Z" fill="#0EACD1" stroke="#394D54" stroke-width="0.342912" stroke-linejoin="round"/>
<path opacity="0.12" d="M102.306 195.705L102.305 183.391L101.363 183.861V183.319L102.794 182.525V195.431L102.306 195.705Z" fill="black"/>
<path opacity="0.12" d="M98.7555 197.618L98.7542 185.32L97.7891 185.801V185.252L99.2274 184.443V197.365L98.7555 197.618Z" fill="black"/>
<path opacity="0.12" d="M95.1871 199.708L95.1858 187.414V187.415L94.2227 187.894V187.344L95.6577 186.535V199.453L95.1871 199.708Z" fill="black"/>
<path opacity="0.05" d="M90.3548 186.821L78.6691 197.606L76.0137 196.128V178.619L90.3548 186.216V186.821Z" fill="black"/>
</g>
<path d="M136.156 155.263V156.013H137.125C137.432 156.013 137.735 156.028 138.033 156.057L138.104 155.311C138.767 155.375 139.41 155.505 140.028 155.692L139.812 156.409C140.396 156.586 140.956 156.819 141.485 157.103L141.839 156.443C142.418 156.753 142.965 157.118 143.469 157.532V157.533L142.993 158.112C143.461 158.497 143.892 158.927 144.276 159.395L144.855 158.919V158.918C145.27 159.423 145.634 159.969 145.944 160.548L145.285 160.903C145.569 161.432 145.802 161.992 145.979 162.577L146.695 162.359C146.883 162.977 147.012 163.62 147.076 164.283L146.331 164.355C146.36 164.653 146.375 164.957 146.375 165.263C146.375 165.57 146.36 165.873 146.331 166.171L147.076 166.243C147.012 166.905 146.883 167.548 146.695 168.167L145.979 167.95C145.802 168.534 145.569 169.094 145.285 169.624L145.944 169.977C145.634 170.557 145.27 171.103 144.855 171.607L144.276 171.131C143.892 171.6 143.461 172.03 142.993 172.415L143.469 172.994C142.965 173.408 142.418 173.772 141.839 174.083L141.485 173.423C140.956 173.707 140.396 173.941 139.812 174.118L140.028 174.833C139.41 175.021 138.767 175.15 138.104 175.214L138.033 174.469C137.735 174.498 137.432 174.513 137.125 174.513H136.156V175.263H134.219V174.513H132.281V175.263H130.344V174.513H128.406V175.263H126.469V174.513H124.531V175.263H122.594V174.513H120.656V175.263H118.719V174.513H116.781V175.263H114.844V174.513H112.906V175.263H110.969V174.513H109.031V175.263H107.094V174.513H106.125C105.818 174.513 105.515 174.498 105.217 174.469L105.145 175.214C104.482 175.15 103.839 175.021 103.221 174.833L103.438 174.118C102.854 173.941 102.294 173.707 101.765 173.423L101.41 174.083C100.831 173.772 100.284 173.408 99.7803 172.994L100.257 172.415C99.7885 172.03 99.3584 171.6 98.9736 171.131L98.3936 171.607C97.9794 171.103 97.615 170.557 97.3047 169.977L97.9648 169.624C97.6813 169.094 97.4476 168.534 97.2705 167.95L96.5537 168.167C96.3665 167.548 96.2372 166.905 96.1729 166.243L96.9189 166.171C96.8899 165.873 96.875 165.57 96.875 165.263C96.875 164.957 96.8899 164.653 96.9189 164.355L96.1729 164.283C96.2373 163.62 96.3664 162.977 96.5537 162.359L97.2705 162.577C97.4476 161.992 97.6813 161.432 97.9648 160.903L97.3047 160.548C97.6151 159.969 97.9794 159.423 98.3936 158.918L98.3945 158.919L98.9736 159.395C99.3584 158.927 99.7885 158.497 100.257 158.112L99.7812 157.533L99.7803 157.532C100.284 157.118 100.831 156.753 101.41 156.443L101.765 157.103C102.294 156.819 102.854 156.586 103.438 156.409L103.221 155.692C103.839 155.505 104.482 155.375 105.145 155.311L105.217 156.057C105.515 156.028 105.818 156.013 106.125 156.013H107.094V155.263H109.031V156.013H110.969V155.263H112.906V156.013H114.844V155.263H116.781V156.013H118.719V155.263H120.656V156.013H122.594V155.263H124.531V156.013H126.469V155.263H128.406V156.013H130.344V155.263H132.281V156.013H134.219V155.263H136.156Z" fill="white"/>
<path d="M136.156 155.263V156.013H137.125C137.432 156.013 137.735 156.028 138.033 156.057L138.104 155.311C138.767 155.375 139.41 155.505 140.028 155.692L139.812 156.409C140.396 156.586 140.956 156.819 141.485 157.103L141.839 156.443C142.418 156.753 142.965 157.118 143.469 157.532V157.533L142.993 158.112C143.461 158.497 143.892 158.927 144.276 159.395L144.855 158.919V158.918C145.27 159.423 145.634 159.969 145.944 160.548L145.285 160.903C145.569 161.432 145.802 161.992 145.979 162.577L146.695 162.359C146.883 162.977 147.012 163.62 147.076 164.283L146.331 164.355C146.36 164.653 146.375 164.957 146.375 165.263C146.375 165.57 146.36 165.873 146.331 166.171L147.076 166.243C147.012 166.905 146.883 167.548 146.695 168.167L145.979 167.95C145.802 168.534 145.569 169.094 145.285 169.624L145.944 169.977C145.634 170.557 145.27 171.103 144.855 171.607L144.276 171.131C143.892 171.6 143.461 172.03 142.993 172.415L143.469 172.994C142.965 173.408 142.418 173.772 141.839 174.083L141.485 173.423C140.956 173.707 140.396 173.941 139.812 174.118L140.028 174.833C139.41 175.021 138.767 175.15 138.104 175.214L138.033 174.469C137.735 174.498 137.432 174.513 137.125 174.513H136.156V175.263H134.219V174.513H132.281V175.263H130.344V174.513H128.406V175.263H126.469V174.513H124.531V175.263H122.594V174.513H120.656V175.263H118.719V174.513H116.781V175.263H114.844V174.513H112.906V175.263H110.969V174.513H109.031V175.263H107.094V174.513H106.125C105.818 174.513 105.515 174.498 105.217 174.469L105.145 175.214C104.482 175.15 103.839 175.021 103.221 174.833L103.438 174.118C102.854 173.941 102.294 173.707 101.765 173.423L101.41 174.083C100.831 173.772 100.284 173.408 99.7803 172.994L100.257 172.415C99.7885 172.03 99.3584 171.6 98.9736 171.131L98.3936 171.607C97.9794 171.103 97.615 170.557 97.3047 169.977L97.9648 169.624C97.6813 169.094 97.4476 168.534 97.2705 167.95L96.5537 168.167C96.3665 167.548 96.2372 166.905 96.1729 166.243L96.9189 166.171C96.8899 165.873 96.875 165.57 96.875 165.263C96.875 164.957 96.8899 164.653 96.9189 164.355L96.1729 164.283C96.2373 163.62 96.3664 162.977 96.5537 162.359L97.2705 162.577C97.4476 161.992 97.6813 161.432 97.9648 160.903L97.3047 160.548C97.6151 159.969 97.9794 159.423 98.3936 158.918L98.3945 158.919L98.9736 159.395C99.3584 158.927 99.7885 158.497 100.257 158.112L99.7812 157.533L99.7803 157.532C100.284 157.118 100.831 156.753 101.41 156.443L101.765 157.103C102.294 156.819 102.854 156.586 103.438 156.409L103.221 155.692C103.839 155.505 104.482 155.375 105.145 155.311L105.217 156.057C105.515 156.028 105.818 156.013 106.125 156.013H107.094V155.263H109.031V156.013H110.969V155.263H112.906V156.013H114.844V155.263H116.781V156.013H118.719V155.263H120.656V156.013H122.594V155.263H124.531V156.013H126.469V155.263H128.406V156.013H130.344V155.263H132.281V156.013H134.219V155.263H136.156Z" stroke="#8E8C99" stroke-width="1.5" stroke-dasharray="2 2"/>
<path d="M106.537 161.443V169.263H104.931V161.443H106.537ZM108.826 161.443H110.19L112.199 167.185L114.208 161.443H115.572L112.747 169.263H111.651L108.826 161.443ZM108.09 161.443H109.449L109.696 167.04V169.263H108.09V161.443ZM114.949 161.443H116.313V169.263H114.702V167.04L114.949 161.443ZM121.046 162.78L118.919 169.263H117.206L120.111 161.443H121.202L121.046 162.78ZM122.813 169.263L120.681 162.78L120.509 161.443H121.61L124.532 169.263H122.813ZM122.716 166.352V167.614H118.586V166.352H122.716ZM131.403 165.176V168.275C131.281 168.422 131.093 168.581 130.839 168.753C130.584 168.921 130.257 169.066 129.856 169.188C129.455 169.31 128.969 169.371 128.4 169.371C127.895 169.371 127.435 169.288 127.02 169.124C126.604 168.955 126.246 168.71 125.945 168.388C125.648 168.065 125.419 167.672 125.258 167.206C125.097 166.737 125.016 166.202 125.016 165.6V165.111C125.016 164.51 125.093 163.974 125.247 163.505C125.405 163.036 125.629 162.641 125.919 162.318C126.209 161.996 126.554 161.751 126.955 161.583C127.356 161.414 127.802 161.33 128.293 161.33C128.973 161.33 129.532 161.441 129.968 161.663C130.405 161.882 130.738 162.186 130.967 162.576C131.2 162.963 131.343 163.407 131.397 163.908H129.834C129.795 163.643 129.72 163.412 129.609 163.215C129.498 163.018 129.338 162.864 129.131 162.753C128.926 162.642 128.661 162.587 128.336 162.587C128.067 162.587 127.827 162.642 127.616 162.753C127.408 162.861 127.233 163.02 127.09 163.231C126.946 163.443 126.837 163.704 126.762 164.016C126.687 164.327 126.649 164.689 126.649 165.101V165.6C126.649 166.008 126.688 166.37 126.767 166.685C126.846 166.997 126.962 167.26 127.116 167.475C127.274 167.686 127.467 167.845 127.696 167.953C127.926 168.06 128.192 168.114 128.497 168.114C128.751 168.114 128.962 168.092 129.131 168.049C129.302 168.006 129.44 167.954 129.544 167.894C129.652 167.829 129.734 167.768 129.791 167.711V166.325H128.319V165.176H131.403ZM137.994 168.006V169.263H133.831V168.006H137.994ZM134.358 161.443V169.263H132.746V161.443H134.358ZM137.451 164.628V165.853H133.831V164.628H137.451ZM137.989 161.443V162.705H133.831V161.443H137.989Z" fill="#65636D"/>
<path d="M91.7539 135.86C91.7539 135.308 91.3062 134.86 90.7539 134.86C90.2016 134.86 89.7539 135.308 89.7539 135.86H90.7539H91.7539ZM90.0468 160.324C90.4373 160.715 91.0705 160.715 91.461 160.324L97.825 153.96C98.2155 153.57 98.2155 152.936 97.825 152.546C97.4344 152.155 96.8013 152.155 96.4108 152.546L90.7539 158.203L85.0971 152.546C84.7065 152.155 84.0734 152.155 83.6828 152.546C83.2923 152.936 83.2923 153.57 83.6828 153.96L90.0468 160.324ZM90.7539 135.86H89.7539V159.617H90.7539H91.7539V135.86H90.7539Z" fill="#8E8C99"/>
<defs>
<filter id="filter0_dd_28400_28894" x="5.13792e-05" y="0.000106454" width="62.7519" height="59.5878" filterUnits="userSpaceOnUse" color-interpolation-filters="sRGB">
<feFlood flood-opacity="0" result="BackgroundImageFix"/>
<feColorMatrix in="SourceAlpha" type="matrix" values="0 0 0 0 0 0 0 0 0 0 0 0 0 0 0 0 0 0 127 0" result="hardAlpha"/>
<feMorphology radius="0.763944" operator="erode" in="SourceAlpha" result="effect1_dropShadow_28400_28894"/>
<feOffset dy="1.52789"/>
<feGaussianBlur stdDeviation="3.05577"/>
<feColorMatrix type="matrix" values="0 0 0 0 0.105882 0 0 0 0 0.141176 0 0 0 0 0.172549 0 0 0 0.08 0"/>
<feBlend mode="normal" in2="BackgroundImageFix" result="effect1_dropShadow_28400_28894"/>
<feColorMatrix in="SourceAlpha" type="matrix" values="0 0 0 0 0 0 0 0 0 0 0 0 0 0 0 0 0 0 127 0" result="hardAlpha"/>
<feMorphology radius="0.763944" operator="erode" in="SourceAlpha" result="effect2_dropShadow_28400_28894"/>
<feOffset dy="1.52789"/>
<feGaussianBlur stdDeviation="0.763944"/>
<feComposite in2="hardAlpha" operator="out"/>
<feColorMatrix type="matrix" values="0 0 0 0 0.105882 0 0 0 0 0.141176 0 0 0 0 0.172549 0 0 0 0.04 0"/>
<feBlend mode="normal" in2="effect1_dropShadow_28400_28894" result="effect2_dropShadow_28400_28894"/>
<feBlend mode="normal" in="SourceGraphic" in2="effect2_dropShadow_28400_28894" result="shape"/>
</filter>
<filter id="filter1_dd_28400_28894" x="118.861" y="0.000106454" width="62.6425" height="59.5878" filterUnits="userSpaceOnUse" color-interpolation-filters="sRGB">
<feFlood flood-opacity="0" result="BackgroundImageFix"/>
<feColorMatrix in="SourceAlpha" type="matrix" values="0 0 0 0 0 0 0 0 0 0 0 0 0 0 0 0 0 0 127 0" result="hardAlpha"/>
<feMorphology radius="0.763944" operator="erode" in="SourceAlpha" result="effect1_dropShadow_28400_28894"/>
<feOffset dy="1.52789"/>
<feGaussianBlur stdDeviation="3.05577"/>
<feColorMatrix type="matrix" values="0 0 0 0 0.105882 0 0 0 0 0.141176 0 0 0 0 0.172549 0 0 0 0.08 0"/>
<feBlend mode="normal" in2="BackgroundImageFix" result="effect1_dropShadow_28400_28894"/>
<feColorMatrix in="SourceAlpha" type="matrix" values="0 0 0 0 0 0 0 0 0 0 0 0 0 0 0 0 0 0 127 0" result="hardAlpha"/>
<feMorphology radius="0.763944" operator="erode" in="SourceAlpha" result="effect2_dropShadow_28400_28894"/>
<feOffset dy="1.52789"/>
<feGaussianBlur stdDeviation="0.763944"/>
<feComposite in2="hardAlpha" operator="out"/>
<feColorMatrix type="matrix" values="0 0 0 0 0.105882 0 0 0 0 0.141176 0 0 0 0 0.172549 0 0 0 0.04 0"/>
<feBlend mode="normal" in2="effect1_dropShadow_28400_28894" result="effect2_dropShadow_28400_28894"/>
<feBlend mode="normal" in="SourceGraphic" in2="effect2_dropShadow_28400_28894" result="shape"/>
</filter>
<filter id="filter2_dd_28400_28894" x="60.961" y="79.6476" width="59.5878" height="62.643" filterUnits="userSpaceOnUse" color-interpolation-filters="sRGB">
<feFlood flood-opacity="0" result="BackgroundImageFix"/>
<feColorMatrix in="SourceAlpha" type="matrix" values="0 0 0 0 0 0 0 0 0 0 0 0 0 0 0 0 0 0 127 0" result="hardAlpha"/>
<feMorphology radius="0.763944" operator="erode" in="SourceAlpha" result="effect1_dropShadow_28400_28894"/>
<feOffset dy="1.52789"/>
<feGaussianBlur stdDeviation="3.05577"/>
<feColorMatrix type="matrix" values="0 0 0 0 0.105882 0 0 0 0 0.141176 0 0 0 0 0.172549 0 0 0 0.08 0"/>
<feBlend mode="normal" in2="BackgroundImageFix" result="effect1_dropShadow_28400_28894"/>
<feColorMatrix in="SourceAlpha" type="matrix" values="0 0 0 0 0 0 0 0 0 0 0 0 0 0 0 0 0 0 127 0" result="hardAlpha"/>
<feMorphology radius="0.763944" operator="erode" in="SourceAlpha" result="effect2_dropShadow_28400_28894"/>
<feOffset dy="1.52789"/>
<feGaussianBlur stdDeviation="0.763944"/>
<feComposite in2="hardAlpha" operator="out"/>
<feColorMatrix type="matrix" values="0 0 0 0 0.105882 0 0 0 0 0.141176 0 0 0 0 0.172549 0 0 0 0.04 0"/>
<feBlend mode="normal" in2="effect1_dropShadow_28400_28894" result="effect2_dropShadow_28400_28894"/>
<feBlend mode="normal" in="SourceGraphic" in2="effect2_dropShadow_28400_28894" result="shape"/>
</filter>
<filter id="filter3_dd_28400_28894" x="60.961" y="159.297" width="59.5878" height="59.5878" filterUnits="userSpaceOnUse" color-interpolation-filters="sRGB">
<feFlood flood-opacity="0" result="BackgroundImageFix"/>
<feColorMatrix in="SourceAlpha" type="matrix" values="0 0 0 0 0 0 0 0 0 0 0 0 0 0 0 0 0 0 127 0" result="hardAlpha"/>
<feMorphology radius="0.763944" operator="erode" in="SourceAlpha" result="effect1_dropShadow_28400_28894"/>
<feOffset dy="1.52789"/>
<feGaussianBlur stdDeviation="3.05577"/>
<feColorMatrix type="matrix" values="0 0 0 0 0.105882 0 0 0 0 0.141176 0 0 0 0 0.172549 0 0 0 0.08 0"/>
<feBlend mode="normal" in2="BackgroundImageFix" result="effect1_dropShadow_28400_28894"/>
<feColorMatrix in="SourceAlpha" type="matrix" values="0 0 0 0 0 0 0 0 0 0 0 0 0 0 0 0 0 0 127 0" result="hardAlpha"/>
<feMorphology radius="0.763944" operator="erode" in="SourceAlpha" result="effect2_dropShadow_28400_28894"/>
<feOffset dy="1.52789"/>
<feGaussianBlur stdDeviation="0.763944"/>
<feComposite in2="hardAlpha" operator="out"/>
<feColorMatrix type="matrix" values="0 0 0 0 0.105882 0 0 0 0 0.141176 0 0 0 0 0.172549 0 0 0 0.04 0"/>
<feBlend mode="normal" in2="effect1_dropShadow_28400_28894" result="effect2_dropShadow_28400_28894"/>
<feBlend mode="normal" in="SourceGraphic" in2="effect2_dropShadow_28400_28894" result="shape"/>
</filter>
</defs>
</svg>
