<svg width="186" height="223" viewBox="0 0 186 223" fill="none" xmlns="http://www.w3.org/2000/svg">
<g filter="url(#filter0_dd_24068_48831)">
<path d="M56.2216 23.4453C57.9092 23.4453 59.2773 24.8134 59.2773 26.5011L59.2773 32.6126C59.2773 34.3003 57.9092 35.6684 56.2216 35.6684C54.5339 35.6684 53.1658 34.3003 53.1658 32.6126L53.1658 26.5011C53.1658 24.8134 54.5339 23.4453 56.2216 23.4453Z" fill="#67778E"/>
<path d="M7.60463 11.6682C7.60463 8.50384 10.1698 5.93861 13.3342 5.93861H50.0035C53.1679 5.93861 55.7331 8.50383 55.7331 11.6682V48.3375C55.7331 51.5018 53.1679 54.0671 50.0035 54.0671H13.3342C10.1699 54.0671 7.60463 51.5018 7.60463 48.3375V11.6682Z" fill="white"/>
<path d="M7.60463 11.6682C7.60463 8.50384 10.1698 5.93861 13.3342 5.93861H50.0035C53.1679 5.93861 55.7331 8.50383 55.7331 11.6682V48.3375C55.7331 51.5018 53.1679 54.0671 50.0035 54.0671H13.3342C10.1699 54.0671 7.60463 51.5018 7.60463 48.3375V11.6682Z" stroke="#C6D3E7" stroke-width="0.763944"/>
<path d="M16.452 31.7745C15.5577 30.8801 15.5577 29.4301 16.452 28.5357L30.2047 14.7831C31.099 13.8887 32.5491 13.8887 33.4435 14.7831L47.1961 28.5357C48.0905 29.4301 48.0905 30.8801 47.1961 31.7745L33.4435 45.5271C32.5491 46.4215 31.099 46.4215 30.2047 45.5271L16.452 31.7745Z" fill="#EE513B"/>
<path d="M27.2579 17.4678L25.8652 18.8605L29.4621 22.4574C29.3166 22.7695 29.2354 23.1177 29.2354 23.4848C29.2354 24.5272 29.8903 25.4165 30.811 25.7638V34.5629C29.8903 34.9102 29.2354 35.7995 29.2354 36.8419C29.2354 38.1867 30.3256 39.2769 31.6704 39.2769C33.0153 39.2769 34.1055 38.1867 34.1055 36.8419C34.1055 35.8969 33.5673 35.0776 32.7806 34.674V25.7759L36.2189 29.2142C36.0805 29.52 36.0035 29.8596 36.0035 30.2171C36.0035 31.5619 37.0937 32.6522 38.4386 32.6522C39.7834 32.6522 40.8736 31.5619 40.8736 30.2171C40.8736 28.8722 39.7834 27.782 38.4386 27.782C38.1772 27.782 37.9255 27.8232 37.6895 27.8994L33.9968 24.2067C34.0675 23.9786 34.1055 23.7361 34.1055 23.4848C34.1055 22.14 33.0153 21.0497 31.6704 21.0497C31.4191 21.0497 31.1768 21.0878 30.9486 21.1585L27.2579 17.4678Z" fill="white"/>
</g>
<g filter="url(#filter1_dd_24068_48831)">
<path d="M129.14 23.4453C130.827 23.4453 132.195 24.8134 132.195 26.5011L132.195 32.6126C132.195 34.3003 130.827 35.6684 129.14 35.6684C127.452 35.6684 126.084 34.3003 126.084 32.6126L126.084 26.5011C126.084 24.8134 127.452 23.4453 129.14 23.4453Z" fill="#67778E"/>
<path d="M129.521 11.6682C129.521 8.50384 132.086 5.93861 135.25 5.93861H171.92C175.084 5.93861 177.649 8.50383 177.649 11.6682V48.3375C177.649 51.5018 175.084 54.0671 171.92 54.0671H135.25C132.086 54.0671 129.521 51.5018 129.521 48.3375V11.6682Z" fill="white"/>
<path d="M129.521 11.6682C129.521 8.50384 132.086 5.93861 135.25 5.93861H171.92C175.084 5.93861 177.649 8.50383 177.649 11.6682V48.3375C177.649 51.5018 175.084 54.0671 171.92 54.0671H135.25C132.086 54.0671 129.521 51.5018 129.521 48.3375V11.6682Z" stroke="#C6D3E7" stroke-width="0.763944"/>
<path d="M167.444 39.952V21.9523L159.001 13.5088H141.919C141.69 13.5088 141.47 13.5998 141.308 13.7618C141.146 13.9239 141.055 14.1436 141.055 14.3728V39.952H167.444Z" fill="#E1FBFF" stroke="#394D54" stroke-width="0.671284" stroke-linejoin="round"/>
<path opacity="0.12" d="M167.443 22.668H159.864C159.635 22.668 159.415 22.577 159.253 22.415C159.091 22.2529 159 22.0332 159 21.804V14.2246L167.443 21.9526V22.668H167.443Z" fill="black" stroke="black" stroke-width="1.34257" stroke-linejoin="round"/>
<path d="M167.443 21.9522H159.864C159.635 21.9522 159.415 21.8612 159.253 21.6991C159.091 21.5371 159 21.3174 159 21.0882V13.5088L167.443 21.9522Z" fill="#F5FEFF" stroke="#394D54" stroke-width="0.671284" stroke-linejoin="round"/>
<path d="M141.055 39.9502V45.9196C141.055 46.0724 141.115 46.2189 141.223 46.3269C141.331 46.4349 141.478 46.4956 141.631 46.4956H166.868C167.021 46.4956 167.167 46.4349 167.275 46.3269C167.383 46.2189 167.444 46.0724 167.444 45.9196V39.9502H141.055Z" fill="#93E4F9" stroke="#394D54" stroke-width="0.671284" stroke-linejoin="round"/>
<path d="M143.15 42.0635C143.38 42.0289 143.611 42.0114 143.843 42.0112C144.311 42.0112 144.644 42.1198 144.865 42.3257C144.987 42.442 145.081 42.5833 145.143 42.7397C145.204 42.8961 145.231 43.064 145.221 43.2317C145.23 43.4113 145.202 43.5908 145.14 43.7593C145.077 43.9279 144.981 44.0822 144.858 44.2128C144.622 44.4488 144.233 44.576 143.742 44.576C143.545 44.5771 143.347 44.5671 143.151 44.546V42.0635H143.15ZM143.476 44.2955C143.585 44.3105 143.695 44.3167 143.806 44.3142C144.502 44.3142 144.88 43.9254 144.88 43.2433C144.884 42.648 144.547 42.2698 143.858 42.2698C143.73 42.2678 143.602 42.279 143.476 42.3034V44.2953L143.476 44.2955Z" fill="#394D54"/>
<path d="M148.162 43.2631C148.162 44.1317 147.634 44.5922 146.99 44.5922C146.323 44.5922 145.855 44.0755 145.855 43.3116C145.855 42.5104 146.353 41.9868 147.027 41.9868C147.716 41.9862 148.162 42.5141 148.162 43.2631ZM146.203 43.3042C146.203 43.8434 146.495 44.3266 147.008 44.3266C147.525 44.3266 147.817 43.8514 147.817 43.2782C147.817 42.7766 147.555 42.2523 147.012 42.2523C146.473 42.2521 146.203 42.75 146.203 43.3042Z" fill="#394D54"/>
<path d="M150.706 44.4682C150.495 44.5547 150.268 44.5955 150.04 44.588C149.328 44.588 148.793 44.1387 148.793 43.3113C148.793 42.5214 149.328 41.9865 150.111 41.9865C150.316 41.9779 150.521 42.0163 150.71 42.0989L150.631 42.3647C150.471 42.2925 150.297 42.2566 150.122 42.2597C149.531 42.2597 149.137 42.638 149.137 43.3007C149.137 43.9184 149.493 44.3154 150.107 44.3154C150.29 44.3181 150.471 44.2823 150.639 44.2104L150.706 44.4682Z" fill="#394D54"/>
<path d="M151.405 42.0283H151.73V43.2451H151.741C151.809 43.1478 151.876 43.0579 151.94 42.9755L152.711 42.0283H153.115L152.202 43.0991L153.186 44.5519H152.801L151.97 43.3126L151.73 43.5897V44.552H151.404V42.0283H151.405Z" fill="#394D54"/>
<path d="M155.113 43.3686H154.132V44.2783H155.226V44.5519H153.807V42.0283H155.17V42.3019H154.133V43.0994H155.114V43.3691L155.113 43.3686Z" fill="#394D54"/>
<path d="M155.945 42.0622C156.152 42.0255 156.361 42.008 156.571 42.0099C156.919 42.0099 157.143 42.0734 157.301 42.2158C157.366 42.277 157.417 42.3514 157.452 42.434C157.486 42.5166 157.502 42.6056 157.499 42.695C157.501 42.8395 157.455 42.9806 157.37 43.0969C157.284 43.2132 157.162 43.2982 157.024 43.339V43.3502C157.219 43.4178 157.335 43.5975 157.394 43.8594C157.438 44.0957 157.504 44.3276 157.589 44.5522H157.252C157.177 44.357 157.12 44.1552 157.084 43.9493C157.009 43.6011 156.874 43.47 156.578 43.4588H156.271V44.5522H155.945L155.945 42.0622ZM156.271 43.2116H156.604C156.952 43.2116 157.173 43.0206 157.173 42.7323C157.173 42.4066 156.937 42.2643 156.593 42.2606C156.485 42.2575 156.377 42.2677 156.271 42.2907V43.2123V43.2116Z" fill="#394D54"/>
<path d="M158.312 42.0278H159.672V42.3014H158.638V43.1401H159.593V43.4096H158.638V44.5517H158.312V42.0278Z" fill="#394D54"/>
<path d="M160.724 42.0283V44.5517H160.398V42.0283H160.724Z" fill="#394D54"/>
<path d="M161.623 42.0283H161.949V44.2784H163.027V44.552H161.623V42.0283Z" fill="#394D54"/>
<path d="M165.006 43.3682H164.025V44.2778H165.118V44.5514H163.699V42.0278H165.062V42.3014H164.025V43.0989H165.006V43.3686L165.006 43.3682Z" fill="#394D54"/>
<path d="M156.007 27.0215H158.021V29.0799H159.039C159.514 29.0776 159.987 28.9983 160.437 28.8452C160.674 28.7668 160.902 28.6638 161.117 28.5379C160.842 28.1567 160.678 27.7059 160.645 27.2365C160.587 26.6084 160.714 25.7906 161.139 25.298L161.351 25.0532L161.603 25.2574C162.238 25.7676 162.772 26.4804 162.867 27.2931C163.643 27.0541 164.483 27.1323 165.203 27.5104L165.479 27.6688L165.334 27.9524C164.764 29.0647 163.572 29.4094 162.407 29.3472C160.665 33.6912 156.869 35.7467 152.268 35.7467C149.891 35.7467 147.709 34.8581 146.467 32.7488L146.447 32.7143L146.266 32.3462C145.856 31.4162 145.696 30.3953 145.801 29.3844L145.83 29.0798H147.552V27.0215H149.565V25.0081H153.592V22.9946H156.007V27.0215Z" fill="#394D54"/>
<path d="M162.53 27.7835C162.665 26.7344 161.88 25.9103 161.392 25.519C160.831 26.167 160.744 27.8682 161.624 28.584C161.133 29.0205 160.098 29.4159 159.038 29.4159H146.135C146.024 30.4457 146.209 31.4858 146.67 32.4138L146.816 32.6823C146.909 32.84 147.011 32.9923 147.121 33.1388C147.651 33.1729 148.14 33.1849 148.588 33.1748C149.313 33.1794 150.035 33.0743 150.729 32.8632C150.767 32.8522 150.808 32.8563 150.843 32.8747C150.878 32.893 150.905 32.9242 150.918 32.9618C150.931 32.9994 150.929 33.0405 150.912 33.0766C150.896 33.1128 150.866 33.1412 150.829 33.1561C150.757 33.1811 150.682 33.2046 150.604 33.2271C150.121 33.3623 149.625 33.4432 149.124 33.4683C149.159 33.4683 149.088 33.4734 149.087 33.4734C149.067 33.4746 149.042 33.4775 149.022 33.4786C148.788 33.4916 148.537 33.4945 148.28 33.4945C147.998 33.4945 147.721 33.489 147.411 33.4734L147.403 33.4786C148.478 34.6869 150.159 35.4115 152.267 35.4115C156.726 35.4115 160.509 33.4344 162.184 28.9961C163.372 29.1181 164.514 28.815 165.034 27.801C164.207 27.3232 163.143 27.4757 162.53 27.7835Z" fill="#00AADA"/>
<path d="M162.53 27.7835C162.665 26.7344 161.88 25.9103 161.393 25.519C160.831 26.167 160.745 27.8682 161.625 28.584C161.133 29.0205 160.098 29.4159 159.038 29.4159H146.9C146.847 31.1104 147.476 32.3966 148.588 33.1742C149.314 33.1788 150.035 33.0737 150.729 32.8626C150.767 32.8516 150.808 32.8558 150.843 32.8741C150.879 32.8925 150.906 32.9236 150.919 32.9612C150.931 32.9988 150.929 33.0399 150.913 33.076C150.896 33.1122 150.867 33.1406 150.83 33.1555C150.758 33.1806 150.682 33.204 150.604 33.2265C150.109 33.3653 149.599 33.4496 149.085 33.478L149.071 33.4636C150.589 34.2421 152.789 34.2394 155.312 33.2703C158.142 32.1832 160.775 30.1124 162.611 27.7441C162.583 27.7571 162.557 27.7703 162.53 27.7835Z" fill="#24B8EB"/>
<path d="M146.158 30.7612C146.234 31.3371 146.407 31.8961 146.669 32.4145L146.816 32.683C146.909 32.8407 147.01 32.9931 147.12 33.1395C147.65 33.1736 148.14 33.1856 148.587 33.1755C149.312 33.1801 150.034 33.075 150.728 32.8639C150.766 32.8529 150.807 32.857 150.842 32.8754C150.878 32.8937 150.904 32.9249 150.917 32.9625C150.93 33.0001 150.928 33.0412 150.912 33.0773C150.895 33.1135 150.866 33.1419 150.829 33.1568C150.757 33.1818 150.681 33.2053 150.603 33.2278C150.108 33.3646 149.6 33.4473 149.087 33.4741C149.066 33.4753 149.031 33.4756 149.01 33.4767C148.777 33.4897 148.528 33.4978 148.271 33.4978C147.99 33.4978 147.702 33.4923 147.393 33.4767C148.468 34.6853 150.158 35.4126 152.266 35.4126C156.084 35.4126 159.406 33.9634 161.334 30.7615H146.158V30.7612Z" fill="#008BB8"/>
<path d="M147.018 30.7612C147.212 31.7382 147.775 32.6027 148.591 33.1753C149.316 33.1799 150.037 33.0749 150.731 32.8637C150.769 32.8528 150.81 32.8569 150.846 32.8752C150.881 32.8936 150.908 32.9248 150.921 32.9623C150.934 32.9999 150.932 33.041 150.915 33.0772C150.899 33.1133 150.869 33.1418 150.832 33.1566C150.76 33.1817 150.684 33.2051 150.607 33.2276C150.108 33.3644 149.596 33.4471 149.079 33.474C150.597 34.2524 152.791 34.2411 155.314 33.2724C156.871 32.6592 158.325 31.8125 159.627 30.7615H147.018V30.7612Z" fill="#039BC6"/>
<path d="M149.35 27.5028H149.488V28.9572H149.35V27.5028ZM149.085 27.5028H149.229V28.9572H149.085V27.5028ZM148.821 27.5028H148.964V28.9572H148.821V27.5028ZM148.556 27.5028H148.7V28.9572H148.557V27.5028H148.556ZM148.292 27.5028H148.436V28.9572H148.292V27.5028ZM148.032 27.5028H148.171V28.9572H148.034V27.5028H148.032ZM147.887 27.3574H149.632V29.1023H147.888V27.3569L147.887 27.3574Z" fill="#00ACD3"/>
<path d="M151.364 25.4887H151.502V26.9431H151.364V25.4887ZM151.1 25.4887H151.243V26.9431H151.1V25.4887H151.1ZM150.835 25.4887H150.979V26.9431H150.835V25.4887H150.835ZM150.571 25.4887H150.714V26.9431H150.571V25.4887ZM150.307 25.4887H150.45V26.9431H150.307L150.307 25.4887ZM150.046 25.4887H150.186V26.9431H150.047V25.4887H150.046ZM149.902 25.3433H151.648V27.0882H149.902L149.902 25.3433Z" fill="#00ACD3"/>
<path d="M151.364 27.5028H151.502V28.9572H151.364V27.5028ZM151.1 27.5028H151.243V28.9572H151.1V27.5028H151.1ZM150.835 27.5028H150.979V28.9572H150.835V27.5028H150.835ZM150.571 27.5028H150.714V28.9572H150.571V27.5028ZM150.307 27.5028H150.45V28.9572H150.307L150.307 27.5028ZM150.046 27.5028H150.186V28.9572H150.047V27.5028H150.046ZM149.902 27.3569H151.648V29.1019H149.902L149.902 27.3569Z" fill="#20C2EF"/>
<path d="M153.378 27.5028H153.516V28.9572H153.378V27.5028ZM153.114 27.5028H153.257V28.9572H153.114V27.5028ZM152.85 27.5028H152.993V28.9572H152.85V27.5028ZM152.585 27.5028H152.728V28.9572H152.585V27.5028H152.585ZM152.321 27.5028H152.464V28.9572H152.321V27.5028ZM152.061 27.5028H152.199V28.9572H152.062V27.5028H152.061ZM151.916 27.3574H153.663V29.1023H151.916V27.3569L151.916 27.3574Z" fill="#00ACD3"/>
<path d="M153.378 25.4887H153.516V26.9431H153.378V25.4887ZM153.114 25.4887H153.257V26.9431H153.114V25.4887ZM152.85 25.4887H152.993V26.9431H152.85V25.4887ZM152.585 25.4887H152.728V26.9431H152.585V25.4887H152.585ZM152.321 25.4887H152.464V26.9431H152.321V25.4887ZM152.061 25.4887H152.199V26.9431H152.062V25.4887H152.061ZM151.916 25.3433H153.663V27.0882H151.916V25.3433H151.916Z" fill="#20C2EF"/>
<path d="M155.389 27.5028H155.527V28.9572H155.389V27.5028ZM155.125 27.5028H155.267V28.9572H155.125V27.5028H155.125ZM154.86 27.5028H155.003V28.9572H154.86V27.5028ZM154.596 27.5028H154.739V28.9572H154.596L154.596 27.5028ZM154.331 27.5028H154.475V28.9572H154.331V27.5028ZM154.071 27.5028H154.209V28.9572H154.072V27.5028H154.071ZM153.926 27.3574H155.671V29.1023H153.927V27.3569L153.926 27.3574Z" fill="#20C2EF"/>
<path d="M155.389 25.4887H155.527V26.9431H155.389V25.4887ZM155.125 25.4887H155.267V26.9431H155.125V25.4887H155.125ZM154.86 25.4887H155.003V26.9431H154.86V25.4887ZM154.596 25.4887H154.739V26.9431H154.596L154.596 25.4887ZM154.331 25.4887H154.475V26.9431H154.331V25.4887ZM154.071 25.4887H154.209V26.9431H154.072V25.4887H154.071ZM153.926 25.3433H155.671V27.0882H153.927V25.3433H153.926Z" fill="#00ACD3"/>
<path d="M155.389 23.475H155.527V24.9294H155.389V23.475ZM155.125 23.475H155.267V24.9294H155.125V23.475H155.125ZM154.86 23.475H155.003V24.9294H154.86V23.475ZM154.596 23.475H154.739V24.9294H154.596L154.596 23.475ZM154.331 23.475H154.475V24.9294H154.331V23.475ZM154.071 23.475H154.209V24.9294H154.072V23.475H154.071ZM153.926 23.3296H155.671V25.0745H153.927V23.3297L153.926 23.3296Z" fill="#20C2EF"/>
<path d="M157.404 27.5028H157.542V28.9572H157.404V27.5028ZM157.14 27.5028H157.283V28.9572H157.14V27.5028ZM156.876 27.5028H157.018V28.9572H156.877V27.5028H156.876ZM156.611 27.5028H156.755V28.9572H156.611V27.5028ZM156.347 27.5028H156.49V28.9572H156.347V27.5028H156.347ZM156.087 27.5028H156.225V28.9572H156.089V27.5028H156.087H156.087ZM155.941 27.3574H157.686V29.1023H155.943V27.3569L155.941 27.3574Z" fill="#00ACD3"/>
<path d="M151.532 31.9331C151.627 31.9331 151.72 31.9613 151.8 32.0142C151.879 32.0671 151.94 32.1423 151.977 32.2303C152.013 32.3182 152.023 32.415 152.004 32.5084C151.986 32.6018 151.94 32.6876 151.873 32.7549C151.805 32.8222 151.719 32.868 151.626 32.8866C151.533 32.9052 151.436 32.8957 151.348 32.8592C151.26 32.8228 151.185 32.7611 151.132 32.6819C151.079 32.6028 151.051 32.5097 151.051 32.4145C151.051 32.2868 151.102 32.1644 151.192 32.0741C151.282 31.9839 151.405 31.9331 151.532 31.9331Z" fill="#D4EDF1"/>
<path d="M151.536 32.0675C151.578 32.0676 151.621 32.0756 151.66 32.0911C151.642 32.102 151.625 32.117 151.613 32.1351C151.601 32.1532 151.594 32.1739 151.591 32.1955C151.588 32.217 151.59 32.239 151.598 32.2595C151.605 32.2801 151.617 32.2987 151.632 32.3139C151.648 32.3291 151.667 32.3404 151.687 32.3471C151.708 32.3538 151.73 32.3555 151.752 32.3523C151.773 32.349 151.793 32.3408 151.811 32.3283C151.829 32.3158 151.844 32.2993 151.854 32.2802C151.883 32.3487 151.888 32.4246 151.87 32.4966C151.852 32.5686 151.812 32.6329 151.754 32.68C151.697 32.7271 151.626 32.7545 151.552 32.7581C151.478 32.7618 151.405 32.7415 151.343 32.7003C151.281 32.6591 151.235 32.5991 151.21 32.5292C151.185 32.4593 151.183 32.3833 151.204 32.3123C151.226 32.2413 151.27 32.1792 151.33 32.1351C151.389 32.091 151.462 32.0672 151.536 32.0674" fill="#394D54"/>
<path d="M152.814 35.4009C151.622 34.8352 150.968 34.0662 150.604 33.2266C150.083 33.3651 149.549 33.4461 149.01 33.4683C148.777 33.4814 148.532 33.488 148.275 33.4882C147.978 33.4882 147.666 33.4795 147.338 33.462C148.431 34.5546 149.776 35.396 152.267 35.4114C152.45 35.4113 152.633 35.4078 152.814 35.4009Z" fill="#BFDBE0"/>
<path d="M151.048 33.9998C150.874 33.7581 150.725 33.4984 150.606 33.2251C150.085 33.3637 149.55 33.4449 149.012 33.4672C149.646 33.7851 150.34 33.9666 151.048 33.9998Z" fill="#D4EDF1"/>
</g>
<g filter="url(#filter2_dd_24068_48831)">
<path d="M86.0723 134.096C86.0723 132.409 87.4404 131.041 89.128 131.041H95.2396C96.9272 131.041 98.2954 132.409 98.2954 134.096C98.2954 135.784 96.9272 137.152 95.2396 137.152H89.128C87.4404 137.152 86.0723 135.784 86.0723 134.096Z" fill="#67778E"/>
<path d="M68.5656 91.3157C68.5656 88.1513 71.1308 85.5861 74.2951 85.5861H110.964C114.129 85.5861 116.694 88.1513 116.694 91.3156V127.985C116.694 131.149 114.129 133.715 110.964 133.715H74.2952C71.1308 133.715 68.5656 131.149 68.5656 127.985V91.3157Z" fill="white"/>
<path d="M68.5656 91.3157C68.5656 88.1513 71.1308 85.5861 74.2951 85.5861H110.964C114.129 85.5861 116.694 88.1513 116.694 91.3156V127.985C116.694 131.149 114.129 133.715 110.964 133.715H74.2952C71.1308 133.715 68.5656 131.149 68.5656 127.985V91.3157Z" stroke="#C6D3E7" stroke-width="0.763944"/>
<path d="M105.532 111.577L104.443 118.426L110.921 120.911L110.92 114.687L105.532 111.577Z" fill="#A299FF"/>
<path d="M77.3105 117.798V101.503L82.7012 103.212V114.686L91.4229 119.721L92.0746 122.206L91.4229 125.946L77.3105 117.798Z" fill="#7366FF"/>
<path d="M91.4242 99.5803L82.7012 104.615L77.3105 101.503L91.421 93.356L105.533 101.503L102.556 103.875L100.146 104.616L91.4242 99.5803Z" fill="#7366FF"/>
<path d="M110.923 120.909L105.532 124.023L100.145 120.909V114.687L110.923 120.909Z" fill="#5219FF"/>
<path d="M91.4251 103.442L91.4219 109.665L96.8141 112.776L96.8131 106.552L91.4251 103.442Z" fill="#A299FF"/>
<path d="M91.4219 109.666L86.0332 112.777L91.4229 115.889L96.8141 112.777L91.4219 109.666Z" fill="#5219FF"/>
<path d="M91.4251 103.442L86.0338 106.555L86.0332 112.776L91.4219 109.665L91.4251 103.442Z" fill="#7366FF"/>
<path d="M105.532 101.503V111.577L100.145 114.686V104.616L105.532 101.503Z" fill="url(#paint0_linear_24068_48831)"/>
<path d="M105.534 111.573L91.4219 119.721V125.945L105.532 117.797L105.534 111.573Z" fill="url(#paint1_linear_24068_48831)"/>
</g>
<path d="M59.6152 29.0029C59.0629 29.0029 58.6152 29.4506 58.6152 30.0029C58.6152 30.5552 59.0629 31.0029 59.6152 31.0029V29.0029ZM91.9229 82.4113C92.3134 82.8018 92.9466 82.8018 93.3371 82.4113L99.701 76.0473C100.092 75.6568 100.092 75.0237 99.701 74.6331C99.3105 74.2426 98.6774 74.2426 98.2868 74.6331L92.63 80.29L86.9731 74.6331C86.5826 74.2426 85.9494 74.2426 85.5589 74.6331C85.1684 75.0237 85.1684 75.6568 85.5589 76.0473L91.9229 82.4113ZM59.6152 31.0029H68.63V29.0029H59.6152V31.0029ZM91.63 54.0029V81.7042H93.63V54.0029H91.63ZM68.63 31.0029C81.3325 31.0029 91.63 41.3004 91.63 54.0029H93.63C93.63 40.1958 82.4371 29.0029 68.63 29.0029V31.0029Z" fill="#67778E"/>
<path d="M125.64 31.0029C126.192 31.0029 126.64 30.5552 126.64 30.0029C126.64 29.4506 126.192 29.0029 125.64 29.0029V31.0029ZM91.9238 82.4113C92.3143 82.8018 92.9474 82.8018 93.338 82.4113L99.7019 76.0473C100.092 75.6568 100.092 75.0237 99.7019 74.6331C99.3114 74.2426 98.6782 74.2426 98.2877 74.6331L92.6309 80.29L86.974 74.6331C86.5835 74.2426 85.9503 74.2426 85.5598 74.6331C85.1693 75.0237 85.1693 75.6568 85.5598 76.0473L91.9238 82.4113ZM125.64 29.0029H116.631V31.0029H125.64V29.0029ZM91.6309 54.0029V81.7042H93.6309V54.0029H91.6309ZM116.631 29.0029C102.824 29.0029 91.6309 40.1958 91.6309 54.0029H93.6309C93.6309 41.3004 103.928 31.0029 116.631 31.0029V29.0029Z" fill="#67778E"/>
<path d="M68.7949 52C68.7949 46.4772 73.2721 42 78.7949 42H105.795C111.318 42 115.795 46.4772 115.795 52C115.795 57.5228 111.318 62 105.795 62H78.7949C73.2721 62 68.7949 57.5228 68.7949 52Z" fill="#67778E"/>
<path d="M80.5547 52.5679H78.5459L78.5352 51.4614H80.2217C80.5189 51.4614 80.7624 51.4238 80.9521 51.3486C81.1419 51.2699 81.2834 51.1571 81.3765 51.0103C81.4731 50.8599 81.5215 50.6772 81.5215 50.4624C81.5215 50.2189 81.4749 50.022 81.3818 49.8716C81.2923 49.7212 81.1509 49.612 80.9575 49.5439C80.7677 49.4759 80.5225 49.4419 80.2217 49.4419H79.1045V56H77.4932V48.1797H80.2217C80.6764 48.1797 81.0828 48.2227 81.4409 48.3086C81.8026 48.3945 82.1087 48.5252 82.3594 48.7007C82.61 48.8761 82.8016 49.0981 82.9341 49.3667C83.0666 49.6317 83.1328 49.9468 83.1328 50.312C83.1328 50.6343 83.0594 50.9315 82.9126 51.2036C82.7694 51.4757 82.542 51.6978 82.2305 51.8696C81.9225 52.0415 81.5197 52.1364 81.022 52.1543L80.5547 52.5679ZM80.4849 56H78.1055L78.7339 54.7432H80.4849C80.7677 54.7432 80.9987 54.6984 81.1777 54.6089C81.3568 54.5158 81.4893 54.3905 81.5752 54.2329C81.6611 54.0754 81.7041 53.8945 81.7041 53.6904C81.7041 53.4613 81.6647 53.2625 81.5859 53.0942C81.5107 52.9259 81.389 52.797 81.2207 52.7075C81.0524 52.6144 80.8304 52.5679 80.5547 52.5679H79.0024L79.0132 51.4614H80.9468L81.3174 51.8965C81.7936 51.8893 82.1768 51.9735 82.4668 52.1489C82.7604 52.3208 82.9735 52.5446 83.106 52.8203C83.242 53.096 83.3101 53.3914 83.3101 53.7065C83.3101 54.2078 83.2008 54.6304 82.9824 54.9741C82.764 55.3143 82.4435 55.5703 82.021 55.7422C81.6021 55.9141 81.09 56 80.4849 56ZM88.8809 48.1797H90.4869V53.3467C90.4869 53.9482 90.358 54.4549 90.1002 54.8667C89.8459 55.2785 89.4932 55.5882 89.042 55.7959C88.5945 56.0036 88.0788 56.1074 87.4952 56.1074C86.9115 56.1074 86.3923 56.0036 85.9376 55.7959C85.4864 55.5882 85.1319 55.2785 84.8741 54.8667C84.6198 54.4549 84.4927 53.9482 84.4927 53.3467V48.1797H86.1041V53.3467C86.1041 53.6976 86.1596 53.984 86.2706 54.2061C86.3816 54.4281 86.5409 54.591 86.7486 54.6948C86.9599 54.7987 87.2087 54.8506 87.4952 54.8506C87.7888 54.8506 88.0377 54.7987 88.2418 54.6948C88.4494 54.591 88.607 54.4281 88.7144 54.2061C88.8254 53.984 88.8809 53.6976 88.8809 53.3467V48.1797ZM93.5709 48.1797V56H91.965V48.1797H93.5709ZM100.152 54.7432V56H96.2145V54.7432H100.152ZM96.7355 48.1797V56H95.1242V48.1797H96.7355ZM103.52 56H101.818L101.828 54.7432H103.52C103.943 54.7432 104.299 54.6483 104.589 54.4585C104.879 54.2651 105.098 53.984 105.244 53.6152C105.395 53.2464 105.47 52.8006 105.47 52.2778V51.8965C105.47 51.4954 105.427 51.1427 105.341 50.8384C105.259 50.534 105.135 50.278 104.97 50.0703C104.806 49.8626 104.603 49.7069 104.364 49.603C104.124 49.4956 103.848 49.4419 103.536 49.4419H101.785V48.1797H103.536C104.059 48.1797 104.537 48.2692 104.97 48.4482C105.407 48.6237 105.785 48.8761 106.104 49.2056C106.422 49.535 106.668 49.9289 106.84 50.3872C107.015 50.842 107.103 51.3486 107.103 51.9072V52.2778C107.103 52.8328 107.015 53.3395 106.84 53.7979C106.668 54.2562 106.422 54.6501 106.104 54.9795C105.789 55.3053 105.411 55.5578 104.97 55.7368C104.534 55.9123 104.05 56 103.52 56ZM102.731 48.1797V56H101.119V48.1797H102.731Z" fill="white"/>
<g filter="url(#filter3_dd_24068_48831)">
<path d="M68.5656 170.965C68.5656 167.801 71.1308 165.235 74.2951 165.235H110.964C114.129 165.235 116.694 167.801 116.694 170.965V207.634C116.694 210.799 114.129 213.364 110.964 213.364H74.2952C71.1308 213.364 68.5656 210.799 68.5656 207.634V170.965Z" fill="white"/>
<path d="M68.5656 170.965C68.5656 167.801 71.1308 165.235 74.2951 165.235H110.964C114.129 165.235 116.694 167.801 116.694 170.965V207.634C116.694 210.799 114.129 213.364 110.964 213.364H74.2952C71.1308 213.364 68.5656 210.799 68.5656 207.634V170.965Z" stroke="#C6D3E7" stroke-width="0.763944"/>
<path d="M107.549 198.074L92.5517 206.447L77.5547 198.074V179.777L92.5517 172.536L107.549 179.777V198.074Z" fill="#20C2EF" stroke="#394D54" stroke-width="0.733386" stroke-linejoin="round"/>
<path d="M92.5527 187.715V206.446L107.55 198.073V179.776L92.5527 187.715Z" fill="#20C2EF" stroke="#394D54" stroke-width="0.685823" stroke-linejoin="round"/>
<path d="M92.5517 172.536L77.5547 179.777L92.5517 187.716L107.549 179.777L92.5517 172.536Z" fill="#20C2EF" stroke="#394D54" stroke-width="0.685823" stroke-linejoin="round"/>
<path opacity="0.3" d="M78.332 179.802L92.5525 172.924L106.775 179.79L106.165 180.116L92.5525 173.543L78.9559 180.108L78.332 179.802Z" fill="white"/>
<path opacity="0.3" d="M92.8875 188.558L92.8809 187.941L107.215 180.353V180.973L92.8875 188.558Z" fill="white"/>
<path d="M92.5517 187.715V206.446L77.5547 198.073V179.776L92.5517 187.715Z" fill="#0EACD1" stroke="#394D54" stroke-width="0.685823" stroke-linejoin="round"/>
<path d="M104.839 183.961L103.072 184.95V198.26L104.839 197.273V183.961Z" fill="#0EACD1" stroke="#394D54" stroke-width="0.342912" stroke-linejoin="round"/>
<path d="M101.269 185.893L99.502 186.882V200.192L101.269 199.206V185.893Z" fill="#0EACD1" stroke="#394D54" stroke-width="0.342912" stroke-linejoin="round"/>
<path d="M97.6973 187.984L95.9297 188.973V202.283L97.6973 201.296V187.984Z" fill="#0EACD1" stroke="#394D54" stroke-width="0.342912" stroke-linejoin="round"/>
<path opacity="0.12" d="M104.181 197.443L104.18 185.129L103.238 185.598V185.056L104.669 184.263V197.169L104.181 197.443Z" fill="black"/>
<path opacity="0.12" d="M100.631 199.355L100.629 187.057L99.6641 187.537V186.989L101.102 186.18V199.102L100.631 199.355Z" fill="black"/>
<path opacity="0.12" d="M97.0621 201.445L97.0608 189.151V189.151L96.0977 189.631V189.081L97.5327 188.271V201.19L97.0621 201.445Z" fill="black"/>
<path opacity="0.05" d="M92.2298 188.558L80.5441 199.343L77.8887 197.865V180.356L92.2298 187.953V188.558Z" fill="black"/>
</g>
<path d="M98 167C98 161.477 102.477 157 108 157H139C144.523 157 149 161.477 149 167C149 172.523 144.523 177 139 177H108C102.477 177 98 172.523 98 167Z" fill="white"/>
<path fill-rule="evenodd" clip-rule="evenodd" d="M107.019 176.953L107.165 175.46C107.439 175.486 107.718 175.5 108 175.5H108.969V177H108C107.669 177 107.342 176.984 107.019 176.953ZM138.031 177V175.5H139C139.282 175.5 139.561 175.486 139.835 175.46L139.981 176.953C139.658 176.984 139.331 177 139 177H138.031ZM141.904 176.572L141.469 175.136C142.006 174.974 142.52 174.759 143.007 174.499L143.715 175.821C143.142 176.128 142.536 176.38 141.904 176.572ZM145.344 174.73L144.392 173.571C144.822 173.218 145.218 172.822 145.571 172.392L146.73 173.344C146.315 173.85 145.85 174.315 145.344 174.73ZM147.821 171.715L146.499 171.007C146.759 170.52 146.974 170.006 147.136 169.469L148.572 169.904C148.38 170.536 148.128 171.142 147.821 171.715ZM148.953 167.981L147.46 167.835C147.486 167.561 147.5 167.282 147.5 167C147.5 166.718 147.486 166.439 147.46 166.165L148.953 166.019C148.984 166.342 149 166.669 149 167C149 167.331 148.984 167.658 148.953 167.981ZM148.572 164.096L147.136 164.531C146.974 163.994 146.759 163.48 146.499 162.993L147.821 162.285C148.128 162.858 148.38 163.464 148.572 164.096ZM146.73 160.656L145.571 161.608C145.218 161.178 144.822 160.782 144.392 160.429L145.344 159.27C145.85 159.685 146.315 160.15 146.73 160.656ZM143.715 158.179L143.007 159.501C142.52 159.241 142.006 159.026 141.469 158.864L141.904 157.428C142.536 157.62 143.142 157.872 143.715 158.179ZM108.969 157H108C107.669 157 107.342 157.016 107.019 157.047L107.165 158.54C107.439 158.514 107.718 158.5 108 158.5H108.969V157ZM105.096 157.428L105.531 158.864C104.994 159.026 104.48 159.241 103.993 159.501L103.285 158.179C103.858 157.872 104.464 157.62 105.096 157.428ZM101.656 159.27L102.608 160.429C102.178 160.782 101.782 161.178 101.429 161.608L100.27 160.656C100.685 160.15 101.15 159.685 101.656 159.27ZM99.179 162.285L100.501 162.993C100.241 163.48 100.026 163.994 99.8637 164.531L98.4281 164.096C98.6197 163.464 98.8723 162.858 99.179 162.285ZM98.0475 166.019L99.5404 166.165C99.5137 166.439 99.5 166.718 99.5 167C99.5 167.282 99.5137 167.561 99.5404 167.835L98.0475 167.981C98.0161 167.658 98 167.331 98 167C98 166.669 98.0161 166.342 98.0475 166.019ZM98.4281 169.904L99.8637 169.469C100.026 170.006 100.241 170.52 100.501 171.007L99.179 171.715C98.8723 171.142 98.6197 170.536 98.4281 169.904ZM100.27 173.344L101.429 172.392C101.782 172.822 102.178 173.218 102.608 173.571L101.656 174.73C101.15 174.315 100.685 173.85 100.27 173.344ZM105.096 176.572L105.531 175.136C104.994 174.974 104.48 174.759 103.993 174.499L103.285 175.821C103.858 176.128 104.464 176.38 105.096 176.572ZM110.906 157V158.5H112.844V157H110.906ZM114.781 157V158.5H116.719V157H114.781ZM118.656 157V158.5H120.594V157H118.656ZM122.531 157V158.5H124.469V157H122.531ZM126.406 157V158.5H128.344V157H126.406ZM130.281 157V158.5H132.219V157H130.281ZM134.156 157V158.5H136.094V157H134.156ZM138.031 157V158.5H139C139.282 158.5 139.561 158.514 139.835 158.54L139.981 157.047C139.658 157.016 139.331 157 139 157H138.031ZM136.094 177V175.5H134.156V177H136.094ZM132.219 177V175.5H130.281V177H132.219ZM128.344 177V175.5H126.406V177H128.344ZM124.469 177V175.5H122.531V177H124.469ZM120.594 177V175.5H118.656V177H120.594ZM116.719 177V175.5H114.781V177H116.719ZM112.844 177V175.5H110.906V177H112.844Z" fill="#67778E"/>
<path d="M108.412 163.18V171H106.806V163.18H108.412Z" fill="#67778E"/>
<path d="M110.701 163.18H112.065L114.074 168.921L116.083 163.18H117.447L114.622 171H113.526L110.701 163.18ZM109.965 163.18H111.324L111.571 168.776V171H109.965V163.18ZM116.824 163.18H118.188V171H116.577V168.776L116.824 163.18Z" fill="#67778E"/>
<path d="M122.921 164.517L120.794 171H119.081L121.986 163.18H123.077L122.921 164.517ZM124.688 171L122.556 164.517L122.384 163.18H123.485L126.407 171H124.688ZM124.591 168.089V169.351H120.461V168.089H124.591Z" fill="#67778E"/>
<path d="M133.278 166.913V170.012C133.156 170.159 132.968 170.318 132.714 170.49C132.459 170.658 132.132 170.803 131.731 170.925C131.33 171.047 130.844 171.107 130.275 171.107C129.77 171.107 129.31 171.025 128.895 170.86C128.479 170.692 128.121 170.447 127.82 170.125C127.523 169.802 127.294 169.408 127.133 168.943C126.972 168.474 126.891 167.938 126.891 167.337V166.848C126.891 166.247 126.968 165.711 127.122 165.242C127.28 164.773 127.504 164.377 127.794 164.055C128.084 163.733 128.429 163.488 128.83 163.319C129.231 163.151 129.677 163.067 130.168 163.067C130.848 163.067 131.407 163.178 131.843 163.4C132.28 163.618 132.613 163.923 132.842 164.313C133.075 164.7 133.218 165.144 133.272 165.645H131.709C131.67 165.38 131.595 165.149 131.484 164.952C131.373 164.755 131.213 164.601 131.006 164.49C130.801 164.379 130.536 164.324 130.211 164.324C129.942 164.324 129.702 164.379 129.491 164.49C129.283 164.598 129.108 164.757 128.965 164.968C128.821 165.18 128.712 165.441 128.637 165.752C128.562 166.064 128.524 166.426 128.524 166.837V167.337C128.524 167.745 128.563 168.107 128.642 168.422C128.721 168.733 128.837 168.997 128.991 169.211C129.149 169.423 129.342 169.582 129.571 169.689C129.801 169.797 130.067 169.851 130.372 169.851C130.626 169.851 130.837 169.829 131.006 169.786C131.177 169.743 131.315 169.691 131.419 169.63C131.527 169.566 131.609 169.505 131.666 169.448V168.062H130.194V166.913H133.278Z" fill="#67778E"/>
<path d="M139.869 169.743V171H135.706V169.743H139.869ZM136.233 163.18V171H134.621V163.18H136.233ZM139.326 166.365V167.589H135.706V166.365H139.326ZM139.864 163.18V164.442H135.706V163.18H139.864Z" fill="#67778E"/>
<path d="M93.6289 137.596C93.6289 137.044 93.1812 136.596 92.6289 136.596C92.0766 136.596 91.6289 137.044 91.6289 137.596H93.6289ZM91.9218 162.06C92.3123 162.451 92.9455 162.451 93.336 162.06L99.7 155.696C100.09 155.306 100.09 154.673 99.7 154.282C99.3094 153.892 98.6763 153.892 98.2858 154.282L92.6289 159.939L86.9721 154.282C86.5815 153.892 85.9484 153.892 85.5578 154.282C85.1673 154.673 85.1673 155.306 85.5578 155.696L91.9218 162.06ZM91.6289 137.596V161.353H93.6289V137.596H91.6289Z" fill="#67778E"/>
<defs>
<filter id="filter0_dd_24068_48831" x="0.222656" y="0.556641" width="66.0547" height="62.8926" filterUnits="userSpaceOnUse" color-interpolation-filters="sRGB">
<feFlood flood-opacity="0" result="BackgroundImageFix"/>
<feColorMatrix in="SourceAlpha" type="matrix" values="0 0 0 0 0 0 0 0 0 0 0 0 0 0 0 0 0 0 127 0" result="hardAlpha"/>
<feMorphology radius="1" operator="erode" in="SourceAlpha" result="effect1_dropShadow_24068_48831"/>
<feOffset dy="2"/>
<feGaussianBlur stdDeviation="4"/>
<feColorMatrix type="matrix" values="0 0 0 0 0.105882 0 0 0 0 0.141176 0 0 0 0 0.172549 0 0 0 0.08 0"/>
<feBlend mode="normal" in2="BackgroundImageFix" result="effect1_dropShadow_24068_48831"/>
<feColorMatrix in="SourceAlpha" type="matrix" values="0 0 0 0 0 0 0 0 0 0 0 0 0 0 0 0 0 0 127 0" result="hardAlpha"/>
<feMorphology radius="1" operator="erode" in="SourceAlpha" result="effect2_dropShadow_24068_48831"/>
<feOffset dy="2"/>
<feGaussianBlur stdDeviation="1"/>
<feComposite in2="hardAlpha" operator="out"/>
<feColorMatrix type="matrix" values="0 0 0 0 0.105882 0 0 0 0 0.141176 0 0 0 0 0.172549 0 0 0 0.04 0"/>
<feBlend mode="normal" in2="effect1_dropShadow_24068_48831" result="effect2_dropShadow_24068_48831"/>
<feBlend mode="normal" in="SourceGraphic" in2="effect2_dropShadow_24068_48831" result="shape"/>
</filter>
<filter id="filter1_dd_24068_48831" x="119.084" y="0.556641" width="65.9473" height="62.8926" filterUnits="userSpaceOnUse" color-interpolation-filters="sRGB">
<feFlood flood-opacity="0" result="BackgroundImageFix"/>
<feColorMatrix in="SourceAlpha" type="matrix" values="0 0 0 0 0 0 0 0 0 0 0 0 0 0 0 0 0 0 127 0" result="hardAlpha"/>
<feMorphology radius="1" operator="erode" in="SourceAlpha" result="effect1_dropShadow_24068_48831"/>
<feOffset dy="2"/>
<feGaussianBlur stdDeviation="4"/>
<feColorMatrix type="matrix" values="0 0 0 0 0.105882 0 0 0 0 0.141176 0 0 0 0 0.172549 0 0 0 0.08 0"/>
<feBlend mode="normal" in2="BackgroundImageFix" result="effect1_dropShadow_24068_48831"/>
<feColorMatrix in="SourceAlpha" type="matrix" values="0 0 0 0 0 0 0 0 0 0 0 0 0 0 0 0 0 0 127 0" result="hardAlpha"/>
<feMorphology radius="1" operator="erode" in="SourceAlpha" result="effect2_dropShadow_24068_48831"/>
<feOffset dy="2"/>
<feGaussianBlur stdDeviation="1"/>
<feComposite in2="hardAlpha" operator="out"/>
<feColorMatrix type="matrix" values="0 0 0 0 0.105882 0 0 0 0 0.141176 0 0 0 0 0.172549 0 0 0 0.04 0"/>
<feBlend mode="normal" in2="effect1_dropShadow_24068_48831" result="effect2_dropShadow_24068_48831"/>
<feBlend mode="normal" in="SourceGraphic" in2="effect2_dropShadow_24068_48831" result="shape"/>
</filter>
<filter id="filter2_dd_24068_48831" x="61.1836" y="80.2041" width="62.8926" height="65.9478" filterUnits="userSpaceOnUse" color-interpolation-filters="sRGB">
<feFlood flood-opacity="0" result="BackgroundImageFix"/>
<feColorMatrix in="SourceAlpha" type="matrix" values="0 0 0 0 0 0 0 0 0 0 0 0 0 0 0 0 0 0 127 0" result="hardAlpha"/>
<feMorphology radius="1" operator="erode" in="SourceAlpha" result="effect1_dropShadow_24068_48831"/>
<feOffset dy="2"/>
<feGaussianBlur stdDeviation="4"/>
<feColorMatrix type="matrix" values="0 0 0 0 0.105882 0 0 0 0 0.141176 0 0 0 0 0.172549 0 0 0 0.08 0"/>
<feBlend mode="normal" in2="BackgroundImageFix" result="effect1_dropShadow_24068_48831"/>
<feColorMatrix in="SourceAlpha" type="matrix" values="0 0 0 0 0 0 0 0 0 0 0 0 0 0 0 0 0 0 127 0" result="hardAlpha"/>
<feMorphology radius="1" operator="erode" in="SourceAlpha" result="effect2_dropShadow_24068_48831"/>
<feOffset dy="2"/>
<feGaussianBlur stdDeviation="1"/>
<feComposite in2="hardAlpha" operator="out"/>
<feColorMatrix type="matrix" values="0 0 0 0 0.105882 0 0 0 0 0.141176 0 0 0 0 0.172549 0 0 0 0.04 0"/>
<feBlend mode="normal" in2="effect1_dropShadow_24068_48831" result="effect2_dropShadow_24068_48831"/>
<feBlend mode="normal" in="SourceGraphic" in2="effect2_dropShadow_24068_48831" result="shape"/>
</filter>
<filter id="filter3_dd_24068_48831" x="61.1836" y="159.854" width="62.8926" height="62.8926" filterUnits="userSpaceOnUse" color-interpolation-filters="sRGB">
<feFlood flood-opacity="0" result="BackgroundImageFix"/>
<feColorMatrix in="SourceAlpha" type="matrix" values="0 0 0 0 0 0 0 0 0 0 0 0 0 0 0 0 0 0 127 0" result="hardAlpha"/>
<feMorphology radius="1" operator="erode" in="SourceAlpha" result="effect1_dropShadow_24068_48831"/>
<feOffset dy="2"/>
<feGaussianBlur stdDeviation="4"/>
<feColorMatrix type="matrix" values="0 0 0 0 0.105882 0 0 0 0 0.141176 0 0 0 0 0.172549 0 0 0 0.08 0"/>
<feBlend mode="normal" in2="BackgroundImageFix" result="effect1_dropShadow_24068_48831"/>
<feColorMatrix in="SourceAlpha" type="matrix" values="0 0 0 0 0 0 0 0 0 0 0 0 0 0 0 0 0 0 127 0" result="hardAlpha"/>
<feMorphology radius="1" operator="erode" in="SourceAlpha" result="effect2_dropShadow_24068_48831"/>
<feOffset dy="2"/>
<feGaussianBlur stdDeviation="1"/>
<feComposite in2="hardAlpha" operator="out"/>
<feColorMatrix type="matrix" values="0 0 0 0 0.105882 0 0 0 0 0.141176 0 0 0 0 0.172549 0 0 0 0.04 0"/>
<feBlend mode="normal" in2="effect1_dropShadow_24068_48831" result="effect2_dropShadow_24068_48831"/>
<feBlend mode="normal" in="SourceGraphic" in2="effect2_dropShadow_24068_48831" result="shape"/>
</filter>
<linearGradient id="paint0_linear_24068_48831" x1="102.838" y1="101.503" x2="102.838" y2="114.686" gradientUnits="userSpaceOnUse">
<stop offset="0.25" stop-color="#7366FF"/>
<stop offset="1" stop-color="#5219FF"/>
</linearGradient>
<linearGradient id="paint1_linear_24068_48831" x1="91.4217" y1="118.759" x2="105.534" y2="118.759" gradientUnits="userSpaceOnUse">
<stop stop-color="#7366FF"/>
<stop offset="1" stop-color="#A299FF"/>
</linearGradient>
</defs>
</svg>
