<svg width="192" height="223" viewBox="0 0 192 223" fill="none" xmlns="http://www.w3.org/2000/svg">
<g filter="url(#filter0_dd_28400_29921)">
<path d="M23.2363 55.8922C23.2363 54.2045 24.6044 52.8364 26.2921 52.8364H32.4036C34.0913 52.8364 35.4594 54.2045 35.4594 55.8922V55.8922C35.4594 57.5799 34.0913 58.948 32.4037 58.948H26.2921C24.6044 58.948 23.2363 57.5799 23.2363 55.8922V55.8922Z" fill="#8E8C99"/>
<path d="M11.3477 7.5H48.2402C51.2777 7.5001 53.7402 9.9625 53.7402 13V49.8926C53.7401 52.93 51.2777 55.3925 48.2402 55.3926H11.3477C8.31015 55.3926 5.84776 52.9301 5.84766 49.8926V13C5.84766 9.96244 8.31009 7.5 11.3477 7.5Z" fill="#FFFEFF"/>
<path d="M11.3477 7.5H48.2402C51.2777 7.5001 53.7402 9.9625 53.7402 13V49.8926C53.7401 52.93 51.2777 55.3925 48.2402 55.3926H11.3477C8.31015 55.3926 5.84776 52.9301 5.84766 49.8926V13C5.84766 9.96244 8.31009 7.5 11.3477 7.5Z" stroke="#DBD8E0"/>
<g clip-path="url(#clip0_28400_29921)">
<path d="M29.6705 14.151C29.3553 14.1669 29.0465 14.245 28.7622 14.3809L16.3668 20.3035C16.046 20.4567 15.7641 20.6796 15.5421 20.9557C15.3201 21.2318 15.1636 21.554 15.0844 21.8983L12.0263 35.202C11.9557 35.5085 11.9478 35.826 12.0031 36.1356C12.0584 36.4452 12.1757 36.7406 12.3482 37.0044C12.39 37.069 12.4349 37.1314 12.4829 37.1915L21.0625 47.8588C21.2845 48.1349 21.5664 48.3577 21.8873 48.5109C22.2081 48.664 22.5596 48.7435 22.9156 48.7435L36.6743 48.7403C37.0302 48.7406 37.3816 48.6613 37.7025 48.5085C38.0233 48.3556 38.3053 48.1331 38.5275 47.8573L47.1039 37.1883C47.3261 36.9122 47.4827 36.5899 47.562 36.2454C47.6413 35.901 47.6413 35.5432 47.562 35.1988L44.4993 21.8951C44.4201 21.5508 44.2636 21.2287 44.0416 20.9526C43.8196 20.6765 43.5377 20.4535 43.2169 20.3003L30.8199 14.3808C30.4622 14.21 30.067 14.1309 29.6705 14.151Z" fill="#326CE5"/>
<path d="M29.7932 18.6782C29.3835 18.6783 29.0512 19.0473 29.0513 19.5026C29.0513 19.5096 29.0527 19.5163 29.0528 19.5232C29.0523 19.5851 29.0493 19.6596 29.0513 19.7134C29.061 19.976 29.1182 20.177 29.1527 20.4189C29.2151 20.9366 29.2674 21.3658 29.2352 21.7648C29.2037 21.9152 29.093 22.0528 28.9942 22.1484L28.9768 22.4623C28.5254 22.4995 28.0773 22.5683 27.6356 22.6684C25.7092 23.1058 24.0506 24.0981 22.7878 25.4379C22.6977 25.3756 22.6084 25.3122 22.5199 25.2476C22.3874 25.2655 22.2536 25.3064 22.0792 25.2048C21.7472 24.9814 21.4448 24.6729 21.0789 24.3012C20.9112 24.1235 20.7898 23.9542 20.5906 23.7828C20.5454 23.7439 20.4764 23.6913 20.4257 23.6512C20.27 23.5271 20.0863 23.4623 19.9089 23.4563C19.6809 23.4485 19.4613 23.5377 19.3177 23.7179C19.0622 24.0382 19.144 24.5279 19.4999 24.8117C19.5035 24.8146 19.5074 24.8168 19.511 24.8196C19.5599 24.8593 19.6198 24.9101 19.6648 24.9433C19.8762 25.0994 20.0693 25.1793 20.2799 25.3031C20.7236 25.5772 21.0915 25.8043 21.3832 26.0783C21.4972 26.1998 21.5171 26.4138 21.5323 26.5064L21.77 26.7188C20.4971 28.6345 19.9079 31.0008 20.2561 33.4119L19.9454 33.5022C19.8635 33.608 19.7478 33.7744 19.6267 33.824C19.245 33.9443 18.8154 33.9884 18.2967 34.0428C18.0532 34.0631 17.8431 34.051 17.5849 34.0999C17.5281 34.1106 17.4489 34.1313 17.3867 34.1458L17.3804 34.1474C17.377 34.1482 17.3725 34.1499 17.3693 34.1506C16.932 34.2563 16.6511 34.6582 16.7415 35.0542C16.832 35.4503 17.2591 35.6912 17.699 35.5964C17.7022 35.5957 17.7068 35.5955 17.7101 35.5948C17.7151 35.5937 17.7195 35.5912 17.7244 35.59C17.7858 35.5766 17.8626 35.5616 17.9163 35.5473C18.1701 35.4793 18.3538 35.3794 18.5821 35.292C19.0729 35.116 19.4795 34.9688 19.8757 34.9115C20.041 34.8986 20.2154 35.0136 20.3021 35.0621L20.6255 35.0066C21.3697 37.3139 22.9293 39.1788 24.9042 40.3491L24.7694 40.6725C24.818 40.798 24.8716 40.9679 24.8353 41.092C24.6914 41.4654 24.4447 41.8595 24.1638 42.2989C24.0278 42.502 23.8886 42.6595 23.7659 42.8919C23.7366 42.9475 23.6992 43.0329 23.6708 43.0916C23.4801 43.4996 23.62 43.9694 23.9863 44.1458C24.3549 44.3232 24.8124 44.1361 25.0104 43.7273C25.0107 43.7267 25.0117 43.7263 25.0119 43.7257C25.0121 43.7252 25.0117 43.7246 25.0119 43.7242C25.0401 43.6662 25.0801 43.59 25.1039 43.5355C25.209 43.2947 25.244 43.0883 25.3179 42.8554C25.5143 42.3623 25.6221 41.8449 25.8923 41.5225C25.9663 41.4343 26.0869 41.4003 26.212 41.3668L26.38 41.0624C28.1017 41.7233 30.0288 41.9006 31.9539 41.4635C32.3866 41.3651 32.8119 41.2369 33.2269 41.0799C33.2741 41.1636 33.3619 41.3247 33.3854 41.3652C33.5126 41.4066 33.6512 41.4279 33.7643 41.5951C33.9665 41.9405 34.1047 42.3492 34.2732 42.8427C34.3471 43.0756 34.3837 43.282 34.4888 43.5228C34.5127 43.5777 34.5525 43.6549 34.5807 43.713C34.7783 44.1232 35.2373 44.311 35.6064 44.1332C35.9727 43.9567 36.1127 43.4869 35.9219 43.0789C35.8935 43.0202 35.8546 42.9348 35.8252 42.8792C35.7024 42.6468 35.5633 42.4908 35.4273 42.2879C35.1464 41.8485 34.9134 41.4834 34.7694 41.11C34.7092 40.9174 34.7795 40.7976 34.8264 40.6725C34.7983 40.6403 34.7382 40.4584 34.7028 40.3729C36.7552 39.161 38.269 37.2265 38.9799 34.9924C39.0759 35.0075 39.2428 35.037 39.2969 35.0479C39.4085 34.9743 39.5111 34.8782 39.7123 34.8941C40.1084 34.9514 40.515 35.0986 41.0059 35.2746C41.2341 35.362 41.4179 35.4635 41.6717 35.5314C41.7253 35.5457 41.8022 35.5591 41.8635 35.5726C41.8684 35.5738 41.8728 35.5762 41.8778 35.5773C41.8811 35.5781 41.8857 35.5782 41.8889 35.579C42.3288 35.6736 42.756 35.4329 42.8464 35.0368C42.9367 34.6407 42.656 34.2387 42.2186 34.1332C42.155 34.1187 42.0648 34.0941 42.003 34.0825C41.7448 34.0336 41.5347 34.0456 41.2912 34.0254C40.7725 33.971 40.3429 33.9268 39.9612 33.8066C39.8055 33.7462 39.6948 33.561 39.6409 33.4848L39.3413 33.3976C39.4967 32.2737 39.4548 31.1041 39.186 29.9337C38.9146 28.7526 38.4352 27.6722 37.7957 26.7204C37.8725 26.6505 38.0177 26.522 38.0588 26.4842C38.0709 26.351 38.0605 26.2115 38.1983 26.0641C38.4901 25.7901 38.858 25.5629 39.3017 25.2889C39.5123 25.1649 39.707 25.0851 39.9184 24.929C39.9662 24.8937 40.0315 24.8378 40.0817 24.7974C40.4375 24.5135 40.5195 24.0239 40.264 23.7036C40.0085 23.3833 39.5133 23.3531 39.1574 23.637C39.1068 23.6771 39.0381 23.7295 38.9926 23.7686C38.7934 23.9399 38.6704 24.1092 38.5027 24.287C38.1368 24.6586 37.8344 24.9687 37.5024 25.1922C37.3585 25.2759 37.1478 25.247 37.0522 25.2413L36.77 25.4426C35.1609 23.7554 32.9702 22.6766 30.6112 22.4671C30.6046 22.3682 30.596 22.1895 30.5938 22.1357C30.4972 22.0433 30.3805 21.9645 30.3512 21.7648C30.3189 21.3658 30.3728 20.9366 30.4352 20.4189C30.4697 20.177 30.5269 19.976 30.5367 19.7134C30.5389 19.6537 30.5353 19.5671 30.5351 19.5026C30.5351 19.0473 30.2029 18.6782 29.7932 18.6782ZM28.8642 24.4328L28.6438 28.3247L28.628 28.3326C28.6132 28.6808 28.3267 28.9588 27.9749 28.9588C27.8307 28.9588 27.6977 28.9125 27.5896 28.8336L27.5833 28.8367L24.3921 26.5745C25.3729 25.6101 26.6274 24.8974 28.0731 24.5692C28.3343 24.5102 28.5983 24.4647 28.8642 24.4328ZM30.7237 24.4328C32.4117 24.6404 33.9727 25.4047 35.1689 26.5761L31.9983 28.824L31.9872 28.8193C31.7058 29.0248 31.3093 28.9738 31.0899 28.6988C31.0032 28.5909 30.9533 28.4582 30.9473 28.3199L30.9441 28.3184L30.7237 24.4328ZM23.2348 28.0282L26.1486 30.6345L26.1454 30.6503C26.4085 30.8789 26.4473 31.2757 26.2279 31.5507C26.1414 31.6593 26.0226 31.7376 25.8886 31.7742L25.8854 31.7869L22.1505 32.8649C21.9604 31.1267 22.3701 29.437 23.2348 28.0282ZM36.3309 28.0298C36.7638 28.7315 37.0916 29.5153 37.2868 30.3649C37.4796 31.2044 37.528 32.0424 37.4485 32.8522L33.6946 31.7711L33.6914 31.7552C33.3552 31.6634 33.1486 31.3214 33.2269 30.9784C33.2573 30.8435 33.3301 30.7219 33.4346 30.6313L33.433 30.6233L36.3309 28.0298V28.0298ZM29.1955 30.8357H30.3893L31.1312 31.7632L30.8649 32.9204L29.7932 33.4356L28.7184 32.9188L28.452 31.7616L29.1955 30.8357ZM33.0224 34.0095C33.0731 34.007 33.1236 34.0115 33.173 34.0206L33.1794 34.0127L37.0427 34.6658C36.4773 36.2543 35.3954 37.6304 33.9498 38.5513L32.4501 34.929L32.4549 34.9226C32.3171 34.6025 32.455 34.2271 32.7719 34.0745C32.8531 34.0354 32.9378 34.0138 33.0224 34.0095ZM26.5339 34.0253C26.8286 34.0295 27.0931 34.2341 27.1616 34.5342C27.1937 34.6748 27.1781 34.8139 27.1251 34.9369L27.1363 34.9511L25.6524 38.5371C24.2651 37.6468 23.1601 36.3139 22.569 34.6785L26.3991 34.0285L26.4054 34.0364C26.4483 34.0286 26.4917 34.0248 26.5339 34.0253ZM29.7694 35.5964C29.8751 35.5927 29.9802 35.615 30.0754 35.6613C30.2052 35.7239 30.3055 35.8224 30.3686 35.9404H30.3829L32.271 39.3519C32.0231 39.4347 31.7713 39.5051 31.5164 39.5628C30.0724 39.8906 28.633 39.7913 27.3297 39.3472L29.213 35.942H29.2162C29.2701 35.8411 29.3496 35.756 29.4467 35.6954C29.5438 35.6347 29.655 35.6006 29.7694 35.5964L29.7694 35.5964Z" fill="white" stroke="white" stroke-width="0.14494"/>
</g>
</g>
<g filter="url(#filter1_dd_28400_29921)">
<path d="M133.264 7.5H170.156C173.194 7.5001 175.656 9.9625 175.656 13V49.8926C175.656 52.93 173.194 55.3925 170.156 55.3926H133.264C130.226 55.3926 127.764 52.9301 127.764 49.8926V13C127.764 9.96244 130.226 7.5 133.264 7.5Z" fill="#FFFEFF"/>
<path d="M133.264 7.5H170.156C173.194 7.5001 175.656 9.9625 175.656 13V49.8926C175.656 52.93 173.194 55.3925 170.156 55.3926H133.264C130.226 55.3926 127.764 52.9301 127.764 49.8926V13C127.764 9.96244 130.226 7.5 133.264 7.5Z" stroke="#DBD8E0"/>
<g clip-path="url(#clip1_28400_29921)">
<path d="M151.587 14.151C151.271 14.1669 150.963 14.245 150.678 14.3809L138.283 20.3035C137.962 20.4567 137.68 20.6796 137.458 20.9557C137.236 21.2318 137.08 21.554 137 21.8983L133.942 35.202C133.872 35.5085 133.864 35.826 133.919 36.1356C133.974 36.4452 134.092 36.7406 134.264 37.0044C134.306 37.069 134.351 37.1314 134.399 37.1915L142.978 47.8588C143.201 48.1349 143.482 48.3577 143.803 48.5109C144.124 48.664 144.476 48.7435 144.832 48.7435L158.59 48.7403C158.946 48.7406 159.298 48.6613 159.618 48.5085C159.939 48.3556 160.221 48.1331 160.444 47.8573L169.02 37.1883C169.242 36.9122 169.399 36.5899 169.478 36.2454C169.557 35.901 169.557 35.5432 169.478 35.1988L166.415 21.8951C166.336 21.5508 166.18 21.2287 165.958 20.9526C165.736 20.6765 165.454 20.4535 165.133 20.3003L152.736 14.3808C152.378 14.21 151.983 14.1309 151.587 14.151Z" fill="#326CE5"/>
<path d="M151.709 18.6782C151.299 18.6783 150.967 19.0473 150.967 19.5026C150.967 19.5096 150.969 19.5163 150.969 19.5232C150.968 19.5851 150.965 19.6596 150.967 19.7134C150.977 19.976 151.034 20.177 151.069 20.4189C151.131 20.9366 151.183 21.3658 151.151 21.7648C151.12 21.9152 151.009 22.0528 150.91 22.1484L150.893 22.4623C150.441 22.4995 149.993 22.5683 149.552 22.6684C147.625 23.1058 145.967 24.0981 144.704 25.4379C144.614 25.3756 144.524 25.3122 144.436 25.2476C144.303 25.2655 144.17 25.3064 143.995 25.2048C143.663 24.9814 143.361 24.6729 142.995 24.3012C142.827 24.1235 142.706 23.9542 142.507 23.7828C142.461 23.7439 142.392 23.6913 142.342 23.6512C142.186 23.5271 142.002 23.4623 141.825 23.4563C141.597 23.4485 141.377 23.5377 141.234 23.7179C140.978 24.0382 141.06 24.5279 141.416 24.8117C141.42 24.8146 141.423 24.8168 141.427 24.8196C141.476 24.8593 141.536 24.9101 141.581 24.9433C141.792 25.0994 141.985 25.1793 142.196 25.3031C142.64 25.5772 143.008 25.8043 143.299 26.0783C143.413 26.1998 143.433 26.4138 143.448 26.5064L143.686 26.7188C142.413 28.6345 141.824 31.0008 142.172 33.4119L141.861 33.5022C141.78 33.608 141.664 33.7744 141.543 33.824C141.161 33.9443 140.731 33.9884 140.213 34.0428C139.969 34.0631 139.759 34.051 139.501 34.0999C139.444 34.1106 139.365 34.1313 139.303 34.1458L139.296 34.1474C139.293 34.1482 139.289 34.1499 139.285 34.1506C138.848 34.2563 138.567 34.6582 138.658 35.0542C138.748 35.4503 139.175 35.6912 139.615 35.5964C139.618 35.5957 139.623 35.5955 139.626 35.5948C139.631 35.5937 139.635 35.5912 139.64 35.59C139.702 35.5766 139.779 35.5616 139.832 35.5473C140.086 35.4793 140.27 35.3794 140.498 35.292C140.989 35.116 141.396 34.9688 141.792 34.9115C141.957 34.8986 142.131 35.0136 142.218 35.0621L142.542 35.0066C143.286 37.3139 144.845 39.1788 146.82 40.3491L146.685 40.6725C146.734 40.798 146.788 40.9679 146.751 41.092C146.607 41.4654 146.361 41.8595 146.08 42.2989C145.944 42.502 145.805 42.6595 145.682 42.8919C145.653 42.9475 145.615 43.0329 145.587 43.0916C145.396 43.4996 145.536 43.9694 145.902 44.1458C146.271 44.3232 146.728 44.1361 146.926 43.7273C146.927 43.7267 146.928 43.7263 146.928 43.7257C146.928 43.7252 146.928 43.7246 146.928 43.7242C146.956 43.6662 146.996 43.59 147.02 43.5355C147.125 43.2947 147.16 43.0883 147.234 42.8554C147.43 42.3623 147.538 41.8449 147.808 41.5225C147.882 41.4343 148.003 41.4003 148.128 41.3668L148.296 41.0624C150.018 41.7233 151.945 41.9006 153.87 41.4635C154.303 41.3651 154.728 41.2369 155.143 41.0799C155.19 41.1636 155.278 41.3247 155.301 41.3652C155.429 41.4066 155.567 41.4279 155.68 41.5951C155.882 41.9405 156.021 42.3492 156.189 42.8427C156.263 43.0756 156.3 43.282 156.405 43.5228C156.429 43.5777 156.469 43.6549 156.497 43.713C156.694 44.1232 157.153 44.311 157.522 44.1332C157.889 43.9567 158.029 43.4869 157.838 43.0789C157.81 43.0202 157.771 42.9348 157.741 42.8792C157.618 42.6468 157.479 42.4908 157.343 42.2879C157.062 41.8485 156.829 41.4834 156.685 41.11C156.625 40.9174 156.696 40.7976 156.742 40.6725C156.714 40.6403 156.654 40.4584 156.619 40.3729C158.671 39.161 160.185 37.2265 160.896 34.9924C160.992 35.0075 161.159 35.037 161.213 35.0479C161.325 34.9743 161.427 34.8782 161.628 34.8941C162.024 34.9514 162.431 35.0986 162.922 35.2746C163.15 35.362 163.334 35.4635 163.588 35.5314C163.641 35.5457 163.718 35.5591 163.78 35.5726C163.784 35.5738 163.789 35.5762 163.794 35.5773C163.797 35.5781 163.802 35.5782 163.805 35.579C164.245 35.6736 164.672 35.4329 164.762 35.0368C164.853 34.6407 164.572 34.2387 164.135 34.1332C164.071 34.1187 163.981 34.0941 163.919 34.0825C163.661 34.0336 163.451 34.0456 163.207 34.0254C162.689 33.971 162.259 33.9268 161.877 33.8066C161.722 33.7462 161.611 33.561 161.557 33.4848L161.257 33.3976C161.413 32.2737 161.371 31.1041 161.102 29.9337C160.831 28.7526 160.351 27.6722 159.712 26.7204C159.789 26.6505 159.934 26.522 159.975 26.4842C159.987 26.351 159.977 26.2115 160.114 26.0641C160.406 25.7901 160.774 25.5629 161.218 25.2889C161.428 25.1649 161.623 25.0851 161.834 24.929C161.882 24.8937 161.948 24.8378 161.998 24.7974C162.354 24.5135 162.435 24.0239 162.18 23.7036C161.924 23.3833 161.429 23.3531 161.073 23.637C161.023 23.6771 160.954 23.7295 160.909 23.7686C160.709 23.9399 160.586 24.1092 160.419 24.287C160.053 24.6586 159.75 24.9687 159.418 25.1922C159.275 25.2759 159.064 25.247 158.968 25.2413L158.686 25.4426C157.077 23.7554 154.886 22.6766 152.527 22.4671C152.521 22.3682 152.512 22.1895 152.51 22.1357C152.413 22.0433 152.297 21.9645 152.267 21.7648C152.235 21.3658 152.289 20.9366 152.351 20.4189C152.386 20.177 152.443 19.976 152.453 19.7134C152.455 19.6537 152.451 19.5671 152.451 19.5026C152.451 19.0473 152.119 18.6782 151.709 18.6782ZM150.78 24.4328L150.56 28.3247L150.544 28.3326C150.529 28.6808 150.243 28.9588 149.891 28.9588C149.747 28.9588 149.614 28.9125 149.506 28.8336L149.499 28.8367L146.308 26.5745C147.289 25.6101 148.543 24.8974 149.989 24.5692C150.25 24.5102 150.514 24.4647 150.78 24.4328ZM152.64 24.4328C154.328 24.6404 155.889 25.4047 157.085 26.5761L153.914 28.824L153.903 28.8193C153.622 29.0248 153.225 28.9738 153.006 28.6988C152.919 28.5909 152.869 28.4582 152.863 28.3199L152.86 28.3184L152.64 24.4328ZM145.151 28.0282L148.065 30.6345L148.061 30.6503C148.324 30.8789 148.363 31.2757 148.144 31.5507C148.057 31.6593 147.939 31.7376 147.805 31.7742L147.801 31.7869L144.067 32.8649C143.876 31.1267 144.286 29.437 145.151 28.0282ZM158.247 28.0298C158.68 28.7315 159.008 29.5153 159.203 30.3649C159.396 31.2044 159.444 32.0424 159.365 32.8522L155.611 31.7711L155.607 31.7552C155.271 31.6634 155.065 31.3214 155.143 30.9784C155.173 30.8435 155.246 30.7219 155.351 30.6313L155.349 30.6233L158.247 28.0298V28.0298ZM151.112 30.8357H152.305L153.047 31.7632L152.781 32.9204L151.709 33.4356L150.634 32.9188L150.368 31.7616L151.112 30.8357ZM154.938 34.0095C154.989 34.007 155.04 34.0115 155.089 34.0206L155.095 34.0127L158.959 34.6658C158.393 36.2543 157.311 37.6304 155.866 38.5513L154.366 34.929L154.371 34.9226C154.233 34.6025 154.371 34.2271 154.688 34.0745C154.769 34.0354 154.854 34.0138 154.938 34.0095ZM148.45 34.0253C148.745 34.0295 149.009 34.2341 149.078 34.5342C149.11 34.6748 149.094 34.8139 149.041 34.9369L149.052 34.9511L147.568 38.5371C146.181 37.6468 145.076 36.3139 144.485 34.6785L148.315 34.0285L148.321 34.0364C148.364 34.0286 148.408 34.0248 148.45 34.0253ZM151.685 35.5964C151.791 35.5927 151.896 35.615 151.991 35.6613C152.121 35.7239 152.222 35.8224 152.285 35.9404H152.299L154.187 39.3519C153.939 39.4347 153.687 39.5051 153.432 39.5628C151.988 39.8906 150.549 39.7913 149.246 39.3472L151.129 35.942H151.132C151.186 35.8411 151.266 35.756 151.363 35.6954C151.46 35.6347 151.571 35.6006 151.685 35.5964L151.685 35.5964Z" fill="white" stroke="white" stroke-width="0.14494"/>
</g>
</g>
<g filter="url(#filter2_dd_28400_29921)">
<path d="M54.3485 184.185C56.0362 184.185 57.4043 185.553 57.4043 187.24L57.4043 193.352C57.4043 195.04 56.0362 196.408 54.3485 196.408V196.408C52.6609 196.408 51.2927 195.04 51.2927 193.352L51.2927 187.24C51.2927 185.553 52.6609 184.185 54.3485 184.185V184.185Z" fill="#65636D"/>
<path d="M11.3477 166.796H48.2402C51.2777 166.796 53.7402 169.258 53.7402 172.296V209.188C53.7401 212.226 51.2777 214.688 48.2402 214.688H11.3477C8.31015 214.688 5.84776 212.226 5.84766 209.188V172.296C5.84766 169.258 8.31009 166.796 11.3477 166.796Z" fill="#FFFEFF"/>
<path d="M11.3477 166.796H48.2402C51.2777 166.796 53.7402 169.258 53.7402 172.296V209.188C53.7401 212.226 51.2777 214.688 48.2402 214.688H11.3477C8.31015 214.688 5.84776 212.226 5.84766 209.188V172.296C5.84766 169.258 8.31009 166.796 11.3477 166.796Z" stroke="#DBD8E0"/>
<path d="M35.5284 173.493C35.3225 173.287 35.0431 173.171 34.7519 173.171H19.1919C18.5854 173.171 18.0938 173.663 18.0938 174.27V207.215C18.0938 207.821 18.5854 208.313 19.1919 208.313H41.0884C41.6949 208.313 42.1866 207.821 42.1866 207.215V180.606C42.1866 180.315 42.0709 180.035 41.865 179.829L35.5284 173.493Z" fill="#F2EFF3"/>
<path d="M38.4734 184.153H21.8788C21.6092 184.153 21.3906 184.495 21.3906 184.917C21.3906 185.339 21.6092 185.681 21.8788 185.681H38.4734C38.743 185.681 38.9616 185.339 38.9616 184.917C38.9616 184.495 38.743 184.153 38.4734 184.153Z" fill="#6033F0"/>
<path d="M38.474 188.975H21.8789C21.7494 188.975 21.6252 188.895 21.5336 188.751C21.4421 188.608 21.3906 188.414 21.3906 188.211C21.3906 188.009 21.4421 187.814 21.5336 187.671C21.6252 187.528 21.7494 187.447 21.8789 187.447H38.474C38.6034 187.448 38.7274 187.528 38.8188 187.671C38.9103 187.815 38.9616 188.009 38.9616 188.211C38.9616 188.414 38.9103 188.608 38.8188 188.751C38.7274 188.894 38.6034 188.975 38.474 188.975Z" fill="#6033F0"/>
<path d="M38.474 192.27H21.8789C21.7495 192.27 21.6254 192.189 21.5338 192.046C21.4423 191.903 21.3908 191.709 21.3906 191.506C21.3906 191.303 21.4421 191.109 21.5336 190.966C21.6252 190.822 21.7494 190.742 21.8789 190.742H38.474C38.6034 190.742 38.7274 190.823 38.8188 190.966C38.9103 191.109 38.9616 191.304 38.9616 191.506C38.9616 191.709 38.9102 191.903 38.8188 192.046C38.7273 192.189 38.6033 192.27 38.474 192.27Z" fill="#6033F0"/>
<path d="M38.474 195.565H21.8789C21.7494 195.565 21.6252 195.484 21.5336 195.341C21.4421 195.197 21.3906 195.003 21.3906 194.8C21.3908 194.598 21.4423 194.403 21.5338 194.26C21.6254 194.117 21.7495 194.037 21.8789 194.037H38.474C38.6033 194.037 38.7273 194.117 38.8188 194.26C38.9102 194.403 38.9616 194.598 38.9616 194.8C38.9616 195.003 38.9103 195.197 38.8188 195.34C38.7274 195.484 38.6034 195.564 38.474 195.565Z" fill="#6033F0"/>
<path d="M35.2051 180.151H42.1849L35.2051 173.171V180.151Z" fill="#6033F0"/>
<path d="M42.1849 180.151H35.2051L42.1849 187.131V180.151Z" fill="#E3DFE6"/>
</g>
<path d="M30.793 59.3926C30.793 58.8403 30.3453 58.3926 29.793 58.3926C29.2407 58.3926 28.793 58.8403 28.793 59.3926H29.793H30.793ZM29.0859 163.503C29.4764 163.894 30.1096 163.894 30.5001 163.503L36.864 157.139C37.2546 156.749 37.2546 156.116 36.864 155.725C36.4735 155.334 35.8403 155.334 35.4498 155.725L29.793 161.382L24.1361 155.725C23.7456 155.334 23.1124 155.334 22.7219 155.725C22.3314 156.116 22.3314 156.749 22.7219 157.139L29.0859 163.503ZM29.793 59.3926H28.793V162.796H29.793H30.793V59.3926H29.793Z" fill="#8E8C99"/>
<path d="M5.49023 111.443C5.49023 105.921 9.96739 101.443 15.4902 101.443H72.4902C78.0131 101.443 82.4902 105.921 82.4902 111.443V111.443C82.4902 116.966 78.0131 121.443 72.4902 121.443H15.4902C9.96739 121.443 5.49023 116.966 5.49023 111.443V111.443Z" fill="#8E8C99"/>
<path d="M19.4038 110.808V112.065H15.3218V110.808H19.4038ZM15.7998 107.623V115.443H14.1885V107.623H15.7998ZM20.5532 107.623V115.443H18.9473V107.623H20.5532ZM28.4229 111.351V111.721C28.4229 112.316 28.3423 112.849 28.1812 113.322C28.0201 113.794 27.7927 114.197 27.4991 114.53C27.2055 114.86 26.8545 115.112 26.4463 115.288C26.0417 115.463 25.5923 115.551 25.0982 115.551C24.6076 115.551 24.1583 115.463 23.7501 115.288C23.3454 115.112 22.9945 114.86 22.6973 114.53C22.4001 114.197 22.1692 113.794 22.0044 113.322C21.8433 112.849 21.7628 112.316 21.7628 111.721V111.351C21.7628 110.753 21.8433 110.219 22.0044 109.75C22.1656 109.277 22.393 108.875 22.6866 108.542C22.9838 108.208 23.3347 107.954 23.7393 107.779C24.1475 107.603 24.5969 107.516 25.0875 107.516C25.5816 107.516 26.031 107.603 26.4356 107.779C26.8438 107.954 27.1947 108.208 27.4883 108.542C27.7855 108.875 28.0147 109.277 28.1758 109.75C28.3405 110.219 28.4229 110.753 28.4229 111.351ZM26.7955 111.721V111.34C26.7955 110.924 26.7579 110.559 26.6827 110.244C26.6075 109.929 26.4965 109.664 26.3497 109.449C26.2029 109.234 26.0238 109.073 25.8126 108.966C25.6013 108.855 25.3596 108.799 25.0875 108.799C24.8153 108.799 24.5736 108.855 24.3624 108.966C24.1547 109.073 23.9774 109.234 23.8306 109.449C23.6874 109.664 23.5782 109.929 23.503 110.244C23.4278 110.559 23.3902 110.924 23.3902 111.34V111.721C23.3902 112.133 23.4278 112.498 23.503 112.817C23.5782 113.132 23.6892 113.399 23.836 113.617C23.9828 113.832 24.1618 113.995 24.3731 114.106C24.5844 114.217 24.8261 114.272 25.0982 114.272C25.3703 114.272 25.612 114.217 25.8233 114.106C26.0346 113.995 26.2118 113.832 26.355 113.617C26.4983 113.399 26.6075 113.132 26.6827 112.817C26.7579 112.498 26.7955 112.133 26.7955 111.721ZM33.6984 113.397C33.6984 113.257 33.6769 113.132 33.6339 113.021C33.5945 112.906 33.5193 112.803 33.4083 112.709C33.2973 112.613 33.1415 112.518 32.941 112.425C32.7405 112.332 32.4809 112.235 32.1622 112.135C31.8077 112.02 31.4711 111.891 31.1525 111.748C30.8373 111.605 30.5581 111.438 30.3146 111.249C30.0747 111.055 29.8849 110.831 29.7452 110.577C29.6092 110.323 29.5411 110.028 29.5411 109.691C29.5411 109.365 29.6127 109.07 29.756 108.805C29.8992 108.536 30.0997 108.307 30.3575 108.117C30.6153 107.924 30.9197 107.775 31.2706 107.671C31.6251 107.568 32.0136 107.516 32.4361 107.516C33.0126 107.516 33.5157 107.619 33.9454 107.827C34.3751 108.035 34.7081 108.319 34.9444 108.681C35.1844 109.043 35.3043 109.456 35.3043 109.922H33.7037C33.7037 109.693 33.6554 109.492 33.5587 109.32C33.4656 109.145 33.3224 109.007 33.129 108.907C32.9392 108.806 32.6993 108.756 32.4093 108.756C32.13 108.756 31.8972 108.799 31.711 108.885C31.5248 108.968 31.3852 109.08 31.2921 109.224C31.199 109.363 31.1525 109.521 31.1525 109.696C31.1525 109.829 31.1847 109.949 31.2491 110.056C31.3172 110.164 31.4174 110.264 31.5499 110.357C31.6824 110.45 31.8453 110.538 32.0387 110.62C32.232 110.702 32.4558 110.783 32.7101 110.862C33.1362 110.991 33.5104 111.136 33.8326 111.297C34.1585 111.458 34.4306 111.639 34.649 111.839C34.8675 112.04 35.0322 112.267 35.1432 112.521C35.2542 112.776 35.3097 113.064 35.3097 113.386C35.3097 113.726 35.2434 114.031 35.1109 114.299C34.9785 114.568 34.7869 114.795 34.5362 114.981C34.2856 115.168 33.9866 115.309 33.6393 115.406C33.2919 115.502 32.9034 115.551 32.4737 115.551C32.087 115.551 31.7057 115.501 31.3297 115.4C30.9537 115.297 30.6118 115.141 30.3038 114.933C29.9995 114.725 29.756 114.46 29.5734 114.138C29.3907 113.816 29.2994 113.435 29.2994 112.994H30.9161C30.9161 113.238 30.9537 113.444 31.0289 113.612C31.1041 113.78 31.2097 113.916 31.3458 114.02C31.4855 114.124 31.6502 114.199 31.84 114.246C32.0333 114.292 32.2446 114.315 32.4737 114.315C32.753 114.315 32.9822 114.276 33.1612 114.197C33.3439 114.118 33.4781 114.009 33.5641 113.87C33.6536 113.73 33.6984 113.572 33.6984 113.397ZM39.946 107.623V115.443H38.34V107.623H39.946ZM42.3522 107.623V108.885H35.9714V107.623H42.3522ZM49.6794 107.623V115.443H48.0681L44.926 110.201V115.443H43.3147V107.623H44.926L48.0735 112.871V107.623H49.6794ZM54.4016 108.96L52.2747 115.443H50.5613L53.4671 107.623H54.5574L54.4016 108.96ZM56.1687 115.443L54.0364 108.96L53.8645 107.623H54.9656L57.8875 115.443H56.1687ZM56.0721 112.532V113.794H51.9417V112.532H56.0721ZM59.3924 107.623H60.7567L62.7655 113.365L64.7743 107.623H66.1385L63.3133 115.443H62.2176L59.3924 107.623ZM58.6566 107.623H60.0155L60.2625 113.22V115.443H58.6566V107.623ZM65.5155 107.623H66.8797V115.443H65.2684V113.22L65.5155 107.623ZM73.5839 114.187V115.443H69.4213V114.187H73.5839ZM69.9476 107.623V115.443H68.3363V107.623H69.9476ZM73.0414 110.808V112.033H69.4213V110.808H73.0414ZM73.5785 107.623V108.885H69.4213V107.623H73.5785Z" fill="#FFFEFF"/>
<g filter="url(#filter3_dd_28400_29921)">
<path d="M145.152 166.296C145.152 164.608 146.52 163.24 148.208 163.24H154.32C156.007 163.24 157.375 164.608 157.375 166.296V166.296C157.375 167.984 156.007 169.352 154.32 169.352H148.208C146.52 169.352 145.152 167.984 145.152 166.296V166.296Z" fill="#8E8C99"/>
<path d="M133.264 166.796H170.156C173.194 166.796 175.656 169.258 175.656 172.296V209.188C175.656 212.226 173.194 214.688 170.156 214.688H133.264C130.226 214.688 127.764 212.226 127.764 209.188V172.296C127.764 169.258 130.226 166.796 133.264 166.796Z" fill="#FFFEFF"/>
<path d="M133.264 166.796H170.156C173.194 166.796 175.656 169.258 175.656 172.296V209.188C175.656 212.226 173.194 214.688 170.156 214.688H133.264C130.226 214.688 127.764 212.226 127.764 209.188V172.296C127.764 169.258 130.226 166.796 133.264 166.796Z" stroke="#DBD8E0"/>
<path d="M166.454 180.492L153.073 172.766C152.244 172.288 151.224 172.288 150.397 172.766L137.016 180.492C136.188 180.969 135.678 181.853 135.678 182.809V198.26C135.678 199.216 136.187 200.1 137.016 200.578L151.735 209.077V200.578C151.735 200.1 151.99 199.659 152.404 199.419L159.763 195.17V204.44L166.454 200.578C167.282 200.1 167.792 199.216 167.792 198.26V182.809C167.792 181.853 167.282 180.97 166.454 180.492ZM151.066 190.921L143.706 195.17V186.672C143.706 186.193 143.961 185.752 144.375 185.512L151.066 181.65C151.48 181.411 151.99 181.411 152.404 181.65L159.094 185.512C159.509 185.751 159.763 186.193 159.763 186.672V195.17L152.404 190.921C151.99 190.683 151.48 190.683 151.066 190.921Z" fill="#6033F0"/>
</g>
<path d="M57.7402 189.742C57.1879 189.742 56.7402 190.19 56.7402 190.742C56.7402 191.294 57.1879 191.742 57.7402 191.742V190.742V189.742ZM124.471 191.449C124.861 191.059 124.861 190.426 124.471 190.035L118.107 183.671C117.716 183.281 117.083 183.281 116.693 183.671C116.302 184.062 116.302 184.695 116.693 185.085L122.35 190.742L116.693 196.399C116.302 196.79 116.302 197.423 116.693 197.813C117.083 198.204 117.716 198.204 118.107 197.813L124.471 191.449ZM57.7402 190.742V191.742H123.764V190.742V189.742H57.7402V190.742Z" fill="#8E8C99"/>
<path d="M150.709 162.796C150.709 163.348 151.157 163.796 151.709 163.796C152.261 163.796 152.709 163.348 152.709 162.796H151.709H150.709ZM152.416 58.6855C152.026 58.2949 151.392 58.2949 151.002 58.6855L144.638 65.0494C144.247 65.44 144.247 66.0731 144.638 66.4636C145.028 66.8542 145.662 66.8542 146.052 66.4636L151.709 60.8068L157.366 66.4636C157.756 66.8542 158.39 66.8542 158.78 66.4636C159.171 66.0731 159.171 65.44 158.78 65.0494L152.416 58.6855ZM151.709 162.796H152.709V59.3926H151.709H150.709V162.796H151.709Z" fill="#8E8C99"/>
<path d="M144.871 111.443C144.871 105.921 149.348 101.443 154.871 101.443H180.871C186.394 101.443 190.871 105.921 190.871 111.443V111.443C190.871 116.966 186.394 121.443 180.871 121.443H154.871C149.348 121.443 144.871 116.966 144.871 111.443V111.443Z" fill="#8E8C99"/>
<path d="M158.785 110.808V112.065H154.703V110.808H158.785ZM155.181 107.623V115.443H153.569V107.623H155.181ZM159.934 107.623V115.443H158.328V107.623H159.934ZM167.804 111.351V111.721C167.804 112.316 167.723 112.849 167.562 113.322C167.401 113.794 167.174 114.197 166.88 114.53C166.586 114.86 166.235 115.112 165.827 115.288C165.423 115.463 164.973 115.551 164.479 115.551C163.988 115.551 163.539 115.463 163.131 115.288C162.726 115.112 162.375 114.86 162.078 114.53C161.781 114.197 161.55 113.794 161.385 113.322C161.224 112.849 161.144 112.316 161.144 111.721V111.351C161.144 110.753 161.224 110.219 161.385 109.75C161.546 109.277 161.774 108.875 162.067 108.542C162.365 108.208 162.716 107.954 163.12 107.779C163.528 107.603 163.978 107.516 164.468 107.516C164.962 107.516 165.412 107.603 165.816 107.779C166.225 107.954 166.576 108.208 166.869 108.542C167.166 108.875 167.396 109.277 167.557 109.75C167.721 110.219 167.804 110.753 167.804 111.351ZM166.176 111.721V111.34C166.176 110.924 166.139 110.559 166.064 110.244C165.988 109.929 165.877 109.664 165.731 109.449C165.584 109.234 165.405 109.073 165.193 108.966C164.982 108.855 164.74 108.799 164.468 108.799C164.196 108.799 163.954 108.855 163.743 108.966C163.536 109.073 163.358 109.234 163.211 109.449C163.068 109.664 162.959 109.929 162.884 110.244C162.809 110.559 162.771 110.924 162.771 111.34V111.721C162.771 112.133 162.809 112.498 162.884 112.817C162.959 113.132 163.07 113.399 163.217 113.617C163.364 113.832 163.543 113.995 163.754 114.106C163.965 114.217 164.207 114.272 164.479 114.272C164.751 114.272 164.993 114.217 165.204 114.106C165.415 113.995 165.593 113.832 165.736 113.617C165.879 113.399 165.988 113.132 166.064 112.817C166.139 112.498 166.176 112.133 166.176 111.721ZM173.079 113.397C173.079 113.257 173.058 113.132 173.015 113.021C172.975 112.906 172.9 112.803 172.789 112.709C172.678 112.613 172.522 112.518 172.322 112.425C172.121 112.332 171.862 112.235 171.543 112.135C171.189 112.02 170.852 111.891 170.533 111.748C170.218 111.605 169.939 111.438 169.695 111.249C169.456 111.055 169.266 110.831 169.126 110.577C168.99 110.323 168.922 110.028 168.922 109.691C168.922 109.365 168.994 109.07 169.137 108.805C169.28 108.536 169.481 108.307 169.738 108.117C169.996 107.924 170.301 107.775 170.651 107.671C171.006 107.568 171.394 107.516 171.817 107.516C172.394 107.516 172.897 107.619 173.326 107.827C173.756 108.035 174.089 108.319 174.325 108.681C174.565 109.043 174.685 109.456 174.685 109.922H173.085C173.085 109.693 173.036 109.492 172.94 109.32C172.846 109.145 172.703 109.007 172.51 108.907C172.32 108.806 172.08 108.756 171.79 108.756C171.511 108.756 171.278 108.799 171.092 108.885C170.906 108.968 170.766 109.08 170.673 109.224C170.58 109.363 170.533 109.521 170.533 109.696C170.533 109.829 170.566 109.949 170.63 110.056C170.698 110.164 170.798 110.264 170.931 110.357C171.063 110.45 171.226 110.538 171.42 110.62C171.613 110.702 171.837 110.783 172.091 110.862C172.517 110.991 172.891 111.136 173.213 111.297C173.539 111.458 173.811 111.639 174.03 111.839C174.248 112.04 174.413 112.267 174.524 112.521C174.635 112.776 174.691 113.064 174.691 113.386C174.691 113.726 174.624 114.031 174.492 114.299C174.359 114.568 174.168 114.795 173.917 114.981C173.666 115.168 173.367 115.309 173.02 115.406C172.673 115.502 172.284 115.551 171.855 115.551C171.468 115.551 171.087 115.501 170.711 115.4C170.335 115.297 169.993 115.141 169.685 114.933C169.38 114.725 169.137 114.46 168.954 114.138C168.772 113.816 168.68 113.435 168.68 112.994H170.297C170.297 113.238 170.335 113.444 170.41 113.612C170.485 113.78 170.591 113.916 170.727 114.02C170.866 114.124 171.031 114.199 171.221 114.246C171.414 114.292 171.625 114.315 171.855 114.315C172.134 114.315 172.363 114.276 172.542 114.197C172.725 114.118 172.859 114.009 172.945 113.87C173.034 113.73 173.079 113.572 173.079 113.397ZM179.327 107.623V115.443H177.721V107.623H179.327ZM181.733 107.623V108.885H175.352V107.623H181.733Z" fill="#FFFEFF"/>
<g clip-path="url(#clip2_28400_29921)">
<path d="M60.3477 45.1934H43.3477C38.239 45.1934 34.0977 49.3347 34.0977 54.4434C34.0977 59.552 38.239 63.6934 43.3477 63.6934H60.3477C65.4563 63.6934 69.5977 59.552 69.5977 54.4434C69.5977 49.3347 65.4563 45.1934 60.3477 45.1934Z" fill="white"/>
<path d="M60.3477 45.1934H43.3477C38.239 45.1934 34.0977 49.3347 34.0977 54.4434C34.0977 59.552 38.239 63.6934 43.3477 63.6934H60.3477C65.4563 63.6934 69.5977 59.552 69.5977 54.4434C69.5977 49.3347 65.4563 45.1934 60.3477 45.1934Z" stroke="#8E8C99" stroke-width="1.5" stroke-dasharray="2 2"/>
<path d="M45.2104 56.0425V50.623H46.8164V56.0425C46.8164 56.5653 46.7018 57.0147 46.4726 57.3907C46.2435 57.7631 45.9301 58.0495 45.5327 58.25C45.1388 58.4506 44.6948 58.5508 44.2007 58.5508C43.6886 58.5508 43.2357 58.4649 42.8418 58.293C42.4479 58.1211 42.1382 57.858 41.9126 57.5035C41.687 57.1454 41.5742 56.6924 41.5742 56.1446H43.1909C43.1909 56.431 43.2303 56.6584 43.3091 56.8267C43.3914 56.995 43.5078 57.1149 43.6582 57.1866C43.8086 57.2582 43.9894 57.294 44.2007 57.294C44.4048 57.294 44.582 57.2456 44.7324 57.149C44.8828 57.0523 44.9992 56.9108 45.0815 56.7246C45.1674 56.5385 45.2104 56.3111 45.2104 56.0425ZM54.6592 54.3506V54.7212C54.6592 55.3156 54.5786 55.8492 54.4175 56.3218C54.2564 56.7945 54.029 57.1973 53.7354 57.5303C53.4418 57.8597 53.0908 58.1122 52.6826 58.2876C52.278 58.4631 51.8286 58.5508 51.3345 58.5508C50.8439 58.5508 50.3946 58.4631 49.9864 58.2876C49.5817 58.1122 49.2308 57.8597 48.9336 57.5303C48.6364 57.1973 48.4055 56.7945 48.2407 56.3218C48.0796 55.8492 47.999 55.3156 47.999 54.7212V54.3506C47.999 53.7526 48.0796 53.2191 48.2407 52.75C48.4019 52.2773 48.6293 51.8745 48.9229 51.5415C49.2201 51.2085 49.571 50.9543 49.9756 50.7788C50.3838 50.6033 50.8332 50.5156 51.3238 50.5156C51.8179 50.5156 52.2673 50.6033 52.6719 50.7788C53.0801 50.9543 53.431 51.2085 53.7246 51.5415C54.0218 51.8745 54.251 52.2773 54.4121 52.75C54.5768 53.2191 54.6592 53.7526 54.6592 54.3506ZM53.0318 54.7212V54.3398C53.0318 53.9245 52.9942 53.5592 52.919 53.2441C52.8438 52.929 52.7328 52.6641 52.586 52.4492C52.4391 52.2344 52.2601 52.0732 52.0489 51.9658C51.8376 51.8548 51.5959 51.7993 51.3238 51.7993C51.0516 51.7993 50.8099 51.8548 50.5987 51.9658C50.391 52.0732 50.2137 52.2344 50.0669 52.4492C49.9237 52.6641 49.8145 52.929 49.7393 53.2441C49.6641 53.5592 49.6265 53.9245 49.6265 54.3398V54.7212C49.6265 55.133 49.6641 55.4983 49.7393 55.8169C49.8145 56.132 49.9255 56.3988 50.0723 56.6172C50.2191 56.8321 50.3981 56.995 50.6094 57.106C50.8207 57.217 51.0624 57.2725 51.3345 57.2725C51.6066 57.2725 51.8483 57.217 52.0596 57.106C52.2709 56.995 52.4481 56.8321 52.5913 56.6172C52.7346 56.3988 52.8438 56.132 52.919 55.8169C52.9942 55.4983 53.0318 55.133 53.0318 54.7212ZM58.9249 55.0113H56.9161L56.9054 53.9048H58.5919C58.8891 53.9048 59.1326 53.8672 59.3223 53.792C59.5121 53.7132 59.6536 53.6004 59.7467 53.4536C59.8433 53.3032 59.8917 53.1206 59.8917 52.9058C59.8917 52.6623 59.8451 52.4653 59.752 52.3149C59.6625 52.1645 59.5211 52.0553 59.3277 51.9873C59.1379 51.9193 58.8927 51.8852 58.5919 51.8852H57.4747V58.4434H55.8634V50.623H58.5919C59.0466 50.623 59.453 50.666 59.8111 50.7519C60.1728 50.8379 60.4789 50.9686 60.7296 51.144C60.9802 51.3195 61.1718 51.5415 61.3043 51.8101C61.4368 52.075 61.503 52.3901 61.503 52.7554C61.503 53.0776 61.4296 53.3748 61.2828 53.647C61.1396 53.9191 60.9122 54.1411 60.6007 54.313C60.2927 54.4849 59.8899 54.5798 59.3922 54.5977L58.9249 55.0113ZM58.8551 58.4434H56.4757L57.1041 57.1866H58.8551C59.1379 57.1866 59.3689 57.1418 59.5479 57.0523C59.727 56.9592 59.8595 56.8339 59.9454 56.6763C60.0313 56.5188 60.0743 56.3379 60.0743 56.1338C60.0743 55.9047 60.0349 55.7059 59.9561 55.5376C59.8809 55.3693 59.7592 55.2404 59.5909 55.1509C59.4226 55.0578 59.2006 55.0113 58.9249 55.0113H57.3726L57.3834 53.9048H59.317L59.6876 54.3398C60.1638 54.3327 60.547 54.4168 60.837 54.5923C61.1306 54.7642 61.3437 54.988 61.4762 55.2637C61.6122 55.5394 61.6803 55.8348 61.6803 56.1499C61.6803 56.6512 61.571 57.0738 61.3526 57.4175C61.1342 57.7577 60.8137 58.0137 60.3912 58.1856C59.9722 58.3575 59.4602 58.4434 58.8551 58.4434Z" fill="#65636D"/>
</g>
<rect x="118.121" y="45.1934" width="36.5" height="18.5" rx="9.25" fill="white"/>
<rect x="118.121" y="45.1934" width="36.5" height="18.5" rx="9.25" stroke="#8E8C99" stroke-width="1.5" stroke-dasharray="2 2"/>
<path d="M129.249 51.9604L127.122 58.4434H125.409L128.314 50.623H129.405L129.249 51.9604ZM131.016 58.4434L128.884 51.9604L128.712 50.623H129.813L132.735 58.4434H131.016ZM130.919 55.5322V56.7944H126.789V55.5322H130.919ZM136.549 55.6558H134.557V54.3989H136.549C136.857 54.3989 137.108 54.3488 137.301 54.2485C137.495 54.1447 137.636 54.0015 137.726 53.8188C137.815 53.6362 137.86 53.4303 137.86 53.2012C137.86 52.9684 137.815 52.7518 137.726 52.5513C137.636 52.3507 137.495 52.1896 137.301 52.0679C137.108 51.9461 136.857 51.8853 136.549 51.8853H135.115V58.4434H133.504V50.623H136.549C137.162 50.623 137.686 50.734 138.123 50.9561C138.564 51.1745 138.9 51.4771 139.133 51.8638C139.366 52.2505 139.482 52.6927 139.482 53.1904C139.482 53.6953 139.366 54.1322 139.133 54.501C138.9 54.8698 138.564 55.1545 138.123 55.355C137.686 55.5555 137.162 55.6558 136.549 55.6558ZM143.683 55.6558H141.691V54.3989H143.683C143.991 54.3989 144.242 54.3488 144.435 54.2485C144.629 54.1447 144.77 54.0015 144.859 53.8188C144.949 53.6362 144.994 53.4303 144.994 53.2012C144.994 52.9684 144.949 52.7518 144.859 52.5513C144.77 52.3507 144.629 52.1896 144.435 52.0679C144.242 51.9461 143.991 51.8853 143.683 51.8853H142.249V58.4434H140.638V50.623H143.683C144.296 50.623 144.82 50.734 145.257 50.9561C145.697 51.1745 146.034 51.4771 146.267 51.8638C146.499 52.2505 146.616 52.6927 146.616 53.1904C146.616 53.6953 146.499 54.1322 146.267 54.501C146.034 54.8698 145.697 55.1545 145.257 55.355C144.82 55.5555 144.296 55.6558 143.683 55.6558Z" fill="#65636D"/>
<rect x="34.0977" y="157.193" width="58.5" height="18.5" rx="9.25" fill="white"/>
<rect x="34.0977" y="157.193" width="58.5" height="18.5" rx="9.25" stroke="#8E8C99" stroke-width="1.5" stroke-dasharray="2 2"/>
<path d="M48.4697 166.351V166.721C48.4697 167.316 48.3892 167.849 48.228 168.322C48.0669 168.794 47.8395 169.197 47.5459 169.53C47.2523 169.86 46.9014 170.112 46.4932 170.288C46.0885 170.463 45.6392 170.551 45.145 170.551C44.6545 170.551 44.2051 170.463 43.7969 170.288C43.3923 170.112 43.0413 169.86 42.7441 169.53C42.4469 169.197 42.216 168.794 42.0513 168.322C41.8901 167.849 41.8096 167.316 41.8096 166.721V166.351C41.8096 165.753 41.8901 165.219 42.0513 164.75C42.2124 164.277 42.4398 163.875 42.7334 163.542C43.0306 163.208 43.3815 162.954 43.7861 162.779C44.1943 162.603 44.6437 162.516 45.1343 162.516C45.6284 162.516 46.0778 162.603 46.4824 162.779C46.8906 162.954 47.2415 163.208 47.5352 163.542C47.8324 163.875 48.0615 164.277 48.2227 164.75C48.3874 165.219 48.4697 165.753 48.4697 166.351ZM46.8423 166.721V166.34C46.8423 165.924 46.8047 165.559 46.7295 165.244C46.6543 164.929 46.5433 164.664 46.3965 164.449C46.2497 164.234 46.0706 164.073 45.8594 163.966C45.6481 163.855 45.4064 163.799 45.1343 163.799C44.8621 163.799 44.6204 163.855 44.4092 163.966C44.2015 164.073 44.0243 164.234 43.8774 164.449C43.7342 164.664 43.625 164.929 43.5498 165.244C43.4746 165.559 43.437 165.924 43.437 166.34V166.721C43.437 167.133 43.4746 167.498 43.5498 167.817C43.625 168.132 43.736 168.399 43.8828 168.617C44.0296 168.832 44.2087 168.995 44.4199 169.106C44.6312 169.217 44.8729 169.272 45.145 169.272C45.4172 169.272 45.6589 169.217 45.8701 169.106C46.0814 168.995 46.2586 168.832 46.4019 168.617C46.5451 168.399 46.6543 168.132 46.7295 167.817C46.8047 167.498 46.8423 167.133 46.8423 166.721ZM53.9922 162.623H55.5982V167.79C55.5982 168.392 55.4693 168.898 55.2115 169.31C54.9572 169.722 54.6045 170.032 54.1534 170.239C53.7058 170.447 53.1902 170.551 52.6065 170.551C52.0228 170.551 51.5036 170.447 51.0489 170.239C50.5977 170.032 50.2432 169.722 49.9854 169.31C49.7312 168.898 49.6041 168.392 49.6041 167.79V162.623H51.2154V167.79C51.2154 168.141 51.2709 168.427 51.3819 168.649C51.4929 168.871 51.6522 169.034 51.8599 169.138C52.0712 169.242 52.32 169.294 52.6065 169.294C52.9001 169.294 53.149 169.242 53.3531 169.138C53.5608 169.034 53.7183 168.871 53.8257 168.649C53.9367 168.427 53.9922 168.141 53.9922 167.79V162.623ZM60.4654 162.623V170.443H58.8595V162.623H60.4654ZM62.8717 162.623V163.885H56.4908V162.623H62.8717ZM66.8796 167.656H64.8869V166.399H66.8796C67.1875 166.399 67.4382 166.349 67.6315 166.249C67.8249 166.145 67.9663 166.001 68.0558 165.819C68.1453 165.636 68.1901 165.43 68.1901 165.201C68.1901 164.968 68.1453 164.752 68.0558 164.551C67.9663 164.351 67.8249 164.19 67.6315 164.068C67.4382 163.946 67.1875 163.885 66.8796 163.885H65.4455V170.443H63.8341V162.623H66.8796C67.4919 162.623 68.0164 162.734 68.4533 162.956C68.8937 163.174 69.2303 163.477 69.4631 163.864C69.6958 164.25 69.8122 164.693 69.8122 165.19C69.8122 165.695 69.6958 166.132 69.4631 166.501C69.2303 166.87 68.8937 167.154 68.4533 167.355C68.0164 167.556 67.4919 167.656 66.8796 167.656ZM75.2864 162.623H76.8923V167.79C76.8923 168.392 76.7634 168.898 76.5056 169.31C76.2514 169.722 75.8987 170.032 75.4475 170.239C74.9999 170.447 74.4843 170.551 73.9006 170.551C73.317 170.551 72.7977 170.447 72.343 170.239C71.8918 170.032 71.5373 169.722 71.2795 169.31C71.0253 168.898 70.8982 168.392 70.8982 167.79V162.623H72.5095V167.79C72.5095 168.141 72.565 168.427 72.676 168.649C72.787 168.871 72.9463 169.034 73.154 169.138C73.3653 169.242 73.6142 169.294 73.9006 169.294C74.1942 169.294 74.4431 169.242 74.6472 169.138C74.8549 169.034 75.0124 168.871 75.1198 168.649C75.2309 168.427 75.2864 168.141 75.2864 167.79V162.623ZM81.7596 162.623V170.443H80.1536V162.623H81.7596ZM84.1658 162.623V163.885H77.7849V162.623H84.1658Z" fill="#65636D"/>
<defs>
<filter id="filter0_dd_28400_29921" x="5.13792e-05" y="3.18028" width="59.5878" height="62.643" filterUnits="userSpaceOnUse" color-interpolation-filters="sRGB">
<feFlood flood-opacity="0" result="BackgroundImageFix"/>
<feColorMatrix in="SourceAlpha" type="matrix" values="0 0 0 0 0 0 0 0 0 0 0 0 0 0 0 0 0 0 127 0" result="hardAlpha"/>
<feMorphology radius="0.763944" operator="erode" in="SourceAlpha" result="effect1_dropShadow_28400_29921"/>
<feOffset dy="1.52789"/>
<feGaussianBlur stdDeviation="3.05577"/>
<feColorMatrix type="matrix" values="0 0 0 0 0.105882 0 0 0 0 0.141176 0 0 0 0 0.172549 0 0 0 0.08 0"/>
<feBlend mode="normal" in2="BackgroundImageFix" result="effect1_dropShadow_28400_29921"/>
<feColorMatrix in="SourceAlpha" type="matrix" values="0 0 0 0 0 0 0 0 0 0 0 0 0 0 0 0 0 0 127 0" result="hardAlpha"/>
<feMorphology radius="0.763944" operator="erode" in="SourceAlpha" result="effect2_dropShadow_28400_29921"/>
<feOffset dy="1.52789"/>
<feGaussianBlur stdDeviation="0.763944"/>
<feComposite in2="hardAlpha" operator="out"/>
<feColorMatrix type="matrix" values="0 0 0 0 0.105882 0 0 0 0 0.141176 0 0 0 0 0.172549 0 0 0 0.04 0"/>
<feBlend mode="normal" in2="effect1_dropShadow_28400_29921" result="effect2_dropShadow_28400_29921"/>
<feBlend mode="normal" in="SourceGraphic" in2="effect2_dropShadow_28400_29921" result="shape"/>
</filter>
<filter id="filter1_dd_28400_29921" x="121.916" y="3.18028" width="59.5878" height="59.5878" filterUnits="userSpaceOnUse" color-interpolation-filters="sRGB">
<feFlood flood-opacity="0" result="BackgroundImageFix"/>
<feColorMatrix in="SourceAlpha" type="matrix" values="0 0 0 0 0 0 0 0 0 0 0 0 0 0 0 0 0 0 127 0" result="hardAlpha"/>
<feMorphology radius="0.763944" operator="erode" in="SourceAlpha" result="effect1_dropShadow_28400_29921"/>
<feOffset dy="1.52789"/>
<feGaussianBlur stdDeviation="3.05577"/>
<feColorMatrix type="matrix" values="0 0 0 0 0.105882 0 0 0 0 0.141176 0 0 0 0 0.172549 0 0 0 0.08 0"/>
<feBlend mode="normal" in2="BackgroundImageFix" result="effect1_dropShadow_28400_29921"/>
<feColorMatrix in="SourceAlpha" type="matrix" values="0 0 0 0 0 0 0 0 0 0 0 0 0 0 0 0 0 0 127 0" result="hardAlpha"/>
<feMorphology radius="0.763944" operator="erode" in="SourceAlpha" result="effect2_dropShadow_28400_29921"/>
<feOffset dy="1.52789"/>
<feGaussianBlur stdDeviation="0.763944"/>
<feComposite in2="hardAlpha" operator="out"/>
<feColorMatrix type="matrix" values="0 0 0 0 0.105882 0 0 0 0 0.141176 0 0 0 0 0.172549 0 0 0 0.04 0"/>
<feBlend mode="normal" in2="effect1_dropShadow_28400_29921" result="effect2_dropShadow_28400_29921"/>
<feBlend mode="normal" in="SourceGraphic" in2="effect2_dropShadow_28400_29921" result="shape"/>
</filter>
<filter id="filter2_dd_28400_29921" x="5.13792e-05" y="162.476" width="62.7519" height="59.5878" filterUnits="userSpaceOnUse" color-interpolation-filters="sRGB">
<feFlood flood-opacity="0" result="BackgroundImageFix"/>
<feColorMatrix in="SourceAlpha" type="matrix" values="0 0 0 0 0 0 0 0 0 0 0 0 0 0 0 0 0 0 127 0" result="hardAlpha"/>
<feMorphology radius="0.763944" operator="erode" in="SourceAlpha" result="effect1_dropShadow_28400_29921"/>
<feOffset dy="1.52789"/>
<feGaussianBlur stdDeviation="3.05577"/>
<feColorMatrix type="matrix" values="0 0 0 0 0.105882 0 0 0 0 0.141176 0 0 0 0 0.172549 0 0 0 0.08 0"/>
<feBlend mode="normal" in2="BackgroundImageFix" result="effect1_dropShadow_28400_29921"/>
<feColorMatrix in="SourceAlpha" type="matrix" values="0 0 0 0 0 0 0 0 0 0 0 0 0 0 0 0 0 0 127 0" result="hardAlpha"/>
<feMorphology radius="0.763944" operator="erode" in="SourceAlpha" result="effect2_dropShadow_28400_29921"/>
<feOffset dy="1.52789"/>
<feGaussianBlur stdDeviation="0.763944"/>
<feComposite in2="hardAlpha" operator="out"/>
<feColorMatrix type="matrix" values="0 0 0 0 0.105882 0 0 0 0 0.141176 0 0 0 0 0.172549 0 0 0 0.04 0"/>
<feBlend mode="normal" in2="effect1_dropShadow_28400_29921" result="effect2_dropShadow_28400_29921"/>
<feBlend mode="normal" in="SourceGraphic" in2="effect2_dropShadow_28400_29921" result="shape"/>
</filter>
<filter id="filter3_dd_28400_29921" x="121.916" y="159.421" width="59.5878" height="62.6435" filterUnits="userSpaceOnUse" color-interpolation-filters="sRGB">
<feFlood flood-opacity="0" result="BackgroundImageFix"/>
<feColorMatrix in="SourceAlpha" type="matrix" values="0 0 0 0 0 0 0 0 0 0 0 0 0 0 0 0 0 0 127 0" result="hardAlpha"/>
<feMorphology radius="0.763944" operator="erode" in="SourceAlpha" result="effect1_dropShadow_28400_29921"/>
<feOffset dy="1.52789"/>
<feGaussianBlur stdDeviation="3.05577"/>
<feColorMatrix type="matrix" values="0 0 0 0 0.105882 0 0 0 0 0.141176 0 0 0 0 0.172549 0 0 0 0.08 0"/>
<feBlend mode="normal" in2="BackgroundImageFix" result="effect1_dropShadow_28400_29921"/>
<feColorMatrix in="SourceAlpha" type="matrix" values="0 0 0 0 0 0 0 0 0 0 0 0 0 0 0 0 0 0 127 0" result="hardAlpha"/>
<feMorphology radius="0.763944" operator="erode" in="SourceAlpha" result="effect2_dropShadow_28400_29921"/>
<feOffset dy="1.52789"/>
<feGaussianBlur stdDeviation="0.763944"/>
<feComposite in2="hardAlpha" operator="out"/>
<feColorMatrix type="matrix" values="0 0 0 0 0.105882 0 0 0 0 0.141176 0 0 0 0 0.172549 0 0 0 0.04 0"/>
<feBlend mode="normal" in2="effect1_dropShadow_28400_29921" result="effect2_dropShadow_28400_29921"/>
<feBlend mode="normal" in="SourceGraphic" in2="effect2_dropShadow_28400_29921" result="shape"/>
</filter>
<clipPath id="clip0_28400_29921">
<rect width="36.6693" height="36.6693" fill="white" transform="translate(11.459 13.1113)"/>
</clipPath>
<clipPath id="clip1_28400_29921">
<rect width="36.6693" height="36.6693" fill="white" transform="translate(133.375 13.1113)"/>
</clipPath>
<clipPath id="clip2_28400_29921">
<rect width="37" height="20" fill="white" transform="translate(33.3477 44.4434)"/>
</clipPath>
</defs>
</svg>
