<svg width="188" height="223" viewBox="0 0 188 223" fill="none" xmlns="http://www.w3.org/2000/svg">
<g filter="url(#filter0_dd_28400_29266)">
<path d="M54.3485 24.8887C56.0362 24.8887 57.4043 26.2568 57.4043 27.9444L57.4043 34.056C57.4043 35.7436 56.0362 37.1118 54.3485 37.1118V37.1118C52.6609 37.1118 51.2927 35.7437 51.2927 34.056L51.2927 27.9444C51.2927 26.2568 52.6609 24.8887 54.3485 24.8887V24.8887Z" fill="#8E8C99"/>
<path d="M11.3477 7.5H48.2402C51.2777 7.5001 53.7402 9.9625 53.7402 13V49.8926C53.7401 52.93 51.2777 55.3925 48.2402 55.3926H11.3477C8.31015 55.3926 5.84776 52.9301 5.84766 49.8926V13C5.84766 9.96244 8.31009 7.5 11.3477 7.5Z" fill="#FFFEFF"/>
<path d="M11.3477 7.5H48.2402C51.2777 7.5001 53.7402 9.9625 53.7402 13V49.8926C53.7401 52.93 51.2777 55.3925 48.2402 55.3926H11.3477C8.31015 55.3926 5.84776 52.9301 5.84766 49.8926V13C5.84766 9.96244 8.31009 7.5 11.3477 7.5Z" stroke="#DBD8E0"/>
<g clip-path="url(#clip0_28400_29266)">
<path d="M29.6705 14.151C29.3553 14.1669 29.0465 14.245 28.7622 14.3809L16.3668 20.3035C16.046 20.4567 15.7641 20.6796 15.5421 20.9557C15.3201 21.2318 15.1636 21.554 15.0844 21.8983L12.0263 35.202C11.9557 35.5085 11.9478 35.826 12.0031 36.1356C12.0584 36.4452 12.1757 36.7406 12.3482 37.0044C12.39 37.069 12.4349 37.1314 12.4829 37.1915L21.0625 47.8588C21.2845 48.1349 21.5664 48.3577 21.8873 48.5109C22.2081 48.664 22.5596 48.7435 22.9156 48.7435L36.6743 48.7403C37.0302 48.7406 37.3816 48.6613 37.7025 48.5085C38.0233 48.3556 38.3053 48.1331 38.5275 47.8573L47.1039 37.1883C47.3261 36.9122 47.4827 36.5899 47.562 36.2454C47.6413 35.901 47.6413 35.5432 47.562 35.1988L44.4993 21.8951C44.4201 21.5508 44.2636 21.2287 44.0416 20.9526C43.8196 20.6765 43.5377 20.4535 43.2169 20.3003L30.8199 14.3808C30.4622 14.21 30.067 14.1309 29.6705 14.151Z" fill="#326CE5"/>
<path d="M29.7932 18.6782C29.3835 18.6783 29.0512 19.0473 29.0513 19.5026C29.0513 19.5096 29.0527 19.5163 29.0528 19.5232C29.0523 19.5851 29.0493 19.6596 29.0513 19.7134C29.061 19.976 29.1182 20.177 29.1527 20.4189C29.2151 20.9366 29.2674 21.3658 29.2352 21.7648C29.2037 21.9152 29.093 22.0528 28.9942 22.1484L28.9768 22.4623C28.5254 22.4995 28.0773 22.5683 27.6356 22.6684C25.7092 23.1058 24.0506 24.0981 22.7878 25.4379C22.6977 25.3756 22.6084 25.3122 22.5199 25.2476C22.3874 25.2655 22.2536 25.3064 22.0792 25.2048C21.7472 24.9814 21.4448 24.6729 21.0789 24.3012C20.9112 24.1235 20.7898 23.9542 20.5906 23.7828C20.5454 23.7439 20.4764 23.6913 20.4257 23.6512C20.27 23.5271 20.0863 23.4623 19.9089 23.4563C19.6809 23.4485 19.4613 23.5377 19.3177 23.7179C19.0622 24.0382 19.144 24.5279 19.4999 24.8117C19.5035 24.8146 19.5074 24.8168 19.511 24.8196C19.5599 24.8593 19.6198 24.9101 19.6648 24.9433C19.8762 25.0994 20.0693 25.1793 20.2799 25.3031C20.7236 25.5772 21.0915 25.8043 21.3832 26.0783C21.4972 26.1998 21.5171 26.4138 21.5323 26.5064L21.77 26.7188C20.4971 28.6345 19.9079 31.0008 20.2561 33.4119L19.9454 33.5022C19.8635 33.608 19.7478 33.7744 19.6267 33.824C19.245 33.9443 18.8154 33.9884 18.2967 34.0428C18.0532 34.0631 17.8431 34.051 17.5849 34.0999C17.5281 34.1106 17.4489 34.1313 17.3867 34.1458L17.3804 34.1474C17.377 34.1482 17.3725 34.1499 17.3693 34.1506C16.932 34.2563 16.6511 34.6582 16.7415 35.0542C16.832 35.4503 17.2591 35.6912 17.699 35.5964C17.7022 35.5957 17.7068 35.5955 17.7101 35.5948C17.7151 35.5937 17.7195 35.5912 17.7244 35.59C17.7858 35.5766 17.8626 35.5616 17.9163 35.5473C18.1701 35.4793 18.3538 35.3794 18.5821 35.292C19.0729 35.116 19.4795 34.9688 19.8757 34.9115C20.041 34.8986 20.2154 35.0136 20.3021 35.0621L20.6255 35.0066C21.3697 37.3139 22.9293 39.1788 24.9042 40.3491L24.7694 40.6725C24.818 40.798 24.8716 40.9679 24.8353 41.092C24.6914 41.4654 24.4447 41.8595 24.1638 42.2989C24.0278 42.502 23.8886 42.6595 23.7659 42.8919C23.7366 42.9475 23.6992 43.0329 23.6708 43.0916C23.4801 43.4996 23.62 43.9694 23.9863 44.1458C24.3549 44.3232 24.8124 44.1361 25.0104 43.7273C25.0107 43.7267 25.0117 43.7263 25.0119 43.7257C25.0121 43.7252 25.0117 43.7246 25.0119 43.7242C25.0401 43.6662 25.0801 43.59 25.1039 43.5355C25.209 43.2947 25.244 43.0883 25.3179 42.8554C25.5143 42.3623 25.6221 41.8449 25.8923 41.5225C25.9663 41.4343 26.0869 41.4003 26.212 41.3668L26.38 41.0624C28.1017 41.7233 30.0288 41.9006 31.9539 41.4635C32.3866 41.3651 32.8119 41.2369 33.2269 41.0799C33.2741 41.1636 33.3619 41.3247 33.3854 41.3652C33.5126 41.4066 33.6512 41.4279 33.7643 41.5951C33.9665 41.9405 34.1047 42.3492 34.2732 42.8427C34.3471 43.0756 34.3837 43.282 34.4888 43.5228C34.5127 43.5777 34.5525 43.6549 34.5807 43.713C34.7783 44.1232 35.2373 44.311 35.6064 44.1332C35.9727 43.9567 36.1127 43.4869 35.9219 43.0789C35.8935 43.0202 35.8546 42.9348 35.8252 42.8792C35.7024 42.6468 35.5633 42.4908 35.4273 42.2879C35.1464 41.8485 34.9134 41.4834 34.7694 41.11C34.7092 40.9174 34.7795 40.7976 34.8264 40.6725C34.7983 40.6403 34.7382 40.4584 34.7028 40.3729C36.7552 39.161 38.269 37.2265 38.9799 34.9924C39.0759 35.0075 39.2428 35.037 39.2969 35.0479C39.4085 34.9743 39.5111 34.8782 39.7123 34.8941C40.1084 34.9514 40.515 35.0986 41.0059 35.2746C41.2341 35.362 41.4179 35.4635 41.6717 35.5314C41.7253 35.5457 41.8022 35.5591 41.8635 35.5726C41.8684 35.5738 41.8728 35.5762 41.8778 35.5773C41.8811 35.5781 41.8857 35.5782 41.8889 35.579C42.3288 35.6736 42.756 35.4329 42.8464 35.0368C42.9367 34.6407 42.656 34.2387 42.2186 34.1332C42.155 34.1187 42.0648 34.0941 42.003 34.0825C41.7448 34.0336 41.5347 34.0456 41.2912 34.0254C40.7725 33.971 40.3429 33.9268 39.9612 33.8066C39.8055 33.7462 39.6948 33.561 39.6409 33.4848L39.3413 33.3976C39.4967 32.2737 39.4548 31.1041 39.186 29.9337C38.9146 28.7526 38.4352 27.6722 37.7957 26.7204C37.8725 26.6505 38.0177 26.522 38.0588 26.4842C38.0709 26.351 38.0605 26.2115 38.1983 26.0641C38.4901 25.7901 38.858 25.5629 39.3017 25.2889C39.5123 25.1649 39.707 25.0851 39.9184 24.929C39.9662 24.8937 40.0315 24.8378 40.0817 24.7974C40.4375 24.5135 40.5195 24.0239 40.264 23.7036C40.0085 23.3833 39.5133 23.3531 39.1574 23.637C39.1068 23.6771 39.0381 23.7295 38.9926 23.7686C38.7934 23.9399 38.6704 24.1092 38.5027 24.287C38.1368 24.6586 37.8344 24.9687 37.5024 25.1922C37.3585 25.2759 37.1478 25.247 37.0522 25.2413L36.77 25.4426C35.1609 23.7554 32.9702 22.6766 30.6112 22.4671C30.6046 22.3682 30.596 22.1895 30.5938 22.1357C30.4972 22.0433 30.3805 21.9645 30.3512 21.7648C30.3189 21.3658 30.3728 20.9366 30.4352 20.4189C30.4697 20.177 30.5269 19.976 30.5367 19.7134C30.5389 19.6537 30.5353 19.5671 30.5351 19.5026C30.5351 19.0473 30.2029 18.6782 29.7932 18.6782ZM28.8642 24.4328L28.6438 28.3247L28.628 28.3326C28.6132 28.6808 28.3267 28.9588 27.9749 28.9588C27.8307 28.9588 27.6977 28.9125 27.5896 28.8336L27.5833 28.8367L24.3921 26.5745C25.3729 25.6101 26.6274 24.8974 28.0731 24.5692C28.3343 24.5102 28.5983 24.4647 28.8642 24.4328ZM30.7237 24.4328C32.4117 24.6404 33.9727 25.4047 35.1689 26.5761L31.9983 28.824L31.9872 28.8193C31.7058 29.0248 31.3093 28.9738 31.0899 28.6988C31.0032 28.5909 30.9533 28.4582 30.9473 28.3199L30.9441 28.3184L30.7237 24.4328ZM23.2348 28.0282L26.1486 30.6345L26.1454 30.6503C26.4085 30.8789 26.4473 31.2757 26.2279 31.5507C26.1414 31.6593 26.0226 31.7376 25.8886 31.7742L25.8854 31.7869L22.1505 32.8649C21.9604 31.1267 22.3701 29.437 23.2348 28.0282ZM36.3309 28.0298C36.7638 28.7315 37.0916 29.5153 37.2868 30.3649C37.4796 31.2044 37.528 32.0424 37.4485 32.8522L33.6946 31.7711L33.6914 31.7552C33.3552 31.6634 33.1486 31.3214 33.2269 30.9784C33.2573 30.8435 33.3301 30.7219 33.4346 30.6313L33.433 30.6233L36.3309 28.0298V28.0298ZM29.1955 30.8357H30.3893L31.1312 31.7632L30.8649 32.9204L29.7932 33.4356L28.7184 32.9188L28.452 31.7616L29.1955 30.8357ZM33.0224 34.0095C33.0731 34.007 33.1236 34.0115 33.173 34.0206L33.1794 34.0127L37.0427 34.6658C36.4773 36.2543 35.3954 37.6304 33.9498 38.5513L32.4501 34.929L32.4549 34.9226C32.3171 34.6025 32.455 34.2271 32.7719 34.0745C32.8531 34.0354 32.9378 34.0138 33.0224 34.0095ZM26.5339 34.0253C26.8286 34.0295 27.0931 34.2341 27.1616 34.5342C27.1937 34.6748 27.1781 34.8139 27.1251 34.9369L27.1363 34.9511L25.6524 38.5371C24.2651 37.6468 23.1601 36.3139 22.569 34.6785L26.3991 34.0285L26.4054 34.0364C26.4483 34.0286 26.4917 34.0248 26.5339 34.0253ZM29.7694 35.5964C29.8751 35.5927 29.9802 35.615 30.0754 35.6613C30.2052 35.7239 30.3055 35.8224 30.3686 35.9404H30.3829L32.271 39.3519C32.0231 39.4347 31.7713 39.5051 31.5164 39.5628C30.0724 39.8906 28.633 39.7913 27.3297 39.3472L29.213 35.942H29.2162C29.2701 35.8411 29.3496 35.756 29.4467 35.6954C29.5438 35.6347 29.655 35.6006 29.7694 35.5964L29.7694 35.5964Z" fill="white" stroke="white" stroke-width="0.14494"/>
</g>
</g>
<g filter="url(#filter1_dd_28400_29266)">
<path d="M133.264 166.797H170.156C173.194 166.797 175.656 169.259 175.656 172.297V209.189C175.656 212.227 173.194 214.689 170.156 214.689H133.264C130.226 214.689 127.764 212.227 127.764 209.189V172.297C127.764 169.259 130.226 166.797 133.264 166.797Z" fill="#FFFEFF"/>
<path d="M133.264 166.797H170.156C173.194 166.797 175.656 169.259 175.656 172.297V209.189C175.656 212.227 173.194 214.689 170.156 214.689H133.264C130.226 214.689 127.764 212.227 127.764 209.189V172.297C127.764 169.259 130.226 166.797 133.264 166.797Z" stroke="#DBD8E0"/>
<path d="M165.088 197.641V202.34C165.088 205.217 158.953 207.55 151.383 207.55C145.78 207.55 140.962 206.272 138.838 204.44C138.092 203.798 137.678 203.087 137.678 202.338V197.641H165.088Z" fill="#7366FF"/>
<path d="M165.09 197.641C165.09 198.958 163.805 200.16 161.687 201.077C159.175 202.165 155.491 202.851 151.385 202.851C143.816 202.851 137.68 200.519 137.68 197.641C137.68 196.826 138.173 196.054 139.052 195.367C140.339 194.36 142.455 193.534 145.063 193.018C146.954 192.643 149.104 192.432 151.384 192.432C153.665 192.432 155.814 192.645 157.707 193.018C159.131 193.3 160.409 193.674 161.484 194.12C162.379 194.49 163.132 194.91 163.717 195.366C164.597 196.054 165.09 196.826 165.09 197.641Z" fill="#A299FF"/>
<path d="M165.089 188.394V193.091C165.089 193.907 164.596 194.679 163.717 195.366C163.192 195.777 162.53 196.157 161.752 196.499C160.711 196.956 159.464 197.343 158.066 197.641C156.089 198.061 153.811 198.303 151.384 198.303C148.958 198.303 146.68 198.063 144.703 197.641C142.261 197.122 140.28 196.326 139.052 195.366C138.175 194.679 137.68 193.907 137.68 193.091V188.394H165.089Z" fill="#7366FF"/>
<path d="M165.089 188.393C165.089 189.761 163.702 191.006 161.432 191.936C160.367 192.372 159.107 192.739 157.706 193.016C155.815 193.391 153.665 193.603 151.384 193.603C149.104 193.603 146.954 193.391 145.063 193.016C140.676 192.148 137.68 190.403 137.68 188.393C137.68 187.575 138.173 186.805 139.052 186.118C140.339 185.111 142.456 184.285 145.063 183.769C146.954 183.395 149.104 183.182 151.384 183.182C153.665 183.182 155.813 183.395 157.706 183.769C159.288 184.08 160.689 184.509 161.833 185.022C162.575 185.354 163.21 185.723 163.716 186.118C164.596 186.805 165.089 187.577 165.089 188.393Z" fill="#A299FF"/>
<path d="M165.089 179.146V183.845C165.089 184.661 164.596 185.432 163.717 186.12C163.037 186.651 162.126 187.132 161.034 187.544C160.067 187.902 159.075 188.186 158.066 188.395C156.089 188.815 153.811 189.055 151.384 189.055C148.958 189.055 146.68 188.815 144.703 188.395C142.261 187.876 140.28 187.08 139.052 186.12C138.175 185.431 137.68 184.659 137.68 183.845V179.146H165.089Z" fill="#7366FF"/>
<path d="M165.089 179.146C165.089 180.509 163.714 181.749 161.462 182.677C160.39 183.118 159.121 183.489 157.706 183.769C155.813 184.144 153.665 184.356 151.384 184.356C149.104 184.356 146.954 184.144 145.063 183.769C140.676 182.901 137.68 181.158 137.68 179.146C137.68 176.269 143.816 173.936 151.385 173.936C152.976 173.933 154.566 174.041 156.142 174.259C161.365 174.994 165.089 176.905 165.089 179.146Z" fill="#A299FF"/>
<path d="M139.773 184.615C140 184.615 140.183 184.432 140.183 184.205C140.183 183.979 140 183.795 139.773 183.795C139.547 183.795 139.363 183.979 139.363 184.205C139.363 184.432 139.547 184.615 139.773 184.615Z" fill="white"/>
<path d="M142.086 185.586C142.312 185.586 142.496 185.402 142.496 185.176C142.496 184.949 142.312 184.766 142.086 184.766C141.859 184.766 141.676 184.949 141.676 185.176C141.676 185.402 141.859 185.586 142.086 185.586Z" fill="white"/>
<path d="M144.402 186.348C144.629 186.348 144.812 186.164 144.812 185.938C144.812 185.711 144.629 185.528 144.402 185.528C144.176 185.528 143.992 185.711 143.992 185.938C143.992 186.164 144.176 186.348 144.402 186.348Z" fill="white"/>
<path d="M139.773 193.901C140 193.901 140.183 193.717 140.183 193.491C140.183 193.264 140 193.081 139.773 193.081C139.547 193.081 139.363 193.264 139.363 193.491C139.363 193.717 139.547 193.901 139.773 193.901Z" fill="white"/>
<path d="M142.086 194.869C142.312 194.869 142.496 194.686 142.496 194.459C142.496 194.233 142.312 194.049 142.086 194.049C141.859 194.049 141.676 194.233 141.676 194.459C141.676 194.686 141.859 194.869 142.086 194.869Z" fill="white"/>
<path d="M144.402 195.632C144.629 195.632 144.812 195.448 144.812 195.222C144.812 194.995 144.629 194.812 144.402 194.812C144.176 194.812 143.992 194.995 143.992 195.222C143.992 195.448 144.176 195.632 144.402 195.632Z" fill="white"/>
<path d="M139.773 203.183C140 203.183 140.183 202.999 140.183 202.773C140.183 202.546 140 202.363 139.773 202.363C139.547 202.363 139.363 202.546 139.363 202.773C139.363 202.999 139.547 203.183 139.773 203.183Z" fill="white"/>
<path d="M142.086 204.153C142.312 204.153 142.496 203.969 142.496 203.743C142.496 203.517 142.312 203.333 142.086 203.333C141.859 203.333 141.676 203.517 141.676 203.743C141.676 203.969 141.859 204.153 142.086 204.153Z" fill="white"/>
<path d="M144.402 204.915C144.629 204.915 144.812 204.732 144.812 204.505C144.812 204.279 144.629 204.095 144.402 204.095C144.176 204.095 143.992 204.279 143.992 204.505C143.992 204.732 144.176 204.915 144.402 204.915Z" fill="white"/>
</g>
<path d="M57.7402 30.4463C57.1879 30.4463 56.7402 30.894 56.7402 31.4463C56.7402 31.9986 57.1879 32.4463 57.7402 32.4463V31.4463V30.4463ZM124.471 191.45C124.861 191.06 124.861 190.427 124.471 190.036L118.107 183.672C117.716 183.282 117.083 183.282 116.693 183.672C116.302 184.063 116.302 184.696 116.693 185.086L122.35 190.743L116.693 196.4C116.302 196.791 116.302 197.424 116.693 197.814C117.083 198.205 117.716 198.205 118.107 197.814L124.471 191.45ZM57.7402 31.4463V32.4463H66.7521V31.4463V30.4463H57.7402V31.4463ZM90.752 55.4463H89.752V166.743H90.752H91.752V55.4463H90.752ZM114.752 190.743V191.743H123.764V190.743V189.743H114.752V190.743ZM90.752 166.743H89.752C89.752 180.55 100.945 191.743 114.752 191.743V190.743V189.743C102.049 189.743 91.752 179.446 91.752 166.743H90.752ZM66.7521 31.4463V32.4463C79.4546 32.4463 89.752 42.7437 89.752 55.4463H90.752H91.752C91.752 41.6392 80.5592 30.4463 66.7521 30.4463V31.4463Z" fill="#8E8C99"/>
<path d="M39.9668 111.443C39.9668 105.921 44.4439 101.443 49.9668 101.443H144.967C150.49 101.443 154.967 105.921 154.967 111.443V111.443C154.967 116.966 150.49 121.443 144.967 121.443H49.9668C44.4439 121.443 39.9668 116.966 39.9668 111.443V111.443Z" fill="#8E8C99"/>
<path d="M53.1982 112.849H54.8042C54.772 113.375 54.627 113.843 54.3691 114.251C54.1149 114.659 53.7586 114.978 53.3003 115.207C52.8455 115.436 52.2977 115.551 51.6567 115.551C51.1554 115.551 50.7061 115.465 50.3086 115.293C49.9111 115.118 49.571 114.867 49.2881 114.541C49.0088 114.215 48.7957 113.821 48.6489 113.359C48.5021 112.897 48.4287 112.38 48.4287 111.807V111.265C48.4287 110.692 48.5039 110.174 48.6543 109.712C48.8083 109.247 49.0267 108.851 49.3096 108.525C49.596 108.2 49.938 107.949 50.3354 107.773C50.7329 107.598 51.1769 107.51 51.6675 107.51C52.3192 107.51 52.8688 107.628 53.3164 107.865C53.7676 108.101 54.1167 108.427 54.3638 108.842C54.6144 109.258 54.7648 109.73 54.8149 110.26H53.2036C53.1857 109.945 53.123 109.678 53.0156 109.46C52.9082 109.238 52.7453 109.071 52.5269 108.96C52.312 108.846 52.0256 108.789 51.6675 108.789C51.3989 108.789 51.1644 108.839 50.9639 108.939C50.7633 109.039 50.5951 109.191 50.459 109.396C50.3229 109.6 50.2209 109.857 50.1528 110.169C50.0884 110.477 50.0562 110.839 50.0562 111.254V111.807C50.0562 112.212 50.0866 112.568 50.1475 112.876C50.2083 113.18 50.3014 113.438 50.4268 113.649C50.5557 113.857 50.7204 114.015 50.9209 114.122C51.125 114.226 51.3703 114.278 51.6567 114.278C51.9933 114.278 52.2708 114.224 52.4893 114.117C52.7077 114.009 52.8742 113.85 52.9888 113.639C53.1069 113.427 53.1768 113.164 53.1982 112.849ZM55.9063 107.623H58.8228C59.4208 107.623 59.9346 107.713 60.3643 107.892C60.7976 108.071 61.1306 108.336 61.3633 108.687C61.5961 109.037 61.7125 109.469 61.7125 109.981C61.7125 110.4 61.6408 110.76 61.4976 111.061C61.358 111.358 61.1592 111.607 60.9014 111.807C60.6472 112.004 60.3482 112.162 60.0044 112.28L59.4942 112.548H56.959L56.9483 111.292H58.8336C59.1164 111.292 59.351 111.241 59.5372 111.141C59.7234 111.041 59.863 110.901 59.9561 110.722C60.0528 110.543 60.1011 110.335 60.1011 110.099C60.1011 109.848 60.0546 109.632 59.9615 109.449C59.8684 109.267 59.7269 109.127 59.5372 109.03C59.3474 108.934 59.1093 108.885 58.8228 108.885H57.5176V115.443H55.9063V107.623ZM60.2784 115.443L58.4952 111.958L60.1978 111.947L62.0025 115.368V115.443H60.2784ZM68.2447 114.187V115.443H64.0821V114.187H68.2447ZM64.6085 107.623V115.443H62.9972V107.623H64.6085ZM67.7023 110.808V112.033H64.0821V110.808H67.7023ZM68.2394 107.623V108.885H64.0821V107.623H68.2394ZM72.4084 108.96L70.2814 115.443H68.568L71.4738 107.623H72.5641L72.4084 108.96ZM74.1755 115.443L72.0431 108.96L71.8713 107.623H72.9723L75.8942 115.443H74.1755ZM74.0788 112.532V113.794H69.9484V112.532H74.0788ZM79.4939 107.623V115.443H77.8879V107.623H79.4939ZM81.9001 107.623V108.885H75.5193V107.623H81.9001ZM88.1101 114.187V115.443H83.9475V114.187H88.1101ZM84.4739 107.623V115.443H82.8626V107.623H84.4739ZM87.5677 110.808V112.033H83.9475V110.808H87.5677ZM88.1048 107.623V108.885H83.9475V107.623H88.1048ZM91.8773 107.623H94.7938C95.3918 107.623 95.9057 107.713 96.3353 107.892C96.7686 108.071 97.1016 108.336 97.3344 108.687C97.5671 109.037 97.6835 109.469 97.6835 109.981C97.6835 110.4 97.6119 110.76 97.4686 111.061C97.329 111.358 97.1303 111.607 96.8725 111.807C96.6182 112.004 96.3192 112.162 95.9755 112.28L95.4652 112.548H92.9301L92.9193 111.292H94.8046C95.0875 111.292 95.322 111.241 95.5082 111.141C95.6944 111.041 95.834 110.901 95.9271 110.722C96.0238 110.543 96.0722 110.335 96.0722 110.099C96.0722 109.848 96.0256 109.632 95.9325 109.449C95.8394 109.267 95.698 109.127 95.5082 109.03C95.3184 108.934 95.0803 108.885 94.7938 108.885H93.4887V115.443H91.8773V107.623ZM96.2494 115.443L94.4662 111.958L96.1688 111.947L97.9735 115.368V115.443H96.2494ZM104.216 114.187V115.443H100.053V114.187H104.216ZM100.58 107.623V115.443H98.9682V107.623H100.58ZM103.673 110.808V112.033H100.053V110.808H103.673ZM104.21 107.623V108.885H100.053V107.623H104.21ZM109.271 113.397C109.271 113.257 109.25 113.132 109.207 113.021C109.167 112.906 109.092 112.803 108.981 112.709C108.87 112.613 108.714 112.518 108.514 112.425C108.313 112.332 108.054 112.235 107.735 112.135C107.38 112.02 107.044 111.891 106.725 111.748C106.41 111.605 106.131 111.438 105.887 111.249C105.647 111.055 105.458 110.831 105.318 110.577C105.182 110.323 105.114 110.028 105.114 109.691C105.114 109.365 105.185 109.07 105.329 108.805C105.472 108.536 105.672 108.307 105.93 108.117C106.188 107.924 106.492 107.775 106.843 107.671C107.198 107.568 107.586 107.516 108.009 107.516C108.585 107.516 109.088 107.619 109.518 107.827C109.948 108.035 110.281 108.319 110.517 108.681C110.757 109.043 110.877 109.456 110.877 109.922H109.276C109.276 109.693 109.228 109.492 109.131 109.32C109.038 109.145 108.895 109.007 108.702 108.907C108.512 108.806 108.272 108.756 107.982 108.756C107.703 108.756 107.47 108.799 107.284 108.885C107.097 108.968 106.958 109.08 106.865 109.224C106.772 109.363 106.725 109.521 106.725 109.696C106.725 109.829 106.757 109.949 106.822 110.056C106.89 110.164 106.99 110.264 107.123 110.357C107.255 110.45 107.418 110.538 107.611 110.62C107.805 110.702 108.028 110.783 108.283 110.862C108.709 110.991 109.083 111.136 109.405 111.297C109.731 111.458 110.003 111.639 110.222 111.839C110.44 112.04 110.605 112.267 110.716 112.521C110.827 112.776 110.882 113.064 110.882 113.386C110.882 113.726 110.816 114.031 110.684 114.299C110.551 114.568 110.36 114.795 110.109 114.981C109.858 115.168 109.559 115.309 109.212 115.406C108.865 115.502 108.476 115.551 108.046 115.551C107.66 115.551 107.278 115.501 106.902 115.4C106.526 115.297 106.184 115.141 105.876 114.933C105.572 114.725 105.329 114.46 105.146 114.138C104.963 113.816 104.872 113.435 104.872 112.994H106.489C106.489 113.238 106.526 113.444 106.602 113.612C106.677 113.78 106.782 113.916 106.918 114.02C107.058 114.124 107.223 114.199 107.413 114.246C107.606 114.292 107.817 114.315 108.046 114.315C108.326 114.315 108.555 114.276 108.734 114.197C108.917 114.118 109.051 114.009 109.137 113.87C109.226 113.73 109.271 113.572 109.271 113.397ZM118.446 111.351V111.721C118.446 112.316 118.365 112.849 118.204 113.322C118.043 113.794 117.816 114.197 117.522 114.53C117.228 114.86 116.877 115.112 116.469 115.288C116.065 115.463 115.615 115.551 115.121 115.551C114.631 115.551 114.181 115.463 113.773 115.288C113.368 115.112 113.017 114.86 112.72 114.53C112.423 114.197 112.192 113.794 112.027 113.322C111.866 112.849 111.786 112.316 111.786 111.721V111.351C111.786 110.753 111.866 110.219 112.027 109.75C112.189 109.277 112.416 108.875 112.71 108.542C113.007 108.208 113.358 107.954 113.762 107.779C114.17 107.603 114.62 107.516 115.11 107.516C115.605 107.516 116.054 107.603 116.459 107.779C116.867 107.954 117.218 108.208 117.511 108.542C117.808 108.875 118.038 109.277 118.199 109.75C118.364 110.219 118.446 110.753 118.446 111.351ZM116.818 111.721V111.34C116.818 110.924 116.781 110.559 116.706 110.244C116.63 109.929 116.519 109.664 116.373 109.449C116.226 109.234 116.047 109.073 115.836 108.966C115.624 108.855 115.383 108.799 115.11 108.799C114.838 108.799 114.597 108.855 114.385 108.966C114.178 109.073 114 109.234 113.854 109.449C113.71 109.664 113.601 109.929 113.526 110.244C113.451 110.559 113.413 110.924 113.413 111.34V111.721C113.413 112.133 113.451 112.498 113.526 112.817C113.601 113.132 113.712 113.399 113.859 113.617C114.006 113.832 114.185 113.995 114.396 114.106C114.607 114.217 114.849 114.272 115.121 114.272C115.393 114.272 115.635 114.217 115.846 114.106C116.058 113.995 116.235 113.832 116.378 113.617C116.521 113.399 116.63 113.132 116.706 112.817C116.781 112.498 116.818 112.133 116.818 111.721ZM123.968 107.623H125.574V112.79C125.574 113.392 125.445 113.898 125.188 114.31C124.933 114.722 124.581 115.032 124.13 115.239C123.682 115.447 123.166 115.551 122.583 115.551C121.999 115.551 121.48 115.447 121.025 115.239C120.574 115.032 120.219 114.722 119.962 114.31C119.707 113.898 119.58 113.392 119.58 112.79V107.623H121.192V112.79C121.192 113.141 121.247 113.427 121.358 113.649C121.469 113.871 121.628 114.034 121.836 114.138C122.047 114.242 122.296 114.294 122.583 114.294C122.876 114.294 123.125 114.242 123.329 114.138C123.537 114.034 123.694 113.871 123.802 113.649C123.913 113.427 123.968 113.141 123.968 112.79V107.623ZM126.945 107.623H129.861C130.459 107.623 130.973 107.713 131.403 107.892C131.836 108.071 132.169 108.336 132.402 108.687C132.635 109.037 132.751 109.469 132.751 109.981C132.751 110.4 132.68 110.76 132.536 111.061C132.397 111.358 132.198 111.607 131.94 111.807C131.686 112.004 131.387 112.162 131.043 112.28L130.533 112.548H127.998L127.987 111.292H129.872C130.155 111.292 130.39 111.241 130.576 111.141C130.762 111.041 130.902 110.901 130.995 110.722C131.091 110.543 131.14 110.335 131.14 110.099C131.14 109.848 131.093 109.632 131 109.449C130.907 109.267 130.766 109.127 130.576 109.03C130.386 108.934 130.148 108.885 129.861 108.885H128.556V115.443H126.945V107.623ZM131.317 115.443L129.534 111.958L131.236 111.947L133.041 115.368V115.443H131.317ZM138.569 112.849H140.175C140.143 113.375 139.998 113.843 139.74 114.251C139.486 114.659 139.129 114.978 138.671 115.207C138.216 115.436 137.669 115.551 137.028 115.551C136.526 115.551 136.077 115.465 135.679 115.293C135.282 115.118 134.942 114.867 134.659 114.541C134.38 114.215 134.167 113.821 134.02 113.359C133.873 112.897 133.8 112.38 133.8 111.807V111.265C133.8 110.692 133.875 110.174 134.025 109.712C134.179 109.247 134.398 108.851 134.68 108.525C134.967 108.2 135.309 107.949 135.706 107.773C136.104 107.598 136.548 107.51 137.038 107.51C137.69 107.51 138.24 107.628 138.687 107.865C139.138 108.101 139.488 108.427 139.735 108.842C139.985 109.258 140.136 109.73 140.186 110.26H138.574C138.557 109.945 138.494 109.678 138.386 109.46C138.279 109.238 138.116 109.071 137.898 108.96C137.683 108.846 137.396 108.789 137.038 108.789C136.77 108.789 136.535 108.839 136.335 108.939C136.134 109.039 135.966 109.191 135.83 109.396C135.694 109.6 135.592 109.857 135.524 110.169C135.459 110.477 135.427 110.839 135.427 111.254V111.807C135.427 112.212 135.457 112.568 135.518 112.876C135.579 113.18 135.672 113.438 135.798 113.649C135.926 113.857 136.091 114.015 136.292 114.122C136.496 114.226 136.741 114.278 137.028 114.278C137.364 114.278 137.642 114.224 137.86 114.117C138.079 114.009 138.245 113.85 138.36 113.639C138.478 113.427 138.548 113.164 138.569 112.849ZM146.525 114.187V115.443H142.362V114.187H146.525ZM142.888 107.623V115.443H141.277V107.623H142.888ZM145.982 110.808V112.033H142.362V110.808H145.982ZM146.519 107.623V108.885H142.362V107.623H146.519Z" fill="#FFFEFF"/>
<g clip-path="url(#clip1_28400_29266)">
<path d="M71.3164 45.1934H54.3164C49.2078 45.1934 45.0664 49.3347 45.0664 54.4434C45.0664 59.552 49.2078 63.6934 54.3164 63.6934H71.3164C76.425 63.6934 80.5664 59.552 80.5664 54.4434C80.5664 49.3347 76.425 45.1934 71.3164 45.1934Z" fill="white"/>
<path d="M71.3164 45.1934H54.3164C49.2078 45.1934 45.0664 49.3347 45.0664 54.4434C45.0664 59.552 49.2078 63.6934 54.3164 63.6934H71.3164C76.425 63.6934 80.5664 59.552 80.5664 54.4434C80.5664 49.3347 76.425 45.1934 71.3164 45.1934Z" stroke="#8E8C99" stroke-width="1.5" stroke-dasharray="2 2"/>
<path d="M56.1792 56.0425V50.623H57.7852V56.0425C57.7852 56.5653 57.6706 57.0147 57.4414 57.3907C57.2123 57.7631 56.8989 58.0495 56.5015 58.25C56.1076 58.4506 55.6636 58.5508 55.1695 58.5508C54.6574 58.5508 54.2044 58.4649 53.8105 58.293C53.4167 58.1211 53.1069 57.858 52.8813 57.5035C52.6558 57.1454 52.543 56.6924 52.543 56.1446H54.1597C54.1597 56.431 54.199 56.6584 54.2778 56.8267C54.3602 56.995 54.4766 57.1149 54.627 57.1866C54.7774 57.2582 54.9582 57.294 55.1695 57.294C55.3736 57.294 55.5508 57.2456 55.7012 57.149C55.8516 57.0523 55.968 56.9108 56.0503 56.7246C56.1362 56.5385 56.1792 56.3111 56.1792 56.0425ZM65.628 54.3506V54.7212C65.628 55.3156 65.5474 55.8492 65.3863 56.3218C65.2252 56.7945 64.9978 57.1973 64.7042 57.5303C64.4106 57.8597 64.0596 58.1122 63.6514 58.2876C63.2468 58.4631 62.7974 58.5508 62.3033 58.5508C61.8127 58.5508 61.3634 58.4631 60.9552 58.2876C60.5505 58.1122 60.1996 57.8597 59.9024 57.5303C59.6052 57.1973 59.3743 56.7945 59.2095 56.3218C59.0484 55.8492 58.9678 55.3156 58.9678 54.7212V54.3506C58.9678 53.7526 59.0484 53.2191 59.2095 52.75C59.3707 52.2773 59.5981 51.8745 59.8917 51.5415C60.1889 51.2085 60.5398 50.9543 60.9444 50.7788C61.3526 50.6033 61.802 50.5156 62.2926 50.5156C62.7867 50.5156 63.2361 50.6033 63.6407 50.7788C64.0489 50.9543 64.3998 51.2085 64.6934 51.5415C64.9906 51.8745 65.2198 52.2773 65.3809 52.75C65.5456 53.2191 65.628 53.7526 65.628 54.3506ZM64.0006 54.7212V54.3398C64.0006 53.9245 63.963 53.5592 63.8878 53.2441C63.8126 52.929 63.7016 52.6641 63.5548 52.4492C63.4079 52.2344 63.2289 52.0732 63.0177 51.9658C62.8064 51.8548 62.5647 51.7993 62.2926 51.7993C62.0204 51.7993 61.7787 51.8548 61.5675 51.9658C61.3598 52.0732 61.1825 52.2344 61.0357 52.4492C60.8925 52.6641 60.7833 52.929 60.7081 53.2441C60.6329 53.5592 60.5953 53.9245 60.5953 54.3398V54.7212C60.5953 55.133 60.6329 55.4983 60.7081 55.8169C60.7833 56.132 60.8943 56.3988 61.0411 56.6172C61.1879 56.8321 61.3669 56.995 61.5782 57.106C61.7895 57.217 62.0312 57.2725 62.3033 57.2725C62.5754 57.2725 62.8171 57.217 63.0284 57.106C63.2397 56.995 63.4169 56.8321 63.5601 56.6172C63.7034 56.3988 63.8126 56.132 63.8878 55.8169C63.963 55.4983 64.0006 55.133 64.0006 54.7212ZM69.8937 55.0113H67.8849L67.8742 53.9048H69.5607C69.8579 53.9048 70.1014 53.8672 70.2911 53.792C70.4809 53.7132 70.6224 53.6004 70.7155 53.4536C70.8121 53.3032 70.8605 53.1206 70.8605 52.9058C70.8605 52.6623 70.8139 52.4653 70.7208 52.3149C70.6313 52.1645 70.4899 52.0553 70.2965 51.9873C70.1067 51.9193 69.8615 51.8852 69.5607 51.8852H68.4435V58.4434H66.8322V50.623H69.5607C70.0154 50.623 70.4218 50.666 70.7799 50.7519C71.1416 50.8379 71.4477 50.9686 71.6984 51.144C71.949 51.3195 72.1406 51.5415 72.2731 51.8101C72.4056 52.075 72.4718 52.3901 72.4718 52.7554C72.4718 53.0776 72.3984 53.3748 72.2516 53.647C72.1084 53.9191 71.881 54.1411 71.5695 54.313C71.2615 54.4849 70.8587 54.5798 70.361 54.5977L69.8937 55.0113ZM69.8239 58.4434H67.4445L68.0729 57.1866H69.8239C70.1067 57.1866 70.3377 57.1418 70.5167 57.0523C70.6958 56.9592 70.8283 56.8339 70.9142 56.6763C71.0001 56.5188 71.0431 56.3379 71.0431 56.1338C71.0431 55.9047 71.0037 55.7059 70.9249 55.5376C70.8497 55.3693 70.728 55.2404 70.5597 55.1509C70.3914 55.0578 70.1694 55.0113 69.8937 55.0113H68.3414L68.3522 53.9048H70.2858L70.6564 54.3398C71.1326 54.3327 71.5158 54.4168 71.8058 54.5923C72.0994 54.7642 72.3125 54.988 72.445 55.2637C72.581 55.5394 72.6491 55.8348 72.6491 56.1499C72.6491 56.6512 72.5398 57.0738 72.3214 57.4175C72.103 57.7577 71.7825 58.0137 71.36 58.1856C70.941 58.3575 70.429 58.4434 69.8239 58.4434Z" fill="#65636D"/>
</g>
<rect x="112.367" y="153.193" width="70.5" height="18.5" rx="9.25" fill="white"/>
<rect x="112.367" y="153.193" width="70.5" height="18.5" rx="9.25" stroke="#8E8C99" stroke-width="1.5" stroke-dasharray="2 2"/>
<path d="M120.315 158.623H123.232C123.83 158.623 124.344 158.713 124.773 158.892C125.207 159.071 125.54 159.336 125.772 159.687C126.005 160.037 126.122 160.469 126.122 160.981C126.122 161.4 126.05 161.76 125.907 162.061C125.767 162.358 125.568 162.607 125.311 162.807C125.056 163.004 124.757 163.162 124.414 163.28L123.903 163.548H121.368L121.357 162.292H123.243C123.526 162.292 123.76 162.241 123.946 162.141C124.132 162.041 124.272 161.901 124.365 161.722C124.462 161.543 124.51 161.335 124.51 161.099C124.51 160.848 124.464 160.632 124.371 160.449C124.278 160.267 124.136 160.127 123.946 160.03C123.757 159.934 123.518 159.885 123.232 159.885H121.927V166.443H120.315V158.623ZM124.688 166.443L122.904 162.958L124.607 162.947L126.412 166.368V166.443H124.688ZM132.654 165.187V166.443H128.491V165.187H132.654ZM129.018 158.623V166.443H127.406V158.623H129.018ZM132.111 161.808V163.033H128.491V161.808H132.111ZM132.648 158.623V159.885H128.491V158.623H132.648ZM137.709 164.397C137.709 164.257 137.688 164.132 137.645 164.021C137.605 163.906 137.53 163.803 137.419 163.709C137.308 163.613 137.152 163.518 136.952 163.425C136.751 163.332 136.492 163.235 136.173 163.135C135.818 163.02 135.482 162.891 135.163 162.748C134.848 162.605 134.569 162.438 134.325 162.249C134.085 162.055 133.896 161.831 133.756 161.577C133.62 161.323 133.552 161.028 133.552 160.691C133.552 160.365 133.623 160.07 133.767 159.805C133.91 159.536 134.11 159.307 134.368 159.117C134.626 158.924 134.93 158.775 135.281 158.671C135.636 158.568 136.024 158.516 136.447 158.516C137.023 158.516 137.526 158.619 137.956 158.827C138.386 159.035 138.719 159.319 138.955 159.681C139.195 160.043 139.315 160.456 139.315 160.922H137.714C137.714 160.693 137.666 160.492 137.569 160.32C137.476 160.145 137.333 160.007 137.14 159.907C136.95 159.806 136.71 159.756 136.42 159.756C136.141 159.756 135.908 159.799 135.722 159.885C135.536 159.968 135.396 160.08 135.303 160.224C135.21 160.363 135.163 160.521 135.163 160.696C135.163 160.829 135.195 160.949 135.26 161.056C135.328 161.164 135.428 161.264 135.561 161.357C135.693 161.45 135.856 161.538 136.049 161.62C136.243 161.702 136.467 161.783 136.721 161.862C137.147 161.991 137.521 162.136 137.843 162.297C138.169 162.458 138.441 162.639 138.66 162.839C138.878 163.04 139.043 163.267 139.154 163.521C139.265 163.776 139.32 164.064 139.32 164.386C139.32 164.726 139.254 165.031 139.122 165.299C138.989 165.568 138.798 165.795 138.547 165.981C138.296 166.168 137.997 166.309 137.65 166.406C137.303 166.502 136.914 166.551 136.484 166.551C136.098 166.551 135.716 166.501 135.34 166.4C134.964 166.297 134.623 166.141 134.315 165.933C134.01 165.725 133.767 165.46 133.584 165.138C133.401 164.816 133.31 164.435 133.31 163.994H134.927C134.927 164.238 134.964 164.444 135.04 164.612C135.115 164.78 135.22 164.916 135.357 165.02C135.496 165.124 135.661 165.199 135.851 165.246C136.044 165.292 136.255 165.315 136.484 165.315C136.764 165.315 136.993 165.276 137.172 165.197C137.355 165.118 137.489 165.009 137.575 164.87C137.664 164.73 137.709 164.572 137.709 164.397ZM146.884 162.351V162.721C146.884 163.316 146.803 163.849 146.642 164.322C146.481 164.794 146.254 165.197 145.96 165.53C145.667 165.86 145.316 166.112 144.907 166.288C144.503 166.463 144.053 166.551 143.559 166.551C143.069 166.551 142.619 166.463 142.211 166.288C141.806 166.112 141.456 165.86 141.158 165.53C140.861 165.197 140.63 164.794 140.465 164.322C140.304 163.849 140.224 163.316 140.224 162.721V162.351C140.224 161.753 140.304 161.219 140.465 160.75C140.627 160.277 140.854 159.875 141.148 159.542C141.445 159.208 141.796 158.954 142.2 158.779C142.609 158.603 143.058 158.516 143.549 158.516C144.043 158.516 144.492 158.603 144.897 158.779C145.305 158.954 145.656 159.208 145.949 159.542C146.247 159.875 146.476 160.277 146.637 160.75C146.802 161.219 146.884 161.753 146.884 162.351ZM145.257 162.721V162.34C145.257 161.924 145.219 161.559 145.144 161.244C145.069 160.929 144.958 160.664 144.811 160.449C144.664 160.234 144.485 160.073 144.274 159.966C144.062 159.855 143.821 159.799 143.549 159.799C143.276 159.799 143.035 159.855 142.823 159.966C142.616 160.073 142.438 160.234 142.292 160.449C142.148 160.664 142.039 160.929 141.964 161.244C141.889 161.559 141.851 161.924 141.851 162.34V162.721C141.851 163.133 141.889 163.498 141.964 163.817C142.039 164.132 142.15 164.399 142.297 164.617C142.444 164.832 142.623 164.995 142.834 165.106C143.045 165.217 143.287 165.272 143.559 165.272C143.831 165.272 144.073 165.217 144.284 165.106C144.496 164.995 144.673 164.832 144.816 164.617C144.959 164.399 145.069 164.132 145.144 163.817C145.219 163.498 145.257 163.133 145.257 162.721ZM152.406 158.623H154.012V163.79C154.012 164.392 153.884 164.898 153.626 165.31C153.371 165.722 153.019 166.032 152.568 166.239C152.12 166.447 151.604 166.551 151.021 166.551C150.437 166.551 149.918 166.447 149.463 166.239C149.012 166.032 148.657 165.722 148.4 165.31C148.145 164.898 148.018 164.392 148.018 163.79V158.623H149.63V163.79C149.63 164.141 149.685 164.427 149.796 164.649C149.907 164.871 150.066 165.034 150.274 165.138C150.485 165.242 150.734 165.294 151.021 165.294C151.314 165.294 151.563 165.242 151.767 165.138C151.975 165.034 152.133 164.871 152.24 164.649C152.351 164.427 152.406 164.141 152.406 163.79V158.623ZM155.383 158.623H158.3C158.898 158.623 159.411 158.713 159.841 158.892C160.274 159.071 160.607 159.336 160.84 159.687C161.073 160.037 161.189 160.469 161.189 160.981C161.189 161.4 161.118 161.76 160.974 162.061C160.835 162.358 160.636 162.607 160.378 162.807C160.124 163.004 159.825 163.162 159.481 163.28L158.971 163.548H156.436L156.425 162.292H158.31C158.593 162.292 158.828 162.241 159.014 162.141C159.2 162.041 159.34 161.901 159.433 161.722C159.53 161.543 159.578 161.335 159.578 161.099C159.578 160.848 159.531 160.632 159.438 160.449C159.345 160.267 159.204 160.127 159.014 160.03C158.824 159.934 158.586 159.885 158.3 159.885H156.994V166.443H155.383V158.623ZM159.755 166.443L157.972 162.958L159.675 162.947L161.479 166.368V166.443H159.755ZM167.007 163.849H168.613C168.581 164.375 168.436 164.843 168.178 165.251C167.924 165.659 167.568 165.978 167.109 166.207C166.654 166.436 166.107 166.551 165.466 166.551C164.964 166.551 164.515 166.465 164.118 166.293C163.72 166.118 163.38 165.867 163.097 165.541C162.818 165.215 162.605 164.821 162.458 164.359C162.311 163.897 162.238 163.38 162.238 162.807V162.265C162.238 161.692 162.313 161.174 162.463 160.712C162.617 160.247 162.836 159.851 163.118 159.525C163.405 159.2 163.747 158.949 164.144 158.773C164.542 158.598 164.986 158.51 165.476 158.51C166.128 158.51 166.678 158.628 167.125 158.865C167.576 159.101 167.926 159.427 168.173 159.842C168.423 160.258 168.574 160.73 168.624 161.26H167.013C166.995 160.945 166.932 160.678 166.825 160.46C166.717 160.238 166.554 160.071 166.336 159.96C166.121 159.846 165.834 159.789 165.476 159.789C165.208 159.789 164.973 159.839 164.773 159.939C164.572 160.039 164.404 160.191 164.268 160.396C164.132 160.6 164.03 160.857 163.962 161.169C163.897 161.477 163.865 161.839 163.865 162.254V162.807C163.865 163.212 163.896 163.568 163.956 163.876C164.017 164.18 164.11 164.438 164.236 164.649C164.365 164.857 164.529 165.015 164.73 165.122C164.934 165.226 165.179 165.278 165.466 165.278C165.802 165.278 166.08 165.224 166.298 165.117C166.517 165.009 166.683 164.85 166.798 164.639C166.916 164.427 166.986 164.164 167.007 163.849ZM174.963 165.187V166.443H170.8V165.187H174.963ZM171.327 158.623V166.443H169.715V158.623H171.327ZM174.42 161.808V163.033H170.8V161.808H174.42ZM174.957 158.623V159.885H170.8V158.623H174.957Z" fill="#65636D"/>
<defs>
<filter id="filter0_dd_28400_29266" x="5.13792e-05" y="3.18028" width="62.7519" height="59.5878" filterUnits="userSpaceOnUse" color-interpolation-filters="sRGB">
<feFlood flood-opacity="0" result="BackgroundImageFix"/>
<feColorMatrix in="SourceAlpha" type="matrix" values="0 0 0 0 0 0 0 0 0 0 0 0 0 0 0 0 0 0 127 0" result="hardAlpha"/>
<feMorphology radius="0.763944" operator="erode" in="SourceAlpha" result="effect1_dropShadow_28400_29266"/>
<feOffset dy="1.52789"/>
<feGaussianBlur stdDeviation="3.05577"/>
<feColorMatrix type="matrix" values="0 0 0 0 0.105882 0 0 0 0 0.141176 0 0 0 0 0.172549 0 0 0 0.08 0"/>
<feBlend mode="normal" in2="BackgroundImageFix" result="effect1_dropShadow_28400_29266"/>
<feColorMatrix in="SourceAlpha" type="matrix" values="0 0 0 0 0 0 0 0 0 0 0 0 0 0 0 0 0 0 127 0" result="hardAlpha"/>
<feMorphology radius="0.763944" operator="erode" in="SourceAlpha" result="effect2_dropShadow_28400_29266"/>
<feOffset dy="1.52789"/>
<feGaussianBlur stdDeviation="0.763944"/>
<feComposite in2="hardAlpha" operator="out"/>
<feColorMatrix type="matrix" values="0 0 0 0 0.105882 0 0 0 0 0.141176 0 0 0 0 0.172549 0 0 0 0.04 0"/>
<feBlend mode="normal" in2="effect1_dropShadow_28400_29266" result="effect2_dropShadow_28400_29266"/>
<feBlend mode="normal" in="SourceGraphic" in2="effect2_dropShadow_28400_29266" result="shape"/>
</filter>
<filter id="filter1_dd_28400_29266" x="121.916" y="162.477" width="59.5878" height="59.5878" filterUnits="userSpaceOnUse" color-interpolation-filters="sRGB">
<feFlood flood-opacity="0" result="BackgroundImageFix"/>
<feColorMatrix in="SourceAlpha" type="matrix" values="0 0 0 0 0 0 0 0 0 0 0 0 0 0 0 0 0 0 127 0" result="hardAlpha"/>
<feMorphology radius="0.763944" operator="erode" in="SourceAlpha" result="effect1_dropShadow_28400_29266"/>
<feOffset dy="1.52789"/>
<feGaussianBlur stdDeviation="3.05577"/>
<feColorMatrix type="matrix" values="0 0 0 0 0.105882 0 0 0 0 0.141176 0 0 0 0 0.172549 0 0 0 0.08 0"/>
<feBlend mode="normal" in2="BackgroundImageFix" result="effect1_dropShadow_28400_29266"/>
<feColorMatrix in="SourceAlpha" type="matrix" values="0 0 0 0 0 0 0 0 0 0 0 0 0 0 0 0 0 0 127 0" result="hardAlpha"/>
<feMorphology radius="0.763944" operator="erode" in="SourceAlpha" result="effect2_dropShadow_28400_29266"/>
<feOffset dy="1.52789"/>
<feGaussianBlur stdDeviation="0.763944"/>
<feComposite in2="hardAlpha" operator="out"/>
<feColorMatrix type="matrix" values="0 0 0 0 0.105882 0 0 0 0 0.141176 0 0 0 0 0.172549 0 0 0 0.04 0"/>
<feBlend mode="normal" in2="effect1_dropShadow_28400_29266" result="effect2_dropShadow_28400_29266"/>
<feBlend mode="normal" in="SourceGraphic" in2="effect2_dropShadow_28400_29266" result="shape"/>
</filter>
<clipPath id="clip0_28400_29266">
<rect width="36.6693" height="36.6693" fill="white" transform="translate(11.459 13.1113)"/>
</clipPath>
<clipPath id="clip1_28400_29266">
<rect width="37" height="20" fill="white" transform="translate(44.3164 44.4434)"/>
</clipPath>
</defs>
</svg>
