<svg width="186" height="223" viewBox="0 0 186 223" fill="none" xmlns="http://www.w3.org/2000/svg">
<g filter="url(#filter0_dd_28400_29202)">
<path d="M57.0009 24.8887C58.6885 24.8887 60.0566 26.2568 60.0566 27.9444L60.0566 34.056C60.0566 35.7436 58.6885 37.1118 57.0009 37.1118V37.1118C55.3132 37.1118 53.9451 35.7437 53.9451 34.056L53.9451 27.9444C53.9451 26.2568 55.3132 24.8887 57.0009 24.8887V24.8887Z" fill="#8E8C99"/>
<path d="M14 7.5H50.8926C53.9301 7.5001 56.3926 9.9625 56.3926 13V49.8926C56.3925 52.93 53.93 55.3925 50.8926 55.3926H14C10.9625 55.3926 8.5001 52.9301 8.5 49.8926V13C8.5 9.96244 10.9624 7.5 14 7.5Z" fill="#FFFEFF"/>
<path d="M14 7.5H50.8926C53.9301 7.5001 56.3926 9.9625 56.3926 13V49.8926C56.3925 52.93 53.93 55.3925 50.8926 55.3926H14C10.9625 55.3926 8.5001 52.9301 8.5 49.8926V13C8.5 9.96244 10.9624 7.5 14 7.5Z" stroke="#DBD8E0"/>
<path d="M47.1901 21.1958L33.8092 13.4702C32.9807 12.9917 31.9605 12.9917 31.1331 13.4702L17.7522 21.1958C16.9247 21.6732 16.4141 22.5574 16.4141 23.5134V38.9646C16.4141 39.9205 16.9236 40.8036 17.7522 41.2821L32.4711 49.7806V41.2821C32.4711 40.8036 32.7259 40.3626 33.1402 40.1228L40.4997 35.8741V45.1444L47.1901 41.2821C48.0187 40.8036 48.5282 39.9205 48.5282 38.9646V23.5134C48.5282 22.5574 48.0187 21.6743 47.1901 21.1958ZM31.8021 31.6254L24.4426 35.8741V27.3756C24.4426 26.8971 24.6974 26.4561 25.1116 26.2163L31.8021 22.3541C32.2164 22.1153 32.7259 22.1153 33.1402 22.3541L39.8306 26.2163C40.2449 26.455 40.4997 26.8971 40.4997 27.3756V35.8741L33.1402 31.6254C32.7259 31.3867 32.2164 31.3867 31.8021 31.6254Z" fill="#6033F0"/>
</g>
<g filter="url(#filter1_dd_28400_29202)">
<path d="M135.916 166.796H172.809C175.846 166.796 178.309 169.258 178.309 172.296V209.188C178.308 212.226 175.846 214.688 172.809 214.688H135.916C132.879 214.688 130.416 212.226 130.416 209.188V172.296C130.416 169.258 132.878 166.796 135.916 166.796Z" fill="#FFFEFF"/>
<path d="M135.916 166.796H172.809C175.846 166.796 178.309 169.258 178.309 172.296V209.188C178.308 212.226 175.846 214.688 172.809 214.688H135.916C132.879 214.688 130.416 212.226 130.416 209.188V172.296C130.416 169.258 132.878 166.796 135.916 166.796Z" stroke="#DBD8E0"/>
<g clip-path="url(#clip0_28400_29202)">
<path d="M154.239 173.447C153.924 173.463 153.615 173.541 153.331 173.677L140.935 179.599C140.614 179.753 140.332 179.976 140.11 180.252C139.888 180.528 139.732 180.85 139.653 181.194L136.595 194.498C136.524 194.804 136.516 195.122 136.571 195.431C136.627 195.741 136.744 196.037 136.917 196.3C136.958 196.365 137.003 196.427 137.051 196.487L145.631 207.155C145.853 207.431 146.135 207.654 146.456 207.807C146.776 207.96 147.128 208.039 147.484 208.039L161.243 208.036C161.599 208.036 161.95 207.957 162.271 207.804C162.592 207.652 162.874 207.429 163.096 207.153L171.672 196.484C171.894 196.208 172.051 195.886 172.13 195.541C172.21 195.197 172.21 194.839 172.13 194.495L169.068 181.191C168.988 180.847 168.832 180.525 168.61 180.248C168.388 179.972 168.106 179.749 167.785 179.596L155.388 173.677C155.031 173.506 154.635 173.427 154.239 173.447Z" fill="#326CE5"/>
<path d="M154.362 177.974C153.952 177.974 153.62 178.343 153.62 178.798C153.62 178.805 153.621 178.812 153.621 178.819C153.621 178.881 153.618 178.955 153.62 179.009C153.629 179.272 153.687 179.473 153.721 179.715C153.784 180.233 153.836 180.662 153.804 181.061C153.772 181.211 153.661 181.349 153.563 181.444L153.545 181.758C153.094 181.795 152.646 181.864 152.204 181.964C150.278 182.402 148.619 183.394 147.356 184.734C147.266 184.672 147.177 184.608 147.088 184.544C146.956 184.561 146.822 184.602 146.648 184.501C146.316 184.277 146.013 183.969 145.647 183.597C145.48 183.419 145.358 183.25 145.159 183.079C145.114 183.04 145.045 182.987 144.994 182.947C144.838 182.823 144.655 182.758 144.477 182.752C144.249 182.744 144.03 182.834 143.886 183.014C143.631 183.334 143.712 183.824 144.068 184.108C144.072 184.11 144.076 184.113 144.079 184.116C144.128 184.155 144.188 184.206 144.233 184.239C144.445 184.395 144.638 184.475 144.848 184.599C145.292 184.873 145.66 185.1 145.952 185.374C146.066 185.496 146.085 185.71 146.101 185.802L146.338 186.015C145.065 187.93 144.476 190.297 144.824 192.708L144.514 192.798C144.432 192.904 144.316 193.07 144.195 193.12C143.813 193.24 143.384 193.284 142.865 193.339C142.622 193.359 142.411 193.347 142.153 193.396C142.096 193.407 142.017 193.427 141.955 193.442L141.949 193.443C141.945 193.444 141.941 193.446 141.938 193.446C141.5 193.552 141.219 193.954 141.31 194.35C141.4 194.746 141.827 194.987 142.267 194.892C142.271 194.892 142.275 194.891 142.279 194.891C142.283 194.89 142.288 194.887 142.293 194.886C142.354 194.872 142.431 194.858 142.485 194.843C142.738 194.775 142.922 194.675 143.15 194.588C143.641 194.412 144.048 194.265 144.444 194.207C144.609 194.194 144.784 194.309 144.87 194.358L145.194 194.303C145.938 196.61 147.498 198.475 149.473 199.645L149.338 199.968C149.386 200.094 149.44 200.264 149.404 200.388C149.26 200.761 149.013 201.155 148.732 201.595C148.596 201.798 148.457 201.955 148.334 202.188C148.305 202.243 148.268 202.329 148.239 202.387C148.048 202.795 148.188 203.265 148.555 203.442C148.923 203.619 149.381 203.432 149.579 203.023C149.579 203.023 149.58 203.022 149.58 203.022C149.58 203.021 149.58 203.02 149.58 203.02C149.609 202.962 149.648 202.886 149.672 202.831C149.777 202.591 149.812 202.384 149.886 202.151C150.083 201.658 150.19 201.141 150.461 200.818C150.535 200.73 150.655 200.696 150.78 200.663L150.948 200.358C152.67 201.019 154.597 201.197 156.522 200.759C156.955 200.661 157.38 200.533 157.795 200.376C157.842 200.46 157.93 200.621 157.954 200.661C158.081 200.702 158.22 200.724 158.333 200.891C158.535 201.236 158.673 201.645 158.842 202.139C158.915 202.372 158.952 202.578 159.057 202.819C159.081 202.874 159.121 202.951 159.149 203.009C159.347 203.419 159.806 203.607 160.175 203.429C160.541 203.253 160.681 202.783 160.49 202.375C160.462 202.316 160.423 202.231 160.394 202.175C160.271 201.943 160.132 201.787 159.996 201.584C159.715 201.144 159.482 200.779 159.338 200.406C159.278 200.213 159.348 200.094 159.395 199.968C159.367 199.936 159.307 199.754 159.271 199.669C161.324 198.457 162.837 196.522 163.548 194.288C163.644 194.303 163.811 194.333 163.865 194.344C163.977 194.27 164.079 194.174 164.281 194.19C164.677 194.247 165.083 194.394 165.574 194.57C165.802 194.658 165.986 194.759 166.24 194.827C166.294 194.842 166.371 194.855 166.432 194.869C166.437 194.87 166.441 194.872 166.446 194.873C166.449 194.874 166.454 194.874 166.457 194.875C166.897 194.97 167.324 194.729 167.415 194.333C167.505 193.937 167.224 193.535 166.787 193.429C166.723 193.415 166.633 193.39 166.571 193.378C166.313 193.329 166.103 193.341 165.86 193.321C165.341 193.267 164.911 193.223 164.53 193.102C164.374 193.042 164.263 192.857 164.209 192.781L163.91 192.694C164.065 191.57 164.023 190.4 163.754 189.23C163.483 188.048 163.004 186.968 162.364 186.016C162.441 185.946 162.586 185.818 162.627 185.78C162.639 185.647 162.629 185.507 162.767 185.36C163.058 185.086 163.426 184.859 163.87 184.585C164.081 184.461 164.275 184.381 164.487 184.225C164.535 184.19 164.6 184.134 164.65 184.093C165.006 183.809 165.088 183.32 164.832 182.999C164.577 182.679 164.082 182.649 163.726 182.933C163.675 182.973 163.606 183.025 163.561 183.064C163.362 183.236 163.239 183.405 163.071 183.583C162.705 183.955 162.403 184.265 162.071 184.488C161.927 184.572 161.716 184.543 161.621 184.537L161.338 184.739C159.729 183.051 157.539 181.973 155.18 181.763C155.173 181.664 155.164 181.485 155.162 181.432C155.066 181.339 154.949 181.26 154.92 181.061C154.887 180.662 154.941 180.233 155.004 179.715C155.038 179.473 155.095 179.272 155.105 179.009C155.107 178.95 155.104 178.863 155.103 178.798C155.103 178.343 154.771 177.974 154.362 177.974ZM153.433 183.729L153.212 187.621L153.196 187.629C153.182 187.977 152.895 188.255 152.543 188.255C152.399 188.255 152.266 188.208 152.158 188.129L152.152 188.133L148.96 185.87C149.941 184.906 151.196 184.193 152.641 183.865C152.903 183.806 153.167 183.761 153.433 183.729ZM155.292 183.729C156.98 183.936 158.541 184.701 159.737 185.872L156.567 188.12L156.556 188.115C156.274 188.321 155.878 188.27 155.658 187.995C155.572 187.887 155.522 187.754 155.516 187.616L155.512 187.614L155.292 183.729ZM147.803 187.324L150.717 189.93L150.714 189.946C150.977 190.175 151.016 190.572 150.796 190.847C150.71 190.955 150.591 191.034 150.457 191.07L150.454 191.083L146.719 192.161C146.529 190.423 146.938 188.733 147.803 187.324ZM160.899 187.326C161.332 188.027 161.66 188.811 161.855 189.661C162.048 190.5 162.096 191.338 162.017 192.148L158.263 191.067L158.26 191.051C157.924 190.959 157.717 190.617 157.795 190.274C157.826 190.139 157.898 190.018 158.003 189.927L158.001 189.919L160.899 187.326V187.326ZM153.764 190.132H154.958L155.7 191.059L155.433 192.216L154.362 192.732L153.287 192.215L153.02 191.057L153.764 190.132ZM157.591 193.305C157.641 193.303 157.692 193.307 157.741 193.317L157.748 193.309L161.611 193.962C161.046 195.55 159.964 196.926 158.518 197.847L157.018 194.225L157.023 194.219C156.885 193.898 157.023 193.523 157.34 193.37C157.421 193.331 157.506 193.31 157.591 193.305ZM151.102 193.321C151.397 193.325 151.661 193.53 151.73 193.83C151.762 193.971 151.746 194.11 151.693 194.233L151.705 194.247L150.221 197.833C148.833 196.943 147.728 195.61 147.137 193.974L150.967 193.324L150.974 193.332C151.017 193.324 151.06 193.321 151.102 193.321ZM154.338 194.892C154.443 194.889 154.549 194.911 154.644 194.957C154.774 195.02 154.874 195.118 154.937 195.236H154.951L156.839 198.648C156.591 198.731 156.34 198.801 156.085 198.859C154.641 199.187 153.201 199.087 151.898 198.643L153.781 195.238H153.785C153.838 195.137 153.918 195.052 154.015 194.991C154.112 194.931 154.223 194.897 154.338 194.892L154.338 194.892Z" fill="white" stroke="white" stroke-width="0.14494"/>
</g>
</g>
<path d="M60.3926 30.4463C59.8403 30.4463 59.3926 30.894 59.3926 31.4463C59.3926 31.9986 59.8403 32.4463 60.3926 32.4463V31.4463V30.4463ZM127.123 191.449C127.514 191.059 127.514 190.426 127.123 190.035L120.759 183.671C120.369 183.281 119.736 183.281 119.345 183.671C118.955 184.062 118.955 184.695 119.345 185.085L125.002 190.742L119.345 196.399C118.955 196.79 118.955 197.423 119.345 197.813C119.736 198.204 120.369 198.204 120.759 197.813L127.123 191.449ZM60.3926 31.4463V32.4463H69.4044V31.4463V30.4463H60.3926V31.4463ZM93.4044 55.4463H92.4044V166.742H93.4044H94.4044V55.4463H93.4044ZM117.404 190.742V191.742H126.416V190.742V189.742H117.404V190.742ZM93.4044 166.742H92.4044C92.4044 180.549 103.597 191.742 117.404 191.742V190.742V189.742C104.702 189.742 94.4044 179.445 94.4044 166.742H93.4044ZM69.4044 31.4463V32.4463C82.107 32.4463 92.4044 42.7437 92.4044 55.4463H93.4044H94.4044C94.4044 41.6392 83.2115 30.4463 69.4044 30.4463V31.4463Z" fill="#8E8C99"/>
<path d="M37.2227 120.443C37.2227 114.921 41.6998 110.443 47.2227 110.443H156.223C161.746 110.443 166.223 114.921 166.223 120.443V120.443C166.223 125.966 161.746 130.443 156.223 130.443H47.2227C41.6998 130.443 37.2227 125.966 37.2227 120.443V120.443Z" fill="#8E8C99"/>
<path d="M51.3003 123.187V124.443H47.1377V123.187H51.3003ZM47.6641 116.623V124.443H46.0527V116.623H47.6641ZM50.7578 119.808V121.033H47.1377V119.808H50.7578ZM51.2949 116.623V117.885H47.1377V116.623H51.2949ZM53.6109 116.623L55.0826 119.352L56.5543 116.623H58.3965L56.1246 120.501L58.4556 124.443H56.5972L55.0826 121.661L53.5679 124.443H51.6988L54.0352 120.501L51.7579 116.623H53.6109ZM64.5582 123.187V124.443H60.3956V123.187H64.5582ZM60.922 116.623V124.443H59.3107V116.623H60.922ZM64.0157 119.808V121.033H60.3956V119.808H64.0157ZM64.5528 116.623V117.885H60.3956V116.623H64.5528ZM70.0754 121.849H71.6813C71.6491 122.375 71.5041 122.843 71.2463 123.251C70.992 123.659 70.6357 123.978 70.1774 124.207C69.7227 124.436 69.1748 124.551 68.5339 124.551C68.0325 124.551 67.5832 124.465 67.1857 124.293C66.7882 124.118 66.4481 123.867 66.1652 123.541C65.8859 123.215 65.6728 122.821 65.526 122.359C65.3792 121.897 65.3058 121.38 65.3058 120.807V120.265C65.3058 119.692 65.381 119.174 65.5314 118.712C65.6854 118.247 65.9038 117.851 66.1867 117.525C66.4731 117.2 66.8151 116.949 67.2126 116.773C67.61 116.598 68.054 116.51 68.5446 116.51C69.1963 116.51 69.7459 116.628 70.1935 116.865C70.6447 117.101 70.9938 117.427 71.2409 117.842C71.4915 118.258 71.6419 118.73 71.6921 119.26H70.0807C70.0628 118.945 70.0002 118.678 69.8927 118.46C69.7853 118.238 69.6224 118.071 69.404 117.96C69.1891 117.846 68.9027 117.789 68.5446 117.789C68.276 117.789 68.0415 117.839 67.841 117.939C67.6405 118.039 67.4722 118.191 67.3361 118.396C67.2 118.6 67.098 118.857 67.0299 119.169C66.9655 119.477 66.9333 119.839 66.9333 120.254V120.807C66.9333 121.212 66.9637 121.568 67.0246 121.876C67.0854 122.18 67.1785 122.438 67.3039 122.649C67.4328 122.857 67.5975 123.015 67.798 123.122C68.0021 123.226 68.2474 123.278 68.5339 123.278C68.8704 123.278 69.1479 123.224 69.3664 123.117C69.5848 123.009 69.7513 122.85 69.8659 122.639C69.984 122.427 70.0539 122.164 70.0754 121.849ZM77.1018 116.623H78.7077V121.79C78.7077 122.392 78.5788 122.898 78.321 123.31C78.0668 123.722 77.7141 124.032 77.2629 124.239C76.8153 124.447 76.2997 124.551 75.716 124.551C75.1324 124.551 74.6132 124.447 74.1584 124.239C73.7072 124.032 73.3528 123.722 73.0949 123.31C72.8407 122.898 72.7136 122.392 72.7136 121.79V116.623H74.3249V121.79C74.3249 122.141 74.3804 122.427 74.4914 122.649C74.6024 122.871 74.7618 123.034 74.9695 123.138C75.1807 123.242 75.4296 123.294 75.716 123.294C76.0097 123.294 76.2585 123.242 76.4626 123.138C76.6703 123.034 76.8279 122.871 76.9353 122.649C77.0463 122.427 77.1018 122.141 77.1018 121.79V116.623ZM83.575 116.623V124.443H81.969V116.623H83.575ZM85.9812 116.623V117.885H79.6004V116.623H85.9812ZM92.1912 123.187V124.443H88.0286V123.187H92.1912ZM88.555 116.623V124.443H86.9437V116.623H88.555ZM91.6488 119.808V121.033H88.0286V119.808H91.6488ZM92.1859 116.623V117.885H88.0286V116.623H92.1859ZM93.1376 123.697C93.1376 123.468 93.2164 123.276 93.3739 123.122C93.535 122.968 93.7481 122.891 94.0131 122.891C94.278 122.891 94.4893 122.968 94.6469 123.122C94.808 123.276 94.8886 123.468 94.8886 123.697C94.8886 123.926 94.808 124.118 94.6469 124.271C94.4893 124.425 94.278 124.502 94.0131 124.502C93.7481 124.502 93.535 124.425 93.3739 124.271C93.2164 124.118 93.1376 123.926 93.1376 123.697ZM93.1376 119.266C93.1376 119.036 93.2164 118.845 93.3739 118.691C93.535 118.537 93.7481 118.46 94.0131 118.46C94.278 118.46 94.4893 118.537 94.6469 118.691C94.808 118.845 94.8886 119.036 94.8886 119.266C94.8886 119.495 94.808 119.686 94.6469 119.84C94.4893 119.994 94.278 120.071 94.0131 120.071C93.7481 120.071 93.535 119.994 93.3739 119.84C93.2164 119.686 93.1376 119.495 93.1376 119.266ZM99.0049 118.793V117.993C99.0049 117.76 99.0496 117.52 99.1392 117.273C99.2287 117.026 99.3468 116.793 99.4937 116.575C99.6405 116.353 99.8016 116.165 99.9771 116.011L100.697 116.43C100.568 116.645 100.457 116.875 100.364 117.123C100.271 117.37 100.224 117.66 100.224 117.993V118.793H99.0049ZM100.831 118.793V117.993C100.831 117.76 100.876 117.52 100.965 117.273C101.055 117.026 101.173 116.793 101.32 116.575C101.467 116.353 101.628 116.165 101.803 116.011L102.523 116.43C102.394 116.645 102.283 116.875 102.19 117.123C102.097 117.37 102.05 117.66 102.05 117.993V118.793H100.831ZM107.659 122.397C107.659 122.257 107.637 122.132 107.594 122.021C107.555 121.906 107.48 121.803 107.369 121.709C107.258 121.613 107.102 121.518 106.901 121.425C106.701 121.332 106.441 121.235 106.123 121.135C105.768 121.02 105.432 120.891 105.113 120.748C104.798 120.605 104.518 120.438 104.275 120.249C104.035 120.055 103.845 119.831 103.706 119.577C103.57 119.323 103.502 119.028 103.502 118.691C103.502 118.365 103.573 118.07 103.716 117.805C103.86 117.536 104.06 117.307 104.318 117.117C104.576 116.924 104.88 116.775 105.231 116.671C105.586 116.568 105.974 116.516 106.397 116.516C106.973 116.516 107.476 116.619 107.906 116.827C108.336 117.035 108.669 117.319 108.905 117.681C109.145 118.043 109.265 118.456 109.265 118.922H107.664C107.664 118.693 107.616 118.492 107.519 118.32C107.426 118.145 107.283 118.007 107.089 117.907C106.9 117.806 106.66 117.756 106.37 117.756C106.09 117.756 105.858 117.799 105.671 117.885C105.485 117.968 105.346 118.08 105.252 118.224C105.159 118.363 105.113 118.521 105.113 118.696C105.113 118.829 105.145 118.949 105.21 119.056C105.278 119.164 105.378 119.264 105.51 119.357C105.643 119.45 105.806 119.538 105.999 119.62C106.192 119.702 106.416 119.783 106.67 119.862C107.097 119.991 107.471 120.136 107.793 120.297C108.119 120.458 108.391 120.639 108.609 120.839C108.828 121.04 108.993 121.267 109.104 121.521C109.215 121.776 109.27 122.064 109.27 122.386C109.27 122.726 109.204 123.031 109.071 123.299C108.939 123.568 108.747 123.795 108.497 123.981C108.246 124.168 107.947 124.309 107.6 124.406C107.252 124.502 106.864 124.551 106.434 124.551C106.047 124.551 105.666 124.501 105.29 124.4C104.914 124.297 104.572 124.141 104.264 123.933C103.96 123.725 103.716 123.46 103.534 123.138C103.351 122.816 103.26 122.435 103.26 121.994H104.877C104.877 122.238 104.914 122.444 104.989 122.612C105.065 122.78 105.17 122.916 105.306 123.02C105.446 123.124 105.611 123.199 105.8 123.246C105.994 123.292 106.205 123.315 106.434 123.315C106.713 123.315 106.943 123.276 107.122 123.197C107.304 123.118 107.439 123.009 107.524 122.87C107.614 122.73 107.659 122.572 107.659 122.397ZM113.906 116.623V124.443H112.3V116.623H113.906ZM116.313 116.623V117.885H109.932V116.623H116.313ZM119.875 117.96L117.748 124.443H116.034L118.94 116.623H120.03L119.875 117.96ZM121.642 124.443L119.509 117.96L119.338 116.623H120.439L123.361 124.443H121.642ZM121.545 121.532V122.794H117.415V121.532H121.545ZM124.13 116.623H127.046C127.644 116.623 128.158 116.713 128.588 116.892C129.021 117.071 129.354 117.336 129.587 117.687C129.819 118.037 129.936 118.469 129.936 118.981C129.936 119.4 129.864 119.76 129.721 120.061C129.581 120.358 129.383 120.607 129.125 120.807C128.87 121.004 128.572 121.162 128.228 121.28L127.717 121.548H125.182L125.172 120.292H127.057C127.34 120.292 127.574 120.241 127.76 120.141C127.947 120.041 128.086 119.901 128.179 119.722C128.276 119.543 128.324 119.335 128.324 119.099C128.324 118.848 128.278 118.632 128.185 118.449C128.092 118.267 127.95 118.127 127.76 118.03C127.571 117.934 127.333 117.885 127.046 117.885H125.741V124.443H124.13V116.623ZM128.502 124.443L126.718 120.958L128.421 120.947L130.226 124.368V124.443H128.502ZM134.395 116.623V124.443H132.789V116.623H134.395ZM136.801 116.623V117.885H130.42V116.623H136.801ZM136.421 123.697C136.421 123.468 136.5 123.276 136.657 123.122C136.818 122.968 137.031 122.891 137.296 122.891C137.561 122.891 137.772 122.968 137.93 123.122C138.091 123.276 138.172 123.468 138.172 123.697C138.172 123.926 138.091 124.118 137.93 124.271C137.772 124.425 137.561 124.502 137.296 124.502C137.031 124.502 136.818 124.425 136.657 124.271C136.5 124.118 136.421 123.926 136.421 123.697ZM143.748 122.397C143.748 122.257 143.726 122.132 143.683 122.021C143.644 121.906 143.569 121.803 143.458 121.709C143.347 121.613 143.191 121.518 142.991 121.425C142.79 121.332 142.53 121.235 142.212 121.135C141.857 121.02 141.521 120.891 141.202 120.748C140.887 120.605 140.608 120.438 140.364 120.249C140.124 120.055 139.934 119.831 139.795 119.577C139.659 119.323 139.591 119.028 139.591 118.691C139.591 118.365 139.662 118.07 139.806 117.805C139.949 117.536 140.149 117.307 140.407 117.117C140.665 116.924 140.969 116.775 141.32 116.671C141.675 116.568 142.063 116.516 142.486 116.516C143.062 116.516 143.565 116.619 143.995 116.827C144.425 117.035 144.758 117.319 144.994 117.681C145.234 118.043 145.354 118.456 145.354 118.922H143.753C143.753 118.693 143.705 118.492 143.608 118.32C143.515 118.145 143.372 118.007 143.179 117.907C142.989 117.806 142.749 117.756 142.459 117.756C142.18 117.756 141.947 117.799 141.761 117.885C141.574 117.968 141.435 118.08 141.342 118.224C141.249 118.363 141.202 118.521 141.202 118.696C141.202 118.829 141.234 118.949 141.299 119.056C141.367 119.164 141.467 119.264 141.6 119.357C141.732 119.45 141.895 119.538 142.088 119.62C142.282 119.702 142.505 119.783 142.76 119.862C143.186 119.991 143.56 120.136 143.882 120.297C144.208 120.458 144.48 120.639 144.699 120.839C144.917 121.04 145.082 121.267 145.193 121.521C145.304 121.776 145.359 122.064 145.359 122.386C145.359 122.726 145.293 123.031 145.161 123.299C145.028 123.568 144.836 123.795 144.586 123.981C144.335 124.168 144.036 124.309 143.689 124.406C143.342 124.502 142.953 124.551 142.523 124.551C142.137 124.551 141.755 124.501 141.379 124.4C141.003 124.297 140.661 124.141 140.353 123.933C140.049 123.725 139.806 123.46 139.623 123.138C139.44 122.816 139.349 122.435 139.349 121.994H140.966C140.966 122.238 141.003 122.444 141.079 122.612C141.154 122.78 141.259 122.916 141.395 123.02C141.535 123.124 141.7 123.199 141.89 123.246C142.083 123.292 142.294 123.315 142.523 123.315C142.803 123.315 143.032 123.276 143.211 123.197C143.393 123.118 143.528 123.009 143.614 122.87C143.703 122.73 143.748 122.572 143.748 122.397ZM151.714 119.808V121.065H147.632V119.808H151.714ZM148.11 116.623V124.443H146.499V116.623H148.11ZM152.864 116.623V124.443H151.258V116.623H152.864ZM155.695 116.193V117.01C155.695 117.243 155.651 117.482 155.561 117.729C155.475 117.977 155.359 118.211 155.212 118.433C155.065 118.652 154.904 118.838 154.729 118.992L154.003 118.573C154.136 118.361 154.249 118.132 154.342 117.885C154.435 117.635 154.481 117.345 154.481 117.015V116.193H155.695ZM157.548 116.193V117.01C157.548 117.243 157.504 117.482 157.414 117.729C157.328 117.977 157.212 118.211 157.065 118.433C156.918 118.652 156.757 118.838 156.582 118.992L155.856 118.573C155.989 118.361 156.102 118.132 156.195 117.885C156.288 117.635 156.334 117.345 156.334 117.015V116.193H157.548Z" fill="#FFFEFF"/>
<path d="M57.7227 93.4434C57.7227 87.9205 62.1998 83.4434 67.7227 83.4434H135.723C141.246 83.4434 145.723 87.9205 145.723 93.4434V93.4434C145.723 98.9662 141.246 103.443 135.723 103.443H67.7227C62.1998 103.443 57.7227 98.9662 57.7227 93.4434V93.4434Z" fill="#8E8C99"/>
<path d="M71.8059 96.1865V97.4434H67.6433V96.1865H71.8059ZM68.1696 89.623V97.4434H66.5583V89.623H68.1696ZM71.2634 92.8081V94.0327H67.6433V92.8081H71.2634ZM71.8005 89.623V90.8853H67.6433V89.623H71.8005ZM79.1546 89.623V97.4434H77.5432L74.4011 92.2012V97.4434H72.7898V89.623H74.4011L77.5486 94.8706V89.623H79.1546ZM83.4202 95.8105L85.2625 89.623H87.0565L84.3333 97.4434H83.1517L83.4202 95.8105ZM81.723 89.623L83.5599 95.8105L83.8392 97.4434H82.6468L79.9398 89.623H81.723ZM94.6855 95.397C94.6855 95.2573 94.664 95.132 94.621 95.021C94.5817 94.9064 94.5065 94.8026 94.3955 94.7095C94.2844 94.6128 94.1287 94.5179 93.9282 94.4248C93.7276 94.3317 93.468 94.235 93.1494 94.1348C92.7949 94.0202 92.4583 93.8913 92.1396 93.748C91.8245 93.6048 91.5452 93.4383 91.3017 93.2485C91.0618 93.0552 90.872 92.8314 90.7324 92.5771C90.5963 92.3229 90.5283 92.0275 90.5283 91.6909C90.5283 91.3651 90.5999 91.0697 90.7431 90.8047C90.8863 90.5361 91.0869 90.307 91.3447 90.1172C91.6025 89.9238 91.9068 89.7752 92.2578 89.6714C92.6122 89.5675 93.0008 89.5156 93.4233 89.5156C93.9998 89.5156 94.5029 89.6195 94.9326 89.8271C95.3622 90.0348 95.6953 90.3195 95.9316 90.6812C96.1715 91.0428 96.2914 91.4564 96.2914 91.9219H94.6909C94.6909 91.6927 94.6425 91.4922 94.5458 91.3203C94.4527 91.1449 94.3095 91.007 94.1162 90.9067C93.9264 90.8065 93.6865 90.7563 93.3964 90.7563C93.1171 90.7563 92.8844 90.7993 92.6982 90.8853C92.512 90.9676 92.3723 91.0804 92.2792 91.2236C92.1861 91.3633 92.1396 91.5208 92.1396 91.6963C92.1396 91.8288 92.1718 91.9487 92.2363 92.0562C92.3043 92.1636 92.4046 92.2638 92.5371 92.3569C92.6695 92.45 92.8325 92.5378 93.0258 92.6201C93.2192 92.7025 93.443 92.783 93.6972 92.8618C94.1233 92.9907 94.4975 93.1357 94.8198 93.2969C95.1456 93.458 95.4178 93.6388 95.6362 93.8394C95.8546 94.0399 96.0193 94.2673 96.1303 94.5215C96.2413 94.7757 96.2968 95.064 96.2968 95.3862C96.2968 95.7264 96.2306 96.0308 96.0981 96.2993C95.9656 96.5679 95.774 96.7952 95.5234 96.9814C95.2727 97.1676 94.9737 97.3091 94.6264 97.4058C94.2791 97.5024 93.8906 97.5508 93.4609 97.5508C93.0742 97.5508 92.6928 97.5007 92.3168 97.4004C91.9409 97.2965 91.5989 97.1408 91.291 96.9331C90.9866 96.7254 90.7431 96.4604 90.5605 96.1382C90.3779 95.8159 90.2866 95.4346 90.2866 94.9941H91.9033C91.9033 95.2376 91.9409 95.4435 92.0161 95.6118C92.0913 95.7801 92.1969 95.9162 92.333 96.02C92.4726 96.1239 92.6373 96.1991 92.8271 96.2456C93.0205 96.2922 93.2317 96.3154 93.4609 96.3154C93.7402 96.3154 93.9693 96.276 94.1484 96.1973C94.331 96.1185 94.4653 96.0093 94.5512 95.8696C94.6407 95.73 94.6855 95.5724 94.6855 95.397ZM100.933 89.623V97.4434H99.3271V89.623H100.933ZM103.339 89.623V90.8853H96.9585V89.623H103.339ZM106.901 90.9604L104.774 97.4434H103.061L105.967 89.623H107.057L106.901 90.9604ZM108.669 97.4434L106.536 90.9604L106.364 89.623H107.465L110.387 97.4434H108.669ZM108.572 94.5322V95.7944H104.441V94.5322H108.572ZM111.156 89.623H114.073C114.671 89.623 115.185 89.7126 115.614 89.8916C116.048 90.0706 116.381 90.3356 116.613 90.6865C116.846 91.0374 116.963 91.4689 116.963 91.981C116.963 92.3999 116.891 92.7598 116.748 93.0605C116.608 93.3577 116.409 93.6066 116.151 93.8071C115.897 94.0041 115.598 94.1616 115.255 94.2798L114.744 94.5483H112.209L112.198 93.2915H114.084C114.366 93.2915 114.601 93.2414 114.787 93.1411C114.973 93.0409 115.113 92.9012 115.206 92.7222C115.303 92.5431 115.351 92.3354 115.351 92.0991C115.351 91.8485 115.305 91.6318 115.212 91.4492C115.118 91.2666 114.977 91.127 114.787 91.0303C114.597 90.9336 114.359 90.8853 114.073 90.8853H112.768V97.4434H111.156V89.623ZM115.528 97.4434L113.745 93.9575L115.448 93.9468L117.253 97.3682V97.4434H115.528ZM121.422 89.623V97.4434H119.816V89.623H121.422ZM123.828 89.623V90.8853H117.447V89.623H123.828ZM133.592 95.1334C133.666 94.9427 133.746 94.7667 133.834 94.6054C133.922 94.4367 134.021 94.279 134.131 94.1324H128.235V93.2304H134.131C134.029 93.0837 133.933 92.9297 133.845 92.7684C133.757 92.5997 133.677 92.42 133.603 92.2294H134.439C134.894 92.7647 135.393 93.1717 135.935 93.4504V93.9234C135.393 94.1874 134.894 94.5907 134.439 95.1334H133.592Z" fill="#FFFEFF"/>
<rect x="120.973" y="159.193" width="35.5" height="18.5" rx="9.25" fill="white"/>
<rect x="120.973" y="159.193" width="35.5" height="18.5" rx="9.25" stroke="#8E8C99" stroke-width="1.5" stroke-dasharray="2 2"/>
<path d="M132.084 170.042V164.623H133.69V170.042C133.69 170.565 133.576 171.015 133.347 171.391C133.118 171.763 132.804 172.049 132.407 172.25C132.013 172.451 131.569 172.551 131.075 172.551C130.563 172.551 130.11 172.465 129.716 172.293C129.322 172.121 129.012 171.858 128.787 171.503C128.561 171.145 128.448 170.692 128.448 170.145H130.065C130.065 170.431 130.104 170.658 130.183 170.827C130.265 170.995 130.382 171.115 130.532 171.187C130.683 171.258 130.863 171.294 131.075 171.294C131.279 171.294 131.456 171.246 131.606 171.149C131.757 171.052 131.873 170.911 131.956 170.725C132.042 170.538 132.084 170.311 132.084 170.042ZM141.533 168.351V168.721C141.533 169.316 141.453 169.849 141.292 170.322C141.13 170.794 140.903 171.197 140.609 171.53C140.316 171.86 139.965 172.112 139.557 172.288C139.152 172.463 138.703 172.551 138.209 172.551C137.718 172.551 137.269 172.463 136.86 172.288C136.456 172.112 136.105 171.86 135.808 171.53C135.51 171.197 135.28 170.794 135.115 170.322C134.954 169.849 134.873 169.316 134.873 168.721V168.351C134.873 167.753 134.954 167.219 135.115 166.75C135.276 166.277 135.503 165.875 135.797 165.542C136.094 165.208 136.445 164.954 136.85 164.779C137.258 164.603 137.707 164.516 138.198 164.516C138.692 164.516 139.141 164.603 139.546 164.779C139.954 164.954 140.305 165.208 140.599 165.542C140.896 165.875 141.125 166.277 141.286 166.75C141.451 167.219 141.533 167.753 141.533 168.351ZM139.906 168.721V168.34C139.906 167.924 139.868 167.559 139.793 167.244C139.718 166.929 139.607 166.664 139.46 166.449C139.313 166.234 139.134 166.073 138.923 165.966C138.712 165.855 138.47 165.799 138.198 165.799C137.926 165.799 137.684 165.855 137.473 165.966C137.265 166.073 137.088 166.234 136.941 166.449C136.798 166.664 136.689 166.929 136.613 167.244C136.538 167.559 136.501 167.924 136.501 168.34V168.721C136.501 169.133 136.538 169.498 136.613 169.817C136.689 170.132 136.8 170.399 136.946 170.617C137.093 170.832 137.272 170.995 137.483 171.106C137.695 171.217 137.936 171.272 138.209 171.272C138.481 171.272 138.722 171.217 138.934 171.106C139.145 170.995 139.322 170.832 139.465 170.617C139.609 170.399 139.718 170.132 139.793 169.817C139.868 169.498 139.906 169.133 139.906 168.721ZM145.799 169.011H143.79L143.779 167.905H145.466C145.763 167.905 146.007 167.867 146.196 167.792C146.386 167.713 146.528 167.6 146.621 167.454C146.717 167.303 146.766 167.121 146.766 166.906C146.766 166.662 146.719 166.465 146.626 166.315C146.537 166.165 146.395 166.055 146.202 165.987C146.012 165.919 145.767 165.885 145.466 165.885H144.349V172.443H142.737V164.623H145.466C145.921 164.623 146.327 164.666 146.685 164.752C147.047 164.838 147.353 164.969 147.604 165.144C147.854 165.319 148.046 165.542 148.178 165.81C148.311 166.075 148.377 166.39 148.377 166.755C148.377 167.078 148.304 167.375 148.157 167.647C148.014 167.919 147.786 168.141 147.475 168.313C147.167 168.485 146.764 168.58 146.266 168.598L145.799 169.011ZM145.729 172.443H143.35L143.978 171.187H145.729C146.012 171.187 146.243 171.142 146.422 171.052C146.601 170.959 146.734 170.834 146.819 170.676C146.905 170.519 146.948 170.338 146.948 170.134C146.948 169.905 146.909 169.706 146.83 169.538C146.755 169.369 146.633 169.24 146.465 169.151C146.297 169.058 146.075 169.011 145.799 169.011H144.247L144.257 167.905H146.191L146.562 168.34C147.038 168.333 147.421 168.417 147.711 168.592C148.005 168.764 148.218 168.988 148.35 169.264C148.486 169.539 148.554 169.835 148.554 170.15C148.554 170.651 148.445 171.074 148.227 171.417C148.008 171.758 147.688 172.014 147.265 172.186C146.846 172.357 146.334 172.443 145.729 172.443Z" fill="#65636D"/>
<defs>
<filter id="filter0_dd_28400_29202" x="2.6524" y="3.18028" width="62.7519" height="59.5878" filterUnits="userSpaceOnUse" color-interpolation-filters="sRGB">
<feFlood flood-opacity="0" result="BackgroundImageFix"/>
<feColorMatrix in="SourceAlpha" type="matrix" values="0 0 0 0 0 0 0 0 0 0 0 0 0 0 0 0 0 0 127 0" result="hardAlpha"/>
<feMorphology radius="0.763944" operator="erode" in="SourceAlpha" result="effect1_dropShadow_28400_29202"/>
<feOffset dy="1.52789"/>
<feGaussianBlur stdDeviation="3.05577"/>
<feColorMatrix type="matrix" values="0 0 0 0 0.105882 0 0 0 0 0.141176 0 0 0 0 0.172549 0 0 0 0.08 0"/>
<feBlend mode="normal" in2="BackgroundImageFix" result="effect1_dropShadow_28400_29202"/>
<feColorMatrix in="SourceAlpha" type="matrix" values="0 0 0 0 0 0 0 0 0 0 0 0 0 0 0 0 0 0 127 0" result="hardAlpha"/>
<feMorphology radius="0.763944" operator="erode" in="SourceAlpha" result="effect2_dropShadow_28400_29202"/>
<feOffset dy="1.52789"/>
<feGaussianBlur stdDeviation="0.763944"/>
<feComposite in2="hardAlpha" operator="out"/>
<feColorMatrix type="matrix" values="0 0 0 0 0.105882 0 0 0 0 0.141176 0 0 0 0 0.172549 0 0 0 0.04 0"/>
<feBlend mode="normal" in2="effect1_dropShadow_28400_29202" result="effect2_dropShadow_28400_29202"/>
<feBlend mode="normal" in="SourceGraphic" in2="effect2_dropShadow_28400_29202" result="shape"/>
</filter>
<filter id="filter1_dd_28400_29202" x="124.568" y="162.476" width="59.5878" height="59.5878" filterUnits="userSpaceOnUse" color-interpolation-filters="sRGB">
<feFlood flood-opacity="0" result="BackgroundImageFix"/>
<feColorMatrix in="SourceAlpha" type="matrix" values="0 0 0 0 0 0 0 0 0 0 0 0 0 0 0 0 0 0 127 0" result="hardAlpha"/>
<feMorphology radius="0.763944" operator="erode" in="SourceAlpha" result="effect1_dropShadow_28400_29202"/>
<feOffset dy="1.52789"/>
<feGaussianBlur stdDeviation="3.05577"/>
<feColorMatrix type="matrix" values="0 0 0 0 0.105882 0 0 0 0 0.141176 0 0 0 0 0.172549 0 0 0 0.08 0"/>
<feBlend mode="normal" in2="BackgroundImageFix" result="effect1_dropShadow_28400_29202"/>
<feColorMatrix in="SourceAlpha" type="matrix" values="0 0 0 0 0 0 0 0 0 0 0 0 0 0 0 0 0 0 127 0" result="hardAlpha"/>
<feMorphology radius="0.763944" operator="erode" in="SourceAlpha" result="effect2_dropShadow_28400_29202"/>
<feOffset dy="1.52789"/>
<feGaussianBlur stdDeviation="0.763944"/>
<feComposite in2="hardAlpha" operator="out"/>
<feColorMatrix type="matrix" values="0 0 0 0 0.105882 0 0 0 0 0.141176 0 0 0 0 0.172549 0 0 0 0.04 0"/>
<feBlend mode="normal" in2="effect1_dropShadow_28400_29202" result="effect2_dropShadow_28400_29202"/>
<feBlend mode="normal" in="SourceGraphic" in2="effect2_dropShadow_28400_29202" result="shape"/>
</filter>
<clipPath id="clip0_28400_29202">
<rect width="36.6693" height="36.6693" fill="white" transform="translate(136.027 172.407)"/>
</clipPath>
</defs>
</svg>
