<svg width="22" height="21" viewBox="0 0 22 21" fill="none" xmlns="http://www.w3.org/2000/svg">
  <path d="M9.38555 19.6332L9.38553 19.6332L9.38692 19.634C9.88414 19.9116 10.4401 20.0517 11.0027 20.0411C11.5642 20.0523 12.1189 19.9122 12.6144 19.634L12.6144 19.634L12.6157 19.6332L21.0777 14.4794C21.2844 14.4019 21.463 14.2591 21.5894 14.0709C21.7165 13.8815 21.7847 13.6554 21.7847 13.4237C21.7847 13.1921 21.7165 12.9659 21.5894 12.7766C21.463 12.5883 21.2844 12.4455 21.0777 12.368L12.6157 7.2142L12.6157 7.21415L12.6137 7.21304C12.1137 6.94603 11.5612 6.80684 11.0006 6.80684C10.4401 6.80684 9.88753 6.94603 9.3876 7.21304L9.38757 7.21298L9.38555 7.21421L0.926329 12.3689C0.730617 12.4617 0.562173 12.6078 0.438176 12.7918C0.313762 12.9765 0.238563 13.1927 0.220187 13.4181L0.2196 13.418L0.220203 13.425C0.239607 13.6506 0.315126 13.8668 0.43931 14.052C0.563114 14.2365 0.730968 14.3837 0.926167 14.4784L9.38555 19.6332ZM20.9686 14.258L20.9683 14.2571L20.9607 14.2617L12.5006 19.426C12.0354 19.674 11.5216 19.8031 11.0006 19.8031C10.4796 19.8031 9.96586 19.674 9.50062 19.426L1.04056 14.2617L1.04105 14.2609L1.03263 14.258C0.865612 14.1994 0.719888 14.0867 0.616415 13.9354C0.512923 13.784 0.457075 13.6018 0.457075 13.4147C0.457075 13.2275 0.512923 13.0454 0.616415 12.894C0.719888 12.7426 0.865612 12.6299 1.03263 12.5714L1.03294 12.5723L1.04053 12.5676L9.5006 7.41241C9.96584 7.16441 10.4796 7.03526 11.0006 7.03526C11.5216 7.03526 12.0354 7.16441 12.5007 7.41241L20.9607 12.5676L20.9602 12.5684L20.9686 12.5714C21.1357 12.6299 21.2814 12.7426 21.3848 12.894C21.4883 13.0454 21.5442 13.2275 21.5442 13.4147C21.5442 13.6018 21.4883 13.784 21.3848 13.9354C21.2814 14.0867 21.1357 14.1994 20.9686 14.258Z" fill="#42E8E0" stroke="#42E8E0" stroke-width="0.0833382"/>
  <path opacity="0.4" d="M21.9997 11.4439V8.38738L21.4693 8.07586C21.3196 9.02847 20.2587 9.66053 19.3647 9.79146L13.3033 13.5297L10.6555 14.541L2.21152 9.94045L2.40828 9.82306C1.68537 9.4664 1.29611 8.64923 0.906849 7.90881L0.337928 8.26548L0 8.3648V11.4755C0.0223913 11.711 0.102898 11.9363 0.233494 12.1288C0.36409 12.3213 0.540208 12.4743 0.744298 12.5725L9.20112 17.7284C9.75844 18.0245 10.3737 18.1788 10.9977 18.1788C11.6217 18.1788 12.237 18.0245 12.7943 17.7284L21.2554 12.5725C21.4558 12.4756 21.6292 12.3258 21.7588 12.1376C21.8884 11.9494 21.9699 11.7291 21.9954 11.498V11.4439H21.9997Z" fill="#42E8E0"/>
  <path d="M21.9997 8.72608V6.70348L21.4693 6.39196C21.3196 7.34457 20.2587 7.97664 19.3647 8.10756L13.3033 11.8503L10.6555 12.8571L2.21152 8.25655L2.40828 8.13917C1.68537 7.7825 1.29611 6.96985 0.906849 6.22491L0.337928 6.58158L0 6.68542V8.75769C0.0223913 8.99326 0.102898 9.21852 0.233494 9.41102C0.36409 9.60351 0.540208 9.75652 0.744298 9.85477L9.20112 15.0106C9.75844 15.3068 10.3737 15.461 10.9977 15.461C11.6217 15.461 12.237 15.3068 12.7943 15.0106L21.2554 9.85477C21.4564 9.75745 21.6301 9.60696 21.7598 9.41791C21.8894 9.22886 21.9706 9.00765 21.9954 8.77574V8.72608H21.9997Z" fill="url(#paint0_linear_5424_4707)"/>
  <path opacity="0.3" d="M19.3656 8.10746L13.3043 11.8502L11.0029 12.726V15.462C11.6285 15.4756 12.2469 15.3202 12.7995 15.0105L21.2606 9.85467C21.4616 9.75734 21.6353 9.60686 21.765 9.4178C21.8947 9.22875 21.9758 9.00755 22.0006 8.77564V8.72598V6.70337L21.5173 6.41895H21.4659C21.3034 7.35801 20.2511 7.97653 19.3656 8.10746Z" fill="#0F054C"/>
  <path d="M9.20185 12.9427L0.745035 7.79588C-0.247368 7.19542 -0.247368 6.21121 0.745035 5.60623L9.20185 0.450393C9.75918 0.154251 10.3745 0 10.9984 0C11.6224 0 12.2377 0.154251 12.795 0.450393L21.2561 5.60623C22.2443 6.21121 22.2443 7.19542 21.2561 7.79588L12.7993 12.9427C12.242 13.2417 11.6257 13.3975 11.0006 13.3975C10.3754 13.3975 9.75913 13.2417 9.20185 12.9427Z" fill="url(#paint1_linear_5424_4707)"/>
  <path d="M21.26 7.79611L12.7989 12.9429C12.2421 13.2412 11.6266 13.3966 11.0023 13.3966C10.3779 13.3966 9.76243 13.2412 9.2057 12.9429L0.7446 7.79611C0.5599 7.70552 0.397458 7.57124 0.269864 7.40369C0.142271 7.23614 0.0529543 7.03982 0.00885233 6.82996C-0.0510341 7.28143 0.19279 7.73291 0.7446 8.04894L9.20142 13.2048C9.75815 13.503 10.3737 13.6584 10.998 13.6584C11.6223 13.6584 12.2379 13.503 12.7946 13.2048L21.2557 8.04894C21.4816 7.94985 21.6731 7.77962 21.804 7.56148C21.9349 7.34333 21.9989 7.08788 21.9872 6.82996C21.9437 7.03881 21.8555 7.23442 21.7295 7.40186C21.6035 7.5693 21.4429 7.70415 21.26 7.79611Z" fill="white"/>
  <defs>
    <linearGradient id="paint0_linear_5424_4707" x1="5667.34" y1="960.036" x2="6081.41" y2="1529.42" gradientUnits="userSpaceOnUse">
      <stop stop-color="#BCBEFF"/>
      <stop offset="0.23" stop-color="#AAADF8"/>
      <stop offset="0.68" stop-color="#7C83E5"/>
      <stop offset="1" stop-color="#5761D7"/>
    </linearGradient>
    <linearGradient id="paint1_linear_5424_4707" x1="5553.89" y1="1502.93" x2="6685.17" y2="1502.93" gradientUnits="userSpaceOnUse">
      <stop stop-color="#E9E9FD"/>
      <stop offset="0.36" stop-color="#D3D2F9"/>
      <stop offset="0.71" stop-color="#C5C4F7"/>
      <stop offset="1" stop-color="#C0BFF6"/>
    </linearGradient>
  </defs>
</svg>
