<svg width="20" height="20" viewBox="0 0 20 20" fill="none" xmlns="http://www.w3.org/2000/svg">
<g clip-path="url(#clip0_389_14428)">
<path d="M17.84 9.98062C17.84 14.2806 14.3541 17.7666 10.054 17.7666C5.75387 17.7666 2.26807 14.2806 2.26807 9.98062C2.26807 5.68111 5.75387 2.19531 10.054 2.19531C14.3541 2.19531 17.84 5.68111 17.84 9.98062Z" fill="#B6CFEA"/>
<path d="M2.12423 11.9273C2.07613 11.9303 2.02795 11.923 1.98287 11.9059C1.9378 11.8889 1.89687 11.8624 1.86279 11.8283C1.82871 11.7943 1.80227 11.7533 1.78521 11.7082C1.76815 11.6632 1.76087 11.615 1.76385 11.5669V8.68331C1.76084 8.63519 1.76808 8.58698 1.7851 8.54187C1.80211 8.49676 1.82851 8.45578 1.86255 8.42163C1.8967 8.38759 1.93768 8.36119 1.98279 8.34418C2.0279 8.32716 2.07611 8.31992 2.12423 8.32293C2.17233 8.31995 2.22052 8.32724 2.26559 8.34429C2.31066 8.36135 2.35159 8.3878 2.38567 8.42187C2.41975 8.45595 2.44619 8.49688 2.46325 8.54196C2.48031 8.58703 2.48759 8.63521 2.48461 8.68331V11.5671C2.49055 11.6637 2.45409 11.7592 2.38523 11.8282C2.35119 11.8623 2.31031 11.8888 2.26529 11.9059C2.22027 11.923 2.17213 11.9303 2.12406 11.9274L2.12423 11.9273ZM17.84 11.9273C17.7919 11.9302 17.7438 11.9228 17.6987 11.9057C17.6537 11.8885 17.6128 11.862 17.5788 11.8279C17.5448 11.7939 17.5184 11.753 17.5013 11.708C17.4842 11.663 17.4768 11.6149 17.4796 11.5669V8.68331C17.4767 8.63515 17.4841 8.58692 17.5012 8.54181C17.5184 8.4967 17.5449 8.45574 17.579 8.42163C17.613 8.38761 17.6539 8.36121 17.6989 8.3442C17.7439 8.32718 17.792 8.31993 17.84 8.32293C17.888 8.31993 17.9361 8.32718 17.9811 8.3442C18.0261 8.36121 18.067 8.38761 18.101 8.42163C18.1705 8.49066 18.2062 8.58614 18.2004 8.68331V11.5671C18.2034 11.6152 18.1961 11.6633 18.1789 11.7084C18.1618 11.7534 18.1352 11.7943 18.101 11.8282C18.067 11.8623 18.0261 11.8888 17.9811 11.9059C17.9361 11.923 17.8879 11.9304 17.8398 11.9274L17.84 11.9273Z" fill="#B6CFEA"/>
<mask id="mask0_389_14428" style="mask-type:alpha" maskUnits="userSpaceOnUse" x="2" y="2" width="16" height="16">
<path d="M17.84 9.98062C17.84 14.2806 14.3541 17.7666 10.054 17.7666C5.75387 17.7666 2.26807 14.2806 2.26807 9.98062C2.26807 5.68111 5.75387 2.19531 10.054 2.19531C14.3541 2.19531 17.84 5.68111 17.84 9.98062Z" fill="#B6CFEA"/>
</mask>
<g mask="url(#mask0_389_14428)">
<path d="M17.5517 9.97976C17.5517 14.1209 14.1949 17.4774 10.0538 17.4774C5.91338 17.4774 2.55664 14.1209 2.55664 9.97976C2.55664 5.83933 5.91338 2.48242 10.0538 2.48242C14.1949 2.48242 17.5515 5.83916 17.5515 9.97959L17.5517 9.97976Z" fill="#E6F5F8"/>
<path d="M16.1819 10.124C16.1819 13.5084 13.4387 16.2517 10.0541 16.2517C6.6701 16.2517 3.92627 13.5084 3.92627 10.1238C3.92627 6.73993 6.67027 3.99609 10.0541 3.99609C13.4387 3.99609 16.1819 6.74027 16.1819 10.124Z" fill="#D0E8F0"/>
<path d="M6.44926 13.0078C6.44926 13.0078 6.95396 21.1542 6.95396 21.2987C6.95396 21.3702 7.02621 21.5146 6.66515 21.6591C6.30476 21.8029 5.15137 22.0915 5.15137 22.0915H6.88172C7.67473 22.0915 7.67473 21.4425 7.67473 21.2987C7.67473 21.1542 7.89079 18.0545 7.89079 18.0545C7.89079 18.0545 7.96287 21.7313 7.96287 21.8749C7.96287 22.0194 7.89079 22.2353 7.38659 22.3798C7.02621 22.4521 5.94438 22.6681 5.94438 22.6681H7.60265C8.61224 22.6681 8.61224 22.0194 8.61224 22.0194L8.82813 18.7753C8.82813 18.7753 8.90038 22.0194 8.90038 22.3798C8.90038 22.6681 8.68431 22.8847 7.89079 23.0283C7.38659 23.1728 6.73739 23.3172 6.73739 23.3172H8.61224C9.5489 23.2451 9.69339 22.5957 9.69339 22.5957L11.2792 14.5216L6.44926 13.0078Z" fill="#EE794B"/>
<path d="M13.6584 13.0089C13.6584 13.0089 13.1542 21.1552 13.1542 21.2997C13.1542 21.3713 13.082 21.5156 13.4425 21.6601C13.8028 21.8039 14.9562 22.0926 14.9562 22.0926H13.2258C12.4328 22.0926 12.4328 21.4435 12.4328 21.2997C12.4328 21.1552 12.2169 18.0556 12.2169 18.0556C12.2169 18.0556 12.1447 21.7324 12.1447 21.876C12.1447 22.0205 12.2169 22.2364 12.7216 22.3809L14.1631 22.6692H12.5052C11.4961 22.6692 11.4961 22.0205 11.4961 22.0205L11.2796 18.7764C11.2796 18.7764 11.2073 22.0205 11.2073 22.3809C11.2073 22.6692 11.4241 22.8858 12.2171 23.0294C12.7218 23.1739 13.3703 23.3182 13.3703 23.3182H11.4961C10.5586 23.2461 10.4141 22.5968 10.4141 22.5968L8.82845 14.5228L13.6584 13.0089ZM13.7305 9.04397C13.7305 11.0626 12.0724 12.6485 10.126 12.6485C8.17976 12.6485 6.52148 10.9904 6.52148 9.04397C6.52148 7.09773 8.17976 5.43945 10.126 5.43945C12.0724 5.43945 13.7305 7.02548 13.7305 9.04397Z" fill="#EE794B"/>
<mask id="mask1_389_14428" style="mask-type:luminance" maskUnits="userSpaceOnUse" x="6" y="8" width="8" height="10">
<path d="M6.32031 8.87695H13.7824V17.5262H6.32031V8.87695Z" fill="white"/>
</mask>
<g mask="url(#mask1_389_14428)">
<mask id="mask2_389_14428" style="mask-type:luminance" maskUnits="userSpaceOnUse" x="6" y="8" width="8" height="11">
<path d="M13.7306 8.8986L13.2982 18.7753H6.8099L6.5791 8.86719" fill="white"/>
</mask>
<g mask="url(#mask2_389_14428)">
<path d="M16.542 10.9901C16.542 14.5337 13.6696 17.4063 10.126 17.4063C6.58252 17.4063 3.70996 14.5337 3.70996 10.9902C3.70996 7.4466 6.58252 4.57422 10.126 4.57422C13.6696 4.57422 16.542 7.44643 16.542 10.9901Z" fill="#EE794B"/>
</g>
</g>
<mask id="mask3_389_14428" style="mask-type:luminance" maskUnits="userSpaceOnUse" x="-1" y="1" width="22" height="23">
<path d="M-0.802734 1.92383H20.9051V23.6316H-0.802734V1.92383Z" fill="black" fill-opacity="0.22"/>
</mask>
<g mask="url(#mask3_389_14428)">
<mask id="mask4_389_14428" style="mask-type:luminance" maskUnits="userSpaceOnUse" x="-1" y="1" width="22" height="23">
<path d="M-0.802734 1.92383H20.9051V23.6316H-0.802734V1.92383Z" fill="white"/>
</mask>
<g mask="url(#mask4_389_14428)">
<path d="M13.5146 13.0096C13.5146 13.0096 13.9471 9.18853 13.3701 7.74699C12.289 5.22363 9.76562 5.4402 9.76562 5.4402C9.76562 5.4402 11.2072 6.01664 11.2794 8.17962C11.3517 9.6934 11.2794 11.9285 11.2794 11.9285L13.5146 13.0096Z" fill="#E34E3B"/>
</g>
</g>
<mask id="mask5_389_14428" style="mask-type:luminance" maskUnits="userSpaceOnUse" x="-1" y="1" width="22" height="23">
<path d="M-0.802734 1.92383H20.9051V23.6316H-0.802734V1.92383Z" fill="black" fill-opacity="0.502"/>
</mask>
<g mask="url(#mask5_389_14428)">
<mask id="mask6_389_14428" style="mask-type:luminance" maskUnits="userSpaceOnUse" x="-1" y="1" width="22" height="23">
<path d="M-0.802734 1.92383H20.9051V23.6316H-0.802734V1.92383Z" fill="white"/>
</mask>
<g mask="url(#mask6_389_14428)">
<path d="M9.11616 7.09837C9.11612 7.16461 9.10304 7.23019 9.07767 7.29137C9.05229 7.35255 9.01511 7.40813 8.96825 7.45494C8.92139 7.50175 8.86577 7.53887 8.80457 7.56419C8.74336 7.58951 8.67777 7.60252 8.61154 7.60249C8.5453 7.60245 8.47972 7.58937 8.41854 7.564C8.35736 7.53862 8.30178 7.50144 8.25497 7.45458C8.20816 7.40772 8.17103 7.3521 8.14572 7.2909C8.1204 7.22969 8.10739 7.1641 8.10742 7.09786C8.10749 6.9641 8.16069 6.83584 8.25533 6.7413C8.34996 6.64676 8.47828 6.59368 8.61204 6.59375C8.74581 6.59382 8.87407 6.64702 8.96861 6.74166C9.06315 6.83629 9.11622 6.96461 9.11616 7.09837Z" fill="#FBDFC3"/>
</g>
</g>
<path d="M11.352 14.4503C11.352 15.6759 10.775 16.4696 10.0542 16.4696C9.33347 16.4696 8.75635 15.5321 8.75635 14.3066C8.75635 14.3066 9.33347 15.4599 10.1263 15.4599C10.9193 15.4599 11.352 14.4503 11.352 14.4503Z" fill="#010101"/>
<path d="M11.3515 14.4505C11.3515 15.2442 10.7745 15.6761 10.0538 15.6761C9.333 15.6761 8.82812 15.0997 8.82812 14.3789C8.82812 14.3789 9.40508 15.0997 10.1981 15.0997C10.9911 15.0997 11.3515 14.4505 11.3515 14.4505Z" fill="white"/>
<path d="M14.8116 11.0614C14.8116 12.2955 13.8113 13.2958 12.5772 13.2958C11.3429 13.2958 10.3419 12.2955 10.3419 11.0614C10.3419 9.82711 11.3429 8.82617 12.5772 8.82617C13.8113 8.82617 14.8116 9.82711 14.8116 11.0614ZM9.76551 11.0614C9.76551 12.2955 8.76457 13.2958 7.53028 13.2958C6.29615 13.2958 5.2959 12.2955 5.2959 11.0614C5.2959 9.82711 6.29615 8.82617 7.53045 8.82617C8.76457 8.82617 9.76551 9.82711 9.76551 11.0614Z" fill="#E9654B"/>
<path d="M14.3075 11.0624C14.3075 12.0177 13.5325 12.7927 12.5771 12.7927C11.6218 12.7927 10.8466 12.0177 10.8466 11.0624C10.8466 10.1064 11.6217 9.33203 12.5771 9.33203C13.5323 9.33203 14.3075 10.1064 14.3075 11.0624ZM9.11627 11.0624C9.11627 12.0177 8.34191 12.7927 7.3866 12.7927C6.43061 12.7927 5.65625 12.0177 5.65625 11.0624C5.65621 10.8351 5.70093 10.6101 5.78787 10.4002C5.87482 10.1902 6.00227 9.99943 6.16296 9.83874C6.32365 9.67805 6.51442 9.5506 6.72437 9.46366C6.93433 9.37671 7.15936 9.33199 7.3866 9.33203C8.34191 9.33203 9.11627 10.1064 9.11627 11.0624Z" fill="white"/>
<path d="M7.89091 10.8462C7.89094 10.9124 7.87793 10.978 7.8526 11.0393C7.82728 11.1005 7.79014 11.1561 7.74331 11.203C7.69649 11.2499 7.64089 11.2871 7.57969 11.3125C7.51849 11.3378 7.45288 11.3509 7.38663 11.351C7.32037 11.351 7.25476 11.338 7.19353 11.3126C7.1323 11.2873 7.07667 11.2502 7.02979 11.2034C6.98292 11.1565 6.94573 11.1009 6.92034 11.0397C6.89495 10.9785 6.88187 10.9129 6.88184 10.8467C6.88175 10.7129 6.93482 10.5845 7.02937 10.4898C7.12393 10.3951 7.25222 10.3419 7.38603 10.3418C7.51985 10.3417 7.64821 10.3948 7.7429 10.4893C7.83758 10.5839 7.89082 10.7124 7.89091 10.8462ZM13.082 10.8462C13.0832 10.9132 13.0711 10.9798 13.0463 11.0421C13.0215 11.1044 12.9845 11.1612 12.9375 11.209C12.8906 11.2569 12.8345 11.2949 12.7727 11.3209C12.7109 11.3468 12.6445 11.3602 12.5774 11.3602C12.5104 11.3602 12.444 11.3469 12.3821 11.3209C12.3203 11.295 12.2643 11.257 12.2173 11.2092C12.1703 11.1613 12.1333 11.1046 12.1085 11.0423C12.0837 10.98 12.0715 10.9134 12.0727 10.8463C12.0751 10.7141 12.1293 10.5881 12.2236 10.4954C12.318 10.4027 12.4449 10.3508 12.5772 10.3507C12.7094 10.3507 12.8364 10.4025 12.9308 10.4952C13.0252 10.5878 13.0795 10.7139 13.082 10.8462Z" fill="#010101"/>
<path d="M7.96346 4.2139C7.96346 4.30948 7.9255 4.40114 7.85791 4.46873C7.79033 4.53631 7.69866 4.57428 7.60308 4.57428C7.5075 4.57428 7.41584 4.53631 7.34825 4.46873C7.28067 4.40114 7.2427 4.30948 7.2427 4.2139C7.2427 4.11832 7.28067 4.02665 7.34825 3.95907C7.41584 3.89148 7.5075 3.85352 7.60308 3.85352C7.69866 3.85352 7.79033 3.89148 7.85791 3.95907C7.9255 4.02665 7.96346 4.11832 7.96346 4.2139ZM5.00815 13.9461C4.96893 13.9511 4.9291 13.9472 4.89159 13.9347C4.85409 13.9222 4.81985 13.9015 4.79141 13.874C3.92632 12.7929 3.49369 11.4229 3.49369 10.053C3.48983 8.914 3.78842 7.79443 4.35895 6.80866C4.9373 5.87037 5.72724 5.08049 6.66557 4.50221C6.72581 4.47519 6.79297 4.46762 6.8577 4.48054C6.92244 4.49346 6.98155 4.52622 7.02681 4.57428C7.05356 4.63445 7.06096 4.70145 7.04799 4.76601C7.03501 4.83057 7.00231 4.8895 6.95439 4.93467C6.06008 5.43994 5.31548 6.17298 4.79629 7.05928C4.27709 7.94558 4.0018 8.95354 3.9984 9.98072C3.99639 11.263 4.42837 12.5081 5.22404 13.5137C5.29629 13.5859 5.29629 13.802 5.15179 13.874C5.07972 13.9463 5.07972 13.9461 5.00815 13.9461Z" fill="white"/>
</g>
</g>
<circle cx="10" cy="10" r="9.5" stroke="#42E8E0" stroke-opacity="0.3"/>
<circle cx="10" cy="10" r="9.1" stroke="#42E8E0" stroke-width="0.2"/>
<defs>
<clipPath id="clip0_389_14428">
<rect width="16.6667" height="16.6667" fill="white" transform="translate(1.6665 1.66602)"/>
</clipPath>
</defs>
</svg>
