<svg width="24" height="24" viewBox="0 0 24 24" fill="none" xmlns="http://www.w3.org/2000/svg">
  <path opacity="0.16" d="M12.7719 14.7922C12.5941 14.703 12.3923 14.656 12.187 14.656C11.9816 14.656 11.7799 14.703 11.6021 14.7922L4.62804 18.2844C4.60299 18.297 4.58219 18.315 4.56773 18.3368C4.55327 18.3585 4.54565 18.3832 4.54565 18.4084C4.54565 18.4335 4.55327 18.4582 4.56773 18.4799C4.58219 18.5017 4.60299 18.5198 4.62804 18.5323L11.6602 22.0612C11.8171 22.1401 11.9951 22.1817 12.1764 22.1817C12.3577 22.1817 12.5358 22.1401 12.6927 22.0612L19.7345 18.5354C19.7595 18.5228 19.7803 18.5048 19.7948 18.483C19.8093 18.4612 19.8169 18.4365 19.8169 18.4114C19.8169 18.3863 19.8093 18.3616 19.7948 18.3398C19.7803 18.3181 19.7595 18.3 19.7345 18.2875L12.7719 14.7922Z" fill="url(#paint0_linear_5424_4995)"/>
  <path opacity="0.16" d="M12.7719 13.7709C12.594 13.6818 12.3923 13.6349 12.187 13.6349C11.9817 13.6349 11.78 13.6818 11.6021 13.7709L4.62804 17.263C4.60299 17.2756 4.58219 17.2937 4.56773 17.3154C4.55327 17.3372 4.54565 17.3619 4.54565 17.387C4.54565 17.4121 4.55327 17.4368 4.56773 17.4586C4.58219 17.4803 4.60299 17.4984 4.62804 17.511L11.6602 21.0398C11.8171 21.1188 11.9951 21.1603 12.1764 21.1603C12.3577 21.1603 12.5358 21.1188 12.6927 21.0398L19.7345 17.514C19.7595 17.5015 19.7803 17.4834 19.7948 17.4616C19.8093 17.4399 19.8169 17.4152 19.8169 17.3901C19.8169 17.3649 19.8093 17.3402 19.7948 17.3185C19.7803 17.2967 19.7595 17.2787 19.7345 17.2661L12.7719 13.7709Z" fill="url(#paint1_linear_5424_4995)"/>
  <path opacity="0.16" d="M12.7719 12.7493C12.594 12.6602 12.3923 12.6133 12.187 12.6133C11.9817 12.6133 11.78 12.6602 11.6021 12.7493L4.62804 16.24C4.60299 16.2525 4.58219 16.2706 4.56773 16.2923C4.55327 16.3141 4.54565 16.3388 4.54565 16.3639C4.54565 16.3891 4.55327 16.4137 4.56773 16.4355C4.58219 16.4573 4.60299 16.4753 4.62804 16.4879L11.6602 20.0175C11.8172 20.0961 11.9952 20.1374 12.1764 20.1374C12.3576 20.1374 12.5356 20.0961 12.6927 20.0175L19.7345 16.4917C19.7595 16.4792 19.7803 16.4611 19.7948 16.4393C19.8093 16.4176 19.8169 16.3929 19.8169 16.3677C19.8169 16.3426 19.8093 16.3179 19.7948 16.2962C19.7803 16.2744 19.7595 16.2563 19.7345 16.2438L12.7719 12.7493Z" fill="url(#paint2_linear_5424_4995)"/>
  <path opacity="0.16" d="M12.7719 11.7255C12.5941 11.6363 12.3923 11.5893 12.187 11.5893C11.9816 11.5893 11.7799 11.6363 11.6021 11.7255L4.62804 15.2177C4.60299 15.2302 4.58219 15.2483 4.56773 15.2701C4.55327 15.2918 4.54565 15.3165 4.54565 15.3416C4.54565 15.3668 4.55327 15.3915 4.56773 15.4132C4.58219 15.435 4.60299 15.453 4.62804 15.4656L11.6602 18.9945C11.8171 19.0734 11.9951 19.115 12.1764 19.115C12.3577 19.115 12.5358 19.0734 12.6927 18.9945L19.7345 15.4687C19.7595 15.4561 19.7803 15.438 19.7948 15.4163C19.8093 15.3945 19.8169 15.3698 19.8169 15.3447C19.8169 15.3196 19.8093 15.2949 19.7948 15.2731C19.7803 15.2514 19.7595 15.2333 19.7345 15.2207L12.7719 11.7255Z" fill="url(#paint3_linear_5424_4995)"/>
  <path opacity="0.71" d="M19.7363 12.6332L12.7728 9.13795C12.5949 9.04885 12.3932 9.00195 12.1879 9.00195C11.9826 9.00195 11.7809 9.04885 11.603 9.13795L4.62898 12.6293C4.60397 12.6419 4.58323 12.66 4.56885 12.6817C4.55448 12.7035 4.54698 12.7282 4.54712 12.7533V15.8139C4.54698 15.839 4.55448 15.8637 4.56885 15.8855C4.58323 15.9072 4.60397 15.9253 4.62898 15.9379L11.6611 19.4675C11.8182 19.5461 11.9962 19.5874 12.1774 19.5874C12.3586 19.5874 12.5366 19.5461 12.6936 19.4675L19.7354 15.9417C19.7607 15.9294 19.7818 15.9114 19.7963 15.8895C19.8109 15.8677 19.8184 15.8429 19.8182 15.8177V12.7571C19.8185 12.732 19.8111 12.7072 19.7967 12.6854C19.7823 12.6636 19.7614 12.6456 19.7363 12.6332Z" fill="url(#paint4_linear_5424_4995)"/>
  <g opacity="0.11">
    <path opacity="0.11" d="M12.7719 12.2017C12.594 12.1126 12.3923 12.0657 12.187 12.0657C11.9817 12.0657 11.78 12.1126 11.6021 12.2017L4.62804 15.6931C4.60299 15.7056 4.58219 15.7237 4.56773 15.7454C4.55327 15.7672 4.54565 15.7919 4.54565 15.817C4.54565 15.8421 4.55327 15.8668 4.56773 15.8886C4.58219 15.9104 4.60299 15.9284 4.62804 15.941L11.6602 19.4706C11.8172 19.5492 11.9952 19.5905 12.1764 19.5905C12.3576 19.5905 12.5356 19.5492 12.6927 19.4706L19.7345 15.9448C19.7595 15.9322 19.7803 15.9142 19.7948 15.8924C19.8093 15.8707 19.8169 15.846 19.8169 15.8208C19.8169 15.7957 19.8093 15.771 19.7948 15.7493C19.7803 15.7275 19.7595 15.7094 19.7345 15.6969L12.7719 12.2017Z" fill="url(#paint5_linear_5424_4995)"/>
  </g>
  <g opacity="0.11">
    <path opacity="0.11" d="M12.7719 11.1808C12.5941 11.0915 12.3923 11.0446 12.187 11.0446C11.9816 11.0446 11.7799 11.0915 11.6021 11.1808L4.62804 14.6729C4.60299 14.6855 4.58219 14.7036 4.56773 14.7253C4.55327 14.7471 4.54565 14.7718 4.54565 14.7969C4.54565 14.822 4.55327 14.8467 4.56773 14.8685C4.58219 14.8902 4.60299 14.9083 4.62804 14.9209L11.6602 18.4497C11.8171 18.5287 11.9951 18.5702 12.1764 18.5702C12.3577 18.5702 12.5358 18.5287 12.6927 18.4497L19.7345 14.9239C19.7595 14.9114 19.7803 14.8933 19.7948 14.8715C19.8093 14.8498 19.8169 14.8251 19.8169 14.8C19.8169 14.7748 19.8093 14.7501 19.7948 14.7284C19.7803 14.7066 19.7595 14.6886 19.7345 14.676L12.7719 11.1808Z" fill="url(#paint6_linear_5424_4995)"/>
  </g>
  <g opacity="0.11">
    <path opacity="0.11" d="M12.7719 9.13795C12.594 9.04885 12.3923 9.00195 12.187 9.00195C11.9817 9.00195 11.78 9.04885 11.6021 9.13795L4.62804 12.6293C4.60299 12.6419 4.58219 12.66 4.56773 12.6817C4.55327 12.7035 4.54565 12.7282 4.54565 12.7533C4.54565 12.7784 4.55327 12.8031 4.56773 12.8249C4.58219 12.8466 4.60299 12.8647 4.62804 12.8773L11.6602 16.4069C11.8172 16.4855 11.9952 16.5268 12.1764 16.5268C12.3576 16.5268 12.5356 16.4855 12.6927 16.4069L19.7345 12.8811C19.7595 12.8685 19.7803 12.8505 19.7948 12.8287C19.8093 12.8069 19.8169 12.7823 19.8169 12.7571C19.8169 12.732 19.8093 12.7073 19.7948 12.6855C19.7803 12.6638 19.7595 12.6457 19.7345 12.6332L12.7719 9.13795Z" fill="url(#paint7_linear_5424_4995)"/>
  </g>
  <g opacity="0.11">
    <path opacity="0.11" d="M12.7719 9.13795C12.594 9.04885 12.3923 9.00195 12.187 9.00195C11.9817 9.00195 11.78 9.04885 11.6021 9.13795L4.62804 12.6293C4.60299 12.6419 4.58219 12.66 4.56773 12.6817C4.55327 12.7035 4.54565 12.7282 4.54565 12.7533C4.54565 12.7784 4.55327 12.8031 4.56773 12.8249C4.58219 12.8466 4.60299 12.8647 4.62804 12.8773L11.6602 16.4069C11.8172 16.4855 11.9952 16.5268 12.1764 16.5268C12.3576 16.5268 12.5356 16.4855 12.6927 16.4069L19.7345 12.8811C19.7595 12.8685 19.7803 12.8505 19.7948 12.8287C19.8093 12.8069 19.8169 12.7823 19.8169 12.7571C19.8169 12.732 19.8093 12.7073 19.7948 12.6855C19.7803 12.6638 19.7595 12.6457 19.7345 12.6332L12.7719 9.13795Z" fill="url(#paint8_linear_5424_4995)"/>
  </g>
  <path opacity="0.71" d="M19.7353 12.7395L12.6935 16.2653C12.5366 16.3442 12.3585 16.3858 12.1772 16.3858C11.9959 16.3858 11.8179 16.3442 11.661 16.2653L4.62883 12.7364C4.6032 12.7239 4.58215 12.7053 4.56809 12.6829C4.55738 12.6991 4.55046 12.717 4.54772 12.7355C4.54498 12.7541 4.54647 12.7729 4.55211 12.791C4.55775 12.809 4.56743 12.8259 4.5806 12.8407C4.59376 12.8555 4.61015 12.8679 4.62883 12.8772L11.661 16.4069C11.818 16.4854 11.996 16.5267 12.1772 16.5267C12.3584 16.5267 12.5364 16.4854 12.6935 16.4069L19.7353 12.881C19.7728 12.8621 19.8003 12.8312 19.8118 12.7948C19.8233 12.7585 19.818 12.7196 19.7969 12.6867C19.7822 12.7088 19.7609 12.727 19.7353 12.7395Z" fill="url(#paint9_linear_5424_4995)"/>
  <circle cx="12" cy="12" r="11.3" stroke="#42E8E0" stroke-opacity="0.3"/>
  <circle cx="12" cy="12" r="10.9" stroke="#42E8E0" stroke-width="0.2"/>
  <circle cx="11.9999" cy="12.0001" r="8.49837" fill="#EAEAFE" stroke="url(#paint10_linear_5424_4995)" stroke-width="1.8"/>
  <path d="M10.6938 8.06573C10.6938 7.63318 11.0445 7.28253 11.477 7.28253C11.9096 7.28253 12.2602 7.63318 12.2602 8.06573V12.7649H10.6938V8.06573Z" fill="white"/>
  <path d="M15.2865 15.1424C15.5924 15.4482 15.5924 15.9441 15.2865 16.25C14.9807 16.5558 14.4848 16.5558 14.1789 16.25L10.6939 12.765L11.8015 11.6573L15.2865 15.1424Z" fill="white"/>
  <path fill-rule="evenodd" clip-rule="evenodd" d="M11.6306 7.23944C11.1981 7.23944 10.8474 7.59009 10.8474 8.02264V12.7218H10.8475L10.8474 12.7219L14.3324 16.2069C14.6383 16.5128 15.1342 16.5128 15.44 16.2069C15.7459 15.9011 15.7459 15.4052 15.44 15.0993L12.4138 12.0731V8.02264C12.4138 7.59009 12.0632 7.23944 11.6306 7.23944Z" fill="#8987C9"/>
  <defs>
    <linearGradient id="paint0_linear_5424_4995" x1="19.567" y1="18.3472" x2="4.63161" y2="18.3472" gradientUnits="userSpaceOnUse">
      <stop stop-color="#42E8E0"/>
      <stop offset="1" stop-color="#5761D7"/>
    </linearGradient>
    <linearGradient id="paint1_linear_5424_4995" x1="19.567" y1="17.326" x2="4.63161" y2="17.326" gradientUnits="userSpaceOnUse">
      <stop stop-color="#42E8E0"/>
      <stop offset="1" stop-color="#5761D7"/>
    </linearGradient>
    <linearGradient id="paint2_linear_5424_4995" x1="19.567" y1="16.3038" x2="4.63161" y2="16.3038" gradientUnits="userSpaceOnUse">
      <stop stop-color="#42E8E0"/>
      <stop offset="1" stop-color="#5761D7"/>
    </linearGradient>
    <linearGradient id="paint3_linear_5424_4995" x1="19.567" y1="15.2805" x2="4.63161" y2="15.2805" gradientUnits="userSpaceOnUse">
      <stop stop-color="#42E8E0"/>
      <stop offset="1" stop-color="#5761D7"/>
    </linearGradient>
    <linearGradient id="paint4_linear_5424_4995" x1="19.1794" y1="14.3999" x2="4.76362" y2="14.3999" gradientUnits="userSpaceOnUse">
      <stop stop-color="#42E8E0"/>
      <stop offset="1" stop-color="#5761D7"/>
    </linearGradient>
    <linearGradient id="paint5_linear_5424_4995" x1="1608.18" y1="1739.17" x2="4257.73" y2="1739.17" gradientUnits="userSpaceOnUse">
      <stop stop-color="#5761D7"/>
      <stop offset="0.07" stop-color="#5472D8"/>
      <stop offset="0.28" stop-color="#4E9CDB"/>
      <stop offset="0.48" stop-color="#49BDDD"/>
      <stop offset="0.67" stop-color="#45D5DF"/>
      <stop offset="0.85" stop-color="#43E3E0"/>
      <stop offset="1" stop-color="#42E8E0"/>
    </linearGradient>
    <linearGradient id="paint6_linear_5424_4995" x1="1608.18" y1="1637.87" x2="4257.73" y2="1637.87" gradientUnits="userSpaceOnUse">
      <stop stop-color="#5761D7"/>
      <stop offset="0.07" stop-color="#5472D8"/>
      <stop offset="0.28" stop-color="#4E9CDB"/>
      <stop offset="0.48" stop-color="#49BDDD"/>
      <stop offset="0.67" stop-color="#45D5DF"/>
      <stop offset="0.85" stop-color="#43E3E0"/>
      <stop offset="1" stop-color="#42E8E0"/>
    </linearGradient>
    <linearGradient id="paint7_linear_5424_4995" x1="1608.18" y1="1434.73" x2="4257.73" y2="1434.73" gradientUnits="userSpaceOnUse">
      <stop stop-color="#5761D7"/>
      <stop offset="0.07" stop-color="#5472D8"/>
      <stop offset="0.28" stop-color="#4E9CDB"/>
      <stop offset="0.48" stop-color="#49BDDD"/>
      <stop offset="0.67" stop-color="#45D5DF"/>
      <stop offset="0.85" stop-color="#43E3E0"/>
      <stop offset="1" stop-color="#42E8E0"/>
    </linearGradient>
    <linearGradient id="paint8_linear_5424_4995" x1="1608.18" y1="1434.73" x2="4257.73" y2="1434.73" gradientUnits="userSpaceOnUse">
      <stop stop-color="#5761D7"/>
      <stop offset="0.07" stop-color="#5472D8"/>
      <stop offset="0.28" stop-color="#4E9CDB"/>
      <stop offset="0.48" stop-color="#49BDDD"/>
      <stop offset="0.67" stop-color="#45D5DF"/>
      <stop offset="0.85" stop-color="#43E3E0"/>
      <stop offset="1" stop-color="#42E8E0"/>
    </linearGradient>
    <linearGradient id="paint9_linear_5424_4995" x1="19.1789" y1="14.643" x2="4.76289" y2="14.643" gradientUnits="userSpaceOnUse">
      <stop stop-color="#42E8E0"/>
      <stop offset="1" stop-color="#5761D7"/>
    </linearGradient>
    <linearGradient id="paint10_linear_5424_4995" x1="19.8319" y1="19.0488" x2="4.95116" y2="4.16808" gradientUnits="userSpaceOnUse">
      <stop stop-color="#8987C9"/>
      <stop offset="1" stop-color="#BDBFFF"/>
    </linearGradient>
  </defs>
</svg>
