<svg width="18" height="19" viewBox="0 0 18 19" fill="none" xmlns="http://www.w3.org/2000/svg">
  <path d="M5.42949 12.1337C7.4096 11.1151 10.624 11.1151 12.6041 12.1337C12.9021 12.2825 13.1777 12.4642 13.4245 12.6745C14.5432 11.6792 14.2747 10.3786 12.6153 9.52596C10.6352 8.51075 7.42079 8.50743 5.44068 9.52596C3.77753 10.3786 3.50904 11.6758 4.63148 12.6745C4.86985 12.464 5.13813 12.2822 5.42949 12.1337V12.1337Z" fill="#5351AF"/>
  <path d="M16.6686 11.3839C16.2725 11.0578 15.8358 10.7728 15.3672 10.5346C14.5341 10.1176 13.6426 9.80079 12.7159 9.59235C14.5617 10.6341 14.5058 12.2465 12.5443 13.2418C10.5269 14.277 7.25284 14.277 5.23171 13.2418C3.35601 12.2896 3.22176 10.7469 4.87745 9.70515C4.10718 9.90562 3.36524 10.1839 2.66614 10.5346C2.19769 10.7718 1.76108 11.0556 1.36471 11.3806H0.0334473V13.7992C0.0334473 14.9803 0.909768 16.1581 2.66614 17.0605C6.17142 18.862 11.8582 18.862 15.3672 17.0605C17.1198 16.1581 17.9999 14.9803 17.9999 13.7992V11.3839H16.6686Z" fill="url(#paint0_linear_9322_367)"/>
  <path d="M15.3673 8.3183C11.8583 6.51678 6.17153 6.51678 2.66625 8.3183C-0.839033 10.1198 -0.842762 13.0427 2.66625 14.8476C6.17526 16.6524 11.8583 16.6491 15.3673 14.8476C18.8763 13.046 18.8763 10.1198 15.3673 8.3183ZM12.6078 13.4608C10.5904 14.4959 7.31634 14.4959 5.29521 13.4608C3.27408 12.4256 3.27781 10.7402 5.29521 9.7051C7.31261 8.66998 10.5904 8.66666 12.6078 9.7051C14.6252 10.7435 14.629 12.4223 12.6078 13.4608Z" fill="url(#paint1_linear_9322_367)"/>
  <path d="M15.3671 14.5954C11.858 16.3969 6.17128 16.3969 2.666 14.5954C0.973024 13.7262 0.0967028 12.6048 0.0556836 11.4568C-0.026355 12.6778 0.849966 13.912 2.666 14.8475C6.17128 16.6491 11.858 16.6491 15.3671 14.8475C17.1831 13.9153 18.0594 12.6844 17.9774 11.4602C17.9364 12.5981 17.06 13.7262 15.3671 14.5954Z" fill="white"/>
  <path d="M12.6078 9.45632C10.5904 8.41788 7.31629 8.41788 5.29516 9.45632C4.22493 10.0037 3.72151 10.737 3.80355 11.4469C3.85949 10.8099 4.3629 10.1796 5.29516 9.6952C7.31629 8.65675 10.5904 8.65675 12.6078 9.6952C13.5549 10.1796 14.0584 10.8099 14.0994 11.4469C14.1702 10.737 13.6817 10.0037 12.6078 9.45632Z" fill="white"/>
  <path d="M14.9608 8.31834C11.6942 6.63957 6.38408 6.63957 3.1361 8.31834C-0.111883 9.9971 -0.130528 12.7143 3.1361 14.3897C6.40272 16.0652 11.7129 16.0685 14.9608 14.3897C18.2088 12.711 18.2275 9.99378 14.9608 8.31834ZM12.578 13.1688C10.6277 14.1641 7.4655 14.1641 5.51522 13.1688C3.56494 12.1735 3.56494 10.5346 5.51522 9.53925C7.4655 8.54394 10.6277 8.54394 12.578 9.53925C14.5283 10.5346 14.5432 12.1669 12.578 13.1688Z" fill="url(#paint2_linear_9322_367)"/>
  <path opacity="0.4" d="M9.04663 13.9186C11.8043 13.9186 14.0398 12.7704 14.0398 11.354C14.0398 9.93764 11.8043 8.78943 9.04663 8.78943C6.28898 8.78943 4.05347 9.93764 4.05347 11.354C4.05347 12.7704 6.28898 13.9186 9.04663 13.9186Z" fill="#42E8E0"/>
  <path d="M5.42949 8.816C7.4096 7.79746 10.624 7.79746 12.6041 8.816C12.9021 8.9648 13.1777 9.1465 13.4245 9.35678C14.5432 8.36147 14.2747 7.06093 12.6153 6.20828C10.6352 5.19306 7.42079 5.18974 5.44068 6.20828C3.77753 7.06093 3.50904 8.35815 4.63148 9.35678C4.86985 9.14634 5.13813 8.96454 5.42949 8.816V8.816Z" fill="#5351AF"/>
  <path d="M16.6686 8.06616C16.2725 7.74002 15.8358 7.45508 15.3672 7.21683C14.5341 6.79988 13.6426 6.48304 12.7159 6.2746C14.5617 7.31636 14.5058 8.92876 12.5443 9.92408C10.5269 10.9592 7.25284 10.9592 5.23171 9.92408C3.35601 8.97189 3.22176 7.42916 4.87745 6.3874C4.10718 6.58787 3.36524 6.86615 2.66614 7.21683C2.19769 7.45404 1.76108 7.73787 1.36471 8.06284H0.0334473V10.4815C0.0334473 11.6626 0.909768 12.8403 2.66614 13.7428C6.17142 15.5443 11.8582 15.5443 15.3672 13.7428C17.1198 12.8403 17.9999 11.6626 17.9999 10.4815V8.06616H16.6686Z" fill="url(#paint3_linear_9322_367)"/>
  <path d="M15.3673 5.00061C11.8583 3.1991 6.17153 3.1991 2.66625 5.00061C-0.839033 6.80213 -0.842762 9.72503 2.66625 11.5299C6.17526 13.3347 11.8583 13.3314 15.3673 11.5299C18.8763 9.72835 18.8763 6.80213 15.3673 5.00061ZM12.6078 10.1431C10.5904 11.1782 7.31634 11.1782 5.29521 10.1431C3.27408 9.10794 3.27781 7.42254 5.29521 6.38742C7.31261 5.35229 10.5904 5.34897 12.6078 6.38742C14.6252 7.42586 14.629 9.10462 12.6078 10.1431Z" fill="url(#paint4_linear_9322_367)"/>
  <path d="M15.3671 11.2777C11.858 13.0792 6.17128 13.0792 2.666 11.2777C0.973024 10.4085 0.0967028 9.28709 0.0556836 8.13916C-0.026355 9.36008 0.849966 10.5943 2.666 11.5299C6.17128 13.3314 11.858 13.3314 15.3671 11.5299C17.1831 10.5976 18.0594 9.36671 17.9774 8.14248C17.9364 9.28045 17.06 10.4085 15.3671 11.2777Z" fill="white"/>
  <path d="M12.6078 6.13857C10.5904 5.10013 7.31629 5.10013 5.29516 6.13857C4.22493 6.686 3.72151 7.41921 3.80355 8.1292C3.85949 7.4922 4.3629 6.86183 5.29516 6.37745C7.31629 5.33901 10.5904 5.33901 12.6078 6.37745C13.5549 6.86183 14.0584 7.4922 14.0994 8.1292C14.1702 7.41921 13.6817 6.686 12.6078 6.13857Z" fill="white"/>
  <path d="M14.9608 5.00059C11.6942 3.32183 6.38408 3.32183 3.1361 5.00059C-0.111883 6.67935 -0.130528 9.39655 3.1361 11.072C6.40272 12.7474 11.7129 12.7508 14.9608 11.072C18.2088 9.39324 18.2275 6.67603 14.9608 5.00059ZM12.578 9.85108C10.6277 10.8464 7.4655 10.8464 5.51522 9.85108C3.56494 8.85577 3.56494 7.21682 5.51522 6.2215C7.4655 5.22619 10.6277 5.22619 12.578 6.2215C14.5283 7.21682 14.5432 8.84913 12.578 9.85108Z" fill="url(#paint5_linear_9322_367)"/>
  <path opacity="0.4" d="M9.04663 10.6009C11.8043 10.6009 14.0398 9.45271 14.0398 8.03633C14.0398 6.61995 11.8043 5.47174 9.04663 5.47174C6.28898 5.47174 4.05347 6.61995 4.05347 8.03633C4.05347 9.45271 6.28898 10.6009 9.04663 10.6009Z" fill="#42E8E0"/>
  <path d="M5.42949 5.16652C7.4096 4.14798 10.624 4.14798 12.6041 5.16652C12.9021 5.31533 13.1777 5.49703 13.4245 5.70731C14.5432 4.71199 14.2747 3.41145 12.6153 2.5588C10.6352 1.54358 7.42079 1.54026 5.44068 2.5588C3.77753 3.41145 3.50904 4.70868 4.63148 5.70731C4.86985 5.49687 5.13813 5.31507 5.42949 5.16652V5.16652Z" fill="#5351AF"/>
  <path d="M16.6686 4.41668C16.2725 4.09055 15.8358 3.8056 15.3672 3.56735C14.5341 3.1504 13.6426 2.83357 12.7159 2.62512C14.5617 3.66688 14.5058 5.27929 12.5443 6.2746C10.5269 7.30973 7.25284 7.30973 5.23171 6.2746C3.35601 5.32242 3.22176 3.77968 4.87745 2.73792C4.10718 2.93839 3.36524 3.21668 2.66614 3.56735C2.19769 3.80456 1.76108 4.08839 1.36471 4.41337H0.0334473V6.83197C0.0334473 8.01308 0.909768 9.19087 2.66614 10.0933C6.17142 11.8948 11.8582 11.8948 15.3672 10.0933C17.1198 9.19087 17.9999 8.01308 17.9999 6.83197V4.41668H16.6686Z" fill="url(#paint6_linear_9322_367)"/>
  <path d="M15.3673 1.35114C11.8583 -0.450379 6.17153 -0.450379 2.66625 1.35114C-0.839033 3.15265 -0.842762 6.07556 2.66625 7.88039C6.17526 9.68522 11.8583 9.68191 15.3673 7.88039C18.8763 6.07887 18.8763 3.15265 15.3673 1.35114ZM12.6078 6.49359C10.5904 7.52871 7.31634 7.52871 5.29521 6.49359C3.27408 5.45846 3.27781 3.77307 5.29521 2.73794C7.31261 1.70281 10.5904 1.6995 12.6078 2.73794C14.6252 3.77638 14.629 5.45514 12.6078 6.49359Z" fill="url(#paint7_linear_9322_367)"/>
  <path d="M15.3671 7.62824C11.858 9.42975 6.17128 9.42975 2.666 7.62824C0.973024 6.759 0.0967028 5.63761 0.0556836 4.48969C-0.026355 5.7106 0.849966 6.94479 2.666 7.88038C6.17128 9.6819 11.858 9.6819 15.3671 7.88038C17.1831 6.94811 18.0594 5.71724 17.9774 4.493C17.9364 5.63098 17.06 6.759 15.3671 7.62824Z" fill="white"/>
  <path d="M12.6078 2.4891C10.5904 1.45066 7.31629 1.45066 5.29516 2.4891C4.22493 3.03652 3.72151 3.76973 3.80355 4.47972C3.85949 3.84272 4.3629 3.21236 5.29516 2.72797C7.31629 1.68953 10.5904 1.68953 12.6078 2.72797C13.5549 3.21236 14.0584 3.84272 14.0994 4.47972C14.1702 3.76973 13.6817 3.03652 12.6078 2.4891Z" fill="white"/>
  <path d="M14.9608 1.35111C11.6942 -0.327649 6.38408 -0.327649 3.1361 1.35111C-0.111883 3.02987 -0.130528 5.74708 3.1361 7.42252C6.40272 9.09796 11.7129 9.10128 14.9608 7.42252C18.2088 5.74376 18.2275 3.02656 14.9608 1.35111ZM12.578 6.2016C10.6277 7.19692 7.4655 7.19692 5.51522 6.2016C3.56494 5.20629 3.56494 3.56734 5.51522 2.57203C7.4655 1.57672 10.6277 1.57672 12.578 2.57203C14.5283 3.56734 14.5432 5.19966 12.578 6.2016Z" fill="url(#paint8_linear_9322_367)"/>
  <path opacity="0.4" d="M9.04663 6.95145C11.8043 6.95145 14.0398 5.80324 14.0398 4.38686C14.0398 2.97047 11.8043 1.82227 9.04663 1.82227C6.28898 1.82227 4.05347 2.97047 4.05347 4.38686C4.05347 5.80324 6.28898 6.95145 9.04663 6.95145Z" fill="#42E8E0"/>
  <defs>
    <linearGradient id="paint0_linear_9322_367" x1="0.0334473" y1="14.0049" x2="17.9999" y2="14.0049" gradientUnits="userSpaceOnUse">
      <stop stop-color="#BCBEFF"/>
      <stop offset="0.512566" stop-color="#A6A4E2"/>
      <stop offset="1" stop-color="#8987C9"/>
    </linearGradient>
    <linearGradient id="paint1_linear_9322_367" x1="4535.56" y1="1042.7" x2="5459.4" y2="1042.7" gradientUnits="userSpaceOnUse">
      <stop stop-color="#E9E9FD"/>
      <stop offset="0.36" stop-color="#D3D2F9"/>
      <stop offset="0.71" stop-color="#C5C4F7"/>
      <stop offset="1" stop-color="#C0BFF6"/>
    </linearGradient>
    <linearGradient id="paint2_linear_9322_367" x1="4219.98" y1="970.496" x2="5079.41" y2="970.496" gradientUnits="userSpaceOnUse">
      <stop stop-color="#E9E9FD"/>
      <stop offset="0.36" stop-color="#D3D2F9"/>
      <stop offset="0.71" stop-color="#C5C4F7"/>
      <stop offset="1" stop-color="#C0BFF6"/>
    </linearGradient>
    <linearGradient id="paint3_linear_9322_367" x1="0.0334473" y1="10.6871" x2="17.9999" y2="10.6871" gradientUnits="userSpaceOnUse">
      <stop stop-color="#BCBEFF"/>
      <stop offset="0.512566" stop-color="#A6A4E2"/>
      <stop offset="1" stop-color="#8987C9"/>
    </linearGradient>
    <linearGradient id="paint4_linear_9322_367" x1="4535.56" y1="1039.38" x2="5459.4" y2="1039.38" gradientUnits="userSpaceOnUse">
      <stop stop-color="#E9E9FD"/>
      <stop offset="0.36" stop-color="#D3D2F9"/>
      <stop offset="0.71" stop-color="#C5C4F7"/>
      <stop offset="1" stop-color="#C0BFF6"/>
    </linearGradient>
    <linearGradient id="paint5_linear_9322_367" x1="4219.98" y1="967.178" x2="5079.41" y2="967.178" gradientUnits="userSpaceOnUse">
      <stop stop-color="#E9E9FD"/>
      <stop offset="0.36" stop-color="#D3D2F9"/>
      <stop offset="0.71" stop-color="#C5C4F7"/>
      <stop offset="1" stop-color="#C0BFF6"/>
    </linearGradient>
    <linearGradient id="paint6_linear_9322_367" x1="0.0334473" y1="7.03767" x2="17.9999" y2="7.03767" gradientUnits="userSpaceOnUse">
      <stop stop-color="#BCBEFF"/>
      <stop offset="0.512566" stop-color="#A6A4E2"/>
      <stop offset="1" stop-color="#8987C9"/>
    </linearGradient>
    <linearGradient id="paint7_linear_9322_367" x1="4535.56" y1="1035.73" x2="5459.4" y2="1035.73" gradientUnits="userSpaceOnUse">
      <stop stop-color="#E9E9FD"/>
      <stop offset="0.36" stop-color="#D3D2F9"/>
      <stop offset="0.71" stop-color="#C5C4F7"/>
      <stop offset="1" stop-color="#C0BFF6"/>
    </linearGradient>
    <linearGradient id="paint8_linear_9322_367" x1="4219.98" y1="963.528" x2="5079.41" y2="963.528" gradientUnits="userSpaceOnUse">
      <stop stop-color="#E9E9FD"/>
      <stop offset="0.36" stop-color="#D3D2F9"/>
      <stop offset="0.71" stop-color="#C5C4F7"/>
      <stop offset="1" stop-color="#C0BFF6"/>
    </linearGradient>
  </defs>
</svg>
