<svg width="24" height="24" viewBox="0 0 24 24" fill="none" xmlns="http://www.w3.org/2000/svg">
<path d="M5.6209 14.0702L5.62086 14.0703C3.91589 14.9485 2.96603 16.1187 2.96603 17.3784C2.96603 18.6376 3.8705 19.8212 5.61738 20.7032C7.36476 21.5854 9.65622 22.0339 11.9497 22.0339C14.2431 22.0339 16.5383 21.5853 18.3044 20.6899L18.3047 20.6897C19.9873 19.8114 20.9333 18.6446 20.9333 17.3817C20.9333 16.1187 19.9873 14.9485 18.2859 14.0703L18.2859 14.0702C16.5365 13.173 14.2431 12.7253 11.952 12.7253C9.6609 12.7253 7.3684 13.173 5.6209 14.0702ZM11.9497 12.9003L11.9502 12.9002C14.1227 12.8637 16.2696 13.3204 18.1882 14.2271C19.8429 15.0841 20.7423 16.2097 20.7423 17.3784C20.7423 18.5472 19.8426 19.6762 18.1877 20.5265L18.1877 20.5265C16.4709 21.4092 14.2131 21.8515 11.9529 21.8515C9.69274 21.8515 7.43396 21.4092 5.71533 20.5265C4.06036 19.6728 3.16449 18.5538 3.16449 17.3784C3.16449 16.2029 4.06041 15.0806 5.71164 14.2236C7.42842 13.3442 9.68626 12.9002 11.9497 12.9003Z" fill="#42E8E0" stroke="#42E8E0" stroke-width="0.0679451"/>
<path d="M8.42949 14.1338C10.4096 13.1153 13.624 13.1153 15.6041 14.1338C15.9021 14.2826 16.1777 14.4643 16.4245 14.6746C17.5432 13.6793 17.2747 12.3787 15.6153 11.5261C13.6352 10.5109 10.4208 10.5075 8.44068 11.5261C6.77753 12.3787 6.50904 13.676 7.63148 14.6746C7.86985 14.4642 8.13813 14.2824 8.42949 14.1338Z" fill="#5351AF"/>
<path d="M19.6687 13.3841C19.2725 13.058 18.8359 12.773 18.3673 12.5348C17.5342 12.1178 16.6426 11.801 15.7159 11.5925C17.5618 12.6343 17.5059 14.2467 15.5444 15.242C13.527 16.2771 10.2529 16.2771 8.23177 15.242C6.35607 14.2898 6.22182 12.7471 7.87751 11.7053C7.10724 11.9058 6.3653 12.1841 5.6662 12.5348C5.19775 12.772 4.76114 13.0558 4.36477 13.3808H3.03351V15.7994C3.03351 16.9805 3.90983 18.1583 5.6662 19.0607C9.17148 20.8622 14.8582 20.8622 18.3673 19.0607C20.1199 18.1583 20.9999 16.9805 20.9999 15.7994V13.3841H19.6687Z" fill="url(#paint0_linear_23514_29137)"/>
<path d="M18.3674 10.3184C14.8584 8.51691 9.17159 8.51691 5.66631 10.3184C2.16103 12.1199 2.1573 15.0428 5.66631 16.8477C9.17532 18.6525 14.8584 18.6492 18.3674 16.8477C21.8764 15.0462 21.8764 12.1199 18.3674 10.3184ZM15.6079 15.4609C13.5905 16.496 10.3164 16.496 8.29527 15.4609C6.27414 14.4257 6.27787 12.7404 8.29527 11.7052C10.3127 10.6701 13.5905 10.6668 15.6079 11.7052C17.6253 12.7437 17.629 14.4224 15.6079 15.4609Z" fill="url(#paint1_linear_23514_29137)"/>
<path d="M18.3671 16.5953C14.858 18.3969 9.17128 18.3969 5.666 16.5953C3.97302 15.7261 3.0967 14.6047 3.05568 13.4568C2.97365 14.6777 3.84997 15.9119 5.666 16.8475C9.17128 18.649 14.858 18.649 18.3671 16.8475C20.1831 15.9152 21.0594 14.6843 20.9774 13.4601C20.9364 14.5981 20.06 15.7261 18.3671 16.5953Z" fill="white"/>
<path d="M15.6078 11.4563C13.5904 10.4179 10.3164 10.4179 8.29522 11.4563C7.22499 12.0037 6.72157 12.737 6.80361 13.4469C6.85955 12.8099 7.36296 12.1796 8.29522 11.6952C10.3164 10.6568 13.5904 10.6568 15.6078 11.6952C16.555 12.1796 17.0584 12.8099 17.0994 13.4469C17.1703 12.737 16.6818 12.0037 15.6078 11.4563Z" fill="white"/>
<path d="M17.9608 10.3184C14.6942 8.63964 9.38408 8.63964 6.1361 10.3184C2.88812 11.9972 2.86947 14.7144 6.1361 16.3898C9.40272 18.0652 14.7129 18.0686 17.9608 16.3898C21.2088 14.711 21.2275 11.9938 17.9608 10.3184ZM15.578 15.1689C13.6277 16.1642 10.4655 16.1642 8.51522 15.1689C6.56494 14.1736 6.56494 12.5346 8.51522 11.5393C10.4655 10.544 13.6277 10.544 15.578 11.5393C17.5283 12.5346 17.5432 14.1669 15.578 15.1689Z" fill="url(#paint2_linear_23514_29137)"/>
<path opacity="0.4" d="M12.0466 15.9187C14.8043 15.9187 17.0398 14.7705 17.0398 13.3541C17.0398 11.9378 14.8043 10.7896 12.0466 10.7896C9.28898 10.7896 7.05347 11.9378 7.05347 13.3541C7.05347 14.7705 9.28898 15.9187 12.0466 15.9187Z" fill="#42E8E0"/>
<path d="M8.42949 10.8159C10.4096 9.7974 13.624 9.7974 15.6041 10.8159C15.9021 10.9647 16.1777 11.1464 16.4245 11.3567C17.5432 10.3614 17.2747 9.06087 15.6153 8.20822C13.6352 7.193 10.4208 7.18968 8.44068 8.20822C6.77753 9.06087 6.50904 10.3581 7.63148 11.3567C7.86985 11.1463 8.13813 10.9645 8.42949 10.8159Z" fill="#5351AF"/>
<path d="M19.6687 10.0662C19.2725 9.74008 18.8359 9.45514 18.3673 9.21689C17.5342 8.79994 16.6426 8.4831 15.7159 8.27466C17.5618 9.31642 17.5059 10.9288 15.5444 11.9241C13.527 12.9593 10.2529 12.9593 8.23177 11.9241C6.35607 10.972 6.22182 9.42922 7.87751 8.38746C7.10724 8.58793 6.3653 8.86622 5.6662 9.21689C5.19775 9.4541 4.76114 9.73793 4.36477 10.0629H3.03351V12.4815C3.03351 13.6626 3.90983 14.8404 5.6662 15.7428C9.17148 17.5443 14.8582 17.5443 18.3673 15.7428C20.1199 14.8404 20.9999 13.6626 20.9999 12.4815V10.0662H19.6687Z" fill="url(#paint3_linear_23514_29137)"/>
<path d="M18.3674 7.00055C14.8584 5.19903 9.17159 5.19903 5.66631 7.00055C2.16103 8.80207 2.1573 11.725 5.66631 13.5298C9.17532 15.3346 14.8584 15.3313 18.3674 13.5298C21.8764 11.7283 21.8764 8.80207 18.3674 7.00055ZM15.6079 12.143C13.5905 13.1781 10.3164 13.1781 8.29527 12.143C6.27414 11.1079 6.27787 9.42248 8.29527 8.38735C10.3127 7.35223 13.5905 7.34891 15.6079 8.38735C17.6253 9.4258 17.629 11.1046 15.6079 12.143Z" fill="url(#paint4_linear_23514_29137)"/>
<path d="M18.3671 13.2775C14.858 15.079 9.17128 15.079 5.666 13.2775C3.97302 12.4082 3.0967 11.2868 3.05568 10.1389C2.97365 11.3598 3.84997 12.594 5.666 13.5296C9.17128 15.3311 14.858 15.3311 18.3671 13.5296C20.1831 12.5973 21.0594 11.3665 20.9774 10.1422C20.9364 11.2802 20.06 12.4082 18.3671 13.2775Z" fill="white"/>
<path d="M15.6078 8.13845C13.5904 7.10001 10.3164 7.10001 8.29522 8.13845C7.22499 8.68587 6.72157 9.41909 6.80361 10.1291C6.85955 9.49208 7.36296 8.86171 8.29522 8.37733C10.3164 7.33888 13.5904 7.33888 15.6078 8.37733C16.555 8.86171 17.0584 9.49208 17.0994 10.1291C17.1703 9.41909 16.6818 8.68587 15.6078 8.13845Z" fill="white"/>
<path d="M17.9608 7.00053C14.6942 5.32176 9.38408 5.32176 6.1361 7.00053C2.88812 8.67929 2.86947 11.3965 6.1361 13.0719C9.40272 14.7474 14.7129 14.7507 17.9608 13.0719C21.2088 11.3932 21.2275 8.67597 17.9608 7.00053ZM15.578 11.851C13.6277 12.8463 10.4655 12.8463 8.51522 11.851C6.56494 10.8557 6.56494 9.21676 8.51522 8.22144C10.4655 7.22613 13.6277 7.22613 15.578 8.22144C17.5283 9.21676 17.5432 10.8491 15.578 11.851Z" fill="url(#paint5_linear_23514_29137)"/>
<path opacity="0.4" d="M12.0466 12.6009C14.8043 12.6009 17.0398 11.4527 17.0398 10.0363C17.0398 8.61989 14.8043 7.47168 12.0466 7.47168C9.28898 7.47168 7.05347 8.61989 7.05347 10.0363C7.05347 11.4527 9.28898 12.6009 12.0466 12.6009Z" fill="#42E8E0"/>
<path d="M8.42949 7.16652C10.4096 6.14798 13.624 6.14798 15.6041 7.16652C15.9021 7.31533 16.1777 7.49703 16.4245 7.70731C17.5432 6.71199 17.2747 5.41145 15.6153 4.5588C13.6352 3.54358 10.4208 3.54026 8.44068 4.5588C6.77753 5.41145 6.50904 6.70868 7.63148 7.70731C7.86985 7.49687 8.13813 7.31507 8.42949 7.16652Z" fill="#5351AF"/>
<path d="M19.6687 6.41681C19.2725 6.09067 18.8359 5.80572 18.3673 5.56747C17.5342 5.15053 16.6426 4.83369 15.7159 4.62524C17.5618 5.667 17.5059 7.27941 15.5444 8.27472C13.527 9.30985 10.2529 9.30985 8.23177 8.27472C6.35607 7.32254 6.22182 5.77981 7.87751 4.73805C7.10724 4.93851 6.3653 5.2168 5.6662 5.56747C5.19775 5.80468 4.76114 6.08851 4.36477 6.41349H3.03351V8.8321C3.03351 10.0132 3.90983 11.191 5.6662 12.0934C9.17148 13.8949 14.8582 13.8949 18.3673 12.0934C20.1199 11.191 20.9999 10.0132 20.9999 8.8321V6.41681H19.6687Z" fill="url(#paint6_linear_23514_29137)"/>
<path d="M18.3674 3.35114C14.8584 1.54962 9.17159 1.54962 5.66631 3.35114C2.16103 5.15265 2.1573 8.07556 5.66631 9.88039C9.17532 11.6852 14.8584 11.6819 18.3674 9.88039C21.8764 8.07887 21.8764 5.15265 18.3674 3.35114ZM15.6079 8.49359C13.5905 9.52871 10.3164 9.52871 8.29527 8.49359C6.27414 7.45846 6.27787 5.77307 8.29527 4.73794C10.3127 3.70281 13.5905 3.6995 15.6079 4.73794C17.6253 5.77638 17.629 7.45514 15.6079 8.49359Z" fill="url(#paint7_linear_23514_29137)"/>
<path d="M18.3671 9.6283C14.858 11.4298 9.17128 11.4298 5.666 9.6283C3.97302 8.75906 3.0967 7.63767 3.05568 6.48975C2.97365 7.71066 3.84997 8.94485 5.666 9.88045C9.17128 11.682 14.858 11.682 18.3671 9.88045C20.1831 8.94817 21.0594 7.7173 20.9774 6.49306C20.9364 7.63104 20.06 8.75906 18.3671 9.6283Z" fill="white"/>
<path d="M15.6078 4.48904C13.5904 3.45059 10.3164 3.45059 8.29522 4.48904C7.22499 5.03646 6.72157 5.76967 6.80361 6.47966C6.85955 5.84266 7.36296 5.2123 8.29522 4.72791C10.3164 3.68947 13.5904 3.68947 15.6078 4.72791C16.555 5.2123 17.0584 5.84266 17.0994 6.47966C17.1703 5.76967 16.6818 5.03646 15.6078 4.48904Z" fill="white"/>
<path d="M17.9608 3.35111C14.6942 1.67235 9.38408 1.67235 6.1361 3.35111C2.88812 5.02987 2.86947 7.74708 6.1361 9.42252C9.40272 11.098 14.7129 11.1013 17.9608 9.42252C21.2088 7.74376 21.2275 5.02656 17.9608 3.35111ZM15.578 8.2016C13.6277 9.19692 10.4655 9.19692 8.51522 8.2016C6.56494 7.20629 6.56494 5.56734 8.51522 4.57203C10.4655 3.57672 13.6277 3.57672 15.578 4.57203C17.5283 5.56734 17.5432 7.19966 15.578 8.2016Z" fill="url(#paint8_linear_23514_29137)"/>
<path opacity="0.4" d="M12.0466 8.95145C14.8043 8.95145 17.0398 7.80324 17.0398 6.38686C17.0398 4.97047 14.8043 3.82227 12.0466 3.82227C9.28898 3.82227 7.05347 4.97047 7.05347 6.38686C7.05347 7.80324 9.28898 8.95145 12.0466 8.95145Z" fill="#42E8E0"/>
<defs>
<linearGradient id="paint0_linear_23514_29137" x1="3.03351" y1="16.0051" x2="20.9999" y2="16.0051" gradientUnits="userSpaceOnUse">
<stop stop-color="#BCBEFF"/>
<stop offset="0.512566" stop-color="#A6A4E2"/>
<stop offset="1" stop-color="#8987C9"/>
</linearGradient>
<linearGradient id="paint1_linear_23514_29137" x1="4538.56" y1="1044.7" x2="5462.4" y2="1044.7" gradientUnits="userSpaceOnUse">
<stop stop-color="#E9E9FD"/>
<stop offset="0.36" stop-color="#D3D2F9"/>
<stop offset="0.71" stop-color="#C5C4F7"/>
<stop offset="1" stop-color="#C0BFF6"/>
</linearGradient>
<linearGradient id="paint2_linear_23514_29137" x1="4222.98" y1="972.496" x2="5082.41" y2="972.496" gradientUnits="userSpaceOnUse">
<stop stop-color="#E9E9FD"/>
<stop offset="0.36" stop-color="#D3D2F9"/>
<stop offset="0.71" stop-color="#C5C4F7"/>
<stop offset="1" stop-color="#C0BFF6"/>
</linearGradient>
<linearGradient id="paint3_linear_23514_29137" x1="3.03351" y1="12.6872" x2="20.9999" y2="12.6872" gradientUnits="userSpaceOnUse">
<stop stop-color="#BCBEFF"/>
<stop offset="0.512566" stop-color="#A6A4E2"/>
<stop offset="1" stop-color="#8987C9"/>
</linearGradient>
<linearGradient id="paint4_linear_23514_29137" x1="4538.56" y1="1041.38" x2="5462.4" y2="1041.38" gradientUnits="userSpaceOnUse">
<stop stop-color="#E9E9FD"/>
<stop offset="0.36" stop-color="#D3D2F9"/>
<stop offset="0.71" stop-color="#C5C4F7"/>
<stop offset="1" stop-color="#C0BFF6"/>
</linearGradient>
<linearGradient id="paint5_linear_23514_29137" x1="4222.98" y1="969.178" x2="5082.41" y2="969.178" gradientUnits="userSpaceOnUse">
<stop stop-color="#E9E9FD"/>
<stop offset="0.36" stop-color="#D3D2F9"/>
<stop offset="0.71" stop-color="#C5C4F7"/>
<stop offset="1" stop-color="#C0BFF6"/>
</linearGradient>
<linearGradient id="paint6_linear_23514_29137" x1="3.03351" y1="9.0378" x2="20.9999" y2="9.0378" gradientUnits="userSpaceOnUse">
<stop stop-color="#BCBEFF"/>
<stop offset="0.512566" stop-color="#A6A4E2"/>
<stop offset="1" stop-color="#8987C9"/>
</linearGradient>
<linearGradient id="paint7_linear_23514_29137" x1="4538.56" y1="1037.73" x2="5462.4" y2="1037.73" gradientUnits="userSpaceOnUse">
<stop stop-color="#E9E9FD"/>
<stop offset="0.36" stop-color="#D3D2F9"/>
<stop offset="0.71" stop-color="#C5C4F7"/>
<stop offset="1" stop-color="#C0BFF6"/>
</linearGradient>
<linearGradient id="paint8_linear_23514_29137" x1="4222.98" y1="965.528" x2="5082.41" y2="965.528" gradientUnits="userSpaceOnUse">
<stop stop-color="#E9E9FD"/>
<stop offset="0.36" stop-color="#D3D2F9"/>
<stop offset="0.71" stop-color="#C5C4F7"/>
<stop offset="1" stop-color="#C0BFF6"/>
</linearGradient>
</defs>
</svg>
