<svg xmlns="http://www.w3.org/2000/svg" fill="none" viewBox="0 0 24 24">
    <circle cx="12" cy="12" r="10" stroke="#EAEAFE" stroke-width="2"></circle>
    <circle cx="12" cy="12" r="11.3" stroke="#42E8E0" stroke-opacity="0.3"></circle>
    <circle cx="12" cy="12" r="10.9" stroke="#42E8E0" stroke-width="0.2"></circle>
    <g clip-path="url(#clip0_6005_35604)">
    <rect width="18" height="18" x="3" y="3" fill="#fff" rx="9"></rect>
    <path
        fill="url(#paint0_linear_6005_35604)"
        d="M16.988 17.439c.528.754.72 1.53.43 1.733-.29.203-.953-.244-1.481-.997a3.777 3.777 0 01-.438-.812 6.43 6.43 0 01-2.924 1.05c.061.255.098.553.098.875 0 .92-.287 1.665-.642 1.665-.355 0-.642-.745-.642-1.665 0-.315.035-.605.094-.857a6.427 6.427 0 01-2.958-.963 3.877 3.877 0 01-.393.707c-.528.753-1.191 1.2-1.482.997-.29-.204-.098-.98.43-1.733.177-.253.369-.466.557-.637a6.396 6.396 0 01-.981-1.11l.843-.586a5.4 5.4 0 008.867-.008l.844.585c-.26.377-.56.718-.887 1.025.222.18.454.43.665.731zM7.708 7.217a6.44 6.44 0 00-1.175 1.356l.863.557a5.378 5.378 0 014.534-2.47c1.902 0 3.627.97 4.614 2.596l.877-.534a6.49 6.49 0 00-1.17-1.42c.243-.184.503-.453.737-.787.528-.754.72-1.53.43-1.733-.29-.203-.953.243-1.481.997-.22.314-.378.63-.47.909a6.366 6.366 0 00-2.926-1.023c.082-.28.132-.623.132-1 0-.92-.287-1.665-.642-1.665-.355 0-.642.745-.642 1.666 0 .368.047.705.125.98a6.391 6.391 0 00-2.947.936 3.744 3.744 0 00-.435-.803c-.528-.754-1.19-1.2-1.481-.996-.29.203-.098.978.43 1.732.199.284.417.524.627.702zm-4.333 7.237h1.236V12.6h1.394v1.855h1.236V9.782H6.006v1.74H4.611v-1.74H3.375v4.672zm4.902-4.672v4.672h3.09v-1.035H9.514v-.834h1.524V11.55H9.513v-.734h1.783V9.781l-3.019.001zm3.996 0v4.672h3.005v-1.035h-1.769V9.782h-1.236zm3.81 0v4.672h1.135v-1.38c0-.12-.006-.251-.018-.395a39.023 39.023 0 00-.04-.442c-.014-.15-.032-.299-.05-.442a36.27 36.27 0 01-.05-.387h.028l.373 1.092.648 1.575h.46l.646-1.575.388-1.092h.028l-.05.388c-.02.144-.036.291-.05.442-.014.15-.028.298-.04.442a4.782 4.782 0 00-.018.395v1.38h1.152V9.782h-1.28l-.704 1.941-.258.762h-.029l-.259-.762-.733-1.94h-1.28z"
    ></path>
    </g>
    <defs>
    <linearGradient id="paint0_linear_6005_35604" x1="12" x2="12" y1="3" y2="20.953" gradient-units="userSpaceOnUse">
        <stop stop-color="#AEB0EE"></stop>
        <stop offset="1" stopColor="#7C7ABF"></stop>
    </linearGradient>
    <clipPath id="clip0_6005_35604">
        <rect width="18" height="18" x="3" y="3" fill="#fff" rx="9"></rect>
    </clipPath>
    </defs>
</svg>
