<svg width="24" height="24" viewBox="0 0 24 24" fill="none" xmlns="http://www.w3.org/2000/svg">
<g clip-path="url(#clip0_13323_2868)">
<path d="M21.4083 11.9771C21.4083 17.1371 17.2251 21.3203 12.0651 21.3203C6.90488 21.3203 2.72192 17.1371 2.72192 11.9771C2.72192 6.81767 6.90488 2.6347 12.0651 2.6347C17.2251 2.6347 21.4083 6.81767 21.4083 11.9771Z" fill="#B6CFEA"/>
<path d="M2.54922 14.3134C2.4915 14.3169 2.43368 14.3082 2.3796 14.2877C2.32551 14.2673 2.27639 14.2355 2.2355 14.1946C2.1946 14.1538 2.16287 14.1046 2.1424 14.0505C2.12193 13.9965 2.11319 13.9386 2.11676 13.8809V10.4206C2.11315 10.3629 2.12184 10.305 2.14226 10.2509C2.16268 10.1968 2.19436 10.1476 2.23521 10.1066C2.27618 10.0658 2.32536 10.0341 2.3795 10.0137C2.43363 9.99324 2.49148 9.98455 2.54922 9.98816C2.60694 9.98459 2.66477 9.99333 2.71885 10.0138C2.77294 10.0343 2.82206 10.066 2.86295 10.1069C2.90384 10.1478 2.93558 10.1969 2.95605 10.251C2.97652 10.3051 2.98526 10.3629 2.98168 10.4206V13.8811C2.98881 13.9971 2.94505 14.1117 2.86243 14.1945C2.82158 14.2354 2.77252 14.2672 2.7185 14.2877C2.66447 14.3082 2.60671 14.317 2.54902 14.3136L2.54922 14.3134ZM21.4082 14.3134C21.3505 14.3169 21.2927 14.308 21.2386 14.2875C21.1846 14.2669 21.1356 14.2351 21.0948 14.1941C21.0539 14.1533 21.0222 14.1043 21.0017 14.0503C20.9811 13.9963 20.9723 13.9386 20.9757 13.8809V10.4206C20.9722 10.3628 20.9811 10.3049 21.0016 10.2508C21.0222 10.1967 21.054 10.1475 21.095 10.1066C21.1358 10.0658 21.1848 10.0341 21.2388 10.0137C21.2928 9.99326 21.3505 9.98456 21.4082 9.98816C21.4658 9.98456 21.5235 9.99326 21.5775 10.0137C21.6315 10.0341 21.6805 10.0658 21.7214 10.1066C21.8048 10.1894 21.8475 10.304 21.8406 10.4206V13.8811C21.8442 13.9388 21.8354 13.9967 21.8149 14.0507C21.7943 14.1048 21.7624 14.1538 21.7214 14.1945C21.6806 14.2355 21.6315 14.2672 21.5775 14.2878C21.5234 14.3083 21.4657 14.3171 21.408 14.3136L21.4082 14.3134Z" fill="#B6CFEA"/>
<mask id="mask0_13323_2868" style="mask-type:alpha" maskUnits="userSpaceOnUse" x="2" y="2" width="20" height="20">
<path d="M21.4083 11.9771C21.4083 17.1371 17.2251 21.3203 12.0651 21.3203C6.90488 21.3203 2.72192 17.1371 2.72192 11.9771C2.72192 6.81767 6.90488 2.6347 12.0651 2.6347C17.2251 2.6347 21.4083 6.81767 21.4083 11.9771Z" fill="#B6CFEA"/>
</mask>
<g mask="url(#mask0_13323_2868)">
<path d="M21.0624 11.977C21.0624 16.9464 17.0343 20.9742 12.065 20.9742C7.09645 20.9742 3.06836 16.9464 3.06836 11.977C3.06836 7.00852 7.09645 2.98022 12.065 2.98022C17.0343 2.98022 21.0622 7.00831 21.0622 11.9768L21.0624 11.977Z" fill="#E6F5F8"/>
<path d="M19.4184 12.1505C19.4184 16.2117 16.1266 19.5037 12.0651 19.5037C8.00427 19.5037 4.71167 16.2117 4.71167 12.1502C4.71167 8.0896 8.00447 4.797 12.0651 4.797C16.1266 4.797 19.4184 8.09001 19.4184 12.1505Z" fill="#D0E8F0"/>
<path d="M7.7396 15.6107C7.7396 15.6107 8.34524 25.3864 8.34524 25.5598C8.34524 25.6456 8.43194 25.8188 7.99867 25.9922C7.56621 26.1648 6.18213 26.5112 6.18213 26.5112H8.25855C9.21017 26.5112 9.21017 25.7323 9.21017 25.5598C9.21017 25.3864 9.46944 21.6668 9.46944 21.6668C9.46944 21.6668 9.55593 26.0789 9.55593 26.2513C9.55593 26.4247 9.46944 26.6837 8.8644 26.8571C8.43194 26.9438 7.13375 27.2031 7.13375 27.2031H9.12367C10.3352 27.2031 10.3352 26.4247 10.3352 26.4247L10.5942 22.5317C10.5942 22.5317 10.6809 26.4247 10.6809 26.8571C10.6809 27.2031 10.4217 27.463 9.46944 27.6354C8.8644 27.8087 8.08536 27.9819 8.08536 27.9819H10.3352C11.4592 27.8954 11.6326 27.1162 11.6326 27.1162L13.5356 17.4273L7.7396 15.6107Z" fill="#EE794B"/>
<path d="M16.3903 15.6107C16.3903 15.6107 15.7852 25.3863 15.7852 25.5597C15.7852 25.6456 15.6985 25.8188 16.1312 25.9922C16.5635 26.1648 17.9475 26.5111 17.9475 26.5111H15.8711C14.9195 26.5111 14.9195 25.7323 14.9195 25.5597C14.9195 25.3863 14.6604 21.6668 14.6604 21.6668C14.6604 21.6668 14.5737 26.0789 14.5737 26.2513C14.5737 26.4247 14.6604 26.6837 15.2661 26.8571L16.9959 27.2031H15.0064C13.7955 27.2031 13.7955 26.4247 13.7955 26.4247L13.5356 22.5317C13.5356 22.5317 13.4489 26.4247 13.4489 26.8571C13.4489 27.2031 13.709 27.463 14.6606 27.6353C15.2663 27.8087 16.0445 27.9819 16.0445 27.9819H13.7955C12.6705 27.8954 12.4971 27.1162 12.4971 27.1162L10.5943 17.4274L16.3903 15.6107ZM16.4768 10.8528C16.4768 13.2752 14.487 15.1782 12.1513 15.1782C9.81586 15.1782 7.82593 13.1885 7.82593 10.8528C7.82593 8.51733 9.81586 6.5274 12.1513 6.5274C14.487 6.5274 16.4768 8.43064 16.4768 10.8528Z" fill="#EE794B"/>
<mask id="mask1_13323_2868" style="mask-type:luminance" maskUnits="userSpaceOnUse" x="7" y="10" width="10" height="12">
<path d="M7.58447 10.6526H16.5389V21.0316H7.58447V10.6526Z" fill="white"/>
</mask>
<g mask="url(#mask1_13323_2868)">
<mask id="mask2_13323_2868" style="mask-type:luminance" maskUnits="userSpaceOnUse" x="7" y="10" width="10" height="13">
<path d="M16.4769 10.6797L15.9579 22.5317H8.17198L7.89502 10.642" fill="white"/>
</mask>
<g mask="url(#mask2_13323_2868)">
<path d="M19.8506 13.1883C19.8506 17.4407 16.4037 20.8878 12.1514 20.8878C7.89921 20.8878 4.45215 17.4407 4.45215 13.1885C4.45215 8.93618 7.89921 5.48932 12.1514 5.48932C16.4037 5.48932 19.8506 8.93598 19.8506 13.1883Z" fill="#EE794B"/>
</g>
</g>
<mask id="mask3_13323_2868" style="mask-type:luminance" maskUnits="userSpaceOnUse" x="-1" y="2" width="27" height="27">
<path d="M-0.962891 2.30865H25.0865V28.358H-0.962891V2.30865Z" fill="black" fill-opacity="0.22"/>
</mask>
<g mask="url(#mask3_13323_2868)">
<mask id="mask4_13323_2868" style="mask-type:luminance" maskUnits="userSpaceOnUse" x="-1" y="2" width="27" height="27">
<path d="M-0.962891 2.30865H25.0865V28.358H-0.962891V2.30865Z" fill="white"/>
</mask>
<g mask="url(#mask4_13323_2868)">
<path d="M16.2178 15.6107C16.2178 15.6107 16.7368 11.0254 16.0444 9.29558C14.747 6.26755 11.719 6.52743 11.719 6.52743C11.719 6.52743 13.4488 7.21916 13.5355 9.81474C13.6222 11.6313 13.5355 14.3133 13.5355 14.3133L16.2178 15.6107Z" fill="#E34E3B"/>
</g>
</g>
<mask id="mask5_13323_2868" style="mask-type:luminance" maskUnits="userSpaceOnUse" x="-1" y="2" width="27" height="27">
<path d="M-0.962891 2.30865H25.0865V28.358H-0.962891V2.30865Z" fill="black" fill-opacity="0.502"/>
</mask>
<g mask="url(#mask5_13323_2868)">
<mask id="mask6_13323_2868" style="mask-type:luminance" maskUnits="userSpaceOnUse" x="-1" y="2" width="27" height="27">
<path d="M-0.962891 2.30865H25.0865V28.358H-0.962891V2.30865Z" fill="white"/>
</mask>
<g mask="url(#mask6_13323_2868)">
<path d="M10.94 8.51735C10.9399 8.59683 10.9242 8.67553 10.8938 8.74894C10.8633 8.82236 10.8187 8.88906 10.7625 8.94523C10.7063 9.00141 10.6395 9.04595 10.5661 9.07633C10.4926 9.10671 10.4139 9.12233 10.3344 9.12229C10.2549 9.12225 10.1763 9.10655 10.1028 9.0761C10.0294 9.04565 9.96272 9.00103 9.90655 8.9448C9.85037 8.88857 9.80583 8.82183 9.77545 8.74838C9.74507 8.67493 9.72945 8.59622 9.72949 8.51674C9.72957 8.35622 9.79342 8.20231 9.90698 8.08886C10.0205 7.97541 10.1745 7.91172 10.335 7.9118C10.4956 7.91189 10.6495 7.97573 10.7629 8.08929C10.8764 8.20285 10.9401 8.35683 10.94 8.51735Z" fill="#FBDFC3"/>
</g>
</g>
<path d="M13.6223 17.3406C13.6223 18.8114 12.93 19.7638 12.065 19.7638C11.2001 19.7638 10.5076 18.6388 10.5076 17.1682C10.5076 17.1682 11.2001 18.5521 12.1515 18.5521C13.1031 18.5521 13.6223 17.3406 13.6223 17.3406Z" fill="#010101"/>
<path d="M13.6223 17.3405C13.6223 18.293 12.9299 18.8113 12.065 18.8113C11.2001 18.8113 10.5942 18.1196 10.5942 17.2546C10.5942 17.2546 11.2866 18.1196 12.2382 18.1196C13.1898 18.1196 13.6223 17.3405 13.6223 17.3405Z" fill="white"/>
<path d="M17.7743 13.2752C17.7743 14.7562 16.5739 15.9565 15.093 15.9565C13.6118 15.9565 12.4107 14.7562 12.4107 13.2752C12.4107 11.7941 13.6118 10.593 15.093 10.593C16.5739 10.593 17.7743 11.7941 17.7743 13.2752ZM11.719 13.2752C11.719 14.7562 10.5179 15.9565 9.03672 15.9565C7.55578 15.9565 6.35547 14.7562 6.35547 13.2752C6.35547 11.7941 7.55578 10.593 9.03693 10.593C10.5179 10.593 11.719 11.7941 11.719 13.2752Z" fill="#E9654B"/>
<path d="M17.1693 13.2752C17.1693 14.4216 16.2393 15.3516 15.0929 15.3516C13.9465 15.3516 13.0163 14.4216 13.0163 13.2752C13.0163 12.128 13.9463 11.1988 15.0929 11.1988C16.2391 11.1988 17.1693 12.128 17.1693 13.2752ZM10.9399 13.2752C10.9399 14.4216 10.0106 15.3516 8.86426 15.3516C7.71707 15.3516 6.78784 14.4216 6.78784 13.2752C6.78779 13.0025 6.84146 12.7325 6.94579 12.4805C7.05012 12.2286 7.20307 11.9997 7.39589 11.8068C7.58872 11.614 7.81764 11.4611 8.06959 11.3567C8.32153 11.2524 8.59157 11.1987 8.86426 11.1988C10.0106 11.1988 10.9399 12.128 10.9399 13.2752Z" fill="white"/>
<path d="M9.46943 13.0153C9.46947 13.0948 9.45385 13.1736 9.42346 13.2471C9.39307 13.3205 9.34851 13.3873 9.29232 13.4435C9.23613 13.4998 9.16941 13.5444 9.09597 13.5749C9.02252 13.6053 8.9438 13.621 8.8643 13.6211C8.78479 13.6211 8.70605 13.6055 8.63258 13.5751C8.55911 13.5447 8.49234 13.5002 8.43609 13.444C8.37984 13.3878 8.33521 13.3211 8.30475 13.2476C8.27428 13.1742 8.25859 13.0955 8.25855 13.0159C8.25844 12.8554 8.32212 12.7013 8.43559 12.5877C8.54905 12.4741 8.70301 12.4102 8.86358 12.4101C9.02416 12.41 9.1782 12.4737 9.29182 12.5871C9.40544 12.7006 9.46933 12.8548 9.46943 13.0153ZM15.6987 13.0153C15.7002 13.0958 15.6856 13.1757 15.6559 13.2505C15.6261 13.3253 15.5818 13.3934 15.5254 13.4508C15.469 13.5082 15.4018 13.5538 15.3276 13.585C15.2534 13.6161 15.1737 13.6322 15.0933 13.6322C15.0128 13.6322 14.9331 13.6162 14.8589 13.5851C14.7847 13.5539 14.7174 13.5083 14.6611 13.4509C14.6047 13.3935 14.5603 13.3254 14.5305 13.2507C14.5007 13.1759 14.4861 13.096 14.4876 13.0155C14.4905 12.8569 14.5555 12.7056 14.6687 12.5944C14.7819 12.4832 14.9342 12.4208 15.0929 12.4208C15.2517 12.4207 15.404 12.483 15.5173 12.5941C15.6306 12.7053 15.6957 12.8567 15.6987 13.0153Z" fill="#010101"/>
<path d="M9.55616 5.05685C9.55616 5.17155 9.51059 5.28154 9.42949 5.36265C9.34839 5.44375 9.23839 5.48931 9.1237 5.48931C9.009 5.48931 8.899 5.44375 8.8179 5.36265C8.7368 5.28154 8.69124 5.17155 8.69124 5.05685C8.69124 4.94215 8.7368 4.83216 8.8179 4.75105C8.899 4.66995 9.009 4.62439 9.1237 4.62439C9.23839 4.62439 9.34839 4.66995 9.42949 4.75105C9.51059 4.83216 9.55616 4.94215 9.55616 5.05685ZM6.00978 16.7355C5.96272 16.7415 5.91492 16.7368 5.86991 16.7218C5.8249 16.7068 5.78382 16.682 5.74969 16.649C4.71158 15.3516 4.19243 13.7077 4.19243 12.0637C4.18779 10.697 4.5461 9.35349 5.23074 8.17057C5.92476 7.04462 6.87269 6.09675 7.99869 5.40282C8.07097 5.3704 8.15156 5.36132 8.22925 5.37682C8.30693 5.39232 8.37786 5.43164 8.43217 5.48931C8.46427 5.56152 8.47315 5.64191 8.45758 5.71938C8.44202 5.79685 8.40277 5.86757 8.34527 5.92177C7.27209 6.5281 6.37858 7.40775 5.75554 8.47131C5.13251 9.53487 4.80216 10.7444 4.79808 11.977C4.79567 13.5157 5.31404 15.0099 6.26885 16.2166C6.35554 16.3033 6.35554 16.5625 6.18215 16.649C6.09566 16.7357 6.09566 16.7355 6.00978 16.7355Z" fill="white"/>
</g>
</g>
<circle cx="12" cy="12" r="11.3" stroke="#42E8E0" stroke-opacity="0.3"/>
<circle cx="12" cy="12" r="10.9" stroke="#42E8E0" stroke-width="0.2"/>
<defs>
<clipPath id="clip0_13323_2868">
<rect width="20" height="20" fill="white" transform="translate(2 2)"/>
</clipPath>
</defs>
</svg>
