<svg width="24" height="24" viewBox="0 0 24 24" fill="none" xmlns="http://www.w3.org/2000/svg">
  <circle cx="12" cy="12" r="11.3" stroke="#42E8E0" stroke-opacity="0.3"/>
  <circle cx="12" cy="12" r="10.9" stroke="#42E8E0" stroke-width="0.2"/>
  <circle cx="12" cy="12.0829" r="8.28202" fill="#EAEAFE"/>
  <path fill-rule="evenodd" clip-rule="evenodd" d="M2.15747 12.083C2.15747 6.67473 6.51935 2.28521 11.9171 2.24048V5.17833C8.14184 5.22294 5.09518 8.29719 5.09518 12.083C5.09518 12.0831 5.09518 12.0831 5.09518 12.0832H2.15747C2.15747 12.0831 2.15747 12.0831 2.15747 12.083Z" fill="url(#paint0_linear_5424_5022)"/>
  <path fill-rule="evenodd" clip-rule="evenodd" d="M11.7983 2.24048C17.2684 2.24048 21.7082 6.65224 21.7534 12.1117L18.782 12.1117C18.7368 8.29328 15.6274 5.21179 11.7983 5.21179C11.7982 5.21179 11.7982 5.21179 11.7981 5.21179L11.7981 2.24048C11.7982 2.24048 11.7982 2.24048 11.7983 2.24048Z" fill="url(#paint1_linear_5424_5022)"/>
  <path fill-rule="evenodd" clip-rule="evenodd" d="M21.7534 11.9999C21.6868 17.3779 17.3617 21.7303 11.9945 21.8409L11.9945 18.8646C15.7183 18.755 18.7117 15.7345 18.7777 11.9999L21.7534 11.9999Z" fill="url(#paint2_linear_5424_5022)"/>
  <path fill-rule="evenodd" clip-rule="evenodd" d="M12 21.8425C6.59171 21.8425 2.20218 17.4806 2.15747 12.0829L5.09533 12.0829C5.13991 15.8581 8.21417 18.9048 12 18.9048C12.0001 18.9048 12.0001 18.9048 12.0002 18.9048L12.0002 21.8425C12.0001 21.8425 12.0001 21.8425 12 21.8425Z" fill="url(#paint3_linear_5424_5022)"/>
  <path d="M12.6892 3.71185L11.217 2.23962V5.18405L12.6892 3.71185Z" fill="white"/>
  <path d="M20.2819 12.7776L21.7542 11.3054L18.8097 11.3054L20.2819 12.7776Z" fill="white"/>
  <path d="M11.217 20.3703L12.6892 21.8425L12.6892 18.8981L11.217 20.3703Z" fill="white"/>
  <path d="M3.6585 11.3054L2.18628 12.7776L5.13071 12.7776L3.6585 11.3054Z" fill="white"/>
  <rect x="8.86646" y="9.05646" width="6.26682" height="1.35252" rx="0.676261" fill="white"/>
  <rect x="8.86646" y="11.4066" width="6.26682" height="1.35252" rx="0.676261" fill="white"/>
  <rect x="8.86646" y="13.7568" width="6.26682" height="1.35252" rx="0.676261" fill="white"/>
  <rect x="8.86646" y="8.97375" width="6.26682" height="1.35252" rx="0.676261" fill="#8987C9"/>
  <rect x="8.86646" y="11.3237" width="6.26682" height="1.35252" rx="0.676261" fill="#8987C9"/>
  <rect x="8.86646" y="13.674" width="6.26682" height="1.35252" rx="0.676261" fill="#8987C9"/>
  <defs>
    <linearGradient id="paint0_linear_5424_5022" x1="12.5113" y1="19.1821" x2="8.3651" y2="6.80839" gradientUnits="userSpaceOnUse">
      <stop stop-color="#8987C9"/>
      <stop offset="1" stop-color="#BDBFFF"/>
    </linearGradient>
    <linearGradient id="paint1_linear_5424_5022" x1="18.2122" y1="12.1117" x2="15.1674" y2="4.92958" gradientUnits="userSpaceOnUse">
      <stop stop-color="#8987C9"/>
      <stop offset="1" stop-color="#BDBFFF"/>
    </linearGradient>
    <linearGradient id="paint2_linear_5424_5022" x1="18.1037" y1="18.8408" x2="19.2935" y2="20.2025" gradientUnits="userSpaceOnUse">
      <stop stop-color="#8987C9"/>
      <stop offset="1" stop-color="#BDBFFF"/>
    </linearGradient>
    <linearGradient id="paint3_linear_5424_5022" x1="7.65245" y1="19.5708" x2="2.15747" y2="19.7651" gradientUnits="userSpaceOnUse">
      <stop stop-color="#8987C9"/>
      <stop offset="1" stop-color="#BDBFFF"/>
    </linearGradient>
  </defs>
</svg>
